<?xml version="1.0" encoding="UTF-8"?>
<svg baseProfile="basic" version="1.1" viewBox="0 0 108.8 55.3" xml:space="preserve" xmlns="http://www.w3.org/2000/svg">
	<path d="m107.7 37.4c1.4-2.9 0.2-6.4-2.8-7.8-0.2-0.1-0.5-0.2-0.7-0.3l-0.2-0.1c3.1-0.8 5-4 4.3-7.1l-0.3-0.9c-1.1-2.6-2.8-5-5-6.8-1.1-0.9-2.4-1.5-3.9-1.5-2 0-3.9 1-4.9 2.7v-9.4c0-3.2-2.6-5.8-5.8-5.9-1.9 0.1-3.8 0.4-5.6 0.9-1.7 0.5-3.4 1.1-5 1.8-2.9 1.4-4.2 4.9-2.8 7.8 0.1 0.1 0.1 0.3 0.2 0.4l4.8 8.3c-2.9-1.5-6.4-0.4-8 2.5-0.1 0.3-0.3 0.6-0.4 0.8s-0.1 0.4-0.2 0.5c-0.8-0.8-1.8-1.4-2.8-1.9-1.5-0.7-3.2-1.1-4.9-1.1-1.3 0-2.6 0.2-3.8 0.6-2.2-1.2-4.9-0.9-6.9 0.7v-1.2c0-3.5-2.8-6.3-6.3-6.3s-6.3 2.8-6.3 6.3v3.6c-2.2-2.3-5.2-3.5-8.4-3.5-2.7 0-5.3 1-7.4 2.7-2-2.9-6-3.5-8.9-1.5-1.1 0.8-2 2-2.4 3.3l-0.3 0.9-0.6-1.9c-1.5-3.1-5.3-4.5-8.4-3h-0.1c-3.2 1.5-4.5 5.3-2.9 8.5l6 12.5c-3.2 1.3-4.7 4.9-3.5 8.1 0.2 0.5 0.4 0.9 0.7 1.3 0.9 1.2 2.6 2.6 5.9 2.7h0.4c4.6 0 7.9-2.3 9.2-6.2 0.5-1.6 1.1-3.5 1.7-5.5 0.1 0.2 0.2 0.5 0.4 0.7 2 3.8 5.6 5.8 10.2 5.8 4.3 0 7.4-1.5 9.3-3.4 1.7 3.1 5.5 4.2 8.5 2.5l0.9-0.6v1.2c0.1 3.5 2.9 6.3 6.4 6.2 3.3-0.1 6.1-2.7 6.2-6h0.3c1.1 0 5.1-0.2 7.9-3.2 0.6-0.6 1.1-1.3 1.5-2 1.5 0.8 3.2 0.9 4.7 0.2 0.4 0.5 0.8 0.9 1.3 1.2 2.3 1.6 5 2.7 7.8 3.2 0.3 0.1 0.6 0.1 1 0.1 3.2 0 5.8-2.5 5.8-5.6v-0.2l0.1 0.2c1.7 2.7 5.3 3.6 8.1 1.9 0.2-0.1 0.4-0.3 0.6-0.5 2.3-1.8 4.1-4.1 5.3-6.7z" fill="#fff"/>
	<path d="m105 29.3c1.4-0.6 2.6-1.7 3.2-3.1 0.7-1.6 0.8-3.5 0.1-5.1-1.1-2.7-2.9-5-5-6.9-1.1-1-2.6-1.5-4.1-1.5-1.8 0-3.5 0.8-4.6 2.1v-8.6c0-3.4-2.7-6.1-6.1-6.2-1.9 0.1-3.9 0.4-5.7 0.9-1.7 0.5-3.4 1.1-5 1.9-3.1 1.5-4.4 5.1-2.9 8.2 0.1 0.1 0.1 0.3 0.2 0.4l4.3 7.5c-0.7-0.2-1.3-0.3-2-0.3-2.6 0-5 1.7-5.8 4.2v0.1c-0.8-0.7-1.6-1.2-2.5-1.6-1.6-0.8-3.3-1.1-5.1-1.1-1.3 0-2.5 0.2-3.7 0.6-2.1-1.1-4.6-0.9-6.6 0.4v-0.6c0.1-3.6-2.8-6.7-6.4-6.8s-6.7 2.8-6.8 6.4v0.4 2.8c-2.2-2-5.1-3.1-8.1-3.1-2.7 0-5.2 0.9-7.3 2.5-0.8-1.1-2-1.8-3.2-2.2-0.6-0.2-1.3-0.3-2-0.3-2.9 0-5.5 1.9-6.4 4.7v0.1l-0.5-1.1c-1.6-3.3-5.5-4.7-8.8-3.1h-0.1c-3.3 1.6-4.7 5.6-3.1 8.9l5.9 12.1c-2.1 0.7-3.4 2.2-3.9 4.1-0.6 1.9-0.2 4 1 5.6 0.9 1.3 2.7 2.8 6.1 2.8h0.4c4.7 0 8.2-2.4 9.5-6.4l1.5-4.8v0.1c2 3.9 5.8 6 10.5 6s7.6-1.7 9.2-3.2c1.9 3.1 6 4.1 9.1 2.1 0.1 0 0.1-0.1 0.2-0.1v0.6c0 3.6 2.9 6.6 6.5 6.7 3.5 0 6.5-2.7 6.7-6.2 1.2 0 5.3-0.2 8.1-3.3 0.5-0.5 1-1.1 1.4-1.8 0.8 0.4 1.6 0.6 2.5 0.6 0.7 0 1.4-0.1 2.1-0.4 0.4 0.4 0.8 0.8 1.2 1.1 2.4 1.6 5.1 2.7 7.9 3.2 0.3 0.1 0.7 0.1 1 0.1 3.1 0 5.7-2.2 6.1-5.3 1.2 1.5 2.9 2.4 4.8 2.4 1.4 0 2.8-0.5 3.9-1.4 2.2-1.8 4-4.1 5.3-6.8 1.5-3.1 0.2-6.7-2.9-8.2 0-0.1 0-0.1-0.1-0.1zm-6.2 16.1c-2 0-3.9-1-5-2.7l-0.1-0.2v0.2c-0.1 3.2-2.7 5.7-5.8 5.6-0.3 0-0.6 0-1-0.1-2.8-0.5-5.5-1.6-7.8-3.2-0.5-0.3-0.9-0.7-1.3-1.2-1.5 0.7-3.3 0.6-4.7-0.2-0.4 0.7-0.9 1.4-1.5 2-2.8 3-6.8 3.2-7.9 3.2h-0.3c-0.1 3.5-3.1 6.2-6.5 6-3.3-0.1-6-2.9-6-6.2v-1.2c-2.7 2.2-6.7 1.7-8.8-1l-0.6-0.9c-1.9 1.9-4.9 3.4-9.3 3.4-4.6 0-8.2-2.1-10.2-5.8-0.1-0.2-0.2-0.5-0.4-0.7-0.6 2-1.2 3.9-1.7 5.5-1.3 4-4.6 6.2-9.2 6.2h-0.4c-3.3-0.1-5-1.5-5.9-2.7-2-2.8-1.4-6.7 1.4-8.7 0.3-0.3 0.7-0.5 1.2-0.7l-6.1-12.4c-1.5-3.2-0.2-7 2.9-8.5 3.1-1.6 6.9-0.3 8.5 2.8v0.1l0.9 1.8 0.3-0.9c1-3.4 4.6-5.2 8-4.2 1.3 0.4 2.5 1.2 3.3 2.4 2.1-1.7 4.7-2.6 7.4-2.7 3.2 0 6.2 1.2 8.4 3.5v-3.5c0-3.5 2.8-6.3 6.3-6.3s6.3 2.8 6.3 6.3v1.1c2-1.6 4.7-1.8 6.9-0.7 1.2-0.4 2.5-0.6 3.8-0.6 1.7 0 3.4 0.4 4.9 1.1 1 0.5 2 1.1 2.8 1.9 0.1-0.2 0.1-0.4 0.2-0.5 1-3.1 4.4-4.7 7.4-3.7 0.3 0.1 0.6 0.2 0.8 0.4l-4.8-8.3c-1.6-2.8-0.7-6.4 2.1-8 0.1-0.1 0.3-0.2 0.4-0.2 1.6-0.8 3.3-1.4 5-1.8 1.8-0.5 3.7-0.8 5.6-0.9 3.2 0 5.8 2.6 5.8 5.8v9.6c1.1-1.7 2.9-2.8 4.9-2.7 1.4 0 2.8 0.5 3.9 1.5 2.1 1.9 3.8 4.2 5 6.8 1.3 3-0.1 6.4-3 7.7-0.3 0.1-0.6 0.2-0.9 0.3l0.2 0.1c3.1 1 4.8 4.3 3.8 7.4-0.1 0.2-0.2 0.5-0.3 0.7-1.2 2.6-3 4.8-5.2 6.6-1 0.9-2.3 1.4-3.7 1.4z" fill="#ccc"/>
	<path d="m49 42.6c0 1.2-1 2.2-2.2 2.2s-2.2-1-2.2-2.2v-22.1c0-1.2 1-2.2 2.2-2.2s2.2 1 2.2 2.2v22.1z" fill="#050505"/>
	<path d="m29.8 36.4h8.1c1.3-0.1 2.2-1.2 2.2-2.5v-0.1c-0.4-8.1-5.6-9.3-8-9.3s-8 1.4-8 10.5c0 3.4 0.8 9.9 7.9 9.9 6.2 0 7.5-3.5 7.5-4.5 0-1.3-1.1-2.5-2.4-2-1 0.3-2.4 2.4-4.7 2.4-3.2 0-3.7-3-3.7-3.6 0.1-0.6 0.4-0.8 1.1-0.8zm-1-4c0.1-3.1 2.5-3.6 3.5-3.6 1.1 0 3.4 0.5 3.5 3.6 0 0.2-0.1 0.3-0.2 0.3h-6.6c-0.1 0.1-0.2 0-0.2-0.3z" fill="#050505"/>
	<path d="m11.6 42.1l-7-14.3c-0.6-1.1-0.2-2.5 0.9-3.1s2.5-0.2 3.1 0.9c0 0.1 0.1 0.2 0.1 0.2l5.4 11 3.3-10.7c0.3-1.2 1.6-1.9 2.8-1.6s1.9 1.6 1.6 2.8v0.2s-3.7 12.2-6 19.2c-0.7 2.3-2.7 3.5-5.6 3.4s-3.3-1.8-3-2.9c0.3-1 1.3-1.7 2.4-1.6 2.6 0 2.9-1.6 2-3.5z" fill="#050505"/>
	<path d="m75.7 37.9c0.7 0 1.2 0.6 1.2 1.2 0 0.7-0.6 1.2-1.2 1.2-0.7 0-1.2-0.6-1.2-1.2-0.1-0.6 0.5-1.2 1.2-1.2zm0 2.3c0.6 0 1.1-0.5 1.1-1s-0.5-1.1-1-1.1c-0.6 0-1.1 0.5-1.1 1-0.1 0.6 0.4 1.1 1 1.1zm-0.5-1.8h0.5c0.3 0 0.5 0.1 0.5 0.4 0 0.2-0.1 0.4-0.3 0.4l0.4 0.6h-0.2l-0.4-0.6h-0.3v0.6h-0.2v-1.4zm0.2 0.7h0.2c0.2 0 0.4 0 0.4-0.2s-0.2-0.2-0.3-0.2h-0.3v0.4z" fill="#050505"/>
	<path d="m71 33.8c0-2.9-0.4-6.9-4-8.7-2.1-1-4.6-0.9-6.6 0.2-0.4 0.2-0.8 0.5-1.1 0.7-0.3-1.2-1.5-1.9-2.7-1.7-1 0.2-1.7 1.1-1.7 2.2v22.1c0.1 1.2 1.1 2.2 2.3 2.1 1.1-0.1 2-1 2.1-2.1v-5.8c1 1.1 2.4 1.8 3.9 1.9 8.4 0.3 7.8-8.9 7.8-10.9zm-4.4 1.7c0 1.8 0 4.9-3.2 4.9s-3.2-3.2-3.2-4.9v-1.6c0-1.8 0-4.9 3.2-4.9s3.2 3.2 3.2 4.9v1.6z" fill="#050505"/>
	<path d="m78 23.1l7.7 3.8c0.9 0.4 1.3 1.5 0.8 2.4-0.2 0.5-0.7 0.8-1.2 1l-8.3 2c-0.9 0.2-1.9-0.3-2.2-1.3v-0.2c-0.3-2.2 0-4.5 0.7-6.6 0.3-0.9 1.3-1.4 2.2-1.1 0.1-0.1 0.2 0 0.3 0z" fill="#D32323"/>
	<path d="m81.1 39.1l5.8-6.4c0.6-0.7 1.8-0.8 2.5-0.2 0.4 0.4 0.6 0.9 0.6 1.4l-0.3 8.6c0 1-0.9 1.7-1.8 1.7h-0.2c-2.2-0.4-4.3-1.2-6.2-2.5-0.8-0.6-1-1.7-0.5-2.5 0 0 0-0.1 0.1-0.1z" fill="#D32323"/>
	<path d="m94.8 30.5l8.2 2.7c0.9 0.3 1.5 1.3 1.2 2.2 0 0.1-0.1 0.2-0.1 0.2-1 2-2.4 3.8-4.1 5.3-0.8 0.6-1.9 0.5-2.5-0.2-0.1-0.1-0.1-0.1-0.1-0.2l-4.6-7.3c-0.5-0.8-0.3-1.9 0.5-2.4 0.4-0.4 1-0.4 1.5-0.3z" fill="#D32323"/>
	<path d="m103.2 25.3l-8.3 2.4c-0.9 0.3-1.9-0.3-2.2-1.2-0.2-0.5-0.1-1.1 0.2-1.5l4.8-7.2c0.5-0.8 1.6-1 2.5-0.5 0.1 0 0.1 0.1 0.2 0.1 1.7 1.5 3 3.4 3.9 5.4 0.4 0.9 0 1.9-0.9 2.3l-0.2 0.2z" fill="#D32323"/>
	<path d="m83.8 5.2c-1.5 0.4-2.9 0.9-4.3 1.6-0.9 0.4-1.3 1.5-0.8 2.4 0 0 0 0.1 0.1 0.1l8.1 14.1c0.5 0.9 1.6 1.2 2.4 0.7 0.6-0.3 0.9-0.9 0.9-1.6v-16.3c0-1-0.8-1.8-1.8-1.8h-0.1c-1.6 0.1-3.1 0.4-4.5 0.8z" fill="#D32323"/>
</svg>
