<svg style="display: none;" id="location-contact-icons" xmlns="http://www.w3.org/2000/svg">
<symbol id="location-contact-icons-map-marker" viewBox="0 0 32 32">
<path d="M16 2.182c-5.291 0-9.455 3.782-9.455 9.164 0 4.338 1.874 7.504 4.023 9.596 1.077 1.049 2.219 1.823 3.217 2.332 1.023 0.521 1.82 0.727 2.215 0.727s1.192-0.205 2.215-0.727c0.998-0.509 2.14-1.283 3.217-2.332 2.148-2.092 4.023-5.258 4.023-9.596 0-5.381-4.164-9.164-9.455-9.164zM5.091 11.346c0-6.255 4.887-10.618 10.909-10.618s10.909 4.363 10.909 10.618c0 4.799-2.085 8.324-4.462 10.638-1.186 1.154-2.448 2.013-3.571 2.585-1.098 0.56-2.14 0.885-2.876 0.885s-1.777-0.325-2.876-0.885c-1.123-0.573-2.385-1.431-3.571-2.585-2.377-2.315-4.462-5.84-4.462-10.638zM16 8c-1.205 0-2.182 0.977-2.182 2.182s0.977 2.182 2.182 2.182c1.205 0 2.182-0.977 2.182-2.182s-0.977-2.182-2.182-2.182zM12.364 10.182c0-2.008 1.628-3.636 3.636-3.636s3.636 1.628 3.636 3.636c0 2.008-1.628 3.636-3.636 3.636s-3.636-1.628-3.636-3.636zM5.367 23.015c0.142 0.376-0.046 0.796-0.422 0.938-0.97 0.368-1.693 0.768-2.161 1.166-0.471 0.401-0.602 0.727-0.602 0.961 0 0.272 0.181 0.669 0.843 1.15 0.645 0.468 1.626 0.921 2.903 1.313 2.546 0.782 6.107 1.276 10.072 1.276s7.526-0.494 10.072-1.276c1.277-0.392 2.258-0.844 2.903-1.313 0.662-0.48 0.843-0.878 0.843-1.15 0-0.234-0.131-0.56-0.602-0.961-0.468-0.398-1.191-0.798-2.161-1.166-0.376-0.143-0.564-0.562-0.422-0.938s0.562-0.564 0.938-0.422c1.052 0.399 1.945 0.871 2.588 1.419 0.64 0.545 1.114 1.239 1.114 2.069 0 0.961-0.633 1.738-1.443 2.327-0.827 0.6-1.976 1.11-3.331 1.526-2.719 0.835-6.43 1.34-10.499 1.34s-7.78-0.505-10.499-1.34c-1.355-0.416-2.504-0.926-3.331-1.526-0.81-0.588-1.443-1.365-1.443-2.327 0-0.83 0.474-1.524 1.114-2.069 0.643-0.548 1.536-1.020 2.588-1.419 0.376-0.142 0.795 0.047 0.938 0.422z"></path>
</symbol>
<symbol id="location-contact-icons-phone" viewBox="0 0 32 32">
<title>phone</title>
<path fill="transparent" stroke-linejoin="round" stroke-linecap="round" stroke-miterlimit="4" stroke-width="2.1818" d="M5.517 17.455c-1.965-3.33-3.265-7.204-3.795-11.518-0.155-1.264-0.232-1.896-0.006-2.539 0.233-0.662 0.822-1.327 1.451-1.639 0.611-0.303 1.334-0.303 2.78-0.303v0c1.178 0 1.767 0 2.263 0.187 0.552 0.208 1.028 0.58 1.364 1.065 0.302 0.436 0.445 1.008 0.731 2.15l0.178 0.712c0.422 1.69 0.634 2.535 0.602 3.364-0.028 0.734-0.195 1.457-0.492 2.129-0.335 0.759-0.896 1.425-2.018 2.758l-3.058 3.634zM5.517 17.455c2.117 3.586 5.004 6.539 8.531 8.727M14.048 26.182c3.439 2.134 7.485 3.54 12.016 4.096 1.264 0.155 1.896 0.232 2.539 0.006 0.662-0.233 1.328-0.822 1.639-1.451 0.303-0.611 0.303-1.349 0.303-2.824v0c0-1.148 0-1.723-0.187-2.219-0.208-0.552-0.58-1.028-1.065-1.364-0.436-0.302-1.008-0.445-2.15-0.731l-1.030-0.257c-1.577-0.394-2.366-0.592-3.145-0.575-0.69 0.015-1.372 0.152-2.015 0.406-0.725 0.286-1.376 0.774-2.677 1.748l-4.227 3.165z"></path>
</symbol>
<!-- <symbol id="location-contact-icons-map-marker" viewBox="0 0 22 22">
<path fill-rule="evenodd" clip-rule="evenodd" d="M11 1.5C7.3625 1.5 4.5 4.10029 4.5 7.80006C4.5 10.7826 5.78848 12.9591 7.2655 14.3974C8.006 15.1185 8.79101 15.6506 9.4771 16.0004C10.1803 16.3589 10.7281 16.5 11 16.5C11.2719 16.5 11.8197 16.3589 12.5229 16.0004C13.209 15.6506 13.994 15.1185 14.7345 14.3974C16.2115 12.9591 17.5 10.7826 17.5 7.80006C17.5 4.10029 14.6375 1.5 11 1.5ZM3.5 7.80006C3.5 3.49977 6.85972 0.5 11 0.5C15.1403 0.5 18.5 3.49977 18.5 7.80006C18.5 11.0991 17.0663 13.5225 15.4322 15.1138C14.6171 15.9075 13.7493 16.4976 12.9771 16.8913C12.222 17.2763 11.5059 17.5 11 17.5C10.4941 17.5 9.778 17.2763 9.0229 16.8913C8.25066 16.4976 7.38289 15.9075 6.56784 15.1138C4.93374 13.5225 3.5 11.0991 3.5 7.80006ZM11 5.5C10.1716 5.5 9.5 6.17157 9.5 7C9.5 7.82843 10.1716 8.5 11 8.5C11.8284 8.5 12.5 7.82843 12.5 7C12.5 6.17157 11.8284 5.5 11 5.5ZM8.5 7C8.5 5.61929 9.61929 4.5 11 4.5C12.3807 4.5 13.5 5.61929 13.5 7C13.5 8.38071 12.3807 9.5 11 9.5C9.61929 9.5 8.5 8.38071 8.5 7ZM3.68971 15.8226C3.78766 16.0808 3.65777 16.3695 3.39959 16.4675C2.73272 16.7205 2.23553 16.9955 1.91412 17.2692C1.59011 17.5451 1.5 17.7691 1.5 17.9299C1.5 18.1166 1.62473 18.3901 2.07956 18.7203C2.52328 19.0423 3.19752 19.3532 4.07568 19.6228C5.82585 20.1601 8.27408 20.5 11 20.5C13.7259 20.5 16.1741 20.1601 17.9243 19.6228C18.8025 19.3532 19.4767 19.0423 19.9204 18.7203C20.3753 18.3901 20.5 18.1166 20.5 17.9299C20.5 17.7691 20.4099 17.5451 20.0859 17.2692C19.7645 16.9955 19.2673 16.7205 18.6004 16.4675C18.3422 16.3695 18.2123 16.0808 18.3103 15.8226C18.4083 15.5645 18.697 15.4346 18.9551 15.5325C19.6781 15.8068 20.292 16.1312 20.7342 16.5078C21.1739 16.8822 21.5 17.3595 21.5 17.9299C21.5 18.5909 21.0651 19.1251 20.5079 19.5295C19.9395 19.9421 19.1493 20.2928 18.2178 20.5788C16.3487 21.1526 13.7969 21.5 11 21.5C8.20307 21.5 5.6513 21.1526 3.78219 20.5788C2.8507 20.2928 2.06048 19.9421 1.49214 19.5295C0.934915 19.1251 0.5 18.5909 0.5 17.9299C0.5 17.3595 0.826116 16.8822 1.26577 16.5078C1.70802 16.1312 2.32194 15.8068 3.04486 15.5325C3.30304 15.4346 3.59175 15.5645 3.68971 15.8226Z" fill="#2D8DFF"/>
</symbol> -->
<!-- <symbol id="location-contact-icons-phone" viewBox="0 0 22 22">
<path fill-rule="evenodd" clip-rule="evenodd" d="M5.4671 1.59664C5.23198 1.50792 4.93925 1.50006 4.08765 1.50006C3.58219 1.50006 3.23458 1.50049 2.96008 1.52425C2.69464 1.54724 2.53303 1.58986 2.39891 1.65643C2.08342 1.813 1.76794 2.16952 1.65093 2.50172C1.54249 2.80958 1.56806 3.11068 1.67961 4.0204C2.00304 6.65812 2.75381 9.04338 3.87359 11.1265L5.51186 9.17948C6.30198 8.24045 6.62929 7.84416 6.8243 7.40293C7.003 6.99859 7.10348 6.56406 7.12044 6.12232C7.13894 5.64026 7.01884 5.14052 6.7212 3.94994L6.59891 3.46078C6.39236 2.63462 6.31374 2.35253 6.17065 2.14595C5.99731 1.8957 5.75192 1.70411 5.4671 1.59664ZM4.40509 12.0481L6.27704 9.82331C6.29545 9.80142 6.31368 9.77976 6.33173 9.75831C7.05062 8.90411 7.47924 8.3948 7.73895 7.80717C7.96871 7.28731 8.09791 6.72862 8.1197 6.16067C8.14434 5.51867 7.98283 4.8729 7.71195 3.78981C7.70514 3.76262 7.69828 3.73515 7.69134 3.70741L7.56905 3.21825C7.561 3.18606 7.55308 3.15432 7.54527 3.12302C7.37232 2.4299 7.25325 1.9527 6.99271 1.57655C6.7038 1.15945 6.29483 0.840138 5.82012 0.661022C5.39201 0.499487 4.90018 0.499707 4.18581 0.500028C4.15355 0.500042 4.12083 0.500057 4.08765 0.500057L4.06603 0.500057C3.58741 0.500051 3.19648 0.500046 2.87382 0.527982C2.53727 0.557122 2.24033 0.618746 1.95436 0.760672C1.40562 1.033 0.91125 1.59169 0.707731 2.16949C0.512413 2.72401 0.579671 3.27012 0.675357 4.04707C0.679211 4.07837 0.683112 4.11004 0.687043 4.1421C1.0584 7.17066 1.97264 9.90132 3.36145 12.2542C4.85751 14.7888 6.90012 16.8779 9.39336 18.4249C11.8241 19.9332 14.6762 20.9221 17.8568 21.3121C17.8889 21.316 17.9206 21.3199 17.9519 21.3238C18.729 21.4195 19.2751 21.4868 19.8297 21.2915C20.4075 21.0879 20.9662 20.5936 21.2385 20.0448C21.3809 19.7578 21.4423 19.4576 21.4712 19.1171C21.4991 18.7897 21.4991 18.3915 21.4991 17.9027V17.8812C21.4991 17.8493 21.4991 17.8178 21.4991 17.7867C21.4995 17.0889 21.4997 16.6071 21.3381 16.179C21.159 15.7043 20.8397 15.2954 20.4226 15.0065C20.0465 14.7459 19.5693 14.6268 18.8761 14.4539C18.8448 14.4461 18.8131 14.4382 18.7809 14.4301L17.996 14.2339C16.9846 13.9809 16.3814 13.8301 15.7782 13.8429C15.2443 13.8543 14.7167 13.9607 14.22 14.1569C13.6589 14.3787 13.1612 14.7514 12.3267 15.3764C12.3059 15.392 12.2848 15.4078 12.2635 15.4238L9.63339 17.3931C7.50619 16.015 5.7412 14.2112 4.40509 12.0481ZM10.5562 17.9514C12.7132 19.1677 15.2065 19.9796 17.9786 20.3195C18.8884 20.4311 19.1896 20.4567 19.4974 20.3483C19.8296 20.2312 20.1862 19.9158 20.3427 19.6003C20.4088 19.4672 20.4517 19.3038 20.4749 19.0322C20.4987 18.7523 20.4991 18.3967 20.4991 17.8812C20.4991 17.0513 20.4914 16.7675 20.4025 16.5321C20.2951 16.2472 20.1035 16.0019 19.8532 15.8285C19.6466 15.6854 19.3646 15.6068 18.5384 15.4003L17.8301 15.2232C16.7188 14.9454 16.2525 14.833 15.7995 14.8427C15.3842 14.8516 14.9739 14.9343 14.5876 15.0869C14.1662 15.2535 13.7798 15.5377 12.8629 16.2242L10.5562 17.9514Z" fill="#2D8DFF"/>
</symbol> -->
</svg>