<svg width="1920" height="1704" viewBox="0 0 1920 1704" fill="none" xmlns="http://www.w3.org/2000/svg">
<path fill-rule="evenodd" clip-rule="evenodd" d="M960 1703C1675.76 1703 2256 1122.76 2256 407C2256 -308.761 1675.76 -889 960 -889C244.239 -889 -336 -308.761 -336 407C-336 1122.76 244.239 1703 960 1703ZM960 1704C1676.31 1704 2257 1123.31 2257 407C2257 -309.313 1676.31 -890 960 -890C243.687 -890 -337 -309.313 -337 407C-337 1123.31 243.687 1704 960 1704Z" fill="white"/>
<path fill-rule="evenodd" clip-rule="evenodd" d="M960 1695C1671.34 1695 2248 1118.34 2248 407C2248 -304.343 1671.34 -881 960 -881C248.657 -881 -328 -304.343 -328 407C-328 1118.34 248.657 1695 960 1695ZM960 1696C1671.9 1696 2249 1118.9 2249 407C2249 -304.895 1671.9 -882 960 -882C248.105 -882 -329 -304.895 -329 407C-329 1118.9 248.105 1696 960 1696Z" fill="white"/>
</svg>
