<svg width="97" height="59" viewBox="0 0 97 59" fill="none" xmlns="http://www.w3.org/2000/svg">
<path fill-rule="evenodd" clip-rule="evenodd" d="M90.6165 2.51339C90.885 2.57772 91.0506 2.84758 90.9862 3.11612C86.337 22.5217 71.3939 35.2007 54.7028 43.1634C38.0101 51.1269 19.4925 54.4132 7.52446 54.999C7.24865 55.0125 7.01411 54.7999 7.00061 54.5241C6.98711 54.2483 7.19975 54.0137 7.47556 54.0002C19.3409 53.4194 37.7233 50.1557 54.2722 42.2608C70.8228 34.3652 85.463 21.8776 90.0138 2.88313C90.0781 2.61459 90.348 2.44905 90.6165 2.51339Z" fill="#FE0000"/>
<path fill-rule="evenodd" clip-rule="evenodd" d="M4 58C5.65685 58 7 56.6569 7 55C7 53.3431 5.65685 52 4 52C2.34315 52 1 53.3431 1 55C1 56.6569 2.34315 58 4 58ZM4 59C6.20914 59 8 57.2091 8 55C8 52.7909 6.20914 51 4 51C1.79086 51 0 52.7909 0 55C0 57.2091 1.79086 59 4 59Z" fill="#FE0000"/>
<path fill-rule="evenodd" clip-rule="evenodd" d="M94.477 8.64428C94.2196 8.78712 93.8952 8.69427 93.7523 8.43689L90.963 3.41084L90.6091 2.71034L89.9382 3.11754L84.9121 5.90693C84.6547 6.04977 84.3303 5.95692 84.1874 5.69955C84.0446 5.44217 84.1375 5.11773 84.3948 4.97489L90.546 1.5611C90.6696 1.49251 90.8154 1.47582 90.9513 1.51472C91.0872 1.55361 91.202 1.6449 91.2706 1.76849L94.6844 7.91963C94.8272 8.17701 94.7344 8.50145 94.477 8.64428Z" fill="#FE0000"/>
</svg>
