<svg width="96" height="110" viewBox="0 0 96 110" fill="none" xmlns="http://www.w3.org/2000/svg">
<path d="M54.0475 101.843C21 86.1748 20.0504 35.0426 45.1607 4.56841" stroke="#FE0000" stroke-linecap="round"/>
<circle cx="4" cy="4" r="3.5" transform="matrix(-0.602356 -0.798227 -0.798227 0.602356 63.2031 104.561)" fill="#00070D" stroke="#FE0000"/>
<path fill-rule="evenodd" clip-rule="evenodd" d="M38.26 4.79393C38.301 5.08541 38.5705 5.28846 38.862 5.24744L44.5541 4.4465L45.3265 4.30704L45.4055 5.08786L46.2065 10.78C46.2475 11.0715 46.517 11.2746 46.8085 11.2335C47.1 11.1925 47.303 10.923 47.262 10.6315L46.2818 3.66517C46.2621 3.52519 46.1876 3.39877 46.0747 3.31372C45.9618 3.22867 45.8197 3.19195 45.6798 3.21165L38.7135 4.19188C38.422 4.2329 38.2189 4.50244 38.26 4.79393Z" fill="#FE0000"/>
</svg>
