<svg width="278" height="15" viewBox="0 0 278 15" fill="none" xmlns="http://www.w3.org/2000/svg">
<path d="M1.77725 9.408V6.592C1.77725 4.112 1.77725 3.648 1.72925 3.136C1.69725 2.688 1.52125 2.4 1.16925 2.336C1.05725 2.304 0.89725 2.288 0.68925 2.272C0.49725 2.272 0.38525 2.208 0.38525 2.096C0.38525 2 0.46525 1.952 0.73725 1.952C1.37725 1.952 2.94525 2 3.07325 2C3.21725 2 5.10525 1.952 5.68125 1.952C5.95325 1.952 6.03325 2.016 6.03325 2.112C6.03325 2.24 5.88925 2.272 5.72925 2.272C5.56925 2.288 5.47325 2.288 5.26525 2.32C4.84925 2.4 4.68925 2.608 4.65725 3.184C4.60925 3.696 4.60925 4.112 4.60925 6.592V9.408C4.60925 10.672 4.62525 12.16 4.68925 12.832C4.72125 13.248 4.81725 13.536 5.29725 13.648C5.50525 13.696 5.79325 13.712 6.00125 13.728C6.27325 13.728 6.33725 13.792 6.33725 13.888C6.33725 13.968 6.25725 14.048 6.00125 14.048C4.91325 14.048 3.20125 14 3.05725 14C2.97725 14 1.29725 14.048 0.75325 14.048C0.49725 14.048 0.36925 14.016 0.36925 13.888C0.36925 13.776 0.49725 13.728 0.68925 13.728C0.84925 13.712 1.00925 13.696 1.18525 13.664C1.52125 13.616 1.63325 13.264 1.68125 12.8C1.74525 12.128 1.77725 10.976 1.77725 9.408ZM10.3288 1.792C10.3288 3.136 9.01675 4.784 8.08875 5.568C7.92875 5.712 7.81675 5.76 7.75275 5.76C7.68875 5.76 7.65675 5.728 7.65675 5.664C7.65675 5.632 7.67275 5.568 7.75275 5.44C8.18475 4.672 8.56875 3.856 8.56875 2.784C8.56875 1.792 8.23275 1.472 7.88075 1.12C7.78475 1.024 7.81675 0.879999 7.99275 0.879999C8.66475 0.879999 9.51275 1.056 9.86475 1.184C10.2808 1.344 10.3288 1.552 10.3288 1.792ZM23.5436 3.952L24.6796 12.256C24.7916 13.152 24.9676 13.504 25.4476 13.632C25.7036 13.712 25.8636 13.712 26.1036 13.728C26.3116 13.76 26.3596 13.808 26.3596 13.904C26.3596 14.016 26.2956 14.048 26.0556 14.048C24.6636 14.048 23.8156 14.064 21.9116 13.968C21.6716 13.968 21.6236 13.856 21.6236 13.792C21.6236 13.728 21.6876 13.68 21.7676 13.648C22.0396 13.552 22.0716 13.504 22.0076 12.816L21.5756 8.144L18.6636 13.248C18.2636 13.968 18.1516 14.048 18.0396 14.048C17.8796 14.048 17.8156 13.936 17.3676 13.28C16.7756 12.352 16.0396 11.072 15.3836 10.032C15.1276 9.6 14.5676 8.608 14.3436 8.272L13.9916 11.776C13.9436 12.464 13.9436 12.736 13.9436 12.944C13.9436 13.376 14.0716 13.584 14.4556 13.664C14.6316 13.696 14.7756 13.712 14.9676 13.728C15.1596 13.728 15.2396 13.792 15.2396 13.872C15.2396 13.984 15.1756 14.048 14.9196 14.048C14.2956 14.048 13.4956 14 13.0316 14C12.5356 14 11.8636 14.048 11.3036 14.048C11.1596 14.048 11.0156 14.016 11.0156 13.872C11.0156 13.792 11.0796 13.744 11.2716 13.728C11.4156 13.712 11.5276 13.712 11.6876 13.696C12.1036 13.616 12.2956 13.376 12.4556 12.32L13.7196 3.968C13.7996 3.504 13.8956 3.376 14.0396 3.376C14.1836 3.376 14.3116 3.52 14.6156 3.968L18.7756 10.304L22.7116 3.888C22.9836 3.504 23.1116 3.376 23.2396 3.376C23.4156 3.376 23.4796 3.568 23.5436 3.952ZM33.2616 9.408V6.592C33.2616 4.112 33.2296 3.792 33.2136 3.28C33.1816 2.624 32.9896 2.416 32.6056 2.336C32.3656 2.288 32.1096 2.288 31.9656 2.272C31.7736 2.256 31.6776 2.192 31.6776 2.096C31.6776 2 31.7896 1.952 32.0296 1.952C32.7176 1.952 34.2536 2 34.4776 2C34.7816 2 36.3176 1.952 37.0536 1.952C38.5576 1.952 39.6136 2.096 40.3176 2.496C41.0856 2.912 41.7736 3.728 41.7736 4.944C41.7736 6.288 41.0056 7.312 39.6296 8.16C40.6056 9.568 41.7736 11.28 42.7496 12.4C43.5976 13.344 43.9816 13.616 44.4296 13.68C44.6056 13.712 44.7016 13.712 44.8296 13.728C45.0056 13.728 45.1016 13.792 45.1016 13.888C45.1016 14.032 44.9416 14.048 44.7816 14.048H43.3416C41.6936 14.048 40.9896 13.888 40.4296 13.52C39.9176 13.216 39.4056 12.528 38.7816 11.52C38.0456 10.304 37.6776 9.648 37.3896 9.216C37.3576 9.168 37.2776 9.12 37.1976 9.12H36.1416C36.0616 9.12 36.0136 9.152 36.0136 9.248V10.064C36.0136 11.328 36.0136 12.08 36.0936 12.752C36.1256 13.168 36.2376 13.52 36.7176 13.632C36.9416 13.696 37.1176 13.696 37.4376 13.728C37.6936 13.744 37.7256 13.808 37.7256 13.904C37.7256 14 37.6136 14.048 37.3896 14.048C36.3176 14.048 34.5736 14 34.4616 14C34.2696 14 32.7176 14.048 32.1736 14.048C31.9336 14.048 31.8536 14 31.8536 13.888C31.8536 13.776 31.9656 13.728 32.1416 13.728C32.3016 13.712 32.5096 13.696 32.6856 13.664C33.0056 13.584 33.1336 13.296 33.1816 12.752C33.2456 12.08 33.2616 10.96 33.2616 9.408ZM36.0136 3.216V7.664C36.0136 7.792 36.0616 7.856 36.1576 7.904C36.4616 8.064 36.9416 8.112 37.3896 8.112C37.8216 8.112 38.1416 8.048 38.3976 7.856C38.7336 7.6 39.0216 6.912 39.0216 5.84C39.0216 3.568 37.5816 2.976 36.7496 2.976C36.4936 2.976 36.2216 2.992 36.1096 3.04C36.0456 3.072 36.0136 3.088 36.0136 3.216ZM45.9588 10.016V7.584C45.9588 5.28 45.9428 5.024 45.9108 4.576C45.8788 4.224 45.7348 4 45.3988 3.936C45.2708 3.904 45.1108 3.904 44.9668 3.888C44.7588 3.872 44.7268 3.792 44.7268 3.712C44.7268 3.632 44.8068 3.568 45.0308 3.568C45.8948 3.568 46.5668 3.616 47.1748 3.616C47.4308 3.616 51.1108 3.6 51.3348 3.6C51.6068 3.6 51.9108 3.584 52.1508 3.536C52.2468 3.504 52.3268 3.488 52.3748 3.488C52.4548 3.488 52.4868 3.552 52.4708 3.632C52.4388 3.808 52.3908 3.984 52.3588 4.304C52.3428 4.656 52.3268 4.944 52.2788 5.808C52.2788 5.92 52.2148 6.032 52.1188 6.032C52.0388 6.032 51.9748 5.968 51.9588 5.84C51.9268 5.648 51.9268 5.536 51.8788 5.328C51.7987 5.008 51.6228 4.816 50.9348 4.752C50.4068 4.72 49.2388 4.688 48.7908 4.688C48.7108 4.688 48.6788 4.736 48.6788 4.832V7.76C48.6788 7.856 48.6948 7.888 48.7908 7.888C49.2228 7.888 50.2148 7.888 50.7748 7.872C51.5588 7.84 51.7508 7.792 51.9268 7.52C51.9908 7.392 52.0548 7.344 52.1188 7.344C52.2148 7.344 52.2308 7.44 52.2308 7.52C52.2308 7.68 52.1348 8.288 52.1188 8.8C52.1028 9.104 52.0868 9.84 52.0868 10C52.0868 10.192 52.0388 10.24 51.9427 10.24C51.8628 10.24 51.7987 10.176 51.7828 10.016C51.7668 9.936 51.7668 9.84 51.7508 9.744C51.6708 9.312 51.5108 9.056 50.7588 9.008C50.3108 8.976 49.2228 8.96 48.7748 8.96C48.6948 8.96 48.6788 8.992 48.6788 9.072V10.08C48.6788 10.544 48.6628 11.2 48.6788 11.76C48.6948 12.736 48.8708 12.96 50.5028 12.96C50.8708 12.96 51.4308 12.944 51.8308 12.8C52.2308 12.64 52.3908 12.304 52.5188 11.664C52.5508 11.504 52.6148 11.424 52.7108 11.424C52.8228 11.424 52.8388 11.536 52.8388 11.712C52.8388 12.32 52.6948 13.44 52.6308 13.712C52.5188 14.064 52.4068 14.08 51.8788 14.08C49.7348 14.08 48.7108 14 47.1908 14C46.5188 14 45.8307 14.048 45.0148 14.048C44.7428 14.048 44.6788 13.968 44.6788 13.872C44.6788 13.808 44.7268 13.728 44.9668 13.728C45.1108 13.712 45.2228 13.712 45.3828 13.68C45.8468 13.6 45.8948 13.056 45.9428 12.08C45.9428 11.552 45.9588 10.784 45.9588 10.016ZM60.7125 11.408H57.4005C57.3045 11.408 57.2565 11.504 57.2405 11.552L56.9045 12.368C56.7605 12.72 56.6645 13.04 56.6645 13.216C56.6645 13.68 57.2725 13.696 57.6405 13.728C57.8485 13.744 57.8965 13.808 57.8965 13.872C57.8965 13.984 57.8165 14.048 57.6245 14.048C56.9205 14.048 56.4405 14 55.6245 14C55.4645 14 54.5365 14.048 53.8485 14.048C53.6245 14.048 53.5605 13.984 53.5605 13.888C53.5605 13.792 53.6405 13.728 53.8165 13.728C54.5045 13.648 54.8725 13.456 55.2885 12.512L59.1285 4.32C59.4645 3.584 59.6245 3.376 59.8005 3.376C59.9605 3.376 60.0885 3.584 60.3605 4.128C60.7125 4.912 63.1925 10.112 64.1525 12.224C64.6485 13.248 64.9045 13.616 65.4485 13.696C65.5765 13.712 65.6885 13.728 65.7685 13.728C65.9445 13.728 66.0405 13.808 66.0405 13.888C66.0405 14 65.9125 14.048 65.7525 14.048C64.1365 14.032 62.4725 14.016 61.6245 14C61.4325 14 61.3365 13.936 61.3365 13.856C61.3365 13.76 61.4325 13.728 61.5285 13.696C61.6565 13.648 61.8005 13.632 61.7205 13.456L60.8405 11.488C60.8245 11.44 60.7605 11.408 60.7125 11.408ZM57.8485 10.144H60.2485C60.3445 10.144 60.3445 10.112 60.3285 10.08L59.0645 7.216C59.0165 7.136 59.0165 7.168 58.9845 7.232L57.8005 10.08C57.7845 10.128 57.8165 10.144 57.8485 10.144ZM67.5213 10.016V7.584C67.5213 5.552 67.5213 5.264 67.4893 4.816C67.4573 4.432 67.4253 4 66.7853 3.936L66.3213 3.888C66.0973 3.856 66.0813 3.776 66.0813 3.712C66.0813 3.632 66.1133 3.568 66.3853 3.568C66.6413 3.568 68.0493 3.616 68.7373 3.616C69.2173 3.616 69.7933 3.584 71.0893 3.584C73.6973 3.584 75.4893 3.984 76.7373 5.2C77.4733 5.92 78.1133 7.072 78.1133 8.72C78.1133 10.384 77.3293 11.744 76.5133 12.512C75.7933 13.2 74.5613 14.16 71.6013 14.16C70.8333 14.16 69.2493 14 68.6733 14C68.0013 14 67.2013 14.048 66.5293 14.048C66.2893 14.048 66.2413 13.968 66.2413 13.888C66.2413 13.808 66.3372 13.728 66.4973 13.728C66.6573 13.728 66.7053 13.712 66.9133 13.68C67.6013 13.616 67.5213 12.608 67.5213 10.016ZM70.2253 7.392V9.152C70.2253 10.624 70.2413 11.488 70.2573 11.76C70.2893 12.4 70.3533 12.592 70.5133 12.768C70.7853 13.072 71.4093 13.232 71.9213 13.232C72.8173 13.232 73.6013 13.12 74.3373 12.336C75.0253 11.648 75.2173 10.32 75.2173 9.2C75.2173 7.936 74.8653 6.896 74.2573 6.032C73.3612 4.768 72.0333 4.496 71.1213 4.496C70.7853 4.496 70.4813 4.544 70.3693 4.624C70.2413 4.736 70.2253 4.8 70.2253 7.392ZM82.9174 11.52V10.448C82.9174 9.696 82.7574 9.456 82.5014 8.976C81.8614 7.84 80.5654 5.728 80.0854 5.056C79.4934 4.16 79.3494 4.064 78.8694 3.968C78.8214 3.952 78.6614 3.92 78.5654 3.904C78.4054 3.872 78.3574 3.808 78.3574 3.728C78.3574 3.632 78.4694 3.568 78.6454 3.568C79.3174 3.568 80.3894 3.616 80.9494 3.616C81.1734 3.616 82.1974 3.568 83.1414 3.568C83.3174 3.568 83.4134 3.632 83.4134 3.712C83.4134 3.808 83.3654 3.856 83.1574 3.904C82.7254 3.952 82.6294 4.064 82.6294 4.176C82.6294 4.272 82.6774 4.384 82.7734 4.56C82.9974 4.96 84.7254 7.952 84.9654 8.368C86.0214 6.496 86.5494 5.488 86.8214 4.912C86.9654 4.608 87.0614 4.448 87.0614 4.272C87.0614 4.096 86.9974 3.968 86.5014 3.904C86.3734 3.888 86.2774 3.84 86.2774 3.728C86.2774 3.632 86.3574 3.568 86.5974 3.568C87.2054 3.568 87.7014 3.616 88.2934 3.616C88.4694 3.616 89.7014 3.568 89.9734 3.568C90.1334 3.568 90.2454 3.6 90.2454 3.696C90.2454 3.808 90.1654 3.872 89.9734 3.888C89.7654 3.904 89.6054 3.936 89.4294 3.984C89.0134 4.144 88.8534 4.352 88.5974 4.672C88.1174 5.232 86.0534 8.688 85.8614 9.264C85.6534 9.856 85.6374 10.432 85.6374 10.544V11.52C85.6374 11.728 85.6374 12.224 85.6694 12.816C85.7014 13.152 85.7174 13.536 86.2614 13.648C86.5334 13.712 86.8054 13.712 87.0774 13.728C87.2374 13.728 87.3174 13.808 87.3174 13.888C87.3174 13.968 87.2694 14.048 87.0614 14.048C86.0054 14.048 84.6934 14 84.1974 14C83.7814 14 82.5494 14.048 81.8774 14.048C81.6694 14.048 81.5894 13.984 81.5894 13.872C81.5894 13.808 81.6534 13.728 81.8614 13.728C82.0854 13.712 82.2294 13.696 82.3574 13.664C82.7414 13.568 82.8534 13.312 82.8694 12.912C82.9174 12.32 82.9174 11.728 82.9174 11.52ZM96.3866 9.408V6.592C96.3866 3.984 96.3706 3.792 96.3386 3.28C96.3066 2.704 96.1786 2.432 95.7306 2.336C95.5706 2.304 95.3626 2.288 95.1866 2.272C95.0106 2.272 94.8666 2.24 94.8666 2.112C94.8666 1.984 94.9786 1.952 95.2346 1.952C96.1626 1.952 96.9786 2 97.6826 2C98.0346 2 102.115 1.984 102.387 1.984C102.707 1.984 102.995 1.952 103.203 1.904C103.315 1.872 103.427 1.856 103.507 1.856C103.571 1.856 103.619 1.92 103.603 2C103.587 2.112 103.523 2.432 103.491 2.816C103.459 3.184 103.411 3.712 103.379 4.352C103.363 4.56 103.315 4.624 103.203 4.624C103.091 4.624 103.059 4.528 103.043 4.368C103.027 4.176 103.027 4.096 102.979 3.872C102.883 3.52 102.643 3.264 101.923 3.216C101.331 3.168 99.8586 3.136 99.3466 3.136C99.2506 3.136 99.2186 3.184 99.2186 3.312V6.944C99.2186 7.056 99.2346 7.136 99.3466 7.136C99.8106 7.152 100.931 7.136 101.555 7.12C102.435 7.088 102.643 7.072 102.851 6.752C102.947 6.608 102.995 6.544 103.075 6.544C103.171 6.544 103.187 6.656 103.187 6.752C103.187 6.912 103.091 7.488 103.059 8.048C103.043 8.4 103.027 9.216 103.027 9.392C103.027 9.568 103.011 9.712 102.883 9.712C102.787 9.712 102.723 9.616 102.723 9.44C102.707 9.328 102.691 9.216 102.675 9.088C102.611 8.656 102.387 8.368 101.619 8.304C101.155 8.272 99.7786 8.256 99.3146 8.256C99.2346 8.256 99.2186 8.32 99.2186 8.464V9.568C99.2186 11.104 99.2186 12.112 99.2986 12.784C99.3466 13.248 99.4426 13.568 100.035 13.664C100.259 13.696 100.419 13.712 100.579 13.728C100.819 13.728 100.931 13.776 100.931 13.872C100.931 13.968 100.883 14.048 100.579 14.048C99.6826 14.048 99.5546 14 97.8746 14C96.7386 14 95.7946 14.048 95.3946 14.048C95.1546 14.048 95.0586 13.984 95.0586 13.888C95.0586 13.808 95.1066 13.744 95.3466 13.728C95.5066 13.712 95.5866 13.696 95.7626 13.664C96.1946 13.6 96.2746 13.184 96.3226 12.528C96.3866 11.664 96.3866 10.944 96.3866 9.408ZM111.162 14.24C106.906 14.24 105.066 11.312 105.066 8.864C105.066 5.968 107.05 3.376 111.258 3.376C114.906 3.376 117.194 5.824 117.194 8.544C117.194 11.792 114.938 14.24 111.162 14.24ZM111.546 13.28C112.426 13.28 114.122 12.944 114.122 9.184C114.122 7.072 113.354 4.304 110.762 4.304C109.53 4.304 108.138 4.928 108.138 8.176C108.138 10.736 109.162 13.28 111.546 13.28ZM120.084 10.016V7.584C120.084 5.424 120.068 5.216 120.036 4.768C120.004 4.176 119.748 3.984 119.444 3.952C119.188 3.904 119.06 3.904 118.948 3.888C118.772 3.888 118.708 3.808 118.708 3.728C118.708 3.648 118.756 3.568 118.996 3.568C119.572 3.568 121.044 3.616 121.22 3.616C121.46 3.616 122.964 3.568 123.684 3.568C125.124 3.568 126.116 3.712 126.692 4.032C127.46 4.416 128.052 5.104 128.052 6.192C128.052 7.28 127.316 8.16 126.148 8.912C126.9 10.064 127.924 11.584 128.804 12.56C129.54 13.408 129.876 13.616 130.324 13.68C130.468 13.712 130.596 13.712 130.708 13.728C130.852 13.744 130.932 13.824 130.932 13.904C130.932 14.032 130.772 14.048 130.644 14.048H129.396C127.732 14.048 127.044 13.888 126.516 13.552C126.1 13.28 125.652 12.72 125.14 11.888C124.468 10.768 124.228 10.304 123.956 9.888C123.94 9.84 123.876 9.808 123.796 9.808L122.836 9.792C122.772 9.792 122.724 9.824 122.724 9.904V10.752C122.724 11.792 122.756 12.464 122.788 12.88C122.82 13.232 122.9 13.52 123.332 13.632C123.524 13.696 123.812 13.712 123.988 13.728C124.244 13.744 124.244 13.824 124.244 13.904C124.244 13.984 124.18 14.048 123.972 14.048C122.996 14.048 121.3 14 121.22 14C121.06 14 119.556 14.048 119.092 14.048C118.852 14.048 118.804 13.968 118.804 13.872C118.804 13.792 118.9 13.728 119.06 13.728C119.188 13.712 119.396 13.712 119.556 13.68C119.844 13.616 119.972 13.376 120.004 12.88C120.068 12.304 120.084 11.376 120.084 10.016ZM122.724 4.752V8.448C122.724 8.544 122.788 8.608 122.852 8.656C123.124 8.8 123.62 8.848 124.036 8.848C124.356 8.848 124.692 8.784 124.916 8.624C125.172 8.432 125.412 7.872 125.412 6.976C125.412 5.008 124.068 4.544 123.348 4.544C123.14 4.544 122.9 4.544 122.82 4.592C122.756 4.624 122.724 4.64 122.724 4.752ZM141.61 3.136V9.408C141.61 10.656 141.61 12.144 141.69 12.816C141.722 13.232 141.834 13.568 142.314 13.648C142.522 13.68 142.714 13.696 143.002 13.728C143.258 13.744 143.322 13.792 143.322 13.904C143.322 14 143.242 14.048 142.954 14.048C141.866 14.048 140.314 14 140.058 14C139.786 14 138.234 14.048 137.706 14.048C137.45 14.048 137.338 14.016 137.338 13.888C137.338 13.776 137.466 13.728 137.658 13.728C137.818 13.712 137.994 13.696 138.17 13.664C138.522 13.6 138.634 13.248 138.682 12.784C138.746 12.112 138.778 10.96 138.778 9.408V3.136C138.154 3.136 137.162 3.12 136.362 3.168C135.466 3.216 135.114 3.424 134.906 3.984C134.826 4.16 134.794 4.256 134.762 4.352C134.73 4.48 134.682 4.608 134.57 4.608C134.426 4.608 134.426 4.48 134.442 4.288C134.506 3.632 134.682 2.768 134.794 2.16C134.826 1.92 134.874 1.76 134.97 1.76C135.082 1.76 135.146 1.808 135.514 1.888C135.802 1.952 136.682 2 137.29 2H144.25C144.746 2 145.034 1.968 145.258 1.936C145.514 1.888 145.642 1.84 145.754 1.84C145.898 1.84 145.914 1.936 145.914 2.336C145.914 2.56 145.818 4.048 145.802 4.448C145.786 4.672 145.738 4.768 145.642 4.768C145.514 4.768 145.482 4.672 145.466 4.48C145.45 4.304 145.45 4.24 145.434 4.16C145.37 3.664 145.13 3.28 144.186 3.216C143.658 3.168 142.826 3.136 141.61 3.136ZM151.228 7.776H155.452C155.5 7.776 155.548 7.776 155.548 7.696V7.408C155.548 5.248 155.548 5.072 155.516 4.624C155.484 4.272 155.372 4.016 154.892 3.936C154.78 3.92 154.572 3.904 154.396 3.888C154.204 3.888 154.124 3.776 154.124 3.728C154.124 3.632 154.188 3.568 154.411 3.568C155.26 3.568 156.652 3.616 156.732 3.616C156.796 3.616 158.588 3.568 159.212 3.568C159.468 3.568 159.5 3.632 159.5 3.728C159.5 3.808 159.452 3.888 159.276 3.888C159.004 3.92 158.988 3.92 158.828 3.952C158.46 4 158.348 4.208 158.3 4.656C158.252 5.104 158.252 5.424 158.252 7.584V10.016C158.252 11.36 158.268 12.352 158.332 12.912C158.38 13.392 158.508 13.616 158.94 13.68C159.132 13.712 159.404 13.712 159.532 13.728C159.724 13.744 159.804 13.808 159.804 13.904C159.804 14.016 159.66 14.048 159.484 14.048C158.508 14.048 156.924 14 156.7 14C156.476 14 155.34 14.048 154.604 14.048C154.332 14.048 154.3 13.968 154.3 13.888C154.3 13.824 154.38 13.728 154.556 13.728C154.732 13.712 154.844 13.712 154.972 13.68C155.324 13.616 155.42 13.36 155.468 12.896C155.532 12.32 155.548 11.52 155.548 10.176V9.12C155.548 9.056 155.5 9.024 155.452 9.024H151.228C151.18 9.024 151.132 9.04 151.132 9.12V10.592C151.132 11.92 151.148 12.352 151.212 12.928C151.26 13.344 151.436 13.616 151.868 13.664C152.076 13.712 152.3 13.712 152.412 13.728C152.604 13.744 152.684 13.808 152.684 13.904C152.684 13.968 152.636 14.048 152.412 14.048C151.612 14.048 149.724 14 149.644 14C149.58 14 147.9 14.048 147.468 14.048C147.308 14.048 147.164 14 147.164 13.904C147.164 13.808 147.212 13.744 147.404 13.728C147.564 13.712 147.644 13.712 147.82 13.68C148.188 13.632 148.316 13.28 148.348 12.848C148.412 12.256 148.428 11.36 148.428 10.016V7.632C148.428 5.472 148.412 5.184 148.38 4.736C148.348 4.272 148.236 4.016 147.692 3.936C147.484 3.904 147.436 3.904 147.26 3.888C147.036 3.872 147.02 3.76 147.02 3.712C147.02 3.616 147.164 3.568 147.324 3.568C148.172 3.568 149.452 3.616 149.772 3.616C150.364 3.616 151.468 3.568 152.092 3.568C152.364 3.568 152.396 3.648 152.396 3.744C152.396 3.808 152.332 3.872 152.14 3.888C151.948 3.904 151.82 3.92 151.692 3.952C151.276 4.032 151.212 4.368 151.18 4.736C151.132 5.184 151.132 5.76 151.132 7.408V7.696C151.132 7.776 151.18 7.776 151.228 7.776ZM162.615 10.016V7.584C162.615 5.28 162.599 5.024 162.567 4.576C162.535 4.224 162.391 4 162.055 3.936C161.927 3.904 161.767 3.904 161.623 3.888C161.415 3.872 161.383 3.792 161.383 3.712C161.383 3.632 161.463 3.568 161.687 3.568C162.551 3.568 163.223 3.616 163.831 3.616C164.087 3.616 167.767 3.6 167.991 3.6C168.263 3.6 168.567 3.584 168.807 3.536C168.903 3.504 168.983 3.488 169.031 3.488C169.111 3.488 169.143 3.552 169.127 3.632C169.095 3.808 169.047 3.984 169.015 4.304C168.999 4.656 168.983 4.944 168.935 5.808C168.935 5.92 168.871 6.032 168.775 6.032C168.695 6.032 168.631 5.968 168.615 5.84C168.583 5.648 168.583 5.536 168.535 5.328C168.455 5.008 168.279 4.816 167.591 4.752C167.063 4.72 165.895 4.688 165.447 4.688C165.367 4.688 165.335 4.736 165.335 4.832V7.76C165.335 7.856 165.351 7.888 165.447 7.888C165.879 7.888 166.871 7.888 167.431 7.872C168.215 7.84 168.407 7.792 168.583 7.52C168.647 7.392 168.711 7.344 168.775 7.344C168.871 7.344 168.887 7.44 168.887 7.52C168.887 7.68 168.791 8.288 168.775 8.8C168.759 9.104 168.743 9.84 168.743 10C168.743 10.192 168.695 10.24 168.599 10.24C168.519 10.24 168.455 10.176 168.439 10.016C168.423 9.936 168.423 9.84 168.407 9.744C168.327 9.312 168.167 9.056 167.415 9.008C166.967 8.976 165.879 8.96 165.431 8.96C165.351 8.96 165.335 8.992 165.335 9.072V10.08C165.335 10.544 165.319 11.2 165.335 11.76C165.351 12.736 165.527 12.96 167.159 12.96C167.527 12.96 168.087 12.944 168.487 12.8C168.887 12.64 169.047 12.304 169.175 11.664C169.207 11.504 169.271 11.424 169.367 11.424C169.479 11.424 169.495 11.536 169.495 11.712C169.495 12.32 169.351 13.44 169.287 13.712C169.175 14.064 169.063 14.08 168.535 14.08C166.391 14.08 165.367 14 163.847 14C163.175 14 162.487 14.048 161.671 14.048C161.399 14.048 161.335 13.968 161.335 13.872C161.335 13.808 161.383 13.728 161.623 13.728C161.767 13.712 161.879 13.712 162.039 13.68C162.503 13.6 162.551 13.056 162.599 12.08C162.599 11.552 162.615 10.784 162.615 10.016ZM183.61 14.272C181.53 14.272 179.482 13.92 177.802 12.512C176.234 11.168 175.786 9.52 175.786 7.808C175.786 6.72 176.154 4.736 177.77 3.376C179.146 2.208 180.746 1.728 183.066 1.728C183.978 1.728 184.714 1.824 185.338 1.92C186.058 2.032 186.442 2.112 186.922 2.128C187.098 2.144 187.098 2.24 187.098 2.336C187.098 2.464 187.05 2.848 187.018 3.392C186.986 3.92 187.002 4.864 186.97 5.264C186.954 5.504 186.922 5.648 186.778 5.648C186.65 5.648 186.602 5.536 186.586 5.312C186.57 4.96 186.506 4.32 185.978 3.744C185.418 3.152 184.298 2.736 182.746 2.736C181.802 2.736 181.018 2.96 180.394 3.504C179.418 4.352 178.986 5.84 178.986 7.552C178.986 10.848 180.778 13.056 183.466 13.056C184.778 13.056 185.594 12.944 186.218 12.24C186.442 12 186.618 11.648 186.746 11.168C186.826 10.832 186.874 10.72 187.002 10.72C187.114 10.72 187.13 10.88 187.13 11.008C187.13 11.28 186.938 12.672 186.778 13.44C186.746 13.68 186.634 13.808 186.362 13.904C185.722 14.16 184.634 14.272 183.61 14.272ZM192.853 7.776H197.077C197.125 7.776 197.173 7.776 197.173 7.696V7.408C197.173 5.248 197.173 5.072 197.141 4.624C197.109 4.272 196.997 4.016 196.517 3.936C196.405 3.92 196.197 3.904 196.021 3.888C195.829 3.888 195.749 3.776 195.749 3.728C195.749 3.632 195.812 3.568 196.036 3.568C196.885 3.568 198.277 3.616 198.357 3.616C198.421 3.616 200.213 3.568 200.837 3.568C201.093 3.568 201.125 3.632 201.125 3.728C201.125 3.808 201.077 3.888 200.901 3.888C200.629 3.92 200.613 3.92 200.453 3.952C200.085 4 199.973 4.208 199.925 4.656C199.877 5.104 199.877 5.424 199.877 7.584V10.016C199.877 11.36 199.893 12.352 199.957 12.912C200.005 13.392 200.133 13.616 200.565 13.68C200.757 13.712 201.029 13.712 201.157 13.728C201.349 13.744 201.429 13.808 201.429 13.904C201.429 14.016 201.285 14.048 201.109 14.048C200.133 14.048 198.549 14 198.325 14C198.101 14 196.965 14.048 196.229 14.048C195.957 14.048 195.925 13.968 195.925 13.888C195.925 13.824 196.005 13.728 196.181 13.728C196.357 13.712 196.469 13.712 196.597 13.68C196.949 13.616 197.045 13.36 197.093 12.896C197.157 12.32 197.173 11.52 197.173 10.176V9.12C197.173 9.056 197.125 9.024 197.077 9.024H192.853C192.805 9.024 192.757 9.04 192.757 9.12V10.592C192.757 11.92 192.773 12.352 192.837 12.928C192.885 13.344 193.061 13.616 193.493 13.664C193.701 13.712 193.925 13.712 194.037 13.728C194.229 13.744 194.309 13.808 194.309 13.904C194.309 13.968 194.261 14.048 194.037 14.048C193.237 14.048 191.349 14 191.269 14C191.205 14 189.525 14.048 189.093 14.048C188.933 14.048 188.789 14 188.789 13.904C188.789 13.808 188.837 13.744 189.029 13.728C189.189 13.712 189.269 13.712 189.445 13.68C189.812 13.632 189.941 13.28 189.973 12.848C190.037 12.256 190.053 11.36 190.053 10.016V7.632C190.053 5.472 190.037 5.184 190.005 4.736C189.973 4.272 189.861 4.016 189.317 3.936C189.109 3.904 189.061 3.904 188.885 3.888C188.661 3.872 188.645 3.76 188.645 3.712C188.645 3.616 188.789 3.568 188.949 3.568C189.797 3.568 191.077 3.616 191.397 3.616C191.989 3.616 193.093 3.568 193.717 3.568C193.989 3.568 194.021 3.648 194.021 3.744C194.021 3.808 193.957 3.872 193.765 3.888C193.573 3.904 193.445 3.92 193.317 3.952C192.901 4.032 192.837 4.368 192.805 4.736C192.757 5.184 192.757 5.76 192.757 7.408V7.696C192.757 7.776 192.805 7.776 192.853 7.776ZM208.447 11.408H205.135C205.039 11.408 204.991 11.504 204.975 11.552L204.639 12.368C204.495 12.72 204.399 13.04 204.399 13.216C204.399 13.68 205.007 13.696 205.375 13.728C205.583 13.744 205.631 13.808 205.631 13.872C205.631 13.984 205.551 14.048 205.359 14.048C204.655 14.048 204.175 14 203.359 14C203.199 14 202.271 14.048 201.583 14.048C201.359 14.048 201.295 13.984 201.295 13.888C201.295 13.792 201.375 13.728 201.551 13.728C202.239 13.648 202.607 13.456 203.023 12.512L206.863 4.32C207.199 3.584 207.359 3.376 207.535 3.376C207.695 3.376 207.823 3.584 208.095 4.128C208.447 4.912 210.927 10.112 211.887 12.224C212.383 13.248 212.639 13.616 213.183 13.696C213.311 13.712 213.423 13.728 213.503 13.728C213.679 13.728 213.775 13.808 213.775 13.888C213.775 14 213.647 14.048 213.487 14.048C211.871 14.032 210.207 14.016 209.359 14C209.167 14 209.071 13.936 209.071 13.856C209.071 13.76 209.167 13.728 209.263 13.696C209.391 13.648 209.535 13.632 209.455 13.456L208.575 11.488C208.559 11.44 208.495 11.408 208.447 11.408ZM205.583 10.144H207.983C208.079 10.144 208.079 10.112 208.063 10.08L206.799 7.216C206.751 7.136 206.751 7.168 206.719 7.232L205.535 10.08C205.519 10.128 205.551 10.144 205.583 10.144ZM217.96 7.76V10.032C217.96 11.344 217.912 12.352 218.136 12.656C218.344 12.944 218.6 12.992 219.8 12.992C220.6 12.992 220.984 12.976 221.384 12.832C221.784 12.672 222.088 12.336 222.264 11.568C222.296 11.408 222.344 11.28 222.472 11.28C222.568 11.28 222.6 11.376 222.6 11.568C222.6 11.92 222.392 13.312 222.248 13.712C222.12 14.08 222.024 14.08 221.496 14.08C219.336 14.08 218.008 14 216.488 14C215.816 14 215.096 14.048 214.28 14.048C214.056 14.048 213.944 14 213.944 13.872C213.944 13.808 214.024 13.728 214.216 13.728C214.36 13.712 214.392 13.712 214.552 13.696C215.128 13.6 215.192 13.376 215.24 12.096C215.24 11.552 215.256 10.784 215.256 10.016V7.584C215.256 5.28 215.24 5.12 215.208 4.672C215.176 4.288 215.048 4.064 214.712 3.968C214.584 3.936 214.392 3.904 214.184 3.888C214.024 3.872 213.896 3.84 213.896 3.728C213.896 3.616 214.008 3.568 214.296 3.568C215.16 3.568 215.864 3.616 216.472 3.616C216.552 3.616 218.408 3.568 218.92 3.568C219.176 3.568 219.24 3.632 219.24 3.712C219.24 3.84 219.112 3.888 218.984 3.888C218.824 3.904 218.76 3.904 218.552 3.952C218.152 4.016 218.04 4.272 218.008 4.768C217.976 5.216 217.96 5.424 217.96 7.76ZM227.616 7.76V10.032C227.616 11.344 227.568 12.352 227.792 12.656C228 12.944 228.256 12.992 229.456 12.992C230.256 12.992 230.64 12.976 231.04 12.832C231.44 12.672 231.744 12.336 231.92 11.568C231.952 11.408 232 11.28 232.128 11.28C232.224 11.28 232.256 11.376 232.256 11.568C232.256 11.92 232.048 13.312 231.904 13.712C231.776 14.08 231.68 14.08 231.152 14.08C228.992 14.08 227.664 14 226.144 14C225.472 14 224.752 14.048 223.936 14.048C223.712 14.048 223.6 14 223.6 13.872C223.6 13.808 223.68 13.728 223.872 13.728C224.016 13.712 224.048 13.712 224.208 13.696C224.784 13.6 224.848 13.376 224.896 12.096C224.896 11.552 224.912 10.784 224.912 10.016V7.584C224.912 5.28 224.896 5.12 224.864 4.672C224.832 4.288 224.704 4.064 224.368 3.968C224.24 3.936 224.048 3.904 223.84 3.888C223.68 3.872 223.552 3.84 223.552 3.728C223.552 3.616 223.664 3.568 223.952 3.568C224.816 3.568 225.52 3.616 226.128 3.616C226.208 3.616 228.064 3.568 228.576 3.568C228.832 3.568 228.896 3.632 228.896 3.712C228.896 3.84 228.768 3.888 228.64 3.888C228.48 3.904 228.416 3.904 228.208 3.952C227.808 4.016 227.696 4.272 227.664 4.768C227.632 5.216 227.616 5.424 227.616 7.76ZM234.568 10.016V7.584C234.568 5.28 234.552 5.024 234.52 4.576C234.488 4.224 234.344 4 234.008 3.936C233.88 3.904 233.72 3.904 233.576 3.888C233.368 3.872 233.336 3.792 233.336 3.712C233.336 3.632 233.416 3.568 233.64 3.568C234.504 3.568 235.176 3.616 235.784 3.616C236.04 3.616 239.72 3.6 239.944 3.6C240.216 3.6 240.52 3.584 240.76 3.536C240.856 3.504 240.936 3.488 240.984 3.488C241.064 3.488 241.096 3.552 241.08 3.632C241.048 3.808 241 3.984 240.968 4.304C240.952 4.656 240.936 4.944 240.888 5.808C240.888 5.92 240.824 6.032 240.728 6.032C240.648 6.032 240.584 5.968 240.568 5.84C240.536 5.648 240.536 5.536 240.488 5.328C240.408 5.008 240.232 4.816 239.544 4.752C239.016 4.72 237.848 4.688 237.4 4.688C237.32 4.688 237.288 4.736 237.288 4.832V7.76C237.288 7.856 237.304 7.888 237.4 7.888C237.832 7.888 238.824 7.888 239.384 7.872C240.168 7.84 240.36 7.792 240.536 7.52C240.6 7.392 240.664 7.344 240.728 7.344C240.824 7.344 240.84 7.44 240.84 7.52C240.84 7.68 240.744 8.288 240.728 8.8C240.712 9.104 240.696 9.84 240.696 10C240.696 10.192 240.648 10.24 240.552 10.24C240.472 10.24 240.408 10.176 240.392 10.016C240.376 9.936 240.376 9.84 240.36 9.744C240.28 9.312 240.12 9.056 239.368 9.008C238.92 8.976 237.832 8.96 237.384 8.96C237.304 8.96 237.288 8.992 237.288 9.072V10.08C237.288 10.544 237.272 11.2 237.288 11.76C237.304 12.736 237.48 12.96 239.112 12.96C239.48 12.96 240.04 12.944 240.44 12.8C240.84 12.64 241 12.304 241.128 11.664C241.16 11.504 241.224 11.424 241.32 11.424C241.432 11.424 241.448 11.536 241.448 11.712C241.448 12.32 241.304 13.44 241.24 13.712C241.128 14.064 241.016 14.08 240.488 14.08C238.344 14.08 237.32 14 235.8 14C235.128 14 234.44 14.048 233.624 14.048C233.352 14.048 233.288 13.968 233.288 13.872C233.288 13.808 233.336 13.728 233.576 13.728C233.72 13.712 233.832 13.712 233.992 13.68C234.456 13.6 234.504 13.056 234.552 12.08C234.552 11.552 234.568 10.784 234.568 10.016ZM244.074 12.016C244.154 9.152 244.154 5.936 244.218 4.08C244.234 3.616 244.282 3.376 244.49 3.376C244.57 3.376 244.634 3.376 245.034 3.68C245.722 4.224 247.93 6.112 249.706 7.68C251.29 9.072 252.042 9.712 252.458 10.08L252.378 5.184C252.346 4.416 252.25 4.048 251.626 3.952C251.45 3.92 251.274 3.904 251.05 3.888C250.858 3.872 250.794 3.792 250.794 3.728C250.794 3.616 250.922 3.568 251.066 3.568C251.594 3.568 252.586 3.616 253.226 3.616C253.578 3.616 254.33 3.568 254.906 3.568C255.146 3.568 255.21 3.632 255.21 3.712C255.21 3.776 255.178 3.872 254.97 3.888C254.794 3.904 254.746 3.904 254.65 3.92C254.17 3.984 254.01 4.192 253.962 5.072C253.834 7.68 253.786 10.512 253.77 13.296C253.77 14.096 253.674 14.24 253.466 14.24C253.226 14.24 252.73 13.888 251.594 12.96C250.602 12.128 249.466 11.152 248.778 10.528C248.01 9.84 246.778 8.784 245.546 7.664L245.69 12.16C245.722 13.12 245.754 13.52 246.186 13.632C246.458 13.696 246.618 13.712 246.906 13.728C247.146 13.76 247.21 13.808 247.21 13.888C247.21 14 247.114 14.048 246.858 14.048C246.458 14.048 246.026 14.016 245.018 14C244.618 14 243.45 14.048 242.97 14.048C242.73 14.048 242.65 14 242.65 13.888C242.65 13.808 242.714 13.744 242.906 13.728C243.05 13.712 243.13 13.712 243.306 13.696C243.898 13.616 244.026 13.296 244.074 12.016ZM267.349 11.744V12.624C267.349 13.536 267.317 13.632 267.029 13.728C266.309 13.968 264.837 14.24 263.525 14.24C259.365 14.24 256.629 12.448 256.629 8.8C256.629 6.464 257.909 5.024 259.253 4.288C260.741 3.44 262.357 3.376 263.429 3.376C264.261 3.376 264.997 3.456 265.685 3.552C266.213 3.616 266.693 3.712 267.109 3.728C267.253 3.728 267.285 3.824 267.237 3.952C267.221 4.08 267.061 4.688 267.061 6.56C267.061 6.784 266.997 6.864 266.885 6.864C266.773 6.864 266.741 6.72 266.725 6.608C266.693 6.432 266.677 6.256 266.597 6.048C266.421 4.976 265.109 4.304 263.029 4.304C261.909 4.304 261.077 4.64 260.517 5.328C260.021 5.936 259.701 6.912 259.701 8.192C259.701 10.56 260.773 13.28 263.621 13.28C263.909 13.28 264.309 13.248 264.469 13.088C264.565 13.024 264.613 12.912 264.613 12.752V12.048C264.613 11.504 264.613 10.976 264.629 10.448C264.629 9.584 264.437 9.296 263.909 9.232C263.717 9.2 263.525 9.184 263.285 9.168C263.141 9.152 263.061 9.056 263.061 8.976C263.061 8.896 263.141 8.848 263.365 8.848C264.357 8.848 265.493 8.88 265.861 8.88C266.421 8.88 267.365 8.848 268.245 8.848C268.437 8.848 268.565 8.88 268.565 8.992C268.565 9.088 268.501 9.12 268.341 9.168C268.277 9.168 268.069 9.184 267.957 9.2C267.589 9.248 267.445 9.392 267.413 9.872C267.349 10.352 267.349 11.072 267.349 11.744ZM270.912 10.016V7.584C270.912 5.28 270.896 5.024 270.864 4.576C270.832 4.224 270.688 4 270.352 3.936C270.224 3.904 270.064 3.904 269.92 3.888C269.712 3.872 269.68 3.792 269.68 3.712C269.68 3.632 269.76 3.568 269.984 3.568C270.848 3.568 271.52 3.616 272.128 3.616C272.384 3.616 276.064 3.6 276.288 3.6C276.56 3.6 276.864 3.584 277.104 3.536C277.2 3.504 277.28 3.488 277.328 3.488C277.408 3.488 277.44 3.552 277.424 3.632C277.392 3.808 277.344 3.984 277.312 4.304C277.296 4.656 277.28 4.944 277.232 5.808C277.232 5.92 277.168 6.032 277.072 6.032C276.992 6.032 276.928 5.968 276.912 5.84C276.88 5.648 276.88 5.536 276.832 5.328C276.752 5.008 276.576 4.816 275.888 4.752C275.36 4.72 274.192 4.688 273.744 4.688C273.664 4.688 273.632 4.736 273.632 4.832V7.76C273.632 7.856 273.648 7.888 273.744 7.888C274.176 7.888 275.168 7.888 275.728 7.872C276.512 7.84 276.704 7.792 276.88 7.52C276.944 7.392 277.008 7.344 277.072 7.344C277.168 7.344 277.184 7.44 277.184 7.52C277.184 7.68 277.088 8.288 277.072 8.8C277.056 9.104 277.04 9.84 277.04 10C277.04 10.192 276.992 10.24 276.896 10.24C276.816 10.24 276.752 10.176 276.736 10.016C276.72 9.936 276.72 9.84 276.704 9.744C276.624 9.312 276.464 9.056 275.712 9.008C275.264 8.976 274.176 8.96 273.728 8.96C273.648 8.96 273.632 8.992 273.632 9.072V10.08C273.632 10.544 273.616 11.2 273.632 11.76C273.648 12.736 273.824 12.96 275.456 12.96C275.824 12.96 276.384 12.944 276.784 12.8C277.184 12.64 277.344 12.304 277.472 11.664C277.504 11.504 277.568 11.424 277.664 11.424C277.776 11.424 277.792 11.536 277.792 11.712C277.792 12.32 277.648 13.44 277.584 13.712C277.472 14.064 277.36 14.08 276.832 14.08C274.688 14.08 273.664 14 272.144 14C271.472 14 270.784 14.048 269.968 14.048C269.696 14.048 269.632 13.968 269.632 13.872C269.632 13.808 269.68 13.728 269.92 13.728C270.064 13.712 270.176 13.712 270.336 13.68C270.8 13.6 270.848 13.056 270.896 12.08C270.896 11.552 270.912 10.784 270.912 10.016Z" fill="#00060C"/>
</svg>
