<?xml version="1.0" standalone="no"?>
<!DOCTYPE svg PUBLIC "-//W3C//DTD SVG 20010904//EN"
 "http://www.w3.org/TR/2001/REC-SVG-20010904/DTD/svg10.dtd">
<svg version="1.0" xmlns="http://www.w3.org/2000/svg"
 width="700.000000pt" height="700.000000pt" viewBox="0 0 700.000000 700.000000"
 preserveAspectRatio="xMidYMid meet">
<metadata>
Created by potrace 1.11, written by Peter Selinger 2001-2013
</metadata>
<g transform="translate(0.000000,700.000000) scale(0.100000,-0.100000)"
fill="#000000" stroke="none">
<path d="M3337 6994 c-1 -1 -47 -5 -102 -8 -55 -3 -111 -8 -125 -10 -14 -2
-52 -7 -85 -11 -90 -10 -295 -52 -425 -85 -462 -121 -965 -379 -1320 -676 -14
-12 -47 -41 -75 -64 -207 -174 -449 -450 -623 -710 -71 -107 -79 -121 -161
-270 -137 -248 -272 -599 -327 -853 -20 -90 -53 -272 -59 -322 -4 -33 -9 -69
-11 -80 -25 -131 -24 -650 1 -815 2 -14 7 -50 10 -80 4 -30 9 -64 11 -75 3
-11 6 -33 8 -50 3 -16 9 -50 15 -75 5 -25 12 -56 15 -70 8 -43 53 -211 79
-295 143 -459 403 -914 734 -1282 67 -75 222 -228 284 -281 l36 -31 21 42 c12
23 26 49 32 57 5 8 72 128 149 265 112 203 367 660 453 813 10 18 18 37 18 42
0 5 -24 37 -53 72 -157 185 -300 445 -380 693 -31 93 -74 270 -82 335 -3 25
-8 63 -12 85 -9 56 -10 418 0 490 10 81 23 160 37 220 6 28 13 57 15 65 19 92
108 330 163 435 158 303 370 556 627 749 33 25 65 49 70 53 70 55 252 155 375
208 82 35 267 100 313 109 12 3 33 8 47 11 170 39 276 50 490 50 227 0 317
-10 510 -56 629 -150 1178 -605 1446 -1198 64 -142 116 -293 140 -406 17 -83
35 -188 42 -244 9 -88 8 -411 -2 -486 -5 -33 -10 -69 -11 -80 -18 -129 -79
-356 -125 -460 -10 -22 -30 -69 -45 -104 -14 -35 -36 -80 -48 -100 -13 -20
-29 -49 -37 -66 -22 -46 -127 -202 -185 -275 -28 -36 -54 -70 -58 -76 -4 -7
71 -151 166 -320 96 -170 187 -334 204 -364 27 -49 120 -214 207 -370 17 -31
46 -83 65 -116 l34 -61 27 26 c121 115 192 186 259 260 380 415 654 921 801
1481 11 42 14 54 25 105 29 130 61 337 72 465 14 159 6 627 -12 715 -2 11 -7
39 -9 63 -10 79 -37 226 -61 327 -204 864 -734 1620 -1483 2116 -57 38 -105
69 -107 69 -1 0 -32 18 -67 39 -74 45 -253 135 -348 176 -36 15 -83 35 -105
45 -241 105 -696 211 -1010 236 -69 6 -443 12 -448 8z"/>
<path d="M3330 4860 c-25 -4 -61 -10 -80 -13 -337 -55 -687 -284 -885 -578
-113 -169 -199 -386 -220 -559 -4 -30 -9 -64 -11 -75 -7 -31 -5 -245 2 -295 5
-37 21 -118 39 -200 32 -147 157 -381 278 -525 102 -120 301 -278 416 -329
l41 -19 -52 -96 c-28 -53 -59 -109 -69 -126 -9 -16 -97 -174 -195 -350 -98
-176 -187 -336 -197 -355 -11 -19 -52 -91 -90 -160 -38 -69 -81 -145 -94 -170
-184 -329 -333 -599 -333 -604 0 -9 171 -93 289 -141 108 -44 278 -104 361
-126 56 -15 47 -13 96 -27 23 -7 62 -16 85 -21 97 -20 206 -40 244 -46 22 -3
54 -7 70 -10 37 -6 107 -13 200 -21 106 -9 402 -11 502 -3 160 13 239 22 298
33 11 2 54 9 95 16 210 34 575 144 765 230 11 5 73 34 138 65 l118 55 -87 167
c-47 93 -119 231 -159 308 -153 295 -215 416 -310 600 -54 105 -121 235 -150
290 -29 55 -99 190 -155 300 -57 110 -107 205 -111 211 -6 7 27 34 90 77 90
61 233 191 304 275 48 57 137 199 172 275 60 131 101 266 121 402 10 72 11
292 2 350 -59 354 -181 597 -417 823 -192 185 -460 323 -696 357 -22 3 -47 9
-55 12 -23 9 -309 11 -360 3z"/>
</g>
</svg>
