<svg viewBox="0 0 229 71" xmlns="http://www.w3.org/2000/svg"><style>.st0{fill:#ff9000}.st1{fill:#050505}</style><path class="st0" d="M113.4 45.3c-3.6-3.6-5.4-8-5.4-13.2 0-5.1 1.8-9.5 5.5-13.2 3.6-3.6 8-5.5 13.2-5.5 5.1 0 9.5 1.8 13.2 5.5 3.6 3.6 5.5 8 5.5 13.1 0 5.2-1.8 9.6-5.5 13.2-3.6 3.6-8 5.4-13.1 5.4-5.4.2-9.8-1.6-13.4-5.3zm19.7-6.5c1.8-1.8 2.8-4 2.8-6.6 0-2.5-.9-4.7-2.8-6.5-1.8-1.8-4-2.8-6.5-2.8-2.6 0-4.8.9-6.6 2.8-1.8 1.8-2.7 4-2.7 6.5 0 2.6.9 4.8 2.7 6.6s4 2.7 6.6 2.7c2.5 0 4.7-.9 6.5-2.7zM155.3 45.3c-3.6-3.6-5.4-8-5.4-13.2V13.5h9.3v18.6c0 2.6.9 4.8 2.7 6.6s4 2.7 6.6 2.7c2.5 0 4.7-.9 6.5-2.7s2.8-4 2.8-6.6V13.5h9.3v18.6c0 5.2-1.8 9.6-5.5 13.2-3.6 3.6-8 5.4-13.1 5.4-5.2.1-9.6-1.7-13.2-5.4zM205.7 50.8V22.9h-14v-9.3H229v9.3h-14v27.9h-9.3z"/><path class="st1" d="M55.3 41.9c0-9.9 8-17.9 17.9-17.9s17.9 8 17.9 17.9c0 4.5-1.7 8.6-4.4 11.7l5.7 10.1c6.1-5.3 9.9-13.1 9.9-21.9 0-16-13-29.1-29.1-29.1s-29.1 13-29.1 29.1c0 8.8 3.9 16.7 10.1 22l5.7-10.1c-2.8-3-4.6-7.2-4.6-11.8z"/><path class="st0" d="M78.7 51.9c3.5-1.9 5.9-5.7 5.9-9.9 0-6.3-5.1-11.4-11.4-11.4S61.8 35.7 61.8 42c0 4.5 2.7 8.4 6.5 10.3l-8.6 15.5c4 2.1 8.6 3.3 13.5 3.3s9.6-1.2 13.6-3.4l-8.1-15.8z"/><path class="st1" d="M40.6 42.4c0-4 .7-7.8 2-11.4-1.9-2-4.1-3.7-6.7-5s-5.4-2.2-8.4-2.5c.6-1.1 1.2-2.2 1.7-3.1.5-1 1.1-1.9 1.6-2.8s1-1.8 1.6-2.8c.5-1 1.2-2 1.8-3.2.7-1.2 1.4-2.5 2.2-3.9s1.8-3.1 2.9-5.1c.1-.1.1-.2.2-.5s.1-.5.1-.6c0-.7-.6-1.1-1.8-1.1H24.5c-.8 0-1.4.2-1.9.5-.5.4-.9.9-1.2 1.5-3 5.4-5.6 9.9-7.6 13.7-2.1 3.7-3.8 6.8-5.1 9.2-1.4 2.4-2.4 4.3-3.2 5.6-.7 1.3-1.3 2.3-1.7 2.9s-.6 1-.7 1.1c0 .2-.1.3-.1.3-2 3.5-3 7.3-3 11.4v1.6s.1 1.1.1 1.6c.3 3.1 1.2 5.9 2.5 8.5C4 60.9 5.8 63.1 8 64.9s4.7 3.3 7.5 4.3 5.8 1.5 8.9 1.5c3.4 0 6.6-.6 9.6-1.8s5.6-2.9 7.8-5.1c1.4-1.3 2.6-2.8 3.6-4.4-3.1-4.9-4.8-10.8-4.8-17zm-9 8.2c-.4 1.1-.9 2-1.6 2.8s-1.5 1.4-2.5 1.8-2.1.7-3.3.7-2.3-.2-3.3-.7c-1-.4-1.8-1-2.5-1.8s-1.2-1.7-1.6-2.8-.6-2.2-.6-3.5c0-1.2.2-2.4.6-3.4.4-1.1.9-2 1.6-2.8s1.5-1.4 2.5-1.9 2.1-.7 3.3-.7 2.3.2 3.3.7 1.8 1.1 2.5 1.9 1.2 1.7 1.6 2.8.6 2.2.6 3.4c0 1.3-.2 2.5-.6 3.5zM117.3 62.1c-.4.4-.8.6-1.3.8s-1 .3-1.6.3-1.2-.1-1.7-.3-1-.5-1.4-.9-.7-.9-1-1.4c-.2-.5-.4-1.1-.4-1.7 0-.4 0-.8.1-1.1.1-.4.2-.7.4-1l.6-.9c.3-.3.5-.5.8-.7s.6-.3 1-.4.7-.2 1.2-.2c.4 0 .7 0 1.1.1.3.1.7.2 1 .4s.6.4.8.6c.3.2.5.5.7.8s.3.6.4.9.2.7.2 1v.6c0 .1 0 .3-.1.3-.1.1-.2.1-.3.2-.1 0-.4.1-.6.1h-4.8c0 .3.1.5.3.7.1.2.3.3.5.5.2.1.4.2.6.2s.4.1.6.1h.5c.2 0 .3-.1.5-.1.2-.1.3-.1.4-.2s.2-.2.3-.2c.1-.1.1-.1.2-.1h.2c.1 0 .1 0 .2.1.1 0 .1.1.2.2l.7.8c0 .1.1.1.1.2v.1c0 .1 0 .2-.1.2-.2-.1-.2-.1-.3 0zm-3.2-5.6c-.2 0-.3 0-.5.1s-.3.2-.5.3c-.1.1-.3.2-.4.4-.1.1-.2.3-.3.4h3.4c-.1-.2-.2-.3-.3-.5-.1-.1-.2-.3-.4-.4-.1-.1-.3-.2-.5-.3-.1.1-.3 0-.5 0zM120.9 60.5c.1.1.2.2.4.3.1.1.3.1.4.2s.2.1.3.1h.5c.1 0 .3 0 .4-.1.1 0 .2-.1.3-.2s.1-.2.1-.3 0-.2-.1-.3c0-.1-.1-.1-.2-.2s-.2-.1-.3-.1-.3-.1-.5-.1c-.5-.1-1-.3-1.3-.5s-.6-.4-.8-.7c-.2-.2-.3-.5-.4-.8s-.1-.6-.1-.9c0-.4.1-.7.2-1s.4-.6.6-.8c.3-.2.6-.4 1-.5s.8-.2 1.3-.2c.3 0 .5 0 .8.1.2 0 .5.1.7.2s.4.2.6.4.4.3.6.6c.1.1.1.2.1.2 0 .1 0 .2-.2.2-.2.1-.3.3-.5.4s-.3.3-.5.5c-.1 0-.1.1-.2.1h-.2s-.1 0-.1-.1l-.1-.1c-.2-.2-.3-.3-.5-.3-.2-.1-.4-.1-.6-.1s-.4 0-.5.1-.2.2-.2.3.1.2.1.3c.1.1.2.1.3.2.1 0 .2.1.4.1s.2.1.3.1c.4.1.8.3 1.1.4.3.2.6.3.9.6.2.2.4.5.6.8.1.3.2.7.2 1.1s-.1.8-.3 1.2c-.2.3-.4.6-.7.9-.3.2-.7.4-1.1.5s-.9.2-1.4.2c-.3 0-.6 0-.8-.1-.3 0-.6-.1-.8-.2-.3-.1-.5-.2-.8-.4-.2-.2-.5-.4-.6-.6 0-.1-.1-.1-.1-.2v-.4c0-.1.1-.1.1-.1l.9-.9c.1-.1.2-.1.3-.1.2 0 .3 0 .4.2zM132.8 60.5c.1 0 .1-.1.2-.1H133.3c.1 0 .1.1.2.2l.7 1.1s0 .1.1.1v.1c0 .1 0 .2-.1.2l-.2.2c-.4.3-.8.5-1.2.6-.4.2-.9.2-1.4.2-.4 0-.8-.1-1.2-.2s-.7-.2-1-.4-.6-.4-.9-.7-.5-.6-.7-.9-.3-.7-.4-1c-.1-.4-.2-.8-.2-1.2s.1-.8.2-1.2.2-.7.4-1 .4-.6.7-.9.6-.5.9-.7.7-.3 1-.4c.4-.1.8-.2 1.2-.2.5 0 .9.1 1.3.2s.8.3 1.2.6c.1.1.2.1.2.2.1.1.1.2.1.3s0 .2-.1.2l-.6 1c-.1.2-.3.3-.5.3h-.1c-.1 0-.1-.1-.2-.1l-.6-.3c-.2-.1-.5-.1-.7-.1-.3 0-.5.1-.8.2-.2.1-.4.3-.6.5s-.3.4-.4.7-.1.5-.1.8 0 .6.1.8c.1.3.2.5.4.7s.4.3.6.4.5.2.8.2.5 0 .7-.1c.3 0 .5-.2.7-.3zM144 62.6v.2c0 .1-.1.1-.1.2 0 0-.1.1-.2.1H142c-.1 0-.1-.1-.1-.1s-.1-.1-.1-.2 0-.1-.1-.2l-.2-.5c-.1.1-.3.2-.4.4-.1.1-.3.3-.5.4l-.6.3c-.2.1-.4.1-.6.1-.4 0-.8-.1-1.2-.2s-.7-.2-1-.4-.6-.4-.9-.7-.5-.6-.7-.9-.3-.7-.4-1c-.1-.4-.2-.8-.2-1.2 0-.6.1-1.2.3-1.7s.5-1 .9-1.4.9-.7 1.4-.9 1.1-.3 1.7-.3c.3 0 .5 0 .8.1l.6.3c.2.1.4.3.5.5.2.2.3.3.4.5l.3-.8c0-.1.1-.2.1-.3s.1-.1.1-.2l.1-.1h1.4c.1 0 .1 0 .2.1.1 0 .1.1.1.2v.2l.1 7.5zm-6.6-3.7c0 .3 0 .6.1.8.1.3.2.5.4.7s.4.3.6.4.5.2.8.2.6-.1.8-.2c.3-.1.5-.3.7-.4.2-.2.3-.4.4-.7s.2-.5.2-.8-.1-.6-.2-.8c-.1-.3-.3-.5-.4-.7-.2-.2-.4-.3-.7-.5-.3-.1-.5-.2-.8-.2s-.6.1-.8.2-.4.3-.6.5-.3.4-.4.7c0 .2-.1.5-.1.8zM145.8 54.7c.1 0 .1-.1.2-.1h1.4c.1 0 .1.1.1.1s.1.1.1.2 0 .1.1.2l.3.8c.1-.2.2-.3.4-.5.1-.2.3-.3.4-.5l.6-.3c.2-.1.5-.1.9-.1.6 0 1.2.1 1.7.3s1 .5 1.3.9c.4.4.7.9.9 1.4s.3 1.1.3 1.7-.1 1.2-.3 1.7-.5 1-.9 1.4-.8.7-1.3.9-1.1.3-1.7.3c-.3 0-.5 0-.7-.1l-.6-.3c-.2-.1-.3-.2-.4-.4-.1-.1-.2-.3-.4-.4V65c0 .1 0 .2-.1.3s-.2.1-.4.1H146c-.1 0-.1-.1-.2-.1s-.1-.1-.1-.1c0-.1-.1-.1-.1-.2V54.9l.2-.2zm6.2 4.2c0-.3 0-.6-.1-.8-.1-.3-.2-.5-.4-.7s-.4-.3-.6-.5c-.2-.1-.5-.2-.8-.2s-.5.1-.8.2-.5.2-.7.4-.3.4-.5.6c-.1.2-.2.5-.2.8v.1c0 .3.1.6.2.8.1.3.3.5.5.7s.4.3.7.4.5.2.8.2.5-.1.8-.2c.2-.1.4-.3.6-.4.2-.2.3-.4.4-.7.1-.2.1-.4.1-.7zM162.9 62.1c-.4.4-.8.6-1.3.8s-1 .3-1.6.3-1.2-.1-1.7-.3-1-.5-1.4-.9-.7-.9-1-1.4c-.2-.5-.4-1.1-.4-1.7 0-.4 0-.8.1-1.1.1-.4.2-.7.4-1l.6-.9c.3-.3.5-.5.8-.7s.6-.3 1-.4.7-.2 1.2-.2c.4 0 .7 0 1.1.1.3.1.7.2 1 .4s.6.4.8.6c.3.2.5.5.7.8s.3.6.4.9.2.7.2 1v.6c0 .1 0 .3-.1.3-.1.1-.2.1-.3.2-.1 0-.4.1-.6.1H158c0 .3.1.5.3.7.1.2.3.3.5.5.2.1.4.2.6.2s.4.1.6.1h.5s.3-.1.5-.1c.2-.1.3-.1.4-.2s.2-.2.3-.2c.1-.1.1-.1.2-.1h.2s.1 0 .2.1c.1 0 .1.1.2.2l.7.8c0 .1.1.1.1.2v.1c0 .1 0 .2-.1.2-.2-.1-.3-.1-.3 0zm-3.2-5.6c-.2 0-.3 0-.5.1s-.3.2-.5.3c-.1.1-.3.2-.4.4-.1.1-.2.3-.3.4h3.4c-.1-.2-.2-.3-.3-.5-.1-.1-.2-.3-.4-.4-.1-.1-.3-.2-.5-.3-.1.1-.3 0-.5 0zM169.4 55.1v-.2c0-.1.1-.1.1-.2.1-.1.2-.1.4-.1h1.2l.1.1s.1.1.1.2.1.1.1.2c0 0 0 .1.1.1 0 .1.1.1.1.2s.1.2.1.2c0 .1 0 .1.1.1.1-.1.3-.3.4-.5s.3-.3.4-.4.3-.3.5-.3c.2-.1.4-.1.6-.1s.5 0 .6.1c.2 0 .4.1.5.2.2.1.3.2.5.3s.3.2.5.4c.3.2.4.4.2.7l-.6 1c-.1.1-.2.2-.3.2s-.3 0-.4-.1c-.2-.2-.4-.3-.6-.4s-.4-.1-.7-.1c-.2 0-.3 0-.5.1-.1 0-.2.1-.4.2l-.3.3s-.2.3-.3.4v4.8c0 .2 0 .3-.1.4s-.2.1-.4.1h-1.5c-.3 0-.5-.2-.5-.5v-7.4zM176.2 58.9c0-.4.1-.8.2-1.2s.3-.7.4-1c.2-.3.4-.6.7-.9s.6-.5.9-.7.7-.3 1-.4c.4-.1.8-.2 1.2-.2.6 0 1.2.1 1.7.3s1 .5 1.4.9.7.9.9 1.4.3 1.1.3 1.7c0 .4-.1.8-.2 1.2s-.3.7-.4 1c-.2.3-.4.6-.7.9s-.6.5-.9.7-.7.3-1 .4c-.4.1-.8.2-1.2.2s-.8-.1-1.2-.2-.7-.2-1-.4-.6-.4-.9-.7-.5-.6-.7-.9-.3-.7-.4-1-.1-.7-.1-1.1zm2.4 0c0 .3 0 .6.1.8.1.3.2.5.4.7s.4.3.6.4.5.2.8.2.5-.1.8-.2c.2-.1.4-.3.6-.4.2-.2.3-.4.4-.7s.1-.5.1-.8 0-.6-.1-.8c-.1-.3-.2-.5-.4-.7s-.4-.3-.6-.5c-.2-.1-.5-.2-.8-.2s-.6.1-.8.2-.4.3-.6.5-.3.4-.4.7c-.1.2-.1.5-.1.8zM186 58.9c0-.4.1-.8.2-1.2s.3-.7.4-1c.2-.3.4-.6.7-.9s.6-.5.9-.7.7-.3 1-.4c.4-.1.8-.2 1.2-.2.6 0 1.2.1 1.7.3s1 .5 1.4.9.7.9.9 1.4.3 1.1.3 1.7c0 .4-.1.8-.2 1.2s-.3.7-.4 1c-.2.3-.4.6-.7.9s-.6.5-.9.7-.7.3-1 .4c-.4.1-.8.2-1.2.2s-.8-.1-1.2-.2-.7-.2-1-.4-.6-.4-.9-.7-.5-.6-.7-.9-.3-.7-.4-1-.1-.7-.1-1.1zm2.4 0c0 .3 0 .6.1.8.1.3.2.5.4.7s.4.3.6.4.5.2.8.2.5-.1.8-.2c.2-.1.4-.3.6-.4.2-.2.3-.4.4-.7s.1-.5.1-.8 0-.6-.1-.8c-.1-.3-.2-.5-.4-.7s-.4-.3-.6-.5c-.2-.1-.5-.2-.8-.2s-.6.1-.8.2-.4.3-.6.5-.3.4-.4.7c0 .2-.1.5-.1.8zM196.2 54.8c.1 0 .1-.1.2-.1h1.4c.1 0 .1.1.1.1s.1.1.1.2 0 .1.1.2l.2.9c.1-.1.1-.3.2-.5s.2-.3.4-.5.4-.3.6-.4.5-.2.9-.2c.6 0 1.1.1 1.5.4.4.2.8.6 1.1 1 .1-.1.2-.3.3-.4.1-.2.3-.3.5-.4s.4-.2.7-.3.6-.1.9-.1c.5 0 1 .1 1.4.3s.7.5 1 .8.5.7.6 1.2.2.9.2 1.4v4.4c0 .2 0 .3-.1.4s-.2.1-.3.1h-1.5c-.2 0-.3 0-.4-.1s-.1-.2-.1-.4v-4.4c0-.2 0-.4-.1-.5-.1-.2-.1-.3-.3-.4-.1-.1-.2-.2-.4-.3s-.3-.1-.5-.1-.3 0-.5.1-.3.2-.4.3-.2.3-.3.4c-.1.2-.1.3-.1.5v4.4c0 .2 0 .3-.1.4s-.2.1-.3.1h-1.5c-.2 0-.3 0-.4-.1s-.1-.2-.1-.4v-4.4c0-.2 0-.4-.1-.5-.1-.2-.1-.3-.2-.4s-.2-.2-.4-.3c-.1-.1-.3-.1-.5-.1s-.3 0-.5.1-.3.2-.4.3-.2.3-.3.4c-.1.2-.1.3-.1.5V63c0 .1-.1.1-.1.2-.1 0-.1.1-.2.1h-1.7c-.2 0-.3 0-.4-.1s-.1-.2-.1-.4v-7.5c0-.1 0-.2.1-.2-.2-.3-.1-.3-.1-.3zM211.5 60.5c.1.1.2.2.4.3.1.1.3.1.4.2s.2.1.3.1h.5s.3 0 .4-.1c.1 0 .2-.1.3-.2s.1-.2.1-.3 0-.2-.1-.3c0-.1-.1-.1-.2-.2s-.2-.1-.3-.1-.3-.1-.5-.1c-.5-.1-1-.3-1.3-.5s-.6-.4-.8-.7c-.2-.2-.3-.5-.4-.8s-.1-.6-.1-.9c0-.4.1-.7.2-1s.4-.6.6-.8c.3-.2.6-.4 1-.5s.8-.2 1.3-.2c.3 0 .5 0 .8.1.2 0 .5.1.7.2s.4.2.6.4.4.3.6.6c.1.1.1.2.1.2 0 .1 0 .2-.2.2-.2.1-.3.3-.5.4s-.3.3-.5.5c-.1 0-.1.1-.2.1h-.2s-.1 0-.1-.1l-.1-.1c-.2-.2-.3-.3-.5-.3-.2-.1-.4-.1-.6-.1s-.4 0-.5.1-.2.2-.2.3.1.2.1.3c.1.1.2.1.3.2.1 0 .2.1.4.1s.2.1.3.1c.4.1.8.3 1.1.4.3.2.6.3.9.6.2.2.4.5.6.8.1.3.2.7.2 1.1s-.1.8-.3 1.2c-.2.3-.4.6-.7.9-.3.2-.7.4-1.1.5s-.9.2-1.4.2c-.3 0-.6 0-.8-.1-.3 0-.6-.1-.8-.2-.3-.1-.5-.2-.8-.4-.2-.2-.5-.4-.6-.6 0-.1-.1-.1-.1-.2v-.4c0-.1.1-.1.1-.1l.9-.9c.1-.1.2-.1.3-.1.2 0 .3 0 .4.2z"/></svg>