<?xml version="1.0" encoding="UTF-8"?>
<svg baseProfile="basic" version="1.1" viewBox="0 0 44.1 11.8" xml:space="preserve" xmlns="http://www.w3.org/2000/svg">
	<g fill="#C08630">
		<path d="m4.9 6.6c2.7 0.7 5.8 2.2 7.6 5.2 0.9-2.7 3.1-4.2 4.9-5 1.2 0.5 2.4 1.3 3.1 2.6 0.3-1 0.9-1.7 1.6-2.2 0.9-0.7 2.1-1 3.2-1v-0.6c-1.4 0-2.7-0.5-3.7-1.5-0.5-0.5-0.9-1-1.1-1.7-0.8 1.3-2 2.1-3.1 2.6-1.8-0.8-4-2.3-4.9-5-1.8 3-4.9 4.4-7.6 5.2-2.7 0.7-4.9 0.7-4.9 0.7s2.2 0 4.9 0.7z"/>
		<rect x="20.1" y="4.8" width="24" height="2.2"/>
	</g>
</svg>
