<?xml version="1.0" encoding="UTF-8"?>
<svg viewBox="0 0 88 88" xmlns="http://www.w3.org/2000/svg">
<g>
<title>background</title>
<rect x="-1" y="-1" width="90" height="90" fill="none"/>
</g>
<g>
<title>Layer 1</title>
<ellipse class="st0" transform="matrix(.9777 -.2101 .2101 .9777 39.555 397.47)" cx="1890.7" cy="12.5" rx="2.6" ry="2.6" fill="#b08e2c"/>
<path class="st0" d="m1887.4 34.5c0-1.2-0.9-2.1-2.1-2.1s-2.1 0.9-2.1 2.1 0.9 2.1 2.1 2.1c1.1 0 2.1-0.9 2.1-2.1z" fill="#b08e2c"/>
<rect class="st0" x="1883.2" y="34.5" width=".9" height="30.7" fill="#b08e2c"/>
<path class="st0" d="m1869.7 42.4c0-1.2 0.9-2.1 2.1-2.1s2.1 0.9 2.1 2.1-0.9 2.1-2.1 2.1c-1.1 0-2.1-0.9-2.1-2.1z" fill="#b08e2c"/>
<rect class="st0" x="1873.1" y="42.4" width=".9" height="22" fill="#b08e2c"/>
<path class="st0" d="m1893.4 4.2c5.6 1.5 7 6.2 6.5 9.8-0.5 3.4-2.9 6.9-6.7 6.9-3.3 0-5.7-1.5-6.4-4.1-0.7-2.4 0.5-5 2.7-6.4l0.5 0.8c-1.9 1.2-2.9 3.4-2.3 5.4 0.6 2.2 2.7 3.5 5.6 3.5 3.3 0 5.4-3.1 5.8-6.1 0.4-3.2-0.9-7.4-5.9-8.8-4.9-1.3-8.9-0.3-11.6 3-1.8 2.1-2.7 4.9-2.7 7.9v53.2h12.3v13.2h-13.2v-12.3h-53.2c-3 0-5.8 1-7.9 2.7-3.3 2.8-4.3 6.7-3 11.6 1.4 5 5.6 6.3 8.8 5.9 3-0.4 6.1-2.5 6.1-5.8 0-2.9-1.3-5-3.5-5.6-2-0.6-4.2 0.4-5.4 2.3l-0.8-0.5c1.4-2.3 4-3.4 6.4-2.7 2.6 0.7 4.1 3.1 4.1 6.4 0 3.8-3.5 6.2-6.9 6.6-3.6 0.5-8.2-1-9.8-6.5-1.8-6.6 0.8-10.5 3.3-12.5 2.3-1.9 5.3-2.9 8.5-2.9h53.2v-53.2c0-3.2 1-6.2 2.9-8.5 1.6-1.9 4.2-3.9 8.4-3.9 1.3 0 2.7 0.2 4.2 0.6zm-14.7 77.3h11.4v-11.4h-11.4v11.4z" fill="#b08e2c"/>
<path class="st0" d="m1821.2 84.5c-1.5 0-2.6-1.2-2.6-2.6 0-1.5 1.2-2.6 2.6-2.6 1.5 0 2.6 1.2 2.6 2.6 0.1 1.4-1.1 2.6-2.6 2.6z" fill="#b08e2c"/>
<path class="st0" d="m1843.2 78.6c-1.2 0-2.1-0.9-2.1-2.1s0.9-2.1 2.1-2.1 2.1 0.9 2.1 2.1-0.9 2.1-2.1 2.1z" fill="#b08e2c"/>
<rect class="st0" x="1843.2" y="74.4" width="30.7" height=".9" fill="#b08e2c"/>
<path class="st0" d="m1852 61c-1.2 0-2.1 0.9-2.1 2.1s0.9 2.1 2.1 2.1 2.1-0.9 2.1-2.1c0-1.1-1-2.1-2.1-2.1z" fill="#b08e2c"/>
<rect class="st0" x="1852" y="64.3" width="22" height=".9" fill="#b08e2c"/>
<g fill="#b08e2c">
<ellipse class="st0" transform="matrix(.9777 -.2101 .2101 .9777 -15.408 18.785)" cx="79.649" cy="78.446" rx="2.6" ry="2.6"/>
<path class="st0" d="m56.871 75.444c1.2 0 2.1-0.9 2.1-2.1s-0.9-2.1-2.1-2.1-2.1 0.9-2.1 2.1 0.9 2.1 2.1 2.1z"/>
<rect class="st0" x="26.247" y="71.244" width="30.7" height=".9"/>
<path class="st0" d="m48.971 57.844c1.2 0 2.1 0.9 2.1 2.1s-0.9 2.1-2.1 2.1-2.1-0.9-2.1-2.1 0.9-2.1 2.1-2.1z"/>
<rect class="st0" x="26.971" y="61.144" width="22" height=".9"/>
<path class="st0" d="m87.247 81.544c-1.5 5.6-6.2 7-9.8 6.5-3.4-0.5-6.9-2.9-6.9-6.7 0-3.3 1.5-5.7 4.1-6.4 2.4-0.7 5 0.5 6.4 2.7l-0.8 0.5c-1.2-1.9-3.4-2.9-5.4-2.3-2.2 0.6-3.5 2.7-3.5 5.6 0 3.3 3.1 5.4 6.1 5.8 3.2 0.4 7.4-0.9 8.8-5.9 1.3-4.9 0.3-8.9-3-11.6-2.1-1.8-4.9-2.7-7.9-2.7h-53.2v12.3h-13.2v-13.2h12.3v-53.2c0-3-1-5.8-2.7-7.9-2.8-3.3-6.7-4.3-11.6-3-5 1.4-6.3 5.6-5.9 8.8 0.4 3 2.5 6.1 5.8 6.1 2.9 0 5-1.3 5.6-3.5 0.6-2-0.4-4.2-2.3-5.4l0.5-0.8c2.3 1.4 3.4 4 2.7 6.4-0.7 2.6-3.1 4.1-6.4 4.1-3.8 0-6.2-3.5-6.6-6.9-0.5-3.6 1-8.2 6.5-9.8 6.7-1.8 10.5 0.8 12.6 3.2 1.9 2.3 2.9 5.3 2.9 8.5v53.2h53.2c3.2 0 6.2 1 8.5 2.9 1.9 1.6 3.9 4.2 3.9 8.4-0.1 1.3-0.2 2.7-0.7 4.3zm-77.2-14.7v11.4h11.4v-11.4h-11.4z" stroke="null"/>
<path class="st0" d="m6.8714 9.344c0-1.5 1.2-2.6 2.6-2.6 1.5 0 2.6 1.2 2.6 2.6 0 1.5-1.2 2.6-2.6 2.6-1.5 0-2.6-1.2-2.6-2.6z"/>
<path class="st0" d="m12.671 31.244c0-1.2 0.9-2.1 2.1-2.1s2.1 0.9 2.1 2.1-0.9 2.1-2.1 2.1c-1.1 0.1-2.1-0.9-2.1-2.1z"/>
<rect class="st0" x="16.071" y="31.344" width=".9" height="30.7"/>
<path class="st0" d="m30.371 40.044c0-1.2-0.9-2.1-2.1-2.1s-2.1 0.9-2.1 2.1 0.9 2.1 2.1 2.1c1.1 0 2.1-0.9 2.1-2.1z"/>
<rect class="st0" x="26.171" y="40.044" width=".9" height="22"/>
</g>
</g>
</svg>
