<?xml version="1.0" encoding="UTF-8"?>
<svg baseProfile="basic" version="1.1" viewBox="0 0 29 29" xml:space="preserve" xmlns="http://www.w3.org/2000/svg">
		<path d="m14.5 0c-8 0-14.5 6.5-14.5 14.5s6.5 14.5 14.5 14.5 14.5-6.5 14.5-14.5-6.5-14.5-14.5-14.5zm0 27.9c-7.4 0-13.4-6-13.4-13.4s6-13.4 13.4-13.4 13.4 6 13.4 13.4-6 13.4-13.4 13.4z" clip-rule="evenodd" fill="#fff" fill-rule="evenodd"/>
		<g fill="#fff">
			<path d="m18.1 6.5c-5.3 0-5.3 1.1-5.3 1.1v2.9c1-0.1 1.7-0.2 2.1-0.4 0.7-0.2 0.9-0.4 1-0.4 0.1-0.1 0.2-0.2 0.4-0.2h0.2c0.2 0.1 0.3 0.3 0.3 0.5v4.2c0.4-0.2 0.9-0.3 1.3-0.3h0.5c0.2 0 0.3 0.1 0.5 0.1 0.3 0.1 0.6 0.3 0.9 0.5 0.5 0.4 0.9 1 1 1.7 0 0.1-0.1 0.2-0.2 0.2-0.5-0.1-1-0.2-1.4-0.2h-0.7-0.7-1.3c0 1.2-0.3 2.3-0.7 3.2 0.6 0.3 1.3 0.5 2 0.5 2.9 0 5.3-2.8 5.3-6.2v-6.1c0.1 0 0.1-1.1-5.2-1.1zm3.5 5.8c-0.6 0.5-1.6 0.4-2.1-0.1-0.6-0.6-0.6-1.5-0.1-2.1 0.1-0.1 0.2-0.1 0.3 0l2 2s0 0.1-0.1 0.2z"/>
			<path d="m16.2 10.1s-1 1.1-5.3 1.1-5.3-1.1-5.3-1.1v6.2c0 3.4 2.4 6.2 5.3 6.2s5.3-2.8 5.3-6.2v-6.2zm-8.9 5.5c-0.1 0-0.2-0.1-0.2-0.2 0.1-0.8 0.8-1.4 1.6-1.4s1.5 0.6 1.6 1.4c0 0.1-0.1 0.2-0.2 0.2h-2.8zm6.5 2.1c-0.1 0.7-0.5 1.3-1 1.7-0.6 0.4-1.2 0.6-1.9 0.6h-0.5c-0.2 0-0.3-0.1-0.5-0.1-0.3-0.1-0.6-0.3-0.9-0.5-0.5-0.4-0.9-1-1-1.7 0-0.1 0.1-0.2 0.2-0.2 0.5 0.1 1 0.2 1.4 0.2h0.7 0.7 1.3c0.4 0 0.8-0.1 1.4-0.2 0 0.1 0.1 0.1 0.1 0.2zm0.7-2.1h-2.8c-0.1 0-0.2-0.1-0.2-0.2 0.1-0.8 0.8-1.4 1.6-1.4s1.5 0.6 1.6 1.4c0.1 0.2 0 0.2-0.2 0.2z"/>
		</g>
</svg>
