<?xml version="1.0" encoding="UTF-8"?>
<svg baseProfile="basic" version="1.1" viewBox="0 0 29 29" xml:space="preserve" xmlns="http://www.w3.org/2000/svg">
	<path d="m14.5 0c-8 0-14.5 6.5-14.5 14.5s6.5 14.5 14.5 14.5 14.5-6.5 14.5-14.5-6.5-14.5-14.5-14.5zm0 27.9c-7.4 0-13.4-6-13.4-13.4s6-13.4 13.4-13.4 13.4 6 13.4 13.4-6 13.4-13.4 13.4z" clip-rule="evenodd" fill="#fff" fill-rule="evenodd"/>
		<path d="m14.5 5.1c-3 0-5.5 2.4-5.5 5.7 0 2.1 1 3.1 2.4 4.1v1.6c0.2 0.2 0.5 0.5 0.8 0.6v-1l0.4 0.4v0.8c0.5 0.3 1.1 0.4 1.7 0.4v-1.3h0.4v1.3c0.6 0 1.1-0.2 1.6-0.4v-0.9l0.4-0.4v1.1c0.3-0.2 0.6-0.4 0.9-0.7v-1.5c1.5-1.1 2.5-2.1 2.5-4.2-0.1-3.2-2.6-5.6-5.6-5.6zm-2.2 8.6c-1 0-1.8-0.8-1.8-1.8s0.8-1 1.8-1 1.8 0 1.8 1-0.8 1.8-1.8 1.8zm1.9 1.3c-0.2 0.2-0.5 0.3-0.6 0.1-0.1-0.1-0.1-0.4 0.1-0.6s0.5-0.3 0.6-0.1 0.1 0.4-0.1 0.6zm1.3 0.1c-0.1 0.1-0.4 0.1-0.6-0.1s-0.3-0.5-0.1-0.6c0.1-0.1 0.4-0.1 0.6 0.1 0.1 0.2 0.2 0.5 0.1 0.6zm1.2-1.4c-1 0-1.8-0.8-1.8-1.8s0.8-1 1.8-1 1.8 0 1.8 1-0.8 1.8-1.8 1.8zm5.6 4c-0.8 0.5-1.6 0-1.6 0l-4.6 2.7 1.1 0.6s0.8-0.5 1.6 0c0.4 0.2 0.6 0.8 0.3 1.2-0.2 0.3-0.4 0.4-0.7 0.4 0.1 0.3 0.1 0.6 0 0.8-0.2 0.4-0.8 0.6-1.2 0.3-0.8-0.5-0.8-1.4-0.8-1.4l-1.9-1.1-1.9 1.1s0 1-0.8 1.4c-0.4 0.2-1 0.1-1.2-0.3-0.2-0.3-0.2-0.6 0-0.8-0.3 0-0.6-0.2-0.7-0.4-0.2-0.4-0.1-1 0.3-1.2 0.8-0.5 1.6 0 1.6 0l1.1-0.6-4.6-2.7s-0.8 0.5-1.6 0c-0.4-0.2-0.6-0.8-0.3-1.2 0.1-0.3 0.4-0.5 0.7-0.5-0.1-0.3-0.1-0.6 0-0.8 0.2-0.4 0.8-0.6 1.2-0.3 0.8 0.5 0.8 1.4 0.8 1.4l5.4 3.1 5.4-3.1s0-1 0.8-1.4c0.4-0.2 1-0.1 1.2 0.3 0.2 0.3 0.2 0.6 0 0.8 0.3 0 0.6 0.2 0.7 0.4 0.3 0.5 0.2 1-0.3 1.3z" fill="#fff"/>
</svg>
