<?xml version="1.0" encoding="UTF-8"?>
<svg baseProfile="basic" version="1.1" viewBox="0 0 29 29" xml:space="preserve" xmlns="http://www.w3.org/2000/svg">
<g fill="#fff">
	<path d="m14.5 0c-8 0-14.5 6.5-14.5 14.5s6.5 14.5 14.5 14.5 14.5-6.5 14.5-14.5-6.5-14.5-14.5-14.5zm0 27.9c-7.4 0-13.4-6-13.4-13.4s6-13.4 13.4-13.4 13.4 6 13.4 13.4-6 13.4-13.4 13.4z" clip-rule="evenodd" fill-rule="evenodd"/>
	<path d="M9,9.5H7.6l-2.4,0.7L5.5,12l1.5-0.4v7.8h2V9.5z"/>
	<path d="m17.3 16.6c0-1-0.5-1.8-1.5-2.4 0.8-0.5 1.2-1.2 1.2-2.1v-0.1c0-0.8-0.3-1.4-0.9-1.9s-1.3-0.7-2.2-0.7-1.6 0.2-2.2 0.7-0.9 1.1-0.9 1.9v0.1c0 0.9 0.4 1.6 1.2 2.1-1 0.5-1.5 1.3-1.5 2.4 0 0.9 0.3 1.5 0.9 2.1s1.4 0.8 2.4 0.8 1.8-0.3 2.4-0.8c0.7-0.5 1.1-1.2 1.1-2.1zm-2.5-3.3c-0.2 0.2-0.5 0.3-0.8 0.3-0.4 0-0.6-0.1-0.8-0.3s-0.3-0.5-0.3-0.9 0.1-0.7 0.3-0.9 0.5-0.3 0.8-0.3c0.4 0 0.6 0.1 0.9 0.3 0.2 0.2 0.3 0.5 0.3 0.9-0.1 0.3-0.2 0.6-0.4 0.9zm0.1 4.2c-0.2 0.2-0.6 0.4-1 0.4s-0.8-0.1-1-0.4c-0.2-0.2-0.4-0.6-0.4-1v-0.1c0-0.4 0.1-0.7 0.4-1 0.3-0.2 0.6-0.3 1-0.3s0.7 0.1 1 0.3 0.4 0.5 0.4 1v0.1c0 0.5-0.1 0.8-0.4 1z"/>
	<path d="m25.1 13.5h-2.4v-2.4h-1.9v2.4h-2.4v1.8h2.4v2.4h1.9v-2.4h2.4v-1.8z"/>
</g>
</svg>
