<?xml version="1.0" encoding="UTF-8"?>
<svg viewBox="0 0 69.9 69.9" xmlns="http://www.w3.org/2000/svg">
<g>
<title>background</title>
<rect x="-1" y="-1" width="582" height="402" fill="none"/>
</g>
<g>
<title>Layer 1</title>
<g fill="#c08630" stroke="null">
<path class="st0" d="m22.604 36.005c4.3263 1.1607 9.1802 3.4821 12.135 8.2305 1.4773-4.3263 4.9594-6.6477 7.8085-7.914 1.8994 0.84416 3.7987 2.1104 4.9594 4.1153 0.5276-1.5828 1.4773-2.7435 2.5325-3.4821 1.4773-1.1607 3.3766-1.5828 5.0649-1.5828v-0.94968c-2.2159 0-4.3263-0.84416-5.9091-2.427-0.84416-0.84416-1.4773-1.5828-1.7938-2.7435-1.2662 2.1104-3.1656 3.3766-4.9594 4.1153-2.849-1.2662-6.3312-3.6932-7.8085-7.914-2.849 4.7484-7.8085 6.9643-12.135 8.2305-4.2208 1.2662-7.7029 1.2662-7.7029 1.2662s3.4821 0 7.8085 1.0552z"/>
<path class="st0" d="m34.95 68.716c-18.677 0-33.766-15.195-33.766-33.766s15.089-33.766 33.766-33.766c18.571 0 33.766 15.089 33.766 33.766s-15.195 33.766-33.766 33.766m0 1.0552c19.205 0 34.821-15.617 34.821-34.821s-15.617-34.821-34.821-34.821-34.821 15.617-34.821 34.821 15.617 34.821 34.821 34.821z"/>
</g>
</g>
</svg>
