<?xml version="1.0" encoding="utf-8"?>
<!-- Generator: Adobe Illustrator 22.1.0, SVG Export Plug-In . SVG Version: 6.00 Build 0)  -->
<svg version="1.1" baseProfile="basic" id="Layer_1"
	 xmlns="http://www.w3.org/2000/svg" xmlns:xlink="http://www.w3.org/1999/xlink" x="0px" y="0px" viewBox="0 0 223 157"
	 xml:space="preserve">
<linearGradient id="SVGID_1_" gradientUnits="userSpaceOnUse" x1="0" y1="78.5" x2="223" y2="78.5" gradientTransform="matrix(1 0 0 -1 0 157)">
	<stop  offset="0" style="stop-color:#AF8D2B"/>
	<stop  offset="0.5" style="stop-color:#E8D28D"/>
	<stop  offset="1" style="stop-color:#AF8D2B"/>
</linearGradient>
<path fill="url(#SVGID_1_)" d="M223,148V9h-4.5V6.4h4.5V0h-6.4v4.5H214V0H9v4.5H6.4V0H0v6.4h4.5V9H0v139h4.5v2.6H0v6.4h6.4v-4.5H9
	v4.5h205v-4.5h2.6v4.5h6.4v-6.4h-4.5V148H223z M218.5,1.9h2.6v2.6h-2.6V1.9z M1.9,1.9h2.6v2.6H1.9V1.9z M4.5,155.1
	c-0.9,0-1.7,0-2.6,0c0-0.9,0-1.8,0-2.6c0.9,0,1.7,0,2.6,0C4.5,153.4,4.5,154.3,4.5,155.1z M212.1,150.6v4.5H10.9v-4.5H6.4v-4.5H1.9
	V10.9h4.5V6.4h4.5V1.9h201.3v4.5h4.5v4.5h4.5v135.3h-4.5v4.5L212.1,150.6L212.1,150.6z M221.1,155.1h-2.6v-2.6h2.6V155.1z"/>
</svg>
