<?xml version="1.0" encoding="UTF-8"?>
<svg baseProfile="basic" version="1.1" viewBox="0 0 63 63" xml:space="preserve" xmlns="http://www.w3.org/2000/svg">
	<path d="m31.5 0c-17.4 0-31.5 14.1-31.5 31.5s14.1 31.5 31.5 31.5 31.5-14.1 31.5-31.5-14.1-31.5-31.5-31.5zm10.9 33.2l-15.8 9.8c-0.3 0.2-0.7 0.3-1 0.3s-0.7-0.1-1-0.2c-0.6-0.3-1-1-1-1.7v-19.7c0-0.7 0.4-1.4 1-1.7s1.4-0.3 2 0.1l15.8 9.8c0.6 0.4 0.9 1 0.9 1.7 0 0.6-0.3 1.2-0.9 1.6z" fill="#F79530"/>
	<path d="m42.4 33.2l-15.8 9.8c-0.3 0.2-0.7 0.3-1 0.3s-0.7-0.1-1-0.2c-0.6-0.3-1-1-1-1.7v-19.7c0-0.7 0.4-1.4 1-1.7s1.4-0.3 2 0.1l15.8 9.8c0.6 0.4 0.9 1 0.9 1.7 0 0.6-0.3 1.2-0.9 1.6z" fill="#fff"/>
</svg>
