<svg width="59" height="28" viewBox="0 0 59 28" fill="none" xmlns="http://www.w3.org/2000/svg">
<path d="M13.5203 17.062C13.4363 17.258 13.3103 17.398 13.1423 17.482C13.1143 17.482 13.0443 17.454 12.9323 17.398C12.7643 17.566 12.6663 17.706 12.6383 17.818C12.4983 17.874 12.3583 17.972 12.2183 18.112C12.0783 18.224 11.9523 18.322 11.8403 18.406C11.5883 18.63 11.3363 18.896 11.0843 19.204C10.8603 19.484 10.6223 19.708 10.3703 19.876C10.7623 19.96 11.1123 19.96 11.4203 19.876C11.4203 19.96 11.4063 20.002 11.3783 20.002C11.4343 20.002 11.4763 20.002 11.5043 20.002C11.5323 19.974 11.5743 19.96 11.6303 19.96C11.6023 20.016 11.5603 20.044 11.5043 20.044C11.4483 20.044 11.4343 20.072 11.4623 20.128C11.5743 20.156 11.6443 20.198 11.6723 20.254C11.7283 20.31 11.8123 20.324 11.9243 20.296C11.9243 20.408 11.9103 20.464 11.8823 20.464C11.8823 20.52 11.8963 20.548 11.9243 20.548C11.9803 20.52 11.9943 20.534 11.9663 20.59C12.1343 20.506 12.2883 20.478 12.4283 20.506C12.5963 20.506 12.7363 20.478 12.8483 20.422C12.9043 20.478 12.9603 20.492 13.0163 20.464C13.1003 20.436 13.1563 20.394 13.1843 20.338C13.2403 20.394 13.2963 20.436 13.3523 20.464C13.4363 20.492 13.5063 20.45 13.5623 20.338C13.5903 20.338 13.6043 20.352 13.6043 20.38C13.6043 20.408 13.6183 20.422 13.6463 20.422C13.7863 20.366 13.9403 20.366 14.1083 20.422C14.3043 20.45 14.4863 20.492 14.6543 20.548C14.8223 20.576 14.9903 20.604 15.1583 20.632C15.3263 20.632 15.4803 20.59 15.6203 20.506C15.7323 20.758 15.9003 20.856 16.1243 20.8C16.3483 20.716 16.6003 20.688 16.8803 20.716C16.8523 20.688 16.8243 20.66 16.7963 20.632C16.7683 20.604 16.7403 20.562 16.7123 20.506C16.6563 20.646 16.5443 20.688 16.3763 20.632C16.2083 20.548 16.0963 20.534 16.0403 20.59C16.0963 20.506 16.1803 20.464 16.2923 20.464C16.4323 20.464 16.5863 20.492 16.7543 20.548C16.9223 20.576 17.0903 20.604 17.2583 20.632C17.4263 20.66 17.5663 20.66 17.6783 20.632C17.7063 20.716 17.7203 20.758 17.7203 20.758C17.7483 20.758 17.7343 20.786 17.6783 20.842C17.7343 20.898 17.7623 20.912 17.7623 20.884C17.7903 20.828 17.8323 20.828 17.8883 20.884C17.9163 20.884 17.9303 20.842 17.9303 20.758C18.0143 20.87 18.0983 20.884 18.1823 20.8C18.2383 20.828 18.2663 20.856 18.2663 20.884C18.2663 20.912 18.2803 20.94 18.3083 20.968C18.3643 20.828 18.5043 20.8 18.7283 20.884C18.9523 20.968 19.1623 20.982 19.3583 20.926C19.3583 20.982 19.3583 21.01 19.3583 21.01C19.3863 21.01 19.4003 21.038 19.4003 21.094C19.4563 21.122 19.5123 21.136 19.5683 21.136C19.6523 21.108 19.6803 21.136 19.6523 21.22C19.7363 21.276 19.7783 21.276 19.7783 21.22C19.8063 21.164 19.8483 21.136 19.9043 21.136C19.9603 21.276 20.0443 21.332 20.1563 21.304C20.2963 21.248 20.3943 21.276 20.4503 21.388C20.4783 21.36 20.5063 21.346 20.5343 21.346C20.5903 21.346 20.6183 21.318 20.6183 21.262C20.5063 21.206 20.3943 21.164 20.2823 21.136C20.1703 21.08 20.0583 21.052 19.9463 21.052C19.9463 21.024 19.9743 20.982 20.0303 20.926C20.0863 20.982 20.1283 21.024 20.1563 21.052C20.1843 21.08 20.2543 21.066 20.3663 21.01C20.3383 21.066 20.3243 21.094 20.3243 21.094C20.4923 21.038 20.6183 21.066 20.7023 21.178C20.8143 21.262 20.9403 21.248 21.0803 21.136C21.1083 21.192 21.0943 21.22 21.0383 21.22C21.0103 21.22 20.9963 21.248 20.9963 21.304C21.1923 21.276 21.3603 21.29 21.5003 21.346C21.6683 21.402 21.8363 21.472 22.0043 21.556C22.1723 21.64 22.3403 21.724 22.5083 21.808C22.6763 21.864 22.8723 21.906 23.0963 21.934C23.3203 22.13 23.6423 22.27 24.0623 22.354C23.7823 22.41 23.4883 22.438 23.1803 22.438C22.8723 22.438 22.5643 22.382 22.2563 22.27C22.2283 22.298 22.2143 22.34 22.2143 22.396C22.1583 22.368 22.0743 22.368 21.9623 22.396C21.8503 22.396 21.7663 22.354 21.7103 22.27C21.6543 22.27 21.6263 22.298 21.6263 22.354C21.6263 22.41 21.5983 22.424 21.5423 22.396C21.5703 22.284 21.5423 22.27 21.4583 22.354C21.4023 22.41 21.4303 22.424 21.5423 22.396C21.4023 22.508 21.2343 22.522 21.0383 22.438C20.8703 22.354 20.7163 22.34 20.5763 22.396C20.5763 22.312 20.5903 22.242 20.6183 22.186C20.5343 22.13 20.4503 22.13 20.3663 22.186C20.3103 22.214 20.2263 22.214 20.1143 22.186C20.1423 22.13 20.1283 22.116 20.0723 22.144C20.0443 22.144 20.0163 22.144 19.9883 22.144C20.0163 22.256 20.0583 22.27 20.1143 22.186V22.312C20.1703 22.256 20.2403 22.242 20.3243 22.27C20.4083 22.298 20.4783 22.326 20.5343 22.354C20.5623 22.438 20.5483 22.48 20.4923 22.48C20.4363 22.48 20.3943 22.494 20.3663 22.522C20.3663 22.578 20.3663 22.606 20.3663 22.606C20.3943 22.606 20.4083 22.62 20.4083 22.648C20.4643 22.704 20.4923 22.704 20.4923 22.648C20.4923 22.564 20.5203 22.536 20.5763 22.564C20.5483 22.732 20.4503 22.788 20.2823 22.732C20.1423 22.676 20.0303 22.676 19.9463 22.732C19.9463 22.704 19.9323 22.69 19.9043 22.69C19.9043 22.662 19.9043 22.62 19.9043 22.564C19.8203 22.564 19.7503 22.578 19.6943 22.606C19.6383 22.606 19.5823 22.606 19.5263 22.606C19.4143 22.606 19.3443 22.592 19.3163 22.564C19.2883 22.536 19.2183 22.536 19.1063 22.564C18.9383 22.76 18.6863 22.858 18.3503 22.858C18.0143 22.858 17.7203 22.83 17.4683 22.774C17.3283 22.914 17.1323 22.942 16.8803 22.858C16.6283 22.746 16.3903 22.718 16.1663 22.774C16.1663 22.746 16.1523 22.732 16.1243 22.732C16.1243 22.732 16.1243 22.704 16.1243 22.648C15.7883 22.732 15.4523 22.76 15.1163 22.732C14.8083 22.704 14.5003 22.718 14.1923 22.774C13.9683 22.662 13.7163 22.62 13.4363 22.648C13.1563 22.676 12.9463 22.732 12.8063 22.816C12.8063 22.788 12.8063 22.774 12.8063 22.774C12.8343 22.746 12.8483 22.704 12.8483 22.648C12.5963 22.704 12.3443 22.774 12.0923 22.858C11.8683 22.914 11.6863 22.886 11.5463 22.774C11.4903 22.802 11.4483 22.83 11.4203 22.858C11.4203 22.886 11.3923 22.9 11.3363 22.9C11.2803 22.9 11.2663 22.886 11.2943 22.858C11.3503 22.802 11.3503 22.774 11.2943 22.774C11.2383 22.774 11.2103 22.802 11.2103 22.858C11.2383 22.914 11.2243 22.942 11.1683 22.942C10.8043 23.026 10.4403 23.082 10.0763 23.11C9.71229 23.138 9.36229 23.222 9.02629 23.362C8.69029 23.306 8.35429 23.362 8.01829 23.53C7.68229 23.698 7.36029 23.768 7.05229 23.74C6.91229 23.824 6.74429 23.908 6.54829 23.992C6.38029 24.076 6.22629 24.104 6.08629 24.076C5.86229 24.272 5.62429 24.398 5.37229 24.454C5.14829 24.51 4.89629 24.566 4.61629 24.622C4.39229 24.706 4.12629 24.804 3.81829 24.916C3.48229 25.028 3.17429 25.028 2.89429 24.916C2.64229 25 2.44629 25 2.30629 24.916C2.16629 24.832 2.05429 24.72 1.97029 24.58C1.85829 24.412 1.76029 24.258 1.67629 24.118C1.56429 23.95 1.45229 23.838 1.34029 23.782C1.31229 23.67 1.32629 23.628 1.38229 23.656C1.43829 23.684 1.48029 23.712 1.50829 23.74C1.48029 23.684 1.46629 23.656 1.46629 23.656C1.46629 23.656 1.48029 23.614 1.50829 23.53C1.28429 23.614 1.13029 23.558 1.04629 23.362C1.13029 23.306 1.15829 23.264 1.13029 23.236C1.07429 23.18 1.10229 23.138 1.21429 23.11C1.18629 22.998 1.15829 22.928 1.13029 22.9C1.10229 22.844 1.13029 22.774 1.21429 22.69C1.13029 22.634 1.07429 22.508 1.04629 22.312C1.10229 22.256 1.14429 22.2 1.17229 22.144C1.20029 22.06 1.24229 21.99 1.29829 21.934C1.32629 21.878 1.31229 21.85 1.25629 21.85C1.20029 21.85 1.18629 21.808 1.21429 21.724C1.29829 21.556 1.45229 21.43 1.67629 21.346C1.90029 21.234 2.12429 21.206 2.34829 21.262C2.60029 21.178 2.88029 21.094 3.18829 21.01C3.46829 20.926 3.74829 20.884 4.02829 20.884C4.16829 20.772 4.29429 20.702 4.40629 20.674C4.51829 20.646 4.64429 20.604 4.78429 20.548C4.75629 20.492 4.71429 20.492 4.65829 20.548C4.63029 20.604 4.58829 20.618 4.53229 20.59C4.56029 20.478 4.68629 20.422 4.91029 20.422C4.91029 20.338 4.81229 20.296 4.61629 20.296C4.89629 20.156 5.16229 19.974 5.41429 19.75C5.69429 19.526 5.98829 19.316 6.29629 19.12C6.29629 19.092 6.25429 19.078 6.17029 19.078C6.22629 18.966 6.31029 18.91 6.42229 18.91C6.56229 18.882 6.66029 18.798 6.71629 18.658C6.88429 18.714 7.03829 18.686 7.17829 18.574C7.31829 18.462 7.45829 18.434 7.59829 18.49C7.71029 18.434 7.79429 18.35 7.85029 18.238C7.90629 18.098 8.01829 18.014 8.18629 17.986C8.24229 18.042 8.27029 18.028 8.27029 17.944C8.32629 17.944 8.34029 17.944 8.31229 17.944C8.28429 17.916 8.27029 17.916 8.27029 17.944C8.21429 17.972 8.18629 17.986 8.18629 17.986C8.10229 17.958 7.99029 17.944 7.85029 17.944C7.73829 17.916 7.62629 17.916 7.51429 17.944C7.57029 17.888 7.62629 17.86 7.68229 17.86C7.76629 17.832 7.83629 17.79 7.89229 17.734V17.86C7.94829 17.832 8.03229 17.818 8.14429 17.818C8.25629 17.818 8.32629 17.818 8.35429 17.818C8.41029 17.706 8.53629 17.622 8.73229 17.566C8.92829 17.482 9.11029 17.398 9.27829 17.314C9.25029 17.258 9.15229 17.23 8.98429 17.23C9.04029 17.118 9.15229 17.048 9.32029 17.02C9.48829 16.992 9.60029 16.992 9.65629 17.02C9.82429 17.02 9.89429 16.936 9.86629 16.768C9.75429 16.908 9.65629 16.936 9.57229 16.852C9.48829 16.74 9.37629 16.712 9.23629 16.768C9.37629 16.544 9.55829 16.39 9.78229 16.306C10.0343 16.194 10.2303 16.054 10.3703 15.886C10.3423 15.858 10.3003 15.872 10.2443 15.928C10.1883 15.984 10.1463 16.026 10.1183 16.054V15.718C10.4543 15.774 10.7343 15.662 10.9583 15.382C10.8743 15.326 10.8463 15.284 10.8743 15.256C10.9303 15.228 10.9863 15.2 11.0423 15.172C11.1263 15.144 11.1963 15.102 11.2523 15.046C11.3083 14.99 11.3083 14.906 11.2523 14.794C11.3363 14.766 11.4203 14.752 11.5043 14.752C11.6163 14.724 11.6723 14.654 11.6723 14.542C11.7283 14.57 11.7423 14.598 11.7143 14.626C11.7143 14.654 11.7003 14.668 11.6723 14.668C12.0363 14.444 12.3583 14.192 12.6383 13.912C12.9463 13.632 13.2263 13.324 13.4783 12.988C13.4503 12.932 13.4223 12.96 13.3943 13.072C13.3663 13.156 13.3243 13.17 13.2683 13.114C13.2683 13.03 13.3103 12.96 13.3943 12.904C13.4783 12.848 13.5483 12.848 13.6043 12.904C13.6043 12.848 13.6043 12.792 13.6043 12.736C13.6043 12.652 13.6323 12.554 13.6883 12.442C13.8283 12.386 13.9403 12.344 14.0243 12.316C14.1363 12.26 14.2343 12.204 14.3183 12.148C14.3183 12.092 14.2763 12.064 14.1923 12.064C14.1363 12.036 14.1083 11.966 14.1083 11.854C14.3603 11.882 14.5423 11.784 14.6543 11.56C14.7943 11.308 14.9483 11.112 15.1163 10.972C15.1443 10.916 15.1303 10.888 15.0743 10.888C15.0463 10.888 15.0323 10.86 15.0323 10.804C15.1443 10.804 15.1863 10.776 15.1583 10.72C15.1303 10.636 15.1443 10.58 15.2003 10.552C15.2003 10.608 15.2143 10.636 15.2423 10.636C15.2703 10.58 15.2983 10.524 15.3263 10.468C15.3823 10.412 15.4383 10.342 15.4943 10.258C15.5503 10.314 15.6063 10.342 15.6623 10.342C15.7463 10.314 15.7743 10.244 15.7463 10.132C15.6623 10.16 15.6203 10.132 15.6203 10.048C15.6483 9.964 15.7183 9.908 15.8303 9.88C15.8303 9.852 15.8023 9.81 15.7463 9.754C15.7463 9.698 15.7743 9.684 15.8303 9.712C15.8863 9.74 15.9283 9.754 15.9563 9.754C16.0123 9.698 16.0123 9.67 15.9563 9.67C15.9003 9.642 15.8863 9.586 15.9143 9.502C16.0823 9.53 16.1803 9.488 16.2083 9.376C16.2363 9.236 16.2783 9.124 16.3343 9.04C16.3063 9.012 16.2503 9.026 16.1663 9.082C16.0823 9.11 16.0543 9.166 16.0823 9.25C16.0263 9.278 16.0123 9.264 16.0403 9.208C16.0683 9.152 16.0683 9.096 16.0403 9.04C16.0683 9.012 16.0963 8.998 16.1243 8.998C16.1803 8.998 16.2223 8.984 16.2503 8.956C16.4743 8.536 16.6843 8.13 16.8803 7.738C17.0763 7.346 17.2863 6.926 17.5103 6.478C17.4823 6.254 17.5243 6.016 17.6363 5.764C17.7483 5.512 17.7763 5.274 17.7203 5.05C17.8043 4.854 17.8603 4.616 17.8883 4.336C17.9443 4.028 17.9023 3.762 17.7623 3.538C17.2583 3.594 16.7823 3.692 16.3343 3.832C15.9143 3.972 15.5503 4.154 15.2423 4.378C15.2423 4.378 15.2143 4.35 15.1583 4.294C15.1023 4.35 15.0183 4.448 14.9063 4.588C14.7943 4.728 14.6823 4.728 14.5703 4.588C14.4303 4.644 14.3183 4.728 14.2343 4.84C14.1783 4.924 14.0663 4.98 13.8983 5.008C13.4503 5.4 13.0023 5.778 12.5543 6.142C12.1063 6.478 11.7703 6.926 11.5463 7.486C11.4063 7.514 11.2103 7.57 10.9583 7.654C10.7063 7.71 10.5103 7.78 10.3703 7.864C10.3143 7.808 10.2443 7.794 10.1603 7.822C10.0763 7.822 9.97829 7.794 9.86629 7.738C9.81029 7.766 9.78229 7.808 9.78229 7.864C9.81029 7.892 9.79629 7.892 9.74029 7.864C9.65629 7.892 9.64229 7.864 9.69829 7.78C9.30629 7.78 8.98429 7.654 8.73229 7.402C8.48029 7.15 8.20029 6.926 7.89229 6.73C7.86429 6.674 7.86429 6.66 7.89229 6.688C7.94829 6.688 7.99029 6.66 8.01829 6.604C7.85029 6.408 7.82229 6.254 7.93429 6.142C8.04629 6.002 8.13029 5.82 8.18629 5.596C8.41029 5.54 8.56429 5.414 8.64829 5.218C8.76029 4.994 8.90029 4.812 9.06829 4.672C9.15229 4.616 9.22229 4.546 9.27829 4.462C9.36229 4.378 9.44629 4.28 9.53029 4.168C9.92229 3.776 10.3143 3.426 10.7063 3.118C11.1263 2.81 11.5463 2.502 11.9663 2.194C12.0503 2.278 12.0783 2.32 12.0503 2.32C12.3303 2.18 12.5543 2.026 12.7223 1.858C12.9183 1.662 13.1703 1.508 13.4783 1.396C13.5063 1.452 13.4923 1.48 13.4363 1.48C13.4083 1.48 13.3943 1.508 13.3943 1.564C13.5343 1.48 13.6883 1.41 13.8563 1.354C14.0243 1.298 14.1363 1.2 14.1923 1.06C14.5003 1.116 14.8363 1.06 15.2003 0.892C15.5923 0.695999 15.9423 0.639999 16.2503 0.724C16.3343 0.667999 16.4183 0.653998 16.5023 0.681998C16.6143 0.709999 16.7263 0.695999 16.8383 0.639998V0.765999C16.9503 0.765999 17.0763 0.765999 17.2163 0.765999C17.3563 0.737999 17.4543 0.765999 17.5103 0.849998C17.5383 0.849998 17.5523 0.807999 17.5523 0.724C18.6443 1.004 19.4563 1.536 19.9883 2.32C20.5483 3.076 20.7583 4.168 20.6183 5.596C20.5623 5.652 20.5343 5.708 20.5343 5.764C20.5343 5.82 20.5063 5.862 20.4503 5.89C20.5063 6.198 20.4643 6.464 20.3243 6.688C20.1843 6.884 20.1283 7.108 20.1563 7.36C20.0723 7.332 20.0443 7.374 20.0723 7.486C20.1003 7.57 20.0723 7.584 19.9883 7.528C20.0163 7.78 19.9743 8.004 19.8623 8.2C19.7503 8.396 19.6243 8.564 19.4843 8.704C19.4843 8.788 19.5123 8.816 19.5683 8.788C19.2043 9.432 18.8823 10.062 18.6023 10.678C18.3223 11.266 17.9163 11.784 17.3843 12.232C17.4123 12.316 17.4123 12.372 17.3843 12.4C17.3563 12.4 17.3423 12.428 17.3423 12.484C17.0343 12.736 16.7823 13.03 16.5863 13.366C16.3903 13.674 16.1383 13.94 15.8303 14.164C15.8303 14.276 15.8163 14.346 15.7883 14.374C15.7883 14.402 15.7743 14.458 15.7463 14.542C15.3823 14.738 15.0883 15.004 14.8643 15.34C14.6683 15.648 14.4443 15.942 14.1923 16.222C14.3043 16.278 14.3883 16.25 14.4443 16.138C14.5003 15.998 14.5983 15.914 14.7383 15.886C14.6263 16.082 14.4863 16.236 14.3183 16.348C14.1503 16.46 14.0103 16.6 13.8983 16.768C13.7023 16.74 13.5343 16.796 13.3943 16.936C13.2823 17.048 13.1843 17.174 13.1003 17.314C13.1843 17.398 13.2403 17.384 13.2683 17.272C13.3243 17.132 13.4083 17.062 13.5203 17.062ZM13.2263 1.606C13.1983 1.634 13.1843 1.662 13.1843 1.69C13.2123 1.69 13.2263 1.662 13.2263 1.606C13.3383 1.662 13.3663 1.662 13.3103 1.606C13.2823 1.55 13.2543 1.55 13.2263 1.606ZM11.8403 2.404H11.9243V2.32H11.8403V2.404ZM16.1663 3.496C16.3063 3.524 16.4183 3.524 16.5023 3.496C16.5863 3.468 16.6703 3.426 16.7543 3.37C16.8943 3.314 17.0483 3.3 17.2163 3.328C17.3843 3.356 17.4963 3.3 17.5523 3.16C17.3283 3.132 17.0763 3.146 16.7963 3.202C16.5163 3.258 16.3063 3.356 16.1663 3.496ZM15.6623 3.622C15.9143 3.622 16.0683 3.58 16.1243 3.496C16.0403 3.524 15.9843 3.524 15.9563 3.496C15.9283 3.44 15.8863 3.398 15.8303 3.37C15.8583 3.482 15.8443 3.538 15.7883 3.538C15.7323 3.538 15.6903 3.566 15.6623 3.622ZM17.0483 3.454C17.0763 3.538 17.0903 3.552 17.0903 3.496C17.0903 3.412 17.0763 3.398 17.0483 3.454ZM17.2163 3.412C17.1603 3.468 17.1323 3.482 17.1323 3.454C17.1883 3.454 17.2163 3.44 17.2163 3.412ZM15.4523 4.042C15.4803 4.126 15.4943 4.14 15.4943 4.084C15.4943 4 15.4803 3.986 15.4523 4.042ZM8.27029 5.764C8.32629 5.848 8.35429 5.862 8.35429 5.806C8.35429 5.722 8.32629 5.708 8.27029 5.764ZM20.2403 6.016C20.2683 6.1 20.2823 6.114 20.2823 6.058C20.2823 5.974 20.2683 5.96 20.2403 6.016ZM8.39629 6.436C8.34029 6.492 8.31229 6.506 8.31229 6.478C8.36829 6.478 8.39629 6.464 8.39629 6.436ZM16.4603 8.872C16.5163 8.76 16.6143 8.634 16.7543 8.494C16.8943 8.326 16.9223 8.172 16.8383 8.032C16.8103 8.2 16.7263 8.368 16.5863 8.536C16.4463 8.676 16.4043 8.788 16.4603 8.872ZM16.7543 12.736C16.6983 12.792 16.6703 12.806 16.6703 12.778C16.7263 12.778 16.7543 12.764 16.7543 12.736ZM16.0403 13.828C15.9843 13.884 15.9563 13.898 15.9563 13.87C16.0123 13.87 16.0403 13.856 16.0403 13.828ZM13.6463 16.684C13.6183 16.712 13.6043 16.726 13.6043 16.726C13.5763 16.754 13.5623 16.782 13.5623 16.81C13.5903 16.81 13.6043 16.782 13.6043 16.726C13.6323 16.754 13.6463 16.74 13.6463 16.684C13.7303 16.684 13.8003 16.642 13.8563 16.558C13.8003 16.502 13.7583 16.502 13.7303 16.558C13.7023 16.614 13.6743 16.656 13.6463 16.684ZM12.3863 17.482C12.4423 17.566 12.4703 17.58 12.4703 17.524C12.4703 17.44 12.4423 17.426 12.3863 17.482ZM7.22029 18.658C7.16429 18.714 7.13629 18.728 7.13629 18.7C7.19229 18.7 7.22029 18.686 7.22029 18.658ZM5.79229 19.834C5.84829 19.778 5.91829 19.75 6.00229 19.75C6.08629 19.722 6.11429 19.638 6.08629 19.498C6.00229 19.498 5.90429 19.554 5.79229 19.666C5.70829 19.75 5.70829 19.806 5.79229 19.834ZM11.1263 20.17C11.1543 20.198 11.1963 20.212 11.2523 20.212C11.3363 20.212 11.3783 20.17 11.3783 20.086C11.3223 20.114 11.2663 20.128 11.2103 20.128C11.1823 20.128 11.1543 20.142 11.1263 20.17ZM4.95229 20.338C5.00829 20.394 5.07829 20.408 5.16229 20.38C5.24629 20.324 5.27429 20.24 5.24629 20.128C5.19029 20.184 5.12029 20.226 5.03629 20.254C4.98029 20.254 4.95229 20.282 4.95229 20.338ZM10.8323 20.128C10.8323 20.184 10.8183 20.198 10.7903 20.17C10.7903 20.142 10.7623 20.128 10.7063 20.128C10.6503 20.24 10.6783 20.282 10.7903 20.254C10.9023 20.226 10.9163 20.184 10.8323 20.128ZM11.6723 20.254C11.6163 20.31 11.5883 20.324 11.5883 20.296C11.6443 20.296 11.6723 20.282 11.6723 20.254ZM11.4203 20.464C11.4203 20.492 11.4063 20.52 11.3783 20.548C11.3783 20.548 11.3783 20.562 11.3783 20.59C11.4903 20.646 11.5463 20.618 11.5463 20.506C11.5183 20.506 11.4903 20.506 11.4623 20.506C11.4623 20.478 11.4483 20.464 11.4203 20.464C11.4483 20.436 11.4623 20.408 11.4623 20.38C11.4063 20.436 11.3363 20.436 11.2523 20.38C11.1963 20.324 11.1683 20.338 11.1683 20.422C11.1683 20.478 11.1963 20.506 11.2523 20.506C11.3083 20.478 11.3643 20.464 11.4203 20.464ZM11.5463 20.38V20.464C11.5463 20.492 11.5603 20.506 11.5883 20.506C11.6723 20.534 11.7423 20.506 11.7983 20.422C11.7143 20.478 11.6583 20.478 11.6303 20.422C11.6303 20.338 11.6023 20.324 11.5463 20.38ZM11.0843 20.716C11.1683 20.772 11.2103 20.744 11.2103 20.632C11.1823 20.66 11.1543 20.674 11.1263 20.674C11.0983 20.646 11.0843 20.66 11.0843 20.716ZM13.7303 20.674C13.8423 20.73 13.8843 20.73 13.8563 20.674C13.8563 20.618 13.8143 20.618 13.7303 20.674ZM13.1843 20.884C13.3243 20.94 13.4783 20.982 13.6463 21.01C13.8423 21.01 14.0243 21.01 14.1923 21.01C14.1643 21.01 14.1503 21.024 14.1503 21.052C14.1503 21.08 14.1363 21.094 14.1083 21.094C14.0523 21.038 13.9823 21.038 13.8983 21.094C13.8423 21.122 13.8003 21.15 13.7723 21.178C13.7723 21.066 13.7163 21.038 13.6043 21.094C13.4923 21.122 13.4083 21.08 13.3523 20.968C13.3243 21.024 13.2403 21.052 13.1003 21.052C12.9603 21.052 12.9323 21.122 13.0163 21.262C12.9883 21.206 12.9883 21.192 13.0163 21.22C13.0723 21.22 13.1283 21.206 13.1843 21.178C13.1283 21.318 13.1143 21.388 13.1423 21.388C13.0863 21.444 13.0303 21.458 12.9743 21.43C12.9463 21.402 12.8903 21.388 12.8063 21.388C12.9463 21.556 13.1003 21.584 13.2683 21.472C13.4363 21.36 13.5903 21.276 13.7303 21.22C13.7303 21.276 13.7163 21.304 13.6883 21.304C13.6883 21.304 13.6883 21.318 13.6883 21.346C13.7723 21.29 13.8703 21.248 13.9823 21.22C14.1223 21.192 14.2483 21.22 14.3603 21.304C14.3043 21.36 14.2343 21.374 14.1503 21.346C14.0943 21.29 14.0383 21.304 13.9823 21.388C14.2623 21.444 14.5143 21.486 14.7383 21.514C14.9623 21.542 15.1863 21.556 15.4103 21.556C15.5783 21.584 15.7463 21.598 15.9143 21.598C16.1103 21.57 16.2503 21.514 16.3343 21.43C16.1663 21.486 15.9843 21.486 15.7883 21.43C15.5923 21.346 15.4243 21.36 15.2843 21.472C15.1163 21.388 14.9483 21.374 14.7803 21.43C14.6403 21.486 14.5143 21.43 14.4023 21.262C14.6543 21.262 14.8503 21.29 14.9903 21.346C15.1303 21.374 15.2703 21.332 15.4103 21.22C15.3823 21.164 15.3403 21.164 15.2843 21.22C15.2283 21.276 15.2143 21.234 15.2423 21.094C15.1023 21.122 14.9343 21.136 14.7383 21.136C14.5703 21.136 14.4443 21.066 14.3603 20.926C14.4163 20.982 14.4723 21.01 14.5283 21.01C14.6123 20.982 14.6543 20.912 14.6543 20.8C14.5143 20.828 14.4163 20.828 14.3603 20.8C14.3323 20.772 14.2763 20.786 14.1923 20.842C14.0523 20.786 13.9823 20.716 13.9823 20.632C13.9263 20.8 13.8003 20.87 13.6043 20.842C13.4363 20.814 13.2963 20.828 13.1843 20.884ZM15.5783 20.716C15.6063 20.8 15.6203 20.814 15.6203 20.758C15.6203 20.674 15.6063 20.66 15.5783 20.716ZM17.1323 20.758C17.1603 20.786 17.1883 20.814 17.2163 20.842C17.2723 20.842 17.3003 20.814 17.3003 20.758C17.2163 20.674 17.1603 20.674 17.1323 20.758ZM15.0323 20.758C14.8643 20.786 14.8503 20.8 14.9903 20.8C15.1303 20.772 15.1443 20.758 15.0323 20.758ZM12.4703 20.926C12.6103 20.898 12.7363 20.898 12.8483 20.926C12.9603 20.954 13.0303 20.898 13.0583 20.758C12.9463 20.814 12.8343 20.842 12.7223 20.842C12.6103 20.842 12.5263 20.87 12.4703 20.926ZM15.6623 20.842C15.7463 20.898 15.7883 20.87 15.7883 20.758C15.7603 20.786 15.7323 20.8 15.7043 20.8C15.6763 20.772 15.6623 20.786 15.6623 20.842ZM17.5103 20.842H17.5943V20.758H17.5103V20.842ZM14.6963 21.01C14.8923 20.954 15.0743 20.982 15.2423 21.094C15.4103 21.206 15.5643 21.15 15.7043 20.926C15.5083 20.982 15.3123 20.968 15.1163 20.884C14.9483 20.8 14.8083 20.842 14.6963 21.01ZM15.7463 21.01C15.8023 21.01 15.8583 21.024 15.9143 21.052C15.9703 21.052 15.9843 21.01 15.9563 20.926H15.7463V21.01ZM11.8403 21.262C11.9803 21.29 12.1063 21.29 12.2183 21.262C12.3583 21.234 12.4983 21.22 12.6383 21.22C12.5823 21.052 12.4423 21.01 12.2183 21.094C12.0223 21.15 11.8963 21.206 11.8403 21.262ZM15.7883 21.346C15.8723 21.402 15.9283 21.43 15.9563 21.43C16.0123 21.402 16.0823 21.374 16.1663 21.346C16.1663 21.262 16.1663 21.22 16.1663 21.22C16.2503 21.248 16.3063 21.248 16.3343 21.22C16.3903 21.192 16.4463 21.178 16.5023 21.178C16.6143 21.318 16.8243 21.388 17.1323 21.388C17.4683 21.388 17.6783 21.304 17.7623 21.136C17.6503 21.192 17.5103 21.206 17.3423 21.178C17.2023 21.122 17.0623 21.122 16.9223 21.178C16.8943 21.094 16.8383 21.052 16.7543 21.052C16.6983 21.052 16.6283 21.066 16.5443 21.094C16.4603 21.122 16.3763 21.136 16.2923 21.136C16.2083 21.136 16.1243 21.108 16.0403 21.052C16.0403 21.248 15.9563 21.346 15.7883 21.346ZM12.7643 21.22H12.9323C12.9323 21.164 12.8903 21.136 12.8063 21.136C12.7503 21.136 12.7363 21.164 12.7643 21.22ZM17.8883 21.136C17.9443 21.22 17.9723 21.234 17.9723 21.178C17.9723 21.094 17.9443 21.08 17.8883 21.136ZM18.1403 21.262C18.1403 21.206 18.1683 21.192 18.2243 21.22C18.2803 21.248 18.3363 21.248 18.3923 21.22C18.3923 21.136 18.3223 21.108 18.1823 21.136C18.0703 21.136 18.0563 21.178 18.1403 21.262ZM20.6603 21.262C20.6883 21.374 20.7443 21.43 20.8283 21.43C20.9123 21.43 21.0103 21.458 21.1223 21.514C21.0943 21.43 21.0243 21.374 20.9123 21.346C20.8283 21.29 20.7443 21.262 20.6603 21.262ZM18.0563 21.388C18.1123 21.472 18.1403 21.486 18.1403 21.43C18.1403 21.346 18.1123 21.332 18.0563 21.388ZM21.2483 21.43C21.3883 21.43 21.4443 21.402 21.4163 21.346H21.2483V21.43ZM13.6883 21.514C13.6883 21.486 13.7023 21.472 13.7303 21.472C13.7303 21.416 13.7023 21.388 13.6463 21.388C13.6463 21.472 13.6603 21.514 13.6883 21.514ZM17.1743 21.514C17.2863 21.57 17.3983 21.598 17.5103 21.598C17.6223 21.598 17.6923 21.528 17.7203 21.388C17.6363 21.444 17.5383 21.472 17.4263 21.472C17.3143 21.444 17.2303 21.458 17.1743 21.514ZM21.5423 21.514H21.6263V21.43H21.5423V21.514ZM18.8123 21.598C18.6443 21.598 18.4903 21.598 18.3503 21.598C18.2103 21.57 18.0843 21.556 17.9723 21.556C18.0563 21.612 18.1963 21.668 18.3923 21.724C18.5883 21.752 18.7283 21.71 18.8123 21.598ZM21.7103 21.682C21.7103 21.626 21.6683 21.598 21.5843 21.598C21.5003 21.598 21.4303 21.57 21.3743 21.514C21.3743 21.682 21.4863 21.738 21.7103 21.682ZM18.9803 21.598C18.9803 21.71 19.0223 21.752 19.1063 21.724C19.2183 21.668 19.2743 21.612 19.2743 21.556C19.2183 21.556 19.1623 21.57 19.1063 21.598C19.0783 21.598 19.0363 21.598 18.9803 21.598ZM22.0883 21.724C22.0883 21.668 22.0463 21.626 21.9623 21.598C21.8783 21.57 21.8223 21.57 21.7943 21.598C21.8503 21.626 21.8923 21.668 21.9203 21.724C21.9483 21.752 22.0043 21.752 22.0883 21.724ZM19.5683 21.598C19.5403 21.654 19.5123 21.668 19.4843 21.64C19.4843 21.612 19.4563 21.598 19.4003 21.598C19.3443 21.71 19.3863 21.752 19.5263 21.724C19.6663 21.696 19.6803 21.654 19.5683 21.598ZM19.8203 22.06C19.9323 22.088 20.0163 22.088 20.0723 22.06C20.1283 22.032 20.1843 22.004 20.2403 21.976C20.1843 21.976 20.1423 21.962 20.1143 21.934C20.1143 21.878 20.0723 21.85 19.9883 21.85C19.9603 21.906 19.9183 21.948 19.8623 21.976C19.8343 21.976 19.8203 22.004 19.8203 22.06ZM13.8983 22.06C13.9823 22.06 14.0663 22.06 14.1503 22.06C14.2343 22.06 14.2483 22.018 14.1923 21.934C14.1363 22.018 14.0663 22.032 13.9823 21.976C13.8983 21.92 13.8703 21.948 13.8983 22.06ZM18.8963 22.06C18.7563 22.004 18.6303 21.99 18.5183 22.018C18.4063 22.046 18.2663 22.046 18.0983 22.018C18.3223 22.158 18.5743 22.214 18.8543 22.186C19.1343 22.13 19.4283 22.088 19.7363 22.06C19.6523 21.92 19.5263 21.892 19.3583 21.976C19.1903 22.06 19.0363 22.088 18.8963 22.06ZM11.2103 22.312C11.6863 22.368 12.0783 22.256 12.3863 21.976C12.1623 22.032 11.9383 22.06 11.7143 22.06C11.5183 22.06 11.3503 22.144 11.2103 22.312ZM12.5123 22.102C12.6523 22.13 12.7503 22.13 12.8063 22.102C12.8623 22.074 12.9323 22.074 13.0163 22.102C13.0163 21.99 12.9323 21.948 12.7643 21.976C12.6243 22.004 12.5403 22.046 12.5123 22.102ZM13.3943 22.102C13.5063 22.102 13.5623 22.06 13.5623 21.976C13.5343 21.976 13.4783 22.018 13.3943 22.102ZM14.3183 22.102C14.3183 22.046 14.3603 22.032 14.4443 22.06C14.5283 22.088 14.5423 22.06 14.4863 21.976C14.4303 21.976 14.3743 21.99 14.3183 22.018C14.2623 22.046 14.2623 22.074 14.3183 22.102ZM14.8223 22.018C14.7943 22.102 14.8363 22.144 14.9483 22.144C15.0603 22.144 15.1163 22.116 15.1163 22.06C15.0603 22.06 15.0043 22.046 14.9483 22.018C14.9203 21.962 14.8783 21.962 14.8223 22.018ZM22.5923 22.06H22.6763V21.976H22.5923V22.06ZM13.2683 22.06C13.3243 22.144 13.3523 22.158 13.3523 22.102C13.3523 22.018 13.3243 22.004 13.2683 22.06ZM15.6203 22.06C15.5643 22.06 15.5083 22.06 15.4523 22.06C15.4243 22.032 15.3683 22.018 15.2843 22.018C15.2843 22.074 15.3403 22.116 15.4523 22.144C15.5643 22.144 15.6203 22.116 15.6203 22.06ZM16.0403 22.06C16.0403 22.116 16.0543 22.158 16.0823 22.186C16.1103 22.186 16.1383 22.186 16.1663 22.186C16.2223 22.186 16.2503 22.186 16.2503 22.186C16.2783 22.186 16.2783 22.228 16.2503 22.312C16.3623 22.284 16.4603 22.27 16.5443 22.27C16.6283 22.242 16.7263 22.214 16.8383 22.186C16.8383 22.242 16.8103 22.27 16.7543 22.27C16.7263 22.27 16.7123 22.298 16.7123 22.354C16.9083 22.494 17.1183 22.536 17.3423 22.48C17.5663 22.424 17.7903 22.452 18.0143 22.564C18.0703 22.508 18.0703 22.466 18.0143 22.438C17.9583 22.41 17.9583 22.368 18.0143 22.312C17.9583 22.312 17.9163 22.34 17.8883 22.396C17.8603 22.452 17.8183 22.438 17.7623 22.354C17.7623 22.326 17.7763 22.312 17.8043 22.312C17.8603 22.312 17.8743 22.284 17.8463 22.228C17.6223 22.172 17.3423 22.13 17.0063 22.102C16.6703 22.074 16.3483 22.06 16.0403 22.06ZM17.9303 22.06C17.9583 22.144 17.9723 22.158 17.9723 22.102C17.9723 22.018 17.9583 22.004 17.9303 22.06ZM20.7443 22.06C20.7443 22.172 20.7723 22.228 20.8283 22.228C20.8843 22.172 20.9123 22.102 20.9123 22.018C20.8563 22.018 20.8283 22.032 20.8283 22.06C20.8283 22.088 20.8003 22.088 20.7443 22.06ZM15.8723 22.144H15.9563C16.0123 22.088 15.9983 22.06 15.9143 22.06C15.8583 22.06 15.8303 22.074 15.8303 22.102L15.8723 22.144ZM21.9623 22.102C21.9063 22.186 21.9063 22.2 21.9623 22.144C22.0183 22.06 22.0183 22.046 21.9623 22.102ZM20.9543 22.186C21.1223 22.242 21.2203 22.242 21.2483 22.186C21.1083 22.102 21.0103 22.102 20.9543 22.186ZM19.6943 22.228C19.7503 22.228 19.7783 22.256 19.7783 22.312C19.8063 22.34 19.8483 22.326 19.9043 22.27C19.9043 22.214 19.8623 22.186 19.7783 22.186C19.7223 22.158 19.6943 22.172 19.6943 22.228ZM23.4323 22.186C23.3763 22.242 23.3483 22.256 23.3483 22.228C23.4043 22.228 23.4323 22.214 23.4323 22.186ZM20.6603 22.27C20.7163 22.354 20.7443 22.368 20.7443 22.312C20.7443 22.228 20.7163 22.214 20.6603 22.27ZM21.0383 22.396C21.0383 22.34 20.9963 22.284 20.9123 22.228C20.9123 22.34 20.9543 22.396 21.0383 22.396ZM14.3183 22.27C14.2623 22.326 14.2343 22.34 14.2343 22.312C14.2903 22.312 14.3183 22.298 14.3183 22.27ZM19.9883 22.312C20.0443 22.396 20.0723 22.41 20.0723 22.354C20.0723 22.27 20.0443 22.256 19.9883 22.312ZM21.3743 22.312H21.2483C21.2203 22.368 21.2483 22.396 21.3323 22.396C21.4163 22.396 21.4303 22.368 21.3743 22.312C21.4303 22.312 21.4443 22.312 21.4163 22.312C21.3883 22.284 21.3743 22.284 21.3743 22.312ZM19.4423 22.354C19.4983 22.41 19.5263 22.41 19.5263 22.354C19.5263 22.298 19.4983 22.298 19.4423 22.354ZM20.0303 22.606C20.0863 22.606 20.1143 22.62 20.1143 22.648C20.1423 22.648 20.1703 22.648 20.1983 22.648C20.2543 22.592 20.2963 22.55 20.3243 22.522C20.3803 22.494 20.4223 22.438 20.4503 22.354H20.2403C20.2963 22.494 20.2683 22.55 20.1563 22.522C20.0723 22.494 20.0303 22.522 20.0303 22.606ZM18.2243 22.438C18.2243 22.494 18.2103 22.522 18.1823 22.522C18.1543 22.494 18.1403 22.494 18.1403 22.522C18.1963 22.606 18.3223 22.648 18.5183 22.648C18.7143 22.62 18.7983 22.536 18.7703 22.396C18.6863 22.396 18.5883 22.424 18.4763 22.48C18.3923 22.536 18.3083 22.522 18.2243 22.438ZM18.8963 22.606C18.9803 22.634 19.0223 22.578 19.0223 22.438C18.9383 22.438 18.8963 22.494 18.8963 22.606ZM17.7203 22.732C17.7483 22.816 17.7623 22.83 17.7623 22.774C17.7623 22.69 17.7483 22.676 17.7203 22.732ZM1.25629 23.404C1.25629 23.376 1.27029 23.362 1.29829 23.362C1.29829 23.306 1.27029 23.278 1.21429 23.278C1.21429 23.362 1.22829 23.404 1.25629 23.404ZM1.42429 23.362C1.36829 23.418 1.34029 23.432 1.34029 23.404C1.39629 23.404 1.42429 23.39 1.42429 23.362ZM3.56629 24.832C3.62229 24.916 3.65029 24.93 3.65029 24.874C3.65029 24.79 3.62229 24.776 3.56629 24.832ZM2.47429 24.874C2.50229 24.93 2.51629 24.944 2.51629 24.916C2.51629 24.888 2.50229 24.874 2.47429 24.874ZM13.6043 1.312H13.6883V1.396H13.6043V1.312ZM17.7203 5.05C17.7203 5.106 17.7063 5.134 17.6783 5.134C17.6783 5.106 17.6923 5.078 17.7203 5.05ZM10.6643 7.864C10.6643 7.892 10.6923 7.878 10.7483 7.822C10.7483 7.85 10.7203 7.864 10.6643 7.864ZM11.2523 7.864C11.2523 7.892 11.2803 7.878 11.3363 7.822C11.3363 7.85 11.3083 7.864 11.2523 7.864ZM15.6623 9.796C15.7183 9.74 15.7183 9.754 15.6623 9.838C15.6063 9.894 15.6063 9.88 15.6623 9.796ZM15.6203 9.922C15.6203 10.006 15.5643 10.048 15.4523 10.048C15.5363 9.964 15.5923 9.922 15.6203 9.922ZM15.2003 10.552C15.2003 10.524 15.2143 10.524 15.2423 10.552C15.2703 10.552 15.2563 10.552 15.2003 10.552ZM14.8643 10.804C14.8923 10.748 14.9063 10.762 14.9063 10.846C14.9063 10.902 14.8923 10.888 14.8643 10.804ZM15.0323 10.804C14.9483 10.832 14.9203 10.832 14.9483 10.804C15.0043 10.748 15.0323 10.748 15.0323 10.804ZM14.6123 11.392C14.6403 11.336 14.6543 11.35 14.6543 11.434C14.6543 11.49 14.6403 11.476 14.6123 11.392ZM14.4863 11.518C14.5423 11.546 14.5563 11.588 14.5283 11.644C14.5003 11.672 14.4583 11.672 14.4023 11.644C14.4023 11.588 14.4163 11.574 14.4443 11.602C14.4723 11.602 14.4863 11.574 14.4863 11.518ZM14.2343 11.728C14.2903 11.672 14.3183 11.686 14.3183 11.77C14.3183 11.826 14.2903 11.812 14.2343 11.728ZM12.8483 13.45C12.9043 13.394 12.9323 13.408 12.9323 13.492C12.9323 13.548 12.9043 13.534 12.8483 13.45ZM12.8063 13.66C12.7503 13.632 12.7223 13.632 12.7223 13.66C12.7223 13.688 12.6943 13.688 12.6383 13.66C12.6103 13.604 12.6383 13.576 12.7223 13.576C12.8343 13.576 12.8623 13.604 12.8063 13.66ZM12.3023 14.038C12.3863 13.954 12.4423 13.912 12.4703 13.912C12.4143 14.024 12.3583 14.066 12.3023 14.038ZM12.3023 14.038C12.2183 14.122 12.1483 14.22 12.0923 14.332C12.0363 14.416 11.9243 14.458 11.7563 14.458C11.8123 14.374 11.8823 14.304 11.9663 14.248C12.0783 14.164 12.1903 14.094 12.3023 14.038ZM11.6303 14.29C11.6303 14.402 11.5743 14.43 11.4623 14.374C11.4623 14.318 11.5183 14.29 11.6303 14.29ZM10.4123 15.382H10.4963V15.466H10.4123V15.382ZM9.15229 16.642C9.09629 16.754 9.02629 16.796 8.94229 16.768C8.99829 16.74 9.02629 16.726 9.02629 16.726C9.05429 16.698 9.09629 16.67 9.15229 16.642ZM9.06829 16.852C9.09629 16.796 9.11029 16.81 9.11029 16.894C9.11029 16.95 9.09629 16.936 9.06829 16.852ZM13.6883 16.936C13.6883 16.88 13.7303 16.852 13.8143 16.852C13.8143 16.964 13.7723 16.992 13.6883 16.936ZM8.94229 16.978C8.94229 16.95 8.95629 16.936 8.98429 16.936C9.01229 16.936 9.02629 16.95 9.02629 16.978C9.02629 17.034 9.01229 17.048 8.98429 17.02C8.98429 16.992 8.97029 16.978 8.94229 16.978ZM13.6883 16.936C13.6323 17.048 13.5763 17.09 13.5203 17.062C13.6043 16.978 13.6603 16.936 13.6883 16.936ZM8.81629 17.02C8.87229 17.02 8.90029 17.034 8.90029 17.062C8.92829 17.062 8.95629 17.062 8.98429 17.062C8.98429 17.118 8.95629 17.146 8.90029 17.146C8.84429 17.118 8.81629 17.076 8.81629 17.02ZM12.9743 17.566C12.9183 17.678 12.8623 17.72 12.8063 17.692C12.8903 17.608 12.9463 17.566 12.9743 17.566ZM7.43029 18.364C7.43029 18.308 7.47229 18.28 7.55629 18.28C7.55629 18.392 7.51429 18.42 7.43029 18.364ZM7.43029 18.364C7.37429 18.448 7.30429 18.476 7.22029 18.448C7.27629 18.308 7.34629 18.28 7.43029 18.364ZM14.0663 20.044C14.0663 20.016 14.0523 20.002 14.0243 20.002C13.9963 20.002 13.9823 19.974 13.9823 19.918C14.0383 19.974 14.0943 19.988 14.1503 19.96C14.2063 19.932 14.2763 19.918 14.3603 19.918C14.3603 19.974 14.3183 20.002 14.2343 20.002C14.1783 20.002 14.1223 20.016 14.0663 20.044ZM12.4283 19.96C12.4003 20.016 12.3443 20.044 12.2603 20.044C12.2603 19.988 12.3163 19.96 12.4283 19.96ZM13.0163 20.002C13.0723 20.058 13.1143 20.086 13.1423 20.086C13.1703 20.086 13.2123 20.086 13.2683 20.086C13.2963 20.142 13.2823 20.17 13.2263 20.17C13.1983 20.17 13.1843 20.198 13.1843 20.254C13.1843 20.114 13.1283 20.086 13.0163 20.17C12.9323 20.226 12.8763 20.198 12.8483 20.086C12.9043 20.114 12.9323 20.128 12.9323 20.128C12.9883 20.128 13.0163 20.086 13.0163 20.002ZM14.0663 20.044V20.17C13.9823 20.226 13.8983 20.24 13.8143 20.212C13.7583 20.156 13.6883 20.156 13.6043 20.212C13.5763 20.212 13.5623 20.184 13.5623 20.128C13.6463 20.072 13.7303 20.072 13.8143 20.128C13.9263 20.156 14.0103 20.128 14.0663 20.044ZM12.6383 20.128C12.4983 20.212 12.4423 20.226 12.4703 20.17C12.4983 20.086 12.5543 20.072 12.6383 20.128ZM12.6803 20.128C12.7363 20.072 12.7643 20.086 12.7643 20.17C12.7643 20.226 12.7363 20.212 12.6803 20.128ZM14.6543 20.128C14.7103 20.072 14.7103 20.086 14.6543 20.17C14.5983 20.226 14.5983 20.212 14.6543 20.128ZM15.0743 20.086C15.1303 20.142 15.1723 20.17 15.2003 20.17C15.2283 20.142 15.2423 20.156 15.2423 20.212C15.0463 20.24 14.8783 20.226 14.7383 20.17C14.7663 20.058 14.8223 20.044 14.9063 20.128C15.0183 20.212 15.0743 20.198 15.0743 20.086ZM12.2603 20.17C12.2603 20.142 12.2743 20.142 12.3023 20.17C12.3303 20.17 12.3163 20.17 12.2603 20.17ZM13.3943 20.17C13.4503 20.114 13.4503 20.128 13.3943 20.212C13.3383 20.268 13.3383 20.254 13.3943 20.17ZM14.4443 20.17C14.5003 20.114 14.5283 20.128 14.5283 20.212C14.5283 20.268 14.5003 20.254 14.4443 20.17ZM15.9983 20.128C15.9703 20.24 15.8723 20.282 15.7043 20.254C15.7603 20.198 15.8023 20.17 15.8303 20.17C15.8583 20.17 15.9143 20.156 15.9983 20.128ZM12.2603 20.17C12.1483 20.282 12.0643 20.324 12.0083 20.296C11.9803 20.24 12.0643 20.198 12.2603 20.17ZM15.3263 20.254C15.3263 20.282 15.3543 20.268 15.4103 20.212C15.4103 20.24 15.3823 20.254 15.3263 20.254ZM15.5363 20.254C15.5643 20.198 15.5783 20.212 15.5783 20.296C15.5783 20.352 15.5643 20.338 15.5363 20.254ZM16.2923 20.338C16.2923 20.366 16.3203 20.352 16.3763 20.296C16.3763 20.324 16.3483 20.338 16.2923 20.338ZM16.5443 20.338C16.6003 20.282 16.6283 20.296 16.6283 20.38C16.6283 20.436 16.6003 20.422 16.5443 20.338ZM17.3003 20.338C17.3003 20.478 17.2303 20.52 17.0903 20.464C16.9503 20.408 16.8383 20.38 16.7543 20.38C16.8103 20.324 16.8803 20.31 16.9643 20.338C17.0483 20.366 17.1603 20.366 17.3003 20.338ZM12.8483 20.422C12.7923 20.422 12.7783 20.408 12.8063 20.38C12.8623 20.324 12.8763 20.338 12.8483 20.422ZM14.2763 20.38C14.2763 20.408 14.3043 20.394 14.3603 20.338C14.3603 20.366 14.3323 20.38 14.2763 20.38ZM15.9563 20.38C15.9563 20.352 15.9843 20.338 16.0403 20.338C16.1243 20.338 16.1383 20.366 16.0823 20.422C16.0543 20.422 16.0403 20.422 16.0403 20.422C16.0403 20.394 16.0123 20.38 15.9563 20.38ZM17.4263 20.38C17.4263 20.408 17.4543 20.394 17.5103 20.338C17.5103 20.366 17.4823 20.38 17.4263 20.38ZM17.8463 20.38C17.8463 20.352 17.8603 20.338 17.8883 20.338C17.9163 20.338 17.9303 20.352 17.9303 20.38C17.9303 20.436 17.9163 20.45 17.8883 20.422C17.8883 20.394 17.8743 20.38 17.8463 20.38ZM15.9563 20.38C15.9563 20.492 15.8863 20.548 15.7463 20.548C15.8303 20.464 15.9003 20.408 15.9563 20.38ZM15.1583 20.464C15.1583 20.436 15.1723 20.436 15.2003 20.464C15.2283 20.464 15.2143 20.464 15.1583 20.464ZM17.6363 20.422C17.6923 20.422 17.7343 20.436 17.7623 20.464C17.7903 20.464 17.8323 20.464 17.8883 20.464C17.8603 20.548 17.8183 20.576 17.7623 20.548C17.7343 20.52 17.6923 20.52 17.6363 20.548V20.422ZM15.1583 20.464C15.1583 20.52 15.1443 20.548 15.1163 20.548C15.1163 20.52 15.1303 20.492 15.1583 20.464ZM18.2243 20.632C18.2243 20.66 18.2523 20.646 18.3083 20.59C18.3083 20.618 18.2803 20.632 18.2243 20.632ZM19.0643 20.8C19.0643 20.772 19.0783 20.758 19.1063 20.758C19.1343 20.758 19.1483 20.772 19.1483 20.8C19.1483 20.856 19.1343 20.87 19.1063 20.842C19.1063 20.814 19.0923 20.8 19.0643 20.8ZM19.1903 20.842C19.2183 20.786 19.2603 20.772 19.3163 20.8C19.3723 20.828 19.4283 20.842 19.4843 20.842C19.4563 20.898 19.4143 20.912 19.3583 20.884C19.3023 20.856 19.2463 20.842 19.1903 20.842ZM19.5263 20.968C19.4983 20.912 19.5263 20.884 19.6103 20.884C19.6943 20.884 19.7083 20.912 19.6523 20.968H19.5263ZM19.7783 20.926C19.8343 20.982 19.8623 21.024 19.8623 21.052C19.8063 21.052 19.7783 21.01 19.7783 20.926ZM19.5263 20.968C19.5543 21.08 19.5403 21.122 19.4843 21.094C19.4563 21.038 19.4703 20.996 19.5263 20.968ZM13.4783 21.262C13.4783 21.318 13.4503 21.346 13.3943 21.346C13.3663 21.318 13.3523 21.318 13.3523 21.346C13.2963 21.318 13.2963 21.29 13.3523 21.262C13.4083 21.206 13.4503 21.206 13.4783 21.262ZM21.8363 22.438C21.8643 22.55 21.8363 22.592 21.7523 22.564C21.6683 22.536 21.6123 22.55 21.5843 22.606C21.5283 22.55 21.5423 22.522 21.6263 22.522C21.7103 22.494 21.7803 22.466 21.8363 22.438ZM20.9123 22.606H20.9963V22.69H20.9123V22.606ZM20.8283 22.648C20.8283 22.76 20.7863 22.788 20.7023 22.732C20.7023 22.676 20.7163 22.662 20.7443 22.69C20.7723 22.69 20.8003 22.676 20.8283 22.648ZM19.9463 22.816C19.9463 22.928 19.9323 22.998 19.9043 23.026C19.8203 22.97 19.7223 22.956 19.6103 22.984C19.4983 22.984 19.3723 22.998 19.2323 23.026C19.1203 23.054 19.0083 23.068 18.8963 23.068C18.7843 23.068 18.6863 23.026 18.6023 22.942C18.8823 22.942 19.1063 22.928 19.2743 22.9C19.4703 22.872 19.6943 22.844 19.9463 22.816ZM21.2483 22.9C20.9963 22.928 20.9123 22.914 20.9963 22.858C21.0803 22.774 21.1643 22.788 21.2483 22.9ZM16.1243 22.9C16.1243 22.928 16.1523 22.914 16.2083 22.858C16.2083 22.886 16.1803 22.9 16.1243 22.9ZM0.962289 22.9C1.01829 22.956 1.06029 22.97 1.08829 22.942V23.026C1.03229 23.082 0.990289 23.096 0.962289 23.068V22.9ZM18.0983 22.984C18.0423 23.068 17.9583 23.096 17.8463 23.068C17.9023 23.012 17.9863 22.984 18.0983 22.984ZM36.322 10.762C36.406 10.902 36.546 10.958 36.742 10.93C36.966 10.874 37.134 10.888 37.246 10.972C37.134 11.056 36.966 11.098 36.742 11.098C36.77 11.182 36.812 11.238 36.868 11.266C36.952 11.266 36.994 11.322 36.994 11.434C37.134 11.294 37.26 11.294 37.372 11.434C37.512 11.546 37.68 11.574 37.876 11.518C38.044 11.714 38.212 11.798 38.38 11.77C38.548 11.742 38.758 11.756 39.01 11.812C39.01 11.924 38.996 11.994 38.968 12.022C39.192 12.134 39.416 12.218 39.64 12.274C39.892 12.302 40.06 12.456 40.144 12.736C39.92 12.932 39.682 13.058 39.43 13.114C39.206 13.17 38.94 13.268 38.632 13.408C38.576 13.436 38.52 13.478 38.464 13.534C38.408 13.562 38.352 13.59 38.296 13.618C38.212 13.646 38.128 13.646 38.044 13.618C37.96 13.59 37.876 13.576 37.792 13.576C37.652 13.576 37.526 13.604 37.414 13.66C37.33 13.716 37.218 13.758 37.078 13.786C36.826 13.842 36.56 13.87 36.28 13.87C36.028 13.87 35.762 13.912 35.482 13.996C35.426 13.94 35.384 13.912 35.356 13.912C34.432 14.024 33.522 14.108 32.626 14.164C31.758 14.192 30.862 14.234 29.938 14.29C29.882 14.29 29.854 14.248 29.854 14.164C29.854 14.22 29.812 14.248 29.728 14.248C29.672 14.22 29.63 14.234 29.602 14.29C28.846 14.262 28.076 14.29 27.292 14.374C26.536 14.458 25.752 14.472 24.94 14.416C24.884 14.416 24.856 14.458 24.856 14.542C24.66 14.402 24.492 14.374 24.352 14.458C24.212 14.514 24.058 14.5 23.89 14.416C23.834 14.276 23.862 14.178 23.974 14.122C23.778 13.898 23.708 13.646 23.764 13.366C23.764 13.254 23.792 13.128 23.848 12.988C23.904 12.82 23.96 12.666 24.016 12.526C24.016 12.498 24.03 12.484 24.058 12.484C24.114 12.456 24.156 12.428 24.184 12.4C24.212 12.344 24.212 12.302 24.184 12.274C24.184 12.218 24.198 12.176 24.226 12.148C24.282 12.064 24.352 11.994 24.436 11.938C24.548 11.882 24.632 11.826 24.688 11.77C24.828 11.658 24.968 11.546 25.108 11.434C25.248 11.322 25.388 11.224 25.528 11.14C26.172 11.056 26.914 10.972 27.754 10.888C28.594 10.804 29.434 10.79 30.274 10.846C31.198 10.762 32.164 10.748 33.172 10.804C34.208 10.832 35.258 10.818 36.322 10.762ZM37.708 11.77C37.736 11.854 37.75 11.854 37.75 11.77C37.75 11.686 37.736 11.686 37.708 11.77ZM54.2016 0.975999C54.1456 1.06 54.0196 1.074 53.8236 1.018C53.8236 0.961999 53.8376 0.947999 53.8656 0.975999C53.9216 0.975999 53.9496 0.961999 53.9496 0.933999C53.8936 0.877998 53.7956 0.849998 53.6556 0.849998C53.5156 0.849998 53.4176 0.877998 53.3616 0.933999C53.5296 0.961999 53.6836 1.018 53.8236 1.102C53.9636 1.158 54.1456 1.186 54.3696 1.186C54.3976 1.214 54.3976 1.256 54.3696 1.312C54.3696 1.34 54.3836 1.354 54.4116 1.354C54.6356 1.242 54.7896 1.172 54.8736 1.144C54.8736 1.088 54.8456 1.088 54.7896 1.144C54.7616 1.172 54.7196 1.172 54.6636 1.144C54.6916 1.088 54.7196 1.06 54.7476 1.06C54.8036 1.06 54.8176 1.032 54.7896 0.975999C55.0696 1.06 55.3776 1.158 55.7136 1.27C56.0496 1.382 56.3296 1.564 56.5536 1.816C56.4696 1.816 56.3576 1.774 56.2176 1.69C56.1056 1.606 55.9516 1.578 55.7556 1.606V1.48C55.6716 1.48 55.5876 1.48 55.5036 1.48C55.4476 1.452 55.3776 1.438 55.2936 1.438C55.3216 1.326 55.3776 1.298 55.4616 1.354C55.5456 1.41 55.6156 1.424 55.6716 1.396C55.6156 1.284 55.4756 1.214 55.2516 1.186C55.0556 1.158 54.8876 1.2 54.7476 1.312C54.7756 1.368 54.8316 1.382 54.9156 1.354C55.0276 1.326 55.0976 1.34 55.1256 1.396V1.438C55.0976 1.438 55.0556 1.438 54.9996 1.438C54.9436 1.41 54.9156 1.424 54.9156 1.48C55.0556 1.564 55.2096 1.648 55.3776 1.732C55.5456 1.788 55.7136 1.788 55.8816 1.732C56.0496 1.928 56.2456 2.054 56.4696 2.11C56.6936 2.138 56.8336 2.278 56.8896 2.53C56.9456 2.558 56.9736 2.558 56.9736 2.53C56.9736 2.474 56.9876 2.432 57.0156 2.404C57.0716 2.46 57.0996 2.53 57.0996 2.614C57.1276 2.67 57.1836 2.684 57.2676 2.656C57.2116 2.74 57.2116 2.824 57.2676 2.908C57.3516 2.964 57.3936 3.048 57.3936 3.16C57.7576 3.496 58.0516 3.93 58.2756 4.462C58.5276 4.966 58.6256 5.54 58.5696 6.184C58.5136 6.324 58.4576 6.464 58.4016 6.604C58.3736 6.744 58.3596 6.926 58.3596 7.15C58.3036 7.234 58.2056 7.346 58.0656 7.486C57.9536 7.598 57.9396 7.696 58.0236 7.78C57.8276 8.088 57.6176 8.396 57.3936 8.704C57.1696 8.984 56.9456 9.278 56.7216 9.586C56.3296 9.726 56.0216 9.95 55.7976 10.258C55.6016 10.538 55.3216 10.762 54.9576 10.93C54.3976 11.49 53.7816 11.98 53.1096 12.4C52.4376 12.792 51.8216 13.268 51.2616 13.828C51.7656 14.388 52.2276 14.99 52.6476 15.634C53.0676 16.278 53.4316 16.992 53.7396 17.776C53.6836 17.804 53.6696 17.846 53.6976 17.902C53.7256 17.958 53.7536 18.014 53.7816 18.07C53.7816 18.098 53.7536 18.14 53.6976 18.196C53.8096 18.42 53.8516 18.672 53.8236 18.952C53.8236 19.232 53.7956 19.512 53.7396 19.792C53.6556 20.24 53.5016 20.618 53.2776 20.926C53.0536 21.206 52.8436 21.556 52.6476 21.976C51.8636 22.872 50.9956 23.698 50.0436 24.454C49.1196 25.182 48.0556 25.798 46.8516 26.302C46.3196 26.61 45.6756 26.834 44.9196 26.974C44.1916 27.114 43.4776 27.156 42.7776 27.1C42.3576 27.016 41.9796 26.876 41.6436 26.68C41.3076 26.512 40.9576 26.344 40.5936 26.176C40.6216 26.12 40.6216 26.092 40.5936 26.092C40.5656 26.092 40.5516 26.064 40.5516 26.008C40.3556 26.036 40.2296 25.966 40.1736 25.798C40.1176 25.63 40.0196 25.574 39.8796 25.63C39.9356 25.49 39.9216 25.42 39.8376 25.42C39.7256 25.42 39.6416 25.406 39.5856 25.378C39.5856 25.35 39.5996 25.336 39.6276 25.336C39.6556 25.336 39.6556 25.308 39.6276 25.252C39.7396 25.28 39.7816 25.266 39.7536 25.21C39.6976 25.182 39.6556 25.196 39.6276 25.252C39.5156 25.224 39.4456 25.168 39.4176 25.084C39.3616 25 39.3056 24.916 39.2496 24.832C39.3056 24.832 39.3336 24.818 39.3336 24.79C39.3336 24.734 39.3196 24.734 39.2916 24.79C39.2356 24.818 39.1796 24.804 39.1236 24.748C39.0956 24.636 39.0536 24.566 38.9976 24.538C38.9136 24.482 38.8576 24.384 38.8296 24.244C38.8856 24.3 38.9276 24.3 38.9556 24.244C38.9556 24.188 38.9836 24.146 39.0396 24.118C38.9276 24.034 38.9276 23.922 39.0396 23.782C39.0116 23.726 38.9836 23.698 38.9556 23.698C38.8996 23.698 38.8856 23.656 38.9136 23.572C38.9136 23.488 38.9416 23.474 38.9976 23.53C39.0256 23.558 39.0536 23.544 39.0816 23.488C39.0256 23.376 39.0536 23.306 39.1656 23.278C39.0816 23.138 39.0676 22.97 39.1236 22.774C39.1796 22.55 39.2496 22.368 39.3336 22.228C39.2776 22.144 39.2636 22.06 39.2916 21.976C39.2916 21.864 39.3196 21.766 39.3756 21.682C39.4036 21.598 39.4316 21.514 39.4596 21.43C39.4876 21.346 39.4736 21.248 39.4176 21.136C39.3616 21.136 39.3476 21.178 39.3756 21.262C39.3756 21.346 39.3476 21.402 39.2916 21.43V21.052C39.4596 21.024 39.5716 20.968 39.6276 20.884C39.6556 20.772 39.6836 20.66 39.7116 20.548C39.7396 20.436 39.7816 20.324 39.8376 20.212C39.8936 20.1 39.9916 20.016 40.1316 19.96C40.0756 19.708 40.1456 19.498 40.3416 19.33C40.5376 19.134 40.6496 18.924 40.6776 18.7C41.3216 18.056 41.9656 17.426 42.6096 16.81C43.2816 16.194 43.9396 15.578 44.5836 14.962C44.6396 14.962 44.6536 14.976 44.6256 15.004C44.6256 15.032 44.6396 15.046 44.6676 15.046C44.9756 14.766 45.3116 14.486 45.6756 14.206C46.0396 13.926 46.4036 13.66 46.7676 13.408C46.3756 13.156 45.9976 12.904 45.6336 12.652C45.2696 12.4 44.9336 12.12 44.6256 11.812C44.3456 11.476 44.1076 11.098 43.9116 10.678C43.7156 10.258 43.6036 9.768 43.5756 9.208C43.6316 9.152 43.6736 9.096 43.7016 9.04C43.7576 8.984 43.8136 8.928 43.8696 8.872C43.9536 8.312 44.1496 7.85 44.4576 7.486C44.7936 7.094 45.1856 6.828 45.6336 6.688C45.8576 6.744 46.0116 6.856 46.0956 7.024C46.1796 7.164 46.3336 7.262 46.5576 7.318C46.7256 7.57 46.8236 7.85 46.8516 8.158C46.9076 8.466 46.9076 8.774 46.8516 9.082C46.7956 9.39 46.6976 9.684 46.5576 9.964C46.4456 10.244 46.3056 10.468 46.1376 10.636C46.4176 10.888 46.7396 11.084 47.1036 11.224C47.4956 11.364 47.8456 11.532 48.1536 11.728C48.8816 11.224 49.5396 10.846 50.1276 10.594C50.2396 10.538 50.2816 10.468 50.2536 10.384C51.1496 9.936 51.9476 9.418 52.6476 8.83C53.3476 8.242 54.0336 7.626 54.7056 6.982C54.7056 6.926 54.7196 6.898 54.7476 6.898C54.7756 6.87 54.7756 6.828 54.7476 6.772C54.8596 6.744 54.9436 6.702 54.9996 6.646C55.0556 6.562 55.1256 6.506 55.2096 6.478C55.1536 6.338 55.1536 6.24 55.2096 6.184C55.2936 6.128 55.3356 6.002 55.3356 5.806C55.4756 5.806 55.5736 5.764 55.6296 5.68C55.6856 5.568 55.7276 5.442 55.7556 5.302C55.7836 5.162 55.7976 5.022 55.7976 4.882C55.8256 4.714 55.8536 4.574 55.8816 4.462C55.8536 4.378 55.7976 4.308 55.7136 4.252C55.6296 4.168 55.6016 4.084 55.6296 4C55.2376 3.748 54.8176 3.58 54.3696 3.496C53.9496 3.384 53.5016 3.342 53.0256 3.37C52.5776 3.37 52.1156 3.412 51.6396 3.496C51.1916 3.58 50.7436 3.678 50.2956 3.79C50.3516 3.734 50.3796 3.692 50.3796 3.664C49.9316 3.72 49.5396 3.832 49.2036 4C48.8676 4.14 48.5036 4.28 48.1116 4.42C48.1396 4.364 48.1816 4.336 48.2376 4.336C48.2936 4.336 48.3216 4.308 48.3216 4.252C48.2656 4.168 48.2096 4.154 48.1536 4.21C48.1256 4.266 48.0836 4.28 48.0276 4.252C47.9996 4.14 48.0416 4.084 48.1536 4.084C48.2656 4.084 48.3076 4.042 48.2796 3.958C48.0556 3.986 47.8176 4.07 47.5656 4.21C47.3136 4.35 47.0336 4.434 46.7256 4.462C46.7256 4.434 46.7396 4.42 46.7676 4.42C46.7956 4.42 46.7956 4.392 46.7676 4.336C46.7116 4.336 46.6556 4.35 46.5996 4.378C46.5716 4.406 46.5296 4.434 46.4736 4.462C46.2776 4.378 46.1096 4.364 45.9696 4.42C45.8576 4.448 45.7456 4.504 45.6336 4.588C45.5216 4.644 45.3956 4.7 45.2556 4.756C45.1436 4.812 44.9896 4.84 44.7936 4.84C45.0456 4.28 45.3676 3.832 45.7596 3.496C46.1796 3.16 46.5856 2.81 46.9776 2.446C47.1176 2.418 47.2296 2.376 47.3136 2.32C47.3976 2.264 47.4956 2.208 47.6076 2.152C47.7196 2.152 47.7896 2.166 47.8176 2.194C47.8736 2.166 47.9016 2.138 47.9016 2.11C47.9296 2.054 47.9576 1.998 47.9856 1.942C48.0416 1.97 48.0836 1.984 48.1116 1.984C48.1396 1.984 48.1676 1.998 48.1956 2.026C48.2516 1.998 48.2656 1.984 48.2376 1.984C48.2376 1.956 48.2376 1.914 48.2376 1.858C48.5456 1.802 48.8116 1.69 49.0356 1.522C49.2596 1.354 49.5256 1.298 49.8336 1.354C50.0296 1.214 50.2676 1.13 50.5476 1.102C50.8276 1.074 51.0796 0.961998 51.3036 0.765999C51.4436 0.905999 51.5976 0.933999 51.7656 0.849998C51.9616 0.737998 52.0876 0.737998 52.1436 0.849998C52.2276 0.849998 52.2556 0.807999 52.2276 0.724C52.5356 0.863999 52.8576 0.905999 53.1936 0.849998C53.5576 0.765999 53.8936 0.807999 54.2016 0.975999ZM51.4296 0.933999H51.3876C51.3596 0.961999 51.3456 0.975999 51.3456 0.975999C51.4016 0.975999 51.4296 0.961999 51.4296 0.933999ZM52.0176 1.102C52.1576 1.102 52.2136 1.06 52.1856 0.975999C52.0736 0.975999 52.0176 1.018 52.0176 1.102ZM52.1856 1.312V1.396H52.2696C52.2976 1.312 52.2836 1.27 52.2276 1.27C52.2276 1.298 52.2136 1.312 52.1856 1.312ZM51.2616 1.606C51.3176 1.662 51.3456 1.676 51.3456 1.648C51.3736 1.592 51.4156 1.592 51.4716 1.648C51.4716 1.564 51.4996 1.508 51.5556 1.48C51.6116 1.452 51.6536 1.41 51.6816 1.354C51.4856 1.41 51.3456 1.494 51.2616 1.606ZM50.3796 1.438C50.4356 1.494 50.4636 1.494 50.4636 1.438C50.4636 1.354 50.4356 1.354 50.3796 1.438ZM54.8736 1.522C54.9016 1.438 54.8316 1.396 54.6636 1.396C54.6636 1.452 54.6916 1.48 54.7476 1.48C54.8036 1.48 54.8456 1.494 54.8736 1.522ZM50.6736 1.69C50.7296 1.662 50.8136 1.662 50.9256 1.69C51.0656 1.718 51.1216 1.69 51.0936 1.606H50.8836C50.7436 1.606 50.6736 1.634 50.6736 1.69ZM53.2356 1.774C53.2076 1.774 53.1936 1.774 53.1936 1.774C53.1936 1.746 53.1656 1.732 53.1096 1.732C53.0816 1.788 53.0956 1.83 53.1516 1.858C53.2356 1.858 53.2636 1.83 53.2356 1.774ZM53.2776 1.942C53.3336 1.942 53.3616 1.928 53.3616 1.9C53.3896 1.872 53.4176 1.844 53.4456 1.816C53.3336 1.816 53.2776 1.858 53.2776 1.942ZM54.2016 1.942H54.2856V1.858H54.2016V1.942ZM56.1756 2.152H56.2596V2.068H56.1756V2.152ZM56.1756 2.278C56.1756 2.222 56.1476 2.222 56.0916 2.278C56.1476 2.278 56.1756 2.278 56.1756 2.278ZM56.2596 2.362H56.3436V2.278H56.2596V2.362ZM56.8896 2.782C56.8896 2.726 56.8616 2.726 56.8056 2.782C56.8616 2.782 56.8896 2.782 56.8896 2.782ZM46.3056 3.16C46.2496 3.216 46.2496 3.216 46.3056 3.16C46.3896 3.104 46.3896 3.104 46.3056 3.16ZM47.4396 3.664C47.4116 3.72 47.4256 3.748 47.4816 3.748C47.5376 3.748 47.5796 3.748 47.6076 3.748V3.622C47.5516 3.622 47.5236 3.636 47.5236 3.664C47.5236 3.664 47.4956 3.664 47.4396 3.664ZM48.9516 3.874C49.0636 3.874 49.1056 3.832 49.0776 3.748C49.0216 3.72 48.9936 3.734 48.9936 3.79C48.9936 3.818 48.9796 3.846 48.9516 3.874ZM48.3636 4.042C48.3356 4.21 48.3916 4.266 48.5316 4.21C48.6716 4.126 48.7136 4.056 48.6576 4C48.6576 4.056 48.6156 4.07 48.5316 4.042C48.4756 4.014 48.4196 4.014 48.3636 4.042ZM57.7296 4.462C57.7576 4.378 57.7156 4.308 57.6036 4.252C57.5476 4.308 57.5336 4.364 57.5616 4.42C57.6176 4.448 57.6736 4.462 57.7296 4.462ZM58.3596 5.05C58.3876 4.994 58.3736 4.896 58.3176 4.756C58.2896 4.616 58.2196 4.518 58.1076 4.462C58.1636 4.574 58.1916 4.686 58.1916 4.798C58.1916 4.91 58.2476 4.994 58.3596 5.05ZM56.4276 4.84C56.4556 4.812 56.4696 4.77 56.4696 4.714C56.4976 4.658 56.4696 4.644 56.3856 4.672C56.4136 4.7 56.4136 4.742 56.3856 4.798C56.3856 4.826 56.3996 4.84 56.4276 4.84ZM56.6376 4.966H56.7216V4.882H56.6376V4.966ZM56.9316 5.596H57.0156V5.512H56.9316V5.596ZM55.9656 5.764C56.0216 5.792 56.0496 5.764 56.0496 5.68C56.0496 5.596 56.0216 5.582 55.9656 5.638V5.764ZM57.8136 6.058H57.8976C57.9536 6.002 57.9396 5.974 57.8556 5.974C57.7996 5.946 57.7716 5.96 57.7716 6.016C57.8276 6.016 57.8416 6.03 57.8136 6.058ZM56.8896 6.268C56.9456 6.352 56.9736 6.366 56.9736 6.31C56.9736 6.226 56.9456 6.212 56.8896 6.268ZM56.6376 6.814C56.6656 6.842 56.7076 6.87 56.7636 6.898C56.8196 6.898 56.8476 6.87 56.8476 6.814C56.7916 6.786 56.8056 6.73 56.8896 6.646C56.9736 6.534 56.9596 6.464 56.8476 6.436C56.7916 6.52 56.7636 6.59 56.7636 6.646C56.7916 6.702 56.7496 6.758 56.6376 6.814ZM56.8056 6.982C56.7776 6.982 56.7636 6.982 56.7636 6.982C56.7636 6.954 56.7356 6.94 56.6796 6.94C56.6516 6.996 56.6656 7.038 56.7216 7.066C56.8056 7.066 56.8336 7.038 56.8056 6.982ZM55.5456 7.066C55.4056 7.122 55.2796 7.234 55.1676 7.402C55.0836 7.57 55.0696 7.71 55.1256 7.822C55.2376 7.738 55.3496 7.64 55.4616 7.528C55.5736 7.388 55.6016 7.234 55.5456 7.066H55.6296V6.982C55.5736 6.982 55.5456 7.01 55.5456 7.066ZM54.4116 8.494C54.5516 8.438 54.6496 8.368 54.7056 8.284C54.7616 8.172 54.8316 8.088 54.9156 8.032C54.8036 8.004 54.7056 8.06 54.6216 8.2C54.5656 8.312 54.4956 8.41 54.4116 8.494ZM47.3136 13.996C47.3696 14.08 47.3976 14.08 47.3976 13.996C47.3976 13.912 47.3696 13.912 47.3136 13.996ZM46.8936 14.416C46.9776 14.332 46.9916 14.276 46.9356 14.248C46.9636 14.276 46.9496 14.304 46.8936 14.332C46.8376 14.36 46.8376 14.388 46.8936 14.416ZM46.2636 14.668C46.3756 14.668 46.4176 14.64 46.3896 14.584H46.3056C46.3056 14.612 46.2916 14.64 46.2636 14.668ZM43.4916 23.992C44.0236 23.908 44.5136 23.796 44.9616 23.656C45.4376 23.516 45.9136 23.334 46.3896 23.11C46.4176 23.082 46.4316 23.054 46.4316 23.026C46.4316 22.97 46.4596 22.942 46.5156 22.942C47.2156 22.634 47.8176 22.256 48.3216 21.808C48.8536 21.332 49.3576 20.828 49.8336 20.296C49.8616 20.24 49.8616 20.17 49.8336 20.086C50.1696 19.778 50.4496 19.4 50.6736 18.952C50.9256 18.504 51.0236 18 50.9676 17.44C50.9396 16.852 50.7576 16.362 50.4216 15.97C50.1136 15.55 49.8056 15.186 49.4976 14.878C49.4976 14.878 49.4696 14.906 49.4136 14.962C47.0336 16.754 44.8916 18.742 42.9876 20.926C42.7356 21.402 42.4556 21.864 42.1476 22.312C41.8396 22.732 41.6436 23.264 41.5596 23.908C41.8116 24.02 41.9796 24.062 42.0636 24.034C42.1756 24.006 42.3436 24.062 42.5676 24.202C42.7076 24.202 42.8196 24.174 42.9036 24.118C42.9876 24.062 43.0996 24.048 43.2396 24.076C43.2396 24.048 43.2116 24.006 43.1556 23.95C43.2396 23.95 43.2956 23.964 43.3236 23.992C43.3796 24.02 43.4356 24.02 43.4916 23.992ZM44.7516 15.256C44.6676 15.256 44.6256 15.298 44.6256 15.382C44.6816 15.41 44.7096 15.41 44.7096 15.382C44.7096 15.326 44.7236 15.284 44.7516 15.256C44.8076 15.284 44.8496 15.27 44.8776 15.214C44.9056 15.158 44.8916 15.116 44.8356 15.088C44.8356 15.144 44.8216 15.172 44.7936 15.172C44.7656 15.172 44.7516 15.2 44.7516 15.256ZM45.5496 15.34C45.6336 15.34 45.6756 15.312 45.6756 15.256C45.6476 15.256 45.6056 15.284 45.5496 15.34ZM39.8796 20.926H39.9636V20.842H39.8796V20.926ZM39.9636 21.304C40.0196 21.388 40.0476 21.388 40.0476 21.304C40.0476 21.22 40.0196 21.22 39.9636 21.304ZM39.7536 21.682H39.8376V21.598H39.7536V21.682ZM38.9976 23.614C39.0536 23.698 39.0816 23.698 39.0816 23.614C39.0816 23.53 39.0536 23.53 38.9976 23.614ZM39.2076 24.076H39.1656C39.1936 24.132 39.2076 24.188 39.2076 24.244C39.1796 24.272 39.1936 24.272 39.2496 24.244C39.2776 24.188 39.2636 24.132 39.2076 24.076C39.2636 24.104 39.3056 24.09 39.3336 24.034C39.3336 23.978 39.3056 23.95 39.2496 23.95C39.2496 23.978 39.2496 24.006 39.2496 24.034C39.2216 24.034 39.2076 24.048 39.2076 24.076ZM39.4176 24.538C39.4176 24.454 39.3896 24.412 39.3336 24.412C39.3336 24.496 39.3616 24.538 39.4176 24.538ZM39.5436 24.832C39.5996 24.832 39.6416 24.818 39.6696 24.79C39.6976 24.762 39.7396 24.762 39.7956 24.79V24.58C39.7396 24.608 39.6836 24.636 39.6276 24.664C39.5716 24.664 39.5436 24.72 39.5436 24.832ZM39.3756 24.664V24.748H39.4596C39.4876 24.664 39.4736 24.622 39.4176 24.622C39.4176 24.65 39.4036 24.664 39.3756 24.664ZM40.0476 25.336C40.0476 25.28 40.0196 25.21 39.9636 25.126C39.9076 25.07 39.8516 25.07 39.7956 25.126C39.8516 25.182 39.8936 25.238 39.9216 25.294C39.9216 25.35 39.9636 25.364 40.0476 25.336ZM43.3236 25.504C43.3796 25.56 43.4496 25.574 43.5336 25.546C43.6456 25.518 43.7156 25.476 43.7436 25.42C43.6876 25.364 43.6176 25.35 43.5336 25.378C43.4776 25.434 43.4076 25.476 43.3236 25.504ZM43.9116 25.504C44.0236 25.504 44.0796 25.476 44.0796 25.42C44.0516 25.42 44.0096 25.42 43.9536 25.42C43.8976 25.42 43.8836 25.448 43.9116 25.504ZM40.1316 25.546C40.1316 25.49 40.1036 25.49 40.0476 25.546C40.1036 25.546 40.1316 25.546 40.1316 25.546ZM40.2576 25.798H40.3416V25.714H40.2576V25.798ZM54.2016 0.975999C54.2576 0.947999 54.2996 0.947999 54.3276 0.975999C54.3836 0.975999 54.4256 0.947999 54.4536 0.892C54.5376 0.947999 54.5236 0.989999 54.4116 1.018C54.2996 1.046 54.2296 1.032 54.2016 0.975999ZM54.6216 0.933999H54.7056V1.018H54.6216V0.933999ZM54.5796 1.06C54.6076 1.144 54.5516 1.186 54.4116 1.186C54.4396 1.102 54.4956 1.06 54.5796 1.06ZM55.1256 1.438H55.2936C55.3216 1.494 55.2936 1.522 55.2096 1.522C55.1536 1.522 55.1256 1.494 55.1256 1.438ZM55.5876 1.606C55.6436 1.522 55.6716 1.522 55.6716 1.606C55.6996 1.662 55.6716 1.662 55.5876 1.606ZM56.8476 2.278C56.9036 2.222 56.9316 2.236 56.9316 2.32C56.9316 2.376 56.9036 2.362 56.8476 2.278ZM57.4356 2.992C57.4916 2.936 57.5196 2.95 57.5196 3.034C57.5196 3.09 57.4916 3.076 57.4356 2.992ZM49.9596 3.916C49.9596 3.888 49.9736 3.874 50.0016 3.874H50.0436C50.0436 3.902 50.0156 3.916 49.9596 3.916ZM49.8336 3.916C49.8056 3.944 49.7776 3.972 49.7496 4C49.7496 4.028 49.7216 4.042 49.6656 4.042C49.6936 3.958 49.7496 3.916 49.8336 3.916ZM55.5036 5.638C55.5596 5.582 55.5736 5.526 55.5456 5.47C55.6016 5.47 55.6156 5.512 55.5876 5.596C55.5876 5.68 55.5596 5.694 55.5036 5.638ZM55.5036 5.638C55.5316 5.722 55.5176 5.75 55.4616 5.722C55.4336 5.666 55.4476 5.638 55.5036 5.638ZM39.2916 21.43V21.472C39.2636 21.444 39.2636 21.43 39.2916 21.43ZM39.2916 21.472C39.3476 21.472 39.3616 21.5 39.3336 21.556C39.2776 21.584 39.2636 21.556 39.2916 21.472ZM39.0816 21.892C39.1376 21.808 39.1656 21.808 39.1656 21.892C39.1656 21.976 39.1376 21.976 39.0816 21.892ZM38.7876 22.228C38.8436 22.2 38.8856 22.228 38.9136 22.312C38.9136 22.396 38.8716 22.424 38.7876 22.396C38.8436 22.34 38.8576 22.312 38.8296 22.312C38.8016 22.312 38.7876 22.284 38.7876 22.228ZM38.7456 22.732C38.8296 22.816 38.8156 22.942 38.7036 23.11C38.6476 23.054 38.6476 22.998 38.7036 22.942C38.7316 22.858 38.7456 22.788 38.7456 22.732ZM38.8296 23.152C38.8856 23.152 38.8996 23.194 38.8716 23.278H38.7876V23.194C38.8156 23.194 38.8296 23.18 38.8296 23.152ZM38.7456 23.614C38.8016 23.53 38.8296 23.53 38.8296 23.614C38.8296 23.698 38.8016 23.698 38.7456 23.614ZM38.8716 24.706C38.9276 24.65 38.9556 24.65 38.9556 24.706C38.9556 24.706 38.9276 24.706 38.8716 24.706ZM39.1236 24.748V25C39.0956 25 39.0816 25 39.0816 25C39.0816 24.972 39.0536 24.958 38.9976 24.958C39.0536 24.846 39.0816 24.776 39.0816 24.748H39.1236ZM39.1236 25C39.1796 25 39.2076 25 39.2076 25C39.1796 25.028 39.1516 25.028 39.1236 25Z" fill="#FA2426"/>
</svg>
