<?xml version="1.0" encoding="UTF-8"?>
<svg baseProfile="basic" version="1.1" viewBox="0 0 280.7 274" xml:space="preserve" xmlns="http://www.w3.org/2000/svg">
<g fill="#292B77">
	<polygon points="280.7 113 280.7 11.7 269 0 11.7 0 0 11.7 0 113 0.8 113 2.3 111.5 2.3 102.9 0.8 101.4 0.8 94.3 2.3 92.8 2.3 45.2 0.8 43.7 0.8 14.8 7.8 7.8 7.8 5.5 10.9 2.3 13.3 2.3 14.8 0.8 37.4 0.8 39 2.3 241.7 2.3 243.3 0.8 265.9 0.8 267.4 2.3 269.8 2.3 272.9 5.5 272.9 7.8 279.9 14.8 279.9 43.7 278.3 45.2 278.3 92.8 279.9 94.3 279.9 101.4 278.3 102.9 278.3 111.5 279.9 113"/>
	<polygon points="0 161 0 262.3 11.7 274 269 274 280.7 262.3 280.7 161 279.9 161 278.3 162.5 278.3 171.1 279.9 172.7 279.9 179.7 278.3 181.2 278.3 228.8 279.9 230.3 279.9 259.2 272.9 266.2 272.9 268.5 269.8 271.7 267.4 271.7 265.9 273.2 243.3 273.2 241.7 271.7 39 271.7 37.4 273.2 14.8 273.2 13.3 271.7 10.9 271.7 7.8 268.5 7.8 266.2 0.8 259.2 0.8 230.3 2.3 228.8 2.3 181.2 0.8 179.7 0.8 172.7 2.3 171.1 2.3 162.5 0.8 161"/>
</g>
</svg>
