<?xml version="1.0" encoding="UTF-8"?>
<svg baseProfile="basic" version="1.1" viewBox="0 0 807.5 46.4" xml:space="preserve" xmlns="http://www.w3.org/2000/svg">
<g fill="#CBCBCA">
		<polygon points="807.5 22.3 806 23.2 807.5 24"/>
		<polygon points="787 21.7 786.2 21 782.2 21 781.4 20.2 778.7 20.2 777.1 21.7"/>
		<polygon points="777.1 24.6 778.7 26.2 781.4 26.2 782.2 25.4 786.2 25.4 787 24.6"/>
		<path d="m804.9 11.4l-1.5-0.3c0-0.1 0.1-0.3 0.1-0.4l1.5 0.3c0 0.1-0.1 0.2-0.1 0.4z"/>
		<path d="m804.6 12.9l-1.5-0.3c0 0.1 0 0.3-0.1 0.4l1.5 0.3c0.1-0.1 0.1-0.2 0.1-0.4z"/>
		<path d="m806.6 5.1l-1.4-0.5c0 0.1-0.1 0.3-0.1 0.4l1.4 0.5c0-0.1 0-0.3 0.1-0.4z"/>
		<path d="m806 7l-1.4-0.4c0 0.1-0.1 0.3-0.1 0.4l1.5 0.4c-0.1-0.1-0.1-0.2 0-0.4z"/>
		<path d="m804 16.9l-1.5-0.2v0.4l1.5 0.2v-0.4z"/>
		<path d="m804.3 14.9l-1.5-0.2c0 0.1 0 0.3-0.1 0.4l1.5 0.2c0-0.1 0.1-0.2 0.1-0.4z"/>
		<path d="m803.7 20.9l-1.5-0.1v0.5l1.5 0.1v-0.5z"/>
		<path d="m803.9 18.9l-1.5-0.1v0.5l1.5 0.1c-0.1-0.2-0.1-0.3 0-0.5z"/>
		<path d="m807.2 3.2l-1.4-0.5c-0.1 0.1-0.1 0.3-0.2 0.4l1.4 0.5c0.1-0.1 0.2-0.3 0.2-0.4z"/>
		<path d="m805.5 9l-1.5-0.4c0 0.1-0.1 0.3-0.1 0.4l1.5 0.4c0-0.1 0-0.3 0.1-0.4z"/>
		<path d="m803.7 25l-1.5 0.1v0.4l1.5-0.1v-0.4z"/>
		<path d="m804.2 31l-1.5 0.2c0 0.1 0 0.3 0.1 0.4l1.5-0.2c0-0.1-0.1-0.2-0.1-0.4z"/>
		<path d="m804.9 35l-1.5 0.3c0 0.1 0.1 0.3 0.1 0.4l1.5-0.3c0-0.1-0.1-0.3-0.1-0.4z"/>
		<path d="m804.5 33l-1.5 0.3c0 0.1 0 0.3 0.1 0.4l1.5-0.3c0-0.1 0-0.2-0.1-0.4z"/>
		<path d="m804 29l-1.5 0.2v0.4l1.5-0.2v-0.4z"/>
		<path d="m803.8 27l-1.5 0.1v0.4l1.5-0.1v-0.4z"/>
		<path d="m806.4 40.9l-1.4 0.5c0 0.1 0.1 0.3 0.1 0.4l1.4-0.5c0-0.2 0-0.3-0.1-0.4z"/>
		<path d="m807.1 42.8l-1.4 0.5c0 0.1 0.1 0.3 0.2 0.4l1.4-0.5c-0.1-0.1-0.2-0.3-0.2-0.4z"/>
		<path d="m805.9 38.9l-1.5 0.4c0 0.1 0.1 0.3 0.1 0.4l1.4-0.4c0.1-0.1 0-0.2 0-0.4z"/>
		<path d="m805.4 37l-1.5 0.4c0 0.1 0.1 0.3 0.1 0.4l1.5-0.4c-0.1-0.1-0.1-0.3-0.1-0.4z"/>
		<path d="m791.2 22.7h4.6v1h-4.6c0.1 7.8 1.4 15.3 3.8 22.4l-0.9 0.3c-2.5-7.1-3.8-14.7-3.9-22.7h-1.7v-1h1.7c0.1-7.9 1.4-15.6 3.9-22.7l0.9 0.3c-2.4 7-3.7 14.6-3.8 22.4z"/>
		<rect x="800.4" y="22.7" width="3.2" height="1"/>
		<path d="m766.4 24.6h-1v-2.8h1v2.8zm-5.7 0h-1v-2.8h1v2.8zm-5.7 0h-1v-2.8h1v2.8zm-5.7 0h-1v-2.8h1v2.8zm-11.3 0h-1v-2.8h1v2.8zm-5.7 0h-1v-2.8h1v2.8zm-5.6 0h-1v-2.8h1v2.8zm-5.7 0h-1v-2.8h1v2.8zm-11.3 0h-1v-2.8h1v2.8zm-5.7 0h-1v-2.8h1v2.8zm-5.7 0h-1v-2.8h1v2.8zm-5.6 0h-1v-2.8h1v2.8zm-11.4 0h-1v-2.8h1v2.8zm-5.7 0h-1v-2.8h1v2.8zm-5.6 0h-1v-2.8h1v2.8zm-5.7 0h-1v-2.8h1v2.8zm-11.3 0h-1v-2.8h1v2.8zm-5.7 0h-1v-2.8h1v2.8zm-5.7 0h-1v-2.8h1v2.8zm-5.6 0h-1v-2.8h1v2.8zm-11.4 0h-1v-2.8h1v2.8zm-5.6 0h-1v-2.8h1v2.8zm-5.7 0h-1v-2.8h1v2.8zm-5.7 0h-1v-2.8h1v2.8zm-11.3 0h-1v-2.8h1v2.8zm-5.7 0h-1v-2.8h1v2.8zm-5.7 0h-1v-2.8h1v2.8zm-5.6 0h-1v-2.8h1v2.8zm-11.4 0h-1v-2.8h1v2.8zm-5.6 0h-1v-2.8h1v2.8zm-5.7 0h-1v-2.8h1v2.8zm-5.7 0h-1v-2.8h1v2.8zm-11.3 0h-1v-2.8h1v2.8zm-5.7 0h-1v-2.8h1v2.8zm-5.7 0h-1v-2.8h1v2.8zm-5.6 0h-1v-2.8h1v2.8zm-11.4 0h-1v-2.8h1v2.8zm-5.6 0h-1v-2.8h1v2.8zm-5.7 0h-1v-2.8h1v2.8zm-5.7 0h-1v-2.8h1v2.8zm-11.3 0h-1v-2.8h1v2.8zm-5.7 0h-1v-2.8h1v2.8zm-5.6 0h-1v-2.8h1v2.8zm-5.7 0h-1v-2.8h1v2.8zm-11.4 0h-1v-2.8h1v2.8zm-5.6 0h-1v-2.8h1v2.8zm-5.7 0h-1v-2.8h1v2.8zm-5.7 0h-1v-2.8h1v2.8zm-11.3 0h-1v-2.8h1v2.8zm-5.7 0h-1v-2.8h1v2.8zm-5.6 0h-1v-2.8h1v2.8zm-5.7 0h-1v-2.8h1v2.8zm-11.4 0h-1v-2.8h1v2.8zm-5.6 0h-1v-2.8h1v2.8zm-5.7 0h-1v-2.8h1v2.8zm-5.7 0h-1v-2.8h1v2.8zm-11.3 0h-1v-2.8h1v2.8zm-5.7 0h-1v-2.8h1v2.8zm-5.6 0h-1v-2.8h1v2.8zm-5.7 0h-1v-2.8h1v2.8zm-11.3 0h-1v-2.8h1v2.8zm-5.7 0h-1v-2.8h1v2.8zm-5.7 0h-1v-2.8h1v2.8zm-5.6 0h-1v-2.8h1v2.8zm-11.4 0h-1v-2.8h1v2.8zm-5.7 0h-1v-2.8h1v2.8zm-5.6 0h-1v-2.8h1v2.8zm-5.7 0h-1v-2.8h1v2.8zm-11.3 0h-1v-2.8h1v2.8zm-5.7 0h-1v-2.8h1v2.8zm-5.7 0h-1v-2.8h1v2.8zm-5.6 0h-1v-2.8h1v2.8zm-11.4 0h-1v-2.8h1v2.8zm-5.7 0h-1v-2.8h1v2.8zm-5.6 0h-1v-2.8h1v2.8zm-5.7 0h-1v-2.8h1v2.8zm-11.3 0h-1v-2.8h1v2.8zm-5.7 0h-1v-2.8h1v2.8zm-5.7 0h-1v-2.8h1v2.8zm-5.6 0h-1v-2.8h1v2.8zm-11.4 0h-1v-2.8h1v2.8zm-5.6 0h-1v-2.8h1v2.8zm-5.7 0h-1v-2.8h1v2.8zm-5.7 0h-1v-2.8h1v2.8zm-11.3 0h-1v-2.8h1v2.8zm-5.7 0h-1v-2.8h1v2.8zm-5.7 0h-1v-2.8h1v2.8zm-5.6 0h-1v-2.8h1v2.8zm-11.4 0h-1v-2.8h1v2.8zm-5.6 0h-1v-2.8h1v2.8zm-5.7 0h-1v-2.8h1v2.8zm-5.7 0h-1v-2.8h1v2.8zm-11.3 0h-1v-2.8h1v2.8zm-5.7 0h-1v-2.8h1v2.8zm-5.7 0h-1v-2.8h1v2.8zm-5.6 0h-1v-2.8h1v2.8zm-11.4 0h-1v-2.8h1v2.8zm-5.6 0h-1v-2.8h1v2.8zm-5.7 0h-1v-2.8h1v2.8zm-5.7 0h-1v-2.8h1v2.8zm-11.3 0h-1v-2.8h1v2.8zm-5.7 0h-1v-2.8h1v2.8zm-5.6 0h-1v-2.8h1v2.8zm-5.7 0h-1v-2.8h1v2.8zm-11.4 0h-1v-2.8h1v2.8zm-5.6 0h-1v-2.8h1v2.8zm-5.7 0h-1v-2.8h1v2.8zm-5.7 0h-1v-2.8h1v2.8zm-11.3 0h-1v-2.8h1v2.8z"/>
		<path d="m63.4 16.1h-1.1l-0.6 2.8h2.3l-0.6-2.8zm-1.1 14.2h1.1l0.6-2.8h-2.3l0.6 2.8zm142.9-14.2h-1.2l-0.6 2.8h2.3l-0.5-2.8zm-1.2 14.2h1.1l0.6-2.8h-2.3l0.6 2.8zm142.9-14.2h-1.1l-0.6 2.8h2.3l-0.6-2.8zm-1.1 14.2h1.1l0.6-2.8h-2.3l0.6 2.8zm142.8-14.2h-1.1l-0.6 2.8h2.3l-0.6-2.8zm-1.1 14.2h1.1l0.6-2.8h-2.3l0.6 2.8zm142.9-14.2h-1.1l-0.6 2.8h2.3l-0.6-2.8zm-1.2 14.2h1.1l0.6-2.8h-2.3l0.6 2.8zm142.9-14.2h-1.1l-0.6 2.8h2.3l-0.6-2.8zm-1.1 14.2h1.1l0.6-2.8h-2.3l0.6 2.8z"/>
		<path d="m61.7 24.6v-2.8h2.3v2.8h-2.3zm-54.4 0v-2.8h-2.3v2.8h2.3zm28.4 0v-2.8h-2.3v2.8h2.3zm167.8 0v-2.8h2.3v2.8h-2.3zm-111.2 0v-2.8h-2.3v2.8h2.3zm28.4 0v-2.8h-2.3v2.8h2.3zm28.3 0v-2.8h-2.3v2.8h2.3zm28.4 0v-2.8h-2.3v2.8h2.3zm167.8 0v-2.8h2.3v2.8h-2.3zm-111.1 0v-2.8h-2.3v2.8h2.3zm28.3 0v-2.8h-2.3v2.8h2.3zm28.4 0v-2.8h-2.3v2.8h2.3zm196.1 0v-2.8h2.3v2.8h-2.3zm-111.1 0v-2.8h-2.3v2.8h2.3zm28.4 0v-2.8h-2.3v2.8h2.3zm28.3 0v-2.8h-2.3v2.8h2.3zm28.3 0v-2.8h-2.3v2.8h2.3zm167.9 0v-2.8h2.3v2.8h-2.3zm-111.2 0v-2.8h-2.3v2.8h2.3zm28.4 0v-2.8h-2.3v2.8h2.3zm28.3 0v-2.8h-2.2v2.8h2.2zm28.4 0v-2.8h-2.3v2.8h2.3zm167.8 0v-2.8h2.3v2.8h-2.3zm-111.1 0v-2.8h-2.3v2.8h2.3zm28.3 0v-2.8h-2.3v2.8h2.3zm28.4 0v-2.8h-2.3v2.8h2.3zm28.3 0v-2.8h-2.3v2.8h2.3zm-425.2 0v-2.8h-2.3v2.8h2.3z"/>
</g>
</svg>
