<?xml version="1.0" encoding="UTF-8"?>
<svg baseProfile="basic" version="1.1" viewBox="0 0 807.5 46.4" xml:space="preserve" xmlns="http://www.w3.org/2000/svg">
<g fill="#CBCBCA">
		<polygon points="0 22.3 1.5 23.2 0 24"/>
		<polygon points="20.5 21.7 21.2 21 25.3 21 26.1 20.2 28.8 20.2 30.4 21.7"/>
		<polygon points="30.4 24.6 28.8 26.2 26.1 26.2 25.3 25.4 21.2 25.4 20.5 24.6"/>
		<path d="m2.6 11.4l1.4-0.3c0-0.1-0.1-0.3-0.1-0.4l-1.5 0.3c0.1 0.1 0.1 0.2 0.2 0.4z"/>
		<path d="m2.8 12.9l1.5-0.3c0 0.1 0 0.3 0.1 0.4l-1.5 0.3c0-0.1 0-0.2-0.1-0.4z"/>
		<path d="M0.9,5.1l1.4-0.5c0,0.1,0.1,0.3,0.1,0.4L1,5.5C1,5.4,0.9,5.2,0.9,5.1z"/>
		<path d="M1.5,7l1.4-0.4C3,6.7,3,6.9,3,7L1.6,7.4C1.5,7.3,1.5,7.2,1.5,7z"/>
		<path d="m3.4 16.9l1.5-0.2v0.4l-1.5 0.2c0.1-0.1 0-0.2 0-0.4z"/>
		<path d="m3.2 14.9l1.5-0.2c0 0.1 0 0.3 0.1 0.4l-1.5 0.2c-0.1-0.1-0.1-0.2-0.1-0.4z"/>
		<path d="m3.7 20.9l1.5-0.1v0.5l-1.5 0.1v-0.5z"/>
		<path d="m3.6 18.9l1.5-0.1v0.5l-1.5 0.1v-0.5z"/>
		<path d="M0.2,3.2l1.4-0.5c0.1,0.1,0.1,0.3,0.2,0.4L0.4,3.6C0.3,3.5,0.3,3.3,0.2,3.2z"/>
		<path d="M2,9l1.5-0.4c0,0.1,0.1,0.3,0.1,0.4L2.1,9.4C2.1,9.3,2,9.1,2,9z"/>
		<path d="m3.7 25h1.5v0.4l-1.5-0.1v-0.3z"/>
		<path d="m3.2 31l1.5 0.2c0 0.1 0 0.3-0.1 0.4l-1.5-0.2c0.1-0.1 0.1-0.2 0.1-0.4z"/>
		<path d="m2.6 35l1.4 0.3c0 0.1-0.1 0.3-0.1 0.4l-1.5-0.3c0.1-0.1 0.1-0.3 0.2-0.4z"/>
		<path d="m2.9 33l1.5 0.3c0 0.1 0 0.3-0.1 0.4l-1.5-0.3c0.1-0.1 0.1-0.2 0.1-0.4z"/>
		<path d="m3.5 29l1.5 0.2v0.4l-1.5-0.2c-0.1-0.1 0-0.2 0-0.4z"/>
		<path d="m3.6 27l1.5 0.1v0.4l-1.5-0.1v-0.4z"/>
		<path d="M1,40.9l1.4,0.5c0,0.1-0.1,0.3-0.1,0.4l-1.4-0.5C0.9,41.1,1,41,1,40.9z"/>
		<path d="m0.4 42.8l1.4 0.5c0 0.1-0.1 0.3-0.2 0.4l-1.4-0.5c0.1-0.1 0.1-0.3 0.2-0.4z"/>
		<path d="m1.6 38.9l1.4 0.4c0 0.1-0.1 0.3-0.1 0.4l-1.4-0.4c0-0.1 0-0.2 0.1-0.4z"/>
		<path d="M2.1,37l1.5,0.4c0,0.1-0.1,0.3-0.1,0.4L2,37.4C2,37.3,2.1,37.1,2.1,37z"/>
		<path d="m16.3 22.7h-4.6v1h4.6c-0.1 7.8-1.4 15.3-3.9 22.3l0.9 0.3c2.5-7.1 3.8-14.7 3.9-22.7h1.7v-1h-1.7c0-7.9-1.4-15.5-3.8-22.6l-0.9 0.3c2.4 7 3.7 14.6 3.8 22.4z"/>
		<rect x="3.8" y="22.7" width="3.2" height="1"/>
		<path d="m41.1 21.8h1v2.8h-1v-2.8zm5.7 0h1v2.8h-1v-2.8zm5.6 0h1v2.8h-1v-2.8zm5.7 0h1v2.8h-1v-2.8zm11.4 0h1v2.8h-1v-2.8zm5.6 0h1v2.8h-1v-2.8zm5.7 0h1v2.8h-1v-2.8zm5.7 0h1v2.8h-1v-2.8zm11.3 0h1v2.8h-1v-2.8zm5.7 0h1v2.8h-1v-2.8zm5.6 0h1v2.8h-1v-2.8zm5.7 0h1v2.8h-1v-2.8zm11.3 0h1v2.8h-1v-2.8zm5.7 0h1v2.8h-1v-2.8zm5.7 0h1v2.8h-1v-2.8zm5.7 0h1v2.8h-1v-2.8zm11.3 0h1v2.8h-1v-2.8zm5.7 0h1v2.8h-1v-2.8zm5.6 0h1v2.8h-1v-2.8zm5.7 0h1v2.8h-1v-2.8zm11.3 0h1v2.8h-1v-2.8zm5.7 0h1v2.8h-1v-2.8zm5.7 0h1v2.8h-1v-2.8zm5.6 0h1v2.8h-1v-2.8zm11.4 0h1v2.8h-1v-2.8zm5.7 0h1v2.8h-1v-2.8zm5.6 0h1v2.8h-1v-2.8zm5.7 0h1v2.8h-1v-2.8zm11.3 0h1v2.8h-1v-2.8zm5.7 0h1v2.8h-1v-2.8zm5.7 0h1v2.8h-1v-2.8zm5.6 0h1v2.8h-1v-2.8zm11.4 0h1v2.8h-1v-2.8zm5.6 0h1v2.8h-1v-2.8zm5.7 0h1v2.8h-1v-2.8zm5.7 0h1v2.8h-1v-2.8zm11.3 0h1v2.8h-1v-2.8zm5.7 0h1v2.8h-1v-2.8zm5.7 0h1v2.8h-1v-2.8zm5.6 0h1v2.8h-1v-2.8zm11.4 0h1v2.8h-1v-2.8zm5.6 0h1v2.8h-1v-2.8zm5.7 0h1v2.8h-1v-2.8zm5.7 0h1v2.8h-1v-2.8zm11.3 0h1v2.8h-1v-2.8zm5.7 0h1v2.8h-1v-2.8zm5.7 0h1v2.8h-1v-2.8zm5.6 0h1v2.8h-1v-2.8zm11.4 0h1v2.8h-1v-2.8zm5.6 0h1v2.8h-1v-2.8zm5.7 0h1v2.8h-1v-2.8zm5.7 0h1v2.8h-1v-2.8zm11.3 0h1v2.8h-1v-2.8zm5.7 0h1v2.8h-1v-2.8zm5.6 0h1v2.8h-1v-2.8zm5.7 0h1v2.8h-1v-2.8zm11.4 0h1v2.8h-1v-2.8zm5.6 0h1v2.8h-1v-2.8zm5.7 0h1v2.8h-1v-2.8zm5.7 0h1v2.8h-1v-2.8zm11.3 0h1v2.8h-1v-2.8zm5.7 0h1v2.8h-1v-2.8zm5.6 0h1v2.8h-1v-2.8zm5.7 0h1v2.8h-1v-2.8zm11.3 0h1v2.8h-1v-2.8zm5.7 0h1v2.8h-1v-2.8zm5.7 0h1v2.8h-1v-2.8zm5.7 0h1v2.8h-1v-2.8zm11.3 0h1v2.8h-1v-2.8zm5.7 0h1v2.8h-1v-2.8zm5.6 0h1v2.8h-1v-2.8zm5.7 0h1v2.8h-1v-2.8zm11.3 0h1v2.8h-1v-2.8zm5.7 0h1v2.8h-1v-2.8zm5.7 0h1v2.8h-1v-2.8zm5.6 0h1v2.8h-1v-2.8zm11.4 0h1v2.8h-1v-2.8zm5.7 0h1v2.8h-1v-2.8zm5.6 0h1v2.8h-1v-2.8zm5.7 0h1v2.8h-1v-2.8zm11.3 0h1v2.8h-1v-2.8zm5.7 0h1v2.8h-1v-2.8zm5.7 0h1v2.8h-1v-2.8zm5.6 0h1v2.8h-1v-2.8zm11.4 0h1v2.8h-1v-2.8zm5.7 0h1v2.8h-1v-2.8zm5.6 0h1v2.8h-1v-2.8zm5.7 0h1v2.8h-1v-2.8zm11.3 0h1v2.8h-1v-2.8zm5.7 0h1v2.8h-1v-2.8zm5.7 0h1v2.8h-1v-2.8zm5.6 0h1v2.8h-1v-2.8zm11.4 0h1v2.8h-1v-2.8zm5.6 0h1v2.8h-1v-2.8zm5.7 0h1v2.8h-1v-2.8zm5.7 0h1v2.8h-1v-2.8zm11.3 0h1v2.8h-1v-2.8zm5.7 0h1v2.8h-1v-2.8zm5.7 0h1v2.8h-1v-2.8zm5.6 0h1v2.8h-1v-2.8zm11.4 0h1v2.8h-1v-2.8zm5.6 0h1v2.8h-1v-2.8zm5.7 0h1v2.8h-1v-2.8zm5.7 0h1v2.8h-1v-2.8zm11.3 0h1v2.8h-1v-2.8zm5.7 0h1v2.8h-1v-2.8zm5.7 0h1v2.8h-1v-2.8zm5.6 0h1v2.8h-1v-2.8zm11.4 0h1v2.8h-1v-2.8z"/>
		<path d="m743.5 18.9h2.3l-0.6-2.8h-1.2l-0.5 2.8zm2.2 8.5h-2.3l0.6 2.8h1.1l0.6-2.8zm-144-8.5h2.3l-0.6-2.8h-1.1l-0.6 2.8zm2.3 8.5h-2.3l0.6 2.8h1.1l0.6-2.8zm-144-8.5h2.3l-0.6-2.8h-1.1l-0.6 2.8zm2.3 8.5h-2.3l0.6 2.8h1.1l0.6-2.8zm-144-8.5h2.3l-0.6-2.8h-1.1l-0.6 2.8zm2.2 8.5h-2.3l0.6 2.8h1.1l0.6-2.8zm-144-8.5h2.3l-0.6-2.8h-1.1l-0.6 2.8zm2.3 8.5h-2.3l0.6 2.8h1.1l0.6-2.8zm-144-8.5h2.3l-0.6-2.8h-1.1l-0.6 2.8zm2.3 8.5h-2.3l0.6 2.8h1.1l0.6-2.8z"/>
		<path d="m743.5 24.6v-2.8h2.3v2.8h-2.3zm58.9 0v-2.8h-2.3v2.8h2.3zm-28.3 0v-2.8h-2.3v2.8h2.3zm-172.4 0v-2.8h2.3v2.8h-2.3zm115.7 0v-2.8h-2.3v2.8h2.3zm-28.4 0v-2.8h-2.3v2.8h2.3zm-28.3 0v-2.8h-2.3v2.8h2.3zm-28.4 0v-2.8h-2.3v2.8h2.3zm-172.3 0v-2.8h2.3v2.8h-2.3zm115.7 0v-2.8h-2.3v2.8h2.3zm-28.4 0v-2.8h-2.3v2.8h2.3zm-28.3 0v-2.8h-2.3v2.8h2.3zm-200.7 0v-2.8h2.3v2.8h-2.3zm115.6 0v-2.8h-2.3v2.8h2.3zm-28.3 0v-2.8h-2.3v2.8h2.3zm-28.4 0v-2.8h-2.2v2.8h2.2zm-28.3 0v-2.8h-2.3v2.8h2.3zm-172.4 0v-2.8h2.3v2.8h-2.3zm115.7 0v-2.8h-2.3v2.8h2.3zm-28.4 0v-2.8h-2.3v2.8h2.3zm-28.3 0v-2.8h-2.3v2.8h2.3zm-28.4 0v-2.8h-2.3v2.8h2.3zm-172.3 0v-2.8h2.3v2.8h-2.3zm115.7 0v-2.8h-2.3v2.8h2.3zm-28.4 0v-2.8h-2.3v2.8h2.3zm-28.3 0v-2.8h-2.3v2.8h2.3zm-28.4 0v-2.8h-2.3v2.8h2.3zm425.2 0v-2.8h-2.3v2.8h2.3z"/>
</g>
</svg>
