<?xml version="1.0" encoding="UTF-8"?>
<svg baseProfile="basic" version="1.1" viewBox="0 0 20 574" xml:space="preserve" xmlns="http://www.w3.org/2000/svg">
<g fill="#CBCBCA">
	<path d="m1 15c0.2-2 1.3-3.8 3.1-4.8l14.9-8.5v1.8l-15 8.5c-1.3 0.7-2.3 1.8-3 3zm0 544c0.7 1.2 1.7 2.3 3 3l15 8.5v1.8l-14.9-8.4c-1.8-1-2.9-2.8-3.1-4.9z"/>
	<path d="M20,574v-4.1l-15.5-8.8c-2.1-1.2-3.5-3.5-3.5-6V18.9c0-2.5,1.3-4.7,3.5-6L20,4.1V0L3.6,9.3   C1.4,10.5,0,12.9,0,15.5v543.1c0,2.6,1.4,4.9,3.6,6.2L20,574L20,574z"/>
</g>
</svg>
