<?xml version="1.0" encoding="UTF-8"?>
<svg baseProfile="basic" version="1.1" viewBox="0 0 20 574" xml:space="preserve" xmlns="http://www.w3.org/2000/svg">
<g fill="#CBCBCA">
	<path d="m16 12l-15-8.5v-1.8l14.9 8.4c1.8 1 2.9 2.8 3.1 4.8-0.7-1.1-1.7-2.2-3-2.9zm-0.1 551.9l-14.9 8.4v-1.8l15-8.5c1.3-0.7 2.3-1.7 3-3-0.2 2.1-1.3 3.9-3.1 4.9z"/>
	<path d="m0 574l16.4-9.3c2.2-1.3 3.6-3.6 3.6-6.2v-543c0-2.6-1.4-4.9-3.6-6.2l-16.4-9.3v4.1l15.5 8.8c2.1 1.2 3.5 3.5 3.5 6v536.3c0 2.5-1.3 4.7-3.5 6l-15.5 8.7v4.1z"/>
</g>
</svg>
