<?xml version="1.0" encoding="UTF-8"?>
<svg baseProfile="basic" version="1.1" viewBox="0 0 57 12.7" xml:space="preserve" xmlns="http://www.w3.org/2000/svg">
<path d="m46.5 6.4l-6.4 6.4h-2.1l6.4-6.4-6.3-6.4h2.1l6.3 6.4zm5.3 0l-6.4-6.4h-2.1l6.4 6.4-6.4 6.4h2.1l6.4-6.4zm5.2 0l-6.3-6.4h-2.1l6.4 6.4-6.4 6.4h2.1l6.3-6.4zm-15.7 0l-6.4-6.4h-2.1l6.4 6.4-6.4 6.4h2.1l6.4-6.4zm-20.9 0l-6.4-6.4h-2.1l6.4 6.4-6.4 6.4h2.1l6.4-6.4zm-15.8 0l-4.6-4.7v2.1l2.5 2.5-2.5 2.6v2.1l4.6-4.6zm31.5 0l-6.4-6.4h-2.1l6.4 6.4-6.4 6.4h2.1l6.4-6.4zm-5.3 0l-6.3-6.4h-2.1l6.4 6.4-6.4 6.4h2.1l6.3-6.4zm-5.2 0l-6.4-6.4h-2.1l6.4 6.4-6.4 6.4h2.1l6.4-6.4zm-10.5 0l-6.4-6.4h-2.1l6.4 6.4-6.4 6.4h2.1l6.4-6.4zm-5.2 0l-6.4-6.4h-2.1l6.4 6.4-6.4 6.4h2.1l6.4-6.4z" fill="#292C78"/>
</svg>
