<?xml version="1.0" encoding="UTF-8"?>
<svg baseProfile="basic" version="1.1" viewBox="0 0 1336.6 8.5" xml:space="preserve" xmlns="http://www.w3.org/2000/svg">
<g fill="#CBCBCA">
		<path d="M1336.6,8.5h-2V0h2V8.5z M1197.7,8.5h-2V0h2V8.5z M1056,8.5h-2V0h2    V8.5z M914.3,8.5h-2V0h2V8.5z M769.7,8.5h-2V0h2V8.5z M630.8,8.5h-2V0h2V8.5z M489.1,8.5h-2V0h2V8.5z M347.3,8.5h-2V0h2V8.5z     M205.6,8.5h-2V0h2V8.5z"/>
		<path d="m1321.9 6.8h-1v-5.1h1v5.1zm-17 0h-1v-5.1h1v5.1zm-11.3 0h-1v-5.1h1v5.1zm-14.2 0h-1v-5.1h1v5.1zm-14.1 0h-1v-5.1h1v5.1zm-14.2 0h-1v-5.1h1v5.1zm-14.2 0h-1v-5.1h1v5.1zm-14.2 0h-1v-5.1h1v5.1zm-14.1 0h-1v-5.1h1v5.1zm-25.6 0h-1v-5.1h1v5.1zm-17 0h-1v-5.1h1v5.1zm-11.3 0h-1v-5.1h1v5.1zm-14.2 0h-1v-5.1h1v5.1zm-14.1 0h-1v-5.1h1v5.1zm-14.2 0h-1v-5.1h1v5.1zm-14.2 0h-1v-5.1h1v5.1zm-14.2 0h-1v-5.1h1v5.1zm-14.1 0h-1v-5.1h1v5.1zm-28.4 0h-1v-5.1h1v5.1zm-17 0h-1v-5.1h1v5.1zm-11.3 0h-1v-5.1h1v5.1zm-14.2 0h-1v-5.1h1v5.1zm-14.2 0h-1v-5.1h1v5.1zm-14.2 0h-1v-5.1h1v5.1zm-14.1 0h-1v-5.1h1v5.1zm-14.2 0h-1v-5.1h1v5.1zm-14.2 0h-1v-5.1h1v5.1zm-28.3 0h-1v-5.1h1v5.1zm-17 0h-1v-5.1h1v5.1zm-11.4 0h-1v-5.1h1v5.1zm-14.1 0h-1v-5.1h1v5.1zm-14.2 0h-1v-5.1h1v5.1zm-14.2 0h-1v-5.1h1v5.1zm-14.2 0h-1v-5.1h1v5.1zm-14.1 0h-1v-5.1h1v5.1zm-14.2 0h-1v-5.1h1v5.1zm-31.2 0h-1v-5.1h1v5.1zm-17 0h-1v-5.1h1v5.1zm-11.3 0h-1v-5.1h1v5.1zm-14.2 0h-1v-5.1h1v5.1zm-14.2 0h-1v-5.1h1v5.1zm-14.2 0h-1v-5.1h1v5.1zm-14.1 0h-1v-5.1h1v5.1zm-14.2 0h-1v-5.1h1v5.1zm-14.2 0h-1v-5.1h1v5.1zm-25.5 0h-1v-5.1h1v5.1zm-17 0h-1v-5.1h1v5.1zm-11.3 0h-1v-5.1h1v5.1zm-14.2 0h-1v-5.1h1v5.1zm-14.2 0h-1v-5.1h1v5.1zm-14.1 0h-1v-5.1h1v5.1zm-14.2 0h-1v-5.1h1v5.1zm-14.2 0h-1v-5.1h1v5.1zm-14.2 0h-1v-5.1h1v5.1zm-28.3 0h-1v-5.1h1v5.1zm-17 0h-1v-5.1h1v5.1zm-11.4 0h-1v-5.1h1v5.1zm-14.1 0h-1v-5.1h1v5.1zm-14.2 0h-1v-5.1h1v5.1zm-14.2 0h-1v-5.1h1v5.1zm-14.2 0h-1v-5.1h1v5.1zm-14.1 0h-1v-5.1h1v5.1zm-14.2 0h-1v-5.1h1v5.1zm-28.3 0h-1v-5.1h1v5.1zm-17.1 0h-1v-5.1h1v5.1zm-11.3 0h-1v-5.1h1v5.1zm-14.2 0h-1v-5.1h1v5.1zm-14.1 0h-1v-5.1h1v5.1zm-14.2 0h-1v-5.1h1v5.1zm-14.2 0h-1v-5.1h1v5.1zm-14.2 0h-1v-5.1h1v5.1zm-14.1 0h-1v-5.1h1v5.1z"/>
		<path d="m1333.3 5.7h-1v-2.9h1v2.9zm-2.9 0h-1v-2.9h1v2.9zm-2.8 0h-1v-2.9h1v2.9zm-2.8 0h-1v-2.9h1v2.9zm-5.7 0h-1v-2.9h1v2.9zm-2.8 0h-1v-2.9h1v2.9zm-2.9 0h-1v-2.9h1v2.9zm-2.8 0h-1v-2.9h1v2.9zm-2.8 0h-1v-2.9h1v2.9zm-5.7 0h-1v-2.9h1v2.9zm-2.8 0h-1v-2.9h1v2.9zm-2.9 0h-1v-2.9h1v2.9zm-5.6 0h-1v-2.9h1v2.9zm-2.9 0h-1v-2.9h1v2.9zm-2.8 0h-1v-2.9h1v2.9zm-2.8 0h-1v-2.9h1v2.9zm-5.7 0h-1v-2.9h1v2.9zm-2.8 0h-1v-2.9h1v2.9zm-2.9 0h-1v-2.9h1v2.9zm-2.8 0h-1v-2.9h1v2.9zm-5.7 0h-1v-2.9h1v2.9zm-2.8 0h-1v-2.9h1v2.9zm-2.9 0h-1v-2.9h1v2.9zm-2.8 0h-1v-2.9h1v2.9zm-5.7 0h-1v-2.9h1v2.9zm-2.8 0h-1v-2.9h1v2.9zm-2.8 0h-1v-2.9h1v2.9zm-2.9 0h-1v-2.9h1v2.9zm-5.6 0h-1v-2.9h1v2.9zm-2.9 0h-1v-2.9h1v2.9zm-2.8 0h-1v-2.9h1v2.9zm-2.8 0h-1v-2.9h1v2.9zm-5.7 0h-1v-2.9h1v2.9zm-2.8 0h-1v-2.9h1v2.9zm-2.9 0h-1v-2.9h1v2.9zm-2.8 0h-1v-2.9h1v2.9zm-5.7 0h-1v-2.9h1v2.9zm-2.8 0h-1v-2.9h1v2.9zm-2.8 0h-1v-2.9h1v2.9zm-5.7 0h-1v-2.9h1v2.9zm-2.8 0h-1v-2.9h1v2.9zm-2.9 0h-1v-2.9h1v2.9zm-2.8 0h-1v-2.9h1v2.9zm-5.7 0h-1v-2.9h1v2.9zm-2.8 0h-1v-2.9h1v2.9zm-2.9 0h-1v-2.9h1v2.9zm-2.8 0h-1v-2.9h1v2.9zm-2.8 0h-1v-2.9h1v2.9zm-5.7 0h-1v-2.9h1v2.9zm-2.8 0h-1v-2.9h1v2.9zm-2.9 0h-1v-2.9h1v2.9zm-5.6 0h-1v-2.9h1v2.9zm-2.9 0h-1v-2.9h1v2.9zm-2.8 0h-1v-2.9h1v2.9zm-2.8 0h-1v-2.9h1v2.9zm-5.7 0h-1v-2.9h1v2.9zm-2.8 0h-1v-2.9h1v2.9zm-2.9 0h-1v-2.9h1v2.9zm-2.8 0h-1v-2.9h1v2.9zm-5.7 0h-1v-2.9h1v2.9zm-2.8 0h-1v-2.9h1v2.9zm-2.8 0h-1v-2.9h1v2.9zm-2.9 0h-1v-2.9h1v2.9zm-5.7 0h-1v-2.9h1v2.9zm-2.8 0h-1v-2.9h1v2.9zm-2.8 0h-1v-2.9h1v2.9zm-2.9 0h-1v-2.9h1v2.9zm-5.6 0h-1v-2.9h1v2.9zm-2.9 0h-1v-2.9h1v2.9zm-2.8 0h-1v-2.9h1v2.9zm-2.8 0h-1v-2.9h1v2.9zm-5.7 0h-1v-2.9h1v2.9zm-2.8 0h-1v-2.9h1v2.9zm-2.9 0h-1v-2.9h1v2.9zm-2.8 0h-1v-2.9h1v2.9zm-5.7 0h-1v-2.9h1v2.9zm-2.8 0h-1v-2.9h1v2.9zm-2.8 0h-1v-2.9h1v2.9zm-2.9 0h-1v-2.9h1v2.9zm-5.6 0h-1v-2.9h1v2.9zm-2.9 0h-1v-2.9h1v2.9zm-2.8 0h-1v-2.9h1v2.9zm-2.9 0h-1v-2.9h1v2.9zm-5.6 0h-1v-2.9h1v2.9zm-2.9 0h-1v-2.9h1v2.9zm-2.8 0h-1v-2.9h1v2.9zm-2.8 0h-1v-2.9h1v2.9zm-2.9 0h-1v-2.9h1v2.9zm-5.6 0h-1v-2.9h1v2.9zm-2.9 0h-1v-2.9h1v2.9zm-2.8 0h-1v-2.9h1v2.9zm-5.7 0h-1v-2.9h1v2.9zm-2.8 0h-1v-2.9h1v2.9zm-2.8 0h-1v-2.9h1v2.9zm-2.9 0h-1v-2.9h1v2.9zm-5.6 0h-1v-2.9h1v2.9zm-2.9 0h-1v-2.9h1v2.9zm-2.8 0h-1v-2.9h1v2.9zm-2.8 0h-1v-2.9h1v2.9zm-5.7 0h-1v-2.9h1v2.9zm-2.9 0h-1v-2.9h1v2.9zm-2.8 0h-1v-2.9h1v2.9zm-2.8 0h-1v-2.9h1v2.9zm-5.7 0h-1v-2.9h1v2.9zm-2.8 0h-1v-2.9h1v2.9zm-2.9 0h-1v-2.9h1v2.9zm-2.8 0h-1v-2.9h1v2.9zm-5.7 0h-1v-2.9h1v2.9zm-2.8 0h-1v-2.9h1v2.9zm-2.8 0h-1v-2.9h1v2.9zm-2.9 0h-1v-2.9h1v2.9zm-5.6 0h-1v-2.9h1v2.9zm-2.9 0h-1v-2.9h1v2.9zm-2.8 0h-1v-2.9h1v2.9zm-2.8 0h-1v-2.9h1v2.9zm-5.7 0h-1v-2.9h1v2.9zm-2.8 0h-1v-2.9h1v2.9zm-2.9 0h-1v-2.9h1v2.9zm-2.8 0h-1v-2.9h1v2.9zm-5.7 0h-1v-2.9h1v2.9zm-2.8 0h-1v-2.9h1v2.9zm-2.9 0h-1v-2.9h1v2.9zm-2.8 0h-1v-2.9h1v2.9zm-5.7 0h-1v-2.9h1v2.9zm-2.8 0h-1v-2.9h1v2.9zm-2.8 0h-1v-2.9h1v2.9zm-2.9 0h-1v-2.9h1v2.9zm-2.8 0h-1v-2.9h1v2.9zm-5.7 0h-1v-2.9h1v2.9zm-2.8 0h-1v-2.9h1v2.9zm-2.8 0h-1v-2.9h1v2.9zm-5.7 0h-1v-2.9h1v2.9zm-2.8 0h-1v-2.9h1v2.9zm-2.9 0h-1v-2.9h1v2.9zm-2.8 0h-1v-2.9h1v2.9zm-5.7 0h-1v-2.9h1v2.9zm-2.8 0h-1v-2.9h1v2.9zm-2.8 0h-1v-2.9h1v2.9zm-2.9 0h-1v-2.9h1v2.9zm-5.6 0h-1v-2.9h1v2.9zm-2.9 0h-1v-2.9h1v2.9zm-2.8 0h-1v-2.9h1v2.9zm-2.9 0h-1v-2.9h1v2.9zm-5.6 0h-1v-2.9h1v2.9zm-2.9 0h-1v-2.9h1v2.9zm-2.8 0h-1v-2.9h1v2.9zm-2.8 0h-1v-2.9h1v2.9zm-5.7 0h-1v-2.9h1v2.9zm-2.8 0h-1v-2.9h1v2.9zm-2.9 0h-1v-2.9h1v2.9zm-2.8 0h-1v-2.9h1v2.9zm-5.7 0h-1v-2.9h1v2.9zm-2.8 0h-1v-2.9h1v2.9zm-2.8 0h-1v-2.9h1v2.9zm-2.9 0h-1v-2.9h1v2.9zm-5.6 0h-1v-2.9h1v2.9zm-2.9 0h-1v-2.9h1v2.9zm-2.8 0h-1v-2.9h1v2.9zm-2.8 0h-1v-2.9h1v2.9zm-8.5 0h-1v-2.9h1v2.9zm-2.9 0h-1v-2.9h1v2.9zm-2.8 0h-1v-2.9h1v2.9zm-2.9 0h-1v-2.9h1v2.9zm-5.6 0h-1v-2.9h1v2.9zm-2.9 0h-1v-2.9h1v2.9zm-2.8 0h-1v-2.9h1v2.9zm-2.8 0h-1v-2.9h1v2.9zm-2.9 0h-1v-2.9h1v2.9zm-5.6 0h-1v-2.9h1v2.9zm-2.9 0h-1v-2.9h1v2.9zm-2.8 0h-1v-2.9h1v2.9zm-5.7 0h-1v-2.9h1v2.9zm-2.8 0h-1v-2.9h1v2.9zm-2.8 0h-1v-2.9h1v2.9zm-2.9 0h-1v-2.9h1v2.9zm-5.6 0h-1v-2.9h1v2.9zm-2.9 0h-1v-2.9h1v2.9zm-2.8 0h-1v-2.9h1v2.9zm-2.8 0h-1v-2.9h1v2.9zm-5.7 0h-1v-2.9h1v2.9zm-2.8 0h-1v-2.9h1v2.9zm-2.9 0h-1v-2.9h1v2.9zm-2.8 0h-1v-2.9h1v2.9zm-5.7 0h-1v-2.9h1v2.9zm-2.8 0h-1v-2.9h1v2.9zm-2.9 0h-1v-2.9h1v2.9zm-2.8 0h-1v-2.9h1v2.9zm-5.7 0h-1v-2.9h1v2.9zm-2.8 0h-1v-2.9h1v2.9zm-2.8 0h-1v-2.9h1v2.9zm-2.9 0h-1v-2.9h1v2.9zm-5.6 0h-1v-2.9h1v2.9zm-2.9 0h-1v-2.9h1v2.9zm-2.8 0h-1v-2.9h1v2.9zm-2.8 0h-1v-2.9h1v2.9zm-5.7 0h-1v-2.9h1v2.9zm-2.8 0h-1v-2.9h1v2.9zm-2.9 0h-1v-2.9h1v2.9zm-5.6 0h-1v-2.9h1v2.9zm-2.9 0h-1v-2.9h1v2.9zm-2.8 0h-1v-2.9h1v2.9zm-2.8 0h-1v-2.9h1v2.9zm-5.7 0h-1v-2.9h1v2.9zm-2.9 0h-1v-2.9h1v2.9zm-2.8 0h-1v-2.9h1v2.9zm-2.8 0h-1v-2.9h1v2.9zm-2.9 0h-1v-2.9h1v2.9zm-5.6 0h-1v-2.9h1v2.9zm-2.9 0h-1v-2.9h1v2.9zm-2.8 0h-1v-2.9h1v2.9zm-5.7 0h-1v-2.9h1v2.9zm-2.8 0h-1v-2.9h1v2.9zm-2.8 0h-1v-2.9h1v2.9zm-2.9 0h-1v-2.9h1v2.9zm-5.6 0h-1v-2.9h1v2.9zm-2.9 0h-1v-2.9h1v2.9zm-2.8 0h-1v-2.9h1v2.9zm-2.8 0h-1v-2.9h1v2.9zm-5.7 0h-1v-2.9h1v2.9zm-2.8 0h-1v-2.9h1v2.9zm-2.9 0h-1v-2.9h1v2.9zm-2.8 0h-1v-2.9h1v2.9zm-5.7 0h-1v-2.9h1v2.9zm-2.8 0h-1v-2.9h1v2.9zm-2.9 0h-1v-2.9h1v2.9zm-2.8 0h-1v-2.9h1v2.9zm-5.7 0h-1v-2.9h1v2.9zm-2.8 0h-1v-2.9h1v2.9zm-2.8 0h-1v-2.9h1v2.9zm-2.9 0h-1v-2.9h1v2.9zm-5.6 0h-1v-2.9h1v2.9zm-2.9 0h-1v-2.9h1v2.9zm-2.8 0h-1v-2.9h1v2.9zm-2.8 0h-1v-2.9h1v2.9zm-5.7 0h-1v-2.9h1v2.9zm-2.8 0h-1v-2.9h1v2.9zm-2.9 0h-1v-2.9h1v2.9zm-2.8 0h-1v-2.9h1v2.9zm-5.7 0h-1v-2.9h1v2.9zm-2.8 0h-1v-2.9h1v2.9zm-2.8 0h-1v-2.9h1v2.9zm-2.9 0h-1v-2.9h1v2.9zm-5.7 0h-1v-2.9h1v2.9zm-2.8 0h-1v-2.9h1v2.9zm-2.8 0h-1v-2.9h1v2.9zm-2.9 0h-1v-2.9h1v2.9zm-2.8 0h-1v-2.9h1v2.9zm-5.7 0h-1v-2.9h1v2.9zm-2.8 0h-1v-2.9h1v2.9zm-2.8 0h-1v-2.9h1v2.9zm-5.7 0h-1v-2.9h1v2.9zm-2.8 0h-1v-2.9h1v2.9zm-2.9 0h-1v-2.9h1v2.9zm-2.8 0h-1v-2.9h1v2.9zm-5.7 0h-1v-2.9h1v2.9zm-2.8 0h-1v-2.9h1v2.9zm-2.8 0h-1v-2.9h1v2.9zm-2.9 0h-1v-2.9h1v2.9zm-5.6 0h-1v-2.9h1v2.9zm-2.9 0h-1v-2.9h1v2.9zm-2.8 0h-1v-2.9h1v2.9zm-2.8 0h-1v-2.9h1v2.9zm-5.7 0h-1v-2.9h1v2.9zm-2.9 0h-1v-2.9h1v2.9zm-2.8 0h-1v-2.9h1v2.9zm-2.8 0h-1v-2.9h1v2.9zm-5.7 0h-1v-2.9h1v2.9zm-2.8 0h-1v-2.9h1v2.9zm-2.9 0h-1v-2.9h1v2.9zm-2.8 0h-1v-2.9h1v2.9zm-5.7 0h-1v-2.9h1v2.9zm-2.8 0h-1v-2.9h1v2.9zm-2.8 0h-1v-2.9h1v2.9zm-2.9 0h-1v-2.9h1v2.9zm-5.6 0h-1v-2.9h1v2.9zm-2.9 0h-1v-2.9h1v2.9zm-2.8 0h-1v-2.9h1v2.9zm-2.8 0h-1v-2.9h1v2.9zm-5.7 0h-1v-2.9h1v2.9zm-2.8 0h-1v-2.9h1v2.9zm-2.9 0h-1v-2.9h1v2.9zm-2.8 0h-1v-2.9h1v2.9zm-5.7 0h-1v-2.9h1v2.9zm-2.8 0h-1v-2.9h1v2.9zm-2.9 0h-1v-2.9h1v2.9zm-2.8 0h-1v-2.9h1v2.9zm-2.8 0h-1v-2.9h1v2.9zm-5.7 0h-1v-2.9h1v2.9zm-2.8 0h-1v-2.9h1v2.9zm-2.9 0h-1v-2.9h1v2.9zm-5.6 0h-1v-2.9h1v2.9zm-2.9 0h-1v-2.9h1v2.9zm-2.8 0h-1v-2.9h1v2.9zm-2.8 0h-1v-2.9h1v2.9zm-5.7 0h-1v-2.9h1v2.9zm-2.8 0h-1v-2.9h1v2.9zm-2.9 0h-1v-2.9h1v2.9zm-2.8 0h-1v-2.9h1v2.9zm-5.7 0h-1v-2.9h1v2.9zm-2.8 0h-1v-2.9h1v2.9zm-2.8 0h-1v-2.9h1v2.9zm-2.9 0h-1v-2.9h1v2.9zm-5.7 0h-1v-2.9h1v2.9zm-2.8 0h-1v-2.9h1v2.9zm-2.8 0h-1v-2.9h1v2.9zm-2.9 0h-1v-2.9h1v2.9zm-5.6 0h-1v-2.9h1v2.9zm-2.9 0h-1v-2.9h1v2.9zm-2.8 0h-1v-2.9h1v2.9zm-2.8 0h-1v-2.9h1v2.9zm-5.7 0h-1v-2.9h1v2.9zm-2.8 0h-1v-2.9h1v2.9zm-2.9 0h-1v-2.9h1v2.9zm-2.8 0h-1v-2.9h1v2.9zm-5.7 0h-1v-2.9h1v2.9zm-2.8 0h-1v-2.9h1v2.9zm-2.8 0h-1v-2.9h1v2.9zm-2.9 0h-1v-2.9h1v2.9z"/>
		<path d="M205.6,8.5h-2V0h2V8.5z M66.7,8.5h-2V0h2V8.5z"/>
		<path d="m190.9 6.8h-1v-5.1h1v5.1zm-17 0h-1v-5.1h1v5.1zm-11.3 0h-1v-5.1h1v5.1zm-14.2 0h-1v-5.1h1v5.1zm-14.2 0h-1v-5.1h1v5.1zm-14.1 0h-1v-5.1h1v5.1zm-14.2 0h-1v-5.1h1v5.1zm-14.2 0h-1v-5.1h1v5.1zm-14.2 0h-1v-5.1h1v5.1zm-25.5 0h-1v-5.1h1v5.1zm-17 0h-1v-5.1h1v5.1zm-11.3 0h-1v-5.1h1v5.1zm-14.2 0h-1v-5.1h1v5.1z"/>
		<path d="m202.3 5.7h-1v-2.9h1v2.9zm-2.9 0h-1v-2.9h1v2.9zm-2.8 0h-1v-2.9h1v2.9zm-2.8 0h-1v-2.9h1v2.9zm-5.7 0h-1v-2.9h1v2.9zm-2.9 0h-1v-2.9h1v2.9zm-2.8 0h-1v-2.9h1v2.9zm-2.8 0h-1v-2.9h1v2.9zm-2.9 0h-1v-2.9h1v2.9zm-5.6 0h-1v-2.9h1v2.9zm-2.9 0h-1v-2.9h1v2.9zm-2.8 0h-1v-2.9h1v2.9zm-5.7 0h-1v-2.9h1v2.9zm-2.8 0h-1v-2.9h1v2.9zm-2.8 0h-1v-2.9h1v2.9zm-2.9 0h-1v-2.9h1v2.9zm-5.6 0h-1v-2.9h1v2.9zm-2.9 0h-1v-2.9h1v2.9zm-2.8 0h-1v-2.9h1v2.9zm-2.8 0h-1v-2.9h1v2.9zm-5.7 0h-1v-2.9h1v2.9zm-2.8 0h-1v-2.9h1v2.9zm-2.9 0h-1v-2.9h1v2.9zm-2.8 0h-1v-2.9h1v2.9zm-5.7 0h-1v-2.9h1v2.9zm-2.8 0h-1v-2.9h1v2.9zm-2.9 0h-1v-2.9h1v2.9zm-2.8 0h-1v-2.9h1v2.9zm-5.7 0h-1v-2.9h1v2.9zm-2.8 0h-1v-2.9h1v2.9zm-2.8 0h-1v-2.9h1v2.9zm-2.9 0h-1v-2.9h1v2.9zm-5.6 0h-1v-2.9h1v2.9zm-2.9 0h-1v-2.9h1v2.9zm-2.8 0h-1v-2.9h1v2.9zm-2.8 0h-1v-2.9h1v2.9zm-5.7 0h-1v-2.9h1v2.9zm-2.8 0h-1v-2.9h1v2.9zm-2.9 0h-1v-2.9h1v2.9zm-5.6 0h-1v-2.9h1v2.9zm-2.9 0h-1v-2.9h1v2.9zm-2.8 0h-1v-2.9h1v2.9zm-2.8 0h-1v-2.9h1v2.9zm-5.7 0h-1v-2.9h1v2.9zm-2.8 0h-1v-2.9h1v2.9zm-2.9 0h-1v-2.9h1v2.9zm-2.8 0h-1v-2.9h1v2.9zm-2.9 0h-1v-2.9h1v2.9zm-5.6 0h-1v-2.9h1v2.9zm-2.9 0h-1v-2.9h1v2.9zm-2.8 0h-1v-2.9h1v2.9zm-5.7 0h-1v-2.9h1v2.9zm-2.8 0h-1v-2.9h1v2.9zm-2.8 0h-1v-2.9h1v2.9zm-2.9 0h-1v-2.9h1v2.9zm-5.6 0h-1v-2.9h1v2.9zm-2.9 0h-1v-2.9h1v2.9zm-2.8 0h-1v-2.9h1v2.9z"/>
</g>
</svg>
