<?xml version="1.0" encoding="UTF-8"?>
<svg baseProfile="basic" version="1.1" viewBox="0 0 800 28.4" xml:space="preserve" xmlns="http://www.w3.org/2000/svg">
<g fill="#292B77">
	<polygon points="782.9 4.6 20.5 4.6 19.3 3.4 3.4 3.4 2.3 2.3 2.3 1.1 1.1 0 1.1 0 0 0 0 8 1.1 8 3.4 5.7 798.8 5.7 800 4.6 800 3.4 784 3.4"/>
		<path d="m234.9 22.7v-11.3h1v11.3h-1zm2.8 0v-11.3h1v11.3h-1zm2.8 0v-11.3h1v11.3h-1zm2.9 0v-11.3h1v11.3h-1zm2.8 0v-11.3h1v11.3h-1zm2.9 0v-11.3h1v11.3h-1zm2.8 0v-11.3h1v11.3h-1zm2.8 0v-11.3h1v11.3h-1zm2.9 0v-11.3h1v11.3h-1zm5.6 0v-11.3h1v11.3h-1zm2.9 0v-11.3h1v11.3h-1zm2.8 0v-11.3h1v11.3h-1zm2.8 0v-11.3h1v11.3h-1zm2.9 0v-11.3h1v11.3h-1zm2.8 0v-11.3h1v11.3h-1zm2.8 0v-11.3h1v11.3h-1zm2.9 0v-11.3h1v11.3h-1zm2.8 0v-11.3h1v11.3h-1zm5.7 0v-11.3h1v11.3h-1zm2.8 0v-11.3h1v11.3h-1zm2.8 0v-11.3h1v11.3h-1zm2.9 0v-11.3h1v11.3h-1zm2.8 0v-11.3h1v11.3h-1zm2.8 0v-11.3h1v11.3h-1zm2.9 0v-11.3h1v11.3h-1zm2.8 0v-11.3h1v11.3h-1zm2.8 0v-11.3h1v11.3h-1zm5.7 0v-11.3h1v11.3h-1zm2.9 0v-11.3h1v11.3h-1zm2.8 0v-11.3h1v11.3h-1zm2.8 0v-11.3h1v11.3h-1zm2.9 0v-11.3h1v11.3h-1zm2.8 0v-11.3h1v11.3h-1zm2.8 0v-11.3h1v11.3h-1zm2.9 0v-11.3h1v11.3h-1zm2.8 0v-11.3h1v11.3h-1zm5.7 0v-11.3h1v11.3h-1zm2.8 0v-11.3h1v11.3h-1zm2.8 0v-11.3h1v11.3h-1zm2.9 0v-11.3h1v11.3h-1zm2.8 0v-11.3h1v11.3h-1zm2.8 0v-11.3h1v11.3h-1zm2.9 0v-11.3h1v11.3h-1zm2.8 0v-11.3h1v11.3h-1zm2.8 0v-11.3h1v11.3h-1zm5.7 0v-11.3h1v11.3h-1zm2.8 0v-11.3h1v11.3h-1zm2.9 0v-11.3h1v11.3h-1zm2.8 0v-11.3h1v11.3h-1zm2.9 0v-11.3h1v11.3h-1zm2.8 0v-11.3h1v11.3h-1zm2.8 0v-11.3h1v11.3h-1zm2.9 0v-11.3h1v11.3h-1zm2.8 0v-11.3h1v11.3h-1zm5.7 0v-11.3h1v11.3h-1zm2.8 0v-11.3h1v11.3h-1zm2.8 0v-11.3h1v11.3h-1zm2.9 0v-11.3h1v11.3h-1zm2.8 0v-11.3h1v11.3h-1zm2.8 0v-11.3h1v11.3h-1zm2.9 0v-11.3h1v11.3h-1zm2.8 0v-11.3h1v11.3h-1zm2.8 0v-11.3h1v11.3h-1zm5.7 0v-11.3h1v11.3h-1zm2.8 0v-11.3h1v11.3h-1zm2.9 0v-11.3h1v11.3h-1zm2.8 0v-11.3h1v11.3h-1zm2.8 0v-11.3h1v11.3h-1zm2.9 0v-11.3h1v11.3h-1zm2.8 0v-11.3h1v11.3h-1zm2.8 0v-11.3h1v11.3h-1zm2.9 0v-11.3h1v11.3h-1zm5.7 0v-11.3h1v11.3h-1zm2.8 0v-11.3h1v11.3h-1zm2.8 0v-11.3h1v11.3h-1zm2.9 0v-11.3h1v11.3h-1zm2.8 0v-11.3h1v11.3h-1zm2.8 0v-11.3h1v11.3h-1zm2.9 0v-11.3h1v11.3h-1zm2.8 0v-11.3h1v11.3h-1zm2.8 0v-11.3h1v11.3h-1zm5.7 0v-11.3h1v11.3h-1zm2.8 0v-11.3h1v11.3h-1zm2.9 0v-11.3h1v11.3h-1zm2.8 0v-11.3h1v11.3h-1zm2.8 0v-11.3h1v11.3h-1zm2.9 0v-11.3h1v11.3h-1zm2.8 0v-11.3h1v11.3h-1zm2.8 0v-11.3h1v11.3h-1zm2.9 0v-11.3h1v11.3h-1zm5.6 0v-11.3h1v11.3h-1zm2.9 0v-11.3h1v11.3h-1zm2.8 0v-11.3h1v11.3h-1zm2.8 0v-11.3h1v11.3h-1zm2.9 0v-11.3h1v11.3h-1zm2.8 0v-11.3h1v11.3h-1zm2.9 0v-11.3h1v11.3h-1zm2.8 0v-11.3h1v11.3h-1zm2.8 0v-11.3h1v11.3h-1zm5.7 0v-11.3h1v11.3h-1zm2.8 0v-11.3h1v11.3h-1zm2.9 0v-11.3h1v11.3h-1zm2.8 0v-11.3h1v11.3h-1zm2.8 0v-11.3h1v11.3h-1zm2.9 0v-11.3h1v11.3h-1zm2.8 0v-11.3h1v11.3h-1zm2.8 0v-11.3h1v11.3h-1zm2.9 0v-11.3h1v11.3h-1zm5.6 0v-11.3h1v11.3h-1zm2.9 0v-11.3h1v11.3h-1zm2.8 0v-11.3h1v11.3h-1zm2.8 0v-11.3h1v11.3h-1zm2.9 0v-11.3h1v11.3h-1zm2.8 0v-11.3h1v11.3h-1zm2.8 0v-11.3h1v11.3h-1zm2.9 0v-11.3h1v11.3h-1zm2.8 0v-11.3h1v11.3h-1zm5.7 0v-11.3h1v11.3h-1zm2.8 0v-11.3h1v11.3h-1zm2.9 0v-11.3h1v11.3h-1zm2.8 0v-11.3h1v11.3h-1zm2.8 0v-11.3h1v11.3h-1zm2.9 0v-11.3h1v11.3h-1zm2.8 0v-11.3h1v11.3h-1zm2.8 0v-11.3h1v11.3h-1zm2.9 0v-11.3h1v11.3h-1zm5.6 0v-11.3h1v11.3h-1zm2.9 0v-11.3h1v11.3h-1zm2.8 0v-11.3h1v11.3h-1zm2.8 0v-11.3h1v11.3h-1zm2.9 0v-11.3h1v11.3h-1zm2.8 0v-11.3h1v11.3h-1zm2.8 0v-11.3h1v11.3h-1zm2.9 0v-11.3h1v11.3h-1zm2.8 0v-11.3h1v11.3h-1zm5.7 0v-11.3h1v11.3h-1zm2.8 0v-11.3h1v11.3h-1zm2.8 0v-11.3h1v11.3h-1zm2.9 0v-11.3h1v11.3h-1zm2.8 0v-11.3h1v11.3h-1zm2.8 0v-11.3h1v11.3h-1zm2.9 0v-11.3h1v11.3h-1zm2.8 0v-11.3h1v11.3h-1zm2.9 0v-11.3h1v11.3h-1zm5.6 0v-11.3h1v11.3h-1zm2.9 0v-11.3h1v11.3h-1zm2.8 0v-11.3h1v11.3h-1zm2.8 0v-11.3h1v11.3h-1zm2.9 0v-11.3h1v11.3h-1zm2.8 0v-11.3h1v11.3h-1zm2.8 0v-11.3h1v11.3h-1zm2.9 0v-11.3h1v11.3h-1zm2.8 0v-11.3h1v11.3h-1zm5.7 0v-11.3h1v11.3h-1zm2.8 0v-11.3h1v11.3h-1zm2.8 0v-11.3h1v11.3h-1zm2.9 0v-11.3h1v11.3h-1zm2.8 0v-11.3h1v11.3h-1zm2.8 0v-11.3h1v11.3h-1zm2.9 0v-11.3h1v11.3h-1zm2.8 0v-11.3h1v11.3h-1zm2.8 0v-11.3h1v11.3h-1zm5.7 0v-11.3h1v11.3h-1zm2.9 0v-11.3h1v11.3h-1zm2.8 0v-11.3h1v11.3h-1zm2.8 0v-11.3h1v11.3h-1zm2.9 0v-11.3h1v11.3h-1zm2.8 0v-11.3h1v11.3h-1zm2.8 0v-11.3h1v11.3h-1zm2.9 0v-11.3h1v11.3h-1zm2.8 0v-11.3h1v11.3h-1zm5.7 0v-11.3h1v11.3h-1zm2.8 0v-11.3h1v11.3h-1zm2.8 0v-11.3h1v11.3h-1zm2.9 0v-11.3h1v11.3h-1zm2.8 0v-11.3h1v11.3h-1zm2.8 0v-11.3h1v11.3h-1zm2.9 0v-11.3h1v11.3h-1zm2.8 0v-11.3h1v11.3h-1zm2.8 0v-11.3h1v11.3h-1z"/>
		<path d="m232 28.4v-11.3h1v11.3h-1zm28.4 0v-11.3h1v11.3h-1zm28.3 0v-11.3h1v11.3h-1zm28.4 0v-11.3h1v11.3h-1zm28.3 0v-11.3h1v11.3h-1zm28.4 0v-11.3h1v11.3h-1zm28.3 0v-11.3h1v11.3h-1zm28.4 0v-11.3h1v11.3h-1zm28.3 0v-11.3h1v11.3h-1zm28.4 0v-11.3h1v11.3h-1zm28.3 0v-11.3h1v11.3h-1zm28.4 0v-11.3h1v11.3h-1zm28.3 0v-11.3h1v11.3h-1zm28.3 0v-11.3h1v11.3h-1zm28.4 0v-11.3h1v11.3h-1zm28.3 0v-11.3h1v11.3h-1zm28.4 0v-11.3h1v11.3h-1zm28.3 0v-11.3h1v11.3h-1zm28.4 0v-11.3h1v11.3h-1zm28.3 0v-11.3h1v11.3h-1zm28.4 0v-11.3h1v11.3h-1z"/>
</g>
</svg>
