<?xml version="1.0" encoding="UTF-8"?>
<svg baseProfile="basic" version="1.1" viewBox="0 0 601.3 112" xml:space="preserve" xmlns="http://www.w3.org/2000/svg">
		<g fill="#fff">
			<path d="m1.8 94.5c0-3.2 2.6-5.8 5.8-5.8h11.7c3.2 0 5.8 2.6 5.8 5.8v17.5h-3.8v-9.8h-15.7v9.8h-3.8v-17.5zm19.5 3.9v-3.9c0-1.1-0.9-2-2-2h-11.7c-1.1 0-2 0.9-2 2v3.9h15.7z"/>
			<path d="m47.4 88.7c3.2 0 5.8 2.6 5.8 5.8v1.9c0 1.6-0.8 3.1-1.9 3.9 1.1 0.9 1.9 2.3 1.9 3.9v7.7h-3.8v-7.7c0-1.1-0.9-2-2-2h-13.8v9.8h-3.8v-23.3h17.6zm-13.8 3.8v6h13.7c1.1 0 2-0.9 2-2v-1.9c0-1.1-0.9-2-2-2h-13.7z"/>
			<path d="m63.7 92.5c-1.1 0-2 0.9-2 2v3.9h14.9v3.8h-14.9v3.9c0 1.1 0.9 2 2 2h17.5v3.8h-17.5c-3.2 0-5.8-2.6-5.8-5.8v-11.6c0-3.2 2.6-5.8 5.8-5.8h17.5v3.8h-17.5z"/>
			<path d="m103.8 96.4c0 1.1 0.9 2 2 2h11.7c1.1 0 2-0.9 2-2v-7.7h3.8v7.7c0 3.2-2.6 5.8-5.8 5.8h-3.9v9.8h-3.8v-9.8h-3.9c-3.2 0-5.8-2.6-5.8-5.8v-7.7h3.8v7.7z"/>
			<path d="m151.4 106.2c0 3.2-2.6 5.8-5.8 5.8h-11.7c-3.2 0-5.8-2.6-5.8-5.8v-11.7c0-3.2 2.6-5.8 5.8-5.8h11.7c3.2 0 5.8 2.6 5.8 5.8v11.7zm-5.8 2c1.1 0 2-0.9 2-2v-11.7c0-1.1-0.9-2-2-2h-11.7c-1.1 0-2 0.9-2 2v11.7c0 1.1 0.9 2 2 2h11.7z"/>
			<path d="m159.9 106.2c0 1.1 0.9 2 2 2h11.7c1.1 0 2-0.9 2-2v-17.5h3.8v17.5c0 3.2-2.6 5.8-5.8 5.8h-11.7c-3.2 0-5.8-2.6-5.8-5.8v-17.5h3.8v17.5z"/>
			<path d="M202,88.7v9.8h15.8v-9.8h3.8V112h-3.8v-9.8H202v9.8h-3.8V88.7H202z"/>
			<path d="m230 106.2c0 1.1 0.9 2 2 2h11.7c1.1 0 2-0.9 2-2v-17.5h3.8v17.5c0 3.2-2.6 5.8-5.8 5.8h-11.7c-3.2 0-5.8-2.6-5.8-5.8v-17.5h3.8v17.5z"/>
			<path d="M254.3,88.7h3.8l7.9,12.1l7.9-12.1h3.8V112h-3.8V96.2l-6.1,8.9h-3.6l-6.1-8.9V112h-3.8V88.7z"/>
			<path d="m282.3 102.9c0-1.2 0.4-2.4 1.1-3.4l5.8-8.4c1.1-1.6 3-2.5 4.8-2.5s3.7 0.9 4.8 2.5l5.8 8.4c0.7 0.9 1.1 2.1 1.1 3.4v9.2h-3.8v-5.6h-15.8v5.6h-3.8v-9.2zm10-9.5l-5.8 8.3c-0.2 0.3-0.3 0.7-0.4 1h15.8c0-0.3-0.1-0.7-0.4-1l-5.8-8.3c-0.3-0.4-0.9-0.9-1.7-0.9s-1.4 0.5-1.7 0.9z"/>
			<path d="m328.8 112c-2.5 0-4.5-1.5-5.3-3.6l-6.3-14.9c-0.3-0.6-1-1.1-1.8-1.1h-1.2v19.6h-3.8v-23.3h5c2.5 0 4.6 1.6 5.4 3.7l6.2 14.7c0.3 0.6 0.9 1.1 1.8 1.1h1.2v-19.5h3.8v23.3h-5z"/>
			<path d="m348.2 103.9c0-3 2.4-5.4 5.4-5.4h2.3c1.1 0 2-0.9 2-2v-1.9c0-1.1-0.9-2-2-2h-11.7c-1.1 0-2 0.9-2 2v1.2h-3.8v-1.2c0-3.2 2.6-5.8 5.8-5.8h11.8c3.2 0 5.8 2.6 5.8 5.8v1.9c0 3.2-2.6 5.8-5.8 5.8h-2.3c-0.9 0-1.6 0.7-1.6 1.6v1.6h-3.8v-1.6zm3.8 3.9v4.2h-3.8v-4.2h3.8z"/>
			<path d="m380.5 88.7h17.5c3.2 0 5.8 2.6 5.8 5.8v1.9c0 3.2-2.6 5.8-5.8 5.8h-13.7v9.8h-3.8v-23.3zm17.6 9.7c1.1 0 2-0.9 2-2v-1.9c0-1.1-0.9-2-2-2h-13.7v6h13.7z"/>
			<path d="m426.1 88.7c3.2 0 5.8 2.6 5.8 5.8v1.9c0 1.6-0.8 3.1-1.9 3.9 1.1 0.9 1.9 2.3 1.9 3.9v7.7h-3.8v-7.7c0-1.1-0.9-2-2-2h-13.7v9.8h-3.8v-23.3h17.5zm-13.7 3.8v6h13.7c1.1 0 2-0.9 2-2v-1.9c0-1.1-0.9-2-2-2h-13.7z"/>
			<path d="m460 106.2c0 3.2-2.6 5.8-5.8 5.8h-11.7c-3.2 0-5.8-2.6-5.8-5.8v-11.7c0-3.2 2.6-5.8 5.8-5.8h11.7c3.2 0 5.8 2.6 5.8 5.8v11.7zm-5.8 2c1.1 0 2-0.9 2-2v-11.7c0-1.1-0.9-2-2-2h-11.7c-1.1 0-2 0.9-2 2v11.7c0 1.1 0.9 2 2 2h11.7z"/>
			<path d="m464.7 88.7h3.8v9.2c0 0.4 0.1 0.8 0.4 1.2l5.8 8.3c0.3 0.4 0.8 0.9 1.7 0.9 0.8 0 1.4-0.5 1.7-0.9l5.8-8.3c0.3-0.3 0.4-0.8 0.4-1.2v-9.2h3.8v9.2c0 1.2-0.4 2.4-1.1 3.4l-5.8 8.4c-1.1 1.6-3 2.5-4.8 2.5-1.9 0-3.7-0.9-4.8-2.5l-5.8-8.4c-0.7-1-1.1-2.2-1.1-3.4v-9.2z"/>
			<path d="m498.6 92.5c-1.1 0-2 0.9-2 2v3.9h14.9v3.8h-14.9v3.9c0 1.1 0.9 2 2 2h17.5v3.8h-17.5c-3.2 0-5.8-2.6-5.8-5.8v-11.6c0-3.2 2.6-5.8 5.8-5.8h17.5v3.8h-17.5z"/>
			<path d="m534.9 108.2h5.1v-15.7h-5.1v-3.8h14v3.8h-5.1v15.8h5.1v3.8h-14v-3.9z"/>
			<path d="M576.9,88.7v3.8h-9.8V112h-3.8V92.5h-9.8v-3.8H576.9z"/>
			<path d="m582.1 88.7h3.8v14.5h-3.8v-14.5zm0 19.1h3.8v4.2h-3.8v-4.2z"/>
		</g>
	<path d="m110.7 74.6h-7.3l14.7-14.7h7.3l-14.7 14.7zm50.9-14.7h-7.3l-14.7 14.7h7.3l14.7-14.7zm-18.1 0h-7.3l-14.7 14.7h7.3l14.7-14.7zm36.2 0h-7.3l-14.7 14.7h7.3l14.7-14.7zm-108.6 0h-7.3l-14.8 14.7h7.3l14.8-14.7zm-58.3 14.7h7.3l14.7-14.7h-7.3l-14.7 14.7zm94.5-14.7h-7.3l-14.8 14.7h7.3l14.8-14.7zm-54.4 0h-7.3l-14.7 14.7h7.3l14.7-14.7zm163.1 0h-7.3l-14.7 14.7h7.3l14.7-14.7zm-126.8 0h-7.3l-14.8 14.7h7.3l14.8-14.7zm108.7 0h-7.3l-14.7 14.7h7.3l14.7-14.7zm144.9 0h-7.3l-14.7 14.7h7.3l14.7-14.7zm18.1 0h-7.3l-14.7 14.7h7.3l14.7-14.7zm18.1 0h-7.3l-14.7 14.7h7.3l14.7-14.7zm-379 14.7h2l14.7-14.7h-7.3l-9.4 9.4v5.3zm306.6-14.7h-7.3l-14.7 14.7h7.3l14.7-14.7zm-36.3 0h-7.3l-14.7 14.7h7.3l14.7-14.7zm-18.1 0h-7.3l-14.7 14.7h7.3l14.7-14.7zm72.5 0h-7.3l-14.7 14.7h7.3l14.7-14.7zm-36.3 0h-7.3l-14.7 14.7h7.3l14.7-14.7zm-54.3 0h-7.3l-14.7 14.7h7.3l14.7-14.7zm202.4 14.7h-7.3l14.7-14.7h7.3l-14.7 14.7zm50.9-14.7h-7.3l-14.7 14.7h7.3l14.7-14.7zm-18.1 0h-7.3l-14.7 14.7h7.3l14.7-14.7zm36.3 0h-7.3l-14.7 14.7h7.3l14.7-14.7zm-108.7 0h-7.3l-14.7 14.7h7.3l14.7-14.7zm36.2 0h-7.3l-14.7 14.7h7.3l14.7-14.7zm-54.3 0h-7.3l-14.7 14.7h7.3l14.7-14.7zm163 0h-7.3l-14.7 14.7h7.3l14.7-14.7zm-126.8 0h-7.3l-14.7 14.7h7.3l14.7-14.7zm108.7 0h-7.3l-14.7 14.7h7.3l14.7-14.7zm54.3 0h-7.3l-14.7 14.7h7.3l14.7-14.7zm-18.1 0h-7.3l-14.7 14.7h7.3l14.7-14.7z" fill="#fff"/>
	<polygon points="588.7 60.1 588.7 67.4 581.4 74.6 574.1 74.6" fill="#fff"/>
	<g fill="#fff">
		<path d="M22.1,45.4V11.4H-0.6V0h56.8v11.4H33.4v34.1H22.1z"/>
		<path d="M61.8,0h11.4v28.4l5.7,5.7h28.4V0h11.4v45.4H73.2L61.8,34.1V0z"/>
		<path d="m124.3 0h45.4l11.4 11.4v17h-17l17 17h-14.4l-17.1-17h-13.9v17h-11.4v-45.4zm11.4 17h34.1l-5.7-5.7h-28.4v5.7z"/>
		<path d="M186.8,45.4V0h11.4v45.4H186.8z"/>
		<path d="M203.8,45.4V0h45.4l11.4,11.4v34.1h-11.4V17l-5.7-5.7h-28.4v34.1H203.8z"/>
		<path d="M266.3,11.4L277.6,0h45.4v11.4h-39.8l-5.7,5.7v17h34.1v-5.7h-11.4V17h22.7v28.4h-56.8V11.4z"/>
		<path d="M379.9,45.4V11.4h-22.7V0h56.8v11.4h-22.7v34.1H379.9z"/>
		<path d="m476.4 0v11.4h-56.8v-11.4h56.8zm0 17v11.4h-56.8v-11.4h56.8zm0 17.1v11.4h-56.8v-11.4h56.8z"/>
		<path d="M482.1,11.4L493.5,0h45.4v11.4h-39.8l-5.7,5.7h45.4v28.4h-56.8V34.1h45.4v-5.7h-45.4V11.4z"/>
		<path d="M567.3,45.4V11.4h-22.7V0h56.8v11.4h-22.7v34.1H567.3z"/>
	</g>
</svg>
