<!-- Generated by IcoMoon.io -->
<svg version="1.1" xmlns="http://www.w3.org/2000/svg" width="32" height="32" viewBox="0 0 32 32">
<path d="M18.137 22.544c-0.325 0.031-0.656-0.044-0.938-0.212-0.206-0.212-0.306-0.506-0.269-0.8 0.006-0.244 0.038-0.488 0.087-0.725 0.050-0.275 0.113-0.544 0.188-0.813l0.856-2.95c0.087-0.294 0.15-0.594 0.175-0.894 0-0.325 0.044-0.55 0.044-0.681 0.019-0.581-0.231-1.144-0.675-1.519-0.55-0.419-1.231-0.625-1.919-0.581-0.494 0.006-0.981 0.088-1.456 0.238-0.512 0.162-1.056 0.35-1.619 0.575l-0.25 0.963c0.169-0.056 0.369-0.125 0.606-0.194 0.225-0.069 0.45-0.1 0.681-0.1 0.325-0.037 0.65 0.044 0.925 0.225 0.188 0.219 0.269 0.506 0.238 0.794 0 0.244-0.025 0.487-0.081 0.725-0.050 0.256-0.119 0.525-0.194 0.806l-0.863 2.969c-0.069 0.275-0.125 0.556-0.169 0.837-0.031 0.244-0.050 0.481-0.050 0.725 0 0.587 0.262 1.144 0.725 1.506 0.556 0.425 1.25 0.637 1.95 0.594 0.494 0.012 0.988-0.063 1.456-0.212 0.413-0.137 0.962-0.344 1.65-0.606l0.231-0.919c-0.188 0.075-0.381 0.137-0.575 0.188-0.25 0.056-0.5 0.081-0.756 0.063z"></path>
<path d="M19.050 8.544c-0.394-0.363-0.919-0.556-1.456-0.544-0.538-0.013-1.056 0.181-1.456 0.544-0.725 0.625-0.806 1.725-0.181 2.45 0.056 0.063 0.119 0.125 0.181 0.181 0.831 0.744 2.081 0.744 2.906 0 0.725-0.631 0.806-1.738 0.169-2.463-0.050-0.063-0.113-0.119-0.169-0.169z"></path>
<path d="M16 0c-8.838 0-16 7.162-16 16s7.162 16 16 16 16-7.163 16-16-7.163-16-16-16zM16 30.544c-8.031 0-14.544-6.512-14.544-14.544s6.513-14.544 14.544-14.544 14.544 6.513 14.544 14.544-6.512 14.544-14.544 14.544z"></path>
</svg>
