<svg width="379" height="104" viewBox="0 0 379 104" fill="none" xmlns="http://www.w3.org/2000/svg">
<path d="M5.71797 50.0666C4.86801 49.2324 3.98814 48.4006 3.07837 47.5711C2.22358 46.6771 1.76718 45.8712 1.70918 45.1536C1.66568 44.6153 1.8614 44.0578 2.29634 43.4808C5.25213 39.0885 9.94438 35.6995 16.3731 33.3139C22.1325 31.5843 27.862 29.8572 33.5616 28.1324C33.9156 28.0436 34.272 27.9847 34.6308 27.9557C35.7671 27.8639 36.9073 28.1931 38.0515 28.9434C39.2506 29.629 39.8937 30.5101 39.9807 31.5866C40.1353 33.5004 38.8637 34.8973 36.1659 35.7775C34.3101 36.6498 30.8695 37.6502 25.8441 38.7787C21.5267 39.7296 18.2525 40.9272 16.0216 42.3716C14.9934 43.0567 14.5059 43.7281 14.5591 44.386C14.5736 44.5654 14.618 44.7424 14.6923 44.917C16.6393 47.4082 19.9561 50.0898 24.6427 52.9616C30.5284 56.519 34.0853 58.82 35.3134 59.8645C38.7344 62.7182 40.5826 65.8494 40.8581 69.2583C40.95 70.3946 40.8672 71.6052 40.6099 72.8901C39.862 77.0439 37.5442 80.3915 33.6563 82.9329C30.1078 85.2061 25.8517 86.5433 20.8879 86.9445C16.2829 87.3166 12.0265 86.7878 8.11861 85.3579C6.32143 84.7206 5.35276 83.5348 5.2126 81.8005C5.10627 80.4848 5.47838 79.1304 6.32893 77.7373C7.23445 76.2797 8.34838 75.1663 9.67073 74.3973C10.5533 74.1454 11.3969 74.5287 12.2016 75.5472C13.0805 76.7402 13.7964 77.4047 14.3491 77.5406C15.6649 77.4343 17.665 77.6037 20.3496 78.0489C21.3451 78.45 22.3812 78.6071 23.4576 78.5201C24.5939 78.4283 25.8831 77.993 27.325 77.2143C28.5326 76.5148 29.7426 75.8451 30.955 75.2054C31.9638 74.2811 32.4127 73.1312 32.3015 71.7557C32.2338 70.9184 31.9544 70.0682 31.4633 69.2049C28.9539 66.4582 24.6642 63.2834 18.5943 59.6806C12.5841 56.0731 8.29203 52.8684 5.71797 50.0666ZM43.5141 55.8608C43.0501 50.1196 44.7917 47.0894 48.7388 46.7704C49.4565 46.7124 50.2436 46.7692 51.1002 46.9408C52.8134 47.2839 53.7425 48.3525 53.8875 50.1467C53.9359 50.7447 53.8936 51.7113 53.7607 53.0463C53.6876 54.3765 53.6752 55.3406 53.7236 55.9387C53.8202 57.1348 54.1368 58.0723 54.6732 58.7513C55.7823 57.5782 56.9183 55.6203 58.0811 52.8777C59.4542 49.757 60.4932 47.7167 61.1982 46.7567C62.4885 44.8466 64.0906 43.8142 66.0043 43.6595C66.9612 43.5822 68.0271 43.7368 69.2021 44.1235L71.134 45.6829C71.4505 46.6204 71.8323 48.3654 72.2794 50.9176C72.6926 53.0513 73.1868 54.6968 73.7619 55.8543C75.6116 53.4173 77.4314 50.9828 79.2213 48.5508C81.6546 45.8861 84.0673 44.4571 86.4595 44.2638C87.5958 44.1719 88.749 44.2894 89.9191 44.6162C90.8645 45.1418 91.4849 46.115 91.7803 47.5358C91.9368 48.7271 92.0957 49.9482 92.257 51.1993C93.3063 55.9903 93.9857 60.2996 94.295 64.1271C94.8508 71.0047 94.277 77.3114 92.5735 83.0473C92.1851 84.9448 90.735 85.995 88.2232 86.198C86.8476 86.3091 85.5029 86.0566 84.189 85.4405C83.9498 85.4598 83.7438 85.1454 83.571 84.4972C83.3886 83.7294 83.3629 83.0392 83.494 82.4267C84.8967 77.4375 85.3587 71.9825 84.8803 66.0618C84.6096 62.7127 84.0254 59.2084 83.1277 55.5488C83.0939 55.1302 82.9573 54.9305 82.7181 54.9499C82.0005 55.0079 81.4136 55.567 80.9575 56.6271C78.3086 61.8375 75.9883 68.1348 73.9967 75.5193C73.6506 76.4502 72.8786 77.3252 71.6807 78.1444C70.5425 78.9587 69.3754 79.4142 68.1793 79.5108C66.744 79.6268 65.6515 79.1433 64.9018 78.0601C64.1473 76.9172 63.7048 75.5384 63.5743 73.9236C63.4873 72.8471 63.529 71.1282 63.6993 68.7668C63.8697 66.4054 63.9065 64.6267 63.8098 63.4306C63.689 61.9354 63.3709 60.6067 62.8556 59.4445C62.0341 61.1963 60.7652 64.4893 59.049 69.3232C57.6337 73.4105 56.2953 76.5886 55.034 78.8576C54.1835 80.2507 52.8013 81.0245 50.8875 81.1792C48.914 81.3387 47.5726 80.7548 46.8634 79.4276C46.2091 78.0358 45.7101 76.3305 45.3664 74.3116C45.126 72.8261 44.9414 70.9148 44.8127 68.5776C44.6472 65.0394 44.5475 63.061 44.5136 62.6424C44.4508 61.8649 44.2693 60.7359 43.969 59.2552C43.7237 57.71 43.5721 56.5785 43.5141 55.8608ZM98.4704 48.2592C98.4046 46.6995 98.3638 45.0775 98.3481 43.3933C98.3922 41.7042 98.9509 40.4251 100.024 39.5558C100.892 39.1244 101.895 38.8629 103.031 38.771C106.081 38.5245 107.693 39.4778 107.867 41.6308C107.867 41.6308 107.984 44.5709 108.219 50.4511C108.384 53.9893 108.741 56.91 109.288 59.2134C109.936 61.2679 110.583 63.3225 111.231 65.377C112.221 67.9456 113.254 69.1863 114.331 69.0994C114.69 69.0704 115.069 68.9193 115.468 68.6463C120.156 64.8362 122.222 59.4924 121.667 52.6148C121.348 48.6677 120.073 45.1891 117.844 42.1789C116.627 40.5315 115.963 39.0201 115.852 37.6446C115.712 35.9103 116.838 34.9464 119.23 34.7531C121.562 34.5646 123.732 35.7136 125.739 38.2C127.542 40.4019 128.607 42.7838 128.935 45.3458C129.791 51.4767 129.523 57.0965 128.13 62.2054C126.506 68.1756 123.501 72.3312 119.115 74.6721C117.324 75.5994 115.621 76.1282 114.006 76.2587C109.461 76.6261 105.756 73.9759 102.89 68.3084C100.534 63.7433 99.0933 58.2014 98.5665 51.6826C98.4699 50.4865 98.4378 49.3454 98.4704 48.2592ZM133.462 49.7654C133.265 48.8182 132.659 47.272 131.643 45.1269C130.701 43.1564 130.187 41.6328 130.1 40.5564C129.984 39.121 130.425 37.8814 131.424 36.8376C132.419 35.7339 133.514 35.1337 134.71 35.037C136.265 34.9114 137.671 35.5502 138.928 36.9535C140.18 38.297 140.886 39.9555 141.046 41.9291C141.08 42.3477 141.084 42.7688 141.058 43.1922C142.593 42.8273 144.376 41.4192 146.405 38.9678C148.264 36.6505 150.031 35.4241 151.706 35.2888C152.304 35.2405 152.939 35.2794 153.611 35.4057C156.205 36.2194 157.541 37.1047 157.618 38.0615C157.657 38.54 157.488 39.0652 157.113 39.6373C156.108 41.3439 154.181 43.5763 151.334 46.3346C148.542 49.0283 146.593 51.3529 145.487 53.3083C145.121 54 144.939 55.0982 144.94 56.603C145.001 58.103 144.877 59.1665 144.566 59.7935C144.311 60.3559 144.214 61.0259 144.277 61.8034C144.379 63.0593 144.959 64.2765 146.017 65.4551C146.872 66.3491 147.36 67.5437 147.48 69.0388C147.659 71.2516 147.114 73.0714 145.845 74.4983C145.064 76.0061 143.776 76.8325 141.982 76.9775C140.487 77.0984 139.245 76.6269 138.256 75.5631C137.186 74.9874 136.629 73.678 136.584 71.635C136.393 66.293 135.353 59.0032 133.462 49.7654ZM166.776 24.8609C170.254 20.9681 174.415 18.826 179.259 18.4345C184.103 18.043 187.335 20.0392 188.953 24.4231C189.14 25.2507 188.962 26.0176 188.417 26.7238C187.867 27.3701 187.169 27.6674 186.322 27.6154C185.719 27.604 184.381 27.4412 182.309 27.127C180.661 26.8389 179.328 26.7359 178.311 26.8181C177.295 26.9002 176.322 27.1594 175.395 27.5956C170.282 29.8749 167.972 34.0645 168.465 40.1647C168.764 43.8726 170 47.6252 172.173 51.4225C172.762 51.2545 174.959 50.1439 178.766 48.0906C181.995 46.3248 184.386 45.3791 185.941 45.2534C186.42 45.2147 186.843 45.2407 187.212 45.3313C188.542 45.4044 189.267 46.1885 189.388 47.6836C189.427 48.1621 189.373 48.6179 189.228 49.051C188.856 50.4054 186.58 52.034 182.399 53.9369C178.274 55.7752 176.158 57.1501 176.051 58.0617C175.928 59.5164 176.788 61.2226 178.632 63.1805C180.937 65.6427 182.278 67.3402 182.655 68.2729C182.794 68.5025 182.871 68.707 182.885 68.8864C182.943 69.604 182.483 70.2432 181.505 70.8038C180.587 71.3595 179.589 71.6809 178.513 71.7679C177.795 71.8259 177.22 71.7821 176.787 71.6366C175.214 70.8005 173.572 69.0973 171.859 66.5269C170.142 63.8967 168.594 62.246 167.215 61.5749C166.148 61.7815 164.529 61.8522 162.356 61.787C161.763 61.8951 161.288 61.6024 160.931 60.9089C160.574 60.2154 160.426 59.505 160.488 58.7777C160.698 58.3995 161.457 57.7362 162.765 56.7878C163.793 56.1027 164.239 55.2842 164.102 54.3322C163.935 53.0213 163.358 50.7203 162.37 47.4292C161.525 44.4275 161.033 42.0595 160.893 40.3251C160.453 34.8828 162.414 29.7281 166.776 24.8609ZM204.649 31.6422C204.784 29.5846 204.986 26.4983 205.255 22.3832C205.301 19.9717 206.76 18.6499 209.63 18.4179C211.365 18.2778 213.018 18.6257 214.59 19.4618C215.366 20.1214 215.598 21.126 215.286 22.4756C213.359 27.6877 212.686 33.8821 213.266 41.0587C218.904 40.0613 221.603 39.5722 221.364 39.5916C224.474 39.3402 226.099 40.0817 226.239 41.8161C226.268 42.1749 226.24 42.5685 226.154 42.9968C225.71 44.9589 223.891 46.2797 220.695 46.9594C219.574 47.2306 216.77 47.5475 212.285 47.91C212.218 48.5775 212.238 49.5691 212.344 50.8848C212.576 53.7555 213.446 59.6746 214.953 68.6424C216.293 77.0217 216.97 82.0535 216.986 83.7377C217.031 85.7807 216.066 86.882 214.093 87.0415C212.239 87.1913 210.905 86.3359 210.093 84.4753C209.434 83.0237 208.378 77.0293 206.924 66.4922C205.569 56.4286 204.343 50.5683 203.246 48.9113C200.944 50.9634 198.597 52.0862 196.204 52.2795C195.128 52.3665 194.147 52.1448 193.261 51.6144C192.191 51.0387 191.615 50.2425 191.533 49.2259C191.432 47.9699 192.117 46.7708 193.59 45.6285C194.339 45.2068 196.179 44.5163 199.111 43.557C201.405 42.8901 202.902 42.0467 203.602 41.027C204.302 40.0073 204.665 38.5333 204.689 36.6051C204.674 34.9209 204.66 33.2666 204.649 31.6422ZM251.861 70.084C251.358 69.8237 250.797 69.2069 250.176 68.2337C249.63 67.4351 249.148 67.0527 248.729 67.0866C245.516 66.8045 242.273 66.5248 239 66.2475C235.399 65.6356 232.747 64.1043 231.044 61.6535C229.986 60.4749 229.372 58.839 229.203 56.7459C228.956 53.6958 229.501 51.1236 230.837 49.0292C234.033 43.895 239.1 41.0476 246.038 40.4869C249.028 40.2453 250.471 40.219 250.366 40.408C250.786 39.6517 250.943 38.6157 250.837 37.3C250.711 35.7451 250.192 34.9141 249.281 34.8072C248.364 34.6405 247.458 34.5934 246.561 34.6659C245.006 34.7915 243.303 35.3204 241.452 36.2526C239.656 37.1201 237.887 37.9552 236.146 38.7581C235.857 38.9019 235.593 38.9834 235.354 39.0027C234.397 39.0801 233.564 38.4552 232.854 37.128C232.289 36.0901 231.955 34.9433 231.854 33.6874C231.791 32.9099 231.842 32.4242 232.007 32.2303C235.737 29.2201 240.083 27.5144 245.047 27.1132C250.25 26.6928 253.899 28.264 255.993 31.8269C257.114 33.7829 257.771 35.957 257.964 38.3492C258.124 40.3228 257.96 43.1352 257.472 46.7863C256.894 50.8059 256.588 53.7201 256.554 55.5287C256.617 60.0383 256.565 63.1125 256.396 64.7514C255.973 68.4575 254.984 70.3734 253.429 70.499C252.951 70.5377 252.428 70.3994 251.861 70.084ZM249.369 59.3599C249.481 58.5081 249.749 56.9816 250.173 54.7803C250.576 53.0623 250.734 51.665 250.647 50.5885C250.545 49.3326 250.174 48.0984 249.535 46.886C246.538 47.7904 243.568 48.6624 240.626 49.5021C237.18 50.804 235.555 53.0421 235.751 56.2166C235.803 57.597 237.213 58.6568 239.981 59.3962C242.386 60.1048 244.755 60.3649 247.087 60.1764C248.463 60.0652 249.223 59.7931 249.369 59.3599ZM246.866 52.9708C246.929 53.7482 246.73 54.6371 246.269 55.6375C245.808 56.6379 245.279 57.1623 244.681 57.2106C243.724 57.2879 242.912 56.9321 242.247 56.1432C241.641 55.3494 241.369 54.5889 241.43 53.8615C241.568 52.5863 242.534 51.8762 244.328 51.7312C245.943 51.6007 246.789 52.0139 246.866 52.9708ZM275.875 25.886C278.22 26.5994 280.568 27.3427 282.918 28.1159C285.466 29.1139 287.262 30.4737 288.304 32.1953C288.502 32.42 288.619 32.7417 288.653 33.1603C288.788 34.8349 288.316 36.0769 287.238 36.8864C286.724 37.2289 286.138 37.4268 285.48 37.4799C284.463 37.5621 282.482 36.8795 279.536 35.4321C276.59 33.9847 274.309 33.3263 272.695 33.4568C271.498 33.5534 270.359 33.9766 269.276 34.7263C268.766 35.1286 268.538 35.6587 268.592 36.3166C268.659 37.1539 269.215 38.0721 270.259 39.0712C271.363 40.0656 272.315 40.6808 273.117 40.917C279.515 42.6271 284.45 44.8468 287.921 47.5761C289.08 48.5058 289.732 49.8677 289.877 51.6618C290.046 53.755 289.56 55.9313 288.418 58.1906C287.336 60.4451 285.39 62.4383 282.581 64.1702C279.826 65.8375 276.924 66.7944 273.874 67.0409C268.491 67.4759 264.542 65.5377 262.027 61.2263C261.818 60.882 261.695 60.4706 261.656 59.9922C261.574 58.9755 261.978 58.0099 262.867 57.0953C263.751 56.1209 264.729 55.5602 265.801 55.4134C266.628 55.2262 267.419 55.704 268.174 56.8469C269.063 58.1596 269.756 58.9162 270.254 59.1168C271.374 59.568 272.621 59.7381 273.997 59.6269C276.09 59.4578 277.871 58.7721 279.339 57.5699C280.861 56.3032 281.55 54.7727 281.405 52.9785C281.294 51.603 279.812 50.3985 276.96 49.3649C273.803 48.2957 270.679 47.2539 267.588 46.2397C264.223 44.8262 261.809 42.8843 260.345 40.4142C259.923 39.6657 259.681 38.9028 259.618 38.1253C259.401 35.4341 260.895 32.6948 264.101 29.9075C267.137 27.2543 270.21 25.8021 273.32 25.5507C274.277 25.4734 275.128 25.5851 275.875 25.886ZM302.942 23.6985C303.077 21.641 303.279 18.5547 303.548 14.4396C303.594 12.0281 305.052 10.7063 307.923 10.4743C309.657 10.3341 311.311 10.6821 312.883 11.5181C313.659 12.1778 313.891 13.1824 313.578 14.5319C311.652 19.7441 310.979 25.9384 311.559 33.115C317.197 32.1176 319.896 31.6286 319.657 31.6479C322.767 31.3966 324.392 32.1381 324.532 33.8725C324.561 34.2313 324.532 34.6249 324.447 35.0532C324.003 37.0152 322.184 38.3361 318.988 39.0157C317.866 39.287 315.063 39.6038 310.577 39.9663C310.511 40.6339 310.531 41.6255 310.637 42.9412C310.869 45.8118 311.739 51.731 313.246 60.6987C314.585 69.0781 315.263 74.1099 315.279 75.7941C315.323 77.8371 314.359 78.9384 312.385 79.0979C310.532 79.2477 309.198 78.3923 308.386 76.5317C307.727 75.0801 306.67 69.0857 305.217 58.5485C303.862 48.485 302.636 42.6247 301.539 40.9677C299.237 43.0198 296.889 44.1425 294.497 44.3359C293.421 44.4229 292.44 44.2012 291.554 43.6708C290.484 43.0951 289.908 42.2989 289.826 41.2822C289.724 40.0263 290.41 38.8272 291.883 37.6848C292.631 37.2632 294.472 36.5727 297.404 35.6134C299.698 34.9464 301.195 34.1031 301.895 33.0834C302.595 32.0637 302.957 30.5897 302.982 28.6614C302.966 26.9772 302.953 25.3229 302.942 23.6985ZM328.79 39.1265C328.409 34.4019 328.671 30.9495 329.579 28.7693C330.281 27.0271 331.678 26.0714 333.771 25.9023C334.668 25.8298 335.55 25.9391 336.416 26.2303C338.154 26.8724 339.073 27.8214 339.175 29.0773C339.213 29.5558 339.068 29.9889 338.738 30.3768C337.782 31.9589 337.371 33.9485 337.505 36.3455C337.562 39.2904 337.475 41.1936 337.244 42.0551C337.012 42.9165 336.94 43.8855 337.027 44.9619C337.09 45.7394 337.306 46.9258 337.676 48.5213C338.101 50.052 338.347 51.236 338.415 52.0733C338.482 52.9106 338.488 53.7228 338.431 54.5099C338.434 55.2922 338.166 55.7051 337.628 55.7486C336.341 56.2138 335.19 56.4874 334.173 56.5696C332.259 56.7243 331.005 56.1033 330.411 54.7066C329.792 53.0109 329.384 50.9371 329.186 48.4851C329.103 47.4684 329.038 45.9086 328.988 43.8058C328.938 41.7029 328.873 40.1432 328.79 39.1265ZM329.395 18.6713C328.937 18.2267 328.672 17.5559 328.6 16.6588C328.416 14.3862 328.923 12.8404 330.121 12.0212C331.319 11.202 332.636 10.7345 334.071 10.6185C335.267 10.5218 336.34 10.7661 337.291 11.3515C338.301 11.932 338.854 12.8203 338.951 14.0164C339.033 15.0331 338.791 16.1362 338.225 17.3257C337.654 18.4553 337.027 19.2585 336.343 19.7351C335.659 20.2117 334.899 20.4839 334.061 20.5515C332.327 20.6917 330.771 20.065 329.395 18.6713ZM342.785 37.3634C343.288 31.6644 345.398 26.8589 349.114 22.9467C352.167 19.7505 354.257 17.6854 355.386 16.7514C358.037 14.5507 360.559 13.3537 362.951 13.1603C364.207 13.0588 365.425 13.2313 366.605 13.6777C367.531 13.9641 368.037 14.6455 368.124 15.722C368.158 16.1406 368.135 16.594 368.054 17.0821C367.51 19.293 366.09 21.0933 363.795 22.4827C359.943 24.7203 357.847 25.9732 357.507 26.2414C353.352 29.9481 351.31 33.7249 351.38 37.5718C351.402 40.8206 352.254 43.5508 353.938 45.7623C354.817 46.9554 356.123 47.8431 357.855 48.4254C359.389 48.783 360.955 49.1681 362.554 49.5807C363.111 49.7764 363.689 49.8501 364.287 49.8018C365.603 49.6955 367.269 48.718 369.287 46.8695C371.36 44.9563 372.932 43.9263 374.004 43.7795C375.429 43.5439 376.2 44.1438 376.316 45.5791C376.442 47.134 376.034 48.7923 375.093 50.5538C373.05 54.3306 369.577 56.4172 364.673 56.8135C362.101 57.0213 359.102 56.7821 355.676 56.0959C352.006 55.3692 349.003 53.5953 346.668 50.7742C344.393 47.9483 343.098 44.5917 342.784 40.7044C342.697 39.6279 342.698 38.5142 342.785 37.3634Z" fill="#2D8DFF"/>
</svg>
