<?xml version="1.0" encoding="utf-8"?>
<!-- Generator: Adobe Illustrator 22.1.0, SVG Export Plug-In . SVG Version: 6.00 Build 0)  -->
<svg version="1.1" id="Layer_1" xmlns="http://www.w3.org/2000/svg" xmlns:xlink="http://www.w3.org/1999/xlink" x="0px" y="0px"
	 viewBox="0 0 1512 1512" style="enable-background:new 0 0 1512 1512;" xml:space="preserve">
<style type="text/css">
	.st0{clip-path:url(#SVGID_2_);}
	.st1{fill:#74524B;}
	.st2{fill:#A75F49;}
	.st3{fill:#894B3D;}
	.st4{fill:#5C443E;}
	.st5{fill:#472D29;}
	.st6{fill:#FFE8CA;}
	.st7{fill:#EFCEA8;}
	.st8{fill:#68413C;}
	.st9{fill:#CE413E;}
	.st10{fill:#E25E54;}
	.st11{fill:#442A2A;}
	.st12{fill:#070202;}
	.st13{fill:#FFFFFF;}
</style>
<g>
	<g>
		<defs>
			<rect id="SVGID_1_" x="118.1" y="55.8" width="1186.8" height="1273.1"/>
		</defs>
		<clipPath id="SVGID_2_">
			<use xlink:href="#SVGID_1_"  style="overflow:visible;"/>
		</clipPath>
		<g class="st0">
			<path class="st1" d="M789.2,499.2c-17.9-109.3-18-307.2-59-428.2c63.7,41.1,298.4,280.4,331.1,515.8L789.2,499.2z"/>
			<path class="st2" d="M827.8,504.9c-13.6-85.8-14.5-240.9-45.1-336c46.9,32.5,220.2,221.1,245.1,405.9L827.8,504.9z"/>
			<path class="st3" d="M993,562.6l34.8,12.2C1002.9,390,829.6,201.4,782.7,168.9c3.4,10.5,6.4,21.9,9.1,33.7
				C857.7,275.1,960.7,417.6,993,562.6z"/>
			<path class="st1" d="M430.5,745c-89.9,32.7-184.8-404.4-293.4-457.8c-55-27,225.5-61.7,457.1,243L430.5,745z"/>
			<path class="st2" d="M447,713.8c-72.3,26.3-149.9-352.6-237.2-395.5c-44.2-21.7,182.6-22.5,368.9,222.7L447,713.8z"/>
			<g>
				<path class="st3" d="M209.7,318.3c5.5,2.7,10.9,6.7,16.3,11.9c60.5,10,206.9,67.3,328.3,242.7l24.3-31.9
					C392.4,295.8,165.5,296.6,209.7,318.3z"/>
				<path class="st3" d="M443.9,714.6c1-0.2,2-0.5,3.1-0.9l19.7-25.8L443.9,714.6z"/>
			</g>
			<path class="st4" d="M446.2,2308.8l96,111.5c-46.7,49.1-195.5,79.1-292.8-65.4C249.3,2354.8,365,2386.3,446.2,2308.8z"/>
			<path class="st5" d="M542.9,2671.6h58.4c0,0,158.1-213.1,189-346.6c30.9-133.6-312.7-384.8-405.4-308.5
				c-92.8,76.3,92.9,411.8,114.1,462.2C528.9,2549.6,542.9,2671.6,542.9,2671.6z"/>
			<path class="st5" d="M833.1,2671.6h58.4c0,0,211.7-354.3,263.2-486c51.5-131.7-274.2-235-378.7-159.8s29.5,405.9,43,455.6
				C837.8,2551.3,833.1,2671.6,833.1,2671.6z"/>
			<path class="st5" d="M673.5,2464.9c127.7,19.8,351.7-18.7,465.1-250.8c113.4-232.1,123.6-838.6-27.6-1054.9
				s-701.1-157.4-721.7-87.4s-186,457.8,1.3,1149.3C419,2325.9,509.7,2439.5,673.5,2464.9z"/>
			<path class="st1" d="M680.1,2462.5c118.9,19.8,327.5-18.7,433-250.8c105.6-232.1,115.1-838.6-25.7-1054.9
				s-652.7-157.4-671.9-87.4c-19.2,70-173.1,457.8,1.2,1149.3C443.2,2323.5,527.6,2437.1,680.1,2462.5z"/>
			<path class="st5" d="M955.3,1791.9c215.1-225,257.5-111.3,251.3,168.7c39.3-276.5,15-643.2-95.5-801.4
				C959.9,943,410,1001.8,389.3,1071.8c-20.6,70-186,457.8,1.3,1149.3c24.6,90.7,95.9,187.8,220.8,228.8
				c-236.4-169.9-169.7-561.7-36-717.7C672.4,1619.1,778.8,1682.3,955.3,1791.9z"/>
			<path class="st4" d="M426.1,1646c-79.2-24.1-159.8-343.4-58.4-485c101.4-141.5,219.9,278.3,219.9,278.3S556.7,1685.8,426.1,1646z
				"/>
			<path class="st5" d="M522.4,1435.8c19.6,26.4,35.8,53.3,48.5,79.5c12.3-41.2,16.7-75.9,16.7-75.9s-118.5-419.8-219.9-278.3
				c-25.6,35.8-39.6,82.9-44.9,133.8C377.6,1294.3,458,1348.9,522.4,1435.8z"/>
			<path class="st4" d="M958.7,1746.2c-181-61.5-607-464.3-641.4-695.4c-34.4-231.1,213-483.4,258.8-517.3
				c45.8-33.9,274.9-72.1,332.1-48.8c57.3,23.3,261.1,123,357.3,354C1345.8,1146.3,1191.6,1443.7,958.7,1746.2z"/>
			<path class="st1" d="M957.8,1649.6c-166.3-56.5-557.9-426.7-589.5-639.1S564.1,566.2,606.2,535c42.1-31.2,252.6-66.3,305.3-44.8
				c52.6,21.4,240,113,328.4,325.4C1313.6,1098.2,1171.9,1371.6,957.8,1649.6z"/>
			<path class="st6" d="M1121.4,820.2l-383.5,57.9c-203.3,157.3-256.5,335.5-233.9,497.4c147.7,172.6,345.7,333.6,454.7,370.7
				c171.1-222.2,299.6-441.8,324-664.5C1279.5,996.6,1176.2,864.3,1121.4,820.2z"/>
			<path class="st7" d="M1259.2,1000.9c-6.5,227.1-158.4,480.4-305.5,701.9c-105.4-35.8-306.5-274.6-452.4-440.6
				c-5.7,43.6-3.2,71.2,2.7,113.3c147.7,172.6,347,342.7,456.1,379.8c171.1-222.2,298.2-450.9,322.7-673.6
				C1283.5,1049.1,1268.1,1023,1259.2,1000.9z"/>
			<path class="st7" d="M822.1,870.3c-19.5,49.8,22.3,187.7,97.8,205.1c103.5,23.8,136.7-210.5,136.7-210.5L822.1,870.3z"/>
			<path class="st8" d="M840.7,842c-19.5,49.8,15.7,190.2,89.4,213.8c68.5,21.9,140.8-214.8,140.8-214.8L840.7,842z"/>
			<path class="st9" d="M932.9,894.7c-20.8-5.4-43.1,0.5-58,15.3c-14.9,14.8-19.9,36.1-13,55.3c12.8,35.6,35.7,68.8,67,78.2
				c28.4,8.6,46.4-23.4,57.3-58c5.9-18.8,3.6-39-6.4-56.1C969.8,912.4,952.9,899.9,932.9,894.7z"/>
			<path class="st10" d="M915.5,985.9c-15,0-29.1,2.2-41.7,6c13.3,24.5,31.9,44.6,55.2,51.7c23.9,7.2,40.4-14.3,51.5-41.9
				C963.2,991.9,940.5,985.9,915.5,985.9z"/>
			<path class="st8" d="M1097.1,922.2c0,0-34.9,22-75.4,11.5l12-25.5L1097.1,922.2z"/>
			<path class="st8" d="M785.2,897.1c0,0,19.7,37.6,69.2,50.9l6.4-28L785.2,897.1z"/>
			<path class="st6" d="M1011.4,872.8c-25.4,37.9-84.8,82.7-156.9,60.4c-72.2-22.3-143.6-70.8-147.7-101.8
				c-8-60.4,165.3-68.5,224.9-64.3C991.1,771.4,1032,842,1011.4,872.8z"/>
			<path class="st1" d="M955.3,795.2c-45.6,0.8-216,54.4-288.1,32.2c-72.2-22.3-88.3,0.1-92.4-30.9c-8-60.4,333.7-91.4,393.2-87.1
				C1027.5,713.6,1045.9,793.6,955.3,795.2z"/>
			<path class="st6" d="M1005.5,872.8c17.7,37.9,68.4,84.1,113.5,52.7c141.6-98.4,20.1-191.4-110.9-178
				C966.7,751.7,991.2,842,1005.5,872.8z"/>
			<path class="st1" d="M984.3,771.3c17.7,37.9,165.6,73.1,215.8,50.9c81-36-42.9-140.6-130.4-124
				C987.5,713.8,969.9,740.6,984.3,771.3z"/>
			<path class="st11" d="M1024,882.8c-37.1,6.9-120.2-57.7-110-91.3c8.2-27.1,178.8-21.4,190.8-2.4
				C1116.8,808.3,1058.3,876.5,1024,882.8z"/>
			<path class="st12" d="M1014.1,809.5c-38,0-72.9-2.6-100.5-7c6.4,34.8,77,86.5,110.4,80.3c28.1-5.2,72.2-51.6,80.9-78.9
				C1078.9,807.4,1047.7,809.5,1014.1,809.5z"/>
			<path class="st12" d="M744.9,732.6l41-9.4c0,0-10.1-57.6-28.4-47.8C739.2,685.2,744.9,732.6,744.9,732.6z"/>
			<path class="st12" d="M988.2,707.3l39.8,1.7c0,0,1.4-65.2-18.8-54.4C988.9,665.5,988.2,707.3,988.2,707.3z"/>
			<path class="st1" d="M658,1433c-28.4,75.6-112,220.1-182.3,214.2c-70.3-5.9-101.2-39.3-65.1-126.8
				c36.1-87.4,235.1-289.9,272.9-270.8C721.3,1268.7,658,1433,658,1433z"/>
			<path class="st4" d="M678.6,1256.5c-3.7-1.9-9.1-1.6-15.5,0.4c-10.2,25.7-19.4,44.8-19.4,44.8c-35.2,72.7-131.7,209-201.1,196.6
				c-6.6-1.2-12.6-2.6-18.4-4.2c-5.7,9.5-10.3,18.4-13.6,26.4c-36.1,87.4-5.2,120.8,65.1,126.8c70.3,5.9,153.9-138.6,182.3-214.2
				C658,1433,716.4,1275.6,678.6,1256.5z"/>
			<path class="st1" d="M581.3,2615.7c69.2-92.4,172.3-259.6,158.9-316.5c-13.4-56.9-298.5-202.3-304-135.4
				C430.8,2230.7,581.3,2615.7,581.3,2615.7z"/>
			<path class="st5" d="M677.9,2454.7c0,0,89.4,99,225.3-3.6L677.9,2454.7z"/>
			<path class="st1" d="M1315.3,1372.9c-9.3,79.5-31.9,179.5-71.1,208c-55.2,40-130.1,4.6-116.2-88c13.9-92.6,109-305,164.4-296.6
				C1334.9,1202.7,1315.3,1372.9,1315.3,1372.9z"/>
			<path class="st4" d="M1292.4,1196.3c-0.8-0.2-1.6-0.2-2.5-0.2c-28.9,2.1-34.4,26.3-39.8,53.4c-19.7,97.7-30.1,195.3-60.2,189.2
				c-14.2-2.9-23.6-23.3-27.5-54.3c-17.2,40.9-30.2,80.4-34.4,108.5c-13.9,92.6,61.4,151.7,116.6,111.7
				c39.2-28.4,61.4-152.2,70.7-231.7C1315.3,1372.9,1333.9,1207.5,1292.4,1196.3z"/>
			<path class="st5" d="M538.4,2547.7c8.3-124-3.6-211-3.6-211l-33.4,85.8L538.4,2547.7z"/>
			<path class="st5" d="M513.3,2478.6c8.3-124-3.6-211-3.6-211l-33.4,85.8L513.3,2478.6z"/>
			<path class="st5" d="M478.8,2376.1c8.3-124,6-203.9,6-203.9l-42.9,78.7L478.8,2376.1z"/>
			<path class="st5" d="M444.5,2250.9c25.1-121.7,56.1-287.1,56.1-287.1l-75.7,158.1L444.5,2250.9z"/>
			<polygon class="st5" points="335.3,1919 348,2186.1 390.9,2108.2 			"/>
			<polygon class="st5" points="320.4,1772.1 314.2,2058.9 354.2,1966.3 			"/>
			<polygon class="st5" points="312.3,1615.5 289.2,1901.5 334.6,1811.4 			"/>
			<path class="st11" d="M729.1,643.9c-18.9,25.9-60.6,31.8-47.9,0.8c12.7-31,75.9-46.2,88.5-34.1
				C782.3,622.7,749.4,616.2,729.1,643.9z"/>
			<path class="st11" d="M1032.1,635.7c16,17.1,44.5,13.7,39.3-4.3c-6.1-21.3-73-39.8-94.9-27.2
				C950.5,619.2,1009.2,611.4,1032.1,635.7z"/>
			<path class="st12" d="M998.6,865.5c-26.2-6-48.9-25-41.7-37c7.2-11.9,50.8-11.2,65.1-0.5C1036.2,838.8,998.6,865.5,998.6,865.5z"
				/>
			<path class="st13" d="M1080.2,789.6c0-5.7-18.5-10.3-41.4-10.3c-22.9,0-41.4,4.6-41.4,10.3c0,5.7,18.5,10.3,41.4,10.3
				C1061.7,799.9,1080.2,795.3,1080.2,789.6z"/>
			<path class="st1" d="M833.1,2671.6h124.6c0,0-23-42.8-48.5-49.9C883.7,2614.5,833.1,2671.6,833.1,2671.6z"/>
			<path class="st1" d="M545.4,2671.6h124.6c0,0-16.1-39.9-41.6-47.1C602.9,2617.3,545.4,2671.6,545.4,2671.6z"/>
			<path class="st6" d="M249.3,2354.3c0,0,33.6,66.4,103.6,88.8c15.3-48.3-3.1-86-3.1-86S279.6,2359.1,249.3,2354.3z"/>
			<path class="st6" d="M772.5,490.4c0,0,67.8,54.4,101.3,84.4c30,26.9,56,77,56,126.5c0,34.3,82.2,71.8,82.2,71.8s-57-0.7-79.4,6.8
				c-19-13.6-45.5-51.5-50.6-71c-16.5-62-14.5-73.8-40.8-108.7c-29.1-38.7-164-91.7-164-91.7S757.5,492.3,772.5,490.4z"/>
		</g>
	</g>
	<g>
		<path class="st1" d="M721.6,1447.3c-49.1,26.6-97.9-11.1-92.8-49.3c5.2-38.2,12.3-147,46.4-149.5
			C740.5,1243.8,821.1,1393.4,721.6,1447.3z"/>
		<path class="st1" d="M1356.5,1391.5c-45.4,30.5-98.4-3.4-98-42c0.4-38.6-6.1-147.9,27.4-153.1
			C1350,1186.6,1448.4,1329.8,1356.5,1391.5z"/>
	</g>
</g>
</svg>
