<?xml version="1.0" encoding="utf-8"?>
<!-- Generator: Adobe Illustrator 22.1.0, SVG Export Plug-In . SVG Version: 6.00 Build 0)  -->
<svg version="1.1" id="Layer_1" xmlns="http://www.w3.org/2000/svg" xmlns:xlink="http://www.w3.org/1999/xlink" x="0px" y="0px"
	 viewBox="0 0 1920 2256" style="enable-background:new 0 0 1920 2256;" xml:space="preserve">
<style type="text/css">
	.st0{fill-rule:evenodd;clip-rule:evenodd;fill:url(#SVGID_1_);}
</style>
<linearGradient id="SVGID_1_" gradientUnits="userSpaceOnUse" x1="1576.5094" y1="-156.5316" x2="332.0645" y2="2394.9587">
	<stop  offset="0" style="stop-color:#FF9A42"/>
	<stop  offset="1" style="stop-color:#FF8D49"/>
</linearGradient>
<path class="st0" d="M0,681c0,0,176.4-37.9,381.6,50.2c205.2,88.1,382.6,220.6,516.6,282.1c134,61.5,271.8,118.7,458,4.1
	s164.8-248.7,158.1-325.7S1424.2,249.1,1920,11c0.7,99.5,0,1523,0,1523s-259-69.7-469.8-0.3c-210.8,69.4-471.2,216.6-717,487.9
	C616.2,2150.8,294.4,2316.1,0,2233C0,2149.9,0,681,0,681z"/>
</svg>
