<svg style="display: none;" id="room_details" xmlns="http://www.w3.org/2000/svg"><symbol id="room_details-online" viewBox="0 0 29 29">
<path fill-rule="evenodd" clip-rule="evenodd" d="M14.5 0C6.5 0 0 6.5 0 14.5C0 22.5 6.5 29 14.5 29C22.5 29 29 22.5 29 14.5C29 6.5 22.5 0 14.5 0ZM14.5 27.9C7.1 27.9 1.1 21.9 1.1 14.5C1.1 7.1 7.1 1.1 14.5 1.1C21.9 1.1 27.9 7.1 27.9 14.5C27.9 21.9 21.9 27.9 14.5 27.9Z" fill="white"/>
<path fill-rule="evenodd" clip-rule="evenodd" d="M6 10.4C6 10 6.2 9.90002 6.5 9.90002C6.8 9.90002 12.9 9.90002 14.9 9.90002C16.9 9.90002 18.1 10.8 18.1 12.6C18.1 14.4 18.1 17.6 18.1 18.2C18.1 18.8 18.2 19.2 17.4 19.2C16.6 19.2 11.3 19.2 9 19.2C6.7 19.2 6 17.9 6 16.4C6 14.8 6 10.8 6 10.4Z" fill="white"/>
<path fill-rule="evenodd" clip-rule="evenodd" d="M18.7 12.8V16.2C18.7 16.2 21.9 18.6 22.2 18.8C22.6 19 22.9 19.2 22.9 18.7C22.9 18.1 22.9 10.9 22.9 10.5C22.9 9.99998 22.8 9.79998 22.4 9.99998C22.1 10.3 18.7 12.8 18.7 12.8Z" fill="white"/>
</symbol>
<symbol id="room_details-cost" viewBox="0 0 32 32">
<path fill="#fff" style="fill: var(--color1, #fff)" d="M19.090 14.786l-3.2 2.869c1.434 0.552 1.986 1.214 1.986 2.097 0 1.103-1.103 1.766-2.648 1.766-1.103 0-2.097-0.221-2.979-0.552l-2.317 2.097-0.11 0.441c1.103 0.662 2.869 1.103 4.745 1.214v2.648h2.759v-2.869c3.2-0.552 4.966-2.648 4.966-5.186-0.11-1.986-0.993-3.421-3.2-4.524z"></path>
<path fill="#fff" style="fill: var(--color1, #fff)" d="M12.469 16.221l3.2-2.869c-0.993-0.552-1.434-0.993-1.434-1.545 0-0.772 0.552-1.545 2.428-1.545 0.883 0 1.545 0.11 2.207 0.331l2.538-2.317v-0.221c-0.883-0.441-2.207-0.883-4.083-0.883v-2.538h-2.759v2.648c-2.869 0.662-4.634 2.538-4.634 4.966 0 1.876 0.993 3.090 2.538 3.972z"></path>
<path fill="#fff" style="fill: var(--color1, #fff)" d="M16 0c-8.828 0-16 7.172-16 16s7.172 16 16 16 16-7.172 16-16-7.172-16-16-16zM16 30.786c-8.166 0-14.786-6.621-14.786-14.786s6.621-14.786 14.786-14.786 14.786 6.621 14.786 14.786-6.621 14.786-14.786 14.786z"></path>
</symbol>
<symbol id="room_details-genre" viewBox="0 0 29 29">
<path fill-rule="evenodd" clip-rule="evenodd" d="M14.5 0C6.5 0 0 6.5 0 14.5C0 22.5 6.5 29 14.5 29C22.5 29 29 22.5 29 14.5C29 6.5 22.5 0 14.5 0ZM14.5 27.9C7.1 27.9 1.1 21.9 1.1 14.5C1.1 7.1 7.1 1.1 14.5 1.1C21.9 1.1 27.9 7.1 27.9 14.5C27.9 21.9 21.9 27.9 14.5 27.9Z" fill="white"/>
<path d="M14.5001 5.09998C11.5001 5.09998 9.00006 7.49998 9.00006 10.8C9.00006 12.9 10.0001 13.9 11.4001 14.9V16.5C11.6001 16.7 11.9001 17 12.2001 17.1V16.1L12.6001 16.5V17.3C13.1001 17.6 13.7001 17.7 14.3001 17.7V16.4H14.7001V17.7C15.3001 17.7 15.8001 17.5 16.3001 17.3V16.4L16.7001 16V17.1C17.0001 16.9 17.3001 16.7 17.6001 16.4V14.9C19.1001 13.8 20.1001 12.8 20.1001 10.7C20.0001 7.49998 17.5001 5.09998 14.5001 5.09998ZM12.3001 13.7C11.3001 13.7 10.5001 12.9 10.5001 11.9C10.5001 10.9 11.3001 10.9 12.3001 10.9C13.3001 10.9 14.1001 10.9 14.1001 11.9C14.1001 12.9 13.3001 13.7 12.3001 13.7ZM14.2001 15C14.0001 15.2 13.7001 15.3 13.6001 15.1C13.5001 15 13.5001 14.7 13.7001 14.5C13.9001 14.3 14.2001 14.2 14.3001 14.4C14.4001 14.6 14.4001 14.8 14.2001 15ZM15.5001 15.1C15.4001 15.2 15.1001 15.2 14.9001 15C14.7001 14.8 14.6001 14.5 14.8001 14.4C14.9001 14.3 15.2001 14.3 15.4001 14.5C15.5001 14.7 15.6001 15 15.5001 15.1ZM16.7001 13.7C15.7001 13.7 14.9001 12.9 14.9001 11.9C14.9001 10.9 15.7001 10.9 16.7001 10.9C17.7001 10.9 18.5001 10.9 18.5001 11.9C18.5001 12.9 17.7001 13.7 16.7001 13.7ZM22.3001 17.7C21.5001 18.2 20.7001 17.7 20.7001 17.7L16.1001 20.4L17.2001 21C17.2001 21 18.0001 20.5 18.8001 21C19.2001 21.2 19.4001 21.8 19.1001 22.2C18.9001 22.5 18.7001 22.6 18.4001 22.6C18.5001 22.9 18.5001 23.2 18.4001 23.4C18.2001 23.8 17.6001 24 17.2001 23.7C16.4001 23.2 16.4001 22.3 16.4001 22.3L14.5001 21.2L12.6001 22.3C12.6001 22.3 12.6001 23.3 11.8001 23.7C11.4001 23.9 10.8001 23.8 10.6001 23.4C10.4001 23.1 10.4001 22.8 10.6001 22.6C10.3001 22.6 10.0001 22.4 9.90006 22.2C9.70006 21.8 9.80006 21.2 10.2001 21C11.0001 20.5 11.8001 21 11.8001 21L12.9001 20.4L8.30006 17.7C8.30006 17.7 7.50006 18.2 6.70006 17.7C6.30006 17.5 6.10006 16.9 6.40006 16.5C6.50006 16.2 6.80006 16 7.10006 16C7.00006 15.7 7.00006 15.4 7.10006 15.2C7.30006 14.8 7.90006 14.6 8.30006 14.9C9.10006 15.4 9.10006 16.3 9.10006 16.3L14.5001 19.4L19.9001 16.3C19.9001 16.3 19.9001 15.3 20.7001 14.9C21.1001 14.7 21.7001 14.8 21.9001 15.2C22.1001 15.5 22.1001 15.8 21.9001 16C22.2001 16 22.5001 16.2 22.6001 16.4C22.9001 16.9 22.8001 17.4 22.3001 17.7Z" fill="white"/>
</symbol><symbol id="room_details-restrictions" viewBox="0 0 29 29">
<path d="M14.5 0C6.5 0 0 6.5 0 14.5C0 22.5 6.5 29 14.5 29C22.5 29 29 22.5 29 14.5C29 6.5 22.5 0 14.5 0ZM14.5 27.9C7.1 27.9 1.1 21.9 1.1 14.5C1.1 7.1 7.1 1.1 14.5 1.1C21.9 1.1 27.9 7.1 27.9 14.5C27.9 21.9 21.9 27.9 14.5 27.9Z" fill="white"/>
<path d="M8.5 12.4C8.7 12.4 8.8 12.3 8.8 12.2C8.8 12.1 8.9 11.9 8.9 11.7V7.59995C8.9 7.39995 8.9 7.19995 8.8 7.09995C8.8 6.99995 8.7 6.99995 8.5 6.99995V5.69995H12.2C12.6 5.69995 12.9 5.79995 13.2 5.89995C13.5 5.99995 13.7 6.19995 13.9 6.39995C14.1 6.59995 14.2 6.79995 14.3 7.09995C14.4 7.39995 14.4 7.69995 14.4 7.99995V8.99995C14.4 9.29995 14.4 9.59995 14.3 9.89995C14.2 10.2 14.1 10.4 13.9 10.6C13.7 10.8 13.5 10.9 13.3 11C13 10.9 12.7 11 12.4 11H10.8V11.7C10.8 11.9 10.8 12.1 10.9 12.2C11 12.3 11.1 12.4 11.2 12.4V13.6H8.5V12.4ZM10.8 9.49995H11.6C11.8 9.49995 11.9 9.49995 12 9.39995C12.1 9.39995 12.2 9.29995 12.3 9.19995C12.4 9.09995 12.4 8.99995 12.5 8.89995C12.6 8.79995 12.5 8.59995 12.5 8.39995C12.5 7.99995 12.4 7.69995 12.3 7.49995C12.2 7.29995 12 7.19995 11.7 7.19995H10.9V9.49995H10.8Z" fill="white"/>
<path d="M20.5 13.1C20.3 13.2 20 13.3 19.8 13.4C19.6 13.5 19.4 13.6 19.2 13.6C19 13.7 18.8 13.7 18.5 13.7C18.3 13.7 18 13.7 17.7 13.7C16.8 13.7 16.1 13.5 15.7 13.2C15.2 12.9 15 12.4 15 11.7V7.5C15 6.8 15.2 6.3 15.7 6C16.2 5.7 16.9 5.5 17.8 5.5C18.3 5.5 18.7 5.6 19.2 5.7C19.6 5.8 20.1 5.9 20.5 6.1V8.1H18.8C18.8 7.9 18.8 7.8 18.7 7.7C18.6 7.6 18.6 7.4 18.5 7.3C18.4 7.2 18.3 7.1 18.2 7.1C18.1 7 18 7 17.8 7C17.5 7 17.3 7.1 17.1 7.3C17 7.5 17 7.8 17 8.2V11.2C17 11.5 17.1 11.8 17.2 11.9C17.3 12.1 17.6 12.1 17.9 12.1C18.2 12.1 18.5 12 18.6 11.8C18.7 11.6 18.8 11.4 18.8 11V10.6H18V9.5H20.5V13.1Z" fill="white"/>
<path d="M9.8999 22.1C10.0999 22.1 10.1999 22 10.2999 21.9C10.3999 21.8 10.3999 21.6 10.3999 21.4V17.3C10.3999 17.1 10.3999 16.9 10.2999 16.8C10.1999 16.7 10.0999 16.6 9.8999 16.6V15.3H12.1999V21.3C12.1999 21.5 12.1999 21.7 12.2999 21.8C12.3999 21.9 12.4999 22 12.6999 22V23.3H9.8999V22.1Z" fill="white"/>
<path d="M13.4999 16C13.9999 15.8 14.3999 15.6 14.8999 15.5C15.3999 15.4 15.7999 15.3 16.2999 15.3C16.6999 15.3 17.0999 15.3 17.4999 15.4C17.7999 15.5 18.0999 15.6 18.3999 15.8C18.6999 16 18.7999 16.2 18.8999 16.5C18.9999 16.8 18.9999 17 18.9999 17.4C18.9999 17.6 18.9999 17.8 18.8999 18C18.7999 18.2 18.6999 18.3 18.5999 18.5C18.4999 18.6 18.2999 18.8 18.0999 18.9C17.8999 19 17.6999 19.1 17.3999 19.2C17.8999 19.3 18.2999 19.6 18.5999 19.9C18.7999 20.2 18.9999 20.7 18.9999 21.2C18.9999 22 18.7999 22.6 18.2999 22.9C17.7999 23.2 17.0999 23.5 16.1999 23.5C15.6999 23.5 15.2999 23.4 14.7999 23.3C14.2999 23.2 13.8999 23 13.3999 22.8V20.9H15.2999C15.2999 21.2 15.3999 21.5 15.4999 21.6C15.5999 21.8 15.7999 21.9 16.0999 21.9C16.3999 21.9 16.5999 21.8 16.7999 21.6C16.9999 21.4 16.9999 21.2 16.9999 20.9C16.9999 20.6 16.8999 20.3 16.7999 20.2C16.6999 20.1 16.3999 20 16.0999 20H14.8999V18.7H15.9999C16.3999 18.7 16.5999 18.6 16.7999 18.5C16.9999 18.4 17.0999 18.1 17.0999 17.8C17.0999 17.7 17.0999 17.5 16.9999 17.4C16.9999 17.3 16.8999 17.2 16.7999 17.1C16.6999 17 16.5999 17 16.4999 16.9C16.3999 16.9 16.2999 16.8 16.0999 16.8C15.7999 16.8 15.5999 16.9 15.4999 17.1C15.3999 17.3 15.2999 17.5 15.2999 17.8H13.4999V16Z" fill="white"/>
</symbol><symbol id="room_details-connections" viewBox="0 0 29 29">
<path d="M14.5 0C6.5 0 0 6.5 0 14.5C0 22.5 6.5 29 14.5 29C22.5 29 29 22.5 29 14.5C29 6.5 22.5 0 14.5 0ZM14.5 27.9C7.1 27.9 1.1 21.9 1.1 14.5C1.1 7.1 7.1 1.1 14.5 1.1C21.9 1.1 27.9 7.1 27.9 14.5C27.9 21.9 21.9 27.9 14.5 27.9Z" fill="white"/>
<path d="M8.79985 8.70005C9.73874 8.70005 10.4999 7.93893 10.4999 7.00005C10.4999 6.06116 9.73874 5.30005 8.79985 5.30005C7.86097 5.30005 7.09985 6.06116 7.09985 7.00005C7.09985 7.93893 7.86097 8.70005 8.79985 8.70005Z" fill="white"/>
<path d="M8.8 17C8.1 17 7.5 16.4 7.5 15.7V10.6C7.5 9.90005 8.1 9.30005 8.8 9.30005C9.5 9.30005 10.1 9.90005 10.1 10.6V15.7C10.1 16.4 9.5 17 8.8 17Z" fill="white"/>
<path d="M6.19993 22.8C6.09993 22.8 5.99994 22.8 5.89994 22.7C5.49994 22.5 5.39994 22.1 5.49994 21.7L6.99994 18.6L7.79994 14.8C7.89994 14.4 8.29993 14.1 8.69993 14.2C9.09994 14.3 9.39994 14.7 9.29994 15.1L8.39993 19C8.39993 19.1 8.39994 19.1 8.29994 19.2L6.79994 22.4C6.69994 22.6 6.49993 22.8 6.19993 22.8Z" fill="white"/>
<path d="M10.1 22.8C9.7 22.8 9.4 22.5 9.4 22.1V18.9L8.4 15.1C8.3 14.7 8.5 14.3 8.9 14.2C9.3 14.1 9.7 14.3 9.8 14.7L10.8 18.6C10.8 18.7 10.8 18.7 10.8 18.8V22C10.9 22.4 10.5 22.8 10.1 22.8Z" fill="white"/>
<path d="M6.2 16.6001C5.8 16.6001 5.5 16.3001 5.5 15.9001V12.2001C5.5 12.0001 5.6 11.8001 5.8 11.6001L7.9 9.90013C8.1 9.60013 8.6 9.70013 8.9 10.0001C9.2 10.3001 9.1 10.8001 8.8 11.1001L7 12.6001V15.9001C6.9 16.3001 6.6 16.6001 6.2 16.6001Z" fill="white"/>
<path d="M13.8998 8.40015C13.6998 8.00015 13.7998 7.60015 14.1998 7.40015H14.2998C13.9998 7.40015 13.6998 7.50015 13.5998 7.80015L11.8998 10.9001L9.49985 9.90015C9.09985 9.70015 8.69985 9.90015 8.49985 10.3001C8.29985 10.7001 8.49985 11.1001 8.89985 11.3001L11.8998 12.5001C11.9998 12.5001 12.0998 12.6001 12.1998 12.6001C12.4998 12.6001 12.6998 12.5001 12.8998 12.2001L14.4998 9.40015L13.8998 8.40015Z" fill="white"/>
<path d="M20.7999 8.70005C21.7387 8.70005 22.4999 7.93893 22.4999 7.00005C22.4999 6.06116 21.7387 5.30005 20.7999 5.30005C19.861 5.30005 19.0999 6.06116 19.0999 7.00005C19.0999 7.93893 19.861 8.70005 20.7999 8.70005Z" fill="white"/>
<path d="M17.5 12.5C17.2 12.5 17 12.4 16.8 12.1L14.8 8.40005C14.6 8.00005 14.7 7.60005 15.1 7.40005C15.5 7.20005 15.9 7.30005 16.1 7.70005L17.8 10.8L20.2 9.80005C20.6 9.60005 21 9.80005 21.2 10.2C21.4 10.6 21.2 11 20.8 11.2L17.8 12.4C17.7 12.5 17.6 12.5 17.5 12.5Z" fill="white"/>
<path d="M20.8 17C20.1 17 19.5 16.4 19.5 15.7V10.6C19.5 9.90005 20.1 9.30005 20.8 9.30005C21.5 9.30005 22.1 9.90005 22.1 10.6V15.7C22.1 16.4 21.5 17 20.8 17Z" fill="white"/>
<path d="M23.3999 22.8C23.0999 22.8 22.8999 22.6 22.6999 22.4L21.1999 19.2C21.1999 19.1 21.1999 19.1 21.0999 19L20.2999 15.1C20.1999 14.7 20.4999 14.3 20.8999 14.2C21.2999 14.1 21.6999 14.4 21.7999 14.8L22.5999 18.6L24.0999 21.7C24.2999 22.1 24.0999 22.5 23.6999 22.7C23.6999 22.8 23.4999 22.8 23.3999 22.8Z" fill="white"/>
<path d="M19.4998 22.8C19.0998 22.8 18.7998 22.5 18.7998 22.1V18.8C18.7998 18.7 18.7998 18.7 18.7998 18.6L19.7998 14.7C19.8998 14.3 20.2998 14.1 20.6998 14.2C21.0998 14.3 21.2998 14.7 21.1998 15.1L20.1998 18.9V22C20.1998 22.4 19.8998 22.8 19.4998 22.8Z" fill="white"/>
<path d="M23.4999 16.6001C23.0999 16.6001 22.7999 16.3001 22.7999 15.9001V12.6001L20.9999 11.1001C20.6999 10.8001 20.5999 10.4001 20.8999 10.0001C21.1999 9.70013 21.5999 9.60013 21.9999 9.90013L24.0999 11.6001C24.2999 11.7001 24.3999 12.0001 24.3999 12.2001V15.9001C24.1999 16.3001 23.8999 16.6001 23.4999 16.6001Z" fill="white"/>
<path d="M14.6 6.70005C14.4 6.70005 14.2 6.50005 14.2 6.30005V4.20005C14.2 4.00005 14.4 3.80005 14.6 3.80005C14.8 3.80005 15 4.00005 15 4.20005V6.40005C15 6.60005 14.8 6.70005 14.6 6.70005Z" fill="white"/>
<path d="M15.8999 6.90012C15.6999 6.80012 15.5999 6.60012 15.6999 6.40012L16.5999 4.40012C16.6999 4.20012 16.8999 4.10012 17.0999 4.20012C17.2999 4.30012 17.3999 4.50012 17.2999 4.70012L16.3999 6.70012C16.2999 6.90012 16.0999 7.00012 15.8999 6.90012Z" fill="white"/>
<path d="M13.3999 6.90012C13.5999 6.80012 13.6999 6.60012 13.5999 6.40012L12.6999 4.40012C12.5999 4.20012 12.3999 4.10012 12.1999 4.20012C11.9999 4.30012 11.8999 4.50012 11.9999 4.70012L12.8999 6.70012C12.9999 6.90012 13.1999 7.00012 13.3999 6.90012Z" fill="white"/>
</symbol><symbol id="room_details-feature" viewBox="0 0 29 29">
<path d="M24.7072 3.98658L3.4519 22.9733L4.18472 23.7936L25.44 4.80696L24.7072 3.98658Z" fill="white"/>
<path d="M17.2999 13.3999L14.3999 15.9999C15.6999 16.4999 16.1999 17.0999 16.1999 17.8999C16.1999 18.8999 15.1999 19.4999 13.7999 19.4999C12.7999 19.4999 11.8999 19.2999 11.0999 18.9999L8.9999 20.8999L8.8999 21.2999C9.8999 21.8999 11.4999 22.2999 13.1999 22.3999V24.7999H15.6999V22.1999C18.5999 21.6999 20.1999 19.7999 20.1999 17.4999C20.0999 15.6999 19.2999 14.3999 17.2999 13.3999Z" fill="white"/>
<path d="M11.3 14.7L14.2 12.1C13.3 11.6 12.9 11.2 12.9 10.7C12.9 9.99995 13.4 9.29995 15.1 9.29995C15.9 9.29995 16.5 9.39995 17.1 9.59995L19.4 7.49995V7.29995C18.6 6.89995 17.4 6.49995 15.7 6.49995V4.19995H13.2V6.59995C10.6 7.19995 9 8.89995 9 11.1C9 12.8 9.9 13.9 11.3 14.7Z" fill="white"/>
<path d="M14.5 0C6.5 0 0 6.5 0 14.5C0 22.5 6.5 29 14.5 29C22.5 29 29 22.5 29 14.5C29 6.5 22.5 0 14.5 0ZM14.5 27.9C7.1 27.9 1.1 21.9 1.1 14.5C1.1 7.1 7.1 1.1 14.5 1.1C21.9 1.1 27.9 7.1 27.9 14.5C27.9 21.9 21.9 27.9 14.5 27.9Z" fill="white"/>
</symbol></svg>