<?xml version="1.0" encoding="utf-8"?>
<!-- Generator: Adobe Illustrator 22.1.0, SVG Export Plug-In . SVG Version: 6.00 Build 0)  -->
<svg version="1.1" id="Layer_1" xmlns="http://www.w3.org/2000/svg" xmlns:xlink="http://www.w3.org/1999/xlink" x="0px" y="0px"
	 viewBox="0 0 640.8 139" style="enable-background:new 0 0 640.8 139;" xml:space="preserve">
<style type="text/css">
	.st0{fill:#B7B7B7;}
</style>
<g>
	<path class="st0" d="M11.2,116.5l11.3-8.3c0.3-0.2,0.4-0.5,0.5-0.8c0.1-0.3,0-0.6-0.2-0.9l-0.6-0.8c-0.4-0.5-1.2-0.7-1.7-0.3
		l-9.4,7l-6.9-9.5c-0.2-0.3-0.5-0.4-0.8-0.5c-0.3,0-0.6,0-0.9,0.2l-0.8,0.6c-0.3,0.2-0.4,0.5-0.5,0.8c-0.1,0.3,0,0.6,0.2,0.9
		l8.2,11.3c0.2,0.3,0.5,0.4,0.8,0.5C10.6,116.7,11,116.7,11.2,116.5z"/>
	<g>
		<g>
			<path class="st0" d="M625.3,66L625.3,66c-1.4,0-2.8-0.2-4.2-0.6c-0.5-0.2-0.8-0.7-0.6-1.3c0.2-0.5,0.7-0.8,1.3-0.6
				c1.1,0.4,2.3,0.6,3.5,0.6c0.6,0,1,0.4,1,1S625.8,66,625.3,66z M630.9,64.6c-0.4,0-0.7-0.2-0.9-0.5c-0.3-0.5-0.1-1.1,0.4-1.3
				c1.1-0.6,2.1-1.3,2.9-2.1c0.4-0.4,1-0.4,1.4,0c0.4,0.4,0.4,1,0,1.4c-1,1-2.1,1.8-3.4,2.5C631.3,64.6,631.1,64.6,630.9,64.6z
				 M616.4,62.4c-0.3,0-0.5-0.1-0.7-0.3c-1-1-1.8-2.1-2.5-3.4c-0.3-0.5-0.1-1.1,0.4-1.3c0.5-0.3,1.1-0.1,1.3,0.4
				c0.6,1.1,1.3,2,2.1,2.9c0.4,0.4,0.4,1,0,1.4C616.9,62.3,616.7,62.4,616.4,62.4z M637.1,57.3c-0.1,0-0.2,0-0.3,0
				c-0.5-0.2-0.8-0.7-0.6-1.3c0.4-1.1,0.6-2.3,0.6-3.5c0-0.6,0.4-1,1-1s1,0.4,1,1v0c0,1.4-0.2,2.8-0.7,4.2
				C638,57.1,637.6,57.3,637.1,57.3z M612.8,53.5c-0.6,0-1-0.4-1-1v0c0-1.4,0.2-2.8,0.6-4.1c0.2-0.5,0.7-0.8,1.3-0.6
				c0.5,0.2,0.8,0.7,0.6,1.3c-0.4,1.1-0.5,2.3-0.5,3.5C613.8,53.1,613.3,53.5,612.8,53.5z M636.4,47.8c-0.4,0-0.7-0.2-0.9-0.5
				c-0.5-1.1-1.3-2.1-2.1-2.9c-0.4-0.4-0.4-1,0-1.4c0.4-0.4,1-0.4,1.4,0c1,1,1.8,2.2,2.5,3.4c0.3,0.5,0.1,1.1-0.4,1.3
				C636.7,47.8,636.5,47.8,636.4,47.8z M616.4,44.7c-0.3,0-0.5-0.1-0.7-0.3c-0.4-0.4-0.4-1,0-1.4c1-1,2.1-1.8,3.4-2.5
				c0.5-0.3,1.1-0.1,1.3,0.4c0.3,0.5,0.1,1.1-0.4,1.3c-1.1,0.6-2,1.3-2.9,2.1C616.9,44.6,616.6,44.7,616.4,44.7z M629.1,41.6
				c-0.1,0-0.2,0-0.3,0c-1.1-0.4-2.3-0.6-3.6-0.6c-0.6,0-1-0.4-1-1s0.4-1,1-1h0.1c1.4,0,2.8,0.2,4.2,0.7c0.5,0.2,0.8,0.7,0.6,1.3
				C629.9,41.3,629.5,41.6,629.1,41.6z"/>
		</g>
	</g>
	<g>
		<g>
			<path class="st0" d="M485.9,137.5c-0.5,0-1-0.4-1-1c0-0.6,0.4-1,1-1c1.3,0,2.6-0.1,4-0.1c0.6,0,1,0.4,1,1c0,0.6-0.4,1-1,1
				C488.6,137.5,487.3,137.5,485.9,137.5C485.9,137.5,485.9,137.5,485.9,137.5z M479.9,137.5C479.9,137.5,479.9,137.5,479.9,137.5
				c-1.4,0-2.7-0.1-4-0.1c-0.6,0-1-0.5-1-1c0-0.6,0.5-1,1-1c1.3,0.1,2.6,0.1,4,0.1c0.6,0,1,0.5,1,1
				C480.9,137.1,480.5,137.5,479.9,137.5z M495.9,137.1c-0.5,0-1-0.4-1-0.9c0-0.6,0.4-1,0.9-1.1c1.3-0.1,2.6-0.2,4-0.3
				c0.6-0.1,1,0.4,1.1,0.9c0.1,0.6-0.4,1-0.9,1.1C498.6,136.9,497.3,137,495.9,137.1C495.9,137.1,495.9,137.1,495.9,137.1z
				 M470,137.1C469.9,137.1,469.9,137.1,470,137.1c-1.4-0.1-2.7-0.2-4.1-0.3c-0.5-0.1-1-0.5-0.9-1.1c0.1-0.5,0.6-0.9,1.1-0.9
				c1.3,0.1,2.6,0.2,4,0.3c0.6,0,1,0.5,0.9,1.1C470.9,136.7,470.5,137.1,470,137.1z M505.8,136.1c-0.5,0-0.9-0.4-1-0.9
				c-0.1-0.5,0.3-1,0.9-1.1c1.3-0.2,2.6-0.3,3.9-0.5c0.5-0.1,1.1,0.3,1.1,0.8c0.1,0.5-0.3,1.1-0.8,1.1c-1.3,0.2-2.6,0.4-4,0.5
				C505.9,136.1,505.9,136.1,505.8,136.1z M460,136c0,0-0.1,0-0.1,0c-1.3-0.2-2.7-0.4-4-0.6c-0.5-0.1-0.9-0.6-0.8-1.1
				c0.1-0.5,0.6-0.9,1.1-0.8c1.3,0.2,2.6,0.4,3.9,0.6c0.5,0.1,0.9,0.6,0.9,1.1C461,135.7,460.5,136,460,136z M515.7,134.6
				c-0.5,0-0.9-0.3-1-0.8c-0.1-0.5,0.3-1.1,0.8-1.2c1.3-0.2,2.6-0.5,3.9-0.7c0.5-0.1,1.1,0.2,1.2,0.8s-0.2,1.1-0.8,1.2
				c-1.3,0.3-2.6,0.5-3.9,0.7C515.8,134.6,515.7,134.6,515.7,134.6z M450.2,134.4c-0.1,0-0.1,0-0.2,0c-1.3-0.3-2.6-0.5-3.9-0.8
				c-0.5-0.1-0.9-0.7-0.8-1.2c0.1-0.5,0.7-0.9,1.2-0.8c1.3,0.3,2.6,0.6,3.9,0.8c0.5,0.1,0.9,0.6,0.8,1.2
				C451.1,134.1,450.7,134.4,450.2,134.4z M525.5,132.7c-0.5,0-0.9-0.3-1-0.8c-0.1-0.5,0.2-1.1,0.8-1.2c1.3-0.3,2.6-0.6,3.9-0.9
				c0.5-0.1,1.1,0.2,1.2,0.7c0.1,0.5-0.2,1.1-0.7,1.2c-1.3,0.3-2.6,0.6-3.9,0.9C525.6,132.7,525.5,132.7,525.5,132.7z M440.5,132.2
				c-0.1,0-0.2,0-0.3,0c-1.3-0.3-2.6-0.7-3.9-1.1c-0.5-0.2-0.8-0.7-0.7-1.2c0.2-0.5,0.7-0.8,1.2-0.7c1.3,0.4,2.5,0.7,3.8,1.1
				c0.5,0.1,0.9,0.7,0.7,1.2C441.3,131.9,440.9,132.2,440.5,132.2z M535.1,130.2c-0.4,0-0.8-0.3-1-0.7c-0.2-0.5,0.2-1.1,0.7-1.2
				c1.3-0.4,2.5-0.7,3.8-1.1c0.5-0.2,1.1,0.1,1.2,0.7c0.2,0.5-0.1,1.1-0.7,1.2c-1.3,0.4-2.6,0.8-3.9,1.1
				C535.3,130.2,535.2,130.2,535.1,130.2z M430.9,129.3c-0.1,0-0.2,0-0.3-0.1c-1.3-0.4-2.5-0.9-3.8-1.3c-0.5-0.2-0.8-0.8-0.6-1.3
				c0.2-0.5,0.8-0.8,1.3-0.6c1.2,0.5,2.5,0.9,3.7,1.3c0.5,0.2,0.8,0.7,0.6,1.3C431.7,129.1,431.3,129.3,430.9,129.3z M544.6,127.2
				c-0.4,0-0.8-0.3-0.9-0.7c-0.2-0.5,0.1-1.1,0.6-1.3c1.3-0.4,2.5-0.9,3.7-1.3c0.5-0.2,1.1,0.1,1.3,0.6s-0.1,1.1-0.6,1.3
				c-1.3,0.5-2.5,0.9-3.8,1.3C544.9,127.2,544.8,127.2,544.6,127.2z M421.6,125.8c-0.1,0-0.3,0-0.4-0.1c-1.2-0.5-2.5-1-3.7-1.6
				c-0.5-0.2-0.7-0.8-0.5-1.3c0.2-0.5,0.8-0.7,1.3-0.5c1.2,0.5,2.4,1.1,3.6,1.6c0.5,0.2,0.8,0.8,0.5,1.3
				C422.3,125.6,421.9,125.8,421.6,125.8z M554,123.7c-0.4,0-0.8-0.2-0.9-0.6c-0.2-0.5,0-1.1,0.6-1.3c1.2-0.5,2.5-1,3.7-1.5
				c0.5-0.2,1.1,0,1.3,0.5c0.2,0.5,0,1.1-0.5,1.3c-1.2,0.5-2.5,1-3.7,1.5C554.3,123.7,554.1,123.7,554,123.7z M412.5,121.7
				c-0.2,0-0.3,0-0.4-0.1c-1.2-0.6-2.4-1.2-3.6-1.8c-0.5-0.3-0.7-0.9-0.4-1.4c0.3-0.5,0.9-0.7,1.4-0.4c1.2,0.6,2.3,1.2,3.5,1.8
				c0.5,0.2,0.7,0.8,0.4,1.3C413.2,121.5,412.9,121.7,412.5,121.7z M563.2,119.8c-0.4,0-0.7-0.2-0.9-0.6c-0.2-0.5,0-1.1,0.5-1.3
				c1.2-0.6,2.4-1.1,3.6-1.7c0.5-0.2,1.1,0,1.3,0.5s0,1.1-0.5,1.3c-1.2,0.6-2.4,1.2-3.6,1.7C563.5,119.7,563.3,119.8,563.2,119.8z
				 M403.7,116.9c-0.2,0-0.4,0-0.5-0.1c-1.1-0.7-2.3-1.4-3.4-2.1c-0.5-0.3-0.6-0.9-0.3-1.4c0.3-0.5,0.9-0.6,1.4-0.3
				c1.1,0.7,2.2,1.4,3.4,2.1c0.5,0.3,0.6,0.9,0.3,1.4C404.4,116.7,404.1,116.9,403.7,116.9z M572.1,115.3c-0.4,0-0.7-0.2-0.9-0.5
				c-0.3-0.5-0.1-1.1,0.4-1.4c1.2-0.6,2.3-1.3,3.5-1.9c0.5-0.3,1.1-0.1,1.4,0.4c0.3,0.5,0.1,1.1-0.4,1.4c-1.2,0.7-2.3,1.3-3.5,2
				C572.4,115.2,572.3,115.3,572.1,115.3z M395.4,111.5c-0.2,0-0.4-0.1-0.6-0.2c-1.1-0.8-2.2-1.6-3.3-2.4c-0.4-0.3-0.5-1-0.2-1.4
				c0.3-0.4,1-0.5,1.4-0.2c1.1,0.8,2.1,1.6,3.2,2.3c0.5,0.3,0.6,0.9,0.2,1.4C396,111.3,395.7,111.5,395.4,111.5z M580.7,110.3
				c-0.3,0-0.7-0.2-0.9-0.5c-0.3-0.5-0.1-1.1,0.3-1.4c1.1-0.7,2.2-1.4,3.3-2.1c0.5-0.3,1.1-0.2,1.4,0.3c0.3,0.5,0.2,1.1-0.3,1.4
				c-1.1,0.7-2.2,1.5-3.4,2.2C581.1,110.2,580.9,110.3,580.7,110.3z M387.4,105.5c-0.2,0-0.4-0.1-0.6-0.2c-1-0.8-2.1-1.7-3.1-2.6
				c-0.4-0.4-0.5-1-0.1-1.4c0.4-0.4,1-0.5,1.4-0.1c1,0.9,2,1.7,3,2.6c0.4,0.3,0.5,1,0.1,1.4C388,105.3,387.7,105.5,387.4,105.5z
				 M589,104.7c-0.3,0-0.6-0.1-0.8-0.4c-0.3-0.4-0.2-1.1,0.2-1.4c1.1-0.8,2.1-1.6,3.2-2.4c0.4-0.3,1.1-0.3,1.4,0.2
				c0.3,0.4,0.3,1.1-0.2,1.4c-1.1,0.8-2.1,1.6-3.2,2.4C589.4,104.7,589.2,104.7,589,104.7z M14.2,100.1c-0.1,0-0.2,0-0.3-0.1
				c-0.5-0.2-0.8-0.7-0.6-1.3c0.4-1.3,0.9-2.5,1.4-3.8c0.2-0.5,0.8-0.8,1.3-0.6c0.5,0.2,0.8,0.8,0.6,1.3c-0.5,1.2-0.9,2.5-1.3,3.7
				C15,99.9,14.6,100.1,14.2,100.1z M379.9,98.9c-0.2,0-0.5-0.1-0.7-0.3c-1-0.9-1.9-1.9-2.9-2.8c-0.4-0.4-0.4-1,0-1.4
				c0.4-0.4,1-0.4,1.4,0c0.9,0.9,1.9,1.9,2.8,2.8c0.4,0.4,0.4,1,0,1.4C380.4,98.8,380.2,98.9,379.9,98.9z M596.9,98.6
				c-0.3,0-0.6-0.1-0.8-0.4c-0.4-0.4-0.3-1.1,0.1-1.4c1-0.9,2-1.7,3-2.6c0.4-0.4,1-0.3,1.4,0.1c0.4,0.4,0.3,1-0.1,1.4
				c-1,0.9-2,1.8-3,2.6C597.4,98.5,597.1,98.6,596.9,98.6z M604.3,91.9c-0.3,0-0.5-0.1-0.7-0.3c-0.4-0.4-0.4-1,0-1.4
				c0.9-0.9,1.9-1.9,2.8-2.8c0.4-0.4,1-0.4,1.4,0c0.4,0.4,0.4,1,0,1.4c-0.9,1-1.8,1.9-2.8,2.9C604.8,91.8,604.5,91.9,604.3,91.9z
				 M372.9,91.7c-0.3,0-0.5-0.1-0.7-0.3c-0.9-1-1.8-2-2.7-3c-0.4-0.4-0.3-1,0.1-1.4c0.4-0.4,1-0.3,1.4,0.1c0.9,1,1.7,2,2.6,3
				c0.4,0.4,0.3,1-0.1,1.4C373.4,91.7,373.1,91.7,372.9,91.7z M17.7,90.8c-0.1,0-0.3,0-0.4-0.1c-0.5-0.2-0.7-0.8-0.5-1.3
				c0.5-1.2,1.1-2.5,1.7-3.7c0.2-0.5,0.8-0.7,1.3-0.5c0.5,0.2,0.7,0.8,0.5,1.3c-0.6,1.2-1.1,2.4-1.6,3.6
				C18.5,90.6,18.1,90.8,17.7,90.8z M611,84.5c-0.2,0-0.5-0.1-0.6-0.2c-0.4-0.4-0.5-1-0.1-1.4c0.8-1,1.7-2.1,2.5-3.1
				c0.3-0.4,1-0.5,1.4-0.2c0.4,0.3,0.5,1,0.2,1.4c-0.8,1.1-1.6,2.1-2.5,3.2C611.6,84.4,611.3,84.5,611,84.5z M366.4,84.2
				c-0.3,0-0.6-0.1-0.8-0.3c-0.9-1-1.7-2-2.6-3c-0.4-0.4-0.3-1,0.1-1.4c0.4-0.4,1-0.3,1.4,0.1c0.9,1,1.8,2,2.7,3
				c0.4,0.4,0.3,1-0.1,1.4C366.8,84.1,366.6,84.2,366.4,84.2z M22.1,81.8c-0.2,0-0.3,0-0.5-0.1c-0.5-0.3-0.7-0.9-0.4-1.4
				c0.6-1.2,1.3-2.4,1.9-3.5c0.3-0.5,0.9-0.6,1.4-0.4c0.5,0.3,0.6,0.9,0.4,1.4c-0.7,1.1-1.3,2.3-1.9,3.5
				C22.8,81.6,22.4,81.8,22.1,81.8z M359.6,76.8c-0.3,0-0.5-0.1-0.7-0.3c-0.9-1-1.8-1.9-2.8-2.8c-0.4-0.4-0.4-1,0-1.4
				c0.4-0.4,1-0.4,1.4,0c0.9,0.9,1.9,1.9,2.8,2.9c0.4,0.4,0.4,1,0,1.4C360.1,76.7,359.9,76.8,359.6,76.8z M617,76.5
				c-0.2,0-0.4-0.1-0.5-0.2c-0.5-0.3-0.6-0.9-0.3-1.4c0.7-1.1,1.4-2.2,2.1-3.3c0.3-0.5,0.9-0.6,1.4-0.4c0.5,0.3,0.6,0.9,0.4,1.4
				c-0.7,1.1-1.4,2.3-2.1,3.4C617.6,76.3,617.3,76.5,617,76.5z M27.1,73.2c-0.2,0-0.4-0.1-0.5-0.2c-0.5-0.3-0.6-0.9-0.3-1.4
				c0.7-1.1,1.5-2.3,2.2-3.4c0.3-0.5,0.9-0.6,1.4-0.3c0.5,0.3,0.6,0.9,0.3,1.4c-0.7,1.1-1.5,2.2-2.2,3.3
				C27.7,73.1,27.4,73.2,27.1,73.2z M352.5,69.8c-0.2,0-0.5-0.1-0.7-0.3c-1-0.9-1.9-1.8-2.9-2.7c-0.4-0.4-0.4-1-0.1-1.4
				c0.4-0.4,1-0.4,1.4-0.1c1,0.9,2,1.8,3,2.7c0.4,0.4,0.4,1,0,1.4C353.1,69.7,352.8,69.8,352.5,69.8z M32.8,65
				c-0.2,0-0.4-0.1-0.6-0.2c-0.4-0.3-0.5-1-0.2-1.4c0.8-1.1,1.6-2.1,2.5-3.2c0.3-0.4,1-0.5,1.4-0.1c0.4,0.3,0.5,1,0.1,1.4
				c-0.8,1-1.6,2.1-2.4,3.1C33.4,64.9,33.1,65,32.8,65z M345.1,63.2c-0.2,0-0.5-0.1-0.6-0.2c-1-0.9-2-1.7-3-2.5
				c-0.4-0.3-0.5-1-0.1-1.4c0.3-0.4,1-0.5,1.4-0.1c1,0.8,2.1,1.7,3.1,2.6c0.4,0.4,0.5,1,0.1,1.4C345.6,63.1,345.4,63.2,345.1,63.2z
				 M39.1,57.4c-0.2,0-0.5-0.1-0.7-0.3c-0.4-0.4-0.4-1-0.1-1.4c0.9-1,1.8-2,2.7-3c0.4-0.4,1-0.4,1.4,0c0.4,0.4,0.4,1,0,1.4
				c-0.9,1-1.8,1.9-2.7,2.9C39.7,57.2,39.4,57.4,39.1,57.4z M337.3,56.9c-0.2,0-0.4-0.1-0.6-0.2c-1-0.8-2.1-1.6-3.2-2.4
				c-0.4-0.3-0.5-1-0.2-1.4c0.3-0.4,1-0.5,1.4-0.2c1.1,0.8,2.1,1.6,3.2,2.4c0.4,0.3,0.5,1,0.2,1.4C337.9,56.8,337.6,56.9,337.3,56.9
				z M329.3,51c-0.2,0-0.4-0.1-0.6-0.2c-1.1-0.8-2.2-1.5-3.3-2.3c-0.5-0.3-0.6-0.9-0.3-1.4c0.3-0.5,0.9-0.6,1.4-0.3
				c1.1,0.7,2.2,1.5,3.3,2.3c0.5,0.3,0.6,0.9,0.2,1.4C329.9,50.9,329.6,51,329.3,51z M46.1,50.2c-0.3,0-0.5-0.1-0.7-0.3
				c-0.4-0.4-0.4-1,0-1.4c1-0.9,2-1.8,2.9-2.7c0.4-0.4,1-0.3,1.4,0.1c0.4,0.4,0.3,1-0.1,1.4c-1,0.9-2,1.8-2.9,2.7
				C46.6,50.1,46.3,50.2,46.1,50.2z M321,45.5c-0.2,0-0.4-0.1-0.5-0.2c-1.1-0.7-2.2-1.4-3.4-2.1c-0.5-0.3-0.6-0.9-0.3-1.4
				c0.3-0.5,0.9-0.6,1.4-0.3c1.1,0.7,2.3,1.4,3.4,2.1c0.5,0.3,0.6,0.9,0.3,1.4C321.7,45.3,321.3,45.5,321,45.5z M53.6,43.6
				c-0.3,0-0.6-0.1-0.8-0.4c-0.4-0.4-0.3-1.1,0.1-1.4c1-0.9,2.1-1.7,3.1-2.5c0.4-0.3,1.1-0.3,1.4,0.2c0.3,0.4,0.3,1.1-0.2,1.4
				c-1,0.8-2.1,1.6-3.1,2.5C54,43.5,53.8,43.6,53.6,43.6z M312.5,40.3c-0.2,0-0.3,0-0.5-0.1c-1.1-0.7-2.3-1.3-3.5-2
				c-0.5-0.3-0.7-0.9-0.4-1.4c0.3-0.5,0.9-0.7,1.4-0.4c1.2,0.7,2.3,1.3,3.5,2c0.5,0.3,0.6,0.9,0.4,1.4
				C313.2,40.1,312.8,40.3,312.5,40.3z M61.5,37.5c-0.3,0-0.6-0.1-0.8-0.4c-0.3-0.5-0.2-1.1,0.2-1.4c1.1-0.8,2.2-1.5,3.3-2.3
				c0.5-0.3,1.1-0.2,1.4,0.3s0.2,1.1-0.3,1.4c-1.1,0.7-2.2,1.5-3.3,2.3C61.9,37.4,61.7,37.5,61.5,37.5z M303.8,35.4
				c-0.2,0-0.3,0-0.5-0.1c-1.2-0.6-2.3-1.2-3.5-1.8c-0.5-0.2-0.7-0.9-0.4-1.3c0.2-0.5,0.9-0.7,1.3-0.4c1.2,0.6,2.4,1.2,3.6,1.8
				c0.5,0.3,0.7,0.9,0.4,1.4C304.5,35.2,304.1,35.4,303.8,35.4z M69.8,32c-0.3,0-0.7-0.2-0.9-0.5c-0.3-0.5-0.1-1.1,0.3-1.4
				c1.1-0.7,2.3-1.4,3.5-2.1c0.5-0.3,1.1-0.1,1.4,0.4c0.3,0.5,0.1,1.1-0.4,1.4c-1.1,0.7-2.3,1.3-3.4,2C70.2,31.9,70,32,69.8,32z
				 M294.9,31c-0.1,0-0.3,0-0.4-0.1c-1.2-0.6-2.4-1.1-3.6-1.7c-0.5-0.2-0.7-0.8-0.5-1.3c0.2-0.5,0.8-0.7,1.3-0.5
				c1.2,0.6,2.4,1.1,3.6,1.7c0.5,0.2,0.7,0.8,0.5,1.3C295.6,30.8,295.2,31,294.9,31z M78.5,27c-0.4,0-0.7-0.2-0.9-0.5
				c-0.3-0.5-0.1-1.1,0.4-1.4c1.2-0.6,2.4-1.2,3.6-1.8c0.5-0.2,1.1,0,1.3,0.4c0.2,0.5,0,1.1-0.4,1.3c-1.2,0.6-2.4,1.2-3.5,1.8
				C78.8,27,78.7,27,78.5,27z M285.8,26.8c-0.1,0-0.3,0-0.4-0.1c-1.2-0.5-2.4-1-3.7-1.5c-0.5-0.2-0.8-0.8-0.5-1.3
				c0.2-0.5,0.8-0.8,1.3-0.5c1.2,0.5,2.5,1,3.7,1.6c0.5,0.2,0.7,0.8,0.5,1.3C286.5,26.6,286.2,26.8,285.8,26.8z M276.5,23.1
				c-0.1,0-0.2,0-0.4-0.1c-1.2-0.5-2.5-0.9-3.7-1.4c-0.5-0.2-0.8-0.8-0.6-1.3c0.2-0.5,0.8-0.8,1.3-0.6c1.3,0.5,2.5,0.9,3.7,1.4
				c0.5,0.2,0.8,0.8,0.6,1.3C277.3,22.8,276.9,23.1,276.5,23.1z M87.5,22.6c-0.4,0-0.7-0.2-0.9-0.6c-0.2-0.5,0-1.1,0.5-1.3
				c1.2-0.6,2.4-1.1,3.7-1.6c0.5-0.2,1.1,0,1.3,0.5c0.2,0.5,0,1.1-0.5,1.3c-1.2,0.5-2.4,1.1-3.6,1.6C87.7,22.6,87.6,22.6,87.5,22.6z
				 M267.2,19.6c-0.1,0-0.2,0-0.3-0.1c-1.3-0.4-2.5-0.9-3.8-1.3c-0.5-0.2-0.8-0.7-0.6-1.3c0.2-0.5,0.7-0.8,1.3-0.6
				c1.3,0.4,2.5,0.8,3.8,1.3c0.5,0.2,0.8,0.7,0.6,1.3C268,19.4,267.6,19.6,267.2,19.6z M96.7,18.8c-0.4,0-0.8-0.2-0.9-0.6
				c-0.2-0.5,0.1-1.1,0.6-1.3c1.2-0.5,2.5-1,3.8-1.4c0.5-0.2,1.1,0.1,1.3,0.6c0.2,0.5-0.1,1.1-0.6,1.3c-1.2,0.5-2.5,0.9-3.7,1.4
				C96.9,18.7,96.8,18.8,96.7,18.8z M257.7,16.6c-0.1,0-0.2,0-0.3,0c-1.3-0.4-2.5-0.8-3.8-1.1c-0.5-0.2-0.8-0.7-0.7-1.2
				c0.2-0.5,0.7-0.8,1.2-0.7c1.3,0.4,2.6,0.7,3.8,1.1c0.5,0.2,0.8,0.7,0.7,1.2C258.5,16.3,258.1,16.6,257.7,16.6z M106.1,15.4
				c-0.4,0-0.8-0.3-0.9-0.7c-0.2-0.5,0.1-1.1,0.6-1.3c1.3-0.4,2.5-0.8,3.8-1.2c0.5-0.2,1.1,0.1,1.2,0.7c0.2,0.5-0.1,1.1-0.7,1.2
				c-1.3,0.4-2.5,0.8-3.8,1.2C106.3,15.4,106.2,15.4,106.1,15.4z M248.1,13.8c-0.1,0-0.2,0-0.3,0c-1.3-0.3-2.6-0.7-3.9-1
				c-0.5-0.1-0.9-0.7-0.7-1.2c0.1-0.5,0.7-0.9,1.2-0.7c1.3,0.3,2.6,0.7,3.9,1c0.5,0.1,0.9,0.7,0.7,1.2
				C248.9,13.5,248.5,13.8,248.1,13.8z M115.6,12.5c-0.4,0-0.8-0.3-1-0.7c-0.1-0.5,0.2-1.1,0.7-1.2c1.3-0.4,2.6-0.7,3.9-1
				c0.5-0.1,1.1,0.2,1.2,0.7c0.1,0.5-0.2,1.1-0.7,1.2c-1.3,0.3-2.6,0.7-3.8,1C115.8,12.5,115.7,12.5,115.6,12.5z M238.3,11.5
				c-0.1,0-0.1,0-0.2,0c-1.3-0.3-2.6-0.6-3.9-0.9c-0.5-0.1-0.9-0.6-0.8-1.2c0.1-0.5,0.6-0.9,1.2-0.8c1.3,0.3,2.6,0.6,3.9,0.9
				c0.5,0.1,0.9,0.7,0.8,1.2C239.2,11.1,238.8,11.5,238.3,11.5z M125.3,10.1c-0.5,0-0.9-0.3-1-0.8c-0.1-0.5,0.2-1.1,0.8-1.2
				c1.3-0.3,2.6-0.6,3.9-0.8c0.5-0.1,1.1,0.2,1.2,0.8c0.1,0.5-0.2,1.1-0.8,1.2c-1.3,0.3-2.6,0.5-3.9,0.8
				C125.5,10.1,125.4,10.1,125.3,10.1z M228.6,9.4c-0.1,0-0.1,0-0.2,0c-1.3-0.2-2.6-0.5-3.9-0.7c-0.5-0.1-0.9-0.6-0.8-1.2
				c0.1-0.5,0.6-0.9,1.2-0.8c1.3,0.2,2.6,0.5,3.9,0.7c0.5,0.1,0.9,0.6,0.8,1.2C229.5,9.1,229,9.4,228.6,9.4z M135.1,8.2
				c-0.5,0-0.9-0.3-1-0.8c-0.1-0.5,0.3-1.1,0.8-1.2c1.3-0.2,2.6-0.5,4-0.7c0.5-0.1,1.1,0.3,1.1,0.8c0.1,0.5-0.3,1.1-0.8,1.1
				c-1.3,0.2-2.6,0.4-3.9,0.7C135.2,8.2,135.2,8.2,135.1,8.2z M218.7,7.7c-0.1,0-0.1,0-0.2,0c-1.3-0.2-2.6-0.4-3.9-0.6
				c-0.5-0.1-0.9-0.6-0.9-1.1c0.1-0.5,0.6-0.9,1.1-0.9c1.3,0.2,2.7,0.4,4,0.6c0.5,0.1,0.9,0.6,0.8,1.1
				C219.6,7.4,219.2,7.7,218.7,7.7z M145,6.6c-0.5,0-0.9-0.4-1-0.9c-0.1-0.5,0.3-1.1,0.9-1.1c1.3-0.2,2.7-0.3,4-0.5
				c0.5-0.1,1,0.3,1.1,0.9c0.1,0.5-0.3,1-0.9,1.1c-1.3,0.2-2.6,0.3-3.9,0.5C145.1,6.6,145,6.6,145,6.6z M208.8,6.4c0,0-0.1,0-0.1,0
				c-1.3-0.2-2.6-0.3-4-0.4c-0.5-0.1-0.9-0.5-0.9-1.1c0.1-0.5,0.6-0.9,1.1-0.9c1.3,0.1,2.7,0.3,4,0.4c0.5,0.1,0.9,0.6,0.9,1.1
				C209.7,6,209.3,6.4,208.8,6.4z M154.9,5.6c-0.5,0-0.9-0.4-1-0.9c0-0.6,0.4-1,0.9-1.1c1.3-0.1,2.7-0.2,4-0.3c0.6,0,1,0.4,1.1,0.9
				c0,0.6-0.4,1-0.9,1.1C157.6,5.3,156.3,5.4,154.9,5.6C155,5.6,154.9,5.6,154.9,5.6z M198.8,5.4C198.8,5.4,198.8,5.4,198.8,5.4
				c-1.4-0.1-2.7-0.2-4.1-0.3c-0.6,0-1-0.5-0.9-1.1c0-0.6,0.5-1,1.1-0.9c1.3,0.1,2.7,0.2,4,0.3c0.6,0,1,0.5,0.9,1.1
				C199.8,5,199.4,5.4,198.8,5.4z M164.9,4.9c-0.5,0-1-0.4-1-1c0-0.6,0.4-1,1-1c1.3-0.1,2.7-0.1,4-0.2c0.5,0,1,0.4,1,1
				c0,0.6-0.4,1-1,1C167.6,4.7,166.2,4.8,164.9,4.9C164.9,4.9,164.9,4.9,164.9,4.9z M188.8,4.8C188.8,4.8,188.8,4.8,188.8,4.8
				c-1.4-0.1-2.7-0.1-4-0.1c-0.6,0-1-0.5-1-1c0-0.6,0.4-1,1-1c1.3,0,2.7,0.1,4,0.1c0.6,0,1,0.5,1,1C189.8,4.4,189.4,4.8,188.8,4.8z
				 M174.9,4.6c-0.5,0-1-0.4-1-1c0-0.6,0.4-1,1-1c0.9,0,1.8,0,2.6,0l1.4,0c0.6,0,1,0.5,1,1c0,0.6-0.4,1-1,1l-1.4,0
				C176.6,4.6,175.7,4.6,174.9,4.6C174.9,4.6,174.9,4.6,174.9,4.6z"/>
		</g>
		<g>
			<path class="st0" d="M11.8,108c-0.1,0-0.2,0-0.3,0c-0.5-0.1-0.8-0.7-0.7-1.2c0.2-0.6,0.4-1.3,0.5-1.9c0.2-0.5,0.7-0.8,1.2-0.7
				c0.5,0.2,0.8,0.7,0.7,1.2c-0.2,0.6-0.4,1.3-0.5,1.9C12.6,107.7,12.2,108,11.8,108z"/>
		</g>
	</g>
</g>
</svg>
