<svg width="70" height="13" viewBox="0 0 70 13" fill="none" xmlns="http://www.w3.org/2000/svg">
<rect x="57.6562" y="1.4668" width="10.2516" height="8.97012" fill="white"/>
<path d="M62.7827 13C61.5546 13 60.3266 13 59.0999 13C57.5018 13 56.3756 11.8817 56.3756 10.2929C56.3756 7.80489 56.3743 5.31553 56.3756 2.82752C56.3756 1.63661 57.1304 0.609689 58.2418 0.30188C58.4965 0.231985 58.7674 0.193005 59.0315 0.191661C61.5318 0.183596 64.0322 0.18494 66.5312 0.187628C68.0502 0.188972 69.1871 1.33418 69.1884 2.85978C69.1898 5.34779 69.1898 7.83715 69.1884 10.3252C69.1884 11.8669 68.0489 12.9973 66.4991 12.9987C65.2603 12.9987 64.0215 12.9987 62.7827 12.9987V13ZM60.3869 9.08585C60.3561 9.57781 60.7221 9.8332 61.1752 9.62082C61.6378 9.40307 62.1016 9.18263 62.5441 8.92725C62.7183 8.82644 62.839 8.82912 62.9999 8.91381C63.453 9.15306 63.9022 9.40442 64.3727 9.60335C64.5403 9.67459 64.8192 9.67593 64.9533 9.57915C65.0833 9.48507 65.1557 9.21758 65.1423 9.03612C65.1007 8.51594 64.9948 8.00248 64.9345 7.48364C64.9224 7.37476 64.9653 7.22422 65.0377 7.14491C65.3635 6.79409 65.7107 6.46074 66.0499 6.12202C66.2349 5.93653 66.4186 5.74566 66.3234 5.45264C66.2242 5.1502 65.9547 5.08837 65.6853 5.04402C65.2348 4.97143 64.7803 4.92304 64.3339 4.8303C64.1985 4.80207 64.0402 4.68513 63.9705 4.56281C63.7292 4.13672 63.5455 3.67837 63.2935 3.26168C63.1929 3.09501 62.9838 2.93506 62.7974 2.89339C62.5508 2.83828 62.3751 3.02646 62.2639 3.26034C62.0534 3.70256 61.8241 4.13672 61.6109 4.57894C61.5332 4.74024 61.4434 4.82627 61.2409 4.84912C60.7341 4.90557 60.226 4.98219 59.7327 5.1045C59.5463 5.1502 59.3144 5.31553 59.2567 5.47952C59.2058 5.62738 59.3184 5.88948 59.4404 6.03062C59.7769 6.41639 60.1657 6.7578 60.5143 7.13416C60.5947 7.22153 60.6483 7.38417 60.6336 7.50245C60.5666 8.03205 60.4714 8.55761 60.3869 9.08585Z" fill="#FB433C"/>
<rect x="43.5664" y="2.74902" width="10.2516" height="8.97012" fill="white"/>
<path d="M48.6929 13C47.4648 13 46.2367 13 45.01 13C43.4119 13 42.2858 11.8817 42.2858 10.2929C42.2858 7.80489 42.2844 5.31553 42.2858 2.82752C42.2858 1.63661 43.0406 0.609689 44.152 0.30188C44.4067 0.231985 44.6775 0.193005 44.9416 0.191661C47.442 0.183596 49.9424 0.18494 52.4414 0.187628C53.9604 0.188972 55.0973 1.33418 55.0986 2.85978C55.0999 5.34779 55.0999 7.83715 55.0986 10.3252C55.0986 11.8669 53.959 12.9973 52.4092 12.9987C51.1704 12.9987 49.9316 12.9987 48.6929 12.9987V13ZM46.2971 9.08585C46.2662 9.57781 46.6322 9.8332 47.0854 9.62082C47.5479 9.40307 48.0118 9.18263 48.4542 8.92725C48.6285 8.82644 48.7492 8.82912 48.91 8.91381C49.3632 9.15306 49.8123 9.40442 50.2829 9.60335C50.4505 9.67459 50.7293 9.67593 50.8634 9.57915C50.9935 9.48507 51.0659 9.21758 51.0524 9.03612C51.0109 8.51594 50.905 8.00248 50.8446 7.48364C50.8326 7.37476 50.8755 7.22422 50.9479 7.14491C51.2737 6.79409 51.6209 6.46074 51.9601 6.12202C52.1451 5.93653 52.3288 5.74566 52.2336 5.45264C52.1344 5.1502 51.8649 5.08837 51.5954 5.04402C51.1449 4.97143 50.6905 4.92304 50.244 4.8303C50.1086 4.80207 49.9504 4.68513 49.8807 4.56281C49.6394 4.13672 49.4557 3.67837 49.2036 3.26168C49.1031 3.09501 48.894 2.93506 48.7076 2.89339C48.4609 2.83828 48.2853 3.02646 48.174 3.26034C47.9635 3.70256 47.7343 4.13672 47.5211 4.57894C47.4433 4.74024 47.3535 4.82627 47.1511 4.84912C46.6443 4.90557 46.1362 4.98219 45.6428 5.1045C45.4565 5.1502 45.2245 5.31553 45.1669 5.47952C45.1159 5.62738 45.2285 5.88948 45.3505 6.03062C45.6871 6.41639 46.0758 6.7578 46.4244 7.13416C46.5049 7.22153 46.5585 7.38417 46.5437 7.50245C46.4767 8.03205 46.3815 8.55761 46.2971 9.08585Z" fill="#FB433C"/>
<rect x="29.4766" y="1.4668" width="10.2516" height="8.97012" fill="white"/>
<path d="M34.603 13C33.3749 13 32.1469 13 30.9202 13C29.3221 13 28.1959 11.8817 28.1959 10.2929C28.1959 7.80489 28.1946 5.31553 28.1959 2.82752C28.1959 1.63661 28.9507 0.609689 30.0621 0.30188C30.3169 0.231985 30.5877 0.193005 30.8518 0.191661C33.3522 0.183596 35.8525 0.18494 38.3515 0.187628C39.8705 0.188972 41.0074 1.33418 41.0088 2.85978C41.0101 5.34779 41.0101 7.83715 41.0088 10.3252C41.0088 11.8669 39.8692 12.9973 38.3194 12.9987C37.0806 12.9987 35.8418 12.9987 34.603 12.9987V13ZM32.2072 9.08585C32.1764 9.57781 32.5424 9.8332 32.9955 9.62082C33.4581 9.40307 33.9219 9.18263 34.3644 8.92725C34.5387 8.82644 34.6593 8.82912 34.8202 8.91381C35.2733 9.15306 35.7225 9.40442 36.193 9.60335C36.3606 9.67459 36.6395 9.67593 36.7736 9.57915C36.9036 9.48507 36.976 9.21758 36.9626 9.03612C36.921 8.51594 36.8151 8.00248 36.7548 7.48364C36.7427 7.37476 36.7856 7.22422 36.858 7.14491C37.1838 6.79409 37.531 6.46074 37.8702 6.12202C38.0553 5.93653 38.2389 5.74566 38.1437 5.45264C38.0445 5.1502 37.775 5.08837 37.5056 5.04402C37.0551 4.97143 36.6006 4.92304 36.1542 4.8303C36.0188 4.80207 35.8606 4.68513 35.7908 4.56281C35.5495 4.13672 35.3659 3.67837 35.1138 3.26168C35.0133 3.09501 34.8041 2.93506 34.6178 2.89339C34.3711 2.83828 34.1954 3.02646 34.0842 3.26034C33.8737 3.70256 33.6444 4.13672 33.4313 4.57894C33.3535 4.74024 33.2637 4.82627 33.0612 4.84912C32.5545 4.90557 32.0463 4.98219 31.553 5.1045C31.3666 5.1502 31.1347 5.31553 31.077 5.47952C31.0261 5.62738 31.1387 5.88948 31.2607 6.03062C31.5972 6.41639 31.986 6.7578 32.3346 7.13416C32.415 7.22153 32.4686 7.38417 32.4539 7.50245C32.3869 8.03205 32.2917 8.55761 32.2072 9.08585Z" fill="#FB433C"/>
<rect x="15.3828" y="2.74902" width="10.2516" height="8.97012" fill="white"/>
<path d="M20.5093 13C19.2812 13 18.0531 13 16.8264 13C15.2283 13 14.1022 11.8817 14.1022 10.2929C14.1022 7.80489 14.1008 5.31553 14.1022 2.82752C14.1022 1.63661 14.857 0.609689 15.9684 0.30188C16.2231 0.231985 16.4939 0.193005 16.758 0.191661C19.2584 0.183596 21.7588 0.18494 24.2578 0.187628C25.7768 0.188972 26.9137 1.33418 26.915 2.85978C26.9164 5.34779 26.9164 7.83715 26.915 10.3252C26.915 11.8669 25.7754 12.9973 24.2256 12.9987C22.9868 12.9987 21.748 12.9987 20.5093 12.9987V13ZM18.1135 9.08585C18.0826 9.57781 18.4486 9.8332 18.9018 9.62082C19.3643 9.40307 19.8282 9.18263 20.2706 8.92725C20.4449 8.82644 20.5656 8.82912 20.7264 8.91381C21.1796 9.15306 21.6287 9.40442 22.0993 9.60335C22.2669 9.67459 22.5457 9.67593 22.6798 9.57915C22.8099 9.48507 22.8823 9.21758 22.8689 9.03612C22.8273 8.51594 22.7214 8.00248 22.661 7.48364C22.649 7.37476 22.6919 7.22422 22.7643 7.14491C23.0901 6.79409 23.4373 6.46074 23.7765 6.12202C23.9615 5.93653 24.1452 5.74566 24.05 5.45264C23.9508 5.1502 23.6813 5.08837 23.4118 5.04402C22.9614 4.97143 22.5069 4.92304 22.0604 4.8303C21.925 4.80207 21.7668 4.68513 21.6971 4.56281C21.4558 4.13672 21.2721 3.67837 21.0201 3.26168C20.9195 3.09501 20.7104 2.93506 20.524 2.89339C20.2773 2.83828 20.1017 3.02646 19.9904 3.26034C19.7799 3.70256 19.5507 4.13672 19.3375 4.57894C19.2597 4.74024 19.1699 4.82627 18.9675 4.84912C18.4607 4.90557 17.9526 4.98219 17.4592 5.1045C17.2729 5.1502 17.0409 5.31553 16.9833 5.47952C16.9323 5.62738 17.0449 5.88948 17.1669 6.03062C17.5035 6.41639 17.8923 6.7578 18.2408 7.13416C18.3213 7.22153 18.3749 7.38417 18.3602 7.50245C18.2931 8.03205 18.1979 8.55761 18.1135 9.08585Z" fill="#FB433C"/>
<rect x="1.28125" y="2.74902" width="10.2516" height="8.97012" fill="white"/>
<path d="M6.40769 13C5.17963 13 3.95157 13 2.72485 13C1.12677 13 0.000595857 11.8817 0.000595857 10.2929C0.000595857 7.80489 -0.000744821 5.31553 0.000595857 2.82752C0.000595857 1.63661 0.755399 0.609689 1.86682 0.30188C2.12155 0.231985 2.39236 0.193005 2.65648 0.191661C5.15684 0.183596 7.65721 0.18494 10.1562 0.187628C11.6752 0.188972 12.8121 1.33418 12.8134 2.85978C12.8148 5.34779 12.8148 7.83715 12.8134 10.3252C12.8134 11.8669 11.6739 12.9973 10.1241 12.9987C8.88527 12.9987 7.64648 12.9987 6.40769 12.9987V13ZM4.0119 9.08585C3.98107 9.57781 4.34707 9.8332 4.80022 9.62082C5.26276 9.40307 5.72663 9.18263 6.16905 8.92725C6.34334 8.82644 6.464 8.82912 6.62488 8.91381C7.07803 9.15306 7.52716 9.40442 7.99774 9.60335C8.16532 9.67459 8.44418 9.67593 8.57825 9.57915C8.7083 9.48507 8.78069 9.21758 8.76729 9.03612C8.72573 8.51594 8.61981 8.00248 8.55948 7.48364C8.54741 7.37476 8.59032 7.22422 8.66271 7.14491C8.9885 6.79409 9.33573 6.46074 9.67492 6.12202C9.85994 5.93653 10.0436 5.74566 9.94842 5.45264C9.84921 5.1502 9.57974 5.08837 9.31026 5.04402C8.85979 4.97143 8.4053 4.92304 7.95886 4.8303C7.82345 4.80207 7.66525 4.68513 7.59553 4.56281C7.35421 4.13672 7.17054 3.67837 6.91849 3.26168C6.81794 3.09501 6.60879 2.93506 6.42244 2.89339C6.17576 2.83828 6.00013 3.02646 5.88885 3.26034C5.67837 3.70256 5.44911 4.13672 5.23594 4.57894C5.15818 4.74024 5.06836 4.82627 4.86592 4.84912C4.35914 4.90557 3.85102 4.98219 3.35765 5.1045C3.1713 5.1502 2.93936 5.31553 2.88171 5.47952C2.83077 5.62738 2.94338 5.88948 3.06539 6.03062C3.4019 6.41639 3.79069 6.7578 4.13927 7.13416C4.21971 7.22153 4.27334 7.38417 4.25859 7.50245C4.19156 8.03205 4.09637 8.55761 4.0119 9.08585Z" fill="#FB433C"/>
</svg>
