<?xml version="1.0" encoding="UTF-8"?>
<svg baseProfile="basic" version="1.1" viewBox="0 0 273.4 65.9" xml:space="preserve" xmlns="http://www.w3.org/2000/svg">
		<path d="M0,0h72.9v20.2h54.4l9.4,9.5l9.4-9.5h54.4V0h72.9v2.3h-70.6v18H220v19.4h-19.4V22.5H147l-8.7,8.9    l16.5,16.8L137,65.9l-18.3-17.7l16.5-16.8l-8.7-8.9H72.9v17.2H53.5V20.2h17.2v-18H0V0z M70.6,22.5H55.7v14.9h14.9V22.5z     M217.7,22.5h-14.9v14.9h14.9V22.5z M151.6,48.1L136.7,33l-14.8,15.1l15.1,14.6L151.6,48.1z" fill="#E6C85F"/>
		<rect x="23.5" y="10.6" width="226.5" height="2.3" fill="#E6C85F"/>
</svg>
