<?xml version="1.0" encoding="UTF-8"?>
<svg baseProfile="basic" version="1.1" viewBox="0 0 32.4 32.4" xml:space="preserve" xmlns="http://www.w3.org/2000/svg">
	<path d="m16.2 28.7c-2 0-3.5-1.3-3.5-3 0-0.9 0.2-1.4 0.6-1.9l-4.6 0.4c-0.3 0-0.5 0-0.8-0.2-0.2-0.2-0.3-0.5-0.3-0.8v-4.5c0-0.5 0.3-1 0.7-1.3 0.5-0.3 1.1-0.3 1.5 0 0.2 0.2 0.4 0.2 0.7 0.2 0.5 0 1-0.6 1-1.5s-0.5-1.5-1-1.5c-0.4 0-0.5 0.1-0.7 0.2-0.5 0.3-1.1 0.3-1.5 0-0.5-0.3-0.7-0.8-0.7-1.3v-4.4c0-0.4 0.2-0.6 0.3-0.8 0.2-0.2 0.6-0.2 0.8-0.2l4.6 0.4c-0.3-0.4-0.6-0.9-0.6-1.8 0-1.7 1.5-3 3.5-3s3.5 1.3 3.5 3c0 0.9-0.2 1.4-0.6 1.9l4.6-0.4c0.3 0 0.5 0 0.8 0.2 0.2 0.2 0.3 0.5 0.3 0.8v4.5c0 0.5-0.3 1-0.7 1.3-0.5 0.3-1.1 0.3-1.5 0-0.2-0.2-0.4-0.2-0.7-0.2-0.5 0-1 0.6-1 1.5s0.5 1.5 1 1.5c0.4 0 0.5-0.1 0.7-0.2 0.5-0.3 1.1-0.3 1.5 0 0.5 0.3 0.7 0.8 0.7 1.3v4.5c0 0.4-0.2 0.6-0.3 0.8-0.2 0.2-0.6 0.2-0.8 0.2l-4.6-0.4c0.3 0.4 0.6 0.9 0.6 1.8 0 1.5-1.5 2.9-3.5 2.9zm-3-5.9c0.3 0 0.4 0.1 0.5 0.1h0.2l0.1 0.1c0.5 0.5 0.4 1 0.2 1.3s-0.4 0.6-0.4 1.3c0 1.1 1.1 2 2.5 2s2.5-0.9 2.5-2c0-0.6-0.2-0.9-0.5-1.3-0.2-0.5-0.2-1 0.2-1.3 0.2-0.2 0.5-0.2 0.7-0.2l4.6 0.4h0.1v-4.5c0-0.1 0-0.3-0.3-0.5-0.1-0.1-0.3-0.1-0.4 0-0.4 0.3-0.7 0.4-1.3 0.4-1.1 0-2-1.1-2-2.5s0.9-2.5 2-2.5c0.5 0 0.9 0.1 1.3 0.4 0.1 0.1 0.3 0.1 0.4 0 0.2-0.2 0.3-0.4 0.3-0.5v-4.3h-0.1l-4.5 0.4c-0.3 0-0.4-0.1-0.5-0.1h-0.2l-0.1-0.1c-0.5-0.5-0.4-1-0.2-1.3s0.4-0.6 0.4-1.3c0-1.1-1.1-2-2.5-2s-2.5 0.9-2.5 2c0 0.6 0.2 0.9 0.5 1.3 0.1 0.3 0.2 0.5 0.2 0.7 0 0.3-0.2 0.5-0.4 0.6-0.2 0.2-0.5 0.2-0.7 0.2l-4.7-0.5h-0.1v4.5c0 0.1 0 0.3 0.3 0.5 0.1 0.1 0.3 0.1 0.4 0 0.4-0.3 0.7-0.4 1.3-0.4 1.1 0 2 1.1 2 2.5s-0.9 2.5-2 2.5c-0.5 0-0.9-0.1-1.3-0.4-0.1-0.1-0.3-0.1-0.4 0-0.2 0.2-0.3 0.4-0.3 0.5v4.5h0.1l4.6-0.5z" fill="#E6C860"/>
</svg>
