<?xml version="1.0" encoding="UTF-8"?>
<svg baseProfile="basic" version="1.1" viewBox="0 0 32.4 32.4" xml:space="preserve" xmlns="http://www.w3.org/2000/svg">
		<path d="m21.9 23.1c-0.5 0-0.9 0-1.4-0.1l-1.2-0.3-0.3-0.1v-0.3c0-0.3 0-0.6-0.1-0.8l-0.5-3.8-0.9-6.9-0.1-0.4c-0.2-0.4-0.4-0.8-0.8-1-0.4-0.3-0.9-0.4-1.5-0.4h-0.5v-0.6l0.4-5c0-0.3 0.2-0.6 0.4-0.7 0.2-0.2 0.5-0.2 0.8-0.2h0.1l0.1 0.1c1.1 0.9 4 1.8 7.2 2.4s6.3 0.6 7.6 0.2h0.1 0.1c0.3 0.1 0.6 0.2 0.7 0.5 0.2 0.2 0.2 0.5 0.1 0.8l-2.9 10.9c-0.8 3.4-3.9 5.7-7.4 5.7zm-1.9-1.3c0.2 0.1 0.5 0.1 0.7 0.2 3.5 0.6 6.9-1.5 7.8-4.9l2.9-10.9c-1.6 0.4-4.6 0.3-7.9-0.2-3.2-0.6-6.1-1.5-7.4-2.4l-0.4 4.3c0.6 0 1.1 0.2 1.6 0.6 0.4 0.3 0.7 0.6 0.9 1 0.3-0.1 0.7-0.2 1.1-0.2 0.6 0 1.1 0.1 1.5 0.3 0.5 0.3 0.8 0.7 0.8 1.1 0 0.3-0.1 0.6-0.3 0.9-0.4 0.4-1.1 0.7-1.9 0.7h-0.6l0.4 3.4c0.8-0.5 1.7-0.7 2.7-0.5 1.9 0.3 3.3 2 3.3 4v0.2l-0.4 0.3-5.2-0.9 0.3 2.5c0.1 0.2 0.1 0.3 0.1 0.5zm-1.5-4.2l5.7 1c-0.2-1.2-1.2-2.2-2.4-2.4-0.9-0.2-1.9 0.1-2.6 0.8l-0.7 0.6zm-0.7-6.8l0.5 0.2c0.3 0.1 0.6 0.2 1 0.2 0.6 0 1-0.2 1.2-0.4 0-0.1 0.1-0.1 0.1-0.1 0-0.1-0.1-0.2-0.3-0.3-0.3-0.1-0.6-0.2-1-0.2s-0.8 0.1-1.1 0.3l-0.4 0.3zm13.8-4.8l0.2-0.2-0.2 0.2zm-5.1 7.5c-0.4 0-0.8-0.1-1.2-0.3-1.2-0.5-1.9-1.5-1.6-2.2 0.3-0.8 1.5-1 2.7-0.5 0.5 0.2 1 0.5 1.3 0.9 0.4 0.4 0.5 0.9 0.3 1.4-0.1 0.3-0.3 0.5-0.7 0.6-0.2 0.1-0.5 0.1-0.8 0.1zm-1.3-2.3c-0.3 0-0.5 0.1-0.5 0.2-0.1 0.1 0.2 0.6 1 0.9 0.5 0.2 1 0.2 1.3 0.1 0.1 0 0.1-0.1 0.1-0.1 0-0.1 0-0.2-0.1-0.4-0.2-0.2-0.5-0.4-0.9-0.6-0.4 0-0.7-0.1-0.9-0.1z" fill="#E6C860"/>
		<path d="m10.4 29.9c-3.3 0-6.1-2.1-7.2-5.2l-3.2-10.2c-0.1-0.3 0-0.6 0.1-0.8s0.4-0.4 0.7-0.5h0.1 0.1c0.4 0.1 1 0.2 1.7 0.2 1.5 0 3.4-0.2 5.5-0.7 3-0.7 5.8-1.7 6.8-2.6l0.2-0.1h0.3c0.2 0 0.4 0.1 0.6 0.2 0.2 0.2 0.4 0.4 0.4 0.7l1.4 10.6c0.4 3.9-2.1 7.4-5.9 8.2-0.5 0.2-1.1 0.2-1.6 0.2zm-9.4-15.7l3.1 10.2c0.9 2.7 3.4 4.5 6.2 4.5 0.5 0 0.9-0.1 1.4-0.2 3.3-0.7 5.5-3.8 5.1-7.1l-1.3-10.6c-1.2 0.9-3.9 1.9-7 2.6s-6 0.9-7.5 0.6zm9.5 12.5c-1.5 0-2.9-0.9-3.5-2.2-0.1-0.2-0.1-0.4 0-0.6s0.3-0.3 0.5-0.4l5.9-1.3c0.2 0 0.4 0 0.6 0.1s0.3 0.3 0.3 0.5c0 1.8-1.2 3.4-3 3.8-0.3 0.1-0.5 0.1-0.8 0.1zm-2.4-2.3c0.6 1 1.8 1.5 3 1.2s2-1.2 2.2-2.4l-5.2 1.2zm-1.6-3.6c-1.2 0-2.2-0.6-2.2-1.4s0.9-1.5 2.2-1.5c0.5 0 1.1 0.1 1.4 0.3 0.5 0.3 0.8 0.7 0.8 1.1 0 0.3-0.1 0.6-0.4 0.8-0.4 0.4-1.1 0.7-1.8 0.7zm-1.2-1.5c0 0.1 0.4 0.4 1.2 0.4 0.5 0 1-0.2 1.1-0.3l0.1-0.1-0.2-0.2c-0.2-0.1-0.6-0.2-1-0.2-0.8 0-1.2 0.3-1.2 0.4zm6.6 0.3h-0.2c-0.5 0-1-0.3-1.1-0.7-0.2-0.4-0.1-0.9 0.2-1.3s0.7-0.7 1.2-0.9 1-0.3 1.5-0.3 1 0.3 1.1 0.7c0.1 0.3 0.1 0.6 0 0.9-0.2 0.5-0.7 1-1.4 1.3-0.4 0.2-0.9 0.3-1.3 0.3zm1.4-2.3c-0.3 0-0.6 0.1-0.9 0.2-0.3 0.2-0.6 0.4-0.8 0.6-0.1 0.2-0.1 0.3-0.1 0.3s0.1 0.1 0.3 0.1c0.3 0 0.6 0 1-0.2 0.5-0.2 0.8-0.6 0.9-0.8v-0.1s-0.1-0.1-0.3-0.1h-0.1z" fill="#E6C860"/>
</svg>
