<?xml version="1.0" encoding="UTF-8"?>
<svg baseProfile="basic" version="1.1" viewBox="0 0 32.4 32.4" xml:space="preserve" xmlns="http://www.w3.org/2000/svg">
		<path d="m16.2 17.3c-2.8 0-5-2.6-5-5.7 0-4.7 2.7-5.7 5-5.7s5 1 5 5.7c0 3.1-2.3 5.7-5 5.7zm0-10.5c-2.7 0-4 1.6-4 4.7 0 2.6 1.8 4.7 4 4.7s4-2.1 4-4.7c0-3.2-1.3-4.7-4-4.7z" fill="#E6C860"/>
		<path d="m25.1 26.6h-17.8c-0.6 0-1.1-0.3-1.4-0.7-0.3-0.5-0.3-1-0.1-1.6l2.3-5.1c0.1-0.3 0.4-0.6 0.7-0.8l3.5-1.8c0.2-0.1 0.6-0.1 0.8 0.1 1.8 1.4 4.3 1.4 6.2 0 0.2-0.2 0.5-0.2 0.8-0.1l3.5 1.8c0.3 0.2 0.6 0.4 0.7 0.8l2.3 5.1c0.2 0.5 0.2 1.1-0.1 1.6-0.4 0.4-0.9 0.7-1.4 0.7zm-12.5-9l-3.4 1.7-0.3 0.3-2.3 5.1c-0.1 0.2-0.1 0.4 0 0.6s0.3 0.3 0.5 0.3h17.8c0.2 0 0.4-0.1 0.5-0.3s0.1-0.4 0-0.6l-2.3-5.1-0.3-0.3-3.4-1.7c-1.8 1.5-4.6 1.5-6.8 0z" fill="#E6C860"/>
</svg>
