<?xml version="1.0" encoding="UTF-8"?>
<svg baseProfile="basic" version="1.1" viewBox="0 0 32.4 32.4" xml:space="preserve" xmlns="http://www.w3.org/2000/svg">
		<path d="m16.2 27.7c-6.4 0-11.5-5.2-11.5-11.5 0-6.4 5.2-11.5 11.5-11.5s11.5 5.2 11.5 11.5-5.2 11.5-11.5 11.5zm0-22c-5.8 0-10.5 4.7-10.5 10.5s4.7 10.5 10.5 10.5 10.5-4.7 10.5-10.5-4.7-10.5-10.5-10.5zm0 19.7c-5.1 0-9.2-4.1-9.2-9.2s4.1-9.2 9.2-9.2 9.2 4.1 9.2 9.2-4.1 9.2-9.2 9.2zm0-17.4c-4.5 0-8.2 3.7-8.2 8.2s3.7 8.2 8.2 8.2 8.2-3.7 8.2-8.2-3.7-8.2-8.2-8.2z" fill="#E6C860"/>
		<path d="m21.9 18.2h-5.9c-0.8 0-1.4-0.6-1.4-1.4v-6.9c0-0.3 0.2-0.5 0.5-0.5s0.5 0.2 0.5 0.5v6.9c0 0.2 0.2 0.4 0.4 0.4h5.9c0.3 0 0.5 0.2 0.5 0.5s-0.2 0.5-0.5 0.5z" fill="#E6C860"/>
</svg>
