<svg id="Layer_1" xmlns="http://www.w3.org/2000/svg" viewBox="0 0 62 62"><style>.st1{fill:#fff}.st2{fill:#0e2739}</style><path d="M31 62a31 31 0 1 1 0-62 31 31 0 0 1 0 62zm0-58.8a27.7 27.7 0 1 0 0 55.6 27.7 27.7 0 1 0 0-55.6z"/><circle cx="31" cy="31" r="28.9" fill="#ffa73d"/><circle class="st1" cx="19.7" cy="29.2" r="8.6"/><path d="M19.7 38.6a9.3 9.3 0 1 1 0-18.6 9.3 9.3 0 0 1 0 18.6zm0-17.1a7.8 7.8 0 1 0 0 15.6 7.8 7.8 0 0 0 0-15.6z"/><path class="st2" d="M19.7 31.1c-1 0-1.9-.8-1.9-1.9s.8-1.9 1.9-1.9c1 0 1.9.8 1.9 1.9s-.8 1.9-1.9 1.9z"/><path d="M19.7 28c.7 0 1.2.6 1.2 1.2 0 .7-.6 1.2-1.2 1.2-.7 0-1.2-.6-1.2-1.2S19 28 19.7 28m0-1.3c-1.4 0-2.5 1.1-2.5 2.5s1.1 2.5 2.5 2.5 2.5-1.1 2.5-2.5c.1-1.4-1.1-2.5-2.5-2.5z"/><circle class="st1" cx="42.4" cy="29.2" r="8.6"/><path d="M42.4 38.6a9.3 9.3 0 1 1 0-18.6 9.3 9.3 0 0 1 0 18.6zm0-17.1a7.8 7.8 0 1 0 7.8 7.8c0-4.3-3.6-7.8-7.8-7.8z"/><path class="st2" d="M42.4 31.1c-1 0-1.9-.8-1.9-1.9s.8-1.9 1.9-1.9a1.9 1.9 0 1 1 0 3.8z"/><path d="M42.4 28c.7 0 1.2.6 1.2 1.2 0 .7-.6 1.2-1.2 1.2-.7 0-1.2-.6-1.2-1.2-.1-.6.5-1.2 1.2-1.2m0-1.3c-1.4 0-2.5 1.1-2.5 2.5s1.1 2.5 2.5 2.5 2.5-1.1 2.5-2.5-1.1-2.5-2.5-2.5zM32 47.2h-1.9c-.5 0-.9.4-.9.9s.4.9.9.9H32c.5 0 .9-.4.9-.9s-.4-.9-.9-.9z"/><path d="M34.5 44.6h-6.9c-.6 0-1-.1-1.4-.6-.2-.2-.5-1.5 0-3 .4-1.2 1.5-2.7 4.3-3.2h1.1c2.7.5 3.8 2 4.3 3.2.5 1.5.2 2.8 0 3-.4.5-.8.6-1.4.6z" fill="#901c0f"/><path d="M31.7 38s1.8 2.3.8 6.5c1.6 0 3.6-.9 3.5-1.9s-1.7-4.4-4.3-4.6z" fill="#401510"/><path d="M43.9 16.3h-4.6a1 1 0 0 0 0 2h4.6c.6 0 1-.5 1-1s-.5-1-1-1z"/><g><path d="M15.9 15.1a.8.8 0 0 1-.5-.2 1 1 0 0 1-.2-1.3c2.9-4.2 8.8-3.9 9.1-3.9.5 0 .9.5.9 1s-.5.9-1 .9c-.1 0-5.2-.2-7.5 3.1-.2.2-.5.4-.8.4z"/></g><path d="M31.5 38.5c1.7.3 2.8 1.1 3.4 2.3.6 1.1.5 2.4.3 2.7-.2.2-.3.2-.8.2h-6.9c-.4 0-.6 0-.8-.2-.1-.4-.2-1.6.3-2.7.6-1.2 1.8-2 3.4-2.3h1.1m.2-1.5h-1.2c-5.9 1-5.7 6.6-4.8 7.6.7.8 1.3.8 2 .8h6.9c.7 0 1.4-.1 2-.8.8-1.1.9-6.6-4.9-7.6z"/></svg>