<?xml version="1.0" encoding="UTF-8"?>
<svg baseProfile="basic" version="1.1" viewBox="0 0 61.4 29" xml:space="preserve" xmlns="http://www.w3.org/2000/svg">
<path d="m20.8 22.9c-0.8-0.4-2.3-0.7-2.9-1.1 0 3.2-0.7 3.3-3.5 4-0.5 0.8-1.3 2-1.8 2.2-2.2 0.9-5 0.6-7.5 0.6-1.4 0-3.3 0-4.3 0.3l-0.2-0.3c0.6-0.5 1.9-1.1 2.9-1.2h0.1c-3.6-4.5-2.5-19.3-0.3-23.6-1.2-0.3-2.8-0.5-3.3-1l0.4-0.3c2.2 0.6 6.2 0 11.3-0.5 0 0 0.5 0 0.8 0.8h2.5c0.5 0 0.9 0.1 1.2 0.5 0.1 0.2 0.2 0.5 0.2 0.8 0.5 0 4.8 0 8.4-1.8 2.1-1.1 6.4-2.5 9.4-2.3 2.6 0.1 6.3 0.4 9 0.9 1.6 0.4 4.1 0.1 6.2 0.8 3.1 0.4 9.4 1.2 10.4 1.4 1.6 0.5 1.8 1.6 1.5 2.9-0.1 0.8-0.7 1.4-1.6 1.6-1.5 0.4-5 0-6.2-0.2 0 0-3.2 0.6-5.3-0.2-1.4 0.1-4.3 0.4-5.9-0.6l-2.2-1.8-0.7-0.4c-2.5-0.4-5.4-0.9-7.3-1.2-1.2 0.1-2.8 0.1-2.8 0.1v0.2s2.1 0 2.8-0.1l6.9 1.6 0.7 0.4 3.4 2.7v0.1s-1.1 1.1-0.9 2.2c0.7 1.6 3 1.2 3 1.2-0.6 0-2.3-0.2-2.7-1.4 0.3-1.3 1.1-1.9 1.1-1.9 0.4 0.1 2.4 1.1 3.3 1.6 0.7 0.3 0.4 1.3 0 2-0.6 1.1-2.7 1.3-3.8 1.3-0.9 0-2-0.2-2.9-0.8-1.4-0.7-1.8-1.2-3.2-1.3-0.9-0.1-2.7 0-4.1 0.1-0.6 0-1.1-0.2-1.6-0.5-0.6-0.2-0.9-0.5-1.2-0.6v0.1s1.1 0.9 1.8 1.2l-2 2.2c-1.1 0.8-2.3 1.3-4.1 1.3v0.1c0.6 0.1 2.5 0.2 3.9-0.6 1.3-0.8 2.2-2.3 2.7-2.6 0.2-0.1 0.8-0.1 1.1-0.1h0.8l-0.1 0.3-0.7 0.4c-0.2 0.2-1.2 1.2-1.1 2.5 0.1 1.4 1.2 2.6 2.2 2.5h0.1s0.1 0 0 0.1c-0.5 0.6-0.8 1.3-0.6 2 0.2 0.9 1 1.8 2 1.6 0 0-3.6 3.2-7.2 3.5-6.4 0.5-8.6-1.8-8.4-5.7h-0.1c-0.1 0.6-0.5 2.2 0.4 3.9v0.1zm-8.3-19.3c0.6 5.6-1.1 11-0.5 16.7 0 0 2.2-0.4 2.2 1.8 0 0.9-0.7 1.6-1.5 1.8 0.1 0.4 0.1 0.6 0.2 0.8h0.1c1.1-0.1 2.1-0.2 2.6-0.4 0.9-0.2 1.4-0.4 1.4-2.2 0 0.3-0.2 0.9-0.7 0.9-1.9 0-1.1-13-0.9-17.7 0-0.6-0.1-1.3 0.5-1.1-0.2-1.1-2.5-0.6-3.2-0.6h-0.2zm28.9 10c-0.6 0.2-3.5 1.8-5.4 2.6-0.7 0.4-1.6 0.9-2.2 0.6-0.6-0.4-1.6-1.9-0.5-3.3 1.5-1.9 3.5-2.3 4.9-1.5 1.1 0.6 2 1.1 3.2 1.5v0.1zm3.4 2c0.2 0.8-0.2 1.2-1.3 1.9-2 1.4-7.2 3.9-8.2 2.9-1.2-1.1-0.8-2.7 2-4.3 1.9-1.1 3.9-1.9 5-2.3 1.9-0.8 2 0.4 2.5 1.8zm0 4.3c0.7 0.9-2 2.7-4.4 3.5-1.1 0.4-2.2 0.4-2.7 0-0.7-0.4-1.1-0.8-1-1.4 0.1-1.1 4.5-2.6 5.5-3.3 1.4-0.8 1.6-0.1 2.6 1.2z" fill="#E6C860"/>
</svg>
