<?xml version="1.0" encoding="UTF-8"?>
<svg baseProfile="basic" version="1.1" viewBox="0 0 61.4 29" xml:space="preserve" xmlns="http://www.w3.org/2000/svg">
<path d="m40.7 22.8c0.8-1.6 0.5-3.3 0.4-3.9h-0.1c0.1 4-2 6.2-8.4 5.7-3.5-0.4-7.2-3.5-7.2-3.5 0.9 0.1 1.8-0.7 2-1.6 0.2-0.7-0.1-1.4-0.6-2-0.1-0.1 0-0.1 0-0.1h0.1c1.1 0.1 2.1-1.1 2.2-2.5 0.1-1.3-0.8-2.2-1.1-2.5l-0.7-0.4-0.1-0.3h0.8c0.2 0 0.8 0 1.1 0.1 0.5 0.2 1.4 1.8 2.7 2.6 1.4 0.8 3.3 0.7 3.9 0.6v-0.1c-1.8 0-3-0.5-4.1-1.3l-2-2.2c0.7-0.2 1.8-1.2 1.8-1.2v-0.1c-0.2 0.1-0.6 0.4-1.2 0.6s-1.1 0.5-1.6 0.5c-1.4-0.1-3.2-0.2-4.1-0.1-1.4 0.1-1.8 0.6-3.2 1.3-0.9 0.6-2 0.8-2.9 0.8-1.1 0-3.2-0.2-3.8-1.3-0.4-0.7-0.7-1.6 0-2 0.9-0.5 2.9-1.4 3.3-1.5 0 0 0.7 0.6 1.1 1.9-0.3 1.2-2.1 1.4-2.7 1.4 0 0 2.3 0.5 3-1.2 0.1-1.2-0.9-2.2-0.9-2.2v-0.2l3.4-2.7 0.6-0.4 6.9-1.6c0.7 0.1 2.8 0.1 2.8 0.1v-0.2s-1.6 0-2.8-0.1c-1.9 0.3-4.8 0.8-7.3 1.4l-0.7 0.4-2.2 1.8c-1.5 0.9-4.5 0.7-5.9 0.6-2.1 0.8-5.3 0.2-5.3 0.2-1.1 0.1-4.6 0.5-6.2 0.1-0.9-0.2-1.5-0.8-1.6-1.6-0.2-1.3-0.1-2.5 1.5-2.9 1.1-0.3 7.4-1.1 10.5-1.4 2.1-0.7 4.6-0.5 6.2-0.8 2.7-0.6 6.4-0.8 9-0.9 2.9-0.1 7.3 1.3 9.4 2.3 3.6 1.8 8 1.8 8.4 1.8 0-0.4 0.1-0.6 0.2-0.8 0.2-0.4 0.7-0.5 1.2-0.5h2.5c0.3-0.9 0.8-0.9 0.8-0.9 5 0.5 9 1.1 11.3 0.5l0.4 0.3c-0.5 0.5-2.1 0.7-3.3 0.9 2.2 4.3 3.3 19.1-0.2 23.7 1.1 0.1 2.3 0.7 2.9 1.2l-0.2 0.4c-1.1-0.3-2.9-0.3-4.3-0.3-2.5 0-5.3 0.3-7.5-0.6-0.5-0.2-1.3-1.4-1.8-2.2-2.8-0.7-3.5-0.8-3.5-4-0.6 0.4-2.1 0.7-2.9 1.1v-0.2zm8-19.2c-0.7 0-2.9-0.5-3.2 0.6 0.7-0.2 0.5 0.5 0.5 1.1 0.2 4.7 1 17.7-0.9 17.7-0.5 0-0.7-0.6-0.8-0.9 0 1.9 0.5 2 1.4 2.2 0.5 0.1 1.5 0.2 2.6 0.4h0.1c0.1-0.2 0.1-0.5 0.2-0.8-0.8-0.1-1.5-0.8-1.5-1.8 0-2.1 2.2-1.8 2.2-1.8 0.6-5.6-1.1-11-0.5-16.7h-0.1zm-28.7 9.9c1.2-0.5 2.1-0.9 3.2-1.5 1.4-0.8 3.4-0.3 4.9 1.5 1.2 1.4 0.1 2.9-0.5 3.3s-1.5-0.2-2.2-0.6c-1.9-0.8-4.8-2.3-5.4-2.6v-0.1zm-0.9 0.2c1.2 0.5 3.2 1.3 5 2.3 2.8 1.6 3.2 3.3 2 4.3-1.1 0.9-6.2-1.5-8.2-2.9-1.1-0.7-1.5-1.1-1.3-1.9 0.5-1.3 0.6-2.5 2.5-1.8zm0.1 5.1c1.1 0.7 5.4 2.2 5.5 3.3 0.1 0.6-0.4 0.9-0.9 1.4-0.5 0.4-1.6 0.4-2.7 0-2.5-0.8-5.2-2.6-4.4-3.5 0.9-1.4 1.1-2.1 2.5-1.2z" fill="#E6C860"/>
</svg>
