<svg width="38" height="49" viewBox="0 0 38 49" fill="none" xmlns="http://www.w3.org/2000/svg">
<path d="M38 1.63333V47.3667C38 47.67 37.8908 47.9674 37.6847 48.2254C37.4786 48.4834 37.1837 48.6919 36.833 48.8276C36.4823 48.9632 36.0898 49.0207 35.6993 48.9934C35.3088 48.9662 34.9359 48.8554 34.6222 48.6734L19 39.6084L3.37778 48.6734C3.06413 48.8554 2.69118 48.9662 2.3007 48.9934C1.91023 49.0207 1.51766 48.9632 1.16699 48.8276C0.816326 48.6919 0.52141 48.4834 0.315293 48.2254C0.109175 47.9674 0 47.67 0 47.3667V1.63333C0 1.20015 0.22242 0.784702 0.618331 0.478392C1.01424 0.172083 1.55121 0 2.11111 0H35.8889C36.4488 0 36.9858 0.172083 37.3817 0.478392C37.7776 0.784702 38 1.20015 38 1.63333Z" fill="#FB433C"/>
</svg>
