<svg width="17" height="18" viewBox="0 0 17 18" fill="none" xmlns="http://www.w3.org/2000/svg">
<path fill-rule="evenodd" clip-rule="evenodd" d="M5.33721 0C5.66473 0 5.93023 0.268629 5.93023 0.6V0.819189C6.56394 0.799996 7.29777 0.799998 8.15689 0.8H8.84312C9.70223 0.799998 10.4361 0.799996 11.0698 0.819189V0.6C11.0698 0.268629 11.3353 0 11.6628 0C11.9903 0 12.2558 0.268629 12.2558 0.6V0.893555C12.9597 0.969903 13.5494 1.112 14.0858 1.38856C15.0901 1.90628 15.9066 2.73238 16.4183 3.74845C16.7265 4.36052 16.8658 5.041 16.9334 5.87851C17 6.70337 17 7.73169 17 9.05283V9.74717C17 11.0683 17 12.0966 16.9334 12.9215C16.8658 13.759 16.7265 14.4395 16.4183 15.0515C15.9066 16.0676 15.0901 16.8937 14.0858 17.4114C13.4809 17.7233 12.8083 17.8642 11.9805 17.9326C11.1653 18 10.1489 18 8.84313 18H8.15687C6.85109 18 5.83473 18 5.01946 17.9326C4.19168 17.8642 3.51912 17.7233 2.91417 17.4114C1.90991 16.8937 1.09342 16.0676 0.581721 15.0515C0.273483 14.4395 0.134237 13.759 0.0666052 12.9215C-5.52001e-06 12.0966 -3.06811e-06 11.0683 4.2419e-08 9.74715V9.05285C-3.06811e-06 7.7317 -5.52001e-06 6.70338 0.0666052 5.87851C0.134237 5.041 0.273483 4.36052 0.581721 3.74845C1.09342 2.73238 1.90991 1.90628 2.91417 1.38856C3.45064 1.112 4.04028 0.969903 4.74419 0.893555V0.6C4.74419 0.268629 5.00969 0 5.33721 0ZM4.74419 2.10147C4.19045 2.17056 3.79111 2.28327 3.45262 2.45777C2.67153 2.86044 2.03648 3.50296 1.6385 4.29324C1.42965 4.70795 1.31035 5.21292 1.24871 5.97623C1.18651 6.74654 1.18605 7.72597 1.18605 9.08V9.72C1.18605 11.074 1.18651 12.0535 1.24871 12.8238C1.31035 13.5871 1.42965 14.0921 1.6385 14.5068C2.03648 15.297 2.67153 15.9396 3.45262 16.3422C3.86251 16.5535 4.36161 16.6742 5.11604 16.7366C5.87739 16.7995 6.84544 16.8 8.18372 16.8H8.81628C10.1546 16.8 11.1226 16.7995 11.884 16.7366C12.6384 16.6742 13.1375 16.5535 13.5474 16.3422C14.3285 15.9396 14.9635 15.297 15.3615 14.5068C15.5704 14.0921 15.6896 13.5871 15.7513 12.8238C15.8135 12.0535 15.814 11.074 15.814 9.72V9.08C15.814 7.72597 15.8135 6.74654 15.7513 5.97623C15.6896 5.21292 15.5704 4.70795 15.3615 4.29324C14.9635 3.50296 14.3285 2.86044 13.5474 2.45777C13.2089 2.28327 12.8095 2.17056 12.2558 2.10147V3C12.2558 3.33137 11.9903 3.6 11.6628 3.6C11.3353 3.6 11.0698 3.33137 11.0698 3V2.01968C10.4537 2.00021 9.71925 2 8.81628 2H8.18372C7.28075 2 6.54634 2.00021 5.93023 2.01968V3C5.93023 3.33137 5.66473 3.6 5.33721 3.6C5.00969 3.6 4.74419 3.33137 4.74419 3V2.10147ZM3.55814 6.2C3.55814 5.86863 3.82365 5.6 4.15116 5.6H12.8488C13.1764 5.6 13.4419 5.86863 13.4419 6.2C13.4419 6.53137 13.1764 6.8 12.8488 6.8H4.15116C3.82365 6.8 3.55814 6.53137 3.55814 6.2ZM3.95349 9.8C3.95349 9.24771 4.396 8.8 4.94186 8.8C5.48772 8.8 5.93023 9.24771 5.93023 9.8C5.93023 10.3523 5.48772 10.8 4.94186 10.8C4.396 10.8 3.95349 10.3523 3.95349 9.8ZM7.51163 9.8C7.51163 9.24771 7.95414 8.8 8.5 8.8C9.04586 8.8 9.48837 9.24771 9.48837 9.8C9.48837 10.3523 9.04586 10.8 8.5 10.8C7.95414 10.8 7.51163 10.3523 7.51163 9.8ZM11.0698 9.8C11.0698 9.24771 11.5123 8.8 12.0581 8.8C12.604 8.8 13.0465 9.24771 13.0465 9.8C13.0465 10.3523 12.604 10.8 12.0581 10.8C11.5123 10.8 11.0698 10.3523 11.0698 9.8ZM3.95349 13C3.95349 12.4477 4.396 12 4.94186 12C5.48772 12 5.93023 12.4477 5.93023 13C5.93023 13.5523 5.48772 14 4.94186 14C4.396 14 3.95349 13.5523 3.95349 13ZM7.51163 13C7.51163 12.4477 7.95414 12 8.5 12C9.04586 12 9.48837 12.4477 9.48837 13C9.48837 13.5523 9.04586 14 8.5 14C7.95414 14 7.51163 13.5523 7.51163 13ZM11.0698 13C11.0698 12.4477 11.5123 12 12.0581 12C12.604 12 13.0465 12.4477 13.0465 13C13.0465 13.5523 12.604 14 12.0581 14C11.5123 14 11.0698 13.5523 11.0698 13Z" fill="#1B1B1B"/>
</svg>
