<svg width="381" height="70" xmlns="http://www.w3.org/2000/svg" version="1.1">

 <g>
  <title>Layer 1</title>
  <g id="svg_58">
   <g id="svg_1">
    <path id="svg_2" stroke-width="0px" fill="#ef422b" d="m277.82857,67.78571c-5.2,0 -10.5,-0.3 -15.8,-0.8c-12.5,-1.2 -22.3,-4 -30.7,-8.5c-2.2,-1.2 -4.3,-2.8 -6.3,-4.3c-0.6,-0.5 -1.3,-1 -2,-1.5c-0.6,-0.4 -0.9,-1 -1.3,-1.5c-0.1,-0.2 -0.2,-0.3 -0.3,-0.5l-0.7,-0.9l1.9,-2.4l1,0.4c0.1,0 0.3,0 0.4,0.1c0.4,0.1 1,0.3 1.5,0.6c7.6,5.4 16.6,8.9 26.8,10.4c8.8,1.3 17.5,2 25.9,2c27.5,0 53.6,-7.1 77.8,-21.2c2.6,-1.5 5,-3.4 7.4,-5.2c0.2,-0.1 0.4,-0.3 0.5,-0.4c-1.3,0.2 -2.6,0.5 -3.9,0.7c-2,0.4 -4,0.8 -6,1.1l-0.2,0c-0.6,0.1 -1.2,0.3 -1.9,0.3s-0.8,0 -1.1,-0.1c-1.1,-0.3 -2.3,-1.3 -2.6,-2.5c-0.2,-1.2 0.6,-2.8 1.5,-3.4c1.1,-0.7 2.4,-1 3.3,-1.2c5.9,-1.3 11.9,-2.5 17.8,-3.7l0.7,-0.2c0.7,-0.1 1.4,-0.3 2.1,-0.3l0.3,0c1.1,0 2.6,0.1 3.7,1.2c0.7,0.8 1.1,1.8 1,3.2c-0.2,6 -0.7,12.1 -1.2,17.9l0,0.3c-0.2,2.1 -1.6,3.5 -3.6,3.5s-0.4,0 -0.6,0c-2.1,-0.3 -3.4,-2 -3.3,-4.2c0.2,-2.7 0.3,-5.4 0.5,-8.2l0,-0.7c-11.7,10 -26.1,17.3 -44.9,22.8c-16,4.7 -32.1,7 -47.9,7l0.2,0.2z" class="cls-1"/>
    <path id="svg_3" fill="#fff" stroke-width="0px" d="m374.22857,26.38571c2.2,0 3.3,0.8 3.2,3c-0.2,6.1 -0.7,12.1 -1.2,18.2c-0.1,1.3 -0.9,2.2 -2.2,2.2s-0.3,0 -0.4,0c-1.5,-0.2 -2.1,-1.3 -2.1,-2.7c0.2,-3.8 0.5,-7.6 0.8,-11.5c-0.5,0 -1,0 -1.2,0.2c-13.3,11.7 -29,18.8 -45.9,23.7c-15.6,4.6 -31.4,7 -47.5,7s-10.4,-0.3 -15.6,-0.8c-10.5,-1 -20.8,-3.3 -30.2,-8.4c-2.9,-1.6 -5.4,-3.7 -8.1,-5.6c-0.5,-0.4 -0.9,-1.1 -1.3,-1.6c0.2,-0.2 0.4,-0.5 0.6,-0.7c0.5,0.2 1.1,0.3 1.6,0.6c8.2,5.8 17.6,9.2 27.4,10.7c8.8,1.3 17.5,2 26.1,2c27.5,0 53.7,-6.9 78.5,-21.4c3.9,-2.3 7.3,-5.3 11,-7.9c-0.1,-0.3 -0.3,-0.6 -0.4,-1c-1.1,0.2 -2.3,0.3 -3.4,0.5c-3.4,0.6 -6.7,1.3 -10.1,1.9c-0.6,0.1 -1.2,0.2 -1.8,0.2s-0.5,0 -0.8,0c-0.6,-0.2 -1.4,-0.8 -1.5,-1.4c-0.1,-0.6 0.4,-1.5 0.9,-1.9c0.8,-0.5 1.9,-0.8 2.8,-1c6.2,-1.3 12.4,-2.6 18.6,-3.9c0.6,-0.1 1.2,-0.2 1.9,-0.3c0,0 0.2,0 0.2,0m0.1,-3c0,0 -0.2,0 -0.3,0c-0.9,0 -1.7,0.2 -2.4,0.3l-0.6,0c-5.9,1.3 -12,2.6 -18,3.9c-1.3,0.3 -2.6,0.6 -3.8,1.4c-1.5,1 -2.5,3.2 -2.1,4.8c0.4,1.9 2.2,3.3 3.6,3.6c0.5,0.1 0.9,0.2 1.5,0.2c0.8,0 1.6,-0.1 2.2,-0.2l0.2,0c1.3,-0.3 2.6,-0.5 3.9,-0.7c-0.9,0.7 -1.9,1.3 -2.9,1.9c-23.9,13.9 -49.9,21 -77,21s-17,-0.7 -25.7,-2c-9.9,-1.5 -18.7,-4.9 -26.1,-10.2c-0.7,-0.5 -1.4,-0.7 -1.9,-0.8c-0.1,0 -0.2,0 -0.3,-0.1l-2,-0.8l-1.3,1.7l-0.2,0.3l-0.3,0.4l-1.4,1.8l1.4,1.8c0,0.1 0.2,0.3 0.3,0.4c0.3,0.5 0.8,1.3 1.6,1.8c0.6,0.5 1.3,1 1.9,1.4c2,1.5 4.1,3.1 6.5,4.4c8.6,4.7 18.5,7.4 31.3,8.7c5.3,0.5 10.6,0.8 15.9,0.8c15.9,0 32.1,-2.4 48.3,-7.1c17.7,-5.2 31.5,-11.9 42.9,-20.9c-0.1,1.9 -0.3,3.7 -0.4,5.6c-0.2,3 1.7,5.3 4.6,5.7c0.3,0 0.5,0 0.8,0c2.7,0 4.8,-2 5,-4.8l0,-0.4c0.5,-5.9 1,-11.9 1.2,-17.9c0,-1.8 -0.4,-3.2 -1.4,-4.3c-1.6,-1.7 -3.9,-1.7 -4.7,-1.7l0,0l-0.3,0z" class="cls-3"/>
   </g>
   <g id="svg_4">
    <g id="svg_5">
     <path id="svg_6" fill="#fff" stroke-width="0px" d="m38.42857,41.58571c-1.8,0 -3.4,-0.5 -4.7,-1.6l0,0c0,0 0,-0.1 0,-0.1c-1.3,-1.4 -1.9,-3.3 -1.9,-5.7s0.2,-3.3 0.7,-5.2c0.4,-1.6 0.9,-3.2 1.4,-4.8l0,0c0,0.1 -0.2,0.4 -0.3,0.6c-1.5,3.4 -3.2,6.6 -5.1,9.5c-2.1,3.1 -5,5.2 -8.5,6.2c-1.6,0.4 -3.1,0.5 -4.5,0.5c-2.8,0 -5.3,-0.6 -7.2,-1.9c-2,-1.2 -3.5,-2.8 -4.5,-4.7c-1,-1.9 -1.6,-3.9 -1.6,-6s0.7,-4.4 2,-6.4c1.4,-2 3.5,-3.4 6.2,-4.2l0.2,0c0,0 0.4,0 0.4,0c0.6,0 1.2,0.2 1.7,0.6c0.5,0.4 0.7,1 0.7,1.6l0,0.6c-0.2,0.5 -0.3,1 -0.3,1.5c0,0.9 0.2,1.7 0.7,2.3c0.4,0.5 0.9,0.8 1.6,0.8s1.2,-0.2 2,-0.6c1.1,-0.6 2.4,-1.6 3.6,-2.9c0.5,-0.5 1,-1 1.5,-1.6c-0.3,0 -0.6,0 -0.9,0c-2,0 -3.9,-0.5 -5.8,-1.6c-1.6,-0.9 -2.8,-2.1 -3.6,-3.5c-0.8,-1.4 -1.2,-2.8 -1.2,-4.2c0,-2.3 0.9,-4.4 2.5,-6.2c1.7,-1.9 3.9,-2.8 6.6,-2.8s1.6,0 2.4,0.3c2.5,0.7 4.6,1.8 6.3,3.5c1.2,1.2 2.4,2.5 3.4,4c1.7,-1.5 3.5,-2.8 5.5,-3.9c2.5,-1.4 5.3,-2.1 8.2,-2.1l1.4,0c0,0 0,0 0,0c0.6,0 1.1,0.3 1.4,0.7c0.4,0.4 0.6,0.9 0.6,1.5l0,0c0,0.1 0,0.6 0,0.6l0,0c-2.1,6.5 -3.6,11.8 -4.4,15.6c-0.8,3.8 -1.3,6.7 -1.3,8.7s0.3,2.9 0.5,3.3c0.3,0.6 0.7,1.1 1.2,1.3l0,0c0,0 0,0.1 0,0.1c0.6,0.5 0.9,1.1 0.9,1.8s-0.3,1.3 -0.9,1.8l0,0c-2.2,1.5 -4.5,2.3 -7,2.3l0.1,0.3zm-13,-27.8s0,0 0,0.1c0.2,0.3 0.5,0.5 0.8,0.7l0,0s0,0 0,0c0.2,0.1 0.3,0.3 0.5,0.4c0,0 0,0 0,-0.1c-0.3,-0.3 -0.6,-0.6 -0.9,-0.8c-0.3,-0.2 -0.5,-0.3 -0.6,-0.4l0.2,0.1z" class="cls-3"/>
     <path id="svg_7" fill="#fff" stroke-width="0px" d="m20.02857,3.38571c0.7,0 1.4,0 2.1,0.2c2.2,0.6 4.1,1.6 5.7,3.1c1.6,1.5 3,3.2 4.2,5.2c2,-2 4.1,-3.6 6.4,-4.9c2.3,-1.3 4.8,-2 7.5,-2l1.3,0c0.2,0 0.4,0.2 0.6,0.3c0.1,0.1 0.2,0.3 0.2,0.5l0,0.3c-2.2,6.5 -3.6,11.7 -4.5,15.6c-0.9,3.9 -1.3,6.9 -1.3,9s0.2,3.2 0.7,4c0.5,0.9 1,1.5 1.7,1.9c0.2,0.2 0.4,0.4 0.4,0.7s-0.1,0.5 -0.4,0.7c-1.9,1.3 -4,2 -6.2,2s-2.7,-0.4 -3.7,-1.3c-1,-1.1 -1.5,-2.7 -1.5,-4.7s0.2,-3.1 0.6,-4.8c0.4,-1.7 1,-3.5 1.6,-5.3l-1.9,-2.7c-0.5,0.9 -0.9,1.9 -1.4,2.9c-1.4,3.4 -3.1,6.5 -5,9.3c-1.9,2.8 -4.5,4.7 -7.7,5.6c-1.5,0.3 -2.8,0.5 -4.1,0.5c-2.6,0 -4.7,-0.5 -6.5,-1.6c-1.8,-1.1 -3.1,-2.5 -4,-4.2c-0.9,-1.7 -1.4,-3.5 -1.4,-5.3s0.6,-3.8 1.8,-5.6c1.2,-1.7 3,-2.9 5.5,-3.6l0.2,0c0.3,0 0.5,0 0.7,0.2c0.2,0.2 0.3,0.4 0.3,0.6l0,0.2c-0.2,0.6 -0.3,1.2 -0.3,1.9c0,1.2 0.3,2.3 1,3.2c0.7,0.9 1.6,1.4 2.8,1.4s1.6,-0.2 2.6,-0.7c1.3,-0.7 2.7,-1.8 4,-3.2c1.4,-1.4 2.8,-2.9 4.2,-4.6c0.9,-1 1.8,-2.1 2.8,-3.1c-0.7,-0.8 -1.4,-1.4 -2,-1.9c-0.7,-0.5 -1.2,-0.8 -1.8,-0.8s-0.5,0 -0.8,0.3c-0.3,0.3 -0.5,0.6 -0.5,1s0.2,0.8 0.5,1.3c0.3,0.4 0.7,0.8 1.2,1c0.3,0.2 0.5,0.5 0.5,0.8s0,0.4 -0.3,0.6c-1.3,1 -2.8,1.5 -4.3,1.5s-3.4,-0.5 -5.1,-1.4c-1.4,-0.8 -2.4,-1.8 -3.1,-2.9c-0.7,-1.1 -1,-2.3 -1,-3.5c0,-1.9 0.7,-3.7 2.2,-5.2c1.4,-1.6 3.3,-2.3 5.5,-2.3m20.9,8.5c-2.2,1 -4,2.9 -5.4,5.5l1.6,2.3c1.6,-3.7 2.9,-6.3 3.8,-7.8m-20.9,-11.6c-3,0 -5.7,1.1 -7.6,3.3c-1.9,2.1 -2.9,4.5 -2.9,7.2s0.5,3.3 1.4,4.9c0,0.2 0.2,0.3 0.3,0.5c-0.1,0 -0.2,0 -0.3,0l-1,0c-3.1,1 -5.5,2.6 -7,4.9c-1.5,2.2 -2.3,4.6 -2.3,7.2s0.6,4.6 1.7,6.7c1.2,2.1 2.9,3.9 5,5.3c2.2,1.4 4.9,2.1 8,2.1s3.1,-0.2 4.7,-0.6l0,0s0,0 0,0c3.9,-1.1 7,-3.3 9.3,-6.7c0.3,-0.4 0.5,-0.8 0.8,-1.2c0,0 0,0.1 0,0.2c0,2.7 0.8,4.9 2.3,6.6l0,0.2c0.1,0 0.3,0.1 0.3,0.1c1.5,1.3 3.4,1.9 5.6,1.9s5.4,-0.8 7.8,-2.5l0,0c0,0 0,-0.1 0,-0.1c0.9,-0.7 1.5,-1.8 1.5,-2.9s-0.5,-2.2 -1.5,-2.9l-0.2,0c0,-0.1 -0.2,-0.2 -0.2,-0.2c-0.2,-0.1 -0.4,-0.4 -0.6,-0.8c0,-0.1 -0.4,-0.7 -0.4,-2.7s0.4,-4.7 1.2,-8.4c0.8,-3.8 2.3,-9 4.4,-15.4l0,-0.2c0,0 0,-0.2 0,-0.2l0,-0.3c0,0 0,-0.3 0,-0.3l0,-0.3c0,-0.9 -0.4,-1.8 -1,-2.5c-0.6,-0.6 -1.4,-1 -2.3,-1.1l-0.1,0s-0.1,0 -0.1,0l-1.3,0s0,0 0,0l0,0c-3.2,0 -6.2,0.8 -9,2.3c-1.6,0.9 -3.1,1.9 -4.5,3.1c-0.8,-1.1 -1.7,-2.1 -2.7,-3c-1.9,-1.8 -4.2,-3.1 -6.9,-3.8l0,0s0,0 0,0c-0.9,-0.2 -1.8,-0.3 -2.7,-0.3l0,0l0.3,-0.1zm-4.8,23.3c-0.3,0 -0.4,0 -0.5,-0.2c-0.3,-0.4 -0.4,-0.9 -0.4,-1.5s0,-0.7 0.2,-1.1l0,-0.2c0,0 0.2,-0.4 0.2,-0.4l0,-0.4c0,-0.1 0,-0.3 0,-0.4c0.1,0 0.2,0.1 0.3,0.2c1.4,0.8 2.7,1.3 4.2,1.6c-0.9,0.8 -1.7,1.5 -2.6,1.9c-0.7,0.4 -1.1,0.4 -1.3,0.4l0,0l-0.1,0.1z" class="cls-3"/>
    </g>
    <g id="svg_8">
     <path id="svg_9" fill="#fff" stroke-width="0px" d="m60.82857,39.28571c-1.3,0 -2.5,-0.6 -3.6,-1.4c-0.5,-0.4 -1,-0.9 -1.4,-1.5c-1.9,1.8 -3.7,2.6 -5.4,2.6l-0.6,0c-2.6,-0.4 -4.4,-1.3 -5.5,-2.8c-1,-1.4 -1.6,-3 -1.6,-4.8s0.3,-3.3 0.8,-5c0.5,-1.6 1,-3.1 1.6,-4.5c0.8,-1.9 1,-2.8 1,-3.2l0,0s-0.1,-0.9 -0.1,-0.9l0,0c0,-0.9 0.4,-1.6 1.1,-2c1.2,-0.7 2.6,-1 4.1,-1s1.2,0 1.7,0.2c1.4,0.3 2.5,0.9 3.2,1.8c0.6,0.9 0.9,1.9 0.9,3s-0.2,2.1 -0.5,3.2c-0.3,1 -0.7,2 -1,3l0,0c-0.7,1.6 -0.9,2.5 -1,3c0.1,-0.3 0.3,-0.6 0.5,-1.1c0.6,-1.4 1.1,-3 1.7,-4.7c0.5,-1.7 0.8,-3 0.8,-3.9s0,-0.3 0,-0.3l0,-0.2c0,0 -0.2,-0.6 -0.2,-0.6l0,0c0,-0.9 0.5,-1.7 1.3,-2.1l0,0s0,0 0,0c1,-0.4 2.1,-0.6 3.2,-0.6s2.9,0.4 4.1,1.1c0.8,0.5 1.4,1.2 1.8,2c0,0 0,-0.2 0.1,-0.3c0.8,-1.8 1.9,-3 3.5,-3.7l0,0s0,0 0,0c0.4,-0.2 0.8,-0.2 1.2,-0.2c1.3,0 2.4,0.7 2.9,1.9c0.4,0.9 0.6,2 0.6,3.2s0,1.1 0,1.6c0.4,-0.3 0.9,-0.4 1.5,-0.4l0.4,0c0.9,0 1.7,0.4 2.3,1.1c0.4,0.4 0.6,1 0.6,1.6s0,0.8 -0.3,1.1c-0.6,1.5 -1.6,2.8 -2.9,3.8c-1.2,0.9 -2.6,1.5 -4.3,1.6c-0.6,1.5 -1.3,2.9 -2.1,4.1c-1.1,1.6 -2.4,2.9 -4.1,3.9c-1.7,1 -3.7,1.5 -6.1,1.5l-0.4,0l0.2,-0.1zm4.8,-9.8c0.1,-0.1 0.2,-0.3 0.4,-0.6c0.4,-0.7 0.9,-1.7 1.2,-2.7c-0.1,-0.3 -0.2,-0.7 -0.3,-1.1c-0.1,0.4 -0.3,0.7 -0.4,1.1c-0.8,1.9 -0.9,2.8 -0.9,3.1l0,0c0,0 0,0.1 0,0.1l0,0.1z" class="cls-3"/>
     <path id="svg_10" fill="#fff" stroke-width="0px" d="m72.62857,15.58571c0.7,0 1.3,0.4 1.6,1.1c0.3,0.7 0.5,1.6 0.5,2.6c0,1.9 -0.4,3.8 -1.2,5.7c0.2,0 0.5,0 0.7,0c0.5,0 0.9,-0.2 1.2,-0.7c0.3,-0.4 0.6,-1 0.7,-1.5c0.3,-0.6 0.8,-0.9 1.4,-0.9l0.4,0c0.5,0 0.9,0.2 1.2,0.6c0.2,0.2 0.3,0.5 0.3,0.7s0,0.3 -0.2,0.5c-0.5,1.3 -1.3,2.4 -2.4,3.3c-1.1,0.9 -2.5,1.3 -4.2,1.3l-0.3,0c-0.6,1.7 -1.3,3.3 -2.3,4.7c-1,1.4 -2.2,2.6 -3.6,3.4c-1.4,0.9 -3.2,1.3 -5.3,1.3l-0.4,0c-0.9,0 -1.9,-0.4 -2.7,-1.1c-0.9,-0.7 -1.5,-1.6 -2,-2.7c-2.1,2.4 -4,3.6 -5.7,3.6l-0.4,0c-2.2,-0.3 -3.7,-1.1 -4.5,-2.2c-0.8,-1.1 -1.3,-2.4 -1.3,-3.9s0.2,-3 0.7,-4.6c0.5,-1.6 1,-3.1 1.5,-4.4c0.8,-1.9 1.2,-3.2 1.2,-4s0,-0.3 -0.1,-0.4l0,-0.4c0,-0.3 0,-0.5 0.4,-0.7c0.9,-0.6 2.1,-0.8 3.4,-0.8s1,0 1.4,0.1c1.1,0.2 1.9,0.6 2.3,1.2c0.4,0.6 0.7,1.3 0.7,2.2s-0.2,1.8 -0.5,2.8c-0.3,1 -0.7,2 -1,3c-0.7,1.6 -1.1,2.9 -1.1,3.9l0,0.2c0,0.5 0.2,0.9 0.5,1.1c0.3,0.3 0.6,0.4 0.9,0.4s0.5,0 0.7,-0.2c0.2,-0.2 0.6,-1 1.2,-2.4c0.6,-1.4 1.2,-3 1.7,-4.8c0.5,-1.8 0.8,-3.2 0.8,-4.4s0,-0.7 -0.2,-0.9l0,-0.3c0,-0.3 0.1,-0.5 0.5,-0.7c0.9,-0.4 1.8,-0.5 2.7,-0.5s2.3,0.3 3.3,0.9c1,0.6 1.5,1.5 1.5,2.8s0,0.6 -0.1,0.9c-0.3,1.4 -0.8,2.9 -1.4,4.3c-0.7,1.6 -1.1,2.8 -1.1,3.7l0,0.2c0.1,0.7 0.4,1.1 0.8,1.4c0.2,0 0.4,0.1 0.6,0.1c0.6,0 1.2,-0.5 1.7,-1.4c0.6,-0.9 1.1,-2.1 1.5,-3.5c-0.4,-0.9 -0.6,-1.9 -0.6,-3s0.3,-2.9 0.9,-4.4c0.6,-1.5 1.5,-2.5 2.7,-3c0.3,0 0.5,-0.1 0.7,-0.1m0.3,-3c-0.5,0 -1.1,0.1 -1.7,0.3l-0.1,0s-0.1,0.1 -0.1,0.1c-1.3,0.6 -2.3,1.5 -3.2,2.7c-0.3,-0.2 -0.5,-0.4 -0.8,-0.6c-1.5,-0.9 -3.1,-1.4 -4.9,-1.4s-2.6,0.3 -3.8,0.8l-0.2,0c0,0 -0.2,0.1 -0.2,0.1c-0.3,0.2 -0.6,0.4 -0.9,0.6c-0.9,-1 -2.1,-1.6 -3.7,-1.9c-0.6,-0.1 -1.3,-0.2 -2,-0.2c-1.8,0 -3.5,0.4 -4.9,1.2c-1.2,0.7 -1.8,1.9 -1.8,3.2l0,0.4s0,0.4 0,0.4l0,0.3c0,0.4 -0.3,1.1 -0.9,2.6l0,0s0,0 0,0c-0.5,1.4 -1.1,3 -1.6,4.6c-0.6,1.8 -0.9,3.7 -0.9,5.4s0.6,4 1.8,5.7c1.3,1.7 3.5,2.9 6.4,3.3l0.2,0s0.2,0 0.2,0l0.4,0c1.7,0 3.4,-0.7 5.2,-2.1c0.2,0.2 0.4,0.4 0.7,0.6c1.3,1.1 2.8,1.6 4.3,1.7l0,0s0,0 0,0l0.4,0c2.6,0 4.9,-0.6 6.8,-1.7c1.8,-1.1 3.3,-2.5 4.5,-4.3c0.8,-1.1 1.4,-2.3 1.9,-3.6c1.6,-0.2 3,-0.8 4.2,-1.8c1.5,-1.2 2.6,-2.6 3.3,-4.4c0.3,-0.6 0.4,-1.1 0.4,-1.7c0,-1 -0.3,-1.9 -1,-2.6c-0.9,-1 -2.1,-1.6 -3.4,-1.6l-0.4,0c0,-1.3 -0.3,-2.5 -0.7,-3.5c-0.8,-1.8 -2.3,-2.8 -4.2,-2.8l0,0l0.7,0.2z" class="cls-3"/>
    </g>
    <g id="svg_11">
     <path id="svg_12" fill="#fff" stroke-width="0px" d="m83.72857,39.58571c-2.5,0 -4.6,-0.5 -6.2,-1.4c-1.6,-0.9 -2.9,-2.2 -3.7,-3.7c-0.8,-1.5 -1.2,-3.2 -1.2,-4.9c0,-3.2 1.2,-6.3 3.5,-9.2c2.4,-2.9 5.7,-4.7 9.8,-5.1c0,0 1.2,0 1.2,0c1.9,0 3.5,0.4 4.7,1c1.2,0.7 2.1,1.7 2.7,2.8c0.5,1.1 0.8,2.3 0.8,3.6s0,1.5 -0.2,2.2c0.4,-0.2 0.9,-0.2 1.2,-0.2c0.7,0 1.4,0.2 2,0.6c0.8,0.5 1.2,1.3 1.2,2.2s0,0.7 -0.2,1c-2.6,7.2 -7.8,10.9 -15.2,11.1l0,0s-0.3,0 -0.3,0l-0.1,0z" class="cls-3"/>
     <path id="svg_13" fill="#fff" stroke-width="0px" d="m87.22857,16.58571c1.6,0 2.9,0.3 3.9,0.9c1,0.6 1.7,1.3 2.1,2.2c0.4,0.9 0.7,1.9 0.7,3s-0.3,2.8 -0.9,4.2c-0.6,1.4 -1.4,2.6 -2.5,3.5c-1,0.9 -2.2,1.4 -3.3,1.4s-2.3,-0.6 -3.5,-1.7l0,0.3c0,0.8 0.3,1.5 0.9,2.1c0.6,0.6 1.4,0.9 2.3,0.9l0.4,0c3.5,-0.6 6,-2.7 7.3,-6.3c0.4,-0.6 1,-0.9 1.6,-0.9s0.9,0.1 1.2,0.4c0.4,0.2 0.6,0.6 0.6,1s0,0.3 -0.1,0.5c-2.4,6.6 -7.1,10 -13.9,10.1l-0.3,0c-2.2,0 -4.1,-0.4 -5.5,-1.2c-1.4,-0.8 -2.4,-1.9 -3.1,-3.2c-0.7,-1.3 -1,-2.7 -1,-4.3c0,-2.9 1.1,-5.6 3.2,-8.3c2.1,-2.6 5.1,-4.2 8.8,-4.6l1.1,0m-1.7,9.1c0.7,0 1.5,-0.4 2.3,-1.3c0.8,-0.9 1.2,-1.8 1.2,-2.7s-0.4,-1.4 -1.2,-1.8l-0.1,0c-0.2,0 -0.6,0.4 -1.1,1.1c-0.5,0.8 -0.9,1.6 -1.2,2.4c-0.4,0.9 -0.6,1.5 -0.7,2c0.2,0.2 0.5,0.2 0.8,0.2m1.7,-11.9l-0.1,0s-1.1,0 -1.1,0l0,0s0,0 0,0c-4.5,0.5 -8.1,2.4 -10.7,5.7c-2.5,3.2 -3.8,6.5 -3.8,10.1s0.5,3.9 1.4,5.6c0.9,1.8 2.4,3.2 4.3,4.3c1.8,1 4.2,1.6 6.9,1.6l0.4,0c8,-0.2 13.7,-4.3 16.5,-12c0.2,-0.5 0.3,-1 0.3,-1.5c0,-1.4 -0.7,-2.6 -1.8,-3.4c-0.7,-0.5 -1.5,-0.8 -2.4,-0.8c0,-0.2 0,-0.4 0,-0.6c0,-1.5 -0.3,-2.9 -0.9,-4.2c-0.7,-1.4 -1.8,-2.6 -3.3,-3.5c-1.4,-0.8 -3.2,-1.2 -5.3,-1.2l0,0l-0.4,-0.1z" class="cls-3"/>
    </g>
    <g id="svg_14">
     <path id="svg_15" fill="#fff" stroke-width="0px" d="m103.32857,39.38571c-2.5,0 -4.9,-0.7 -6.9,-2.2c-2.2,-1.5 -3.4,-3.9 -3.7,-6.9l0,0l0,-0.7c0,-1.5 0.3,-3.1 0.9,-4.6c0.6,-1.5 1.5,-2.8 2.6,-3.9c1.2,-1.1 2.7,-1.7 4.4,-1.7s0.1,0 0.2,0c0.2,-0.2 1.3,-1.7 1.4,-1.8c0.1,-1.4 0.8,-2.6 1.9,-3.3c1.1,-0.8 2.2,-1.2 3.3,-1.2s1.3,0.2 1.9,0.5c0.7,0.5 1.1,1.2 1.1,2s-0.2,1.2 -0.5,1.8c0,0.2 0.2,0.9 0.9,2.3l0.2,0.4c0.3,0.7 0.7,1.4 1,2c0.6,1.1 1.2,2.2 1.7,3.4c0.5,1.3 0.8,2.7 0.8,4.1s0,0.8 0,1.2l0,0c-0.5,2.9 -1.9,5 -4.1,6.5c-2.1,1.4 -4.5,2.1 -6.9,2.1l-0.2,0zm1,-11.6s-0.1,0 -0.2,0.2c0,0 -0.2,0.2 -0.2,0.5c0,0.6 0.2,0.8 0.3,0.8c0.3,0.2 0.5,0.3 0.8,0.3s0.5,0 0.9,-0.4c0.3,-0.3 0.4,-0.9 0.4,-1.3s0,-0.3 0,-0.4c-0.1,0 -0.2,0.1 -0.3,0.2l-0.1,0c0,0 -0.1,0 -0.1,0c-0.2,0 -0.5,0 -0.7,0s-0.4,0 -0.6,0l-0.2,0.1z" class="cls-3"/>
     <path id="svg_16" fill="#fff" stroke-width="0px" d="m107.42857,14.48571c0.4,0 0.8,0 1.1,0.3c0.3,0.2 0.4,0.5 0.4,0.8s-0.1,0.7 -0.4,1.1c-0.1,0.2 -0.2,0.4 -0.2,0.6c0,0.7 0.4,1.7 1.1,3c0,0.1 0.1,0.3 0.2,0.4c0.3,0.7 0.6,1.3 1,2c0.6,1.1 1.1,2.2 1.6,3.3c0.5,1.1 0.7,2.3 0.7,3.5s0,0.7 0,1.1c-0.4,2.4 -1.6,4.2 -3.5,5.4c-1.9,1.2 -3.9,1.8 -6.2,1.8s-4.3,-0.6 -6.1,-1.9c-1.8,-1.3 -2.8,-3.3 -3.1,-5.9l0,-0.6c0,-1.4 0.3,-2.7 0.8,-4.1c0.5,-1.3 1.3,-2.4 2.2,-3.3c1,-0.9 2.1,-1.3 3.4,-1.3s0.6,0 0.8,0c0,0 0.1,-0.1 0.3,-0.4c0.2,-0.3 0.4,-0.6 0.7,-0.9c0.3,-0.3 0.5,-0.7 0.7,-0.9c0.2,-0.3 0.4,-0.5 0.4,-0.6c0,-1.2 0.4,-2.1 1.3,-2.7c0.9,-0.6 1.7,-0.9 2.5,-0.9m-2.2,12.1c-0.1,0 -0.2,0 -0.4,0l-0.3,0c-0.4,0 -0.8,0.1 -1.2,0.5c-0.4,0.4 -0.7,0.9 -0.7,1.5l0,0c0,0.9 0.3,1.6 0.8,2c0.5,0.4 1.1,0.7 1.7,0.7s1.3,-0.3 1.9,-0.8c0.6,-0.5 0.9,-1.3 0.9,-2.4s-0.2,-1.7 -0.6,-2.7c-0.4,-1.1 -1.1,-2.3 -2.1,-3.6l-0.5,0.8c0.9,0.8 1.4,1.8 1.4,2.7s0,0.5 -0.1,0.7c-0.1,0.3 -0.3,0.4 -0.5,0.5c-0.1,0 -0.3,0 -0.4,0m2.6,-14.7c-1.4,0 -2.8,0.5 -4.2,1.4c-1.3,0.9 -2.2,2.3 -2.4,4c-0.2,0.2 -0.4,0.5 -0.6,0.8c0,0 0,0 -0.1,0.1c-1.8,0.1 -3.5,0.8 -4.8,2.1c-1.3,1.2 -2.3,2.7 -3,4.4c-0.7,1.7 -1,3.4 -1,5.1l0,0.6l0,0c0,0.1 0,0.3 0,0.3c0.3,3.5 1.8,6.2 4.3,8c2.3,1.6 4.9,2.5 7.8,2.5s5.4,-0.8 7.7,-2.3c2.6,-1.7 4.2,-4.1 4.7,-7.3l0,0c0,-0.1 0,-0.2 0,-0.2c0,-0.5 0,-0.9 0,-1.4c0,-1.6 -0.3,-3.1 -0.9,-4.6c-0.5,-1.2 -1.1,-2.4 -1.7,-3.6c-0.3,-0.7 -0.6,-1.3 -0.9,-1.9l0,0c0,0 0,-0.1 0,-0.1l-0.2,-0.4c-0.4,-0.7 -0.6,-1.2 -0.7,-1.4c0.3,-0.7 0.4,-1.3 0.4,-2c0,-1.3 -0.6,-2.5 -1.7,-3.2c-0.8,-0.5 -1.7,-0.8 -2.7,-0.8l0,0l0,-0.1z" class="cls-3"/>
    </g>
    <g id="svg_17">
     <path id="svg_18" fill="#fff" stroke-width="0px" d="m124.52857,39.28571c-3.3,0 -6.1,-1.1 -8.4,-3.1c-2.3,-2.1 -3.4,-4.8 -3.4,-7.8l0,0c0,-0.1 0,-0.8 0,-0.8c0.3,-2.8 1.4,-5.2 3.2,-7.2c1.8,-2 4.1,-3.4 6.9,-4c0.4,0 0.6,0 0.9,0s0.8,0 1.2,0.2c0,0 0.2,0 0.3,0.1c0.7,-0.3 1.5,-0.4 2.2,-0.4c1.6,0 3.2,0.5 4.7,1.4c1.4,0.9 2.6,1.9 3.4,3c1.5,2.1 2.2,4.2 2.2,6.4s-0.6,4.2 -1.8,6.1c-1.2,1.9 -2.8,3.4 -4.8,4.6c-2,1.2 -4.3,1.8 -6.7,1.8l0.1,-0.3z" class="cls-3"/>
     <path id="svg_19" fill="#fff" stroke-width="0px" d="m127.42857,17.38571c1.3,0 2.7,0.4 3.9,1.2c1.3,0.8 2.3,1.7 3.1,2.7c1.3,1.8 1.9,3.6 1.9,5.5s-0.5,3.7 -1.6,5.4c-1.1,1.7 -2.5,3.1 -4.3,4.1c-1.8,1.1 -3.8,1.6 -6,1.6s-5.4,-0.9 -7.4,-2.8c-2,-1.8 -3,-4.1 -3,-6.8l0,-0.7c0.3,-2.4 1.2,-4.6 2.9,-6.4c1.6,-1.8 3.7,-3 6.2,-3.6c0.2,0 0.4,0 0.6,0s0.5,0 0.7,0.1c0.2,0 0.4,0.2 0.5,0.5c0.7,-0.5 1.5,-0.7 2.4,-0.7m-2.2,9c-0.8,0 -1.5,-0.3 -2.2,-0.9c-0.6,-0.6 -0.8,-1.4 -0.8,-2.2s0,-0.9 0.2,-1.3c-0.9,1 -1.3,2.1 -1.3,3.2s0.2,1.5 0.7,2.2c0.5,0.7 1.2,1.1 2.3,1.3c0.2,0 0.5,0 0.7,0c1.1,0 2,-0.3 2.9,-0.9c0.9,-0.6 1.5,-1.4 1.8,-2.4c0.2,-0.6 0.3,-1.2 0.3,-1.7c0,-0.7 -0.2,-1.3 -0.6,-1.6c-0.4,-0.3 -0.8,-0.5 -1.2,-0.5s-0.8,0.1 -1.1,0.4c-0.3,0.3 -0.5,0.6 -0.5,1.1s0,0.5 0.2,0.8c0.1,0.2 0.4,0.4 0.7,0.4c0.3,0 0.6,0.1 0.9,0.1c0.1,0 0.3,0 0.3,0c0,0 0.1,0 0.2,0l0,0c0,0.5 -0.4,0.8 -1.1,1.3c-0.7,0.4 -1.5,0.6 -2.3,0.6m2.2,-11.9c-0.8,0 -1.5,0.1 -2.2,0.4c-0.5,-0.1 -1,-0.2 -1.4,-0.2s-0.7,0 -1.1,0l0,0s0,0 0,0c-3,0.8 -5.5,2.3 -7.6,4.5c-2.1,2.3 -3.3,5 -3.6,8l0,0s0,0 0,0l0,0.7c0,0 0,0.1 0,0.1l0,0c0,3.6 1.3,6.6 3.9,9c2.5,2.3 5.7,3.5 9.4,3.5s5.2,-0.7 7.5,-2c2.2,-1.3 3.9,-3 5.2,-5.1c1.3,-2.1 2,-4.5 2,-6.9s-0.8,-4.9 -2.4,-7.2l0,0s0,0 0,0c-1,-1.3 -2.2,-2.4 -3.8,-3.4c-1.8,-1.1 -3.6,-1.6 -5.5,-1.6l0,0l-0.4,0.2z" class="cls-3"/>
    </g>
    <g id="svg_20">
     <path id="svg_21" fill="#fff" stroke-width="0px" d="m151.32857,40.48571c-1.1,0 -2.3,-0.4 -3.6,-1.1l0,0c0,0 0,-0.1 0,-0.1c-0.4,-0.3 -0.8,-0.7 -1,-1.1c-0.2,0.4 -0.6,1 -1.5,1.3c-0.6,0.2 -1.2,0.3 -2,0.3s-2.2,-0.2 -3.4,-0.5c-1.3,-0.4 -2.4,-0.9 -3.3,-1.6c-1.4,-1.1 -1.8,-2.4 -1.8,-3.3l0,0c0,0 0,-0.7 0,-0.7l0,0c0.5,-2.4 1.1,-4.6 1.9,-6.4c0.8,-1.8 1.5,-4.1 2,-6.8l0,-0.6c0,-0.3 0,-0.5 0,-0.5c0,-0.2 -0.2,-0.4 -0.2,-0.6c-0.3,-0.5 -0.4,-1 -0.4,-1.5s0.1,-0.8 0.4,-1.2l0,0c0,-0.1 0,-0.2 0,-0.2c0.7,-0.7 1.7,-1.1 3.3,-1.1s2.7,0.3 4,1c0.9,0.5 1.7,1.1 2.3,2c0.5,-0.4 1,-0.8 1.6,-1.1c1.2,-0.7 2.5,-1.1 3.9,-1.1l0.2,0c1.8,0 3.1,0.4 4.1,1.2c0.3,0.3 0.6,0.6 0.8,0.9c0.5,-0.3 0.9,-0.6 1.4,-0.9c1.2,-0.6 2.6,-1 4.1,-1l0.8,0c2.4,0.3 4,0.9 5,2c1,1.1 1.5,2.4 1.5,3.9s-0.2,2.1 -0.5,3.2c-0.3,1 -0.6,2 -1,3c-0.3,0.8 -0.5,1.6 -0.7,2.3c-0.2,0.6 -0.3,1.2 -0.3,1.7s0,0.4 0.1,0.5c0,0 0,0 0,0c0,0 0.2,0 0.6,0.1c0.6,0 1.2,0.3 1.6,0.7c0.4,0.4 0.6,1 0.6,1.5l0,0.6c-0.1,0 -0.1,0 -0.1,0c-0.5,1.4 -1.4,2.5 -2.8,3.2c-1.3,0.7 -2.7,1 -4.2,1s-2.5,-0.2 -3.6,-0.7c-1.2,-0.5 -2.3,-1.3 -3,-2.4c-0.5,-0.7 -0.9,-1.6 -1.1,-2.5c0,0.4 0,0.8 0,1.1c0,0.5 0,0.7 0,0.7c0,0.3 0.1,0.5 0.1,0.8c0,0.6 -0.3,1.2 -0.7,1.6c-0.5,0.5 -1.2,0.9 -2.1,1.4c-1,0.5 -2.1,0.8 -3.2,0.8l0.2,0.2zm-0.7,-17.4c-0.3,0.1 -0.6,0.5 -0.9,1.2c-0.4,0.8 -0.8,1.7 -1.1,2.7c0.5,-0.9 1,-1.9 1.7,-3c0.1,-0.3 0.3,-0.6 0.3,-0.8c0,0 0,0 0,0l0,-0.1z" class="cls-3"/>
     <path id="svg_22" fill="#fff" stroke-width="0px" d="m141.82857,16.18571c1.1,0 2.2,0.3 3.4,0.9c1.2,0.6 2,1.6 2.5,3.1c0.8,-0.9 1.8,-1.7 2.8,-2.3c1,-0.6 2.1,-0.9 3.2,-0.9l0.2,0c1.4,0 2.4,0.3 3.1,0.9s1.1,1.3 1.3,2.2c0.7,-0.8 1.6,-1.5 2.6,-2c1,-0.5 2.1,-0.8 3.4,-0.8l0.7,0c2,0.2 3.3,0.7 4.1,1.5c0.8,0.8 1.1,1.8 1.1,2.9s-0.1,1.8 -0.4,2.8c-0.3,1 -0.6,2 -1,3c-0.3,0.8 -0.5,1.7 -0.8,2.4c-0.2,0.8 -0.3,1.5 -0.3,2.1s0.1,1 0.4,1.4c0.3,0.4 0.8,0.6 1.6,0.7c0.2,0 0.4,0 0.6,0.2c0.2,0.2 0.2,0.3 0.2,0.5l0,0.2c-0.4,1 -1.1,1.8 -2.2,2.4c-1.1,0.6 -2.2,0.8 -3.5,0.8s-2.1,-0.2 -3.1,-0.6c-1,-0.4 -1.8,-1.1 -2.4,-1.9c-0.6,-0.9 -0.9,-2 -0.9,-3.4s0.1,-1.6 0.3,-2.4c0.2,-0.8 0.7,-1.8 1.4,-2.9c0.5,-0.8 0.9,-1.5 1.2,-2.3c0.4,-0.7 0.6,-1.3 0.6,-1.8s-0.3,-0.8 -0.9,-0.9l0,0c-0.7,0 -1.5,0.8 -2.3,2.5c-0.8,1.7 -1.5,3.5 -2.1,5.7c-0.6,2.1 -0.9,3.8 -0.9,5.1s0,0.9 0.2,1.2c0,0 0,0.2 0,0.3c0,0.2 0,0.4 -0.3,0.6c-0.4,0.4 -1,0.7 -1.8,1.1c-0.8,0.4 -1.6,0.6 -2.6,0.6s-1.8,-0.3 -2.8,-0.9c-0.8,-0.7 -1.2,-1.6 -1.2,-2.7s0.2,-2.2 0.7,-3.4c0.4,-1.2 0.9,-2.4 1.5,-3.5c0.5,-1.1 1.3,-2.4 2.1,-3.8c0.2,-0.4 0.3,-0.7 0.4,-1c0.1,-0.3 0.2,-0.6 0.2,-0.9s0,-0.5 -0.2,-0.7c-0.2,-0.2 -0.4,-0.4 -0.8,-0.4l-0.3,0c-0.9,0 -1.7,0.7 -2.4,2s-1.3,2.9 -1.7,4.7c-0.5,1.8 -0.8,3.6 -1.1,5.3c-0.2,1.7 -0.3,2.9 -0.3,3.6l0,0c0,0.4 -0.3,0.6 -0.7,0.8c-0.4,0.1 -0.9,0.2 -1.5,0.2c-0.9,0 -1.9,-0.2 -3,-0.5c-1.1,-0.3 -2,-0.8 -2.8,-1.4c-0.8,-0.6 -1.2,-1.3 -1.2,-2.2l0,-0.4c0.5,-2.3 1.1,-4.3 1.9,-6.1c0.9,-1.9 1.6,-4.3 2.1,-7.1l0,-0.7c0,-0.4 0,-0.8 -0.1,-1.1c-0.1,-0.3 -0.2,-0.5 -0.3,-0.8c-0.2,-0.3 -0.3,-0.5 -0.3,-0.8s0,-0.3 0.2,-0.4c0.4,-0.4 1.1,-0.6 2.2,-0.6m0,-3c-2,0 -3.4,0.5 -4.3,1.6l-0.2,0.2l0,0.2c-0.5,0.6 -0.7,1.3 -0.7,2s0.2,1.5 0.6,2.1c0,0.1 0,0.2 0.1,0.3c0,0 0,0 0,0l0,0.4c-0.5,2.5 -1.1,4.6 -1.9,6.3c-0.9,2 -1.6,4.2 -2,6.7l0,0c0,0.1 0,0.2 0,0.2l0,0.4c0,0 0,0.2 0,0.2l0,0.2c0,1.7 0.8,3.3 2.3,4.5c1.1,0.8 2.3,1.4 3.8,1.9c1.3,0.4 2.6,0.6 3.8,0.6s1.8,-0.1 2.5,-0.4c0.4,-0.1 0.7,-0.3 1,-0.5c0,0 0,0 0.1,0l0.1,0c0,0.1 0.2,0.2 0.2,0.2c1.5,0.9 2.9,1.3 4.3,1.3s2.7,-0.3 3.9,-1c0.9,-0.5 1.7,-1 2.3,-1.5l0,0s0,0 0,0c0.2,-0.2 0.5,-0.5 0.6,-0.8c0.7,0.7 1.6,1.2 2.5,1.6c1.3,0.6 2.7,0.8 4.2,0.8s3.3,-0.4 4.8,-1.2c1.7,-0.9 3,-2.3 3.5,-4l0,-0.2c0,0 0,-0.2 0,-0.2l0,-0.2c0,0 0.1,-0.3 0.1,-0.3l0,-0.3c0,-0.9 -0.4,-1.8 -1,-2.5c-0.5,-0.5 -1.1,-0.8 -1.8,-1c0,-0.2 0,-0.3 0.1,-0.5c0.2,-0.7 0.5,-1.5 0.7,-2.3c0.4,-1 0.7,-2.1 1,-3.1c0.4,-1.3 0.6,-2.5 0.6,-3.6c0,-1.9 -0.7,-3.6 -1.9,-4.9c-1.3,-1.3 -3.2,-2.1 -5.9,-2.4l0,0s0,0 0,0l-0.7,0s0,0 0,0l0,0c-1.8,0 -3.4,0.4 -4.8,1.1c-0.2,0 -0.4,0.2 -0.5,0.3c0,0 0,0 -0.1,0c-1.2,-1 -2.9,-1.6 -5,-1.6l-0.2,0c-1.6,0 -3.2,0.4 -4.7,1.3c-0.2,0.1 -0.4,0.3 -0.6,0.4c-0.6,-0.5 -1.2,-1 -1.9,-1.3c-1.6,-0.8 -3.2,-1.1 -4.7,-1.1l0,0l-0.2,0.1z" class="cls-3"/>
    </g>
    <g id="svg_23">
     <path id="svg_24" fill="#fff" stroke-width="0px" d="m179.92857,39.58571c-2.5,0 -4.6,-0.5 -6.2,-1.4c-1.6,-0.9 -2.9,-2.2 -3.7,-3.7c-0.8,-1.5 -1.2,-3.2 -1.2,-4.9c0,-3.2 1.2,-6.3 3.5,-9.2c2.4,-2.9 5.7,-4.7 9.8,-5.1c0,0 1.2,0 1.2,0c1.9,0 3.5,0.4 4.7,1c1.2,0.7 2.1,1.7 2.7,2.8c0.5,1.1 0.8,2.3 0.8,3.6s0,1.5 -0.2,2.2c0.4,-0.2 0.9,-0.2 1.2,-0.2c0.7,0 1.4,0.2 2,0.6c0.8,0.5 1.2,1.3 1.2,2.2s0,0.7 -0.2,1c-2.6,7.2 -7.8,10.9 -15.2,11.1l0,0s-0.3,0 -0.3,0l-0.1,0z" class="cls-3"/>
     <path id="svg_25" fill="#fff" stroke-width="0px" d="m183.32857,16.58571c1.6,0 2.9,0.3 3.9,0.9c1,0.6 1.7,1.3 2.1,2.2c0.4,0.9 0.7,1.9 0.7,3s-0.3,2.8 -0.9,4.2c-0.6,1.4 -1.4,2.6 -2.5,3.5c-1,0.9 -2.2,1.4 -3.3,1.4s-2.3,-0.6 -3.5,-1.7l0,0.3c0,0.8 0.3,1.5 0.9,2.1c0.6,0.6 1.4,0.9 2.3,0.9l0.4,0c3.5,-0.6 6,-2.7 7.3,-6.3c0.4,-0.6 1,-0.9 1.6,-0.9s0.9,0.1 1.2,0.4c0.4,0.2 0.6,0.6 0.6,1s0,0.3 -0.1,0.5c-2.4,6.6 -7.1,10 -13.9,10.1l-0.3,0c-2.2,0 -4.1,-0.4 -5.5,-1.2c-1.4,-0.8 -2.4,-1.9 -3.1,-3.2c-0.7,-1.3 -1,-2.7 -1,-4.3c0,-2.9 1.1,-5.6 3.2,-8.3c2.1,-2.6 5.1,-4.2 8.8,-4.6l1.1,0m-1.7,9.1c0.7,0 1.5,-0.4 2.3,-1.3c0.8,-0.9 1.2,-1.8 1.2,-2.7s-0.4,-1.4 -1.2,-1.8l-0.1,0c-0.2,0 -0.6,0.4 -1.1,1.1c-0.5,0.8 -0.9,1.6 -1.2,2.4c-0.4,0.9 -0.6,1.5 -0.7,2c0.2,0.2 0.5,0.2 0.8,0.2m1.7,-11.9l-0.1,0s-1.1,0 -1.1,0l0,0s0,0 0,0c-4.5,0.5 -8.1,2.4 -10.7,5.7c-2.5,3.2 -3.8,6.5 -3.8,10.1s0.5,3.9 1.4,5.6c0.9,1.8 2.4,3.2 4.3,4.3c1.8,1 4.2,1.6 6.9,1.6l0.4,0c8,-0.2 13.7,-4.3 16.5,-12c0.2,-0.5 0.3,-1 0.3,-1.5c0,-1.4 -0.7,-2.6 -1.8,-3.4c-0.7,-0.5 -1.5,-0.8 -2.4,-0.8c0,-0.2 0,-0.4 0,-0.6c0,-1.5 -0.3,-2.9 -0.9,-4.2c-0.7,-1.4 -1.8,-2.6 -3.3,-3.5c-1.4,-0.8 -3.2,-1.2 -5.3,-1.2l0,0l-0.4,-0.1z" class="cls-3"/>
    </g>
    <g id="svg_26">
     <path id="svg_27" fill="#fff" stroke-width="0px" d="m215.52857,40.88571c-3.1,-0.1 -5.7,-0.7 -7.7,-1.9c-2.1,-1.2 -3.6,-2.7 -4.6,-4.5c-1,-1.8 -1.5,-3.7 -1.5,-5.7s0.7,-4.6 2.1,-6.6c1.4,-2 3.3,-3.4 5.9,-4.2c-0.5,-1 -0.7,-2.1 -0.7,-3.2c0,-2.9 1.5,-5.5 4.4,-7.9c2.8,-2.3 6.7,-3.5 11.5,-3.6l0,0c1.8,0 3.8,0 5.9,0.3c1,-0.6 2,-0.9 3.2,-0.9s2.1,0.2 3.2,0.6l0,0s0,0 0,0c0.7,0.4 1.2,0.9 1.3,1.6c3.4,1.1 6,2.6 7.7,4.5c1.9,2.2 2.9,4.5 2.9,7s-0.6,4 -1.8,5.8c-1.2,1.8 -2.8,3.3 -4.9,4.4c-2.1,1.1 -4.5,1.7 -7.2,1.7s-3.1,-0.2 -4.8,-0.6c-0.6,1.7 -1.4,3.5 -2.3,5.1c-1.2,2.2 -2.8,4.1 -4.8,5.6c-2,1.6 -4.6,2.4 -7.5,2.4l-0.2,0l-0.1,0.1zm-2.9,-19.3c0,0.2 0,0.4 0,0.5c0,0.9 0.1,1.5 0.4,1.9c0.3,0.4 0.6,0.7 1,0.9c0.4,0.2 0.8,0.3 1.1,0.3l0.4,0c1.6,0 2.9,-0.6 4,-1.7c0,0 0.2,-0.2 0.3,-0.3c-0.5,0.1 -1.1,0.2 -1.6,0.2c-1.5,0 -3,-0.4 -4.5,-1.2c-0.4,-0.2 -0.7,-0.4 -1,-0.6l-0.1,0zm19.8,0c2,0 3.4,-0.4 4.4,-1.2c0.9,-0.8 1.3,-1.6 1.3,-2.5s-0.4,-1.7 -1.1,-2.5c-0.6,-0.7 -1.4,-1.3 -2.5,-1.8c-0.8,2.4 -1.5,4.9 -2.2,7.5c0,0.2 -0.1,0.4 -0.2,0.5c0,0 0.2,0 0.3,0zm-8.9,-6.8c0.3,0 0.6,0 0.9,0.2c0.4,-0.9 0.8,-1.9 1.2,-2.8c0,0 0,0 0,0c-0.6,0 -1.2,0.2 -1.7,0.5c-0.3,0.1 -0.8,0.4 -1,1.4c0,0.1 0,0.4 0,0.6s0,0.2 0,0.3l0.6,0s0,0 0,0l0,-0.2z" class="cls-3"/>
     <path id="svg_28" fill="#fff" stroke-width="0px" d="m233.82857,4.28571c0.8,0 1.7,0.2 2.7,0.5c0.4,0.2 0.6,0.5 0.6,0.8s0,0.4 -0.3,0.6c3.8,1 6.5,2.5 8.2,4.4c1.7,1.9 2.6,3.9 2.6,6s-0.5,3.4 -1.6,5c-1.1,1.6 -2.5,2.9 -4.4,3.9c-1.9,1 -4.1,1.5 -6.6,1.5s-3.7,-0.3 -5.7,-0.9c-0.6,2.1 -1.5,4.2 -2.7,6.2c-1.1,2 -2.6,3.8 -4.4,5.2c-1.8,1.4 -4,2.1 -6.6,2.1l-0.2,0c-2.8,0 -5.2,-0.7 -7,-1.7c-1.8,-1 -3.2,-2.3 -4.1,-4c-0.9,-1.6 -1.3,-3.3 -1.3,-5s0.6,-4 1.8,-5.8c1.2,-1.8 3,-3 5.3,-3.7l0.3,0c0.2,0 0.5,0 0.6,0.2c0.2,0.1 0.3,0.3 0.3,0.5l0,0c-0.1,0.9 -0.2,1.5 -0.2,2.1c0,1.2 0.2,2.1 0.7,2.7c0.5,0.7 1,1.1 1.6,1.4c0.6,0.3 1.1,0.4 1.6,0.4l0.5,0c2,0 3.6,-0.7 5,-2.2c1.4,-1.4 2.6,-3.2 3.6,-5.4c1,-2.1 2,-4.3 2.8,-6.4c0.3,-0.7 0.5,-1.3 0.8,-2l-1.5,0c-1.1,0 -2.1,0.1 -3,0.5c-0.9,0.4 -1.5,1.2 -1.8,2.3c0,0.3 -0.1,0.7 -0.1,1s0.1,0.9 0.3,1.2c0.2,0.4 0.6,0.5 1.2,0.5l0.6,0c0.2,0 0.3,0 0.4,0.1c0,0.1 0.1,0.3 0.1,0.4l0,0.3c-0.4,1.6 -1.1,2.8 -2.2,3.6c-1.1,0.8 -2.3,1.2 -3.7,1.2s-2.5,-0.3 -3.8,-1c-1.4,-0.8 -2.4,-1.7 -3.1,-2.7c-0.7,-1 -1,-2.1 -1,-3.3c0,-2.4 1.3,-4.7 3.9,-6.7c2.6,-2.1 6.1,-3.2 10.6,-3.3c1.9,0 4,0 6.3,0.3c0.8,-0.6 1.8,-0.9 2.8,-0.9m-1.3,18.8c2.3,0 4.1,-0.5 5.3,-1.6c1.2,-1 1.8,-2.3 1.8,-3.6s-0.5,-2.3 -1.4,-3.5c-1,-1.1 -2.5,-2.1 -4.5,-2.7c-1,2.8 -1.9,5.8 -2.7,9.1c-0.2,0.8 -0.4,1.5 -0.6,2.2c0.8,0 1.5,0.1 2.2,0.1m1.3,-21.6c-1.2,0 -2.4,0.3 -3.5,0.9c-2,-0.2 -3.9,-0.2 -5.6,-0.2l0,0c-5.1,0.1 -9.3,1.5 -12.3,3.9c-3.3,2.6 -4.9,5.7 -4.9,9s0.1,1.6 0.3,2.3c-2.2,0.9 -3.9,2.4 -5.2,4.2c-1.5,2.3 -2.3,4.8 -2.3,7.4s0.6,4.3 1.7,6.3c1.1,2.1 2.9,3.8 5.2,5.1c2.2,1.2 5,1.9 8.3,2.1l0,0s0,0 0,0l0.2,0c3.2,0 6.1,-0.9 8.4,-2.7c2.1,-1.6 3.8,-3.7 5.1,-6c0.8,-1.4 1.4,-2.8 2,-4.2c1.3,0.3 2.6,0.4 3.9,0.4c3,0 5.6,-0.6 7.9,-1.8c2.3,-1.2 4.1,-2.9 5.5,-4.9c1.4,-2.1 2.1,-4.3 2.1,-6.6s-1.1,-5.5 -3.3,-7.9c-1.8,-2 -4.3,-3.5 -7.6,-4.7c-0.4,-0.7 -1,-1.4 -1.8,-1.8l-0.2,0c0,0 -0.2,-0.2 -0.2,-0.2c-1.2,-0.4 -2.5,-0.6 -3.6,-0.6l0,0l-0.1,0zm0.2,18.6c0.4,-1.5 0.8,-3 1.3,-4.4c0.2,0.2 0.4,0.4 0.6,0.6c0.5,0.6 0.8,1.1 0.8,1.6s0,0.7 -0.8,1.4c-0.5,0.4 -1.1,0.6 -1.8,0.7l0,0l-0.1,0.1z" class="cls-3"/>
    </g>
    <g id="svg_29">
     <path id="svg_30" fill="#fff" stroke-width="0px" d="m256.32857,39.38571c-0.7,0 -1.5,0 -2.2,-0.3c-2.1,-0.5 -3.6,-1.5 -4.5,-2.7c-0.9,-1.2 -1.3,-2.6 -1.3,-4.1s0,0 0,-0.1c-1,1.7 -1.9,3.1 -2.8,4.2c-0.6,0.6 -1.3,0.9 -2.1,0.9s-1.7,-0.3 -2.5,-0.8c-1.2,-0.8 -1.4,-1.8 -1.4,-2.5s0.1,-1.2 0.8,-1.9c1.7,-1.7 3.1,-3.7 4.2,-6c0.9,-2 1.6,-4 2.1,-6c-0.5,-0.4 -0.9,-0.9 -1.2,-1.6c-0.5,-1 -0.7,-2 -0.7,-3s0.2,-1.9 0.7,-2.6c0.4,-0.7 1.2,-1.5 2.8,-1.5l0.2,0c1.3,0 2.3,0.3 3.1,1c0.7,0.6 1.2,1.4 1.5,2.4c0.1,0.5 0.2,1 0.3,1.5c0.7,0.3 1.4,0.5 2.2,0.7c1.2,0.2 2.2,0.6 3.1,1.1c1.2,0.5 2.1,1.3 2.6,2.2c0.5,0.9 0.7,1.8 0.7,2.8s-0.3,2.8 -0.9,4.3c-0.3,0.9 -0.5,1.7 -0.5,2.3s0,0 0,0c0,0 0.2,-0.2 0.3,-0.4c0.5,-0.7 1,-1.6 1.4,-2.6l0,0c0,0 0,-0.2 0,-0.2c0.6,-1 1.7,-1.6 2.9,-1.6s1.3,0.2 1.9,0.6c0.8,0.5 1.2,1.3 1.2,2.2s0,0.7 -0.2,1.1c-0.7,1.8 -1.6,3.5 -2.6,5c-1.1,1.6 -2.3,3 -3.8,4.1c-1.6,1.2 -3.4,1.8 -5.4,1.8l0.1,-0.3z" class="cls-3"/>
     <path id="svg_31" fill="#fff" stroke-width="0px" d="m248.32857,12.68571c0.9,0 1.6,0.2 2.1,0.7c0.5,0.4 0.8,1 1,1.7c0.2,0.7 0.3,1.4 0.3,2.1c1,0.5 2.1,0.8 3.2,1.1c1.1,0.2 2,0.5 2.7,0.9c1,0.5 1.7,1 2,1.6c0.4,0.6 0.6,1.3 0.6,2.1c0,1.2 -0.3,2.4 -0.8,3.7c-0.4,1.1 -0.6,2.1 -0.6,2.9s0.2,1.2 0.7,1.5c0.2,0 0.4,0.1 0.5,0.1c0.6,0 1.1,-0.4 1.7,-1.2c0.6,-0.8 1.1,-1.8 1.6,-2.9c0.4,-0.6 0.9,-0.9 1.6,-0.9s0.8,0.1 1.2,0.3c0.4,0.2 0.6,0.6 0.6,1s0,0.4 -0.1,0.6c-0.7,1.7 -1.5,3.2 -2.4,4.7c-1,1.5 -2.1,2.7 -3.4,3.7c-1.3,1 -2.8,1.5 -4.5,1.5s-1.2,0 -1.9,-0.2c-1.8,-0.5 -3,-1.2 -3.7,-2.1c-0.7,-1 -1,-2.1 -1,-3.3s0.3,-2.8 0.8,-4.3c0.5,-1.5 1.1,-2.9 1.7,-4.3c0.3,-0.7 0.5,-1.3 0.8,-1.9c0,-0.2 -0.2,-0.4 -0.5,-0.5c-0.2,-0.1 -0.5,-0.2 -0.8,-0.3c-0.1,0 -0.3,0 -0.4,0c-0.6,2.6 -1.6,5.4 -3,8.2c-1.5,2.8 -2.8,4.9 -4,6.3c-0.3,0.3 -0.6,0.4 -1.1,0.4s-1.1,-0.2 -1.6,-0.6c-0.5,-0.4 -0.8,-0.8 -0.8,-1.3s0.1,-0.6 0.4,-0.9c1.8,-1.8 3.3,-4 4.4,-6.4c1.1,-2.5 1.9,-4.9 2.5,-7.3c-0.7,-0.2 -1.2,-0.7 -1.6,-1.5c-0.4,-0.8 -0.6,-1.6 -0.6,-2.4s0.2,-1.3 0.5,-1.9c0.3,-0.5 0.9,-0.8 1.6,-0.9l0.2,0m0.1,-2.9l-0.3,0c-1.7,0 -3.1,0.9 -3.9,2.2c-0.6,1 -0.9,2.1 -0.9,3.4s0.3,2.5 0.9,3.7c0.3,0.5 0.6,1 0.9,1.4c-0.5,1.6 -1.1,3.3 -1.8,4.9c-1,2.1 -2.3,4 -3.8,5.6l0,0s0,0 0,0c-1,1.1 -1.2,2.1 -1.2,2.9s0.3,2.4 2,3.6c1,0.7 2.1,1.1 3.3,1.1s2.3,-0.5 3.1,-1.3l0,0c0,0 0,-0.1 0,-0.1c0.3,-0.4 0.7,-0.9 1.1,-1.4c0.2,0.5 0.5,0.9 0.8,1.4c1.1,1.5 2.9,2.6 5.3,3.2c0.9,0.2 1.8,0.3 2.6,0.3c2.3,0 4.4,-0.7 6.2,-2c1.6,-1.2 3,-2.7 4.1,-4.5c1.1,-1.6 2,-3.4 2.7,-5.2l0,0c0,0 0,-0.1 0,-0.1c0.2,-0.5 0.3,-1 0.3,-1.6c0,-1.4 -0.7,-2.7 -1.9,-3.4c-0.8,-0.5 -1.7,-0.8 -2.7,-0.8s-1.3,0.1 -1.9,0.4c0,-0.3 0,-0.5 0,-0.8c0,-1.3 -0.3,-2.4 -0.9,-3.5c-0.7,-1.1 -1.7,-2.1 -3.2,-2.8c-1,-0.5 -2.1,-0.9 -3.4,-1.2c-0.4,0 -0.8,-0.2 -1.2,-0.3c0,-0.3 -0.1,-0.5 -0.2,-0.8c-0.3,-1.2 -1,-2.2 -1.9,-3.1c-1,-0.9 -2.4,-1.4 -4,-1.4l0,0l-0.1,0.2z" class="cls-3"/>
    </g>
    <g id="svg_32">
     <path id="svg_33" fill="#fff" stroke-width="0px" d="m267.22857,39.28571c-1.5,0 -2.8,-0.7 -4,-1.7c-1.1,-1 -1.9,-2.3 -2.4,-3.9c-0.1,-0.6 -0.2,-1.2 -0.2,-1.8c0,-1.2 0.2,-2.6 0.7,-4.1c0.4,-1.4 0.9,-2.8 1.4,-4.1c0.4,-1 0.7,-2 1,-2.9c0.3,-0.9 0.4,-1.5 0.4,-1.8s0,-0.2 0,-0.2c-0.1,-0.3 -0.2,-0.6 -0.2,-1c0,-0.8 0.4,-1.5 1,-1.9c0.6,-0.3 1.1,-0.6 1.8,-0.9c0,0 0,0 -0.1,0c-1.2,-1 -1.8,-2.4 -1.8,-4s0.6,-2.8 1.7,-3.9c1.1,-1.1 2.5,-1.6 4.1,-1.6s3,0.5 4.1,1.6c1.1,1.1 1.7,2.4 1.7,3.9s-0.6,2.9 -1.7,3.9c-0.4,0.4 -0.8,0.6 -1.2,0.9c0.2,0.2 0.3,0.3 0.4,0.5c0.6,0.9 0.9,1.9 0.9,3.1s-0.2,2.2 -0.6,3.4c-0.3,1.1 -0.7,2.2 -1.1,3.2c-0.7,1.7 -0.9,2.5 -0.9,3c0.4,-0.7 0.8,-1.5 1.1,-2.5l0,0c0.3,-0.7 0.7,-1.2 1.2,-1.5c0.5,-0.3 1.1,-0.4 1.7,-0.4s1.3,0.2 1.9,0.6c0.8,0.5 1.2,1.3 1.2,2.2l0,0.2l-0.2,0.7l0,0c-0.6,1.8 -1.4,3.5 -2.3,5c-1,1.7 -2.2,3.1 -3.7,4.2c-1.6,1.2 -3.4,1.8 -5.5,1.8l-0.4,0z" class="cls-3"/>
     <path id="svg_34" fill="#fff" stroke-width="0px" d="m270.52857,6.98571c1.2,0 2.3,0.4 3.1,1.2c0.8,0.8 1.3,1.8 1.3,2.9s-0.4,2.1 -1.3,2.9c-0.8,0.8 -1.9,1.2 -3.1,1.2s-2.2,-0.4 -3.1,-1.2c-0.9,-0.8 -1.3,-1.7 -1.3,-2.9s0.4,-2.1 1.3,-2.9c0.9,-0.8 1.9,-1.2 3.1,-1.2m-0.9,8.9c0.2,0 0.5,0 0.7,0c1.1,0.2 1.8,0.7 2.2,1.3c0.4,0.6 0.6,1.4 0.6,2.3s-0.2,1.9 -0.5,3c-0.3,1.1 -0.7,2.1 -1.1,3.2c-0.7,1.6 -1.1,2.9 -1.1,3.7l0,0.2c0.1,0.7 0.4,1.1 0.7,1.4c0.2,0 0.4,0.1 0.5,0.1c0.5,0 1,-0.4 1.4,-1.2c0.5,-0.8 0.9,-1.7 1.2,-2.8c0.1,-0.3 0.4,-0.6 0.6,-0.7c0.3,-0.2 0.6,-0.2 0.9,-0.2s0.8,0.1 1.2,0.3c0.4,0.2 0.6,0.6 0.6,1l0,0.5c-0.7,1.6 -1.4,3.2 -2.3,4.7c-0.9,1.5 -2,2.7 -3.3,3.7c-1.3,1 -2.9,1.5 -4.6,1.5l-0.4,0c-1.1,0 -2.1,-0.5 -3,-1.3c-0.9,-0.8 -1.6,-1.9 -2,-3.2c-0.1,-0.4 -0.2,-0.9 -0.2,-1.4c0,-1.1 0.2,-2.3 0.6,-3.7c0.4,-1.4 0.9,-2.7 1.3,-4c0.4,-1.1 0.7,-2.1 1,-2.9c0.3,-0.9 0.4,-1.6 0.4,-2.2s0,-0.6 -0.2,-0.8c0,-0.1 -0.1,-0.3 -0.1,-0.4c0,-0.3 0.1,-0.5 0.4,-0.7c0.5,-0.3 1.1,-0.6 1.9,-0.9c0.7,-0.3 1.4,-0.4 2.2,-0.4m1.3,-11.9c-1.9,0 -3.7,0.7 -5,2c-1.4,1.3 -2.2,3.1 -2.2,5s0.3,2.5 1,3.6c0,0 -0.1,0 -0.2,0.1l0,0s0,0 0,0c-1.1,0.7 -1.7,1.9 -1.7,3.1s0,0.9 0.3,1.3c0,0.2 0,0.6 -0.3,1.2c-0.3,0.9 -0.6,1.8 -1,2.8c-0.5,1.3 -1,2.7 -1.4,4.1c-0.5,1.6 -0.7,3.1 -0.7,4.5s0,1.4 0.2,2.1l0,0c0,0 0,0.1 0,0.1c0.5,1.9 1.5,3.4 2.8,4.6c1.4,1.2 3,1.9 4.8,2l0,0s0,0 0,0l0.4,0c2.4,0 4.5,-0.7 6.3,-2.1c1.6,-1.2 3,-2.8 4.1,-4.6c1,-1.7 1.8,-3.4 2.4,-5.2l0,-0.2c0,0 0,-0.2 0,-0.2l0,-0.5c0.1,0 0.2,-0.3 0.2,-0.3l0,-0.3c0,-1.4 -0.7,-2.7 -1.9,-3.4c-0.8,-0.5 -1.7,-0.8 -2.7,-0.8s-0.4,0 -0.6,0c0.4,-1.3 0.6,-2.6 0.6,-3.8s-0.3,-2.3 -0.8,-3.2c0,0 0.1,-0.1 0.2,-0.2c1.4,-1.3 2.2,-3.1 2.2,-5s-0.7,-3.6 -2.2,-5c-1.4,-1.3 -3.1,-2 -5.1,-2l0,0l0.3,0.3z" class="cls-3"/>
    </g>
    <g id="svg_35">
     <path id="svg_36" fill="#fff" stroke-width="0px" d="m276.12857,39.18571c-0.7,0 -1.4,-0.3 -2,-0.9c-0.9,-0.8 -1,-1.6 -1,-2.1s0.1,-0.8 0.4,-1.2l7,-10.2c-0.8,0 -1.5,-0.2 -2.3,-0.3c-1.7,-0.3 -2.9,-0.8 -3.8,-1.4l0,0c0,0 0,-0.1 0,-0.1c-1.2,-1.2 -1.8,-2.5 -1.8,-4s0.5,-3 1.5,-4.4c0.9,-1.3 1.8,-2.3 2.6,-3c0.4,-0.4 1,-0.6 1.6,-0.6s0.8,0.1 1.2,0.3c0.3,0.2 0.7,0.5 0.9,1.1c0.6,1.2 1.5,1.9 2.8,2.3c1.5,0.5 2.9,0.8 4.3,0.9c0.3,-0.2 0.7,-0.4 1.1,-0.6c0.6,-0.2 1.2,-0.3 1.9,-0.3s1.4,0.1 2,0.4c1.3,0.6 1.5,1.6 1.5,2.1s-0.1,0.8 -0.3,1.2l-1.2,2.4c-1.3,2.4 -2.6,4.9 -3.8,7.4c0.6,0 1.2,0.2 1.8,0.4c0.1,0 0.3,0 0.5,0.1l0.1,0c0,0 0.2,-0.1 0.3,-0.3c0.4,-0.5 0.7,-1.1 0.9,-1.9l0,0c0,-0.1 0,-0.3 0,-0.3c0.6,-1 1.6,-1.6 2.8,-1.6s1.4,0.2 2,0.6c0.7,0.5 1.1,1.3 1.1,2.1s0,0.7 -0.2,1.1c-0.8,2.2 -1.8,4.2 -3,5.9c-1.3,1.9 -2.8,3.3 -4.4,4.2l0,0s0,0 0,0c-0.7,0.3 -1.5,0.4 -2.3,0.4s-1.6,-0.1 -2.6,-0.3c-1,-0.2 -2.2,-0.4 -3.7,-0.4s-3,0.2 -5,0.7l-0.2,0s-0.3,0 -0.3,0l-0.4,0.3z" class="cls-3"/>
     <path id="svg_37" fill="#fff" stroke-width="0px" d="m278.12857,12.28571c0.2,0 0.3,0 0.5,0.1c0.1,0 0.2,0.2 0.3,0.4c0.8,1.6 2,2.6 3.7,3.1c1.7,0.5 3.3,0.9 4.9,1c0.1,0 0.2,0 0.3,0c0.3,-0.3 0.6,-0.6 1.1,-0.7c0.5,-0.2 0.9,-0.2 1.4,-0.2s1,0 1.4,0.3c0.4,0.2 0.6,0.4 0.6,0.8s0,0.3 -0.2,0.5c-0.4,0.8 -0.8,1.6 -1.3,2.4c-1.8,3.3 -3.4,6.6 -5.1,10c0.9,-0.3 1.7,-0.5 2.3,-0.5s1.1,0 1.5,0.3c0.2,0 0.4,0.1 0.7,0.2l0.4,0c0.6,0 1.1,-0.3 1.6,-0.9c0.4,-0.6 0.8,-1.3 1.1,-2.2c0.4,-0.6 0.9,-0.9 1.6,-0.9s0.8,0.1 1.2,0.4c0.4,0.2 0.5,0.6 0.5,1s0,0.4 -0.1,0.6c-0.8,2.1 -1.7,3.9 -2.9,5.6c-1.1,1.7 -2.4,2.9 -3.9,3.7c-0.6,0.2 -1.1,0.3 -1.7,0.3s-1.4,0 -2.2,-0.3c-1.1,-0.3 -2.4,-0.4 -4.1,-0.4s-3.3,0.3 -5.4,0.8l-0.2,0c-0.4,0 -0.7,-0.2 -1.1,-0.5c-0.4,-0.3 -0.6,-0.7 -0.6,-1s0,-0.2 0.1,-0.3l8.4,-12.3c-1.6,0 -3.1,-0.2 -4.6,-0.5c-1.5,-0.3 -2.5,-0.7 -3.2,-1.2c-0.9,-0.9 -1.4,-1.9 -1.4,-3s0.4,-2.4 1.2,-3.6c0.8,-1.2 1.6,-2.1 2.4,-2.7c0.2,-0.2 0.4,-0.2 0.6,-0.2m0.2,-2.9c-0.9,0 -1.8,0.3 -2.5,1c-1,0.8 -1.9,1.9 -2.8,3.3c-1.1,1.7 -1.7,3.4 -1.7,5.3s0.4,3.2 2.2,5l0.1,0c0,0.1 0.1,0.2 0.1,0.2c1,0.8 2.4,1.3 4.4,1.7c0,0 0,0 0,0l-5.7,8.3c-0.4,0.6 -0.6,1.3 -0.6,2s0.3,2.1 1.5,3.2c1.1,1 2.2,1.2 3,1.2l0.8,0c1.9,-0.5 3.4,-0.8 4.7,-0.8s2.5,0.1 3.4,0.3c1,0.2 2,0.4 2.9,0.4s1.9,-0.2 2.8,-0.6l0.1,0c0,0 0.1,-0.1 0.1,-0.1c1.9,-1 3.6,-2.6 5,-4.7c1.3,-1.9 2.3,-4 3.2,-6.2l0,0s0,0 0,0c0.2,-0.5 0.3,-1 0.3,-1.6c0,-1.3 -0.6,-2.5 -1.8,-3.3c-0.8,-0.6 -1.8,-0.9 -2.8,-0.9s-2.2,0.4 -3.1,1.1c0.5,-1 1,-2 1.5,-2.9l1,-2l0.2,-0.4c0.3,-0.6 0.5,-1.2 0.5,-1.9c0,-1.5 -0.9,-2.7 -2.3,-3.4c-0.8,-0.3 -1.6,-0.5 -2.6,-0.5s-1.6,0.1 -2.3,0.4c-0.3,0.1 -0.7,0.3 -0.9,0.4c-1.1,-0.2 -2.3,-0.4 -3.5,-0.8c-0.9,-0.3 -1.5,-0.8 -1.9,-1.6c-0.3,-0.7 -0.8,-1.3 -1.5,-1.7c-0.6,-0.3 -1.3,-0.5 -1.9,-0.5l0,0l0.1,0.1z" class="cls-3"/>
    </g>
    <g id="svg_38">
     <path id="svg_39" fill="#fff" stroke-width="0px" d="m302.12857,39.58571c-2.5,0 -4.6,-0.5 -6.2,-1.4c-1.6,-0.9 -2.9,-2.2 -3.7,-3.7c-0.8,-1.5 -1.2,-3.2 -1.2,-4.9c0,-3.2 1.2,-6.3 3.5,-9.2c2.4,-2.9 5.7,-4.7 9.8,-5.1c0,0 1.2,0 1.2,0c1.9,0 3.5,0.4 4.7,1c1.2,0.7 2.1,1.7 2.7,2.8c0.5,1.1 0.8,2.3 0.8,3.6s0,1.5 -0.2,2.2c0.4,-0.2 0.9,-0.2 1.2,-0.2c0.7,0 1.4,0.2 2,0.6c0.8,0.5 1.2,1.3 1.2,2.2s0,0.7 -0.2,1c-2.6,7.2 -7.8,10.9 -15.2,11.1l0,0s-0.3,0 -0.3,0l-0.1,0z" class="cls-3"/>
     <path id="svg_40" fill="#fff" stroke-width="0px" d="m305.52857,16.58571c1.6,0 2.9,0.3 3.9,0.9c1,0.6 1.7,1.3 2.1,2.2c0.4,0.9 0.7,1.9 0.7,3s-0.3,2.8 -0.9,4.2c-0.6,1.4 -1.4,2.6 -2.5,3.5c-1,0.9 -2.2,1.4 -3.3,1.4s-2.3,-0.6 -3.5,-1.7l0,0.3c0,0.8 0.3,1.5 0.9,2.1c0.6,0.6 1.4,0.9 2.3,0.9l0.4,0c3.5,-0.6 6,-2.7 7.3,-6.3c0.4,-0.6 1,-0.9 1.6,-0.9s0.9,0.1 1.2,0.4c0.4,0.2 0.6,0.6 0.6,1s0,0.3 -0.1,0.5c-2.4,6.6 -7.1,10 -13.9,10.1l-0.3,0c-2.2,0 -4.1,-0.4 -5.5,-1.2c-1.4,-0.8 -2.4,-1.9 -3.1,-3.2c-0.7,-1.3 -1,-2.7 -1,-4.3c0,-2.9 1.1,-5.6 3.2,-8.3c2.1,-2.6 5.1,-4.2 8.8,-4.6l1.1,0m-1.7,9.1c0.7,0 1.5,-0.4 2.3,-1.3c0.8,-0.9 1.2,-1.8 1.2,-2.7s-0.4,-1.4 -1.2,-1.8l-0.1,0c-0.2,0 -0.6,0.4 -1.1,1.1c-0.5,0.8 -0.9,1.6 -1.2,2.4c-0.4,0.9 -0.6,1.5 -0.7,2c0.2,0.2 0.5,0.2 0.8,0.2m1.7,-11.9l-0.1,0s-1.1,0 -1.1,0l0,0s0,0 0,0c-4.5,0.5 -8.1,2.4 -10.7,5.7c-2.5,3.2 -3.8,6.5 -3.8,10.1s0.5,3.9 1.4,5.6c0.9,1.8 2.4,3.2 4.3,4.3c1.8,1 4.2,1.6 6.9,1.6l0.4,0c8,-0.2 13.7,-4.3 16.5,-12c0.2,-0.5 0.3,-1 0.3,-1.5c0,-1.4 -0.7,-2.6 -1.8,-3.4c-0.7,-0.5 -1.5,-0.8 -2.4,-0.8c0,-0.2 0,-0.4 0,-0.6c0,-1.5 -0.3,-2.9 -0.9,-4.2c-0.7,-1.4 -1.8,-2.6 -3.3,-3.5c-1.4,-0.8 -3.2,-1.2 -5.3,-1.2l0,0l-0.4,-0.1z" class="cls-3"/>
    </g>
    <g id="svg_41">
     <path id="svg_42" fill="#fff" stroke-width="0px" d="m321.72857,39.38571c-2.5,0 -4.9,-0.7 -6.9,-2.2c-2.2,-1.5 -3.4,-3.9 -3.7,-6.9l0,0l0,-0.7c0,-1.5 0.3,-3.1 0.9,-4.6c0.6,-1.5 1.5,-2.8 2.6,-3.9c1.2,-1.1 2.7,-1.7 4.4,-1.7s0.1,0 0.2,0c0.2,-0.2 1.3,-1.7 1.4,-1.8c0.1,-1.4 0.8,-2.6 1.9,-3.3c1.1,-0.8 2.2,-1.2 3.3,-1.2s1.3,0.2 1.9,0.5c0.7,0.5 1.1,1.2 1.1,2s-0.2,1.2 -0.5,1.8c0,0.2 0.2,0.9 0.9,2.3l0.2,0.4c0.3,0.7 0.7,1.4 1,2c0.6,1.1 1.2,2.2 1.7,3.4c0.5,1.3 0.8,2.7 0.8,4.1s0,0.8 0,1.2l0,0c-0.5,2.9 -1.9,5 -4.1,6.5c-2.1,1.4 -4.5,2.1 -6.9,2.1l-0.2,0zm0.9,-11.6s-0.1,0 -0.2,0.2c0,0 -0.2,0.2 -0.2,0.5c0,0.6 0.2,0.8 0.3,0.8c0.3,0.2 0.5,0.3 0.8,0.3s0.5,0 0.9,-0.4c0.3,-0.3 0.4,-0.9 0.4,-1.3s0,-0.3 0,-0.4c-0.1,0 -0.2,0.1 -0.3,0.2l-0.1,0c0,0 -0.1,0 -0.1,0c-0.2,0 -0.5,0 -0.7,0s-0.4,0 -0.6,0l-0.2,0.1z" class="cls-3"/>
     <path id="svg_43" fill="#fff" stroke-width="0px" d="m325.72857,14.48571c0.4,0 0.8,0 1.1,0.3c0.3,0.2 0.4,0.5 0.4,0.8s-0.1,0.7 -0.4,1.1c-0.1,0.2 -0.2,0.4 -0.2,0.6c0,0.7 0.4,1.7 1.1,3c0,0.1 0.1,0.3 0.2,0.4c0.3,0.7 0.6,1.3 1,2c0.6,1.1 1.1,2.2 1.6,3.3c0.5,1.1 0.7,2.3 0.7,3.5s0,0.7 0,1.1c-0.4,2.4 -1.6,4.2 -3.5,5.4c-1.9,1.2 -3.9,1.8 -6.2,1.8s-4.3,-0.6 -6.1,-1.9c-1.8,-1.3 -2.8,-3.3 -3.1,-5.9l0,-0.6c0,-1.4 0.3,-2.7 0.8,-4.1c0.5,-1.3 1.3,-2.4 2.2,-3.3c1,-0.9 2.1,-1.3 3.4,-1.3s0.6,0 0.8,0c0,0 0.1,-0.1 0.3,-0.4c0.2,-0.3 0.4,-0.6 0.7,-0.9c0.3,-0.3 0.5,-0.7 0.7,-0.9c0.2,-0.3 0.4,-0.5 0.4,-0.6c0,-1.2 0.4,-2.1 1.3,-2.7c0.9,-0.6 1.7,-0.9 2.5,-0.9m-2.1,12.1c-0.1,0 -0.2,0 -0.4,0l-0.3,0c-0.4,0 -0.8,0.1 -1.2,0.5c-0.4,0.4 -0.7,0.9 -0.7,1.5l0,0c0,0.9 0.3,1.6 0.8,2c0.5,0.4 1.1,0.7 1.7,0.7s1.3,-0.3 1.9,-0.8c0.6,-0.5 0.9,-1.3 0.9,-2.4s-0.2,-1.7 -0.6,-2.7c-0.4,-1.1 -1.1,-2.3 -2.1,-3.6l-0.5,0.8c0.9,0.8 1.4,1.8 1.4,2.7s0,0.5 -0.1,0.7c-0.1,0.3 -0.3,0.4 -0.5,0.5c-0.1,0 -0.3,0 -0.4,0m2.5,-14.7c-1.4,0 -2.8,0.5 -4.2,1.4c-1.3,0.9 -2.2,2.3 -2.4,4c-0.2,0.2 -0.4,0.5 -0.6,0.8c0,0 0,0 -0.1,0.1c-1.8,0.1 -3.5,0.8 -4.8,2.1c-1.3,1.2 -2.3,2.7 -3,4.4c-0.7,1.7 -1,3.4 -1,5.1l0,0.6l0,0c0,0.1 0,0.3 0,0.3c0.3,3.5 1.8,6.2 4.3,8c2.3,1.6 4.9,2.5 7.8,2.5s5.4,-0.8 7.7,-2.3c2.6,-1.7 4.2,-4.1 4.7,-7.3l0,0c0,-0.1 0,-0.2 0,-0.2c0,-0.5 0,-0.9 0,-1.4c0,-1.6 -0.3,-3.1 -0.9,-4.6c-0.5,-1.2 -1.1,-2.4 -1.7,-3.6c-0.3,-0.7 -0.6,-1.3 -1,-1.9l0,0c0,0 0,-0.1 0,-0.1l0,-0.2c-0.1,0 -0.2,-0.1 -0.2,-0.1c-0.4,-0.7 -0.6,-1.2 -0.7,-1.4c0.3,-0.7 0.4,-1.3 0.4,-2c0,-1.3 -0.6,-2.5 -1.7,-3.2c-0.8,-0.5 -1.7,-0.8 -2.7,-0.8l0,0l0.1,-0.2z" class="cls-3"/>
    </g>
   </g>
   <g id="svg_44">
    <path id="svg_45" fill="#ef412c" stroke-width="0px" d="m38.42857,40.08571c-1.5,0 -2.7,-0.4 -3.7,-1.3c-1,-1.1 -1.5,-2.7 -1.5,-4.7s0.2,-3.1 0.6,-4.8c0.4,-1.7 1,-3.5 1.6,-5.3l-1.9,-2.7c-0.5,0.9 -0.9,1.9 -1.4,2.9c-1.4,3.4 -3.1,6.5 -5,9.3c-1.9,2.8 -4.5,4.7 -7.7,5.6c-1.5,0.3 -2.8,0.5 -4.1,0.5c-2.6,0 -4.7,-0.5 -6.5,-1.6c-1.8,-1.1 -3.1,-2.5 -4,-4.2c-0.9,-1.7 -1.4,-3.5 -1.4,-5.3s0.6,-3.8 1.8,-5.6c1.2,-1.7 3,-2.9 5.5,-3.6l0.2,0c0.3,0 0.5,0 0.7,0.2c0.2,0.2 0.3,0.4 0.3,0.6l0,0.2c-0.2,0.6 -0.3,1.2 -0.3,1.9c0,1.2 0.3,2.3 1,3.2c0.7,0.9 1.6,1.4 2.8,1.4s1.6,-0.2 2.6,-0.7c1.3,-0.7 2.7,-1.8 4,-3.2c1.4,-1.4 2.8,-2.9 4.2,-4.6c0.9,-1 1.8,-2.1 2.8,-3.1c-0.7,-0.8 -1.4,-1.4 -2,-1.9c-0.7,-0.5 -1.2,-0.8 -1.8,-0.8s-0.5,0 -0.8,0.3c-0.3,0.3 -0.5,0.6 -0.5,1s0.2,0.8 0.5,1.3c0.3,0.4 0.7,0.8 1.2,1c0.3,0.2 0.5,0.5 0.5,0.8s0,0.4 -0.3,0.6c-1.3,1 -2.8,1.5 -4.3,1.5s-3.4,-0.5 -5.1,-1.4c-1.4,-0.8 -2.4,-1.8 -3.1,-2.9c-0.7,-1.1 -1,-2.3 -1,-3.5c0,-1.9 0.7,-3.7 2.2,-5.2c1.4,-1.6 3.3,-2.3 5.5,-2.3s1.4,0 2.1,0.2c2.2,0.6 4.1,1.6 5.7,3.1c1.6,1.5 3,3.2 4.2,5.2c2,-2 4.1,-3.6 6.4,-4.9c2.3,-1.3 4.8,-2 7.5,-2l1.3,0c0.2,0 0.4,0.2 0.6,0.3c0.1,0.1 0.2,0.3 0.2,0.5l0,0.3c-2.2,6.5 -3.6,11.7 -4.5,15.6c-0.9,3.9 -1.3,6.9 -1.3,9s0.2,3.2 0.7,4c0.5,0.9 1,1.5 1.7,1.9c0.2,0.2 0.4,0.4 0.4,0.7s-0.1,0.5 -0.4,0.7c-1.9,1.3 -4,2 -6.2,2l0,-0.2zm-1.4,-20.2c1.6,-3.7 2.9,-6.3 3.8,-7.8c-2.2,1 -4,2.9 -5.4,5.5l1.6,2.3z" class="cls-2"/>
    <path id="svg_46" fill="#ef412c" stroke-width="0px" d="m61.22857,37.88571l-0.4,0c-0.9,0 -1.9,-0.4 -2.7,-1.1c-0.9,-0.7 -1.5,-1.6 -2,-2.7c-2.1,2.4 -4,3.6 -5.7,3.6l-0.4,0c-2.2,-0.3 -3.7,-1.1 -4.5,-2.2c-0.8,-1.1 -1.3,-2.4 -1.3,-3.9s0.2,-3 0.7,-4.6c0.5,-1.6 1,-3.1 1.5,-4.4c0.8,-1.9 1.2,-3.2 1.2,-4s0,-0.3 -0.1,-0.4l0,-0.4c0,-0.3 0,-0.5 0.4,-0.7c0.9,-0.6 2.1,-0.8 3.4,-0.8s1,0 1.4,0.1c1.1,0.2 1.9,0.6 2.3,1.2c0.4,0.6 0.7,1.3 0.7,2.2s-0.2,1.8 -0.5,2.8c-0.3,1 -0.7,2 -1,3c-0.7,1.6 -1.1,2.9 -1.1,3.9l0,0.2c0,0.5 0.2,0.9 0.5,1.1c0.3,0.3 0.6,0.4 0.9,0.4s0.5,0 0.7,-0.2c0.2,-0.2 0.6,-1 1.2,-2.4c0.6,-1.4 1.2,-3 1.7,-4.8c0.5,-1.8 0.8,-3.2 0.8,-4.4s0,-0.7 -0.2,-0.9l0,-0.3c0,-0.3 0.1,-0.5 0.5,-0.7c0.9,-0.4 1.8,-0.5 2.7,-0.5s2.3,0.3 3.3,0.9c1,0.6 1.5,1.5 1.5,2.8s0,0.6 -0.1,0.9c-0.3,1.4 -0.8,2.9 -1.4,4.3c-0.7,1.6 -1.1,2.8 -1.1,3.7l0,0.2c0.1,0.7 0.4,1.1 0.8,1.4c0.2,0 0.4,0.1 0.6,0.1c0.6,0 1.2,-0.5 1.7,-1.4c0.6,-0.9 1.1,-2.1 1.5,-3.5c-0.4,-0.9 -0.6,-1.9 -0.6,-3s0.3,-2.9 0.9,-4.4c0.6,-1.5 1.5,-2.5 2.7,-3c0.3,0 0.5,-0.1 0.7,-0.1c0.7,0 1.3,0.4 1.6,1.1c0.3,0.7 0.5,1.6 0.5,2.6c0,1.9 -0.4,3.8 -1.2,5.7c0.2,0 0.5,0 0.7,0c0.5,0 0.9,-0.2 1.2,-0.7c0.3,-0.4 0.6,-1 0.7,-1.5c0.3,-0.6 0.8,-0.9 1.4,-0.9l0.4,0c0.5,0 0.9,0.2 1.2,0.6c0.2,0.2 0.3,0.5 0.3,0.7s0,0.3 -0.2,0.5c-0.5,1.3 -1.3,2.4 -2.4,3.3c-1.1,0.9 -2.5,1.3 -4.2,1.3l-0.3,0c-0.6,1.7 -1.3,3.3 -2.3,4.7c-1,1.4 -2.2,2.6 -3.6,3.4c-1.4,0.9 -3.2,1.3 -5.3,1.3l0.3,-0.1z" class="cls-2"/>
    <path id="svg_47" fill="#ef412c" stroke-width="0px" d="m84.02857,38.08571l-0.3,0c-2.2,0 -4.1,-0.4 -5.5,-1.2c-1.4,-0.8 -2.4,-1.9 -3.1,-3.2c-0.7,-1.3 -1,-2.7 -1,-4.3c0,-2.9 1.1,-5.6 3.2,-8.3c2.1,-2.6 5.1,-4.2 8.8,-4.6l1.1,0c1.6,0 2.9,0.2 3.9,0.8c1,0.6 1.7,1.3 2.1,2.2c0.4,0.9 0.7,1.9 0.7,3s-0.3,2.8 -0.9,4.2c-0.6,1.4 -1.4,2.6 -2.5,3.5c-1,0.9 -2.2,1.4 -3.3,1.4s-2.3,-0.6 -3.5,-1.7l0,0.3c0,0.8 0.3,1.5 0.9,2.1c0.6,0.6 1.4,0.9 2.3,0.9l0.4,0c3.5,-0.6 6,-2.7 7.3,-6.3c0.4,-0.6 1,-0.9 1.6,-0.9s0.9,0.1 1.2,0.4c0.4,0.2 0.6,0.6 0.6,1s0,0.3 -0.1,0.5c-2.4,6.6 -7.1,10 -13.9,10.1l0,0.1zm1.5,-12.4c0.7,0 1.5,-0.4 2.3,-1.3c0.8,-0.9 1.2,-1.8 1.2,-2.7s-0.4,-1.4 -1.2,-1.8l-0.1,0c-0.2,0 -0.6,0.4 -1.1,1.1c-0.5,0.8 -0.9,1.6 -1.2,2.4c-0.4,0.9 -0.6,1.5 -0.7,2c0.2,0.2 0.5,0.2 0.8,0.2l0,0.1z" class="cls-2"/>
    <path id="svg_48" fill="#ef412c" stroke-width="0px" d="m103.32857,37.88571c-2.2,0 -4.3,-0.6 -6.1,-1.9c-1.8,-1.3 -2.8,-3.3 -3.1,-5.9l0,-0.6c0,-1.4 0.3,-2.7 0.8,-4.1c0.5,-1.3 1.3,-2.4 2.2,-3.3c1,-0.9 2.1,-1.3 3.4,-1.3s0.6,0 0.8,0c0,0 0.1,-0.1 0.3,-0.4c0.2,-0.3 0.4,-0.6 0.7,-0.9c0.3,-0.3 0.5,-0.7 0.7,-0.9c0.2,-0.3 0.4,-0.5 0.4,-0.6c0,-1.2 0.4,-2.1 1.3,-2.7c0.9,-0.6 1.7,-0.9 2.5,-0.9s0.8,0 1.1,0.3c0.3,0.2 0.4,0.5 0.4,0.8s-0.1,0.7 -0.4,1.1c-0.1,0.2 -0.2,0.4 -0.2,0.6c0,0.7 0.4,1.7 1.1,3c0,0.1 0.1,0.3 0.2,0.4c0.3,0.7 0.6,1.3 1,2c0.6,1.1 1.1,2.2 1.6,3.3c0.5,1.1 0.7,2.3 0.7,3.5s0,0.7 0,1.1c-0.4,2.4 -1.6,4.2 -3.5,5.4s-3.9,1.8 -6.2,1.8l0.3,0.2zm1.6,-6.8c0.7,0 1.3,-0.3 1.9,-0.8c0.6,-0.5 0.9,-1.3 0.9,-2.4s-0.2,-1.7 -0.6,-2.7c-0.4,-1.1 -1.1,-2.3 -2.1,-3.6l-0.5,0.8c0.9,0.8 1.4,1.8 1.4,2.7s0,0.5 -0.1,0.7c-0.1,0.3 -0.3,0.4 -0.5,0.5c-0.1,0 -0.3,0 -0.4,0s-0.2,0 -0.4,0l-0.3,0c-0.4,0 -0.8,0.1 -1.2,0.5c-0.4,0.4 -0.7,0.9 -0.7,1.5l0,0c0,0.9 0.3,1.6 0.8,2c0.5,0.4 1.1,0.7 1.7,0.7l0.1,0.1z" class="cls-2"/>
    <path id="svg_49" fill="#ef412c" stroke-width="0px" d="m124.52857,37.78571c-2.9,0 -5.4,-0.9 -7.4,-2.8c-2,-1.8 -3,-4.1 -3,-6.8l0,-0.7c0.3,-2.4 1.2,-4.6 2.9,-6.4c1.6,-1.8 3.7,-3 6.2,-3.6c0.2,0 0.4,0 0.6,0s0.5,0 0.7,0.1c0.2,0 0.4,0.2 0.5,0.5c0.7,-0.5 1.5,-0.7 2.4,-0.7c1.3,0 2.7,0.4 3.9,1.2c1.3,0.8 2.3,1.7 3.1,2.7c1.3,1.8 1.9,3.6 1.9,5.5s-0.5,3.7 -1.6,5.4c-1.1,1.7 -2.5,3.1 -4.3,4.1c-1.8,1.1 -3.8,1.6 -6,1.6l0.1,-0.1zm0.2,-9c1.1,0 2,-0.3 2.9,-0.9c0.9,-0.6 1.5,-1.4 1.8,-2.4c0.2,-0.6 0.3,-1.2 0.3,-1.7c0,-0.7 -0.2,-1.3 -0.6,-1.6c-0.4,-0.3 -0.8,-0.5 -1.2,-0.5s-0.8,0.1 -1.1,0.4c-0.3,0.3 -0.5,0.6 -0.5,1.1s0,0.5 0.2,0.8c0.1,0.2 0.4,0.4 0.7,0.4c0.3,0 0.6,0.1 0.9,0.1c0.1,0 0.3,0 0.3,0c0,0 0.1,0 0.2,0l0,0c0,0.5 -0.4,0.8 -1.1,1.3c-0.7,0.4 -1.5,0.6 -2.3,0.6s-1.5,-0.3 -2.2,-0.9c-0.6,-0.6 -0.8,-1.4 -0.8,-2.2s0,-0.9 0.2,-1.3c-0.9,1 -1.3,2.1 -1.3,3.2s0.2,1.5 0.7,2.2c0.5,0.7 1.2,1.1 2.3,1.3c0.2,0 0.5,0 0.7,0l-0.1,0.1z" class="cls-2"/>
    <path id="svg_50" fill="#ef412c" stroke-width="0px" d="m151.32857,38.98571c-0.9,0 -1.8,-0.3 -2.8,-0.9c-0.8,-0.7 -1.2,-1.6 -1.2,-2.7s0.2,-2.2 0.7,-3.4c0.4,-1.2 0.9,-2.4 1.5,-3.5c0.5,-1.1 1.3,-2.4 2.1,-3.8c0.2,-0.4 0.3,-0.7 0.4,-1s0.2,-0.6 0.2,-0.9s0,-0.5 -0.2,-0.7c-0.2,-0.2 -0.4,-0.4 -0.8,-0.4l-0.3,0c-0.9,0 -1.7,0.7 -2.4,2s-1.3,2.9 -1.7,4.7c-0.5,1.8 -0.8,3.6 -1.1,5.3c-0.2,1.7 -0.3,2.9 -0.3,3.6l0,0c0,0.4 -0.3,0.6 -0.7,0.8c-0.4,0.1 -0.9,0.2 -1.5,0.2c-0.9,0 -1.9,-0.2 -3,-0.5c-1.1,-0.3 -2,-0.8 -2.8,-1.4c-0.8,-0.6 -1.2,-1.3 -1.2,-2.2l0,-0.4c0.5,-2.3 1.1,-4.3 1.9,-6.1c0.9,-1.9 1.6,-4.3 2.1,-7.1l0,-0.7c0,-0.4 0,-0.8 -0.1,-1.1c-0.1,-0.3 -0.2,-0.5 -0.3,-0.8c-0.2,-0.3 -0.3,-0.5 -0.3,-0.8s0,-0.3 0.2,-0.4c0.4,-0.4 1.1,-0.6 2.2,-0.6s2.2,0.3 3.4,0.9c1.2,0.6 2,1.6 2.5,3.1c0.8,-0.9 1.8,-1.7 2.8,-2.3c1,-0.6 2.1,-0.9 3.2,-0.9l0.2,0c1.4,0 2.4,0.3 3.1,0.9s1.1,1.3 1.3,2.2c0.7,-0.8 1.6,-1.5 2.6,-2c1,-0.5 2.1,-0.8 3.4,-0.8l0.7,0c2,0.2 3.3,0.7 4.1,1.5c0.8,0.8 1.1,1.8 1.1,2.9s-0.1,1.8 -0.4,2.8c-0.3,1 -0.6,2 -1,3c-0.3,0.8 -0.5,1.7 -0.8,2.4c-0.2,0.8 -0.3,1.5 -0.3,2.1s0.1,1 0.4,1.4c0.3,0.4 0.8,0.6 1.6,0.7c0.2,0 0.4,0 0.6,0.2c0.2,0.2 0.2,0.3 0.2,0.5l0,0.2c-0.4,1 -1.1,1.8 -2.2,2.4c-1.1,0.6 -2.2,0.8 -3.5,0.8s-2.1,-0.2 -3.1,-0.6c-1,-0.4 -1.8,-1.1 -2.4,-1.9c-0.6,-0.9 -0.9,-2 -0.9,-3.4s0.1,-1.6 0.3,-2.4c0.2,-0.8 0.7,-1.8 1.4,-2.9c0.5,-0.8 0.9,-1.5 1.2,-2.3c0.4,-0.7 0.6,-1.3 0.6,-1.8s-0.3,-0.8 -0.9,-0.9l0,0c-0.7,0 -1.5,0.8 -2.3,2.5c-0.8,1.7 -1.5,3.5 -2.1,5.7c-0.6,2.1 -0.9,3.8 -0.9,5.1s0,0.9 0.2,1.2c0,0 0,0.2 0,0.3c0,0.2 0,0.4 -0.3,0.6c-0.4,0.4 -1,0.7 -1.8,1.1c-0.8,0.4 -1.6,0.6 -2.6,0.6l0,-0.1z" class="cls-2"/>
    <path id="svg_51" fill="#ef412c" stroke-width="0px" d="m180.22857,38.08571l-0.3,0c-2.2,0 -4.1,-0.4 -5.5,-1.2c-1.4,-0.8 -2.4,-1.9 -3.1,-3.2c-0.7,-1.3 -1,-2.7 -1,-4.3c0,-2.9 1.1,-5.6 3.2,-8.3c2.1,-2.6 5.1,-4.2 8.8,-4.6l1.1,0c1.6,0 2.9,0.2 3.9,0.8c1,0.6 1.7,1.3 2.1,2.2c0.4,0.9 0.7,1.9 0.7,3s-0.3,2.8 -0.9,4.2c-0.6,1.4 -1.4,2.6 -2.5,3.5c-1,0.9 -2.2,1.4 -3.3,1.4s-2.3,-0.6 -3.5,-1.7l0,0.3c0,0.8 0.3,1.5 0.9,2.1c0.6,0.6 1.4,0.9 2.3,0.9l0.4,0c3.5,-0.6 6,-2.7 7.3,-6.3c0.4,-0.6 1,-0.9 1.6,-0.9s0.9,0.1 1.2,0.4c0.4,0.2 0.6,0.6 0.6,1s0,0.3 -0.1,0.5c-2.4,6.6 -7.1,10 -13.9,10.1l0,0.1zm1.4,-12.4c0.7,0 1.5,-0.4 2.3,-1.3c0.8,-0.9 1.2,-1.8 1.2,-2.7s-0.4,-1.4 -1.2,-1.8l-0.1,0c-0.2,0 -0.6,0.4 -1.1,1.1c-0.5,0.8 -0.9,1.6 -1.2,2.4c-0.4,0.9 -0.6,1.5 -0.7,2c0.2,0.2 0.5,0.2 0.8,0.2l0,0.1z" class="cls-2"/>
    <path id="svg_52" fill="#ef412c" stroke-width="0px" d="m215.72857,39.48571l-0.2,0c-2.8,0 -5.2,-0.7 -7,-1.7c-1.8,-1 -3.2,-2.3 -4.1,-4c-0.9,-1.6 -1.3,-3.3 -1.3,-5s0.6,-4 1.8,-5.8c1.2,-1.8 3,-3 5.3,-3.7l0.3,0c0.2,0 0.5,0 0.6,0.2c0.2,0.1 0.3,0.3 0.3,0.5l0,0c-0.1,0.9 -0.2,1.5 -0.2,2.1c0,1.2 0.2,2.1 0.7,2.7c0.5,0.7 1,1.1 1.6,1.4c0.6,0.3 1.1,0.4 1.6,0.4l0.5,0c2,0 3.6,-0.7 5,-2.2c1.4,-1.4 2.6,-3.2 3.6,-5.4c1,-2.1 2,-4.3 2.8,-6.4c0.3,-0.7 0.5,-1.3 0.8,-2l-1.5,0c-1.1,0 -2.1,0.1 -3,0.5c-0.9,0.4 -1.5,1.2 -1.8,2.3c0,0.3 -0.1,0.7 -0.1,1s0.1,0.9 0.3,1.2c0.2,0.4 0.6,0.5 1.2,0.5l0.6,0c0.2,0 0.3,0 0.4,0.1c0,0.1 0.1,0.3 0.1,0.4l0,0.3c-0.4,1.6 -1.1,2.8 -2.2,3.6c-1.1,0.8 -2.3,1.2 -3.7,1.2s-2.5,-0.3 -3.8,-1c-1.4,-0.8 -2.4,-1.7 -3.1,-2.7c-0.7,-1 -1,-2.1 -1,-3.3c0,-2.4 1.3,-4.7 3.9,-6.7c2.6,-2.1 6.1,-3.2 10.6,-3.3c1.9,0 4,0 6.3,0.3c0.8,-0.6 1.8,-0.9 2.8,-0.9s1.7,0.2 2.7,0.5c0.4,0.2 0.6,0.5 0.6,0.8s0,0.4 -0.3,0.6c3.8,1 6.5,2.5 8.2,4.4c1.7,1.9 2.6,3.9 2.6,6s-0.5,3.4 -1.6,5c-1.1,1.6 -2.5,2.9 -4.4,3.9c-1.9,1 -4.1,1.5 -6.6,1.5s-3.7,-0.3 -5.7,-0.9c-0.6,2.1 -1.5,4.2 -2.7,6.2c-1.1,2 -2.6,3.8 -4.4,5.2c-1.8,1.4 -4,2.1 -6.6,2.1l0.1,0.1zm16.7,-16.5c2.3,0 4.1,-0.5 5.3,-1.6c1.2,-1 1.8,-2.3 1.8,-3.6s-0.5,-2.3 -1.4,-3.5c-1,-1.1 -2.5,-2.1 -4.5,-2.7c-1,2.8 -1.9,5.8 -2.7,9.1c-0.2,0.8 -0.4,1.5 -0.6,2.2c0.8,0 1.5,0.1 2.2,0.1l-0.1,0z" class="cls-2"/>
    <path id="svg_53" fill="#ef412c" stroke-width="0px" d="m256.32857,37.88571c-0.6,0 -1.2,0 -1.9,-0.2c-1.8,-0.5 -3,-1.2 -3.7,-2.1c-0.7,-1 -1,-2.1 -1,-3.3s0.3,-2.8 0.8,-4.3c0.5,-1.5 1.1,-2.9 1.7,-4.3c0.3,-0.7 0.5,-1.3 0.8,-1.9c0,-0.2 -0.2,-0.4 -0.5,-0.5c-0.2,-0.1 -0.5,-0.2 -0.8,-0.3c-0.1,0 -0.3,0 -0.4,0c-0.6,2.6 -1.6,5.4 -3,8.2c-1.5,2.8 -2.8,4.9 -4,6.3c-0.3,0.3 -0.6,0.4 -1.1,0.4s-1.1,-0.2 -1.6,-0.6c-0.5,-0.4 -0.8,-0.8 -0.8,-1.3s0.1,-0.6 0.4,-0.9c1.8,-1.8 3.3,-4 4.4,-6.4c1.1,-2.5 1.9,-4.9 2.5,-7.3c-0.7,-0.2 -1.2,-0.7 -1.6,-1.5c-0.4,-0.8 -0.6,-1.6 -0.6,-2.4s0.2,-1.3 0.5,-1.9c0.3,-0.5 0.9,-0.8 1.6,-0.9l0.2,0c0.9,0 1.6,0.2 2.1,0.7c0.5,0.4 0.8,1 1,1.7c0.2,0.7 0.3,1.4 0.3,2.1c1,0.5 2.1,0.8 3.2,1.1c1.1,0.2 2,0.5 2.7,0.9c1,0.5 1.7,1 2,1.6c0.4,0.6 0.6,1.3 0.6,2.1c0,1.2 -0.3,2.4 -0.8,3.7c-0.4,1.1 -0.6,2.1 -0.6,2.9s0.2,1.2 0.7,1.5c0.2,0 0.4,0.1 0.5,0.1c0.6,0 1.1,-0.4 1.7,-1.2c0.6,-0.8 1.1,-1.8 1.6,-2.9c0.4,-0.6 0.9,-0.9 1.6,-0.9s0.8,0.1 1.2,0.3c0.4,0.2 0.6,0.6 0.6,1s0,0.4 -0.1,0.6c-0.7,1.7 -1.5,3.2 -2.4,4.7c-1,1.5 -2.1,2.7 -3.4,3.7c-1.3,1 -2.8,1.5 -4.5,1.5l0.1,0z" class="cls-2"/>
    <path id="svg_54" fill="#ef412c" stroke-width="0px" d="m267.62857,37.88571l-0.4,0c-1.1,0 -2.1,-0.5 -3,-1.3c-0.9,-0.8 -1.6,-1.9 -2,-3.2c-0.1,-0.4 -0.2,-0.9 -0.2,-1.4c0,-1.1 0.2,-2.3 0.6,-3.7c0.4,-1.4 0.9,-2.7 1.3,-4c0.4,-1.1 0.7,-2.1 1,-2.9c0.3,-0.9 0.4,-1.6 0.4,-2.2s0,-0.6 -0.2,-0.8c0,-0.1 -0.1,-0.3 -0.1,-0.4c0,-0.3 0.1,-0.5 0.4,-0.7c0.5,-0.3 1.1,-0.6 1.9,-0.9c0.7,-0.3 1.4,-0.4 2.2,-0.4s0.5,0 0.7,0c1.1,0.2 1.8,0.7 2.2,1.3c0.4,0.6 0.6,1.4 0.6,2.3s-0.2,1.9 -0.5,3c-0.3,1.1 -0.7,2.1 -1.1,3.2c-0.7,1.6 -1.1,2.9 -1.1,3.7l0,0.2c0.1,0.7 0.4,1.1 0.7,1.4c0.2,0 0.4,0.1 0.5,0.1c0.5,0 1,-0.4 1.4,-1.2c0.5,-0.8 0.9,-1.7 1.2,-2.8c0.1,-0.3 0.4,-0.6 0.6,-0.7c0.3,-0.2 0.6,-0.2 0.9,-0.2s0.8,0.1 1.2,0.3c0.4,0.2 0.6,0.6 0.6,1l0,0.5c-0.7,1.6 -1.4,3.2 -2.3,4.7c-0.9,1.5 -2,2.7 -3.3,3.7c-1.3,1 -2.9,1.5 -4.6,1.5l0.4,-0.1zm2.9,-22.8c-1.2,0 -2.2,-0.4 -3.1,-1.2c-0.9,-0.8 -1.3,-1.7 -1.3,-2.9s0.4,-2.1 1.3,-2.9c0.9,-0.8 1.9,-1.2 3.1,-1.2s2.3,0.4 3.1,1.2c0.8,0.8 1.3,1.8 1.3,2.9s-0.4,2.1 -1.3,2.9c-0.8,0.8 -1.9,1.2 -3.1,1.2z" class="cls-2"/>
    <path id="svg_55" fill="#ef412c" stroke-width="0px" d="m276.22857,37.78571l-0.2,0c-0.4,0 -0.7,-0.2 -1.1,-0.5c-0.4,-0.3 -0.6,-0.7 -0.6,-1s0,-0.2 0.1,-0.3l8.4,-12.3c-1.6,0 -3.1,-0.2 -4.6,-0.5s-2.5,-0.7 -3.2,-1.2c-0.9,-0.9 -1.4,-1.9 -1.4,-3s0.4,-2.4 1.2,-3.6c0.8,-1.2 1.6,-2.1 2.4,-2.7c0.2,-0.2 0.4,-0.2 0.6,-0.2s0.3,0 0.5,0.1c0.1,0 0.2,0.2 0.3,0.4c0.8,1.6 2,2.6 3.7,3.1c1.7,0.5 3.3,0.9 4.9,1c0.1,0 0.2,0 0.3,0c0.3,-0.3 0.6,-0.6 1.1,-0.7c0.5,-0.2 0.9,-0.2 1.4,-0.2s1,0 1.4,0.3c0.4,0.2 0.6,0.4 0.6,0.8s0,0.3 -0.2,0.5c-0.4,0.8 -0.8,1.6 -1.3,2.4c-1.8,3.3 -3.4,6.6 -5.1,10c0.9,-0.3 1.7,-0.5 2.3,-0.5s1.1,0 1.5,0.3c0.2,0 0.4,0.1 0.7,0.2l0.4,0c0.6,0 1.1,-0.3 1.6,-0.9c0.4,-0.6 0.8,-1.3 1.1,-2.2c0.4,-0.6 0.9,-0.9 1.6,-0.9s0.8,0.1 1.2,0.4c0.4,0.2 0.5,0.6 0.5,1s0,0.4 -0.1,0.6c-0.8,2.1 -1.7,3.9 -2.9,5.6c-1.1,1.7 -2.4,2.9 -3.9,3.7c-0.6,0.2 -1.1,0.3 -1.7,0.3s-1.4,0 -2.2,-0.3c-1.1,-0.3 -2.4,-0.4 -4.1,-0.4s-3.3,0.3 -5.4,0.8l0.2,-0.1z" class="cls-2"/>
    <path id="svg_56" fill="#ef412c" stroke-width="0px" d="m302.42857,38.08571l-0.3,0c-2.2,0 -4.1,-0.4 -5.5,-1.2c-1.4,-0.8 -2.4,-1.9 -3.1,-3.2c-0.7,-1.3 -1,-2.7 -1,-4.3c0,-2.9 1.1,-5.6 3.2,-8.3c2.1,-2.6 5.1,-4.2 8.8,-4.6l1.1,0c1.6,0 2.9,0.2 3.9,0.8c1,0.6 1.7,1.3 2.1,2.2c0.4,0.9 0.7,1.9 0.7,3s-0.3,2.8 -0.9,4.2c-0.6,1.4 -1.4,2.6 -2.5,3.5c-1,0.9 -2.2,1.4 -3.3,1.4s-2.3,-0.6 -3.5,-1.7l0,0.3c0,0.8 0.3,1.5 0.9,2.1c0.6,0.6 1.4,0.9 2.3,0.9l0.4,0c3.5,-0.6 6,-2.7 7.3,-6.3c0.4,-0.6 1,-0.9 1.6,-0.9s0.9,0.1 1.2,0.4c0.4,0.2 0.6,0.6 0.6,1s0,0.3 -0.1,0.5c-2.4,6.6 -7.1,10 -13.9,10.1l0,0.1zm1.4,-12.4c0.7,0 1.5,-0.4 2.3,-1.3c0.8,-0.9 1.2,-1.8 1.2,-2.7s-0.4,-1.4 -1.2,-1.8l-0.1,0c-0.2,0 -0.6,0.4 -1.1,1.1c-0.5,0.8 -0.9,1.6 -1.2,2.4c-0.4,0.9 -0.6,1.5 -0.7,2c0.2,0.2 0.5,0.2 0.8,0.2l0,0.1z" class="cls-2"/>
    <path id="svg_57" fill="#ef412c" stroke-width="0px" d="m321.72857,37.88571c-2.2,0 -4.3,-0.6 -6.1,-1.9c-1.8,-1.3 -2.8,-3.3 -3.1,-5.9l0,-0.6c0,-1.4 0.3,-2.7 0.8,-4.1c0.5,-1.3 1.3,-2.4 2.2,-3.3c1,-0.9 2.1,-1.3 3.4,-1.3s0.6,0 0.8,0c0,0 0.1,-0.1 0.3,-0.4c0.2,-0.3 0.4,-0.6 0.7,-0.9c0.3,-0.3 0.5,-0.7 0.7,-0.9c0.2,-0.3 0.4,-0.5 0.4,-0.6c0,-1.2 0.4,-2.1 1.3,-2.7c0.9,-0.6 1.7,-0.9 2.5,-0.9s0.8,0 1.1,0.3c0.3,0.2 0.4,0.5 0.4,0.8s-0.1,0.7 -0.4,1.1c-0.1,0.2 -0.2,0.4 -0.2,0.6c0,0.7 0.4,1.7 1.1,3c0,0.1 0.1,0.3 0.2,0.4c0.3,0.7 0.6,1.3 1,2c0.6,1.1 1.1,2.2 1.6,3.3c0.5,1.1 0.7,2.3 0.7,3.5s0,0.7 0,1.1c-0.4,2.4 -1.6,4.2 -3.5,5.4c-1.9,1.2 -3.9,1.8 -6.2,1.8l0.3,0.2zm1.6,-6.8c0.7,0 1.3,-0.3 1.9,-0.8c0.6,-0.5 0.9,-1.3 0.9,-2.4s-0.2,-1.7 -0.6,-2.7c-0.4,-1.1 -1.1,-2.3 -2.1,-3.6l-0.5,0.8c0.9,0.8 1.4,1.8 1.4,2.7s0,0.5 -0.1,0.7c-0.1,0.3 -0.3,0.4 -0.5,0.5c-0.1,0 -0.3,0 -0.4,0s-0.2,0 -0.4,0l-0.3,0c-0.4,0 -0.8,0.1 -1.2,0.5c-0.4,0.4 -0.7,0.9 -0.7,1.5l0,0c0,0.9 0.3,1.6 0.8,2c0.5,0.4 1.1,0.7 1.7,0.7l0.1,0.1z" class="cls-2"/>
   </g>
  </g>
 </g>
</svg>