<svg width="344" height="45" xmlns="http://www.w3.org/2000/svg" version="1.1">

 <g>
  <title>Layer 1</title>
  <g stroke-opacity="0" stroke="null" id="svg_55">
   <g stroke="null" id="svg_1">
    <g stroke="null" id="svg_2">
     <path stroke="#ffffff" id="svg_3" fill="#fff" stroke-width="0px" d="m40.16163,42.86066c-1.84982,0 -3.49411,-0.51384 -4.83009,-1.64429l0,0c0,0 0,-0.10277 0,-0.10277c-1.33598,-1.43875 -1.95259,-3.39134 -1.95259,-5.85777s0.20554,-3.39134 0.71937,-5.34393c0.41107,-1.64429 0.92491,-3.28857 1.43875,-4.93286l0,0c0,0.10277 -0.20554,0.41107 -0.3083,0.61661c-1.54152,3.49411 -3.28857,6.78268 -5.24116,9.76295c-2.15812,3.1858 -5.13839,5.34393 -8.73527,6.37161c-1.64429,0.41107 -3.1858,0.51384 -4.62455,0.51384c-2.8775,0 -5.4467,-0.61661 -7.39929,-1.95259c-2.05536,-1.23321 -3.59687,-2.8775 -4.62455,-4.83009c-1.02768,-1.95259 -1.64429,-4.00795 -1.64429,-6.16607s0.71937,-4.52179 2.05536,-6.57714c1.43875,-2.05536 3.59687,-3.49411 6.37161,-4.31625l0.20554,0c0,0 0.41107,0 0.41107,0c0.61661,0 1.23321,0.20554 1.74705,0.61661c0.51384,0.41107 0.71937,1.02768 0.71937,1.64429l0,0.61661c-0.20554,0.51384 -0.3083,1.02768 -0.3083,1.54152c0,0.92491 0.20554,1.74705 0.71937,2.36366c0.41107,0.51384 0.92491,0.82214 1.64429,0.82214s1.23321,-0.20554 2.05536,-0.61661c1.13045,-0.61661 2.46643,-1.64429 3.69964,-2.98027c0.51384,-0.51384 1.02768,-1.02768 1.54152,-1.64429c-0.3083,0 -0.61661,0 -0.92491,0c-2.05536,0 -4.00795,-0.51384 -5.96054,-1.64429c-1.64429,-0.92491 -2.8775,-2.15812 -3.69964,-3.59687c-0.82214,-1.43875 -1.23321,-2.8775 -1.23321,-4.31625c0,-2.36366 0.92491,-4.52179 2.5692,-6.37161c1.74705,-1.95259 4.00795,-2.8775 6.78268,-2.8775s1.64429,0 2.46643,0.3083c2.5692,0.71937 4.72732,1.84982 6.47437,3.59687c1.23321,1.23321 2.46643,2.5692 3.49411,4.11071c1.74705,-1.54152 3.59687,-2.8775 5.65223,-4.00795c2.5692,-1.43875 5.4467,-2.15812 8.42696,-2.15812l1.43875,0c0,0 0,0 0,0c0.61661,0 1.13045,0.3083 1.43875,0.71937c0.41107,0.41107 0.61661,0.92491 0.61661,1.54152l0,0c0,0.10277 0,0.61661 0,0.61661l0,0c-2.15812,6.67991 -3.69964,12.12661 -4.52179,16.03178c-0.82214,3.90518 -1.33598,6.88545 -1.33598,8.9408s0.3083,2.98027 0.51384,3.39134c0.3083,0.61661 0.71937,1.13045 1.23321,1.33598l0,0c0,0 0,0.10277 0,0.10277c0.61661,0.51384 0.92491,1.13045 0.92491,1.84982s-0.3083,1.33598 -0.92491,1.84982l0,0c-2.26089,1.54152 -4.62455,2.36366 -7.19375,2.36366l0.10277,0.3083zm-13.35982,-28.56946s0,0 0,0.10277c0.20554,0.3083 0.51384,0.51384 0.82214,0.71937l0,0s0,0 0,0c0.20554,0.10277 0.3083,0.3083 0.51384,0.41107c0,0 0,0 0,-0.10277c-0.3083,-0.3083 -0.61661,-0.61661 -0.92491,-0.82214c-0.3083,-0.20554 -0.51384,-0.3083 -0.61661,-0.41107l0.20554,0.10277z" class="cls-2"/>
     <path stroke="#ffffff" id="svg_4" fill="#fff" stroke-width="0px" d="m21.25235,3.60334c0.71937,0 1.43875,0 2.15812,0.20554c2.26089,0.61661 4.21348,1.64429 5.85777,3.1858c1.64429,1.54152 3.08304,3.28857 4.31625,5.34393c2.05536,-2.05536 4.21348,-3.69964 6.57714,-5.03562c2.36366,-1.33598 4.93286,-2.05536 7.70759,-2.05536l1.33598,0c0.20554,0 0.41107,0.20554 0.61661,0.3083c0.10277,0.10277 0.20554,0.3083 0.20554,0.51384l0,0.3083c-2.26089,6.67991 -3.69964,12.02384 -4.62455,16.03178c-0.92491,4.00795 -1.33598,7.09098 -1.33598,9.24911s0.20554,3.28857 0.71937,4.11071c0.51384,0.92491 1.02768,1.54152 1.74705,1.95259c0.20554,0.20554 0.41107,0.41107 0.41107,0.71937s-0.10277,0.51384 -0.41107,0.71937c-1.95259,1.33598 -4.11071,2.05536 -6.37161,2.05536s-2.77473,-0.41107 -3.80241,-1.33598c-1.02768,-1.13045 -1.54152,-2.77473 -1.54152,-4.83009s0.20554,-3.1858 0.61661,-4.93286c0.41107,-1.74705 1.02768,-3.59687 1.64429,-5.4467l-1.95259,-2.77473c-0.51384,0.92491 -0.92491,1.95259 -1.43875,2.98027c-1.43875,3.49411 -3.1858,6.67991 -5.13839,9.55741c-1.95259,2.8775 -4.62455,4.83009 -7.91312,5.755c-1.54152,0.3083 -2.8775,0.51384 -4.21348,0.51384c-2.67196,0 -4.83009,-0.51384 -6.67991,-1.64429c-1.84982,-1.13045 -3.1858,-2.5692 -4.11071,-4.31625c-0.92491,-1.74705 -1.43875,-3.59687 -1.43875,-5.4467s0.61661,-3.90518 1.84982,-5.755c1.23321,-1.74705 3.08304,-2.98027 5.65223,-3.69964l0.20554,0c0.3083,0 0.51384,0 0.71937,0.20554c0.20554,0.20554 0.3083,0.41107 0.3083,0.61661l0,0.20554c-0.20554,0.61661 -0.3083,1.23321 -0.3083,1.95259c0,1.23321 0.3083,2.36366 1.02768,3.28857c0.71937,0.92491 1.64429,1.43875 2.8775,1.43875s1.64429,-0.20554 2.67196,-0.71937c1.33598,-0.71937 2.77473,-1.84982 4.11071,-3.28857c1.43875,-1.43875 2.8775,-2.98027 4.31625,-4.72732c0.92491,-1.02768 1.84982,-2.15812 2.8775,-3.1858c-0.71937,-0.82214 -1.43875,-1.43875 -2.05536,-1.95259c-0.71937,-0.51384 -1.23321,-0.82214 -1.84982,-0.82214s-0.51384,0 -0.82214,0.3083c-0.3083,0.3083 -0.51384,0.61661 -0.51384,1.02768s0.20554,0.82214 0.51384,1.33598c0.3083,0.41107 0.71937,0.82214 1.23321,1.02768c0.3083,0.20554 0.51384,0.51384 0.51384,0.82214s0,0.41107 -0.3083,0.61661c-1.33598,1.02768 -2.8775,1.54152 -4.41902,1.54152s-3.49411,-0.51384 -5.24116,-1.43875c-1.43875,-0.82214 -2.46643,-1.84982 -3.1858,-2.98027c-0.71937,-1.13045 -1.02768,-2.36366 -1.02768,-3.59687c0,-1.95259 0.71937,-3.80241 2.26089,-5.34393c1.43875,-1.64429 3.39134,-2.36366 5.65223,-2.36366m21.47848,8.73527c-2.26089,1.02768 -4.11071,2.98027 -5.54946,5.65223l1.64429,2.36366c1.64429,-3.80241 2.98027,-6.47437 3.90518,-8.01589m-21.47848,-11.92107c-3.08304,0 -5.85777,1.13045 -7.81036,3.39134c-1.95259,2.15812 -2.98027,4.62455 -2.98027,7.39929s0.51384,3.39134 1.43875,5.03562c0,0.20554 0.20554,0.3083 0.3083,0.51384c-0.10277,0 -0.20554,0 -0.3083,0l-1.02768,0c-3.1858,1.02768 -5.65223,2.67196 -7.19375,5.03562c-1.54152,2.26089 -2.36366,4.72732 -2.36366,7.39929s0.61661,4.72732 1.74705,6.88545c1.23321,2.15812 2.98027,4.00795 5.13839,5.4467c2.26089,1.43875 5.03562,2.15812 8.22143,2.15812s3.1858,-0.20554 4.83009,-0.61661l0,0s0,0 0,0c4.00795,-1.13045 7.19375,-3.39134 9.55741,-6.88545c0.3083,-0.41107 0.51384,-0.82214 0.82214,-1.23321c0,0 0,0.10277 0,0.20554c0,2.77473 0.82214,5.03562 2.36366,6.78268l0,0.20554c0.10277,0 0.3083,0.10277 0.3083,0.10277c1.54152,1.33598 3.49411,1.95259 5.755,1.95259s5.54946,-0.82214 8.01589,-2.5692l0,0c0,0 0,-0.10277 0,-0.10277c0.92491,-0.71937 1.54152,-1.84982 1.54152,-2.98027s-0.51384,-2.26089 -1.54152,-2.98027l-0.20554,0c0,-0.10277 -0.20554,-0.20554 -0.20554,-0.20554c-0.20554,-0.10277 -0.41107,-0.41107 -0.61661,-0.82214c0,-0.10277 -0.41107,-0.71937 -0.41107,-2.77473s0.41107,-4.83009 1.23321,-8.6325c0.82214,-3.90518 2.36366,-9.24911 4.52179,-15.82625l0,-0.20554c0,0 0,-0.20554 0,-0.20554l0,-0.3083c0,0 0,-0.3083 0,-0.3083l0,-0.3083c0,-0.92491 -0.41107,-1.84982 -1.02768,-2.5692c-0.61661,-0.61661 -1.43875,-1.02768 -2.36366,-1.13045l-0.10277,0s-0.10277,0 -0.10277,0l-1.33598,0s0,0 0,0l0,0c-3.28857,0 -6.37161,0.82214 -9.24911,2.36366c-1.64429,0.92491 -3.1858,1.95259 -4.62455,3.1858c-0.82214,-1.13045 -1.74705,-2.15812 -2.77473,-3.08304c-1.95259,-1.84982 -4.31625,-3.1858 -7.09098,-3.90518l0,0s0,0 0,0c-0.92491,-0.20554 -1.84982,-0.3083 -2.77473,-0.3083l0,0l0.3083,-0.10277zm-4.93286,23.94491c-0.3083,0 -0.41107,0 -0.51384,-0.20554c-0.3083,-0.41107 -0.41107,-0.92491 -0.41107,-1.54152s0,-0.71937 0.20554,-1.13045l0,-0.20554c0,0 0.20554,-0.41107 0.20554,-0.41107l0,-0.41107c0,-0.10277 0,-0.3083 0,-0.41107c0.10277,0 0.20554,0.10277 0.3083,0.20554c1.43875,0.82214 2.77473,1.33598 4.31625,1.64429c-0.92491,0.82214 -1.74705,1.54152 -2.67196,1.95259c-0.71937,0.41107 -1.13045,0.41107 -1.33598,0.41107l0,0l-0.10277,0.10277z" class="cls-2"/>
    </g>
    <g stroke="null" id="svg_5">
     <path stroke="#ffffff" id="svg_6" fill="#fff" stroke-width="0px" d="m63.18163,40.497c-1.33598,0 -2.5692,-0.61661 -3.69964,-1.43875c-0.51384,-0.41107 -1.02768,-0.92491 -1.43875,-1.54152c-1.95259,1.84982 -3.80241,2.67196 -5.54946,2.67196l-0.61661,0c-2.67196,-0.41107 -4.52179,-1.33598 -5.65223,-2.8775c-1.02768,-1.43875 -1.64429,-3.08304 -1.64429,-4.93286s0.3083,-3.39134 0.82214,-5.13839c0.51384,-1.64429 1.02768,-3.1858 1.64429,-4.62455c0.82214,-1.95259 1.02768,-2.8775 1.02768,-3.28857l0,0s-0.10277,-0.92491 -0.10277,-0.92491l0,0c0,-0.92491 0.41107,-1.64429 1.13045,-2.05536c1.23321,-0.71937 2.67196,-1.02768 4.21348,-1.02768s1.23321,0 1.74705,0.20554c1.43875,0.3083 2.5692,0.92491 3.28857,1.84982c0.61661,0.92491 0.92491,1.95259 0.92491,3.08304s-0.20554,2.15812 -0.51384,3.28857c-0.3083,1.02768 -0.71937,2.05536 -1.02768,3.08304l0,0c-0.71937,1.64429 -0.92491,2.5692 -1.02768,3.08304c0.10277,-0.3083 0.3083,-0.61661 0.51384,-1.13045c0.61661,-1.43875 1.13045,-3.08304 1.74705,-4.83009c0.51384,-1.74705 0.82214,-3.08304 0.82214,-4.00795s0,-0.3083 0,-0.3083l0,-0.20554c0,0 -0.20554,-0.61661 -0.20554,-0.61661l0,0c0,-0.92491 0.51384,-1.74705 1.33598,-2.15812l0,0s0,0 0,0c1.02768,-0.41107 2.15812,-0.61661 3.28857,-0.61661s2.98027,0.41107 4.21348,1.13045c0.82214,0.51384 1.43875,1.23321 1.84982,2.05536c0,0 0,-0.20554 0.10277,-0.3083c0.82214,-1.84982 1.95259,-3.08304 3.59687,-3.80241l0,0s0,0 0,0c0.41107,-0.20554 0.82214,-0.20554 1.23321,-0.20554c1.33598,0 2.46643,0.71937 2.98027,1.95259c0.41107,0.92491 0.61661,2.05536 0.61661,3.28857s0,1.13045 0,1.64429c0.41107,-0.3083 0.92491,-0.41107 1.54152,-0.41107l0.41107,0c0.92491,0 1.74705,0.41107 2.36366,1.13045c0.41107,0.41107 0.61661,1.02768 0.61661,1.64429s0,0.82214 -0.3083,1.13045c-0.61661,1.54152 -1.64429,2.8775 -2.98027,3.90518c-1.23321,0.92491 -2.67196,1.54152 -4.41902,1.64429c-0.61661,1.54152 -1.33598,2.98027 -2.15812,4.21348c-1.13045,1.64429 -2.46643,2.98027 -4.21348,4.00795c-1.74705,1.02768 -3.80241,1.54152 -6.26884,1.54152l-0.41107,0l0.20554,-0.10277zm4.93286,-10.07125c0.10277,-0.10277 0.20554,-0.3083 0.41107,-0.61661c0.41107,-0.71937 0.92491,-1.74705 1.23321,-2.77473c-0.10277,-0.3083 -0.20554,-0.71937 -0.3083,-1.13045c-0.10277,0.41107 -0.3083,0.71937 -0.41107,1.13045c-0.82214,1.95259 -0.92491,2.8775 -0.92491,3.1858l0,0c0,0 0,0.10277 0,0.10277l0,0.10277z" class="cls-2"/>
     <path stroke="#ffffff" id="svg_7" fill="#fff" stroke-width="0px" d="m75.30824,16.14102c0.71937,0 1.33598,0.41107 1.64429,1.13045c0.3083,0.71937 0.51384,1.64429 0.51384,2.67196c0,1.95259 -0.41107,3.90518 -1.23321,5.85777c0.20554,0 0.51384,0 0.71937,0c0.51384,0 0.92491,-0.20554 1.23321,-0.71937c0.3083,-0.41107 0.61661,-1.02768 0.71937,-1.54152c0.3083,-0.61661 0.82214,-0.92491 1.43875,-0.92491l0.41107,0c0.51384,0 0.92491,0.20554 1.23321,0.61661c0.20554,0.20554 0.3083,0.51384 0.3083,0.71937s0,0.3083 -0.20554,0.51384c-0.51384,1.33598 -1.33598,2.46643 -2.46643,3.39134c-1.13045,0.92491 -2.5692,1.33598 -4.31625,1.33598l-0.3083,0c-0.61661,1.74705 -1.33598,3.39134 -2.36366,4.83009c-1.02768,1.43875 -2.26089,2.67196 -3.69964,3.49411c-1.43875,0.92491 -3.28857,1.33598 -5.4467,1.33598l-0.41107,0c-0.92491,0 -1.95259,-0.41107 -2.77473,-1.13045c-0.92491,-0.71937 -1.54152,-1.64429 -2.05536,-2.77473c-2.15812,2.46643 -4.11071,3.69964 -5.85777,3.69964l-0.41107,0c-2.26089,-0.3083 -3.80241,-1.13045 -4.62455,-2.26089c-0.82214,-1.13045 -1.33598,-2.46643 -1.33598,-4.00795s0.20554,-3.08304 0.71937,-4.72732c0.51384,-1.64429 1.02768,-3.1858 1.54152,-4.52179c0.82214,-1.95259 1.23321,-3.28857 1.23321,-4.11071s0,-0.3083 -0.10277,-0.41107l0,-0.41107c0,-0.3083 0,-0.51384 0.41107,-0.71937c0.92491,-0.61661 2.15812,-0.82214 3.49411,-0.82214s1.02768,0 1.43875,0.10277c1.13045,0.20554 1.95259,0.61661 2.36366,1.23321c0.41107,0.61661 0.71937,1.33598 0.71937,2.26089s-0.20554,1.84982 -0.51384,2.8775c-0.3083,1.02768 -0.71937,2.05536 -1.02768,3.08304c-0.71937,1.64429 -1.13045,2.98027 -1.13045,4.00795l0,0.20554c0,0.51384 0.20554,0.92491 0.51384,1.13045c0.3083,0.3083 0.61661,0.41107 0.92491,0.41107s0.51384,0 0.71937,-0.20554c0.20554,-0.20554 0.61661,-1.02768 1.23321,-2.46643c0.61661,-1.43875 1.23321,-3.08304 1.74705,-4.93286c0.51384,-1.84982 0.82214,-3.28857 0.82214,-4.52179s0,-0.71937 -0.20554,-0.92491l0,-0.3083c0,-0.3083 0.10277,-0.51384 0.51384,-0.71937c0.92491,-0.41107 1.84982,-0.51384 2.77473,-0.51384s2.36366,0.3083 3.39134,0.92491c1.02768,0.61661 1.54152,1.54152 1.54152,2.8775s0,0.61661 -0.10277,0.92491c-0.3083,1.43875 -0.82214,2.98027 -1.43875,4.41902c-0.71937,1.64429 -1.13045,2.8775 -1.13045,3.80241l0,0.20554c0.10277,0.71937 0.41107,1.13045 0.82214,1.43875c0.20554,0 0.41107,0.10277 0.61661,0.10277c0.61661,0 1.23321,-0.51384 1.74705,-1.43875c0.61661,-0.92491 1.13045,-2.15812 1.54152,-3.59687c-0.41107,-0.92491 -0.61661,-1.95259 -0.61661,-3.08304s0.3083,-2.98027 0.92491,-4.52179c0.61661,-1.54152 1.54152,-2.5692 2.77473,-3.08304c0.3083,0 0.51384,-0.10277 0.71937,-0.10277m0.3083,-3.08304c-0.51384,0 -1.13045,0.10277 -1.74705,0.3083l-0.10277,0s-0.10277,0.10277 -0.10277,0.10277c-1.33598,0.61661 -2.36366,1.54152 -3.28857,2.77473c-0.3083,-0.20554 -0.51384,-0.41107 -0.82214,-0.61661c-1.54152,-0.92491 -3.1858,-1.43875 -5.03562,-1.43875s-2.67196,0.3083 -3.90518,0.82214l-0.20554,0c0,0 -0.20554,0.10277 -0.20554,0.10277c-0.3083,0.20554 -0.61661,0.41107 -0.92491,0.61661c-0.92491,-1.02768 -2.15812,-1.64429 -3.80241,-1.95259c-0.61661,-0.10277 -1.33598,-0.20554 -2.05536,-0.20554c-1.84982,0 -3.59687,0.41107 -5.03562,1.23321c-1.23321,0.71937 -1.84982,1.95259 -1.84982,3.28857l0,0.41107s0,0.41107 0,0.41107l0,0.3083c0,0.41107 -0.3083,1.13045 -0.92491,2.67196l0,0s0,0 0,0c-0.51384,1.43875 -1.13045,3.08304 -1.64429,4.72732c-0.61661,1.84982 -0.92491,3.80241 -0.92491,5.54946s0.61661,4.11071 1.84982,5.85777c1.33598,1.74705 3.59687,2.98027 6.57714,3.39134l0.20554,0s0.20554,0 0.20554,0l0.41107,0c1.74705,0 3.49411,-0.71937 5.34393,-2.15812c0.20554,0.20554 0.41107,0.41107 0.71937,0.61661c1.33598,1.13045 2.8775,1.64429 4.41902,1.74705l0,0s0,0 0,0l0.41107,0c2.67196,0 5.03562,-0.61661 6.98821,-1.74705c1.84982,-1.13045 3.39134,-2.5692 4.62455,-4.41902c0.82214,-1.13045 1.43875,-2.36366 1.95259,-3.69964c1.64429,-0.20554 3.08304,-0.82214 4.31625,-1.84982c1.54152,-1.23321 2.67196,-2.67196 3.39134,-4.52179c0.3083,-0.61661 0.41107,-1.13045 0.41107,-1.74705c0,-1.02768 -0.3083,-1.95259 -1.02768,-2.67196c-0.92491,-1.02768 -2.15812,-1.64429 -3.49411,-1.64429l-0.41107,0c0,-1.33598 -0.3083,-2.5692 -0.71937,-3.59687c-0.82214,-1.84982 -2.36366,-2.8775 -4.31625,-2.8775l0,0l0.71937,0.20554z" class="cls-2"/>
    </g>
    <g stroke="null" id="svg_8">
     <path stroke="#ffffff" id="svg_9" fill="#fff" stroke-width="0px" d="m86.71547,40.80531c-2.5692,0 -4.72732,-0.51384 -6.37161,-1.43875c-1.64429,-0.92491 -2.98027,-2.26089 -3.80241,-3.80241c-0.82214,-1.54152 -1.23321,-3.28857 -1.23321,-5.03562c0,-3.28857 1.23321,-6.47437 3.59687,-9.45464c2.46643,-2.98027 5.85777,-4.83009 10.07125,-5.24116c0,0 1.23321,0 1.23321,0c1.95259,0 3.59687,0.41107 4.83009,1.02768c1.23321,0.71937 2.15812,1.74705 2.77473,2.8775c0.51384,1.13045 0.82214,2.36366 0.82214,3.69964s0,1.54152 -0.20554,2.26089c0.41107,-0.20554 0.92491,-0.20554 1.23321,-0.20554c0.71937,0 1.43875,0.20554 2.05536,0.61661c0.82214,0.51384 1.23321,1.33598 1.23321,2.26089s0,0.71937 -0.20554,1.02768c-2.67196,7.39929 -8.01589,11.2017 -15.62071,11.40723l0,0s-0.3083,0 -0.3083,0l-0.10277,0z" class="cls-2"/>
     <path stroke="#ffffff" id="svg_10" fill="#fff" stroke-width="0px" d="m90.31234,17.1687c1.64429,0 2.98027,0.3083 4.00795,0.92491c1.02768,0.61661 1.74705,1.33598 2.15812,2.26089c0.41107,0.92491 0.71937,1.95259 0.71937,3.08304s-0.3083,2.8775 -0.92491,4.31625c-0.61661,1.43875 -1.43875,2.67196 -2.5692,3.59687c-1.02768,0.92491 -2.26089,1.43875 -3.39134,1.43875s-2.36366,-0.61661 -3.59687,-1.74705l0,0.3083c0,0.82214 0.3083,1.54152 0.92491,2.15812c0.61661,0.61661 1.43875,0.92491 2.36366,0.92491l0.41107,0c3.59687,-0.61661 6.16607,-2.77473 7.50205,-6.47437c0.41107,-0.61661 1.02768,-0.92491 1.64429,-0.92491s0.92491,0.10277 1.23321,0.41107c0.41107,0.20554 0.61661,0.61661 0.61661,1.02768s0,0.3083 -0.10277,0.51384c-2.46643,6.78268 -7.29652,10.27678 -14.28473,10.37955l-0.3083,0c-2.26089,0 -4.21348,-0.41107 -5.65223,-1.23321c-1.43875,-0.82214 -2.46643,-1.95259 -3.1858,-3.28857c-0.71937,-1.33598 -1.02768,-2.77473 -1.02768,-4.41902c0,-2.98027 1.13045,-5.755 3.28857,-8.52973c2.15812,-2.67196 5.24116,-4.31625 9.04357,-4.72732l1.13045,0m-1.74705,9.35187c0.71937,0 1.54152,-0.41107 2.36366,-1.33598c0.82214,-0.92491 1.23321,-1.84982 1.23321,-2.77473s-0.41107,-1.43875 -1.23321,-1.84982l-0.10277,0c-0.20554,0 -0.61661,0.41107 -1.13045,1.13045c-0.51384,0.82214 -0.92491,1.64429 -1.23321,2.46643c-0.41107,0.92491 -0.61661,1.54152 -0.71937,2.05536c0.20554,0.20554 0.51384,0.20554 0.82214,0.20554m1.74705,-12.22937l-0.10277,0s-1.13045,0 -1.13045,0l0,0s0,0 0,0c-4.62455,0.51384 -8.3242,2.46643 -10.99616,5.85777c-2.5692,3.28857 -3.90518,6.67991 -3.90518,10.37955s0.51384,4.00795 1.43875,5.755c0.92491,1.84982 2.46643,3.28857 4.41902,4.41902c1.84982,1.02768 4.31625,1.64429 7.09098,1.64429l0.41107,0c8.22143,-0.20554 14.0792,-4.41902 16.9567,-12.33214c0.20554,-0.51384 0.3083,-1.02768 0.3083,-1.54152c0,-1.43875 -0.71937,-2.67196 -1.84982,-3.49411c-0.71937,-0.51384 -1.54152,-0.82214 -2.46643,-0.82214c0,-0.20554 0,-0.41107 0,-0.61661c0,-1.54152 -0.3083,-2.98027 -0.92491,-4.31625c-0.71937,-1.43875 -1.84982,-2.67196 -3.39134,-3.59687c-1.43875,-0.82214 -3.28857,-1.23321 -5.4467,-1.23321l0,0l-0.41107,-0.10277z" class="cls-2"/>
    </g>
    <g stroke="null" id="svg_11">
     <path stroke="#ffffff" id="svg_12" fill="#fff" stroke-width="0px" d="m106.85796,40.59977c-2.5692,0 -5.03562,-0.71937 -7.09098,-2.26089c-2.26089,-1.54152 -3.49411,-4.00795 -3.80241,-7.09098l0,0l0,-0.71937c0,-1.54152 0.3083,-3.1858 0.92491,-4.72732c0.61661,-1.54152 1.54152,-2.8775 2.67196,-4.00795c1.23321,-1.13045 2.77473,-1.74705 4.52179,-1.74705s0.10277,0 0.20554,0c0.20554,-0.20554 1.33598,-1.74705 1.43875,-1.84982c0.10277,-1.43875 0.82214,-2.67196 1.95259,-3.39134c1.13045,-0.82214 2.26089,-1.23321 3.39134,-1.23321s1.33598,0.20554 1.95259,0.51384c0.71937,0.51384 1.13045,1.23321 1.13045,2.05536s-0.20554,1.23321 -0.51384,1.84982c0,0.20554 0.20554,0.92491 0.92491,2.36366l0.20554,0.41107c0.3083,0.71937 0.71937,1.43875 1.02768,2.05536c0.61661,1.13045 1.23321,2.26089 1.74705,3.49411c0.51384,1.33598 0.82214,2.77473 0.82214,4.21348s0,0.82214 0,1.23321l0,0c-0.51384,2.98027 -1.95259,5.13839 -4.21348,6.67991c-2.15812,1.43875 -4.62455,2.15812 -7.09098,2.15812l-0.20554,0zm1.02768,-11.92107s-0.10277,0 -0.20554,0.20554c0,0 -0.20554,0.20554 -0.20554,0.51384c0,0.61661 0.20554,0.82214 0.3083,0.82214c0.3083,0.20554 0.51384,0.3083 0.82214,0.3083s0.51384,0 0.92491,-0.41107c0.3083,-0.3083 0.41107,-0.92491 0.41107,-1.33598s0,-0.3083 0,-0.41107c-0.10277,0 -0.20554,0.10277 -0.3083,0.20554l-0.10277,0c0,0 -0.10277,0 -0.10277,0c-0.20554,0 -0.51384,0 -0.71937,0s-0.41107,0 -0.61661,0l-0.20554,0.10277z" class="cls-2"/>
     <path stroke="#ffffff" id="svg_13" fill="#fff" stroke-width="0px" d="m111.07145,15.01058c0.41107,0 0.82214,0 1.13045,0.3083c0.3083,0.20554 0.41107,0.51384 0.41107,0.82214s-0.10277,0.71937 -0.41107,1.13045c-0.10277,0.20554 -0.20554,0.41107 -0.20554,0.61661c0,0.71937 0.41107,1.74705 1.13045,3.08304c0,0.10277 0.10277,0.3083 0.20554,0.41107c0.3083,0.71937 0.61661,1.33598 1.02768,2.05536c0.61661,1.13045 1.13045,2.26089 1.64429,3.39134c0.51384,1.13045 0.71937,2.36366 0.71937,3.59687s0,0.71937 0,1.13045c-0.41107,2.46643 -1.64429,4.31625 -3.59687,5.54946c-1.95259,1.23321 -4.00795,1.84982 -6.37161,1.84982s-4.41902,-0.61661 -6.26884,-1.95259c-1.84982,-1.33598 -2.8775,-3.39134 -3.1858,-6.0633l0,-0.61661c0,-1.43875 0.3083,-2.77473 0.82214,-4.21348c0.51384,-1.33598 1.33598,-2.46643 2.26089,-3.39134c1.02768,-0.92491 2.15812,-1.33598 3.49411,-1.33598s0.61661,0 0.82214,0c0,0 0.10277,-0.10277 0.3083,-0.41107c0.20554,-0.3083 0.41107,-0.61661 0.71937,-0.92491c0.3083,-0.3083 0.51384,-0.71937 0.71937,-0.92491c0.20554,-0.3083 0.41107,-0.51384 0.41107,-0.61661c0,-1.23321 0.41107,-2.15812 1.33598,-2.77473c0.92491,-0.61661 1.74705,-0.92491 2.5692,-0.92491m-2.26089,12.43491c-0.10277,0 -0.20554,0 -0.41107,0l-0.3083,0c-0.41107,0 -0.82214,0.10277 -1.23321,0.51384c-0.41107,0.41107 -0.71937,0.92491 -0.71937,1.54152l0,0c0,0.92491 0.3083,1.64429 0.82214,2.05536c0.51384,0.41107 1.13045,0.71937 1.74705,0.71937s1.33598,-0.3083 1.95259,-0.82214c0.61661,-0.51384 0.92491,-1.33598 0.92491,-2.46643s-0.20554,-1.74705 -0.61661,-2.77473c-0.41107,-1.13045 -1.13045,-2.36366 -2.15812,-3.69964l-0.51384,0.82214c0.92491,0.82214 1.43875,1.84982 1.43875,2.77473s0,0.51384 -0.10277,0.71937c-0.10277,0.3083 -0.3083,0.41107 -0.51384,0.51384c-0.10277,0 -0.3083,0 -0.41107,0m2.67196,-15.10687c-1.43875,0 -2.8775,0.51384 -4.31625,1.43875c-1.33598,0.92491 -2.26089,2.36366 -2.46643,4.11071c-0.20554,0.20554 -0.41107,0.51384 -0.61661,0.82214c0,0 0,0 -0.10277,0.10277c-1.84982,0.10277 -3.59687,0.82214 -4.93286,2.15812c-1.33598,1.23321 -2.36366,2.77473 -3.08304,4.52179c-0.71937,1.74705 -1.02768,3.49411 -1.02768,5.24116l0,0.61661l0,0c0,0.10277 0,0.3083 0,0.3083c0.3083,3.59687 1.84982,6.37161 4.41902,8.22143c2.36366,1.64429 5.03562,2.5692 8.01589,2.5692s5.54946,-0.82214 7.91312,-2.36366c2.67196,-1.74705 4.31625,-4.21348 4.83009,-7.50205l0,0c0,-0.10277 0,-0.20554 0,-0.20554c0,-0.51384 0,-0.92491 0,-1.43875c0,-1.64429 -0.3083,-3.1858 -0.92491,-4.72732c-0.51384,-1.23321 -1.13045,-2.46643 -1.74705,-3.69964c-0.3083,-0.71937 -0.61661,-1.33598 -0.92491,-1.95259l0,0c0,0 0,-0.10277 0,-0.10277l-0.20554,-0.41107c-0.41107,-0.71937 -0.61661,-1.23321 -0.71937,-1.43875c0.3083,-0.71937 0.41107,-1.33598 0.41107,-2.05536c0,-1.33598 -0.61661,-2.5692 -1.74705,-3.28857c-0.82214,-0.51384 -1.74705,-0.82214 -2.77473,-0.82214l0,0l0,-0.10277z" class="cls-2"/>
    </g>
    <g stroke="null" id="svg_14">
     <path stroke="#ffffff" id="svg_15" fill="#fff" stroke-width="0px" d="m128.64475,40.497c-3.39134,0 -6.26884,-1.13045 -8.6325,-3.1858c-2.36366,-2.15812 -3.49411,-4.93286 -3.49411,-8.01589l0,0c0,-0.10277 0,-0.82214 0,-0.82214c0.3083,-2.8775 1.43875,-5.34393 3.28857,-7.39929c1.84982,-2.05536 4.21348,-3.49411 7.09098,-4.11071c0.41107,0 0.61661,0 0.92491,0s0.82214,0 1.23321,0.20554c0,0 0.20554,0 0.3083,0.10277c0.71937,-0.3083 1.54152,-0.41107 2.26089,-0.41107c1.64429,0 3.28857,0.51384 4.83009,1.43875c1.43875,0.92491 2.67196,1.95259 3.49411,3.08304c1.54152,2.15812 2.26089,4.31625 2.26089,6.57714s-0.61661,4.31625 -1.84982,6.26884c-1.23321,1.95259 -2.8775,3.49411 -4.93286,4.72732c-2.05536,1.23321 -4.41902,1.84982 -6.88545,1.84982l0.10277,-0.3083z" class="cls-2"/>
     <path stroke="#ffffff" id="svg_16" fill="#fff" stroke-width="0px" d="m131.62502,17.99084c1.33598,0 2.77473,0.41107 4.00795,1.23321c1.33598,0.82214 2.36366,1.74705 3.1858,2.77473c1.33598,1.84982 1.95259,3.69964 1.95259,5.65223s-0.51384,3.80241 -1.64429,5.54946c-1.13045,1.74705 -2.5692,3.1858 -4.41902,4.21348c-1.84982,1.13045 -3.90518,1.64429 -6.16607,1.64429s-5.54946,-0.92491 -7.60482,-2.8775c-2.05536,-1.84982 -3.08304,-4.21348 -3.08304,-6.98821l0,-0.71937c0.3083,-2.46643 1.23321,-4.72732 2.98027,-6.57714c1.64429,-1.84982 3.80241,-3.08304 6.37161,-3.69964c0.20554,0 0.41107,0 0.61661,0s0.51384,0 0.71937,0.10277c0.20554,0 0.41107,0.20554 0.51384,0.51384c0.71937,-0.51384 1.54152,-0.71937 2.46643,-0.71937m-2.26089,9.24911c-0.82214,0 -1.54152,-0.3083 -2.26089,-0.92491c-0.61661,-0.61661 -0.82214,-1.43875 -0.82214,-2.26089s0,-0.92491 0.20554,-1.33598c-0.92491,1.02768 -1.33598,2.15812 -1.33598,3.28857s0.20554,1.54152 0.71937,2.26089c0.51384,0.71937 1.23321,1.13045 2.36366,1.33598c0.20554,0 0.51384,0 0.71937,0c1.13045,0 2.05536,-0.3083 2.98027,-0.92491c0.92491,-0.61661 1.54152,-1.43875 1.84982,-2.46643c0.20554,-0.61661 0.3083,-1.23321 0.3083,-1.74705c0,-0.71937 -0.20554,-1.33598 -0.61661,-1.64429c-0.41107,-0.3083 -0.82214,-0.51384 -1.23321,-0.51384s-0.82214,0.10277 -1.13045,0.41107c-0.3083,0.3083 -0.51384,0.61661 -0.51384,1.13045s0,0.51384 0.20554,0.82214c0.10277,0.20554 0.41107,0.41107 0.71937,0.41107c0.3083,0 0.61661,0.10277 0.92491,0.10277c0.10277,0 0.3083,0 0.3083,0c0,0 0.10277,0 0.20554,0l0,0c0,0.51384 -0.41107,0.82214 -1.13045,1.33598c-0.71937,0.41107 -1.54152,0.61661 -2.36366,0.61661m2.26089,-12.22937c-0.82214,0 -1.54152,0.10277 -2.26089,0.41107c-0.51384,-0.10277 -1.02768,-0.20554 -1.43875,-0.20554s-0.71937,0 -1.13045,0l0,0s0,0 0,0c-3.08304,0.82214 -5.65223,2.36366 -7.81036,4.62455c-2.15812,2.36366 -3.39134,5.13839 -3.69964,8.22143l0,0s0,0 0,0l0,0.71937c0,0 0,0.10277 0,0.10277l0,0c0,3.69964 1.33598,6.78268 4.00795,9.24911c2.5692,2.36366 5.85777,3.59687 9.66018,3.59687s5.34393,-0.71937 7.70759,-2.05536c2.26089,-1.33598 4.00795,-3.08304 5.34393,-5.24116c1.33598,-2.15812 2.05536,-4.62455 2.05536,-7.09098s-0.82214,-5.03562 -2.46643,-7.39929l0,0s0,0 0,0c-1.02768,-1.33598 -2.26089,-2.46643 -3.90518,-3.49411c-1.84982,-1.13045 -3.69964,-1.64429 -5.65223,-1.64429l0,0l-0.41107,0.20554z" class="cls-2"/>
    </g>
    <g stroke="null" id="svg_17">
     <path stroke="#ffffff" id="svg_18" fill="#fff" stroke-width="0px" d="m156.18653,41.73022c-1.13045,0 -2.36366,-0.41107 -3.69964,-1.13045l0,0c0,0 0,-0.10277 0,-0.10277c-0.41107,-0.3083 -0.82214,-0.71937 -1.02768,-1.13045c-0.20554,0.41107 -0.61661,1.02768 -1.54152,1.33598c-0.61661,0.20554 -1.23321,0.3083 -2.05536,0.3083s-2.26089,-0.20554 -3.49411,-0.51384c-1.33598,-0.41107 -2.46643,-0.92491 -3.39134,-1.64429c-1.43875,-1.13045 -1.84982,-2.46643 -1.84982,-3.39134l0,0c0,0 0,-0.71937 0,-0.71937l0,0c0.51384,-2.46643 1.13045,-4.72732 1.95259,-6.57714c0.82214,-1.84982 1.54152,-4.21348 2.05536,-6.98821l0,-0.61661c0,-0.3083 0,-0.51384 0,-0.51384c0,-0.20554 -0.20554,-0.41107 -0.20554,-0.61661c-0.3083,-0.51384 -0.41107,-1.02768 -0.41107,-1.54152s0.10277,-0.82214 0.41107,-1.23321l0,0c0,-0.10277 0,-0.20554 0,-0.20554c0.71937,-0.71937 1.74705,-1.13045 3.39134,-1.13045s2.77473,0.3083 4.11071,1.02768c0.92491,0.51384 1.74705,1.13045 2.36366,2.05536c0.51384,-0.41107 1.02768,-0.82214 1.64429,-1.13045c1.23321,-0.71937 2.5692,-1.13045 4.00795,-1.13045l0.20554,0c1.84982,0 3.1858,0.41107 4.21348,1.23321c0.3083,0.3083 0.61661,0.61661 0.82214,0.92491c0.51384,-0.3083 0.92491,-0.61661 1.43875,-0.92491c1.23321,-0.61661 2.67196,-1.02768 4.21348,-1.02768l0.82214,0c2.46643,0.3083 4.11071,0.92491 5.13839,2.05536c1.02768,1.13045 1.54152,2.46643 1.54152,4.00795s-0.20554,2.15812 -0.51384,3.28857c-0.3083,1.02768 -0.61661,2.05536 -1.02768,3.08304c-0.3083,0.82214 -0.51384,1.64429 -0.71937,2.36366c-0.20554,0.61661 -0.3083,1.23321 -0.3083,1.74705s0,0.41107 0.10277,0.51384c0,0 0,0 0,0c0,0 0.20554,0 0.61661,0.10277c0.61661,0 1.23321,0.3083 1.64429,0.71937c0.41107,0.41107 0.61661,1.02768 0.61661,1.54152l0,0.61661c-0.10277,0 -0.10277,0 -0.10277,0c-0.51384,1.43875 -1.43875,2.5692 -2.8775,3.28857c-1.33598,0.71937 -2.77473,1.02768 -4.31625,1.02768s-2.5692,-0.20554 -3.69964,-0.71937c-1.23321,-0.51384 -2.36366,-1.33598 -3.08304,-2.46643c-0.51384,-0.71937 -0.92491,-1.64429 -1.13045,-2.5692c0,0.41107 0,0.82214 0,1.13045c0,0.51384 0,0.71937 0,0.71937c0,0.3083 0.10277,0.51384 0.10277,0.82214c0,0.61661 -0.3083,1.23321 -0.71937,1.64429c-0.51384,0.51384 -1.23321,0.92491 -2.15812,1.43875c-1.02768,0.51384 -2.15812,0.82214 -3.28857,0.82214l0.20554,0.20554zm-0.71937,-17.88161c-0.3083,0.10277 -0.61661,0.51384 -0.92491,1.23321c-0.41107,0.82214 -0.82214,1.74705 -1.13045,2.77473c0.51384,-0.92491 1.02768,-1.95259 1.74705,-3.08304c0.10277,-0.3083 0.3083,-0.61661 0.3083,-0.82214c0,0 0,0 0,0l0,-0.10277z" class="cls-2"/>
     <path stroke="#ffffff" id="svg_19" fill="#fff" stroke-width="0px" d="m146.42359,16.75763c1.13045,0 2.26089,0.3083 3.49411,0.92491c1.23321,0.61661 2.05536,1.64429 2.5692,3.1858c0.82214,-0.92491 1.84982,-1.74705 2.8775,-2.36366c1.02768,-0.61661 2.15812,-0.92491 3.28857,-0.92491l0.20554,0c1.43875,0 2.46643,0.3083 3.1858,0.92491s1.13045,1.33598 1.33598,2.26089c0.71937,-0.82214 1.64429,-1.54152 2.67196,-2.05536c1.02768,-0.51384 2.15812,-0.82214 3.49411,-0.82214l0.71937,0c2.05536,0.20554 3.39134,0.71937 4.21348,1.54152c0.82214,0.82214 1.13045,1.84982 1.13045,2.98027s-0.10277,1.84982 -0.41107,2.8775c-0.3083,1.02768 -0.61661,2.05536 -1.02768,3.08304c-0.3083,0.82214 -0.51384,1.74705 -0.82214,2.46643c-0.20554,0.82214 -0.3083,1.54152 -0.3083,2.15812s0.10277,1.02768 0.41107,1.43875c0.3083,0.41107 0.82214,0.61661 1.64429,0.71937c0.20554,0 0.41107,0 0.61661,0.20554c0.20554,0.20554 0.20554,0.3083 0.20554,0.51384l0,0.20554c-0.41107,1.02768 -1.13045,1.84982 -2.26089,2.46643c-1.13045,0.61661 -2.26089,0.82214 -3.59687,0.82214s-2.15812,-0.20554 -3.1858,-0.61661c-1.02768,-0.41107 -1.84982,-1.13045 -2.46643,-1.95259c-0.61661,-0.92491 -0.92491,-2.05536 -0.92491,-3.49411s0.10277,-1.64429 0.3083,-2.46643c0.20554,-0.82214 0.71937,-1.84982 1.43875,-2.98027c0.51384,-0.82214 0.92491,-1.54152 1.23321,-2.36366c0.41107,-0.71937 0.61661,-1.33598 0.61661,-1.84982s-0.3083,-0.82214 -0.92491,-0.92491l0,0c-0.71937,0 -1.54152,0.82214 -2.36366,2.5692c-0.82214,1.74705 -1.54152,3.59687 -2.15812,5.85777c-0.61661,2.15812 -0.92491,3.90518 -0.92491,5.24116s0,0.92491 0.20554,1.23321c0,0 0,0.20554 0,0.3083c0,0.20554 0,0.41107 -0.3083,0.61661c-0.41107,0.41107 -1.02768,0.71937 -1.84982,1.13045c-0.82214,0.41107 -1.64429,0.61661 -2.67196,0.61661s-1.84982,-0.3083 -2.8775,-0.92491c-0.82214,-0.71937 -1.23321,-1.64429 -1.23321,-2.77473s0.20554,-2.26089 0.71937,-3.49411c0.41107,-1.23321 0.92491,-2.46643 1.54152,-3.59687c0.51384,-1.13045 1.33598,-2.46643 2.15812,-3.90518c0.20554,-0.41107 0.3083,-0.71937 0.41107,-1.02768c0.10277,-0.3083 0.20554,-0.61661 0.20554,-0.92491s0,-0.51384 -0.20554,-0.71937c-0.20554,-0.20554 -0.41107,-0.41107 -0.82214,-0.41107l-0.3083,0c-0.92491,0 -1.74705,0.71937 -2.46643,2.05536s-1.33598,2.98027 -1.74705,4.83009c-0.51384,1.84982 -0.82214,3.69964 -1.13045,5.4467c-0.20554,1.74705 -0.3083,2.98027 -0.3083,3.69964l0,0c0,0.41107 -0.3083,0.61661 -0.71937,0.82214c-0.41107,0.10277 -0.92491,0.20554 -1.54152,0.20554c-0.92491,0 -1.95259,-0.20554 -3.08304,-0.51384c-1.13045,-0.3083 -2.05536,-0.82214 -2.8775,-1.43875c-0.82214,-0.61661 -1.23321,-1.33598 -1.23321,-2.26089l0,-0.41107c0.51384,-2.36366 1.13045,-4.41902 1.95259,-6.26884c0.92491,-1.95259 1.64429,-4.41902 2.15812,-7.29652l0,-0.71937c0,-0.41107 0,-0.82214 -0.10277,-1.13045c-0.10277,-0.3083 -0.20554,-0.51384 -0.3083,-0.82214c-0.20554,-0.3083 -0.3083,-0.51384 -0.3083,-0.82214s0,-0.3083 0.20554,-0.41107c0.41107,-0.41107 1.13045,-0.61661 2.26089,-0.61661m0,-3.08304c-2.05536,0 -3.49411,0.51384 -4.41902,1.64429l-0.20554,0.20554l0,0.20554c-0.51384,0.61661 -0.71937,1.33598 -0.71937,2.05536s0.20554,1.54152 0.61661,2.15812c0,0.10277 0,0.20554 0.10277,0.3083c0,0 0,0 0,0l0,0.41107c-0.51384,2.5692 -1.13045,4.72732 -1.95259,6.47437c-0.92491,2.05536 -1.64429,4.31625 -2.05536,6.88545l0,0c0,0.10277 0,0.20554 0,0.20554l0,0.41107c0,0 0,0.20554 0,0.20554l0,0.20554c0,1.74705 0.82214,3.39134 2.36366,4.62455c1.13045,0.82214 2.36366,1.43875 3.90518,1.95259c1.33598,0.41107 2.67196,0.61661 3.90518,0.61661s1.84982,-0.10277 2.5692,-0.41107c0.41107,-0.10277 0.71937,-0.3083 1.02768,-0.51384c0,0 0,0 0.10277,0l0.10277,0c0,0.10277 0.20554,0.20554 0.20554,0.20554c1.54152,0.92491 2.98027,1.33598 4.41902,1.33598s2.77473,-0.3083 4.00795,-1.02768c0.92491,-0.51384 1.74705,-1.02768 2.36366,-1.54152l0,0s0,0 0,0c0.20554,-0.20554 0.51384,-0.51384 0.61661,-0.82214c0.71937,0.71937 1.64429,1.23321 2.5692,1.64429c1.33598,0.61661 2.77473,0.82214 4.31625,0.82214s3.39134,-0.41107 4.93286,-1.23321c1.74705,-0.92491 3.08304,-2.36366 3.59687,-4.11071l0,-0.20554c0,0 0,-0.20554 0,-0.20554l0,-0.20554c0,0 0.10277,-0.3083 0.10277,-0.3083l0,-0.3083c0,-0.92491 -0.41107,-1.84982 -1.02768,-2.5692c-0.51384,-0.51384 -1.13045,-0.82214 -1.84982,-1.02768c0,-0.20554 0,-0.3083 0.10277,-0.51384c0.20554,-0.71937 0.51384,-1.54152 0.71937,-2.36366c0.41107,-1.02768 0.71937,-2.15812 1.02768,-3.1858c0.41107,-1.33598 0.61661,-2.5692 0.61661,-3.69964c0,-1.95259 -0.71937,-3.69964 -1.95259,-5.03562c-1.33598,-1.33598 -3.28857,-2.15812 -6.0633,-2.46643l0,0s0,0 0,0l-0.71937,0s0,0 0,0l0,0c-1.84982,0 -3.49411,0.41107 -4.93286,1.13045c-0.20554,0 -0.41107,0.20554 -0.51384,0.3083c0,0 0,0 -0.10277,0c-1.23321,-1.02768 -2.98027,-1.64429 -5.13839,-1.64429l-0.20554,0c-1.64429,0 -3.28857,0.41107 -4.83009,1.33598c-0.20554,0.10277 -0.41107,0.3083 -0.61661,0.41107c-0.61661,-0.51384 -1.23321,-1.02768 -1.95259,-1.33598c-1.64429,-0.82214 -3.28857,-1.13045 -4.83009,-1.13045l0,0l-0.20554,0.10277z" class="cls-2"/>
    </g>
    <g stroke="null" id="svg_20">
     <path stroke="#ffffff" id="svg_21" fill="#fff" stroke-width="0px" d="m185.57814,40.80531c-2.5692,0 -4.72732,-0.51384 -6.37161,-1.43875c-1.64429,-0.92491 -2.98027,-2.26089 -3.80241,-3.80241c-0.82214,-1.54152 -1.23321,-3.28857 -1.23321,-5.03562c0,-3.28857 1.23321,-6.47437 3.59687,-9.45464c2.46643,-2.98027 5.85777,-4.83009 10.07125,-5.24116c0,0 1.23321,0 1.23321,0c1.95259,0 3.59687,0.41107 4.83009,1.02768c1.23321,0.71937 2.15812,1.74705 2.77473,2.8775c0.51384,1.13045 0.82214,2.36366 0.82214,3.69964s0,1.54152 -0.20554,2.26089c0.41107,-0.20554 0.92491,-0.20554 1.23321,-0.20554c0.71937,0 1.43875,0.20554 2.05536,0.61661c0.82214,0.51384 1.23321,1.33598 1.23321,2.26089s0,0.71937 -0.20554,1.02768c-2.67196,7.39929 -8.01589,11.2017 -15.62071,11.40723l0,0s-0.3083,0 -0.3083,0l-0.10277,0z" class="cls-2"/>
     <path stroke="#ffffff" id="svg_22" fill="#fff" stroke-width="0px" d="m189.07224,17.1687c1.64429,0 2.98027,0.3083 4.00795,0.92491c1.02768,0.61661 1.74705,1.33598 2.15812,2.26089c0.41107,0.92491 0.71937,1.95259 0.71937,3.08304s-0.3083,2.8775 -0.92491,4.31625c-0.61661,1.43875 -1.43875,2.67196 -2.5692,3.59687c-1.02768,0.92491 -2.26089,1.43875 -3.39134,1.43875s-2.36366,-0.61661 -3.59687,-1.74705l0,0.3083c0,0.82214 0.3083,1.54152 0.92491,2.15812c0.61661,0.61661 1.43875,0.92491 2.36366,0.92491l0.41107,0c3.59687,-0.61661 6.16607,-2.77473 7.50205,-6.47437c0.41107,-0.61661 1.02768,-0.92491 1.64429,-0.92491s0.92491,0.10277 1.23321,0.41107c0.41107,0.20554 0.61661,0.61661 0.61661,1.02768s0,0.3083 -0.10277,0.51384c-2.46643,6.78268 -7.29652,10.27678 -14.28473,10.37955l-0.3083,0c-2.26089,0 -4.21348,-0.41107 -5.65223,-1.23321c-1.43875,-0.82214 -2.46643,-1.95259 -3.1858,-3.28857c-0.71937,-1.33598 -1.02768,-2.77473 -1.02768,-4.41902c0,-2.98027 1.13045,-5.755 3.28857,-8.52973c2.15812,-2.67196 5.24116,-4.31625 9.04357,-4.72732l1.13045,0m-1.74705,9.35187c0.71937,0 1.54152,-0.41107 2.36366,-1.33598c0.82214,-0.92491 1.23321,-1.84982 1.23321,-2.77473s-0.41107,-1.43875 -1.23321,-1.84982l-0.10277,0c-0.20554,0 -0.61661,0.41107 -1.13045,1.13045c-0.51384,0.82214 -0.92491,1.64429 -1.23321,2.46643c-0.41107,0.92491 -0.61661,1.54152 -0.71937,2.05536c0.20554,0.20554 0.51384,0.20554 0.82214,0.20554m1.74705,-12.22937l-0.10277,0s-1.13045,0 -1.13045,0l0,0s0,0 0,0c-4.62455,0.51384 -8.3242,2.46643 -10.99616,5.85777c-2.5692,3.28857 -3.90518,6.67991 -3.90518,10.37955s0.51384,4.00795 1.43875,5.755c0.92491,1.84982 2.46643,3.28857 4.41902,4.41902c1.84982,1.02768 4.31625,1.64429 7.09098,1.64429l0.41107,0c8.22143,-0.20554 14.0792,-4.41902 16.9567,-12.33214c0.20554,-0.51384 0.3083,-1.02768 0.3083,-1.54152c0,-1.43875 -0.71937,-2.67196 -1.84982,-3.49411c-0.71937,-0.51384 -1.54152,-0.82214 -2.46643,-0.82214c0,-0.20554 0,-0.41107 0,-0.61661c0,-1.54152 -0.3083,-2.98027 -0.92491,-4.31625c-0.71937,-1.43875 -1.84982,-2.67196 -3.39134,-3.59687c-1.43875,-0.82214 -3.28857,-1.23321 -5.4467,-1.23321l0,0l-0.41107,-0.10277z" class="cls-2"/>
    </g>
    <g stroke="null" id="svg_23">
     <path stroke="#ffffff" id="svg_24" fill="#fff" stroke-width="0px" d="m222.16349,42.14129c-3.1858,-0.10277 -5.85777,-0.71937 -7.91312,-1.95259c-2.15812,-1.23321 -3.69964,-2.77473 -4.72732,-4.62455c-1.02768,-1.84982 -1.54152,-3.80241 -1.54152,-5.85777s0.71937,-4.72732 2.15812,-6.78268c1.43875,-2.05536 3.39134,-3.49411 6.0633,-4.31625c-0.51384,-1.02768 -0.71937,-2.15812 -0.71937,-3.28857c0,-2.98027 1.54152,-5.65223 4.52179,-8.11866c2.8775,-2.36366 6.88545,-3.59687 11.8183,-3.69964l0,0c1.84982,0 3.90518,0 6.0633,0.3083c1.02768,-0.61661 2.05536,-0.92491 3.28857,-0.92491s2.15812,0.20554 3.28857,0.61661l0,0s0,0 0,0c0.71937,0.41107 1.23321,0.92491 1.33598,1.64429c3.49411,1.13045 6.16607,2.67196 7.91312,4.62455c1.95259,2.26089 2.98027,4.62455 2.98027,7.19375s-0.61661,4.11071 -1.84982,5.96054c-1.23321,1.84982 -2.8775,3.39134 -5.03562,4.52179c-2.15812,1.13045 -4.62455,1.74705 -7.39929,1.74705s-3.1858,-0.20554 -4.93286,-0.61661c-0.61661,1.74705 -1.43875,3.59687 -2.36366,5.24116c-1.23321,2.26089 -2.8775,4.21348 -4.93286,5.755c-2.05536,1.64429 -4.72732,2.46643 -7.70759,2.46643l-0.20554,0l-0.10277,0.10277zm-2.98027,-19.83419c0,0.20554 0,0.41107 0,0.51384c0,0.92491 0.10277,1.54152 0.41107,1.95259c0.3083,0.41107 0.61661,0.71937 1.02768,0.92491c0.41107,0.20554 0.82214,0.3083 1.13045,0.3083l0.41107,0c1.64429,0 2.98027,-0.61661 4.11071,-1.74705c0,0 0.20554,-0.20554 0.3083,-0.3083c-0.51384,0.10277 -1.13045,0.20554 -1.64429,0.20554c-1.54152,0 -3.08304,-0.41107 -4.62455,-1.23321c-0.41107,-0.20554 -0.71937,-0.41107 -1.02768,-0.61661l-0.10277,0zm20.34803,0c2.05536,0 3.49411,-0.41107 4.52179,-1.23321c0.92491,-0.82214 1.33598,-1.64429 1.33598,-2.5692s-0.41107,-1.74705 -1.13045,-2.5692c-0.61661,-0.71937 -1.43875,-1.33598 -2.5692,-1.84982c-0.82214,2.46643 -1.54152,5.03562 -2.26089,7.70759c0,0.20554 -0.10277,0.41107 -0.20554,0.51384c0,0 0.20554,0 0.3083,0zm-9.14634,-6.98821c0.3083,0 0.61661,0 0.92491,0.20554c0.41107,-0.92491 0.82214,-1.95259 1.23321,-2.8775c0,0 0,0 0,0c-0.61661,0 -1.23321,0.20554 -1.74705,0.51384c-0.3083,0.10277 -0.82214,0.41107 -1.02768,1.43875c0,0.10277 0,0.41107 0,0.61661s0,0.20554 0,0.3083l0.61661,0s0,0 0,0l0,-0.20554z" class="cls-2"/>
     <path stroke="#ffffff" id="svg_25" fill="#fff" stroke-width="0px" d="m240.97001,4.52826c0.82214,0 1.74705,0.20554 2.77473,0.51384c0.41107,0.20554 0.61661,0.51384 0.61661,0.82214s0,0.41107 -0.3083,0.61661c3.90518,1.02768 6.67991,2.5692 8.42696,4.52179c1.74705,1.95259 2.67196,4.00795 2.67196,6.16607s-0.51384,3.49411 -1.64429,5.13839c-1.13045,1.64429 -2.5692,2.98027 -4.52179,4.00795c-1.95259,1.02768 -4.21348,1.54152 -6.78268,1.54152s-3.80241,-0.3083 -5.85777,-0.92491c-0.61661,2.15812 -1.54152,4.31625 -2.77473,6.37161c-1.13045,2.05536 -2.67196,3.90518 -4.52179,5.34393c-1.84982,1.43875 -4.11071,2.15812 -6.78268,2.15812l-0.20554,0c-2.8775,0 -5.34393,-0.71937 -7.19375,-1.74705c-1.84982,-1.02768 -3.28857,-2.36366 -4.21348,-4.11071c-0.92491,-1.64429 -1.33598,-3.39134 -1.33598,-5.13839s0.61661,-4.11071 1.84982,-5.96054c1.23321,-1.84982 3.08304,-3.08304 5.4467,-3.80241l0.3083,0c0.20554,0 0.51384,0 0.61661,0.20554c0.20554,0.10277 0.3083,0.3083 0.3083,0.51384l0,0c-0.10277,0.92491 -0.20554,1.54152 -0.20554,2.15812c0,1.23321 0.20554,2.15812 0.71937,2.77473c0.51384,0.71937 1.02768,1.13045 1.64429,1.43875c0.61661,0.3083 1.13045,0.41107 1.64429,0.41107l0.51384,0c2.05536,0 3.69964,-0.71937 5.13839,-2.26089c1.43875,-1.43875 2.67196,-3.28857 3.69964,-5.54946c1.02768,-2.15812 2.05536,-4.41902 2.8775,-6.57714c0.3083,-0.71937 0.51384,-1.33598 0.82214,-2.05536l-1.54152,0c-1.13045,0 -2.15812,0.10277 -3.08304,0.51384c-0.92491,0.41107 -1.54152,1.23321 -1.84982,2.36366c0,0.3083 -0.10277,0.71937 -0.10277,1.02768s0.10277,0.92491 0.3083,1.23321c0.20554,0.41107 0.61661,0.51384 1.23321,0.51384l0.61661,0c0.20554,0 0.3083,0 0.41107,0.10277c0,0.10277 0.10277,0.3083 0.10277,0.41107l0,0.3083c-0.41107,1.64429 -1.13045,2.8775 -2.26089,3.69964c-1.13045,0.82214 -2.36366,1.23321 -3.80241,1.23321s-2.5692,-0.3083 -3.90518,-1.02768c-1.43875,-0.82214 -2.46643,-1.74705 -3.1858,-2.77473c-0.71937,-1.02768 -1.02768,-2.15812 -1.02768,-3.39134c0,-2.46643 1.33598,-4.83009 4.00795,-6.88545c2.67196,-2.15812 6.26884,-3.28857 10.89339,-3.39134c1.95259,0 4.11071,0 6.47437,0.3083c0.82214,-0.61661 1.84982,-0.92491 2.8775,-0.92491m-1.33598,19.32036c2.36366,0 4.21348,-0.51384 5.4467,-1.64429c1.23321,-1.02768 1.84982,-2.36366 1.84982,-3.69964s-0.51384,-2.36366 -1.43875,-3.59687c-1.02768,-1.13045 -2.5692,-2.15812 -4.62455,-2.77473c-1.02768,2.8775 -1.95259,5.96054 -2.77473,9.35187c-0.20554,0.82214 -0.41107,1.54152 -0.61661,2.26089c0.82214,0 1.54152,0.10277 2.26089,0.10277m1.33598,-22.19786c-1.23321,0 -2.46643,0.3083 -3.59687,0.92491c-2.05536,-0.20554 -4.00795,-0.20554 -5.755,-0.20554l0,0c-5.24116,0.10277 -9.55741,1.54152 -12.64045,4.00795c-3.39134,2.67196 -5.03562,5.85777 -5.03562,9.24911s0.10277,1.64429 0.3083,2.36366c-2.26089,0.92491 -4.00795,2.46643 -5.34393,4.31625c-1.54152,2.36366 -2.36366,4.93286 -2.36366,7.60482s0.61661,4.41902 1.74705,6.47437c1.13045,2.15812 2.98027,3.90518 5.34393,5.24116c2.26089,1.23321 5.13839,1.95259 8.52973,2.15812l0,0s0,0 0,0l0.20554,0c3.28857,0 6.26884,-0.92491 8.6325,-2.77473c2.15812,-1.64429 3.90518,-3.80241 5.24116,-6.16607c0.82214,-1.43875 1.43875,-2.8775 2.05536,-4.31625c1.33598,0.3083 2.67196,0.41107 4.00795,0.41107c3.08304,0 5.755,-0.61661 8.11866,-1.84982c2.36366,-1.23321 4.21348,-2.98027 5.65223,-5.03562c1.43875,-2.15812 2.15812,-4.41902 2.15812,-6.78268s-1.13045,-5.65223 -3.39134,-8.11866c-1.84982,-2.05536 -4.41902,-3.59687 -7.81036,-4.83009c-0.41107,-0.71937 -1.02768,-1.43875 -1.84982,-1.84982l-0.20554,0c0,0 -0.20554,-0.20554 -0.20554,-0.20554c-1.23321,-0.41107 -2.5692,-0.61661 -3.69964,-0.61661l0,0l-0.10277,0zm0.20554,19.11482c0.41107,-1.54152 0.82214,-3.08304 1.33598,-4.52179c0.20554,0.20554 0.41107,0.41107 0.61661,0.61661c0.51384,0.61661 0.82214,1.13045 0.82214,1.64429s0,0.71937 -0.82214,1.43875c-0.51384,0.41107 -1.13045,0.61661 -1.84982,0.71937l0,0l-0.10277,0.10277z" class="cls-2"/>
    </g>
    <g stroke="null" id="svg_26">
     <path stroke="#ffffff" id="svg_27" fill="#fff" stroke-width="0px" d="m264.09277,40.59977c-0.71937,0 -1.54152,0 -2.26089,-0.3083c-2.15812,-0.51384 -3.69964,-1.54152 -4.62455,-2.77473c-0.92491,-1.23321 -1.33598,-2.67196 -1.33598,-4.21348s0,0 0,-0.10277c-1.02768,1.74705 -1.95259,3.1858 -2.8775,4.31625c-0.61661,0.61661 -1.33598,0.92491 -2.15812,0.92491s-1.74705,-0.3083 -2.5692,-0.82214c-1.23321,-0.82214 -1.43875,-1.84982 -1.43875,-2.5692s0.10277,-1.23321 0.82214,-1.95259c1.74705,-1.74705 3.1858,-3.80241 4.31625,-6.16607c0.92491,-2.05536 1.64429,-4.11071 2.15812,-6.16607c-0.51384,-0.41107 -0.92491,-0.92491 -1.23321,-1.64429c-0.51384,-1.02768 -0.71937,-2.05536 -0.71937,-3.08304s0.20554,-1.95259 0.71937,-2.67196c0.41107,-0.71937 1.23321,-1.54152 2.8775,-1.54152l0.20554,0c1.33598,0 2.36366,0.3083 3.1858,1.02768c0.71937,0.61661 1.23321,1.43875 1.54152,2.46643c0.10277,0.51384 0.20554,1.02768 0.3083,1.54152c0.71937,0.3083 1.43875,0.51384 2.26089,0.71937c1.23321,0.20554 2.26089,0.61661 3.1858,1.13045c1.23321,0.51384 2.15812,1.33598 2.67196,2.26089c0.51384,0.92491 0.71937,1.84982 0.71937,2.8775s-0.3083,2.8775 -0.92491,4.41902c-0.3083,0.92491 -0.51384,1.74705 -0.51384,2.36366s0,0 0,0c0,0 0.20554,-0.20554 0.3083,-0.41107c0.51384,-0.71937 1.02768,-1.64429 1.43875,-2.67196l0,0c0,0 0,-0.20554 0,-0.20554c0.61661,-1.02768 1.74705,-1.64429 2.98027,-1.64429s1.33598,0.20554 1.95259,0.61661c0.82214,0.51384 1.23321,1.33598 1.23321,2.26089s0,0.71937 -0.20554,1.13045c-0.71937,1.84982 -1.64429,3.59687 -2.67196,5.13839c-1.13045,1.64429 -2.36366,3.08304 -3.90518,4.21348c-1.64429,1.23321 -3.49411,1.84982 -5.54946,1.84982l0.10277,-0.3083z" class="cls-2"/>
     <path stroke="#ffffff" id="svg_28" fill="#fff" stroke-width="0px" d="m255.87135,13.16075c0.92491,0 1.64429,0.20554 2.15812,0.71937c0.51384,0.41107 0.82214,1.02768 1.02768,1.74705c0.20554,0.71937 0.3083,1.43875 0.3083,2.15812c1.02768,0.51384 2.15812,0.82214 3.28857,1.13045c1.13045,0.20554 2.05536,0.51384 2.77473,0.92491c1.02768,0.51384 1.74705,1.02768 2.05536,1.64429c0.41107,0.61661 0.61661,1.33598 0.61661,2.15812c0,1.23321 -0.3083,2.46643 -0.82214,3.80241c-0.41107,1.13045 -0.61661,2.15812 -0.61661,2.98027s0.20554,1.23321 0.71937,1.54152c0.20554,0 0.41107,0.10277 0.51384,0.10277c0.61661,0 1.13045,-0.41107 1.74705,-1.23321c0.61661,-0.82214 1.13045,-1.84982 1.64429,-2.98027c0.41107,-0.61661 0.92491,-0.92491 1.64429,-0.92491s0.82214,0.10277 1.23321,0.3083c0.41107,0.20554 0.61661,0.61661 0.61661,1.02768s0,0.41107 -0.10277,0.61661c-0.71937,1.74705 -1.54152,3.28857 -2.46643,4.83009c-1.02768,1.54152 -2.15812,2.77473 -3.49411,3.80241c-1.33598,1.02768 -2.8775,1.54152 -4.62455,1.54152s-1.23321,0 -1.95259,-0.20554c-1.84982,-0.51384 -3.08304,-1.23321 -3.80241,-2.15812c-0.71937,-1.02768 -1.02768,-2.15812 -1.02768,-3.39134s0.3083,-2.8775 0.82214,-4.41902c0.51384,-1.54152 1.13045,-2.98027 1.74705,-4.41902c0.3083,-0.71937 0.51384,-1.33598 0.82214,-1.95259c0,-0.20554 -0.20554,-0.41107 -0.51384,-0.51384c-0.20554,-0.10277 -0.51384,-0.20554 -0.82214,-0.3083c-0.10277,0 -0.3083,0 -0.41107,0c-0.61661,2.67196 -1.64429,5.54946 -3.08304,8.42696c-1.54152,2.8775 -2.8775,5.03562 -4.11071,6.47437c-0.3083,0.3083 -0.61661,0.41107 -1.13045,0.41107s-1.13045,-0.20554 -1.64429,-0.61661c-0.51384,-0.41107 -0.82214,-0.82214 -0.82214,-1.33598s0.10277,-0.61661 0.41107,-0.92491c1.84982,-1.84982 3.39134,-4.11071 4.52179,-6.57714c1.13045,-2.5692 1.95259,-5.03562 2.5692,-7.50205c-0.71937,-0.20554 -1.23321,-0.71937 -1.64429,-1.54152c-0.41107,-0.82214 -0.61661,-1.64429 -0.61661,-2.46643s0.20554,-1.33598 0.51384,-1.95259c0.3083,-0.51384 0.92491,-0.82214 1.64429,-0.92491l0.20554,0m0.10277,-2.98027l-0.3083,0c-1.74705,0 -3.1858,0.92491 -4.00795,2.26089c-0.61661,1.02768 -0.92491,2.15812 -0.92491,3.49411s0.3083,2.5692 0.92491,3.80241c0.3083,0.51384 0.61661,1.02768 0.92491,1.43875c-0.51384,1.64429 -1.13045,3.39134 -1.84982,5.03562c-1.02768,2.15812 -2.36366,4.11071 -3.90518,5.755l0,0s0,0 0,0c-1.02768,1.13045 -1.23321,2.15812 -1.23321,2.98027s0.3083,2.46643 2.05536,3.69964c1.02768,0.71937 2.15812,1.13045 3.39134,1.13045s2.36366,-0.51384 3.1858,-1.33598l0,0c0,0 0,-0.10277 0,-0.10277c0.3083,-0.41107 0.71937,-0.92491 1.13045,-1.43875c0.20554,0.51384 0.51384,0.92491 0.82214,1.43875c1.13045,1.54152 2.98027,2.67196 5.4467,3.28857c0.92491,0.20554 1.84982,0.3083 2.67196,0.3083c2.36366,0 4.52179,-0.71937 6.37161,-2.05536c1.64429,-1.23321 3.08304,-2.77473 4.21348,-4.62455c1.13045,-1.64429 2.05536,-3.49411 2.77473,-5.34393l0,0c0,0 0,-0.10277 0,-0.10277c0.20554,-0.51384 0.3083,-1.02768 0.3083,-1.64429c0,-1.43875 -0.71937,-2.77473 -1.95259,-3.49411c-0.82214,-0.51384 -1.74705,-0.82214 -2.77473,-0.82214s-1.33598,0.10277 -1.95259,0.41107c0,-0.3083 0,-0.51384 0,-0.82214c0,-1.33598 -0.3083,-2.46643 -0.92491,-3.59687c-0.71937,-1.13045 -1.74705,-2.15812 -3.28857,-2.8775c-1.02768,-0.51384 -2.15812,-0.92491 -3.49411,-1.23321c-0.41107,0 -0.82214,-0.20554 -1.23321,-0.3083c0,-0.3083 -0.10277,-0.51384 -0.20554,-0.82214c-0.3083,-1.23321 -1.02768,-2.26089 -1.95259,-3.1858c-1.02768,-0.92491 -2.46643,-1.43875 -4.11071,-1.43875l0,0l-0.10277,0.20554z" class="cls-2"/>
    </g>
    <g stroke="null" id="svg_29">
     <path stroke="#ffffff" id="svg_30" fill="#fff" stroke-width="0px" d="m275.29447,40.497c-1.54152,0 -2.8775,-0.71937 -4.11071,-1.74705c-1.13045,-1.02768 -1.95259,-2.36366 -2.46643,-4.00795c-0.10277,-0.61661 -0.20554,-1.23321 -0.20554,-1.84982c0,-1.23321 0.20554,-2.67196 0.71937,-4.21348c0.41107,-1.43875 0.92491,-2.8775 1.43875,-4.21348c0.41107,-1.02768 0.71937,-2.05536 1.02768,-2.98027c0.3083,-0.92491 0.41107,-1.54152 0.41107,-1.84982s0,-0.20554 0,-0.20554c-0.10277,-0.3083 -0.20554,-0.61661 -0.20554,-1.02768c0,-0.82214 0.41107,-1.54152 1.02768,-1.95259c0.61661,-0.3083 1.13045,-0.61661 1.84982,-0.92491c0,0 0,0 -0.10277,0c-1.23321,-1.02768 -1.84982,-2.46643 -1.84982,-4.11071s0.61661,-2.8775 1.74705,-4.00795c1.13045,-1.13045 2.5692,-1.64429 4.21348,-1.64429s3.08304,0.51384 4.21348,1.64429c1.13045,1.13045 1.74705,2.46643 1.74705,4.00795s-0.61661,2.98027 -1.74705,4.00795c-0.41107,0.41107 -0.82214,0.61661 -1.23321,0.92491c0.20554,0.20554 0.3083,0.3083 0.41107,0.51384c0.61661,0.92491 0.92491,1.95259 0.92491,3.1858s-0.20554,2.26089 -0.61661,3.49411c-0.3083,1.13045 -0.71937,2.26089 -1.13045,3.28857c-0.71937,1.74705 -0.92491,2.5692 -0.92491,3.08304c0.41107,-0.71937 0.82214,-1.54152 1.13045,-2.5692l0,0c0.3083,-0.71937 0.71937,-1.23321 1.23321,-1.54152c0.51384,-0.3083 1.13045,-0.41107 1.74705,-0.41107s1.33598,0.20554 1.95259,0.61661c0.82214,0.51384 1.23321,1.33598 1.23321,2.26089l0,0.20554l-0.20554,0.71937l0,0c-0.61661,1.84982 -1.43875,3.59687 -2.36366,5.13839c-1.02768,1.74705 -2.26089,3.1858 -3.80241,4.31625c-1.64429,1.23321 -3.49411,1.84982 -5.65223,1.84982l-0.41107,0z" class="cls-2"/>
     <path stroke="#ffffff" id="svg_31" fill="#fff" stroke-width="0px" d="m278.68581,7.30299c1.23321,0 2.36366,0.41107 3.1858,1.23321c0.82214,0.82214 1.33598,1.84982 1.33598,2.98027s-0.41107,2.15812 -1.33598,2.98027c-0.82214,0.82214 -1.95259,1.23321 -3.1858,1.23321s-2.26089,-0.41107 -3.1858,-1.23321c-0.92491,-0.82214 -1.33598,-1.74705 -1.33598,-2.98027s0.41107,-2.15812 1.33598,-2.98027c0.92491,-0.82214 1.95259,-1.23321 3.1858,-1.23321m-0.92491,9.14634c0.20554,0 0.51384,0 0.71937,0c1.13045,0.20554 1.84982,0.71937 2.26089,1.33598c0.41107,0.61661 0.61661,1.43875 0.61661,2.36366s-0.20554,1.95259 -0.51384,3.08304c-0.3083,1.13045 -0.71937,2.15812 -1.13045,3.28857c-0.71937,1.64429 -1.13045,2.98027 -1.13045,3.80241l0,0.20554c0.10277,0.71937 0.41107,1.13045 0.71937,1.43875c0.20554,0 0.41107,0.10277 0.51384,0.10277c0.51384,0 1.02768,-0.41107 1.43875,-1.23321c0.51384,-0.82214 0.92491,-1.74705 1.23321,-2.8775c0.10277,-0.3083 0.41107,-0.61661 0.61661,-0.71937c0.3083,-0.20554 0.61661,-0.20554 0.92491,-0.20554s0.82214,0.10277 1.23321,0.3083c0.41107,0.20554 0.61661,0.61661 0.61661,1.02768l0,0.51384c-0.71937,1.64429 -1.43875,3.28857 -2.36366,4.83009c-0.92491,1.54152 -2.05536,2.77473 -3.39134,3.80241c-1.33598,1.02768 -2.98027,1.54152 -4.72732,1.54152l-0.41107,0c-1.13045,0 -2.15812,-0.51384 -3.08304,-1.33598c-0.92491,-0.82214 -1.64429,-1.95259 -2.05536,-3.28857c-0.10277,-0.41107 -0.20554,-0.92491 -0.20554,-1.43875c0,-1.13045 0.20554,-2.36366 0.61661,-3.80241c0.41107,-1.43875 0.92491,-2.77473 1.33598,-4.11071c0.41107,-1.13045 0.71937,-2.15812 1.02768,-2.98027c0.3083,-0.92491 0.41107,-1.64429 0.41107,-2.26089s0,-0.61661 -0.20554,-0.82214c0,-0.10277 -0.10277,-0.3083 -0.10277,-0.41107c0,-0.3083 0.10277,-0.51384 0.41107,-0.71937c0.51384,-0.3083 1.13045,-0.61661 1.95259,-0.92491c0.71937,-0.3083 1.43875,-0.41107 2.26089,-0.41107m1.33598,-12.22937c-1.95259,0 -3.80241,0.71937 -5.13839,2.05536c-1.43875,1.33598 -2.26089,3.1858 -2.26089,5.13839s0.3083,2.5692 1.02768,3.69964c0,0 -0.10277,0 -0.20554,0.10277l0,0s0,0 0,0c-1.13045,0.71937 -1.74705,1.95259 -1.74705,3.1858s0,0.92491 0.3083,1.33598c0,0.20554 0,0.61661 -0.3083,1.23321c-0.3083,0.92491 -0.61661,1.84982 -1.02768,2.8775c-0.51384,1.33598 -1.02768,2.77473 -1.43875,4.21348c-0.51384,1.64429 -0.71937,3.1858 -0.71937,4.62455s0,1.43875 0.20554,2.15812l0,0c0,0 0,0.10277 0,0.10277c0.51384,1.95259 1.54152,3.49411 2.8775,4.72732c1.43875,1.23321 3.08304,1.95259 4.93286,2.05536l0,0s0,0 0,0l0.41107,0c2.46643,0 4.62455,-0.71937 6.47437,-2.15812c1.64429,-1.23321 3.08304,-2.8775 4.21348,-4.72732c1.02768,-1.74705 1.84982,-3.49411 2.46643,-5.34393l0,-0.20554c0,0 0,-0.20554 0,-0.20554l0,-0.51384c0.10277,0 0.20554,-0.3083 0.20554,-0.3083l0,-0.3083c0,-1.43875 -0.71937,-2.77473 -1.95259,-3.49411c-0.82214,-0.51384 -1.74705,-0.82214 -2.77473,-0.82214s-0.41107,0 -0.61661,0c0.41107,-1.33598 0.61661,-2.67196 0.61661,-3.90518s-0.3083,-2.36366 -0.82214,-3.28857c0,0 0.10277,-0.10277 0.20554,-0.20554c1.43875,-1.33598 2.26089,-3.1858 2.26089,-5.13839s-0.71937,-3.69964 -2.26089,-5.13839c-1.43875,-1.33598 -3.1858,-2.05536 -5.24116,-2.05536l0,0l0.3083,0.3083z" class="cls-2"/>
    </g>
    <g stroke="null" id="svg_32">
     <path stroke="#ffffff" id="svg_33" fill="#fff" stroke-width="0px" d="m284.44081,40.39423c-0.71937,0 -1.43875,-0.3083 -2.05536,-0.92491c-0.92491,-0.82214 -1.02768,-1.64429 -1.02768,-2.15812s0.10277,-0.82214 0.41107,-1.23321l7.19375,-10.48232c-0.82214,0 -1.54152,-0.20554 -2.36366,-0.3083c-1.74705,-0.3083 -2.98027,-0.82214 -3.90518,-1.43875l0,0c0,0 0,-0.10277 0,-0.10277c-1.23321,-1.23321 -1.84982,-2.5692 -1.84982,-4.11071s0.51384,-3.08304 1.54152,-4.52179c0.92491,-1.33598 1.84982,-2.36366 2.67196,-3.08304c0.41107,-0.41107 1.02768,-0.61661 1.64429,-0.61661s0.82214,0.10277 1.23321,0.3083c0.3083,0.20554 0.71937,0.51384 0.92491,1.13045c0.61661,1.23321 1.54152,1.95259 2.8775,2.36366c1.54152,0.51384 2.98027,0.82214 4.41902,0.92491c0.3083,-0.20554 0.71937,-0.41107 1.13045,-0.61661c0.61661,-0.20554 1.23321,-0.3083 1.95259,-0.3083s1.43875,0.10277 2.05536,0.41107c1.33598,0.61661 1.54152,1.64429 1.54152,2.15812s-0.10277,0.82214 -0.3083,1.23321l-1.23321,2.46643c-1.33598,2.46643 -2.67196,5.03562 -3.90518,7.60482c0.61661,0 1.23321,0.20554 1.84982,0.41107c0.10277,0 0.3083,0 0.51384,0.10277l0.10277,0c0,0 0.20554,-0.10277 0.3083,-0.3083c0.41107,-0.51384 0.71937,-1.13045 0.92491,-1.95259l0,0c0,-0.10277 0,-0.3083 0,-0.3083c0.61661,-1.02768 1.64429,-1.64429 2.8775,-1.64429s1.43875,0.20554 2.05536,0.61661c0.71937,0.51384 1.13045,1.33598 1.13045,2.15812s0,0.71937 -0.20554,1.13045c-0.82214,2.26089 -1.84982,4.31625 -3.08304,6.0633c-1.33598,1.95259 -2.8775,3.39134 -4.52179,4.31625l0,0s0,0 0,0c-0.71937,0.3083 -1.54152,0.41107 -2.36366,0.41107s-1.64429,-0.10277 -2.67196,-0.3083c-1.02768,-0.20554 -2.26089,-0.41107 -3.80241,-0.41107s-3.08304,0.20554 -5.13839,0.71937l-0.20554,0s-0.3083,0 -0.3083,0l-0.41107,0.3083z" class="cls-2"/>
     <path stroke="#ffffff" id="svg_34" fill="#fff" stroke-width="0px" d="m286.49616,12.74968c0.20554,0 0.3083,0 0.51384,0.10277c0.10277,0 0.20554,0.20554 0.3083,0.41107c0.82214,1.64429 2.05536,2.67196 3.80241,3.1858c1.74705,0.51384 3.39134,0.92491 5.03562,1.02768c0.10277,0 0.20554,0 0.3083,0c0.3083,-0.3083 0.61661,-0.61661 1.13045,-0.71937c0.51384,-0.20554 0.92491,-0.20554 1.43875,-0.20554s1.02768,0 1.43875,0.3083c0.41107,0.20554 0.61661,0.41107 0.61661,0.82214s0,0.3083 -0.20554,0.51384c-0.41107,0.82214 -0.82214,1.64429 -1.33598,2.46643c-1.84982,3.39134 -3.49411,6.78268 -5.24116,10.27678c0.92491,-0.3083 1.74705,-0.51384 2.36366,-0.51384s1.13045,0 1.54152,0.3083c0.20554,0 0.41107,0.10277 0.71937,0.20554l0.41107,0c0.61661,0 1.13045,-0.3083 1.64429,-0.92491c0.41107,-0.61661 0.82214,-1.33598 1.13045,-2.26089c0.41107,-0.61661 0.92491,-0.92491 1.64429,-0.92491s0.82214,0.10277 1.23321,0.41107c0.41107,0.20554 0.51384,0.61661 0.51384,1.02768s0,0.41107 -0.10277,0.61661c-0.82214,2.15812 -1.74705,4.00795 -2.98027,5.755c-1.13045,1.74705 -2.46643,2.98027 -4.00795,3.80241c-0.61661,0.20554 -1.13045,0.3083 -1.74705,0.3083s-1.43875,0 -2.26089,-0.3083c-1.13045,-0.3083 -2.46643,-0.41107 -4.21348,-0.41107s-3.39134,0.3083 -5.54946,0.82214l-0.20554,0c-0.41107,0 -0.71937,-0.20554 -1.13045,-0.51384c-0.41107,-0.3083 -0.61661,-0.71937 -0.61661,-1.02768s0,-0.20554 0.10277,-0.3083l8.6325,-12.64045c-1.64429,0 -3.1858,-0.20554 -4.72732,-0.51384c-1.54152,-0.3083 -2.5692,-0.71937 -3.28857,-1.23321c-0.92491,-0.92491 -1.43875,-1.95259 -1.43875,-3.08304s0.41107,-2.46643 1.23321,-3.69964c0.82214,-1.23321 1.64429,-2.15812 2.46643,-2.77473c0.20554,-0.20554 0.41107,-0.20554 0.61661,-0.20554m0.20554,-2.98027c-0.92491,0 -1.84982,0.3083 -2.5692,1.02768c-1.02768,0.82214 -1.95259,1.95259 -2.8775,3.39134c-1.13045,1.74705 -1.74705,3.49411 -1.74705,5.4467s0.41107,3.28857 2.26089,5.13839l0.10277,0c0,0.10277 0.10277,0.20554 0.10277,0.20554c1.02768,0.82214 2.46643,1.33598 4.52179,1.74705c0,0 0,0 0,0l-5.85777,8.52973c-0.41107,0.61661 -0.61661,1.33598 -0.61661,2.05536s0.3083,2.15812 1.54152,3.28857c1.13045,1.02768 2.26089,1.23321 3.08304,1.23321l0.82214,0c1.95259,-0.51384 3.49411,-0.82214 4.83009,-0.82214s2.5692,0.10277 3.49411,0.3083c1.02768,0.20554 2.05536,0.41107 2.98027,0.41107s1.95259,-0.20554 2.8775,-0.61661l0.10277,0c0,0 0.10277,-0.10277 0.10277,-0.10277c1.95259,-1.02768 3.69964,-2.67196 5.13839,-4.83009c1.33598,-1.95259 2.36366,-4.11071 3.28857,-6.37161l0,0s0,0 0,0c0.20554,-0.51384 0.3083,-1.02768 0.3083,-1.64429c0,-1.33598 -0.61661,-2.5692 -1.84982,-3.39134c-0.82214,-0.61661 -1.84982,-0.92491 -2.8775,-0.92491s-2.26089,0.41107 -3.1858,1.13045c0.51384,-1.02768 1.02768,-2.05536 1.54152,-2.98027l1.02768,-2.05536l0.20554,-0.41107c0.3083,-0.61661 0.51384,-1.23321 0.51384,-1.95259c0,-1.54152 -0.92491,-2.77473 -2.36366,-3.49411c-0.82214,-0.3083 -1.64429,-0.51384 -2.67196,-0.51384s-1.64429,0.10277 -2.36366,0.41107c-0.3083,0.10277 -0.71937,0.3083 -0.92491,0.41107c-1.13045,-0.20554 -2.36366,-0.41107 -3.59687,-0.82214c-0.92491,-0.3083 -1.54152,-0.82214 -1.95259,-1.64429c-0.3083,-0.71937 -0.82214,-1.33598 -1.54152,-1.74705c-0.61661,-0.3083 -1.33598,-0.51384 -1.95259,-0.51384l0,0l0.10277,0.10277z" class="cls-2"/>
    </g>
    <g stroke="null" id="svg_35">
     <path stroke="#ffffff" id="svg_36" fill="#fff" stroke-width="0px" d="m311.16045,40.80531c-2.5692,0 -4.72732,-0.51384 -6.37161,-1.43875c-1.64429,-0.92491 -2.98027,-2.26089 -3.80241,-3.80241c-0.82214,-1.54152 -1.23321,-3.28857 -1.23321,-5.03562c0,-3.28857 1.23321,-6.47437 3.59687,-9.45464c2.46643,-2.98027 5.85777,-4.83009 10.07125,-5.24116c0,0 1.23321,0 1.23321,0c1.95259,0 3.59687,0.41107 4.83009,1.02768c1.23321,0.71937 2.15812,1.74705 2.77473,2.8775c0.51384,1.13045 0.82214,2.36366 0.82214,3.69964s0,1.54152 -0.20554,2.26089c0.41107,-0.20554 0.92491,-0.20554 1.23321,-0.20554c0.71937,0 1.43875,0.20554 2.05536,0.61661c0.82214,0.51384 1.23321,1.33598 1.23321,2.26089s0,0.71937 -0.20554,1.02768c-2.67196,7.39929 -8.01589,11.2017 -15.62071,11.40723l0,0s-0.3083,0 -0.3083,0l-0.10277,0z" class="cls-2"/>
     <path stroke="#ffffff" id="svg_37" fill="#fff" stroke-width="0px" d="m314.65456,17.1687c1.64429,0 2.98027,0.3083 4.00795,0.92491c1.02768,0.61661 1.74705,1.33598 2.15812,2.26089c0.41107,0.92491 0.71937,1.95259 0.71937,3.08304s-0.3083,2.8775 -0.92491,4.31625c-0.61661,1.43875 -1.43875,2.67196 -2.5692,3.59687c-1.02768,0.92491 -2.26089,1.43875 -3.39134,1.43875s-2.36366,-0.61661 -3.59687,-1.74705l0,0.3083c0,0.82214 0.3083,1.54152 0.92491,2.15812c0.61661,0.61661 1.43875,0.92491 2.36366,0.92491l0.41107,0c3.59687,-0.61661 6.16607,-2.77473 7.50205,-6.47437c0.41107,-0.61661 1.02768,-0.92491 1.64429,-0.92491s0.92491,0.10277 1.23321,0.41107c0.41107,0.20554 0.61661,0.61661 0.61661,1.02768s0,0.3083 -0.10277,0.51384c-2.46643,6.78268 -7.29652,10.27678 -14.28473,10.37955l-0.3083,0c-2.26089,0 -4.21348,-0.41107 -5.65223,-1.23321c-1.43875,-0.82214 -2.46643,-1.95259 -3.1858,-3.28857c-0.71937,-1.33598 -1.02768,-2.77473 -1.02768,-4.41902c0,-2.98027 1.13045,-5.755 3.28857,-8.52973c2.15812,-2.67196 5.24116,-4.31625 9.04357,-4.72732l1.13045,0m-1.74705,9.35187c0.71937,0 1.54152,-0.41107 2.36366,-1.33598c0.82214,-0.92491 1.23321,-1.84982 1.23321,-2.77473s-0.41107,-1.43875 -1.23321,-1.84982l-0.10277,0c-0.20554,0 -0.61661,0.41107 -1.13045,1.13045c-0.51384,0.82214 -0.92491,1.64429 -1.23321,2.46643c-0.41107,0.92491 -0.61661,1.54152 -0.71937,2.05536c0.20554,0.20554 0.51384,0.20554 0.82214,0.20554m1.74705,-12.22937l-0.10277,0s-1.13045,0 -1.13045,0l0,0s0,0 0,0c-4.62455,0.51384 -8.3242,2.46643 -10.99616,5.85777c-2.5692,3.28857 -3.90518,6.67991 -3.90518,10.37955s0.51384,4.00795 1.43875,5.755c0.92491,1.84982 2.46643,3.28857 4.41902,4.41902c1.84982,1.02768 4.31625,1.64429 7.09098,1.64429l0.41107,0c8.22143,-0.20554 14.0792,-4.41902 16.9567,-12.33214c0.20554,-0.51384 0.3083,-1.02768 0.3083,-1.54152c0,-1.43875 -0.71937,-2.67196 -1.84982,-3.49411c-0.71937,-0.51384 -1.54152,-0.82214 -2.46643,-0.82214c0,-0.20554 0,-0.41107 0,-0.61661c0,-1.54152 -0.3083,-2.98027 -0.92491,-4.31625c-0.71937,-1.43875 -1.84982,-2.67196 -3.39134,-3.59687c-1.43875,-0.82214 -3.28857,-1.23321 -5.4467,-1.23321l0,0l-0.41107,-0.10277z" class="cls-2"/>
    </g>
    <g stroke="null" id="svg_38">
     <path stroke="#ffffff" id="svg_39" fill="#fff" stroke-width="0px" d="m331.30295,40.59977c-2.5692,0 -5.03562,-0.71937 -7.09098,-2.26089c-2.26089,-1.54152 -3.49411,-4.00795 -3.80241,-7.09098l0,0l0,-0.71937c0,-1.54152 0.3083,-3.1858 0.92491,-4.72732c0.61661,-1.54152 1.54152,-2.8775 2.67196,-4.00795c1.23321,-1.13045 2.77473,-1.74705 4.52179,-1.74705s0.10277,0 0.20554,0c0.20554,-0.20554 1.33598,-1.74705 1.43875,-1.84982c0.10277,-1.43875 0.82214,-2.67196 1.95259,-3.39134c1.13045,-0.82214 2.26089,-1.23321 3.39134,-1.23321s1.33598,0.20554 1.95259,0.51384c0.71937,0.51384 1.13045,1.23321 1.13045,2.05536s-0.20554,1.23321 -0.51384,1.84982c0,0.20554 0.20554,0.92491 0.92491,2.36366l0.20554,0.41107c0.3083,0.71937 0.71937,1.43875 1.02768,2.05536c0.61661,1.13045 1.23321,2.26089 1.74705,3.49411c0.51384,1.33598 0.82214,2.77473 0.82214,4.21348s0,0.82214 0,1.23321l0,0c-0.51384,2.98027 -1.95259,5.13839 -4.21348,6.67991c-2.15812,1.43875 -4.62455,2.15812 -7.09098,2.15812l-0.20554,0zm0.92491,-11.92107s-0.10277,0 -0.20554,0.20554c0,0 -0.20554,0.20554 -0.20554,0.51384c0,0.61661 0.20554,0.82214 0.3083,0.82214c0.3083,0.20554 0.51384,0.3083 0.82214,0.3083s0.51384,0 0.92491,-0.41107c0.3083,-0.3083 0.41107,-0.92491 0.41107,-1.33598s0,-0.3083 0,-0.41107c-0.10277,0 -0.20554,0.10277 -0.3083,0.20554l-0.10277,0c0,0 -0.10277,0 -0.10277,0c-0.20554,0 -0.51384,0 -0.71937,0s-0.41107,0 -0.61661,0l-0.20554,0.10277z" class="cls-2"/>
     <path stroke="#ffffff" id="svg_40" fill="#fff" stroke-width="0px" d="m335.41366,15.01058c0.41107,0 0.82214,0 1.13045,0.3083c0.3083,0.20554 0.41107,0.51384 0.41107,0.82214s-0.10277,0.71937 -0.41107,1.13045c-0.10277,0.20554 -0.20554,0.41107 -0.20554,0.61661c0,0.71937 0.41107,1.74705 1.13045,3.08304c0,0.10277 0.10277,0.3083 0.20554,0.41107c0.3083,0.71937 0.61661,1.33598 1.02768,2.05536c0.61661,1.13045 1.13045,2.26089 1.64429,3.39134c0.51384,1.13045 0.71937,2.36366 0.71937,3.59687s0,0.71937 0,1.13045c-0.41107,2.46643 -1.64429,4.31625 -3.59687,5.54946c-1.95259,1.23321 -4.00795,1.84982 -6.37161,1.84982s-4.41902,-0.61661 -6.26884,-1.95259c-1.84982,-1.33598 -2.8775,-3.39134 -3.1858,-6.0633l0,-0.61661c0,-1.43875 0.3083,-2.77473 0.82214,-4.21348c0.51384,-1.33598 1.33598,-2.46643 2.26089,-3.39134c1.02768,-0.92491 2.15812,-1.33598 3.49411,-1.33598s0.61661,0 0.82214,0c0,0 0.10277,-0.10277 0.3083,-0.41107c0.20554,-0.3083 0.41107,-0.61661 0.71937,-0.92491c0.3083,-0.3083 0.51384,-0.71937 0.71937,-0.92491c0.20554,-0.3083 0.41107,-0.51384 0.41107,-0.61661c0,-1.23321 0.41107,-2.15812 1.33598,-2.77473c0.92491,-0.61661 1.74705,-0.92491 2.5692,-0.92491m-2.15812,12.43491c-0.10277,0 -0.20554,0 -0.41107,0l-0.3083,0c-0.41107,0 -0.82214,0.10277 -1.23321,0.51384c-0.41107,0.41107 -0.71937,0.92491 -0.71937,1.54152l0,0c0,0.92491 0.3083,1.64429 0.82214,2.05536c0.51384,0.41107 1.13045,0.71937 1.74705,0.71937s1.33598,-0.3083 1.95259,-0.82214c0.61661,-0.51384 0.92491,-1.33598 0.92491,-2.46643s-0.20554,-1.74705 -0.61661,-2.77473c-0.41107,-1.13045 -1.13045,-2.36366 -2.15812,-3.69964l-0.51384,0.82214c0.92491,0.82214 1.43875,1.84982 1.43875,2.77473s0,0.51384 -0.10277,0.71937c-0.10277,0.3083 -0.3083,0.41107 -0.51384,0.51384c-0.10277,0 -0.3083,0 -0.41107,0m2.5692,-15.10687c-1.43875,0 -2.8775,0.51384 -4.31625,1.43875c-1.33598,0.92491 -2.26089,2.36366 -2.46643,4.11071c-0.20554,0.20554 -0.41107,0.51384 -0.61661,0.82214c0,0 0,0 -0.10277,0.10277c-1.84982,0.10277 -3.59687,0.82214 -4.93286,2.15812c-1.33598,1.23321 -2.36366,2.77473 -3.08304,4.52179c-0.71937,1.74705 -1.02768,3.49411 -1.02768,5.24116l0,0.61661l0,0c0,0.10277 0,0.3083 0,0.3083c0.3083,3.59687 1.84982,6.37161 4.41902,8.22143c2.36366,1.64429 5.03562,2.5692 8.01589,2.5692s5.54946,-0.82214 7.91312,-2.36366c2.67196,-1.74705 4.31625,-4.21348 4.83009,-7.50205l0,0c0,-0.10277 0,-0.20554 0,-0.20554c0,-0.51384 0,-0.92491 0,-1.43875c0,-1.64429 -0.3083,-3.1858 -0.92491,-4.72732c-0.51384,-1.23321 -1.13045,-2.46643 -1.74705,-3.69964c-0.3083,-0.71937 -0.61661,-1.33598 -1.02768,-1.95259l0,0c0,0 0,-0.10277 0,-0.10277l0,-0.20554c-0.10277,0 -0.20554,-0.10277 -0.20554,-0.10277c-0.41107,-0.71937 -0.61661,-1.23321 -0.71937,-1.43875c0.3083,-0.71937 0.41107,-1.33598 0.41107,-2.05536c0,-1.33598 -0.61661,-2.5692 -1.74705,-3.28857c-0.82214,-0.51384 -1.74705,-0.82214 -2.77473,-0.82214l0,0l0.10277,-0.20554z" class="cls-2"/>
    </g>
   </g>
   <g stroke="null" id="svg_41">
    <path stroke="#ffffff" id="svg_42" stroke-width="0px" fill="#ef412c" d="m40.55689,41.31915c-1.54152,0 -2.77473,-0.41107 -3.80241,-1.33598c-1.02768,-1.13045 -1.54152,-2.77473 -1.54152,-4.83009s0.20554,-3.1858 0.61661,-4.93286c0.41107,-1.74705 1.02768,-3.59687 1.64429,-5.4467l-1.95259,-2.77473c-0.51384,0.92491 -0.92491,1.95259 -1.43875,2.98027c-1.43875,3.49411 -3.1858,6.67991 -5.13839,9.55741c-1.95259,2.8775 -4.62455,4.83009 -7.91312,5.755c-1.54152,0.3083 -2.8775,0.51384 -4.21348,0.51384c-2.67196,0 -4.83009,-0.51384 -6.67991,-1.64429c-1.84982,-1.13045 -3.1858,-2.5692 -4.11071,-4.31625c-0.92491,-1.74705 -1.43875,-3.59687 -1.43875,-5.4467s0.61661,-3.90518 1.84982,-5.755c1.23321,-1.74705 3.08304,-2.98027 5.65223,-3.69964l0.20554,0c0.3083,0 0.51384,0 0.71937,0.20554c0.20554,0.20554 0.3083,0.41107 0.3083,0.61661l0,0.20554c-0.20554,0.61661 -0.3083,1.23321 -0.3083,1.95259c0,1.23321 0.3083,2.36366 1.02768,3.28857c0.71937,0.92491 1.64429,1.43875 2.8775,1.43875s1.64429,-0.20554 2.67196,-0.71937c1.33598,-0.71937 2.77473,-1.84982 4.11071,-3.28857c1.43875,-1.43875 2.8775,-2.98027 4.31625,-4.72732c0.92491,-1.02768 1.84982,-2.15812 2.8775,-3.1858c-0.71937,-0.82214 -1.43875,-1.43875 -2.05536,-1.95259c-0.71937,-0.51384 -1.23321,-0.82214 -1.84982,-0.82214s-0.51384,0 -0.82214,0.3083c-0.3083,0.3083 -0.51384,0.61661 -0.51384,1.02768s0.20554,0.82214 0.51384,1.33598c0.3083,0.41107 0.71937,0.82214 1.23321,1.02768c0.3083,0.20554 0.51384,0.51384 0.51384,0.82214s0,0.41107 -0.3083,0.61661c-1.33598,1.02768 -2.8775,1.54152 -4.41902,1.54152s-3.49411,-0.51384 -5.24116,-1.43875c-1.43875,-0.82214 -2.46643,-1.84982 -3.1858,-2.98027c-0.71937,-1.13045 -1.02768,-2.36366 -1.02768,-3.59687c0,-1.95259 0.71937,-3.80241 2.26089,-5.34393c1.43875,-1.64429 3.39134,-2.36366 5.65223,-2.36366s1.43875,0 2.15812,0.20554c2.26089,0.61661 4.21348,1.64429 5.85777,3.1858c1.64429,1.54152 3.08304,3.28857 4.31625,5.34393c2.05536,-2.05536 4.21348,-3.69964 6.57714,-5.03562c2.36366,-1.33598 4.93286,-2.05536 7.70759,-2.05536l1.33598,0c0.20554,0 0.41107,0.20554 0.61661,0.3083c0.10277,0.10277 0.20554,0.3083 0.20554,0.51384l0,0.3083c-2.26089,6.67991 -3.69964,12.02384 -4.62455,16.03178c-0.92491,4.00795 -1.33598,7.09098 -1.33598,9.24911s0.20554,3.28857 0.71937,4.11071c0.51384,0.92491 1.02768,1.54152 1.74705,1.95259c0.20554,0.20554 0.41107,0.41107 0.41107,0.71937s-0.10277,0.51384 -0.41107,0.71937c-1.95259,1.33598 -4.11071,2.05536 -6.37161,2.05536l0,-0.20554zm-1.43875,-20.75911c1.64429,-3.80241 2.98027,-6.47437 3.90518,-8.01589c-2.26089,1.02768 -4.11071,2.98027 -5.54946,5.65223l1.64429,2.36366z" class="cls-1"/>
    <path stroke="#ffffff" id="svg_43" stroke-width="0px" fill="#ef412c" d="m63.98796,39.05825l-0.41107,0c-0.92491,0 -1.95259,-0.41107 -2.77473,-1.13045c-0.92491,-0.71937 -1.54152,-1.64429 -2.05536,-2.77473c-2.15812,2.46643 -4.11071,3.69964 -5.85777,3.69964l-0.41107,0c-2.26089,-0.3083 -3.80241,-1.13045 -4.62455,-2.26089c-0.82214,-1.13045 -1.33598,-2.46643 -1.33598,-4.00795s0.20554,-3.08304 0.71937,-4.72732c0.51384,-1.64429 1.02768,-3.1858 1.54152,-4.52179c0.82214,-1.95259 1.23321,-3.28857 1.23321,-4.11071s0,-0.3083 -0.10277,-0.41107l0,-0.41107c0,-0.3083 0,-0.51384 0.41107,-0.71937c0.92491,-0.61661 2.15812,-0.82214 3.49411,-0.82214s1.02768,0 1.43875,0.10277c1.13045,0.20554 1.95259,0.61661 2.36366,1.23321c0.41107,0.61661 0.71937,1.33598 0.71937,2.26089s-0.20554,1.84982 -0.51384,2.8775c-0.3083,1.02768 -0.71937,2.05536 -1.02768,3.08304c-0.71937,1.64429 -1.13045,2.98027 -1.13045,4.00795l0,0.20554c0,0.51384 0.20554,0.92491 0.51384,1.13045c0.3083,0.3083 0.61661,0.41107 0.92491,0.41107s0.51384,0 0.71937,-0.20554c0.20554,-0.20554 0.61661,-1.02768 1.23321,-2.46643c0.61661,-1.43875 1.23321,-3.08304 1.74705,-4.93286c0.51384,-1.84982 0.82214,-3.28857 0.82214,-4.52179s0,-0.71937 -0.20554,-0.92491l0,-0.3083c0,-0.3083 0.10277,-0.51384 0.51384,-0.71937c0.92491,-0.41107 1.84982,-0.51384 2.77473,-0.51384s2.36366,0.3083 3.39134,0.92491c1.02768,0.61661 1.54152,1.54152 1.54152,2.8775s0,0.61661 -0.10277,0.92491c-0.3083,1.43875 -0.82214,2.98027 -1.43875,4.41902c-0.71937,1.64429 -1.13045,2.8775 -1.13045,3.80241l0,0.20554c0.10277,0.71937 0.41107,1.13045 0.82214,1.43875c0.20554,0 0.41107,0.10277 0.61661,0.10277c0.61661,0 1.23321,-0.51384 1.74705,-1.43875c0.61661,-0.92491 1.13045,-2.15812 1.54152,-3.59687c-0.41107,-0.92491 -0.61661,-1.95259 -0.61661,-3.08304s0.3083,-2.98027 0.92491,-4.52179c0.61661,-1.54152 1.54152,-2.5692 2.77473,-3.08304c0.3083,0 0.51384,-0.10277 0.71937,-0.10277c0.71937,0 1.33598,0.41107 1.64429,1.13045c0.3083,0.71937 0.51384,1.64429 0.51384,2.67196c0,1.95259 -0.41107,3.90518 -1.23321,5.85777c0.20554,0 0.51384,0 0.71937,0c0.51384,0 0.92491,-0.20554 1.23321,-0.71937c0.3083,-0.41107 0.61661,-1.02768 0.71937,-1.54152c0.3083,-0.61661 0.82214,-0.92491 1.43875,-0.92491l0.41107,0c0.51384,0 0.92491,0.20554 1.23321,0.61661c0.20554,0.20554 0.3083,0.51384 0.3083,0.71937s0,0.3083 -0.20554,0.51384c-0.51384,1.33598 -1.33598,2.46643 -2.46643,3.39134c-1.13045,0.92491 -2.5692,1.33598 -4.31625,1.33598l-0.3083,0c-0.61661,1.74705 -1.33598,3.39134 -2.36366,4.83009c-1.02768,1.43875 -2.26089,2.67196 -3.69964,3.49411c-1.43875,0.92491 -3.28857,1.33598 -5.4467,1.33598l0.3083,-0.10277z" class="cls-1"/>
    <path stroke="#ffffff" id="svg_44" stroke-width="0px" fill="#ef412c" d="m87.41903,39.26379l-0.3083,0c-2.26089,0 -4.21348,-0.41107 -5.65223,-1.23321c-1.43875,-0.82214 -2.46643,-1.95259 -3.1858,-3.28857c-0.71937,-1.33598 -1.02768,-2.77473 -1.02768,-4.41902c0,-2.98027 1.13045,-5.755 3.28857,-8.52973c2.15812,-2.67196 5.24116,-4.31625 9.04357,-4.72732l1.13045,0c1.64429,0 2.98027,0.20554 4.00795,0.82214c1.02768,0.61661 1.74705,1.33598 2.15812,2.26089c0.41107,0.92491 0.71937,1.95259 0.71937,3.08304s-0.3083,2.8775 -0.92491,4.31625c-0.61661,1.43875 -1.43875,2.67196 -2.5692,3.59687c-1.02768,0.92491 -2.26089,1.43875 -3.39134,1.43875s-2.36366,-0.61661 -3.59687,-1.74705l0,0.3083c0,0.82214 0.3083,1.54152 0.92491,2.15812c0.61661,0.61661 1.43875,0.92491 2.36366,0.92491l0.41107,0c3.59687,-0.61661 6.16607,-2.77473 7.50205,-6.47437c0.41107,-0.61661 1.02768,-0.92491 1.64429,-0.92491s0.92491,0.10277 1.23321,0.41107c0.41107,0.20554 0.61661,0.61661 0.61661,1.02768s0,0.3083 -0.10277,0.51384c-2.46643,6.78268 -7.29652,10.27678 -14.28473,10.37955l0,0.10277zm1.54152,-12.74321c0.71937,0 1.54152,-0.41107 2.36366,-1.33598c0.82214,-0.92491 1.23321,-1.84982 1.23321,-2.77473s-0.41107,-1.43875 -1.23321,-1.84982l-0.10277,0c-0.20554,0 -0.61661,0.41107 -1.13045,1.13045c-0.51384,0.82214 -0.92491,1.64429 -1.23321,2.46643c-0.41107,0.92491 -0.61661,1.54152 -0.71937,2.05536c0.20554,0.20554 0.51384,0.20554 0.82214,0.20554l0,0.10277z" class="cls-1"/>
    <path stroke="#ffffff" id="svg_45" stroke-width="0px" fill="#ef412c" d="m107.25323,39.05825c-2.26089,0 -4.41902,-0.61661 -6.26884,-1.95259c-1.84982,-1.33598 -2.8775,-3.39134 -3.1858,-6.0633l0,-0.61661c0,-1.43875 0.3083,-2.77473 0.82214,-4.21348c0.51384,-1.33598 1.33598,-2.46643 2.26089,-3.39134c1.02768,-0.92491 2.15812,-1.33598 3.49411,-1.33598s0.61661,0 0.82214,0c0,0 0.10277,-0.10277 0.3083,-0.41107c0.20554,-0.3083 0.41107,-0.61661 0.71937,-0.92491c0.3083,-0.3083 0.51384,-0.71937 0.71937,-0.92491c0.20554,-0.3083 0.41107,-0.51384 0.41107,-0.61661c0,-1.23321 0.41107,-2.15812 1.33598,-2.77473c0.92491,-0.61661 1.74705,-0.92491 2.5692,-0.92491s0.82214,0 1.13045,0.3083c0.3083,0.20554 0.41107,0.51384 0.41107,0.82214s-0.10277,0.71937 -0.41107,1.13045c-0.10277,0.20554 -0.20554,0.41107 -0.20554,0.61661c0,0.71937 0.41107,1.74705 1.13045,3.08304c0,0.10277 0.10277,0.3083 0.20554,0.41107c0.3083,0.71937 0.61661,1.33598 1.02768,2.05536c0.61661,1.13045 1.13045,2.26089 1.64429,3.39134c0.51384,1.13045 0.71937,2.36366 0.71937,3.59687s0,0.71937 0,1.13045c-0.41107,2.46643 -1.64429,4.31625 -3.59687,5.54946s-4.00795,1.84982 -6.37161,1.84982l0.3083,0.20554zm1.64429,-6.98821c0.71937,0 1.33598,-0.3083 1.95259,-0.82214c0.61661,-0.51384 0.92491,-1.33598 0.92491,-2.46643s-0.20554,-1.74705 -0.61661,-2.77473c-0.41107,-1.13045 -1.13045,-2.36366 -2.15812,-3.69964l-0.51384,0.82214c0.92491,0.82214 1.43875,1.84982 1.43875,2.77473s0,0.51384 -0.10277,0.71937c-0.10277,0.3083 -0.3083,0.41107 -0.51384,0.51384c-0.10277,0 -0.3083,0 -0.41107,0s-0.20554,0 -0.41107,0l-0.3083,0c-0.41107,0 -0.82214,0.10277 -1.23321,0.51384c-0.41107,0.41107 -0.71937,0.92491 -0.71937,1.54152l0,0c0,0.92491 0.3083,1.64429 0.82214,2.05536c0.51384,0.41107 1.13045,0.71937 1.74705,0.71937l0.10277,0.10277z" class="cls-1"/>
    <path stroke="#ffffff" id="svg_46" stroke-width="0px" fill="#ef412c" d="m129.04001,38.95548c-2.98027,0 -5.54946,-0.92491 -7.60482,-2.8775c-2.05536,-1.84982 -3.08304,-4.21348 -3.08304,-6.98821l0,-0.71937c0.3083,-2.46643 1.23321,-4.72732 2.98027,-6.57714c1.64429,-1.84982 3.80241,-3.08304 6.37161,-3.69964c0.20554,0 0.41107,0 0.61661,0s0.51384,0 0.71937,0.10277c0.20554,0 0.41107,0.20554 0.51384,0.51384c0.71937,-0.51384 1.54152,-0.71937 2.46643,-0.71937c1.33598,0 2.77473,0.41107 4.00795,1.23321c1.33598,0.82214 2.36366,1.74705 3.1858,2.77473c1.33598,1.84982 1.95259,3.69964 1.95259,5.65223s-0.51384,3.80241 -1.64429,5.54946c-1.13045,1.74705 -2.5692,3.1858 -4.41902,4.21348c-1.84982,1.13045 -3.90518,1.64429 -6.16607,1.64429l0.10277,-0.10277zm0.20554,-9.24911c1.13045,0 2.05536,-0.3083 2.98027,-0.92491c0.92491,-0.61661 1.54152,-1.43875 1.84982,-2.46643c0.20554,-0.61661 0.3083,-1.23321 0.3083,-1.74705c0,-0.71937 -0.20554,-1.33598 -0.61661,-1.64429c-0.41107,-0.3083 -0.82214,-0.51384 -1.23321,-0.51384s-0.82214,0.10277 -1.13045,0.41107c-0.3083,0.3083 -0.51384,0.61661 -0.51384,1.13045s0,0.51384 0.20554,0.82214c0.10277,0.20554 0.41107,0.41107 0.71937,0.41107c0.3083,0 0.61661,0.10277 0.92491,0.10277c0.10277,0 0.3083,0 0.3083,0c0,0 0.10277,0 0.20554,0l0,0c0,0.51384 -0.41107,0.82214 -1.13045,1.33598c-0.71937,0.41107 -1.54152,0.61661 -2.36366,0.61661s-1.54152,-0.3083 -2.26089,-0.92491c-0.61661,-0.61661 -0.82214,-1.43875 -0.82214,-2.26089s0,-0.92491 0.20554,-1.33598c-0.92491,1.02768 -1.33598,2.15812 -1.33598,3.28857s0.20554,1.54152 0.71937,2.26089c0.51384,0.71937 1.23321,1.13045 2.36366,1.33598c0.20554,0 0.51384,0 0.71937,0l-0.10277,0.10277z" class="cls-1"/>
    <path stroke="#ffffff" id="svg_47" stroke-width="0px" fill="#ef412c" d="m156.58179,40.1887c-0.92491,0 -1.84982,-0.3083 -2.8775,-0.92491c-0.82214,-0.71937 -1.23321,-1.64429 -1.23321,-2.77473s0.20554,-2.26089 0.71937,-3.49411c0.41107,-1.23321 0.92491,-2.46643 1.54152,-3.59687c0.51384,-1.13045 1.33598,-2.46643 2.15812,-3.90518c0.20554,-0.41107 0.3083,-0.71937 0.41107,-1.02768s0.20554,-0.61661 0.20554,-0.92491s0,-0.51384 -0.20554,-0.71937c-0.20554,-0.20554 -0.41107,-0.41107 -0.82214,-0.41107l-0.3083,0c-0.92491,0 -1.74705,0.71937 -2.46643,2.05536s-1.33598,2.98027 -1.74705,4.83009c-0.51384,1.84982 -0.82214,3.69964 -1.13045,5.4467c-0.20554,1.74705 -0.3083,2.98027 -0.3083,3.69964l0,0c0,0.41107 -0.3083,0.61661 -0.71937,0.82214c-0.41107,0.10277 -0.92491,0.20554 -1.54152,0.20554c-0.92491,0 -1.95259,-0.20554 -3.08304,-0.51384c-1.13045,-0.3083 -2.05536,-0.82214 -2.8775,-1.43875c-0.82214,-0.61661 -1.23321,-1.33598 -1.23321,-2.26089l0,-0.41107c0.51384,-2.36366 1.13045,-4.41902 1.95259,-6.26884c0.92491,-1.95259 1.64429,-4.41902 2.15812,-7.29652l0,-0.71937c0,-0.41107 0,-0.82214 -0.10277,-1.13045c-0.10277,-0.3083 -0.20554,-0.51384 -0.3083,-0.82214c-0.20554,-0.3083 -0.3083,-0.51384 -0.3083,-0.82214s0,-0.3083 0.20554,-0.41107c0.41107,-0.41107 1.13045,-0.61661 2.26089,-0.61661s2.26089,0.3083 3.49411,0.92491c1.23321,0.61661 2.05536,1.64429 2.5692,3.1858c0.82214,-0.92491 1.84982,-1.74705 2.8775,-2.36366c1.02768,-0.61661 2.15812,-0.92491 3.28857,-0.92491l0.20554,0c1.43875,0 2.46643,0.3083 3.1858,0.92491s1.13045,1.33598 1.33598,2.26089c0.71937,-0.82214 1.64429,-1.54152 2.67196,-2.05536c1.02768,-0.51384 2.15812,-0.82214 3.49411,-0.82214l0.71937,0c2.05536,0.20554 3.39134,0.71937 4.21348,1.54152c0.82214,0.82214 1.13045,1.84982 1.13045,2.98027s-0.10277,1.84982 -0.41107,2.8775c-0.3083,1.02768 -0.61661,2.05536 -1.02768,3.08304c-0.3083,0.82214 -0.51384,1.74705 -0.82214,2.46643c-0.20554,0.82214 -0.3083,1.54152 -0.3083,2.15812s0.10277,1.02768 0.41107,1.43875c0.3083,0.41107 0.82214,0.61661 1.64429,0.71937c0.20554,0 0.41107,0 0.61661,0.20554c0.20554,0.20554 0.20554,0.3083 0.20554,0.51384l0,0.20554c-0.41107,1.02768 -1.13045,1.84982 -2.26089,2.46643c-1.13045,0.61661 -2.26089,0.82214 -3.59687,0.82214s-2.15812,-0.20554 -3.1858,-0.61661c-1.02768,-0.41107 -1.84982,-1.13045 -2.46643,-1.95259c-0.61661,-0.92491 -0.92491,-2.05536 -0.92491,-3.49411s0.10277,-1.64429 0.3083,-2.46643c0.20554,-0.82214 0.71937,-1.84982 1.43875,-2.98027c0.51384,-0.82214 0.92491,-1.54152 1.23321,-2.36366c0.41107,-0.71937 0.61661,-1.33598 0.61661,-1.84982s-0.3083,-0.82214 -0.92491,-0.92491l0,0c-0.71937,0 -1.54152,0.82214 -2.36366,2.5692c-0.82214,1.74705 -1.54152,3.59687 -2.15812,5.85777c-0.61661,2.15812 -0.92491,3.90518 -0.92491,5.24116s0,0.92491 0.20554,1.23321c0,0 0,0.20554 0,0.3083c0,0.20554 0,0.41107 -0.3083,0.61661c-0.41107,0.41107 -1.02768,0.71937 -1.84982,1.13045c-0.82214,0.41107 -1.64429,0.61661 -2.67196,0.61661l0,-0.10277z" class="cls-1"/>
    <path stroke="#ffffff" id="svg_48" stroke-width="0px" fill="#ef412c" d="m186.2817,39.26379l-0.3083,0c-2.26089,0 -4.21348,-0.41107 -5.65223,-1.23321c-1.43875,-0.82214 -2.46643,-1.95259 -3.1858,-3.28857c-0.71937,-1.33598 -1.02768,-2.77473 -1.02768,-4.41902c0,-2.98027 1.13045,-5.755 3.28857,-8.52973c2.15812,-2.67196 5.24116,-4.31625 9.04357,-4.72732l1.13045,0c1.64429,0 2.98027,0.20554 4.00795,0.82214c1.02768,0.61661 1.74705,1.33598 2.15812,2.26089c0.41107,0.92491 0.71937,1.95259 0.71937,3.08304s-0.3083,2.8775 -0.92491,4.31625c-0.61661,1.43875 -1.43875,2.67196 -2.5692,3.59687c-1.02768,0.92491 -2.26089,1.43875 -3.39134,1.43875s-2.36366,-0.61661 -3.59687,-1.74705l0,0.3083c0,0.82214 0.3083,1.54152 0.92491,2.15812c0.61661,0.61661 1.43875,0.92491 2.36366,0.92491l0.41107,0c3.59687,-0.61661 6.16607,-2.77473 7.50205,-6.47437c0.41107,-0.61661 1.02768,-0.92491 1.64429,-0.92491s0.92491,0.10277 1.23321,0.41107c0.41107,0.20554 0.61661,0.61661 0.61661,1.02768s0,0.3083 -0.10277,0.51384c-2.46643,6.78268 -7.29652,10.27678 -14.28473,10.37955l0,0.10277zm1.43875,-12.74321c0.71937,0 1.54152,-0.41107 2.36366,-1.33598c0.82214,-0.92491 1.23321,-1.84982 1.23321,-2.77473s-0.41107,-1.43875 -1.23321,-1.84982l-0.10277,0c-0.20554,0 -0.61661,0.41107 -1.13045,1.13045c-0.51384,0.82214 -0.92491,1.64429 -1.23321,2.46643c-0.41107,0.92491 -0.61661,1.54152 -0.71937,2.05536c0.20554,0.20554 0.51384,0.20554 0.82214,0.20554l0,0.10277z" class="cls-1"/>
    <path stroke="#ffffff" id="svg_49" stroke-width="0px" fill="#ef412c" d="m222.76429,40.70254l-0.20554,0c-2.8775,0 -5.34393,-0.71937 -7.19375,-1.74705c-1.84982,-1.02768 -3.28857,-2.36366 -4.21348,-4.11071c-0.92491,-1.64429 -1.33598,-3.39134 -1.33598,-5.13839s0.61661,-4.11071 1.84982,-5.96054c1.23321,-1.84982 3.08304,-3.08304 5.4467,-3.80241l0.3083,0c0.20554,0 0.51384,0 0.61661,0.20554c0.20554,0.10277 0.3083,0.3083 0.3083,0.51384l0,0c-0.10277,0.92491 -0.20554,1.54152 -0.20554,2.15812c0,1.23321 0.20554,2.15812 0.71937,2.77473c0.51384,0.71937 1.02768,1.13045 1.64429,1.43875c0.61661,0.3083 1.13045,0.41107 1.64429,0.41107l0.51384,0c2.05536,0 3.69964,-0.71937 5.13839,-2.26089c1.43875,-1.43875 2.67196,-3.28857 3.69964,-5.54946c1.02768,-2.15812 2.05536,-4.41902 2.8775,-6.57714c0.3083,-0.71937 0.51384,-1.33598 0.82214,-2.05536l-1.54152,0c-1.13045,0 -2.15812,0.10277 -3.08304,0.51384c-0.92491,0.41107 -1.54152,1.23321 -1.84982,2.36366c0,0.3083 -0.10277,0.71937 -0.10277,1.02768s0.10277,0.92491 0.3083,1.23321c0.20554,0.41107 0.61661,0.51384 1.23321,0.51384l0.61661,0c0.20554,0 0.3083,0 0.41107,0.10277c0,0.10277 0.10277,0.3083 0.10277,0.41107l0,0.3083c-0.41107,1.64429 -1.13045,2.8775 -2.26089,3.69964c-1.13045,0.82214 -2.36366,1.23321 -3.80241,1.23321s-2.5692,-0.3083 -3.90518,-1.02768c-1.43875,-0.82214 -2.46643,-1.74705 -3.1858,-2.77473c-0.71937,-1.02768 -1.02768,-2.15812 -1.02768,-3.39134c0,-2.46643 1.33598,-4.83009 4.00795,-6.88545c2.67196,-2.15812 6.26884,-3.28857 10.89339,-3.39134c1.95259,0 4.11071,0 6.47437,0.3083c0.82214,-0.61661 1.84982,-0.92491 2.8775,-0.92491s1.74705,0.20554 2.77473,0.51384c0.41107,0.20554 0.61661,0.51384 0.61661,0.82214s0,0.41107 -0.3083,0.61661c3.90518,1.02768 6.67991,2.5692 8.42696,4.52179c1.74705,1.95259 2.67196,4.00795 2.67196,6.16607s-0.51384,3.49411 -1.64429,5.13839c-1.13045,1.64429 -2.5692,2.98027 -4.52179,4.00795c-1.95259,1.02768 -4.21348,1.54152 -6.78268,1.54152s-3.80241,-0.3083 -5.85777,-0.92491c-0.61661,2.15812 -1.54152,4.31625 -2.77473,6.37161c-1.13045,2.05536 -2.67196,3.90518 -4.52179,5.34393c-1.84982,1.43875 -4.11071,2.15812 -6.78268,2.15812l0.10277,0.10277zm17.16223,-16.9567c2.36366,0 4.21348,-0.51384 5.4467,-1.64429c1.23321,-1.02768 1.84982,-2.36366 1.84982,-3.69964s-0.51384,-2.36366 -1.43875,-3.59687c-1.02768,-1.13045 -2.5692,-2.15812 -4.62455,-2.77473c-1.02768,2.8775 -1.95259,5.96054 -2.77473,9.35187c-0.20554,0.82214 -0.41107,1.54152 -0.61661,2.26089c0.82214,0 1.54152,0.10277 2.26089,0.10277l-0.10277,0z" class="cls-1"/>
    <path stroke="#ffffff" id="svg_50" stroke-width="0px" fill="#ef412c" d="m264.48803,39.05825c-0.61661,0 -1.23321,0 -1.95259,-0.20554c-1.84982,-0.51384 -3.08304,-1.23321 -3.80241,-2.15812c-0.71937,-1.02768 -1.02768,-2.15812 -1.02768,-3.39134s0.3083,-2.8775 0.82214,-4.41902c0.51384,-1.54152 1.13045,-2.98027 1.74705,-4.41902c0.3083,-0.71937 0.51384,-1.33598 0.82214,-1.95259c0,-0.20554 -0.20554,-0.41107 -0.51384,-0.51384c-0.20554,-0.10277 -0.51384,-0.20554 -0.82214,-0.3083c-0.10277,0 -0.3083,0 -0.41107,0c-0.61661,2.67196 -1.64429,5.54946 -3.08304,8.42696c-1.54152,2.8775 -2.8775,5.03562 -4.11071,6.47437c-0.3083,0.3083 -0.61661,0.41107 -1.13045,0.41107s-1.13045,-0.20554 -1.64429,-0.61661c-0.51384,-0.41107 -0.82214,-0.82214 -0.82214,-1.33598s0.10277,-0.61661 0.41107,-0.92491c1.84982,-1.84982 3.39134,-4.11071 4.52179,-6.57714c1.13045,-2.5692 1.95259,-5.03562 2.5692,-7.50205c-0.71937,-0.20554 -1.23321,-0.71937 -1.64429,-1.54152c-0.41107,-0.82214 -0.61661,-1.64429 -0.61661,-2.46643s0.20554,-1.33598 0.51384,-1.95259c0.3083,-0.51384 0.92491,-0.82214 1.64429,-0.92491l0.20554,0c0.92491,0 1.64429,0.20554 2.15812,0.71937c0.51384,0.41107 0.82214,1.02768 1.02768,1.74705c0.20554,0.71937 0.3083,1.43875 0.3083,2.15812c1.02768,0.51384 2.15812,0.82214 3.28857,1.13045c1.13045,0.20554 2.05536,0.51384 2.77473,0.92491c1.02768,0.51384 1.74705,1.02768 2.05536,1.64429c0.41107,0.61661 0.61661,1.33598 0.61661,2.15812c0,1.23321 -0.3083,2.46643 -0.82214,3.80241c-0.41107,1.13045 -0.61661,2.15812 -0.61661,2.98027s0.20554,1.23321 0.71937,1.54152c0.20554,0 0.41107,0.10277 0.51384,0.10277c0.61661,0 1.13045,-0.41107 1.74705,-1.23321c0.61661,-0.82214 1.13045,-1.84982 1.64429,-2.98027c0.41107,-0.61661 0.92491,-0.92491 1.64429,-0.92491s0.82214,0.10277 1.23321,0.3083c0.41107,0.20554 0.61661,0.61661 0.61661,1.02768s0,0.41107 -0.10277,0.61661c-0.71937,1.74705 -1.54152,3.28857 -2.46643,4.83009c-1.02768,1.54152 -2.15812,2.77473 -3.49411,3.80241c-1.33598,1.02768 -2.8775,1.54152 -4.62455,1.54152l0.10277,0z" class="cls-1"/>
    <path stroke="#ffffff" id="svg_51" stroke-width="0px" fill="#ef412c" d="m276.1008,39.05825l-0.41107,0c-1.13045,0 -2.15812,-0.51384 -3.08304,-1.33598c-0.92491,-0.82214 -1.64429,-1.95259 -2.05536,-3.28857c-0.10277,-0.41107 -0.20554,-0.92491 -0.20554,-1.43875c0,-1.13045 0.20554,-2.36366 0.61661,-3.80241c0.41107,-1.43875 0.92491,-2.77473 1.33598,-4.11071c0.41107,-1.13045 0.71937,-2.15812 1.02768,-2.98027c0.3083,-0.92491 0.41107,-1.64429 0.41107,-2.26089s0,-0.61661 -0.20554,-0.82214c0,-0.10277 -0.10277,-0.3083 -0.10277,-0.41107c0,-0.3083 0.10277,-0.51384 0.41107,-0.71937c0.51384,-0.3083 1.13045,-0.61661 1.95259,-0.92491c0.71937,-0.3083 1.43875,-0.41107 2.26089,-0.41107s0.51384,0 0.71937,0c1.13045,0.20554 1.84982,0.71937 2.26089,1.33598c0.41107,0.61661 0.61661,1.43875 0.61661,2.36366s-0.20554,1.95259 -0.51384,3.08304c-0.3083,1.13045 -0.71937,2.15812 -1.13045,3.28857c-0.71937,1.64429 -1.13045,2.98027 -1.13045,3.80241l0,0.20554c0.10277,0.71937 0.41107,1.13045 0.71937,1.43875c0.20554,0 0.41107,0.10277 0.51384,0.10277c0.51384,0 1.02768,-0.41107 1.43875,-1.23321c0.51384,-0.82214 0.92491,-1.74705 1.23321,-2.8775c0.10277,-0.3083 0.41107,-0.61661 0.61661,-0.71937c0.3083,-0.20554 0.61661,-0.20554 0.92491,-0.20554s0.82214,0.10277 1.23321,0.3083c0.41107,0.20554 0.61661,0.61661 0.61661,1.02768l0,0.51384c-0.71937,1.64429 -1.43875,3.28857 -2.36366,4.83009c-0.92491,1.54152 -2.05536,2.77473 -3.39134,3.80241c-1.33598,1.02768 -2.98027,1.54152 -4.72732,1.54152l0.41107,-0.10277zm2.98027,-23.43107c-1.23321,0 -2.26089,-0.41107 -3.1858,-1.23321c-0.92491,-0.82214 -1.33598,-1.74705 -1.33598,-2.98027s0.41107,-2.15812 1.33598,-2.98027c0.92491,-0.82214 1.95259,-1.23321 3.1858,-1.23321s2.36366,0.41107 3.1858,1.23321c0.82214,0.82214 1.33598,1.84982 1.33598,2.98027s-0.41107,2.15812 -1.33598,2.98027c-0.82214,0.82214 -1.95259,1.23321 -3.1858,1.23321z" class="cls-1"/>
    <path stroke="#ffffff" id="svg_52" stroke-width="0px" fill="#ef412c" d="m284.93884,38.95548l-0.20554,0c-0.41107,0 -0.71937,-0.20554 -1.13045,-0.51384c-0.41107,-0.3083 -0.61661,-0.71937 -0.61661,-1.02768s0,-0.20554 0.10277,-0.3083l8.6325,-12.64045c-1.64429,0 -3.1858,-0.20554 -4.72732,-0.51384s-2.5692,-0.71937 -3.28857,-1.23321c-0.92491,-0.92491 -1.43875,-1.95259 -1.43875,-3.08304s0.41107,-2.46643 1.23321,-3.69964c0.82214,-1.23321 1.64429,-2.15812 2.46643,-2.77473c0.20554,-0.20554 0.41107,-0.20554 0.61661,-0.20554s0.3083,0 0.51384,0.10277c0.10277,0 0.20554,0.20554 0.3083,0.41107c0.82214,1.64429 2.05536,2.67196 3.80241,3.1858c1.74705,0.51384 3.39134,0.92491 5.03562,1.02768c0.10277,0 0.20554,0 0.3083,0c0.3083,-0.3083 0.61661,-0.61661 1.13045,-0.71937c0.51384,-0.20554 0.92491,-0.20554 1.43875,-0.20554s1.02768,0 1.43875,0.3083c0.41107,0.20554 0.61661,0.41107 0.61661,0.82214s0,0.3083 -0.20554,0.51384c-0.41107,0.82214 -0.82214,1.64429 -1.33598,2.46643c-1.84982,3.39134 -3.49411,6.78268 -5.24116,10.27678c0.92491,-0.3083 1.74705,-0.51384 2.36366,-0.51384s1.13045,0 1.54152,0.3083c0.20554,0 0.41107,0.10277 0.71937,0.20554l0.41107,0c0.61661,0 1.13045,-0.3083 1.64429,-0.92491c0.41107,-0.61661 0.82214,-1.33598 1.13045,-2.26089c0.41107,-0.61661 0.92491,-0.92491 1.64429,-0.92491s0.82214,0.10277 1.23321,0.41107c0.41107,0.20554 0.51384,0.61661 0.51384,1.02768s0,0.41107 -0.10277,0.61661c-0.82214,2.15812 -1.74705,4.00795 -2.98027,5.755c-1.13045,1.74705 -2.46643,2.98027 -4.00795,3.80241c-0.61661,0.20554 -1.13045,0.3083 -1.74705,0.3083s-1.43875,0 -2.26089,-0.3083c-1.13045,-0.3083 -2.46643,-0.41107 -4.21348,-0.41107s-3.39134,0.3083 -5.54946,0.82214l0.20554,-0.10277z" class="cls-1"/>
    <path stroke="#ffffff" id="svg_53" stroke-width="0px" fill="#ef412c" d="m311.86401,39.26379l-0.3083,0c-2.26089,0 -4.21348,-0.41107 -5.65223,-1.23321c-1.43875,-0.82214 -2.46643,-1.95259 -3.1858,-3.28857c-0.71937,-1.33598 -1.02768,-2.77473 -1.02768,-4.41902c0,-2.98027 1.13045,-5.755 3.28857,-8.52973c2.15812,-2.67196 5.24116,-4.31625 9.04357,-4.72732l1.13045,0c1.64429,0 2.98027,0.20554 4.00795,0.82214c1.02768,0.61661 1.74705,1.33598 2.15812,2.26089c0.41107,0.92491 0.71937,1.95259 0.71937,3.08304s-0.3083,2.8775 -0.92491,4.31625c-0.61661,1.43875 -1.43875,2.67196 -2.5692,3.59687c-1.02768,0.92491 -2.26089,1.43875 -3.39134,1.43875s-2.36366,-0.61661 -3.59687,-1.74705l0,0.3083c0,0.82214 0.3083,1.54152 0.92491,2.15812c0.61661,0.61661 1.43875,0.92491 2.36366,0.92491l0.41107,0c3.59687,-0.61661 6.16607,-2.77473 7.50205,-6.47437c0.41107,-0.61661 1.02768,-0.92491 1.64429,-0.92491s0.92491,0.10277 1.23321,0.41107c0.41107,0.20554 0.61661,0.61661 0.61661,1.02768s0,0.3083 -0.10277,0.51384c-2.46643,6.78268 -7.29652,10.27678 -14.28473,10.37955l0,0.10277zm1.43875,-12.74321c0.71937,0 1.54152,-0.41107 2.36366,-1.33598c0.82214,-0.92491 1.23321,-1.84982 1.23321,-2.77473s-0.41107,-1.43875 -1.23321,-1.84982l-0.10277,0c-0.20554,0 -0.61661,0.41107 -1.13045,1.13045c-0.51384,0.82214 -0.92491,1.64429 -1.23321,2.46643c-0.41107,0.92491 -0.61661,1.54152 -0.71937,2.05536c0.20554,0.20554 0.51384,0.20554 0.82214,0.20554l0,0.10277z" class="cls-1"/>
    <path stroke="#ffffff" id="svg_54" stroke-width="0px" fill="#ef412c" d="m331.69821,39.05825c-2.26089,0 -4.41902,-0.61661 -6.26884,-1.95259c-1.84982,-1.33598 -2.8775,-3.39134 -3.1858,-6.0633l0,-0.61661c0,-1.43875 0.3083,-2.77473 0.82214,-4.21348c0.51384,-1.33598 1.33598,-2.46643 2.26089,-3.39134c1.02768,-0.92491 2.15812,-1.33598 3.49411,-1.33598s0.61661,0 0.82214,0c0,0 0.10277,-0.10277 0.3083,-0.41107c0.20554,-0.3083 0.41107,-0.61661 0.71937,-0.92491c0.3083,-0.3083 0.51384,-0.71937 0.71937,-0.92491c0.20554,-0.3083 0.41107,-0.51384 0.41107,-0.61661c0,-1.23321 0.41107,-2.15812 1.33598,-2.77473c0.92491,-0.61661 1.74705,-0.92491 2.5692,-0.92491s0.82214,0 1.13045,0.3083c0.3083,0.20554 0.41107,0.51384 0.41107,0.82214s-0.10277,0.71937 -0.41107,1.13045c-0.10277,0.20554 -0.20554,0.41107 -0.20554,0.61661c0,0.71937 0.41107,1.74705 1.13045,3.08304c0,0.10277 0.10277,0.3083 0.20554,0.41107c0.3083,0.71937 0.61661,1.33598 1.02768,2.05536c0.61661,1.13045 1.13045,2.26089 1.64429,3.39134c0.51384,1.13045 0.71937,2.36366 0.71937,3.59687s0,0.71937 0,1.13045c-0.41107,2.46643 -1.64429,4.31625 -3.59687,5.54946c-1.95259,1.23321 -4.00795,1.84982 -6.37161,1.84982l0.3083,0.20554zm1.64429,-6.98821c0.71937,0 1.33598,-0.3083 1.95259,-0.82214c0.61661,-0.51384 0.92491,-1.33598 0.92491,-2.46643s-0.20554,-1.74705 -0.61661,-2.77473c-0.41107,-1.13045 -1.13045,-2.36366 -2.15812,-3.69964l-0.51384,0.82214c0.92491,0.82214 1.43875,1.84982 1.43875,2.77473s0,0.51384 -0.10277,0.71937c-0.10277,0.3083 -0.3083,0.41107 -0.51384,0.51384c-0.10277,0 -0.3083,0 -0.41107,0s-0.20554,0 -0.41107,0l-0.3083,0c-0.41107,0 -0.82214,0.10277 -1.23321,0.51384c-0.41107,0.41107 -0.71937,0.92491 -0.71937,1.54152l0,0c0,0.92491 0.3083,1.64429 0.82214,2.05536c0.51384,0.41107 1.13045,0.71937 1.74705,0.71937l0.10277,0.10277z" class="cls-1"/>
   </g>
  </g>
 </g>
</svg>