<svg style="display: none;" id="common" xmlns="http://www.w3.org/2000/svg"><symbol id="common-caret-down" viewBox="0 0 20 32">
<title>caret-down</title>
<path d="M1.956 12h16.081c1.113 0 1.669 1.344 0.881 2.131l-8.038 8.044c-0.488 0.488-1.281 0.488-1.769 0l-8.037-8.044c-0.788-0.787-0.231-2.131 0.881-2.131z"></path>
</symbol>
<symbol id="common-bars" viewBox="0 0 28 32">
<title>bars</title>
<path d="M1 8.25h26c0.552 0 1-0.448 1-1v-2.5c0-0.552-0.448-1-1-1h-26c-0.552 0-1 0.448-1 1v2.5c0 0.552 0.448 1 1 1zM1 18.25h26c0.552 0 1-0.448 1-1v-2.5c0-0.552-0.448-1-1-1h-26c-0.552 0-1 0.448-1 1v2.5c0 0.552 0.448 1 1 1zM1 28.25h26c0.552 0 1-0.448 1-1v-2.5c0-0.552-0.448-1-1-1h-26c-0.552 0-1 0.448-1 1v2.5c0 0.552 0.448 1 1 1z"></path>
</symbol>
<symbol id="common-search" viewBox="0 0 32 32">
<title>search</title>
<path d="M31.563 27.669c0.581 0.587 0.581 1.537-0.006 2.125l-1.769 1.769c-0.581 0.588-1.531 0.588-2.119 0l-6.231-6.231c-0.281-0.281-0.438-0.662-0.438-1.063v-1.019c-2.206 1.725-4.981 2.75-8 2.75-7.181 0-13-5.819-13-13s5.819-13 13-13 13 5.819 13 13c0 3.019-1.025 5.794-2.75 8h1.019c0.4 0 0.781 0.156 1.063 0.438zM13 21c4.425 0 8-3.581 8-8 0-4.425-3.581-8-8-8-4.425 0-8 3.581-8 8 0 4.425 3.581 8 8 8z"></path>
</symbol><symbol id="common-check-circle1" viewBox="0 0 32 32">
<title>check-circle1</title>
<path d="M31.5 16c0 8.56-6.94 15.5-15.5 15.5s-15.5-6.94-15.5-15.5 6.94-15.5 15.5-15.5 15.5 6.94 15.5 15.5zM14.207 24.207l11.5-11.5c0.39-0.39 0.39-1.024 0-1.414l-1.414-1.414c-0.39-0.391-1.024-0.391-1.414 0l-9.379 9.379-4.379-4.379c-0.39-0.39-1.024-0.39-1.414 0l-1.414 1.414c-0.39 0.39-0.39 1.024 0 1.414l6.5 6.5c0.391 0.39 1.024 0.39 1.414 0z"></path>
</symbol><symbol id="common-eye-slash-r" viewBox="0 0 40 32">
<title>eye-slash-r</title>
<path d="M39.625 29.438c0.207 0.166 0.376 0.516 0.376 0.781 0 0.194-0.099 0.474-0.22 0.626l-0.625 0.781c-0.166 0.207-0.515 0.375-0.781 0.375-0.194 0-0.474-0.098-0.625-0.219l-37.375-29.218c-0.207-0.166-0.376-0.516-0.376-0.781 0-0.194 0.099-0.474 0.22-0.626l0.625-0.781c0.166-0.207 0.515-0.375 0.781-0.375 0.194 0 0.474 0.098 0.625 0.219zM18.549 9.154c0.396-0.084 1.046-0.154 1.451-0.154 3.78 0 6.835 2.994 6.974 6.741zM21.451 22.846c-0.396 0.084-1.046 0.153-1.451 0.154-3.779 0-6.834-2.994-6.974-6.74zM20 7c-1.242 0-2.455 0.175-3.639 0.444l-2.901-2.268c2.057-0.738 4.246-1.176 6.539-1.176 7.683 0 14.393 4.474 17.786 11.088 0.12 0.237 0.217 0.646 0.217 0.912s-0.097 0.675-0.217 0.912c-0.732 1.422-2.214 3.526-3.306 4.694l-2.359-1.844c0.896-0.938 2.128-2.624 2.75-3.762-3.053-5.563-8.705-9-14.871-9zM20 25c1.243 0 2.455-0.175 3.639-0.443l2.901 2.268c-2.058 0.735-4.246 1.176-6.539 1.176-7.683 0-14.393-4.474-17.782-11.088-0.12-0.237-0.217-0.646-0.217-0.912s0.097-0.675 0.217-0.912c0.732-1.422 2.213-3.525 3.306-4.694l2.359 1.844c-0.897 0.938-2.13 2.623-2.753 3.762 3.053 5.563 8.705 9 14.871 9z"></path>
</symbol><symbol id="common-long-arrow-alt-right" viewBox="0 0 28 32">
<title>long-arrow-alt-right</title>
<path d="M19.621 13.5v-2.879c0-1.336 1.616-2.006 2.561-1.061l5.379 5.379c0.586 0.586 0.586 1.535 0 2.121l-5.379 5.379c-0.945 0.945-2.561 0.276-2.561-1.061v-2.879h-18.871c-0.414 0-0.75-0.336-0.75-0.75v-3.5c0-0.414 0.336-0.75 0.75-0.75h18.871z"></path>
</symbol><symbol id="common-long-arrow-alt-left" viewBox="0 0 28 32">
<title>long-arrow-alt-left</title>
<path d="M8.379 18.5v2.879c0 1.336-1.616 2.006-2.561 1.061l-5.379-5.379c-0.586-0.586-0.586-1.535 0-2.121l5.379-5.379c0.945-0.945 2.561-0.276 2.561 1.061v2.879h18.871c0.414 0 0.75 0.336 0.75 0.75v3.5c0 0.414-0.336 0.75-0.75 0.75h-18.871z"></path>
</symbol><symbol id="common-user-secret" viewBox="0 0 28 32">
<title>user-secret</title>
<path d="M23.994 19.269c2.394 1.481 4.006 4.106 4.006 7.131v2.8c0 1.544-1.256 2.8-2.8 2.8h-22.4c-1.544 0-2.8-1.256-2.8-2.8v-2.8c0-3.106 1.706-5.788 4.213-7.244l-1.613-3.762c-0.281-0.662 0.2-1.394 0.919-1.394h3.594c-0.688-1.181-1.112-2.537-1.112-4v-0.019c-2.45-0.488-4-1.194-4-1.981 0-0.831 1.706-1.569 4.375-2.063 0.575-2.050 1.694-4.112 2.537-5.175 0.594-0.744 1.619-0.975 2.469-0.55l1.725 0.863c0.563 0.281 1.225 0.281 1.787 0l1.725-0.863c0.85-0.425 1.875-0.194 2.469 0.55 0.85 1.063 1.962 3.125 2.537 5.175 2.675 0.494 4.381 1.231 4.381 2.063 0 0.787-1.55 1.494-4 1.981v0.019c0 1.463-0.425 2.819-1.113 4h3.656c0.706 0 1.188 0.7 0.938 1.356zM11 30l2-7.5-1.5-2.5-3.1-2zM17 30l2.6-12-3.1 2-1.5 2.5zM19.606 11.344c0.050-0.162 0.394-0.356 0.4-0.363v-0.675c-1.769 0.231-3.813 0.363-6 0.363s-4.231-0.137-6-0.363v0.675c0 0.006 0.344 0.206 0.394 0.363 0.238 0.744 0.438 1.537 1.031 2.088 0.5 0.462 2.938 1.575 4-1.563 0.181-0.525 0.969-0.525 1.144 0 1 2.962 3.369 2.144 4 1.563 0.594-0.55 0.787-1.344 1.031-2.088z"></path>
</symbol><symbol id="common-star-half-alt" viewBox="0 0 34 32">
<title>star-half-alt</title>
<path d="M31.784 10.719c1.641 0.238 2.298 2.256 1.108 3.413l-6.619 6.436 1.564 9.093c0.222 1.299-0.816 2.338-1.979 2.338-0.307 0-0.623-0.073-0.927-0.232l-8.184-4.294-8.184 4.292c-0.304 0.161-0.621 0.234-0.929 0.234-1.161 0-2.198-1.042-1.976-2.341l1.566-9.092-6.618-6.438c-1.189-1.156-0.532-3.174 1.109-3.412l9.149-1.331 4.089-8.274c0.369-0.744 1.081-1.113 1.793-1.113 0.717 0 1.434 0.374 1.801 1.113l4.088 8.274zM24.176 18.419l5.166-5.024-8.702-1.267-3.888-7.87-0.002 19.824 7.782 4.083-1.488-8.646z"></path>
</symbol><symbol id="common-user" viewBox="0 0 28 32">
<title>user</title>
<path d="M14 16c-4.419 0-8-3.581-8-8s3.581-8 8-8 8 3.581 8 8-3.581 8-8 8zM19.6 18c4.637 0 8.4 3.762 8.4 8.4v2.6c0 1.656-1.344 3-3 3h-22c-1.656 0-3-1.344-3-3v-2.6c0-4.637 3.763-8.4 8.4-8.4h1.044c1.394 0.637 2.931 1 4.556 1s3.169-0.363 4.556-1h1.044z"></path>
</symbol><symbol id="common-quote-right" viewBox="0 0 32 32">
<title>quote-right</title>
<path d="M29 2c1.656 0 3 1.344 3 3v15c0 5.525-4.475 10-10 10h-0.5c-0.831 0-1.5-0.669-1.5-1.5v-3c0-0.831 0.669-1.5 1.5-1.5h0.5c2.206 0 4-1.794 4-4v-4h-5c-1.656 0-3-1.344-3-3v-8c0-1.656 1.344-3 3-3h8zM11 2c1.656 0 3 1.344 3 3v15c0 5.525-4.475 10-10 10h-0.5c-0.831 0-1.5-0.669-1.5-1.5v-3c0-0.831 0.669-1.5 1.5-1.5h0.5c2.206 0 4-1.794 4-4v-4h-5c-1.656 0-3-1.344-3-3v-8c0-1.656 1.344-3 3-3h8z"></path>
</symbol><symbol id="common-chevron-down" viewBox="0 0 28 32">
<title>chevron-down</title>
<path d="M12.939 23.842l-12.146-12.146c-0.586-0.586-0.586-1.536 0-2.121l1.417-1.417c0.585-0.585 1.533-0.586 2.119-0.002l9.672 9.626 9.672-9.626c0.586-0.583 1.534-0.582 2.119 0.002l1.417 1.417c0.586 0.586 0.586 1.536 0 2.121l-12.146 12.146c-0.586 0.586-1.536 0.586-2.121 0z"></path>
</symbol><symbol id="common-calendar-plus-r" viewBox="0 0 28 32">
<title>calendar-plus-r</title>
<path d="M21 18.25v1.5c0 0.412-0.338 0.75-0.75 0.75h-4.75v4.75c0 0.412-0.338 0.75-0.75 0.75h-1.5c-0.412 0-0.75-0.338-0.75-0.75v-4.75h-4.75c-0.412 0-0.75-0.338-0.75-0.75v-1.5c0-0.412 0.338-0.75 0.75-0.75h4.75v-4.75c0-0.412 0.338-0.75 0.75-0.75h1.5c0.412 0 0.75 0.338 0.75 0.75v4.75h4.75c0.412 0 0.75 0.338 0.75 0.75zM28 7v22c0 1.656-1.344 3-3 3h-22c-1.656 0-3-1.344-3-3v-22c0-1.656 1.344-3 3-3h3v-3.25c0-0.412 0.338-0.75 0.75-0.75h2.5c0.412 0 0.75 0.338 0.75 0.75v3.25h8v-3.25c0-0.412 0.338-0.75 0.75-0.75h2.5c0.412 0 0.75 0.338 0.75 0.75v3.25h3c1.656 0 3 1.344 3 3zM25 28.625v-18.625h-22v18.625c0 0.206 0.169 0.375 0.375 0.375h21.25c0.206 0 0.375-0.169 0.375-0.375z"></path>
</symbol><symbol id="common-thermometer-half" viewBox="0 0 16 32">
<title>thermometer-half</title>
<path d="M12 24c0 2.209-1.791 4-4 4s-4-1.791-4-4c0-1.48 0.805-2.772 2-3.464v-6.536c0-1.105 0.895-2 2-2s2 0.895 2 2v6.536c1.195 0.692 2 1.983 2 3.464zM14 18.709c1.245 1.41 2 3.262 2 5.291 0 4.419-3.581 8-8 8-0.019 0-0.038-0-0.057-0-4.394-0.031-7.965-3.648-7.943-8.041 0.010-2.012 0.764-3.849 2-5.249v-12.709c0-3.314 2.686-6 6-6s6 2.686 6 6v12.709zM13 24c0-2.146-1.211-3.262-2-4.156v-13.844c0-1.654-1.346-3-3-3s-3 1.346-3 3v13.844c-0.796 0.902-1.989 2.006-2 4.13-0.014 2.742 2.223 5.007 4.964 5.026l0.036 0c2.757 0 5-2.243 5-5z"></path>
</symbol><symbol id="common-outlook" viewBox="0 0 13 13"><g fill="#2B74BA"><path d="M12.6 2.8H7.3v-2c0-.1-.1-.2-.1-.3-.1-.1-.3-.1-.4-.1L.3 1.6c-.2.1-.3.2-.3.4v9c0 .2.1.4.3.4l6.5 1.2h.1c.1 0 .2 0 .3-.1.1-.1.1-.2.1-.3v-2h5.3c.2 0 .4-.2.4-.4V3.3c0-.3-.2-.5-.4-.5zM3.7 9.3c-1.1 0-2-1.1-2-2.4s.9-2.4 2-2.4 2 1.1 2 2.4-.9 2.4-2 2.4zm3.6-5.6h4.1L8.9 5.6l-1.6-1v-.9zm4.9 5.6H7.3V5.5l1.4.9c.1 0 .1.1.2.1s.2 0 .2-.1l3-2.3v5.2z"/><path d="M3.7 5.3c.7 0 1.2.7 1.2 1.6 0 .9-.5 1.6-1.2 1.6s-1.3-.7-1.3-1.6c0-.9.6-1.6 1.3-1.6z"/></g></symbol><symbol id="common-tripadvisor-bage" viewBox="0 0 1008 281.6" xmlns:xlink="http://www.w3.org/1999/xlink">
<g>
	<g>
		<polygon fill="#BEA44A" points="931.3,0 932.8,16.1 937.4,30.4 939.3,31.5 940,17.5 		"/>
		<polygon fill="#BEA44A" points="908.1,1.1 924.7,11.3 931.7,23.5 921.1,20.9 912.9,13.2 		"/>
		<polygon fill="#BEA44A" points="935.6,31.5 920.8,27 909.9,27 922.7,33.4 934.8,34.8 		"/>
		<polygon fill="#BEA44A" points="948,43.3 945.6,29.5 945.6,6.2 954.3,32.2 951.5,48.5 		"/>
		<polygon fill="#BEA44A" points="916.4,42.2 929.6,50.5 940,51.7 950.5,48.5 938.9,44.1 		"/>
		<polygon fill="#BEA44A" points="959.3,62.6 958,51.7 958.6,37.4 966.1,18.5 968.5,49.3 959.9,63.8 		"/>
		<polygon fill="#BEA44A" points="956.8,62.5 947.7,58.3 923.9,58.3 932.6,64.3 946.5,67.9 958,63.8 		"/>
		<polygon fill="#BEA44A" points="967.4,79.5 970,56.1 978.6,36.6 979.4,67.9 969,84.2 		"/>
		<polygon fill="#BEA44A" points="930.7,75.5 947.2,73.8 965.9,82 965.9,84.2 958,88.1 942.2,84.7 		"/>
		<polygon fill="#BEA44A" points="937.1,94 958,95.3 972.3,103.6 958.7,106.7 		"/>
		<polygon fill="#BEA44A" points="974,102.2 975.3,89.3 980.5,77 989.4,65 990.1,77.6 985.8,94 974.8,105.3 		"/>
		<polygon fill="#BEA44A" points="978.5,123.4 980.7,111.4 985.7,99.4 999,87.5 992.2,113.9 978.5,125.6 		"/>
		<polygon fill="#BEA44A" points="975.5,123.2 965.9,115.6 943.8,113.4 958.5,126.1 971.8,129.2 975.5,125.6 		"/>
		<polygon fill="#BEA44A" points="980.1,149 984.3,137.2 990.1,127.4 1000.3,119 998.5,131.5 994.3,143.4 980.1,150.7 		"/>
		<polygon fill="#BEA44A" points="977.9,146.3 967.9,136.2 947.5,126.9 962.7,146.3 		"/>
		<polygon fill="#BEA44A" points="979,170.3 992,151.9 1007.1,144.7 994.7,167.6 979,172 		"/>
		<polygon fill="#BEA44A" points="976.1,166 968,154.6 951.8,146.3 959.7,162.5 969.2,168.7 976.8,168.7 		"/>
		<polygon fill="#BEA44A" points="972.6,193.2 973.8,192.7 979,185.7 987.3,178.9 1008,170.5 990.2,192.1 		"/>
		<polygon fill="#BEA44A" points="972,191.8 964.7,173.7 951,160.9 954.9,174.4 964.3,187.9 		"/>
		<polygon fill="#BEA44A" points="962.3,211.6 960.6,194.4 946.3,175.7 952.5,206.3 		"/>
		<polygon fill="#BEA44A" points="964.3,211.6 974.8,204.7 999.4,201.3 990.3,212.1 972.6,218.4 961.5,215 		"/>
		<polygon fill="#BEA44A" points="951,230.3 951,216.9 945.5,199.6 940.3,193.2 940.3,212.2 943.7,227.4 948.7,231.8 		"/>
		<polygon fill="#BEA44A" points="951,232.7 967.7,225.1 988.2,228.4 970.9,239.2 957.1,239.2 950.1,233.8 		"/>
		<polygon fill="#BEA44A" points="935.3,247.1 938.6,227.9 931.9,201.9 926.4,225.1 929.3,243.3 		"/>
		<polygon fill="#BEA44A" points="933.4,250.8 946.3,246.1 963.4,246.1 975,250.2 960.7,256.9 942,256.9 		"/>
		<polygon fill="#BEA44A" points="915.2,260.8 921,244.6 919.6,211.6 908.7,239.2 908.7,254 		"/>
		<polygon fill="#BEA44A" points="914.9,264 926.4,274.9 943.4,274.9 954.2,271 935.8,260.8 		"/>
		<path fill="#BEA44A" d="M944.5,37.6c-5.3-7.1-11-13.5-16.8-19.2l-4.4,2c6.1,5.8,12.1,12.5,17.7,19.9
			c23.3,30.9,36.7,68.9,36.7,104.4c0,38-13.2,71.2-38.2,96c-17.2,17.1-39.4,30-65.3,38.1l9.2,1.7c23.3-8.4,43.4-20.8,59.3-36.6
			c25.8-25.7,39.5-60,39.5-99.2C982.1,108.3,968.4,69.3,944.5,37.6z"/>
	</g>
	<g>
		<polygon fill="#BEA44A" points="76.7,0 75.2,16.1 70.5,30.4 68.7,31.5 68,17.5 		"/>
		<polygon fill="#BEA44A" points="99.9,1.1 83.3,11.3 76.3,23.5 86.9,20.9 95.1,13.2 		"/>
		<polygon fill="#BEA44A" points="72.4,31.5 87.2,27 98.1,27 85.3,33.4 73.2,34.8 		"/>
		<polygon fill="#BEA44A" points="59.9,43.3 62.4,29.5 62.4,6.2 53.7,32.2 56.5,48.5 		"/>
		<polygon fill="#BEA44A" points="91.6,42.2 78.4,50.5 68,51.7 57.5,48.5 69.1,44.1 		"/>
		<polygon fill="#BEA44A" points="48.7,62.6 50,51.7 49.3,37.4 41.8,18.5 39.5,49.3 48.1,63.8 		"/>
		<polygon fill="#BEA44A" points="51.2,62.5 60.3,58.3 84.1,58.3 75.4,64.3 61.4,67.9 50,63.8 		"/>
		<polygon fill="#BEA44A" points="40.6,79.5 38,56.1 29.4,36.6 28.6,67.9 39,84.2 		"/>
		<polygon fill="#BEA44A" points="77.3,75.5 60.8,73.8 42.1,82 42.1,84.2 50,88.1 65.8,84.7 		"/>
		<polygon fill="#BEA44A" points="70.9,94 50,95.3 35.6,103.6 49.3,106.7 		"/>
		<polygon fill="#BEA44A" points="34,102.2 32.6,89.3 27.5,77 18.6,65 17.9,77.6 22.2,94 33.2,105.3 		"/>
		<polygon fill="#BEA44A" points="29.5,123.4 27.3,111.4 22.3,99.4 9,87.5 15.8,113.9 29.5,125.6 		"/>
		<polygon fill="#BEA44A" points="32.5,123.2 42.1,115.6 64.2,113.4 49.5,126.1 36.2,129.2 32.5,125.6 		"/>
		<polygon fill="#BEA44A" points="27.9,149 23.6,137.2 17.9,127.4 7.7,119 9.5,131.5 13.7,143.4 27.9,150.7 		"/>
		<polygon fill="#BEA44A" points="30.1,146.3 40.1,136.2 60.5,126.9 45.3,146.3 		"/>
		<polygon fill="#BEA44A" points="29,170.3 15.9,151.9 0.9,144.7 13.3,167.6 29,172 		"/>
		<polygon fill="#BEA44A" points="31.9,166 40,154.6 56.2,146.3 48.3,162.5 38.7,168.7 31.2,168.7 		"/>
		<polygon fill="#BEA44A" points="35.4,193.2 34.1,192.7 29,185.7 20.7,178.9 0,170.5 17.8,192.1 		"/>
		<polygon fill="#BEA44A" points="36,191.8 43.2,173.7 56.9,160.9 53.1,174.4 43.7,187.9 		"/>
		<polygon fill="#BEA44A" points="45.7,211.6 47.4,194.4 61.7,175.7 55.4,206.3 		"/>
		<polygon fill="#BEA44A" points="43.7,211.6 33.2,204.7 8.6,201.3 17.7,212.1 35.4,218.4 46.5,215 		"/>
		<polygon fill="#BEA44A" points="56.9,230.3 56.9,216.9 62.5,199.6 67.7,193.2 67.7,212.2 64.3,227.4 59.3,231.8 		"/>
		<polygon fill="#BEA44A" points="56.9,232.7 40.2,225.1 19.8,228.4 37.1,239.2 50.8,239.2 57.9,233.8 		"/>
		<polygon fill="#BEA44A" points="72.7,247.1 69.4,227.9 76.1,201.9 81.6,225.1 78.7,243.3 		"/>
		<polygon fill="#BEA44A" points="74.6,250.8 61.7,246.1 44.6,246.1 33,250.2 47.3,256.9 65.9,256.9 		"/>
		<polygon fill="#BEA44A" points="92.8,260.8 87,244.6 88.4,211.6 99.3,239.2 99.3,254 		"/>
		<polygon fill="#BEA44A" points="93.1,264 81.6,274.9 64.5,274.9 53.8,271 72.2,260.8 		"/>
		<path fill="#BEA44A" d="M63.5,37.6c5.3-7.1,11-13.5,16.8-19.2l4.4,2C78.6,26.2,72.6,32.9,67,40.3c-23.3,30.9-36.7,68.9-36.7,104.4
			c0,38,13.2,71.2,38.2,96c17.2,17.1,39.4,30,65.3,38.1l-9.2,1.7c-23.3-8.4-43.4-20.8-59.3-36.6c-25.8-25.7-39.5-60-39.5-99.2
			C25.9,108.3,39.6,69.3,63.5,37.6z"/>
	</g>
	<g>
		<path fill="#BEA44A" d="M146,87V71.7h-8.4V87h-8.9V71.7h-11.6V63h11.6v-9.1h-11.6v-8.7h11.6V30.5h8.9v14.7h8.4V30.5h8.9v14.7H166
			v8.7h-11V63h11v8.7h-11V87H146z M137.7,53.9V63h8.4v-9.1H137.7z"/>
		<path fill="#BEA44A" d="M177,87v-4.4h2c1.6,0,2.9-0.3,3.7-0.8c0.8-0.6,1.2-1.9,1.2-4v-30c0-2.8-0.4-4.6-1.1-5.3
			c-0.8-0.7-2.9-1-6.5-1v-4.2c6.9-0.3,12.4-1.9,16.3-4.8h4.2v45.2c0,1.8,0.3,3.1,0.9,3.9c0.6,0.8,1.9,1.1,3.9,1.1h2V87H177z"/>
		<path fill="#BEA44A" d="M255.2,61.4v13.2c0,2.5,0.1,4.2,0.4,5c0.3,0.8,1.1,1.4,2.3,1.9c1.3,0.5,3.2,0.8,5.8,0.8
			c3.5,0,6.1-0.4,7.7-1.3s3.1-2.4,4.4-4.6s2.2-4.5,2.8-7h4.4L282.8,87h-49v-4.4h1c2.7,0,4.4-0.5,5.2-1.5s1.2-2.7,1.2-5.1V44.2
			c0-2.5-0.4-4.2-1.2-5.1c-0.8-1-2.6-1.4-5.2-1.4h-1v-4.3h45.7l0.8,13.9h-4.4c-0.8-2.4-1.7-4.4-2.6-5.8c-1-1.4-2-2.4-2.9-2.8
			c-1-0.4-2.7-0.6-5-0.6h-10v18.5h5c2.4,0,3.9-0.4,4.7-1.3c0.8-0.9,1.2-2.7,1.3-5.3h4.5v18.2h-4.5c0-0.3,0-0.6,0-0.8
			c0-1.5-0.3-2.9-1-4.2c-0.6-1.2-2.3-1.9-5-1.9L255.2,61.4L255.2,61.4z"/>
		<path fill="#BEA44A" d="M290.4,86.1V67.7h4.7c1.3,5.5,3.3,9.4,5.9,11.7c2.6,2.3,5.5,3.5,8.5,3.5c2.3,0,4.1-0.7,5.4-2s2-2.9,2-4.7
			c0-1.3-0.4-2.6-1.3-3.9c-0.8-1.3-2.8-2.7-6-4.3c-6.1-3-10.2-5.3-12.3-6.7c-2.1-1.4-3.9-3.2-5.1-5.4c-1.3-2.2-1.9-4.8-1.9-7.6
			c0-4.6,1.7-8.4,5-11.4s7.1-4.5,11.5-4.5c4.6,0,8.4,1.5,11.6,4.6c0.5-0.8,1-2,1.3-3.6h4.5v15.8h-4.4c-0.8-3.5-2.3-6.4-4.5-8.7
			s-4.7-3.4-7.5-3.4c-2.1,0-3.7,0.6-5,1.7c-1.2,1.2-1.8,2.6-1.8,4.4c0,1.3,0.4,2.6,1.2,3.7c0.8,1.1,1.9,2.1,3.2,2.8
			c1.3,0.8,4.2,2.1,8.5,4.2c3.9,1.8,6.8,3.5,8.7,4.9c1.9,1.5,3.4,3.3,4.4,5.5c1.1,2.2,1.6,4.6,1.6,7.1c0,4.7-1.8,8.7-5.3,11.8
			c-3.5,3.2-7.7,4.7-12.5,4.7c-2.8,0-5.5-0.6-8.1-1.7c-2.7-1.2-4.8-2.7-6.3-4.6c-0.6,1.2-1.1,2.6-1.3,4.4L290.4,86.1L290.4,86.1z"/>
		<path fill="#BEA44A" d="M386.9,66.4v20.1h-4.4c-0.5-2.1-1.3-3.8-2.3-5.1c-4.5,4.5-10.3,6.7-17.6,6.7c-8.3,0-15-2.7-19.9-8.1
			c-5-5.4-7.5-11.9-7.5-19.3s2.5-13.9,7.4-19.6s11.7-8.6,20.4-8.6c6.5,0,12,2.1,16.6,6.4c0.6-1.3,1.2-2.9,1.7-4.8h4.4l0.6,19.8h-4.4
			c-1.3-5.4-3.4-9.4-6.3-12.2s-6.4-4.1-10.5-4.1c-4.6,0-8.1,1.8-10.5,5.5c-2.3,3.6-3.5,9.3-3.5,17c0,5.4,0.4,9.7,1.3,12.9
			c0.8,3.2,2.5,5.6,5,7.3c2.5,1.7,5.2,2.6,8.2,2.6c3.9,0,7.4-1.4,10.4-4.1c3.1-2.7,5.3-6.9,6.6-12.4H386.9z"/>
		<path fill="#BEA44A" d="M404.8,72.5l-1,2.6c-0.7,1.9-1.1,3.2-1.1,4c0,1.3,0.4,2.2,1.3,2.7s2.3,0.8,4.3,0.8V87h-17.7v-4.4
			c3.4,0,6.2-2.9,8.5-8.6l16.5-41.6h4.6L437,73.9c1.7,4.1,3.2,6.6,4.5,7.4s2.6,1.2,3.9,1.2V87h-26.6v-4.4c2.4,0,3.9-0.2,4.5-0.7
			s0.9-1,0.9-1.8c0-0.6-0.2-1.5-0.7-2.5l-0.5-1.2l-1.5-3.9H404.8z M406.6,68h13l-6.7-16L406.6,68z"/>
		<path fill="#BEA44A" d="M466.7,63.3V76c0,2.5,0.4,4.2,1.2,5.1c0.8,1,2.6,1.4,5.2,1.4h1.2V87h-29.1v-4.4h0.9c2.7,0,4.4-0.5,5.2-1.5
			c0.8-1,1.2-2.7,1.2-5.1V44.3c0-2.5-0.4-4.2-1.2-5.1c-0.8-1-2.6-1.4-5.2-1.4h-1.3v-4.4l21.8-0.5c5.4,0,9.6,0.1,12.6,0.4
			c3,0.3,5.7,1.1,8.2,2.4c2.5,1.3,4.3,3.1,5.6,5.2c1.3,2.2,1.9,4.6,1.9,7.1c0,3.5-1.1,6.5-3.3,9c-2.2,2.5-4.9,4.1-8.1,4.9
			c-3.3,0.8-7.5,1.2-12.9,1.2h-3.9V63.3z M466.7,58.5h2.6c4.2,0,7-0.9,8.4-2.7s2.1-4.3,2.1-7.3c0-2.7-0.5-5-1.5-6.7
			s-2.3-2.8-3.9-3.3s-4.1-0.8-7.6-0.8v20.8H466.7z"/>
		<path fill="#BEA44A" d="M518.4,61.4v13.2c0,2.5,0.1,4.2,0.4,5c0.3,0.8,1.1,1.4,2.3,1.9c1.3,0.5,3.2,0.8,5.8,0.8
			c3.5,0,6.1-0.4,7.7-1.3c1.6-0.9,3.1-2.4,4.4-4.6c1.3-2.2,2.2-4.5,2.8-7h4.4L546,87h-49v-4.4h1c2.7,0,4.4-0.5,5.2-1.5
			c0.8-1,1.2-2.7,1.2-5.1V44.2c0-2.5-0.4-4.2-1.2-5.1c-0.8-1-2.6-1.4-5.2-1.4h-1v-4.3h45.7l0.8,13.9H539c-0.8-2.4-1.7-4.4-2.7-5.8
			c-1-1.4-2-2.4-2.9-2.8c-1-0.4-2.7-0.6-5-0.6h-10v18.5h5c2.4,0,3.9-0.4,4.7-1.3c0.8-0.9,1.2-2.7,1.3-5.3h4.5v18.2h-4.5
			c0-0.3,0-0.6,0-0.8c0-1.5-0.3-2.9-1-4.2c-0.6-1.2-2.3-1.9-5-1.9L518.4,61.4L518.4,61.4z"/>
		<path fill="#BEA44A" d="M592.5,63.3V76c0,2.5,0.4,4.2,1.3,5.1c0.8,1,2.6,1.4,5.2,1.4h0.9V87H571v-4.4h1.1c2.7,0,4.4-0.5,5.2-1.5
			s1.2-2.7,1.2-5.1V44.3c0-2.5-0.4-4.2-1.3-5.1c-0.8-1-2.6-1.4-5.2-1.4h-1v-4.4h21.5h4.8c4.8,0,8.3,0.2,10.5,0.5s4.4,1.1,6.5,2.3
			s3.8,2.8,5,4.9c1.2,2.1,1.8,4.3,1.8,6.7c0,6.4-3.6,10.7-10.8,13.1c1.9,1.2,4.9,5,9,11.4c3.2,4.9,5.4,7.9,6.8,8.9
			c1.3,1,2.8,1.5,4.4,1.5V87h-16.8c-1.5-1.8-4.4-6.4-8.5-13.8c-2.1-3.7-3.5-6.2-4.4-7.2c-0.8-1.1-1.7-1.8-2.6-2.1
			C597.4,63.5,595.4,63.4,592.5,63.3z M592.5,58.5c4.5,0.1,7.5-0.2,9-0.8c1.6-0.6,2.8-1.7,3.7-3.2s1.3-3.6,1.3-6.3
			c0-3.8-0.9-6.4-2.7-7.8c-1.8-1.4-4.8-2.2-9.2-2.2c-0.6,0-1.3,0-2.2,0v20.3H592.5z"/>
		<path fill="#BEA44A" d="M631.6,60c0-4.8,1.3-9.5,4-14.1s6.3-8,10.9-10.2c4.6-2.2,9.5-3.3,14.8-3.3c9.4,0,16.8,2.7,22.2,8.2
			c5.4,5.4,8,12.1,8,20c0,7.5-2.7,14-8,19.4c-5.4,5.4-12.6,8.1-21.8,8.1c-6.3,0-11.9-1.3-16.7-4s-8.3-6.2-10.3-10.7
			S631.6,64.4,631.6,60z M648.2,59.6c0,8.3,1.1,14.2,3.3,17.9c2.2,3.7,5.5,5.5,9.9,5.5c4.6,0,8-1.7,10.3-5s3.5-9.2,3.5-17.5
			c0-7.6-1.1-13.4-3.3-17.1c-2.2-3.8-5.6-5.7-10.4-5.7c-4.5,0-7.8,1.8-10,5.3C649.3,46.4,648.2,51.9,648.2,59.6z"/>
		<path fill="#BEA44A" d="M699.1,60c0-4.8,1.3-9.5,4-14.1s6.3-8,10.9-10.2c4.6-2.2,9.5-3.3,14.8-3.3c9.4,0,16.8,2.7,22.2,8.2
			c5.4,5.4,8,12.1,8,20c0,7.5-2.7,14-8,19.4c-5.4,5.4-12.6,8.1-21.8,8.1c-6.3,0-11.9-1.3-16.7-4s-8.3-6.2-10.3-10.7
			S699.1,64.4,699.1,60z M715.7,59.6c0,8.3,1.1,14.2,3.3,17.9c2.2,3.7,5.5,5.5,9.9,5.5c4.6,0,8-1.7,10.3-5s3.5-9.2,3.5-17.5
			c0-7.6-1.1-13.4-3.3-17.1c-2.2-3.8-5.6-5.7-10.4-5.7c-4.5,0-7.8,1.8-10,5.3C716.8,46.4,715.7,51.9,715.7,59.6z"/>
		<path fill="#BEA44A" d="M796.4,87l-19.9-41.8v27.7c0,2.5,0.2,4.3,0.5,5.5s1.1,2.2,2.4,3c1.3,0.8,2.8,1.2,4.6,1.2V87h-19.3v-4.4
			c1.7,0,3.2-0.4,4.4-1.3s2-1.9,2.3-3s0.4-3,0.4-5.5V44.5c0-2.7-0.5-4.5-1.4-5.4s-2.8-1.4-5.7-1.4v-4.4h21.5l16.5,35.2l16.7-35.2
			H841v4.4h-1.1c-2.7,0-4.4,0.5-5.2,1.5s-1.2,2.7-1.2,5.1V76c0,2.5,0.4,4.2,1.2,5.1c0.8,1,2.6,1.4,5.2,1.4h1.2V87h-29.2v-4.4h1.1
			c2.7,0,4.4-0.5,5.2-1.5s1.2-2.7,1.2-5.1V44.5L799.5,87H796.4z"/>
		<path fill="#BEA44A" d="M847.5,86.1V67.7h4.7c1.3,5.5,3.3,9.4,5.9,11.7c2.6,2.3,5.5,3.5,8.5,3.5c2.3,0,4.1-0.7,5.4-2s2-2.9,2-4.7
			c0-1.3-0.4-2.6-1.3-3.9c-0.8-1.3-2.8-2.7-6-4.3c-6.1-3-10.2-5.3-12.3-6.7s-3.8-3.2-5.1-5.4s-1.9-4.8-1.9-7.6c0-4.6,1.7-8.4,5-11.4
			s7.1-4.5,11.5-4.5c4.6,0,8.4,1.5,11.6,4.6c0.5-0.8,1-2,1.3-3.6h4.5v15.8H877c-0.8-3.5-2.3-6.4-4.5-8.7s-4.7-3.4-7.5-3.4
			c-2.1,0-3.7,0.6-5,1.7c-1.2,1.2-1.8,2.6-1.8,4.4c0,1.3,0.4,2.6,1.2,3.7c0.8,1.1,1.9,2.1,3.2,2.8c1.3,0.8,4.2,2.1,8.5,4.2
			c3.9,1.8,6.8,3.5,8.7,4.9c1.9,1.5,3.4,3.3,4.5,5.5c1.1,2.2,1.6,4.6,1.6,7.1c0,4.7-1.8,8.7-5.3,11.8c-3.5,3.2-7.7,4.7-12.5,4.7
			c-2.8,0-5.5-0.6-8.1-1.7c-2.7-1.2-4.8-2.7-6.3-4.6c-0.6,1.2-1.1,2.6-1.3,4.4L847.5,86.1L847.5,86.1z"/>
		<path fill="#BEA44A" d="M162,134.7v-4.4h28.4v4.4h-0.8c-2.7,0-4.4,0.5-5.2,1.5s-1.2,2.7-1.2,5.1V173c0,2.5,0.4,4.2,1.2,5.1
			c0.8,1,2.6,1.4,5.2,1.4h0.8v4.4H162v-4.4c2.8,0,4.7-0.4,5.7-1.3c0.9-0.9,1.4-2.6,1.4-5.3v-31.7c0-2.6-0.4-4.3-1.3-5.2
			C166.9,135.2,164.9,134.7,162,134.7z"/>
		<path fill="#BEA44A" d="M207.4,145.6v24.6c0,4,0.7,6.5,2.2,7.6c1.4,1.1,3.3,1.7,5.5,1.7v4.4H195v-4.4c1.7,0,3.2-0.4,4.5-1.2
			s2.1-1.8,2.4-2.9c0.3-1.1,0.5-2.8,0.5-5.2v-27.4c0-5.5-2.6-8.2-7.7-8.2v-4.4h18.1l29.4,32.8v-19.7c0-5.9-2.5-8.8-7.4-8.8v-4.4H254
			v4.4c-1.3,0-2.6,0.4-3.8,1.1c-1.2,0.7-2,1.7-2.4,2.8s-0.6,2.8-0.6,5v41.2h-5.1L207.4,145.6z"/>
		<path fill="#BEA44A" d="M327.2,166.2L327,184h-48.9v-4.4h0.8c2.7,0,4.4-0.5,5.2-1.5c0.8-1,1.2-2.7,1.2-5.1v-31.7
			c0-2.5-0.4-4.2-1.3-5.1c-0.8-1-2.6-1.4-5.2-1.4H278v-4.4h28.8v4.4h-1.1c-2.7,0-4.4,0.5-5.2,1.5c-0.8,1-1.2,2.7-1.2,5.1V172
			c0,2.3,0.1,3.8,0.4,4.5s1,1.4,2.1,1.9s3.1,0.8,5.9,0.8c4.7,0,8.2-1.2,10.5-3.5c2.3-2.4,3.9-5.5,4.7-9.5L327.2,166.2L327.2,166.2z"
			/>
		<path fill="#BEA44A" d="M330.7,157c0-4.8,1.3-9.5,4-14.1s6.3-8,10.9-10.2s9.5-3.3,14.8-3.3c9.4,0,16.8,2.7,22.2,8.2
			c5.4,5.4,8,12.1,8,20c0,7.5-2.7,14-8,19.4c-5.4,5.4-12.6,8.1-21.8,8.1c-6.3,0-11.9-1.3-16.7-4c-4.8-2.7-8.3-6.2-10.3-10.7
			C331.7,165.9,330.7,161.4,330.7,157z M347.3,156.6c0,8.3,1.1,14.2,3.3,17.9c2.2,3.7,5.5,5.5,9.9,5.5c4.6,0,8-1.7,10.3-5
			s3.5-9.2,3.5-17.5c0-7.6-1.1-13.4-3.3-17.1c-2.2-3.8-5.6-5.7-10.4-5.7c-4.5,0-7.8,1.8-10,5.3C348.4,143.4,347.3,148.9,347.3,156.6
			z"/>
		<path fill="#BEA44A" d="M398.9,183.1v-18.4h4.7c1.3,5.5,3.3,9.4,5.9,11.7s5.5,3.5,8.5,3.5c2.3,0,4.1-0.7,5.4-2s2-2.9,2-4.7
			c0-1.3-0.4-2.6-1.3-3.9c-0.8-1.3-2.8-2.7-6-4.3c-6.1-3-10.2-5.3-12.3-6.7c-2.1-1.4-3.9-3.2-5.1-5.4c-1.3-2.2-1.9-4.8-1.9-7.6
			c0-4.6,1.7-8.4,5-11.4s7.1-4.5,11.5-4.5c4.6,0,8.4,1.5,11.6,4.6c0.5-0.8,1-2,1.3-3.6h4.5v15.8h-4.4c-0.8-3.5-2.3-6.4-4.5-8.7
			s-4.7-3.4-7.5-3.4c-2.1,0-3.7,0.6-5,1.7c-1.2,1.2-1.8,2.6-1.8,4.4c0,1.3,0.4,2.6,1.2,3.7c0.8,1.1,1.9,2.1,3.2,2.8
			c1.3,0.8,4.2,2.1,8.5,4.2c3.9,1.8,6.8,3.5,8.7,4.9c1.9,1.5,3.4,3.3,4.4,5.5c1.1,2.2,1.6,4.6,1.6,7.1c0,4.7-1.8,8.7-5.3,11.8
			c-3.5,3.2-7.7,4.7-12.5,4.7c-2.8,0-5.5-0.6-8.1-1.7c-2.7-1.2-4.8-2.7-6.3-4.6c-0.6,1.2-1.1,2.6-1.3,4.4L398.9,183.1L398.9,183.1z"
			/>
		<path fill="#BEA44A" d="M472.9,169.5l-1,2.6c-0.7,1.9-1.1,3.2-1.1,4c0,1.3,0.4,2.2,1.3,2.7s2.3,0.8,4.3,0.8v4.4h-17.7v-4.4
			c3.4,0,6.2-2.9,8.5-8.6l16.5-41.6h4.6l16.8,41.5c1.7,4.1,3.2,6.6,4.5,7.4c1.3,0.8,2.6,1.2,3.9,1.2v4.4h-26.6v-4.4
			c2.4,0,3.9-0.2,4.5-0.7s0.9-1,0.9-1.8c0-0.6-0.2-1.5-0.7-2.5l-0.5-1.2l-1.5-3.9h-16.7V169.5z M474.6,165h13l-6.7-16L474.6,165z"/>
		<path fill="#BEA44A" d="M526.3,145.6v24.6c0,4,0.7,6.5,2.2,7.6c1.4,1.1,3.3,1.7,5.5,1.7v4.4h-20.1v-4.4c1.7,0,3.2-0.4,4.5-1.2
			s2.1-1.8,2.4-2.9c0.3-1.1,0.5-2.8,0.5-5.2v-27.4c0-5.5-2.6-8.2-7.7-8.2v-4.4h18.1l29.4,32.8v-19.7c0-5.9-2.5-8.8-7.4-8.8v-4.4H573
			v4.4c-1.3,0-2.6,0.4-3.8,1.1c-1.2,0.7-2,1.7-2.4,2.8s-0.6,2.8-0.6,5v41.2h-5.1L526.3,145.6z"/>
		<path fill="#BEA44A" d="M612.4,163.6v-4.4h25.1v4.4c-2,0.3-3.3,0.9-3.9,1.8c-0.6,0.8-0.9,2.6-0.9,5.2v11.2
			c-0.8-0.1-1.5-0.1-2.1-0.1c-2.6,0-7,0.7-13.2,2c-4.5,0.9-8.2,1.4-11.2,1.4c-8.1,0-14.7-2.7-19.8-8.2c-5-5.4-7.6-11.8-7.6-19
			c0-7.8,2.7-14.5,8-20.1s11.9-8.4,19.8-8.4c6.4,0,12,2,16.9,6.1c0.8-1.7,1.4-3.6,1.5-5.6h4.2l0.5,18.7h-4.3
			c-2.7-9.1-8-13.7-15.9-13.7c-4.7,0-8.3,1.7-10.7,5.2c-2.5,3.5-3.7,9.3-3.7,17.4c0,5.7,0.4,10.1,1.1,13.1c0.7,3,2.1,5.3,4.2,6.9
			c2.1,1.6,4.8,2.5,8,2.5c2.9,0,5.4-0.6,7.3-1.9s2.9-3.8,2.9-7.5v-2C618.5,165.5,616.5,163.8,612.4,163.6z"/>
		<path fill="#BEA44A" d="M662.4,158.4v13.2c0,2.5,0.1,4.2,0.4,5c0.3,0.8,1.1,1.4,2.3,1.9c1.3,0.5,3.2,0.8,5.8,0.8
			c3.5,0,6.1-0.4,7.7-1.3c1.6-0.9,3.1-2.4,4.4-4.6c1.3-2.2,2.2-4.5,2.8-7h4.4L690,184h-49v-4.4h1c2.7,0,4.4-0.5,5.2-1.5
			s1.2-2.7,1.2-5.1v-31.8c0-2.5-0.4-4.2-1.2-5.1c-0.8-1-2.6-1.4-5.2-1.4h-1v-4.3h45.7l0.8,13.9H683c-0.8-2.4-1.7-4.4-2.7-5.8
			c-1-1.4-2-2.4-2.9-2.8c-1-0.4-2.7-0.6-5-0.6h-10v18.5h5c2.4,0,3.9-0.4,4.7-1.3c0.8-0.9,1.2-2.7,1.3-5.3h4.5v18.2h-4.5
			c0-0.3,0-0.6,0-0.8c0-1.5-0.3-2.9-1-4.2c-0.6-1.2-2.3-1.9-5-1.9h-5V158.4z"/>
		<path fill="#BEA44A" d="M744,166.2l-0.2,17.8h-48.9v-4.4h0.8c2.7,0,4.4-0.5,5.2-1.5s1.2-2.7,1.2-5.1v-31.7c0-2.5-0.4-4.2-1.3-5.1
			c-0.8-1-2.6-1.4-5.2-1.4h-0.8v-4.4h28.8v4.4h-1.1c-2.7,0-4.4,0.5-5.2,1.5s-1.2,2.7-1.2,5.1V172c0,2.3,0.1,3.8,0.4,4.5
			c0.3,0.7,1,1.4,2.1,1.9s3.1,0.8,5.9,0.8c4.7,0,8.2-1.2,10.5-3.5c2.3-2.4,3.9-5.5,4.7-9.5L744,166.2L744,166.2z"/>
		<path fill="#BEA44A" d="M767.8,158.4v13.2c0,2.5,0.1,4.2,0.4,5c0.3,0.8,1.1,1.4,2.3,1.9c1.3,0.5,3.2,0.8,5.8,0.8
			c3.5,0,6.1-0.4,7.7-1.3c1.6-0.9,3.1-2.4,4.4-4.6c1.3-2.2,2.2-4.5,2.8-7h4.4l-0.4,17.6h-49v-4.4h1c2.7,0,4.4-0.5,5.2-1.5
			s1.2-2.7,1.2-5.1v-31.8c0-2.5-0.4-4.2-1.2-5.1c-0.8-1-2.6-1.4-5.2-1.4h-1v-4.3h45.7l0.8,13.9h-4.4c-0.8-2.4-1.7-4.4-2.7-5.8
			c-1-1.4-2-2.4-2.9-2.8c-1-0.4-2.7-0.6-5-0.6h-10v18.5h5c2.4,0,3.9-0.4,4.7-1.3c0.8-0.9,1.2-2.7,1.3-5.3h4.5v18.2h-4.5
			c0-0.3,0-0.6,0-0.8c0-1.5-0.3-2.9-1-4.2c-0.6-1.2-2.3-1.9-5-1.9h-4.9V158.4z"/>
		<path fill="#BEA44A" d="M803,183.1v-18.4h4.7c1.3,5.5,3.3,9.4,5.9,11.7c2.6,2.3,5.5,3.5,8.5,3.5c2.3,0,4.1-0.7,5.4-2s2-2.9,2-4.7
			c0-1.3-0.4-2.6-1.3-3.9c-0.8-1.3-2.8-2.7-6-4.3c-6.1-3-10.2-5.3-12.3-6.7s-3.8-3.2-5.1-5.4s-1.9-4.8-1.9-7.6c0-4.6,1.7-8.4,5-11.4
			s7.1-4.5,11.5-4.5c4.6,0,8.4,1.5,11.6,4.6c0.5-0.8,1-2,1.3-3.6h4.5v15.8h-4.4c-0.8-3.5-2.3-6.4-4.5-8.7s-4.7-3.4-7.5-3.4
			c-2.1,0-3.7,0.6-5,1.7c-1.2,1.2-1.8,2.6-1.8,4.4c0,1.3,0.4,2.6,1.2,3.7c0.8,1.1,1.9,2.1,3.2,2.8c1.3,0.8,4.2,2.1,8.5,4.2
			c3.9,1.8,6.8,3.5,8.7,4.9c1.9,1.5,3.4,3.3,4.5,5.5s1.6,4.6,1.6,7.1c0,4.7-1.8,8.7-5.3,11.8c-3.5,3.2-7.7,4.7-12.5,4.7
			c-2.8,0-5.5-0.6-8.1-1.7c-2.7-1.2-4.8-2.7-6.3-4.6c-0.6,1.2-1.1,2.6-1.3,4.4L803,183.1L803,183.1z"/>
	</g>
	<g>
		<g id="Owl_3_-60d18dcc-bc0f-4c0c-a5fb-27e0ccdb6efd-ce7e311f-a442-41c2-9b6c-84a97a128741">
			<path style="fill: var(--variable-color, #BE3538)" fill="#BE3538" d="M316.1,247.7c0,2-1.7,3.6-3.6,3.6c-2,0-3.6-1.7-3.6-3.6c0-2,1.7-3.6,3.6-3.6S316.1,245.7,316.1,247.7z"/>
			<path style="fill: var(--variable-color, #589442)" fill="#589442" d="M360.2,247.7c0,2-1.7,3.6-3.6,3.6c-2,0-3.6-1.7-3.6-3.6c0-2,1.7-3.6,3.6-3.6S360.2,245.7,360.2,247.7z"/>
			<path style="fill: var(--variable-color, #000)" fill="#000" d="M301.5,247.7c0,6,5,10.9,10.9,10.9s10.9-5,10.9-10.9c0-6-5-10.9-10.9-10.9S301.5,241.7,301.5,247.7z M305.1,247.7
				c0-4,3.3-7.3,7.3-7.3s7.3,3.3,7.3,7.3s-3.3,7.3-7.3,7.3S305.1,251.7,305.1,247.7z M345.6,247.7c0,6,5,10.9,10.9,10.9
				c6,0,10.9-5,10.9-10.9c0-6-5-10.9-10.9-10.9C350.6,236.8,345.6,241.7,345.6,247.7z M349.6,247.7c0-4,3.3-7.3,7.3-7.3
				s7.3,3.3,7.3,7.3s-3.3,7.3-7.3,7.3C352.6,255,349.6,251.7,349.6,247.7z"/>
			<path fill="none" d="M341.9,257.7c1.7,2.7,4.3,5,7.3,6.3c4.3,2,9,2.3,13.6,0.7c9.3-3.3,13.9-13.6,10.3-22.6
				c-3.3-9.3-13.6-13.9-22.6-10.3c-4.3,1.7-8,5-10,9.3c-1.3,3-1.7,6-1.3,9"/>
			<path style="fill: var(--variable-color, #FFD881)" fill="#FFD881" d="M349.6,228.8c2.3-1,6.4-2.8,8.7-2.8c-6.3-3-15.9-5.3-23.9-5.3s-16,2.6-22.3,5.6
				c11.6,0.3,21.6,12.5,22.2,23.8c0.3-2.7,2.2-8.2,3.6-10.5c2.7-5.6,5.3-8.6,10.6-10.6L349.6,228.8z"/>
			<path style="fill: var(--variable-color, #000)" fill="#000" d="M374.4,234.8c1-4.3,4.3-9,4.3-9h-14.6c-8.3-5.3-18.2-8.3-29.5-8.3c-11.6,0-21.9,3-30.2,8.3l-13.9,0.3c0,0,3.3,4.3,4.3,9
				c-2.7,3.6-4.3,8-4.3,12.9c0,12.3,10,22.2,22.2,22.2c7,0,13.3-3.3,17.2-8.3l5,7l4.3-7c2,2.7,5,5,8,6.3c5.3,2.3,11.3,2.7,16.9,0.7
				c11.3-4.3,17.2-16.9,12.9-28.5C376.5,238.4,375.7,236.9,374.4,234.8L374.4,234.8z M334.6,221.8c8,0,15.3,1.3,21.6,4.3
				c-2.3,0-4.6,0.3-7,1.3c-5.6,2-10,6-12.3,11.6c-1,2.3-1.7,5-2,7.6c-0.7-11.3-10.3-20.2-21.6-20.6
				C319.4,223.2,326.7,221.8,334.6,221.8L334.6,221.8z M327.3,258c-3.3,4.6-8.6,7.6-14.6,7.6c-9.6,0-17.6-8-17.6-17.6
				s8-17.6,17.6-17.6s17.6,7.6,17.6,17.6c0,0.7-0.1,1.1-0.1,1.9C329.8,252.9,329,255.3,327.3,258L327.3,258z M362.8,264.6
				c-4.3,1.7-9.3,1.3-13.6-0.7c-3-1.3-5.6-3.6-7.3-6.3c-0.7-1-1.3-2.3-2-3.6s-0.7-3-1-4.3c-0.3-3,0-6.3,1.3-9c2-4.3,5.6-7.6,10-9.3
				c9.3-3.3,19.2,1.3,22.6,10.3C376.8,251,371.8,261.3,362.8,264.6z"/>
		</g>
		<path style="fill: var(--variable-color, #589442)" fill="#589442" d="M607.6,221.5c0,2.3,2,4.3,4.3,4.3s4.3-2,4.3-4.3s-2-4.3-4.3-4.3S607.6,219.2,607.6,221.5z"/>
		<path style="fill: var(--variable-color, #000)" fill="#000" d="M405,221.2l-6.6,2.3v8.3H391v5.6h7v18.2c0,8.6,3,12.3,10.3,12.3c2,0,3.6-0.3,5.3-0.7h0.3v-6h-0.3
			c-1.3,0.3-2.7,0.7-3.3,0.7c-3.3,0-4.6-2-4.6-7v-17.6h8.3v-5.6h-8.3v-10.9L405,221.2L405,221.2z M427.2,237.4v-5.6h-6.6v35.5h7.3
			v-17.9c0-7.3,3-11.6,9-11.6c0.7,0,1.7,0,2.7,0.3h0.3v-6.6l-3-0.3C432.8,231.1,429.2,233.5,427.2,237.4L427.2,237.4z M478.6,230.8
			c-5,0-9,2.3-11.9,6.6v-5.6H460v49.8h7.3v-19.2c2.7,3.6,6.3,5.3,10.9,5.3c9,0,14.9-7.3,14.9-18.9
			C493.2,238.1,487.2,230.8,478.6,230.8z M476.6,262c-5.6,0-9.3-5-9.3-12.6s3.6-12.3,9.6-12.3c5.6,0,9,4.6,9,12.3
			C485.6,257,482.3,262,476.6,262L476.6,262z"/>
		<path style="fill: var(--variable-color, #589442)" fill="#589442" d="M514.1,230.8c-4.3,0-8.3,0.7-11.6,2.7h-0.3v6h0.7c3.3-2,6.6-3,9.6-3c5.3,0,8.3,3,8.3,8.3v0.3h-4
			c-11.9,0-18.2,4.3-18.2,11.9c0,6.3,4.6,10.6,11.3,10.6c5,0,8.6-2,11.6-5.6v5h6.6v-21.2C527.4,235.8,523.1,230.8,514.1,230.8
			L514.1,230.8z M520.4,252.4c0,6-3.6,10-9.3,10c-3.3,0-6-2.3-6-5.6c0-4.3,4-6.6,11.6-6.6h3.6L520.4,252.4L520.4,252.4z
			 M557.9,214.9v21.6c-2.7-3.6-6.3-5.6-10.9-5.6c-8.6,0-14.6,7.3-14.6,17.9c0,10.9,6,18.9,14.6,18.9c5,0,9-2.3,11.6-6.6v6h6.6V215
			L557.9,214.9L557.9,214.9z M548.6,261.7c-5.3,0-9-4.6-9-12.6c0-7.6,3.3-12.6,8.6-12.6c6,0,9.6,4.6,9.6,12.6
			C557.9,257,554.2,261.7,548.6,261.7z M597,231.8l-10.3,20.6l-9.3-20.6h-8l17.2,35.5l17.9-35.5L597,231.8L597,231.8z M614.9,231.8
			h-6.6v35.5h7.3v-35.5L614.9,231.8L614.9,231.8z M623.9,240.8c0,5,3.3,7.6,9.6,10.6c4,2,6,3,6,6s-2.7,4.6-6.6,4.6
			c-2.7,0-6-0.7-9-2.3l-0.7-0.3l-0.3,6.3h0.3c3,1.3,6,1.7,9.3,1.7c8.6,0,14.6-4.3,14.6-10.6c0-5.3-3.6-8.3-10-10.9
			c-4.6-2-6.3-3.3-6.3-5.6c0-2,2-3.6,5.3-3.6c3,0,6,0.7,8.6,2l0.7,0.3l0.3-6h-0.3c-3-1-6-1.3-8.6-1.3
			C629.2,231.5,623.9,235.1,623.9,240.8L623.9,240.8z M669.7,230.8c-10.9,0-17.6,7-17.6,18.6c0,11.6,6.6,18.6,17.6,18.6
			s17.6-7,17.6-18.6C687.3,237.8,680.6,230.8,669.7,230.8z M669.7,262c-6,0-10-5-10-12.6s4-12.9,10-12.9s10,5,10,12.9
			C679.6,257,676,262,669.7,262z M700.5,237.4v-5.6h-6.6v35.5h7.3v-17.9c0-7.3,3-11.6,9-11.6c0.7,0,1.7,0,2.7,0.3h0.3l0.3-7l-3-0.3
			C705.8,231.1,702.5,233.5,700.5,237.4L700.5,237.4z"/>
		<path style="fill: var(--variable-color, #000)" fill="#000" d="M452.7,231.8h-6.6v35.5h7v-35.5L452.7,231.8L452.7,231.8z M445.1,221.5c0,2.3,2,4.3,4.3,4.3s4.3-2,4.3-4.3s-2-4.3-4.3-4.3
			S445.1,219.2,445.1,221.5z"/>
	</g>
</g>
</symbol><symbol id="common-angle-down" viewBox="0 0 20 32">
<title>angle-down</title>
<path d="M8.938 22.019l-8.5-8.5c-0.588-0.587-0.588-1.537 0-2.119l1.412-1.413c0.588-0.587 1.538-0.587 2.119 0l6.025 6.025 6.025-6.025c0.588-0.587 1.538-0.587 2.119 0l1.412 1.413c0.588 0.587 0.588 1.537 0 2.119l-8.5 8.5c-0.575 0.588-1.525 0.588-2.113 0z"></path>
</symbol><symbol id="common-chevron-up" viewBox="0 0 28 32">
<title>chevron-up</title>
<path d="M15.061 8.158l12.146 12.146c0.586 0.586 0.586 1.536 0 2.121l-1.417 1.417c-0.585 0.585-1.533 0.586-2.119 0.003l-9.672-9.626-9.672 9.626c-0.586 0.583-1.534 0.582-2.119-0.003l-1.417-1.417c-0.586-0.586-0.586-1.536 0-2.121l12.146-12.146c0.586-0.586 1.535-0.586 2.121-0z"></path>
</symbol><symbol id="common-angle-up" viewBox="0 0 20 32">
<title>angle-up</title>
<path d="M11.063 9.981l8.5 8.5c0.588 0.587 0.588 1.537 0 2.119l-1.412 1.413c-0.588 0.587-1.538 0.587-2.119 0l-6.031-6.019-6.025 6.025c-0.587 0.588-1.537 0.588-2.119 0l-1.419-1.412c-0.588-0.588-0.588-1.538 0-2.119l8.5-8.5c0.588-0.594 1.537-0.594 2.125-0.006z"></path>
</symbol><symbol id="common-exclamation-triangle" viewBox="0 0 36 32">
<title>exclamation-triangle</title>
<path d="M35.595 27.501c1.154 2-0.294 4.499-2.599 4.499h-29.993c-2.309 0-3.75-2.503-2.599-4.499l14.997-26.002c1.154-2.001 4.045-1.997 5.197 0zM18 22.125c-1.588 0-2.875 1.287-2.875 2.875s1.287 2.875 2.875 2.875 2.875-1.287 2.875-2.875-1.287-2.875-2.875-2.875zM15.27 11.791l0.464 8.5c0.022 0.398 0.351 0.709 0.749 0.709h3.034c0.398 0 0.727-0.311 0.749-0.709l0.464-8.5c0.023-0.43-0.319-0.791-0.749-0.791h-3.962c-0.43 0-0.772 0.361-0.749 0.791z"></path>
</symbol><symbol id="common-question-circle" viewBox="0 0 32 32">
<title>question-circle</title>
<path d="M31.5 16c0 8.562-6.94 15.5-15.5 15.5s-15.5-6.938-15.5-15.5c0-8.557 6.94-15.5 15.5-15.5s15.5 6.943 15.5 15.5zM16.416 5.625c-3.406 0-5.578 1.435-7.284 3.985-0.221 0.33-0.147 0.776 0.17 1.016l2.169 1.644c0.325 0.247 0.789 0.188 1.042-0.133 1.117-1.416 1.882-2.237 3.581-2.237 1.277 0 2.856 0.822 2.856 2.060 0 0.936-0.773 1.417-2.033 2.123-1.47 0.824-3.416 1.85-3.416 4.416v0.25c0 0.414 0.336 0.75 0.75 0.75h3.5c0.414 0 0.75-0.336 0.75-0.75v-0.083c0-1.779 5.199-1.853 5.199-6.667 0-3.625-3.76-6.375-7.283-6.375zM16 21.125c-1.585 0-2.875 1.29-2.875 2.875s1.29 2.875 2.875 2.875 2.875-1.29 2.875-2.875c0-1.585-1.29-2.875-2.875-2.875z"></path>
</symbol><symbol id="common-lock" viewBox="0 0 28 32">
<title>lock</title>
<path d="M25 14c1.656 0 3 1.344 3 3v12c0 1.656-1.344 3-3 3h-22c-1.656 0-3-1.344-3-3v-12c0-1.656 1.344-3 3-3h1.5v-4.5c0-5.237 4.262-9.5 9.5-9.5s9.5 4.263 9.5 9.5v4.5h1.5zM18.5 14v-4.5c0-2.481-2.019-4.5-4.5-4.5s-4.5 2.019-4.5 4.5v4.5h9z"></path>
</symbol><symbol id="common-chevron-right" viewBox="0 0 20 32">
<title>chevron-right</title>
<path d="M17.842 17.061l-12.146 12.146c-0.586 0.586-1.536 0.586-2.121 0l-1.417-1.417c-0.585-0.585-0.586-1.533-0.002-2.119l9.626-9.672-9.626-9.672c-0.583-0.586-0.582-1.534 0.002-2.119l1.417-1.417c0.586-0.586 1.536-0.586 2.121 0l12.146 12.146c0.586 0.586 0.586 1.535 0 2.121z"></path>
</symbol><symbol id="common-instagram" viewBox="0 0 24 28">
  <title>instagram</title>
  <path d="M16 14c0-2.203-1.797-4-4-4s-4 1.797-4 4 1.797 4 4 4 4-1.797 4-4zM18.156 14c0 3.406-2.75 6.156-6.156 6.156s-6.156-2.75-6.156-6.156 2.75-6.156 6.156-6.156 6.156 2.75 6.156 6.156zM19.844 7.594c0 0.797-0.641 1.437-1.437 1.437s-1.437-0.641-1.437-1.437 0.641-1.437 1.437-1.437 1.437 0.641 1.437 1.437zM12 4.156c-1.75 0-5.5-0.141-7.078 0.484-0.547 0.219-0.953 0.484-1.375 0.906s-0.688 0.828-0.906 1.375c-0.625 1.578-0.484 5.328-0.484 7.078s-0.141 5.5 0.484 7.078c0.219 0.547 0.484 0.953 0.906 1.375s0.828 0.688 1.375 0.906c1.578 0.625 5.328 0.484 7.078 0.484s5.5 0.141 7.078-0.484c0.547-0.219 0.953-0.484 1.375-0.906s0.688-0.828 0.906-1.375c0.625-1.578 0.484-5.328 0.484-7.078s0.141-5.5-0.484-7.078c-0.219-0.547-0.484-0.953-0.906-1.375s-0.828-0.688-1.375-0.906c-1.578-0.625-5.328-0.484-7.078-0.484zM24 14c0 1.656 0.016 3.297-0.078 4.953-0.094 1.922-0.531 3.625-1.937 5.031s-3.109 1.844-5.031 1.937c-1.656 0.094-3.297 0.078-4.953 0.078s-3.297 0.016-4.953-0.078c-1.922-0.094-3.625-0.531-5.031-1.937s-1.844-3.109-1.937-5.031c-0.094-1.656-0.078-3.297-0.078-4.953s-0.016-3.297 0.078-4.953c0.094-1.922 0.531-3.625 1.937-5.031s3.109-1.844 5.031-1.937c1.656-0.094 3.297-0.078 4.953-0.078s3.297-0.016 4.953 0.078c1.922 0.094 3.625 0.531 5.031 1.937s1.844 3.109 1.937 5.031c0.094 1.656 0.078 3.297 0.078 4.953z"></path>
</symbol><symbol id="common-key" viewBox="0 0 27.2 27.2">
<path d="m23.3 11.5c-2.1 2.1-5.6 2.1-7.7 0s-2.1-5.6 0-7.7 5.6-2.1 7.7 0c2.2 2.2 2.2 5.6 0 7.7zm1.6-9.2c-3-3-7.9-3-10.9 0-2.6 2.6-3 6.7-1 9.7l-12.6 11.4c-0.5 0.4-0.5 1.1-0.1 1.6 0.4 0.4 1.1 0.5 1.6 0.1l1.3-1.2 2.6 2.9c0.4 0.5 1.1 0.5 1.6 0.1s0.5-1.1 0.1-1.6l-2.6-2.9 0.6-0.6 1.8 1.9c0.4 0.5 1.1 0.5 1.6 0.1s0.5-1.1 0.1-1.6l-1.7-1.9 0.6-0.6 2.6 2.9c0.4 0.5 1.1 0.5 1.6 0.1s0.5-1.1 0.1-1.6l-2.6-2.9 5.1-4.6c3 2.5 7.5 2.3 10.3-0.5 2.9-3 2.9-7.8-0.1-10.8z"/>
</symbol><symbol id="common-envelope" viewBox="0 0 32 32">
<title>envelope</title>
<path d="M31.394 11.925c0.244-0.194 0.606-0.012 0.606 0.294v12.781c0 1.656-1.344 3-3 3h-26c-1.656 0-3-1.344-3-3v-12.775c0-0.313 0.356-0.488 0.606-0.294 1.4 1.087 3.256 2.469 9.631 7.1 1.319 0.963 3.544 2.988 5.763 2.975 2.231 0.019 4.5-2.050 5.769-2.975 6.375-4.631 8.225-6.019 9.625-7.106zM16 20c-1.45 0.025-3.537-1.825-4.588-2.588-8.294-6.019-8.925-6.55-10.837-8.044-0.362-0.288-0.575-0.719-0.575-1.181v-1.188c0-1.656 1.344-3 3-3h26c1.656 0 3 1.344 3 3v1.188c0 0.463-0.213 0.9-0.575 1.181-1.912 1.5-2.544 2.025-10.837 8.044-1.050 0.762-3.137 2.613-4.588 2.588z"></path>
</symbol><symbol id="common-caret-up" viewBox="0 0 20 32">
<title>caret-up</title>
<path d="M18.041 22h-16.083c-1.114 0-1.671-1.346-0.884-2.134l8.041-8.041c0.488-0.488 1.28-0.488 1.768 0l8.041 8.041c0.788 0.787 0.23 2.134-0.884 2.134z"></path>
</symbol><symbol id="common-location-arrow" viewBox="0 0 32 32">
<title>location-arrow</title>
<path d="M27.782 0.22c2.399-1 4.998 1.599 3.998 3.998l-11.994 25.986c-1.399 2.999-5.797 1.999-5.797-1.199v-10.994h-10.994c-3.198 0-4.197-4.398-1.199-5.797z"></path>
</symbol><symbol id="common-sign-out-alt" viewBox="0 0 32 32">
<title>sign-out-alt</title>
<path d="M31.063 17.063l-10.5 10.5c-0.938 0.938-2.563 0.281-2.563-1.063v-6h-8.5c-0.831 0-1.5-0.669-1.5-1.5v-6c0-0.831 0.669-1.5 1.5-1.5h8.5v-6c0-1.338 1.619-2 2.563-1.063l10.5 10.5c0.581 0.588 0.581 1.537 0 2.125zM12 27.25c0 0.412-0.338 0.75-0.75 0.75h-5.25c-3.313 0-6-2.688-6-6v-12c0-3.313 2.688-6 6-6h5.25c0.412 0 0.75 0.338 0.75 0.75v2.5c0 0.412-0.338 0.75-0.75 0.75h-5.25c-1.106 0-2 0.894-2 2v12c0 1.106 0.894 2 2 2h5.25c0.412 0 0.75 0.338 0.75 0.75v2.5z"></path>
</symbol><symbol id="common-user-plus" viewBox="0 0 40 32">
<title>user-plus</title>
<path d="M39 13c0.55 0 1 0.45 1 1v2c0 0.55-0.45 1-1 1h-4v4c0 0.55-0.45 1-1 1h-2c-0.55 0-1-0.45-1-1v-4h-4c-0.55 0-1-0.45-1-1v-2c0-0.55 0.45-1 1-1h4v-4c0-0.55 0.45-1 1-1h2c0.55 0 1 0.45 1 1v4h4zM14 16c-4.419 0-8-3.581-8-8s3.581-8 8-8 8 3.581 8 8-3.581 8-8 8zM19.6 18c4.637 0 8.4 3.762 8.4 8.4v2.6c0 1.656-1.344 3-3 3h-22c-1.656 0-3-1.344-3-3v-2.6c0-4.637 3.763-8.4 8.4-8.4h1.044c1.394 0.637 2.931 1 4.556 1s3.169-0.363 4.556-1h1.044z"></path>
</symbol><symbol id="common-angle-double-right" viewBox="0 0 28 32">
<title>angle-double-right</title>
<path d="M14.019 17.063l-8.5 8.5c-0.587 0.588-1.537 0.588-2.119 0l-1.413-1.412c-0.587-0.588-0.587-1.538 0-2.119l6.025-6.025-6.025-6.025c-0.587-0.588-0.587-1.538 0-2.119l1.406-1.425c0.588-0.588 1.538-0.588 2.119 0l8.5 8.5c0.594 0.588 0.594 1.537 0.006 2.125zM26.019 14.938c0.588 0.588 0.588 1.537 0 2.113l-8.5 8.5c-0.581 0.588-1.531 0.588-2.119 0l-1.413-1.412c-0.587-0.581-0.587-1.531 0-2.119l6.025-6.025-6.025-6.025c-0.587-0.581-0.587-1.531 0-2.119l1.413-1.412c0.581-0.588 1.531-0.588 2.119 0z"></path>
</symbol><symbol id="common-calendar-alt-r" viewBox="0 0 28 32">
<title>calendar-alt-r</title>
<path d="M9.25 18h-2.5c-0.412 0-0.75-0.338-0.75-0.75v-2.5c0-0.412 0.338-0.75 0.75-0.75h2.5c0.412 0 0.75 0.338 0.75 0.75v2.5c0 0.412-0.338 0.75-0.75 0.75zM16 17.25c0 0.412-0.338 0.75-0.75 0.75h-2.5c-0.412 0-0.75-0.338-0.75-0.75v-2.5c0-0.412 0.338-0.75 0.75-0.75h2.5c0.412 0 0.75 0.338 0.75 0.75v2.5zM22 17.25c0 0.412-0.338 0.75-0.75 0.75h-2.5c-0.412 0-0.75-0.338-0.75-0.75v-2.5c0-0.412 0.338-0.75 0.75-0.75h2.5c0.412 0 0.75 0.338 0.75 0.75v2.5zM16 23.25c0 0.412-0.338 0.75-0.75 0.75h-2.5c-0.412 0-0.75-0.338-0.75-0.75v-2.5c0-0.412 0.338-0.75 0.75-0.75h2.5c0.412 0 0.75 0.338 0.75 0.75v2.5zM10 23.25c0 0.412-0.338 0.75-0.75 0.75h-2.5c-0.412 0-0.75-0.338-0.75-0.75v-2.5c0-0.412 0.338-0.75 0.75-0.75h2.5c0.412 0 0.75 0.338 0.75 0.75v2.5zM22 23.25c0 0.412-0.338 0.75-0.75 0.75h-2.5c-0.412 0-0.75-0.338-0.75-0.75v-2.5c0-0.412 0.338-0.75 0.75-0.75h2.5c0.412 0 0.75 0.338 0.75 0.75v2.5zM28 7v22c0 1.656-1.344 3-3 3h-22c-1.656 0-3-1.344-3-3v-22c0-1.656 1.344-3 3-3h3v-3.25c0-0.412 0.338-0.75 0.75-0.75h2.5c0.412 0 0.75 0.338 0.75 0.75v3.25h8v-3.25c0-0.412 0.338-0.75 0.75-0.75h2.5c0.412 0 0.75 0.338 0.75 0.75v3.25h3c1.656 0 3 1.344 3 3zM25 28.625v-18.625h-22v18.625c0 0.206 0.169 0.375 0.375 0.375h21.25c0.206 0 0.375-0.169 0.375-0.375z"></path>
</symbol><symbol id="common-star-half" viewBox="0 0 36 32">
<title>star-half</title>
<path d="M18 0v27.475l-8.169 4.288c-1.462 0.769-3.181-0.475-2.9-2.106l1.563-9.094-6.606-6.438c-1.188-1.156-0.531-3.175 1.106-3.412l9.131-1.325 4.081-8.275c0.369-0.744 1.081-1.113 1.794-1.113z"></path>
</symbol><symbol id="common-caret-right" viewBox="0 0 12 32">
<title>caret-right</title>
<path d="M0 24.041v-16.083c0-1.114 1.346-1.671 2.134-0.884l8.041 8.041c0.488 0.488 0.488 1.28 0 1.768l-8.041 8.041c-0.787 0.788-2.134 0.23-2.134-0.884z"></path>
</symbol><symbol id="common-map-marker-alt" viewBox="0 0 24 32">
<title>map-marker-alt</title>
<path d="M10.767 31.354c-9.081-13.165-10.767-14.516-10.767-19.354 0-6.627 5.373-12 12-12s12 5.373 12 12c0 4.838-1.686 6.189-10.767 19.354-0.596 0.861-1.871 0.861-2.467 0zM12 17c2.761 0 5-2.239 5-5s-2.239-5-5-5-5 2.239-5 5 2.239 5 5 5z"></path>
</symbol>
<symbol id="common-map-marker-reverse-alt" viewBox="0 0 32 32">
<path d="M16 0c-7.218 0-13.091 5.751-13.091 12.82v0.354c0 3.575 2.093 7.741 6.221 12.382 2.993 3.364 5.943 5.71 6.067 5.809l0.803 0.635 0.803-0.635c0.124-0.098 3.075-2.444 6.067-5.809 4.128-4.641 6.221-8.807 6.221-12.382v-0.354c0-7.069-5.873-12.82-13.091-12.82zM26.537 13.174c0 6.042-7.949 13.355-10.537 15.575-2.588-2.221-10.537-9.534-10.537-15.575v-0.354c0-5.689 4.727-10.318 10.537-10.318s10.537 4.629 10.537 10.318v0.354z"></path>
<path d="M20.364 13.091c0 2.41-1.954 4.364-4.364 4.364s-4.364-1.954-4.364-4.364c0-2.41 1.954-4.364 4.364-4.364s4.364 1.954 4.364 4.364z"></path>
</symbol>
<symbol id="common-share-alt" viewBox="0 0 28 32">
<title>share-alt</title>
<path d="M22 20c3.314 0 6 2.686 6 6s-2.686 6-6 6-6-2.686-6-6v-0.002c0-0.363 0.064-0.946 0.142-1.301l-6.405-4.003c-1.025 0.817-2.324 1.306-3.737 1.306-3.314 0-6-2.686-6-6s2.686-6 6-6c1.413 0 2.712 0.489 3.737 1.306l6.405-4.003c-0.093-0.419-0.142-0.855-0.142-1.303 0-3.314 2.686-6 6-6s6 2.686 6 6-2.686 6-6 6c-1.413 0-2.712-0.489-3.737-1.306l-6.405 4.003c0.079 0.355 0.142 0.939 0.142 1.303s-0.064 0.947-0.142 1.303l6.405 4.003c1.025-0.817 2.324-1.306 3.737-1.306z"></path>
</symbol><symbol id="common-plus" viewBox="0 0 28 32">
<title>plus</title>
<path d="M26 13c1.104 0 2 0.896 2 2v2c0 1.104-0.896 2-2 2h-9v9c0 1.104-0.896 2-2 2h-2c-1.104 0-2-0.896-2-2v-9h-9c-1.104 0-2-0.896-2-2v-2c0-1.104 0.896-2 2-2h9v-9c0-1.104 0.896-2 2-2h2c1.104 0 2 0.896 2 2v9h9z"></path>
</symbol><symbol id="common-check" viewBox="0 0 32 32">
<title>check</title>
<path d="M10.869 27.463l-10.4-10.4c-0.625-0.625-0.625-1.638 0-2.263l2.263-2.263c0.625-0.625 1.638-0.625 2.263 0l7.006 7.006 15.006-15.006c0.625-0.625 1.638-0.625 2.263 0l2.263 2.263c0.625 0.625 0.625 1.638 0 2.263l-18.4 18.4c-0.625 0.625-1.638 0.625-2.263-0z"></path>
</symbol><symbol id="common-angle-right" viewBox="0 0 16 32">
<title>angle-right</title>
<path d="M14.019 17.063l-8.5 8.5c-0.587 0.588-1.537 0.588-2.119 0l-1.413-1.412c-0.587-0.588-0.587-1.538 0-2.119l6.025-6.025-6.025-6.025c-0.587-0.588-0.587-1.538 0-2.119l1.406-1.425c0.588-0.588 1.538-0.588 2.119 0l8.5 8.5c0.594 0.588 0.594 1.537 0.006 2.125z"></path>
</symbol><symbol id="common-close" viewBox="0 0 32 32">
<title>close</title>
<path d="m31.873455,25.593685c0,0.660451 -0.26681,1.319212 -0.749119,1.793858l-3.634424,3.589406c-0.480599,0.474646 -1.149333,0.73984 -1.816357,0.73984s-1.335758,-0.263505 -1.816357,-0.73984l-7.857198,-7.759873l-7.857198,7.759873c-0.480599,0.474646 -1.149333,0.73984 -1.816357,0.73984s-1.335758,-0.263505 -1.816357,-0.73984l-3.634424,-3.589406c-0.480599,-0.474646 -0.749119,-1.135097 -0.749119,-1.793858s0.26681,-1.319212 0.749119,-1.793858l7.857198,-7.759873l-7.857198,-7.759873c-0.480599,-0.474646 -0.749119,-1.135097 -0.749119,-1.793858s0.26681,-1.319212 0.749119,-1.793858l3.634424,-3.589406c0.480599,-0.474646 1.149333,-0.73984 1.816357,-0.73984s1.335758,0.263505 1.816357,0.73984l7.857198,7.759873l7.857198,-7.759873c0.480599,-0.474646 1.149333,-0.73984 1.816357,-0.73984s1.335758,0.263505 1.816357,0.73984l3.634424,3.589406c0.480599,0.474646 0.749119,1.135097 0.749119,1.793858s-0.26681,1.319212 -0.749119,1.793858l-7.857198,7.759873l7.857198,7.759873c0.480599,0.474646 0.749119,1.135097 0.749119,1.793858z"></path>
</symbol><symbol id="common-child" viewBox="0 0 24 32">
<title>child</title>
<path d="M7.5 4.5c0-2.485 2.015-4.5 4.5-4.5s4.5 2.015 4.5 4.5c0 2.485-2.015 4.5-4.5 4.5s-4.5-2.015-4.5-4.5zM23.414 4.586c0.781 0.781 0.781 2.047 0 2.828l-5.914 5.914v16.672c0 1.105-0.895 2-2 2h-1c-1.105 0-2-0.895-2-2v-7h-1v7c0 1.105-0.895 2-2 2h-1c-1.105 0-2-0.895-2-2v-16.672l-5.914-5.914c-0.781-0.781-0.781-2.047 0-2.828s2.047-0.781 2.828 0l5.414 5.414h6.343l5.414-5.414c0.781-0.781 2.047-0.781 2.828 0z"></path>
</symbol><symbol id="common-image" viewBox="0 0 32 32">
<title>image</title>
<path d="M29 28h-26c-1.657 0-3-1.343-3-3v-18c0-1.657 1.343-3 3-3h26c1.657 0 3 1.343 3 3v18c0 1.657-1.343 3-3 3zM7 7.5c-1.933 0-3.5 1.567-3.5 3.5s1.567 3.5 3.5 3.5 3.5-1.567 3.5-3.5-1.567-3.5-3.5-3.5zM4 24h24v-7l-5.47-5.47c-0.293-0.293-0.768-0.293-1.061 0l-8.47 8.47-3.47-3.47c-0.293-0.293-0.768-0.293-1.061 0l-4.47 4.47v3z"></path>
</symbol><symbol id="common-blog-logo" viewBox="0 0 116.5 35.9">
	<path fill="#F7942F" d="m57.7 33.2c-1.8-1.8-2.7-4.1-2.7-6.7s0.9-4.8 2.8-6.7c1.8-1.9 4.1-2.8 6.7-2.8s4.8 0.9 6.7 2.8c1.9 1.8 2.8 4 2.8 6.7 0 2.6-0.9 4.9-2.8 6.7-1.8 1.8-4 2.7-6.7 2.7s-5-0.9-6.8-2.7zm10.1-3.4c0.9-0.9 1.4-2.1 1.4-3.4s-0.5-2.4-1.4-3.3-2-1.4-3.3-1.4-2.4 0.5-3.4 1.4c-0.9 0.9-1.4 2-1.4 3.3s0.5 2.4 1.4 3.4c0.9 0.9 2.1 1.4 3.4 1.4 1.2 0 2.3-0.5 3.3-1.4z"/>
	<path fill="#F7942F" d="m79 33.2c-1.8-1.8-2.7-4.1-2.7-6.7v-9.5h4.7v9.5c0 1.3 0.5 2.4 1.4 3.4 0.9 0.9 2.1 1.4 3.4 1.4s2.4-0.5 3.3-1.4 1.4-2.1 1.4-3.4v-9.5h4.7v9.5c0 2.6-0.9 4.9-2.8 6.7-1.8 1.8-4 2.7-6.7 2.7-2.6 0-4.8-0.9-6.7-2.7z"/>
	<path fill="#F7942F" d="M104.7,35.9V21.7h-7.1V17h19v4.7h-7.1v14.2H104.7z"/>


	<path fill="#010101" d="m28.2 21.1c0-5 4.1-9.1 9.1-9.1s9.1 4.1 9.1 9.1c0 2.3-0.9 4.4-2.2 6l2.9 5.2c3.1-2.7 5.1-6.7 5.1-11.1-0.2-8.2-6.8-14.9-15-14.9s-14.7 6.7-14.7 14.8c0 4.5 2 8.5 5.1 11.2l2.9-5.2c-1.5-1.5-2.3-3.6-2.3-6z"/>
	<path fill="#F69120" d="m40 26.2c1.8-1 3-2.9 3-5.1 0-3.2-2.6-5.8-5.8-5.8s-5.8 2.6-5.8 5.8c0 2.3 1.4 4.3 3.3 5.2l-4.4 7.9c2.1 1.1 4.4 1.7 6.9 1.7s4.9-0.6 6.9-1.7l-4.1-8z"/>

	<path fill="#010101" d="m20.6 21.4c0-2 0.4-4 1-5.8-1-1-2.1-1.9-3.4-2.5-1.3-0.7-2.8-1.1-4.3-1.3 0.3-0.6 0.6-1.1 0.9-1.6s0.5-1 0.8-1.4c0.3-0.5 0.5-0.9 0.8-1.4s0.6-1 0.9-1.6 0.7-1.3 1.1-2c0.6-0.8 1.1-1.7 1.6-2.7 0 0 0.1-0.1 0.1-0.3v-0.3c0-0.4-0.3-0.5-0.9-0.5h-6.8c-0.4 0-0.7 0.1-1 0.3-0.2 0.2-0.4 0.4-0.6 0.8-1.4 2.7-2.7 5-3.8 6.9-1 1.9-1.9 3.4-2.6 4.7-0.7 1.2-1.2 2.2-1.6 2.9s-0.7 1.2-0.8 1.5c-0.2 0.3-0.3 0.5-0.3 0.6s-0.1 0.1-0.1 0.1c-1 1.8-1.5 3.7-1.5 5.8v0.8c0 0.3 0 0.6 0.1 0.8 0.2 1.6 0.6 3 1.3 4.3s1.6 2.4 2.7 3.4c1.1 0.9 2.4 1.7 3.8 2.2s2.9 0.8 4.5 0.8c1.7 0 3.4-0.3 4.9-0.9s2.8-1.5 4-2.6c0.7-0.7 1.3-1.4 1.8-2.2-1.7-2.7-2.6-5.7-2.6-8.8zm-4.5 4.2c-0.2 0.5-0.5 1-0.8 1.4s-0.8 0.7-1.3 0.9-1.1 0.3-1.7 0.3-1.2-0.1-1.7-0.3-0.9-0.5-1.3-0.9c-0.3-0.4-0.6-0.9-0.8-1.4s-0.3-1.1-0.3-1.8c0-0.6 0.1-1.2 0.3-1.7s0.5-1 0.8-1.4 0.8-0.7 1.3-1c0.5-0.2 1-0.4 1.7-0.4 0.6 0 1.2 0.1 1.7 0.4 0.5 0.2 0.9 0.6 1.3 1 0.3 0.4 0.6 0.9 0.8 1.4s0.3 1.1 0.3 1.7-0.1 1.2-0.3 1.8z"/>
	<path d="m78.4 0h-22c-0.8 0-1.4 0.6-1.4 1.4v13.4c0 0.6 0.7 0.9 1.2 0.5l2.5-2.5h19.7c0.8 0 1.4-0.6 1.4-1.4v-10c0-0.8-0.7-1.4-1.4-1.4z"/>

	<path fill="#FFFFFF" d="m57.6 3.9v-0.1h0.1 2.4c0.2 0 0.4 0 0.6 0.1s0.3 0.2 0.5 0.3c0.1 0.1 0.3 0.3 0.3 0.5 0.1 0.2 0.1 0.4 0.1 0.6s0 0.3-0.1 0.5-0.1 0.3-0.2 0.4c0.2 0.2 0.3 0.3 0.4 0.6 0.1 0.2 0.2 0.4 0.2 0.7 0 0.2 0 0.4-0.1 0.6s-0.2 0.4-0.3 0.5-0.3 0.3-0.5 0.3c-0.2 0.1-0.4 0.1-0.7 0.1h-2.6-0.1v-0.1-5zm2.7 1.4v-0.2c0-0.1-0.1-0.1-0.1-0.2 0 0-0.1-0.1-0.2-0.1h-0.2-0.8v1h0.8 0.2c0.1 0 0.1-0.1 0.2-0.1 0 0 0.1-0.1 0.1-0.2v-0.2zm0.2 2.1v-0.2c0-0.1-0.1-0.1-0.1-0.2s-0.1-0.1-0.2-0.1-0.1-0.1-0.2-0.1h-1v1.2h0.9c0.1 0 0.2 0 0.2-0.1 0.1 0 0.1-0.1 0.2-0.1 0.1-0.1 0.1-0.1 0.1-0.2 0.1-0.1 0.1-0.2 0.1-0.2z"/>
	<path fill="#FFFFFF" d="m62.5 3.9v-0.1h0.1 1.1 0.1l0.1 0.1v3.9h2 0.1v0.1 0.9 0.1c0 0.1-0.1 0.1-0.1 0.1h-3.2c-0.1 0-0.2-0.1-0.2-0.2v-4.9z"/>
	<path fill="#FFFFFF" d="m66.5 6.4c0-0.3 0-0.5 0.1-0.7s0.2-0.5 0.3-0.7 0.3-0.4 0.4-0.6c0.2-0.2 0.4-0.3 0.6-0.4s0.4-0.2 0.7-0.3c0.2-0.1 0.5-0.1 0.7-0.1 0.3 0 0.5 0 0.7 0.1s0.5 0.2 0.7 0.3 0.4 0.3 0.6 0.4c0.2 0.2 0.3 0.4 0.4 0.6s0.2 0.4 0.3 0.7c-0.1 0.2 0 0.4 0 0.7s0 0.5-0.1 0.7-0.2 0.5-0.3 0.7-0.3 0.4-0.4 0.6c-0.2 0.2-0.4 0.3-0.6 0.4s-0.4 0.2-0.7 0.3c-0.2 0.1-0.5 0.1-0.7 0.1-0.3 0-0.5 0-0.7-0.1s-0.5-0.2-0.7-0.3-0.4-0.3-0.6-0.4c-0.1-0.3-0.2-0.4-0.4-0.6-0.1-0.2-0.2-0.4-0.3-0.7v-0.7zm1.4 0c0 0.2 0 0.4 0.1 0.6s0.2 0.3 0.3 0.5c0.1 0.1 0.3 0.2 0.4 0.3 0.2 0.1 0.3 0.1 0.5 0.1s0.4 0 0.5-0.1c0.2-0.1 0.3-0.2 0.4-0.3s0.2-0.3 0.3-0.5 0.1-0.4 0.1-0.6 0-0.4-0.1-0.6-0.2-0.3-0.3-0.5c-0.1-0.1-0.3-0.2-0.4-0.3-0.2-0.1-0.3-0.1-0.5-0.1s-0.4 0-0.5 0.1c-0.2 0.1-0.3 0.2-0.4 0.3-0.2 0.2-0.3 0.3-0.3 0.5-0.1 0.2-0.1 0.4-0.1 0.6z"/>
	<path fill="#FFFFFF" d="m76.2 5.2c-0.1-0.1-0.3-0.2-0.4-0.2s-0.3-0.1-0.4-0.1c-0.2 0-0.4 0-0.5 0.1-0.2 0.1-0.3 0.2-0.4 0.3s-0.2 0.3-0.3 0.5c-0.2 0.2-0.2 0.4-0.2 0.6s0 0.4 0.1 0.6 0.2 0.3 0.3 0.4 0.3 0.2 0.4 0.3c0.2 0.1 0.3 0.1 0.5 0.1h0.2 0.3v-1-0.1h0.1 1 0.1l0.1 0.1v1.7c0 0.1 0 0.1-0.1 0.2s-0.2 0.1-0.4 0.2c0 0-0.2 0.1-0.3 0.1s-0.3 0.1-0.5 0.1h-0.4c-0.3 0-0.5 0-0.7-0.1s-0.5-0.2-0.7-0.3-0.4-0.3-0.6-0.4c-0.1-0.2-0.3-0.3-0.4-0.5s-0.2-0.4-0.3-0.7c-0.1-0.2-0.1-0.5-0.1-0.7 0-0.3 0-0.5 0.1-0.7 0.1-0.3 0.2-0.5 0.3-0.7s0.3-0.4 0.4-0.6c0.2-0.1 0.4-0.3 0.6-0.4s0.4-0.2 0.7-0.3c0.2-0.1 0.5-0.1 0.7-0.1 0.3 0 0.6 0 0.8 0.1 0.3 0.1 0.5 0.2 0.7 0.3l0.1 0.1s0 0.1 0 0.1l-0.6 0.8-0.1 0.1c0 0.1-0.1 0.1-0.1 0.1z"/>
</symbol><symbol id="common-cogs" viewBox="0 0 40 32">
<title>cogs</title>
<path d="M32.006 11.938l-0.512 0.894c-0.188 0.331-0.588 0.469-0.944 0.338-0.738-0.275-1.412-0.669-2.006-1.163-0.288-0.238-0.363-0.656-0.175-0.981l0.512-0.894c-0.431-0.5-0.769-1.081-0.994-1.712h-1.031c-0.375 0-0.7-0.269-0.762-0.644-0.125-0.75-0.131-1.538 0-2.319 0.063-0.375 0.387-0.65 0.762-0.65h1.031c0.225-0.631 0.563-1.213 0.994-1.713l-0.512-0.894c-0.188-0.325-0.119-0.744 0.175-0.981 0.594-0.494 1.275-0.887 2.006-1.162 0.356-0.131 0.756 0.006 0.944 0.337l0.512 0.894c0.656-0.119 1.325-0.119 1.981 0l0.513-0.894c0.188-0.331 0.588-0.469 0.944-0.337 0.738 0.275 1.413 0.669 2.006 1.162 0.287 0.238 0.362 0.656 0.175 0.981l-0.513 0.894c0.431 0.5 0.769 1.081 0.994 1.713h1.031c0.375 0 0.7 0.269 0.763 0.644 0.125 0.75 0.131 1.537 0 2.319-0.063 0.375-0.388 0.65-0.763 0.65h-1.031c-0.225 0.631-0.563 1.212-0.994 1.712l0.513 0.894c0.188 0.325 0.119 0.744-0.175 0.981-0.594 0.494-1.275 0.887-2.006 1.163-0.356 0.131-0.756-0.006-0.944-0.338l-0.513-0.894c-0.65 0.119-1.325 0.119-1.981 0zM31.35 8.262c2.406 1.85 5.15-0.894 3.3-3.3-2.406-1.856-5.15 0.894-3.3 3.3zM24.144 17.881l2.106 1.050c0.631 0.363 0.906 1.131 0.656 1.819-0.556 1.512-1.65 2.9-2.662 4.113-0.463 0.556-1.262 0.694-1.894 0.331l-1.819-1.050c-1 0.856-2.162 1.538-3.431 1.981v2.1c0 0.725-0.519 1.35-1.231 1.475-1.538 0.262-3.15 0.275-4.744 0-0.719-0.125-1.25-0.744-1.25-1.475v-2.1c-1.269-0.45-2.431-1.125-3.431-1.981l-1.819 1.044c-0.625 0.363-1.431 0.225-1.894-0.331-1.012-1.213-2.081-2.6-2.638-4.106-0.25-0.681 0.025-1.45 0.656-1.819l2.081-1.050c-0.244-1.306-0.244-2.65 0-3.962l-2.081-1.056c-0.631-0.363-0.912-1.131-0.656-1.813 0.556-1.512 1.625-2.9 2.638-4.112 0.462-0.556 1.263-0.694 1.894-0.331l1.819 1.050c1-0.856 2.163-1.537 3.431-1.981v-2.106c0-0.719 0.512-1.344 1.225-1.469 1.538-0.262 3.156-0.275 4.75-0.006 0.719 0.125 1.25 0.744 1.25 1.475v2.1c1.269 0.45 2.431 1.125 3.431 1.981l1.819-1.050c0.625-0.362 1.431-0.225 1.894 0.331 1.012 1.212 2.075 2.6 2.631 4.112 0.25 0.681 0.006 1.45-0.625 1.819l-2.106 1.050c0.244 1.313 0.244 2.656 0 3.969zM16.794 19.2c3.7-4.813-1.794-10.306-6.606-6.606-3.7 4.813 1.794 10.306 6.606 6.606zM32.006 30.619l-0.512 0.894c-0.188 0.331-0.588 0.469-0.944 0.337-0.738-0.275-1.412-0.669-2.006-1.162-0.288-0.238-0.363-0.656-0.175-0.981l0.512-0.894c-0.431-0.5-0.769-1.081-0.994-1.713h-1.031c-0.375 0-0.7-0.269-0.762-0.644-0.125-0.75-0.131-1.537 0-2.319 0.063-0.375 0.387-0.65 0.762-0.65h1.031c0.225-0.631 0.563-1.212 0.994-1.712l-0.512-0.894c-0.188-0.325-0.119-0.744 0.175-0.981 0.594-0.494 1.275-0.887 2.006-1.163 0.356-0.131 0.756 0.006 0.944 0.338l0.512 0.894c0.656-0.119 1.325-0.119 1.981 0l0.513-0.894c0.188-0.331 0.588-0.469 0.944-0.338 0.738 0.275 1.413 0.669 2.006 1.163 0.287 0.238 0.362 0.656 0.175 0.981l-0.513 0.894c0.431 0.5 0.769 1.081 0.994 1.712h1.031c0.375 0 0.7 0.269 0.763 0.644 0.125 0.75 0.131 1.538 0 2.319-0.063 0.375-0.388 0.65-0.763 0.65h-1.031c-0.225 0.631-0.563 1.213-0.994 1.713l0.513 0.894c0.188 0.325 0.119 0.744-0.175 0.981-0.594 0.494-1.275 0.887-2.006 1.162-0.356 0.131-0.756-0.006-0.944-0.337l-0.513-0.894c-0.65 0.119-1.325 0.119-1.981 0zM31.35 26.938c2.406 1.85 5.15-0.894 3.3-3.3-2.406-1.85-5.15 0.894-3.3 3.3z"></path>
</symbol><symbol id="common-pencil-alt" viewBox="0 0 32 32">
<title>pencil-alt</title>
<path d="M31.119 8.881l-2.881 2.881c-0.294 0.294-0.769 0.294-1.063 0l-6.938-6.938c-0.294-0.294-0.294-0.769 0-1.063l2.881-2.881c1.169-1.169 3.069-1.169 4.244 0l3.756 3.756c1.175 1.169 1.175 3.069 0 4.244zM17.762 6.237c0.294-0.294 0.769-0.294 1.069 0l6.938 6.938c0.294 0.294 0.294 0.769 0 1.063l-16.413 16.413-7.594 1.331c-1.025 0.175-1.919-0.713-1.738-1.738l1.325-7.594zM7.756 21.244c0.344 0.344 0.894 0.344 1.238 0l9.625-9.625c0.344-0.344 0.344-0.894 0-1.238s-0.894-0.344-1.238 0l-9.625 9.625c-0.344 0.344-0.344 0.894 0 1.238zM5.5 26.5v-3h-2.269l-0.706 4.031 1.944 1.944 4.031-0.706v-2.269h-3z"></path>
</symbol><symbol id="common-google" viewBox="0 0 31 32">
<title>google</title>
<path d="M30.5 16.362c0 8.844-6.056 15.137-15 15.137-8.575 0-15.5-6.925-15.5-15.5s6.925-15.5 15.5-15.5c4.175 0 7.688 1.531 10.394 4.056l-4.219 4.056c-5.519-5.325-15.781-1.325-15.781 7.387 0 5.406 4.319 9.787 9.606 9.787 6.137 0 8.438-4.4 8.8-6.681h-8.8v-5.331h14.756c0.144 0.794 0.244 1.556 0.244 2.587z"></path>
</symbol><symbol id="common-dollar-sign" viewBox="0 0 18 32">
<title>dollar-sign</title>
<path d="M13.075 14.588c3.619 1.056 5.875 5.006 4.531 8.856-0.963 2.756-3.694 4.488-6.606 4.544v3.012c0 0.55-0.45 1-1 1h-2c-0.55 0-1-0.45-1-1v-3c-1.963-0.006-3.875-0.675-5.406-1.875-0.494-0.381-0.556-1.1-0.113-1.531l2.175-2.125c0.325-0.319 0.838-0.381 1.219-0.125 0.625 0.425 1.375 0.656 2.138 0.656h4.144c1.019 0 1.844-0.825 1.844-1.844 0-0.813-0.544-1.537-1.325-1.769l-6.406-1.875c-2.775-0.813-4.975-3.156-5.237-6.038-0.369-4.056 2.831-7.475 6.813-7.475h0.156v-3c0-0.55 0.45-1 1-1h2c0.55 0 1 0.45 1 1v3c1.963 0.006 3.875 0.675 5.406 1.875 0.494 0.381 0.556 1.1 0.113 1.531l-2.175 2.125c-0.325 0.319-0.838 0.381-1.219 0.125-0.625-0.425-1.375-0.656-2.137-0.656h-4.144c-1.019 0-1.844 0.825-1.844 1.844 0 0.813 0.544 1.544 1.325 1.769z"></path>
</symbol><symbol id="common-user-r" viewBox="0 0 28 32">
<title>user-r</title>
<path d="M19.6 19c4.637 0 8.4 3.762 8.4 8.4v1.6c0 1.656-1.344 3-3 3h-22c-1.656 0-3-1.344-3-3v-1.6c0-4.637 3.763-8.4 8.4-8.4 1.8 0 2.656 1 5.6 1s3.806-1 5.6-1zM25 29v-1.6c0-2.975-2.425-5.4-5.4-5.4-0.919 0-2.369 1-5.6 1-3.206 0-4.688-1-5.6-1-2.975 0-5.4 2.425-5.4 5.4v1.6h22zM14 18c-4.969 0-9-4.031-9-9s4.031-9 9-9 9 4.031 9 9-4.031 9-9 9zM14 3c-3.306 0-6 2.694-6 6s2.694 6 6 6 6-2.694 6-6-2.694-6-6-6z"></path>
</symbol><symbol id="common-star" viewBox="0 0 36 32">
<title>star</title>
<path d="M16.206 1.113c0.738-1.494 2.856-1.475 3.588 0l4.081 8.275 9.131 1.331c1.638 0.238 2.294 2.256 1.106 3.412l-6.606 6.438 1.563 9.094c0.281 1.644-1.45 2.869-2.9 2.106l-8.169-4.294-8.169 4.294c-1.45 0.769-3.181-0.462-2.9-2.106l1.563-9.094-6.606-6.438c-1.188-1.156-0.531-3.175 1.106-3.412l9.131-1.331z"></path>
</symbol><symbol id="common-shoe-prints" viewBox="0 0 40 32">
<title>shoe-prints</title>
<path d="M12 10c-2.209 0-4-1.791-4-4s1.791-4 4-4h2v8h-2zM0 26c0-2.209 1.791-4 4-4h2v8h-2c-2.209 0-4-1.791-4-4zM21.091 18c5.648 0 10.909 2 10.909 6 0 2.826-2.444 6.081-9.286 7.551-1.999 0.429-4.056 0.532-6.099 0.387-1.706-0.121-3.381-0.486-5.019-0.941l-3.596-0.998v-8c3.763 0 4.996-0.976 6.546-2 1.786-1.18 4.364-2 6.546-2zM30.714 0.449c6.842 1.469 9.286 4.724 9.286 7.551 0 4-5.261 6-10.909 6-2.182 0-4.76-0.82-6.546-2-1.549-1.024-2.783-2-6.546-2v-8l3.596-0.998c1.638-0.454 3.313-0.819 5.019-0.94 2.043-0.145 4.1-0.042 6.099 0.388z"></path>
</symbol><symbol id="common-edit" viewBox="0 0 36 32">
<title>edit</title>
<path d="M25.163 5.2l5.637 5.638c0.238 0.238 0.238 0.625 0 0.863l-13.65 13.65-5.8 0.644c-0.775 0.087-1.431-0.569-1.344-1.344l0.644-5.8 13.65-13.65c0.238-0.237 0.625-0.237 0.863 0zM35.288 3.769c0.95 0.95 0.95 2.494 0 3.45l-2.212 2.213c-0.237 0.238-0.625 0.238-0.862 0l-5.637-5.638c-0.238-0.237-0.238-0.625 0-0.862l2.212-2.213c0.956-0.95 2.5-0.95 3.45 0zM24 21.637c0-0.2 0.081-0.387 0.219-0.531l2.5-2.5c0.475-0.469 1.281-0.137 1.281 0.531v9.863c0 1.656-1.344 3-3 3h-22c-1.656 0-3-1.344-3-3v-22c0-1.656 1.344-3 3-3h17.863c0.669 0 1.006 0.806 0.531 1.281l-2.5 2.5c-0.144 0.138-0.331 0.219-0.531 0.219h-14.363v20h20v-6.363z"></path>
</symbol><symbol id="common-facebook-f" viewBox="0 0 20 32">
<title>facebook-f</title>
<path d="M17.446 18h-4.668v14h-6.261v-14h-5.087v-5.791h5.087v-4.414c0-5.021 2.991-7.795 7.567-7.795 2.192 0 4.484 0.391 4.484 0.391v4.931h-2.526c-2.489 0-3.265 1.544-3.265 3.129v3.758h5.557z"></path>
</symbol><symbol id="common-wheelchair" viewBox="0 0 32 32">
<title>wheelchair</title>
<path d="M31.006 24.104l0.889 1.791c0.246 0.495 0.044 1.095-0.451 1.34l-4.092 2.055c-1.003 0.498-2.222 0.075-2.699-0.941l-3.924-8.351h-8.73c-0.995 0-1.839-0.732-1.98-1.717-2.118-14.826-1.996-13.905-2.020-14.283 0-2.272 1.895-4.102 4.191-3.996 2.079 0.097 3.753 1.807 3.808 3.888 0.054 2.058-1.447 3.776-3.413 4.065l0.292 2.043h8.123c0.552 0 1 0.448 1 1v2c0 0.552-0.448 1-1 1h-7.551l0.286 2h8.265c0.701 0 1.512 0.515 1.81 1.149l3.595 7.65 2.261-1.147c0.495-0.246 1.095-0.044 1.34 0.451zM19.46 22l1.61 3.425c-1.707 3.868-5.578 6.575-10.069 6.575-6.065 0-11-4.935-11-11 0-4.627 2.872-8.596 6.927-10.218 0.165 1.155 0.361 2.523 0.593 4.146-2.102 1.209-3.52 3.478-3.52 6.072 0 3.86 3.14 7 7 7 3.52 0 6.441-2.612 6.928-6h1.532z"></path>
</symbol><symbol id="common-plus-circle" viewBox="0 0 32 32">
<title>plus-circle</title>
<path d="M16 0.5c8.563 0 15.5 6.938 15.5 15.5s-6.938 15.5-15.5 15.5-15.5-6.938-15.5-15.5 6.938-15.5 15.5-15.5zM25 17.75v-3.5c0-0.412-0.338-0.75-0.75-0.75h-5.75v-5.75c0-0.412-0.338-0.75-0.75-0.75h-3.5c-0.412 0-0.75 0.338-0.75 0.75v5.75h-5.75c-0.412 0-0.75 0.338-0.75 0.75v3.5c0 0.412 0.338 0.75 0.75 0.75h5.75v5.75c0 0.412 0.338 0.75 0.75 0.75h3.5c0.412 0 0.75-0.338 0.75-0.75v-5.75h5.75c0.412 0 0.75-0.338 0.75-0.75z"></path>
</symbol><symbol id="common-user-circle" viewBox="0 0 31 32">
<title>user-circle</title>
<path d="M15.5 0.5c8.563 0 15.5 6.938 15.5 15.5s-6.938 15.5-15.5 15.5-15.5-6.938-15.5-15.5 6.938-15.5 15.5-15.5zM15.5 6.5c-3.037 0-5.5 2.463-5.5 5.5s2.463 5.5 5.5 5.5 5.5-2.463 5.5-5.5-2.463-5.5-5.5-5.5zM15.5 28c3.669 0 6.956-1.662 9.156-4.262-1.175-2.212-3.475-3.738-6.156-3.738-0.15 0-0.3 0.025-0.444 0.069-0.806 0.262-1.663 0.431-2.556 0.431s-1.744-0.169-2.556-0.431c-0.144-0.044-0.294-0.069-0.444-0.069-2.681 0-4.981 1.525-6.156 3.738 2.2 2.6 5.487 4.262 9.156 4.262z"></path>
</symbol><symbol id="common-phone" viewBox="0 0 32 32">
<title>phone</title>
<path d="M30.837 1.538c0.681 0.156 1.162 0.762 1.162 1.463 0 16.031-12.994 29-29 29-0.706 0-1.306-0.488-1.463-1.162l-1.5-6.5c-0.162-0.706 0.206-1.431 0.875-1.725l7-3c0.613-0.262 1.325-0.087 1.75 0.431l3.1 3.787c4.894-2.294 8.825-6.281 11.075-11.075l-3.788-3.1c-0.519-0.419-0.694-1.137-0.431-1.75l3-7c0.287-0.662 1.012-1.031 1.719-0.869z"></path>
</symbol><symbol id="common-eye-r" viewBox="0 0 36 32">
<title>eye-r</title>
<path d="M18 9c0.006 0 0.015-0 0.021-0 3.854 0 6.982 3.128 6.982 6.982s-3.128 6.982-6.982 6.982-6.982-3.128-6.982-6.982c0-0.545 0.122-1.411 0.273-1.934 0.433 0.246 1.189 0.449 1.688 0.453 1.932 0 3.5-1.568 3.5-3.5-0.003-0.498-0.206-1.254-0.453-1.688 0.526-0.164 1.401-0.304 1.953-0.313zM35.782 15.088c0.12 0.237 0.217 0.646 0.217 0.912s-0.097 0.675-0.217 0.912c-3.387 6.611-10.099 11.088-17.782 11.088s-14.393-4.474-17.782-11.087c-0.12-0.237-0.217-0.646-0.217-0.912s0.097-0.675 0.217-0.912c3.387-6.611 10.099-11.088 17.782-11.088s14.393 4.474 17.782 11.088zM18 25c6.166 0 11.819-3.438 14.871-9-3.053-5.563-8.704-9-14.871-9s-11.818 3.438-14.871 9c3.053 5.563 8.705 9 14.871 9z"></path>
</symbol><symbol id="common-gift" viewBox="0 0 32 32">
<title>gift</title>
<path d="M2 28v-8h12v10h-10c-1.106 0-2-0.894-2-2zM18 30v-10h12v8c0 1.106-0.894 2-2 2h-10zM30 10c1.106 0 2 0.894 2 2v5c0 0.55-0.45 1-1 1h-30c-0.55 0-1-0.45-1-1v-5c0-1.106 0.894-2 2-2h2.756c-0.394-0.756-0.631-1.594-0.631-2.5 0-3.031 2.469-5.5 5.5-5.5 2.6 0 4.281 1.331 6.438 4.269 2.156-2.938 3.838-4.269 6.438-4.269 3.031 0 5.5 2.469 5.5 5.5 0 0.906-0.244 1.744-0.631 2.5h2.631zM9.619 10h5.381c-3.219-4.794-4.137-5-5.381-5-1.381 0-2.5 1.119-2.5 2.5s1.119 2.5 2.5 2.5zM22.5 10c1.381 0 2.5-1.119 2.5-2.5s-1.119-2.5-2.5-2.5c-1.275 0-2.169 0.219-5.381 5h5.381z"></path>
</symbol><symbol id="common-external-link" viewBox="0 0 28 28">
  <title>external-link</title>
  <path d="M22 14.5v5c0 2.484-2.016 4.5-4.5 4.5h-13c-2.484 0-4.5-2.016-4.5-4.5v-13c0-2.484 2.016-4.5 4.5-4.5h11c0.281 0 0.5 0.219 0.5 0.5v1c0 0.281-0.219 0.5-0.5 0.5h-11c-1.375 0-2.5 1.125-2.5 2.5v13c0 1.375 1.125 2.5 2.5 2.5h13c1.375 0 2.5-1.125 2.5-2.5v-5c0-0.281 0.219-0.5 0.5-0.5h1c0.281 0 0.5 0.219 0.5 0.5zM28 1v8c0 0.547-0.453 1-1 1-0.266 0-0.516-0.109-0.703-0.297l-2.75-2.75-10.187 10.187c-0.094 0.094-0.234 0.156-0.359 0.156s-0.266-0.063-0.359-0.156l-1.781-1.781c-0.094-0.094-0.156-0.234-0.156-0.359s0.063-0.266 0.156-0.359l10.187-10.187-2.75-2.75c-0.187-0.187-0.297-0.438-0.297-0.703 0-0.547 0.453-1 1-1h8c0.547 0 1 0.453 1 1z"></path>
</symbol><symbol id="common-clock-r" viewBox="0 0 32 32">
<title>clock-r</title>
<path d="M16 0.5c8.563 0 15.5 6.938 15.5 15.5s-6.938 15.5-15.5 15.5-15.5-6.938-15.5-15.5 6.938-15.5 15.5-15.5zM16 28.5c6.906 0 12.5-5.594 12.5-12.5s-5.594-12.5-12.5-12.5-12.5 5.594-12.5 12.5 5.594 12.5 12.5 12.5zM19.863 21.975l-5.306-3.856c-0.194-0.144-0.306-0.369-0.306-0.606v-10.262c0-0.412 0.338-0.75 0.75-0.75h2c0.412 0 0.75 0.338 0.75 0.75v8.856l4.175 3.037c0.338 0.244 0.406 0.713 0.163 1.050l-1.175 1.619c-0.244 0.331-0.712 0.406-1.050 0.162z"></path>
</symbol><symbol id="common-twitter" viewBox="0 0 32 32">
<title>twitter</title>
<path d="M28.711 9.482c0.020 0.284 0.020 0.569 0.020 0.853 0 8.67-6.599 18.66-18.66 18.66-3.716 0-7.168-1.076-10.071-2.944 0.528 0.061 1.036 0.081 1.584 0.081 3.066 0 5.888-1.036 8.142-2.802-2.883-0.061-5.3-1.949-6.132-4.548 0.406 0.061 0.812 0.102 1.239 0.102 0.589 0 1.178-0.081 1.726-0.223-3.005-0.609-5.259-3.249-5.259-6.436v-0.081c0.873 0.487 1.888 0.792 2.964 0.832-1.766-1.178-2.924-3.188-2.924-5.462 0-1.218 0.325-2.335 0.893-3.31 3.228 3.98 8.081 6.579 13.523 6.863-0.101-0.487-0.162-0.995-0.162-1.502 0-3.614 2.924-6.558 6.558-6.558 1.888 0 3.594 0.792 4.792 2.071 1.482-0.284 2.903-0.832 4.162-1.584-0.487 1.523-1.523 2.802-2.883 3.614 1.32-0.142 2.599-0.508 3.777-1.015-0.893 1.299-2.010 2.457-3.289 3.391z"></path>
</symbol><symbol id="common-puzzle-piece" viewBox="0 0 36 32">
<title>puzzle-piece</title>
<path d="M32.465 18.041c2.35 0 3.535 1.975 3.535 4.112 0 2.097-1.206 3.847-3.433 3.847-2.493 0-3.147-2.26-5.394-2.26-3.785 0-1.614 7.506-1.614 7.506-3.222 0-11.327 2.192-11.327-1.608 0-2.239 2.268-2.891 2.268-5.374 0-2.219-1.757-3.42-3.862-3.42-2.145 0-3.974 1.181-3.974 3.522 0 2.585 2.5 3.687 2.5 5.092 0 4.357-11.165 1.791-11.165 1.791v-20.827s10.993 2.56 10.993-1.791c0-1.405-1.982-2.524-1.982-5.109 0-2.341 1.982-3.522 4.148-3.522 2.084 0 3.841 1.201 3.841 3.42 0 2.483-2.268 3.135-2.268 5.374 0 5.206 12.268 0.206 12.268 0.206s-3.412 11.015 0.337 11.015c1.41 0 2.534-1.975 5.129-1.975z"></path>
</symbol><symbol id="common-calendar" viewBox="0 0 28 32">
<title>calendar</title>
<path d="M0.75 12h26.5c0.412 0 0.75 0.338 0.75 0.75v16.25c0 1.656-1.344 3-3 3h-22c-1.656 0-3-1.344-3-3v-16.25c0-0.412 0.338-0.75 0.75-0.75zM28 9.25c0 0.412-0.338 0.75-0.75 0.75h-26.5c-0.412 0-0.75-0.338-0.75-0.75v-2.25c0-1.656 1.344-3 3-3h3v-3.25c0-0.412 0.338-0.75 0.75-0.75h2.5c0.412 0 0.75 0.338 0.75 0.75v3.25h8v-3.25c0-0.412 0.338-0.75 0.75-0.75h2.5c0.412 0 0.75 0.338 0.75 0.75v3.25h3c1.656 0 3 1.344 3 3v2.25z"></path>
</symbol><symbol id="common-quote-left" viewBox="0 0 32 32">
<title>quote-left</title>
<path d="M29 16c1.656 0 3 1.344 3 3v8c0 1.656-1.344 3-3 3h-8c-1.656 0-3-1.344-3-3v-15c0-5.525 4.475-10 10-10h0.5c0.831 0 1.5 0.669 1.5 1.5v3c0 0.831-0.669 1.5-1.5 1.5h-0.5c-2.206 0-4 1.794-4 4v4h5zM11 16c1.656 0 3 1.344 3 3v8c0 1.656-1.344 3-3 3h-8c-1.656 0-3-1.344-3-3v-15c0-5.525 4.475-10 10-10h0.5c0.831 0 1.5 0.669 1.5 1.5v3c0 0.831-0.669 1.5-1.5 1.5h-0.5c-2.206 0-4 1.794-4 4v4h5z"></path>
</symbol><symbol id="common-caret-left" viewBox="0 0 12 32">
<title>caret-left</title>
<path d="M12 7.959v16.083c0 1.114-1.346 1.671-2.134 0.884l-8.041-8.041c-0.488-0.488-0.488-1.28 0-1.768l8.041-8.041c0.787-0.788 2.134-0.23 2.134 0.884z"></path>
</symbol><symbol id="common-user-alt" viewBox="0 0 32 32">
<title>user-alt</title>
<path d="M16 18c-4.969 0-9-4.031-9-9s4.031-9 9-9 9 4.031 9 9-4.031 9-9 9zM24 20c4.419 0 8 3.581 8 8v1c0 1.656-1.344 3-3 3h-26c-1.656 0-3-1.344-3-3v-1c0-4.419 3.581-8 8-8h3.444c1.394 0.637 2.931 1 4.556 1s3.169-0.363 4.556-1h3.444z"></path>
</symbol><symbol id="common-car-alt" viewBox="0 0 30 32">
<title>car-alt</title>
<path d="M27.416 13.271c1.508 0.573 2.584 2.021 2.584 3.729v3c0 1.008-0.385 1.917-1 2.621v3.379c0 1.104-0.896 2-2 2h-2c-1.104 0-2-0.896-2-2v-2h-16v2c0 1.104-0.896 2-2 2h-2c-1.104 0-2-0.896-2-2v-3.379c-0.615-0.704-1-1.613-1-2.621v-3c0-1.709 1.076-3.156 2.584-3.729l1.948-4.871c1.069-2.673 3.621-4.4 6.499-4.4h7.938c2.879 0 5.43 1.727 6.499 4.4l1.246 3.114zM8.246 9.886l-1.246 3.114h16l-1.246-3.114c-0.456-1.139-1.559-1.886-2.786-1.886h-7.938c-1.227 0-2.33 0.747-2.786 1.886zM5 19.988c1.2 0 3 0.199 3-0.997s-1.8-2.991-3-2.991-2 0.797-2 1.994c0 1.196 0.8 1.994 2 1.994zM25 19.988c1.2 0 2-0.797 2-1.994s-0.8-1.994-2-1.994-3 1.794-3 2.991c0 1.196 1.8 0.997 3 0.997z"></path>
</symbol>
<symbol id="common-car" viewBox="0 0 32 32">
<title>car</title>
<path d="M31.249 11h-3.742l-1.040-2.6c-1.069-2.673-3.619-4.4-6.499-4.4h-7.938c-2.879 0-5.43 1.727-6.499 4.4l-1.040 2.6h-3.741c-0.488 0-0.846 0.459-0.728 0.932l0.375 1.5c0.083 0.334 0.383 0.568 0.728 0.568h1.254c-0.839 0.733-1.38 1.799-1.38 3v3c0 1.008 0.385 1.917 1 2.621v3.379c0 1.104 0.896 2 2 2h2c1.104 0 2-0.896 2-2v-2h16v2c0 1.104 0.896 2 2 2h2c1.104 0 2-0.896 2-2v-3.379c0.615-0.703 1-1.613 1-2.621v-3c0-1.201-0.541-2.267-1.379-3h1.254c0.344 0 0.644-0.234 0.727-0.568l0.375-1.5c0.118-0.473-0.24-0.932-0.728-0.932zM9.246 9.886c0.456-1.139 1.559-1.886 2.786-1.886h7.938c1.227 0 2.33 0.747 2.786 1.886l1.246 3.114h-16l1.246-3.114zM6 19.988c-1.2 0-2-0.797-2-1.994s0.8-1.994 2-1.994 3 1.794 3 2.991-1.8 0.997-3 0.997zM26 19.988c-1.2 0-3 0.199-3-0.997s1.8-2.991 3-2.991 2 0.797 2 1.994-0.8 1.994-2 1.994z"></path>
</symbol>
<symbol id="common-angle-left" viewBox="0 0 16 32">
<title>angle-left</title>
<path d="M1.981 14.938l8.5-8.5c0.587-0.588 1.537-0.588 2.119 0l1.413 1.412c0.587 0.588 0.587 1.538 0 2.119l-6.019 6.031 6.025 6.025c0.588 0.587 0.588 1.537 0 2.119l-1.412 1.419c-0.588 0.588-1.538 0.588-2.119 0l-8.5-8.5c-0.594-0.588-0.594-1.537-0.006-2.125z"></path>
</symbol><symbol id="common-apple" viewBox="0 0 24 32">
<title>apple</title>
<path d="M19.919 16.794c0 0.119-0.219 3.825 3.856 5.744-0.762 2.3-3.375 7.413-6.413 7.456-1.756 0-2.787-1.119-4.775-1.119-2.050 0-3.163 1.081-4.738 1.119-3.012 0.094-5.9-5.531-6.7-7.825-0.6-1.746-0.9-3.438-0.9-5.075 0-5.544 3.706-8.269 7.194-8.325 1.688 0 3.838 1.231 4.775 1.231 0.887 0 3.313-1.469 5.531-1.294 2.344 0.181 4.119 1.106 5.294 2.788-2.1 1.275-3.137 3.006-3.125 5.3zM16.381 6.531c-1.225 1.431-2.712 2.269-4.344 2.144-0.137-1.725 0.506-3.256 1.6-4.494 0.994-1.156 2.738-2.094 4.244-2.181 0.050 0.662 0.206 2.506-1.5 4.531z"></path>
</symbol><symbol id="common-telegram-plane" viewBox="0 0 32 32">
<title>telegram-plane</title>
<path d="M27.919 6.162l-4.225 19.925c-0.319 1.406-1.15 1.756-2.331 1.094l-6.438-4.744-3.106 2.988c-0.344 0.344-0.631 0.631-1.294 0.631l0.462-6.556 11.931-10.781c0.519-0.463-0.113-0.719-0.806-0.256l-14.75 9.287-6.35-1.988c-1.381-0.431-1.406-1.381 0.287-2.044l24.837-9.569c1.15-0.431 2.156 0.256 1.781 2.012z"></path>
</symbol><symbol id="common-users" viewBox="0 0 40 32">
<title>users</title>
<path d="M6 14c2.206 0 4-1.794 4-4s-1.794-4-4-4-4 1.794-4 4 1.794 4 4 4zM34 14c2.206 0 4-1.794 4-4s-1.794-4-4-4-4 1.794-4 4 1.794 4 4 4zM36 16h-4c-1.1 0-2.094 0.444-2.819 1.163 2.519 1.381 4.306 3.875 4.694 6.837h4.125c1.106 0 2-0.894 2-2v-2c0-2.206-1.794-4-4-4zM20 16c3.869 0 7-3.131 7-7s-3.131-7-7-7-7 3.131-7 7 3.131 7 7 7zM24.8 18h-0.519c-1.3 0.625-2.744 1-4.281 1s-2.975-0.375-4.281-1h-0.519c-3.975 0-7.2 3.225-7.2 7.2v1.8c0 1.656 1.344 3 3 3h18c1.656 0 3-1.344 3-3v-1.8c0-3.975-3.225-7.2-7.2-7.2zM10.819 17.163c-0.725-0.719-1.719-1.163-2.819-1.163h-4c-2.206 0-4 1.794-4 4v2c0 1.106 0.894 2 2 2h4.119c0.394-2.962 2.181-5.456 4.7-6.837z"></path>
</symbol><symbol id="common-gamepad" viewBox="0 0 40 32">
<title>gamepad</title>
<path d="M30.004 6c5.518 0.002 9.997 4.482 9.997 10 0 5.52-4.48 10-10 10-2.319 0-5.518-1.344-7.141-3h-5.72c-1.623 1.656-4.823 3-7.141 3-5.52 0-10-4.48-10-10s4.48-10 10-10h20.006zM15.5 16.75v-1.5c0-0.414-0.336-0.75-0.75-0.75h-3.25v-3.25c0-0.414-0.336-0.75-0.75-0.75h-1.5c-0.414 0-0.75 0.336-0.75 0.75v3.25h-3.25c-0.414 0-0.75 0.336-0.75 0.75v1.5c0 0.414 0.336 0.75 0.75 0.75h3.25v3.25c0 0.414 0.336 0.75 0.75 0.75h1.5c0.414 0 0.75-0.336 0.75-0.75v-3.25h3.25c0.414 0 0.75-0.336 0.75-0.75zM29 21.5c1.38 0 2.5-1.12 2.5-2.5s-1.12-2.5-2.5-2.5-2.5 1.12-2.5 2.5 1.12 2.5 2.5 2.5zM33 15.5c1.38 0 2.5-1.12 2.5-2.5s-1.12-2.5-2.5-2.5-2.5 1.12-2.5 2.5 1.12 2.5 2.5 2.5z"></path>
</symbol><symbol id="common-minus" viewBox="0 0 28 32">
<title>minus</title>
<path d="M26 13c1.104 0 2 0.896 2 2v2c0 1.104-0.896 2-2 2h-24c-1.104 0-2-0.896-2-2v-2c0-1.104 0.896-2 2-2h24z"></path>
</symbol><symbol id="common-times" viewBox="0 0 22 32">
<title>times</title>
<path d="M15.17 16l6.254 6.254c0.768 0.768 0.768 2.012 0 2.78l-1.39 1.39c-0.768 0.768-2.012 0.768-2.78 0l-6.254-6.254-6.254 6.254c-0.767 0.768-2.012 0.768-2.78 0l-1.39-1.39c-0.768-0.768-0.768-2.012 0-2.78l6.254-6.254-6.254-6.254c-0.768-0.768-0.768-2.012 0-2.78l1.39-1.39c0.768-0.768 2.013-0.768 2.78 0l6.254 6.254 6.254-6.254c0.768-0.768 2.012-0.768 2.78 0l1.39 1.39c0.768 0.768 0.768 2.013 0 2.78z"></path>
</symbol><symbol id="common-chevron-left" viewBox="0 0 20 32">
<title>chevron-left</title>
<path d="M2.157 14.939l12.147-12.146c0.586-0.586 1.536-0.586 2.121 0l1.417 1.417c0.585 0.585 0.586 1.532 0.002 2.119l-9.627 9.671 9.626 9.672c0.584 0.586 0.583 1.534-0.003 2.119l-1.417 1.417c-0.586 0.586-1.536 0.586-2.121 0l-12.146-12.147c-0.586-0.586-0.586-1.536 0-2.121z"></path>
</symbol><symbol id="common-print" viewBox="0 0 32 32">
<title>print</title>
<path d="M28 12c2.209 0 4 1.791 4 4v7c0 0.552-0.448 1-1 1h-3v6c0 1.104-0.896 2-2 2h-20c-1.104 0-2-0.896-2-2v-6h-3c-0.552 0-1-0.448-1-1v-7c0-2.209 1.791-4 4-4v-10c0-1.104 0.896-2 2-2h17.171c0.531 0 1.039 0.211 1.414 0.586l2.829 2.828c0.375 0.376 0.586 0.884 0.586 1.414v7.172zM24 28v-6h-16v6h16zM24 14v-6h-3c-0.552 0-1-0.447-1-1v-3h-12v10h16zM27 18.5c0.828 0 1.5-0.672 1.5-1.5s-0.672-1.5-1.5-1.5-1.5 0.671-1.5 1.5c0 0.828 0.672 1.5 1.5 1.5z"></path>
</symbol><symbol id="common-check-circle-r" viewBox="0 0 32 32">
<title>check-circle-r</title>
<path d="M16 0.5c8.56 0 15.5 6.94 15.5 15.5s-6.94 15.5-15.5 15.5-15.5-6.94-15.5-15.5 6.94-15.5 15.5-15.5zM16 3.5c-6.909 0-12.5 5.592-12.5 12.5 0 6.909 5.592 12.5 12.5 12.5 6.909 0 12.5-5.592 12.5-12.5 0-6.909-5.592-12.5-12.5-12.5zM24.763 11.642c0.292 0.294 0.29 0.769-0.004 1.061l-10.787 10.7c-0.294 0.292-0.769 0.29-1.061-0.004l-5.674-5.72c-0.292-0.294-0.29-0.769 0.004-1.061l1.42-1.409c0.294-0.292 0.769-0.29 1.061 0.004l3.737 3.767 8.835-8.764c0.294-0.292 0.769-0.29 1.061 0.004z"></path>
</symbol>
<symbol id="common-video" viewBox="0 0 36 32">
<title>video</title>
<path d="M21.012 4c1.65 0 2.988 1.338 2.988 2.987v18.025c0 1.65-1.338 2.988-2.988 2.988h-18.025c-1.65 0-2.987-1.338-2.987-2.988v-18.025c0-1.65 1.338-2.987 2.987-2.987h18.025zM32.85 6.356c1.331-0.913 3.15 0.025 3.15 1.612v16.056c0 1.594-1.825 2.525-3.15 1.613l-6.85-4.719v-9.838z"></path>
</symbol>
<symbol id="common-facebook-square" viewBox="0 0 32 32">
<title>facebook-square</title>
<path d="M25 2c1.656 0 3 1.344 3 3v22c0 1.656-1.344 3-3 3h-8.578v-9.519h3.611l0.688-4.481h-4.299v-2.909c0-1.226 0.601-2.421 2.526-2.421h1.954v-3.813s-1.774-0.303-3.47-0.303c-3.542 0-5.854 2.146-5.854 6.030v3.415h-3.938v4.481h3.938v9.519h-8.578c-1.656 0-3-1.344-3-3v-22c0-1.656 1.344-3 3-3h22z"></path>
</symbol>
<symbol id="common-tiktok" viewBox="0 0 32 32">
<title>tiktok</title>
<path d="M29.996 13.123c-0.009 0-0.020 0-0.031 0-2.868 0-5.521-0.919-7.68-2.48l0.039 0.027v11.17c-0.002 5.609-4.55 10.156-10.159 10.156-5.611 0-10.159-4.549-10.159-10.159s4.548-10.159 10.159-10.159c0.492 0 0.976 0.035 1.449 0.103l-0.054-0.006v5.618c-0.418-0.136-0.9-0.215-1.399-0.215-2.576 0-4.664 2.088-4.664 4.664s2.088 4.664 4.664 4.664c2.576 0 4.664-2.088 4.664-4.664 0-0 0-0 0-0v0-21.836h5.5c-0 0.018-0 0.040-0 0.062 0 0.468 0.042 0.925 0.124 1.37l-0.007-0.046c0.406 2.115 1.638 3.886 3.34 4.996l0.029 0.018c1.178 0.789 2.627 1.259 4.186 1.259 0.001 0 0.001 0 0.002 0h-0z"></path>
</symbol>
<symbol id="common-tablet-screen-button" viewBox="0 0 32 32">
<title>tablet-screen-button</title>
<path d="M26 0.028h-20c-2.209 0-4 1.791-4 4v24c0 2.209 1.791 3.944 4 3.944h20c2.209 0 4-1.791 4-3.944v-24c0-2.209-1.794-4-4-4zM16 30.028c-1.109 0-2-0.891-2-2s0.891-2 2-2 2 0.891 2 2-0.887 2-2 2zM26 24.028h-20v-20h20v20z"></path>
</symbol>
<symbol id="common-qrcode" viewBox="0 0 32 32">
<title>qrcode</title>
<path d="M11 2c1.656 0 3 1.343 3 3v6c0 1.656-1.344 3-3 3h-6c-1.657 0-3-1.344-3-3v-6c0-1.657 1.343-3 3-3h6zM10 6h-4v4h4v-4zM11 18c1.656 0 3 1.344 3 3v6c0 1.656-1.344 3-3 3h-6c-1.657 0-3-1.344-3-3v-6c0-1.656 1.343-3 3-3h6zM10 22h-4v4h4v-4zM18 5c0-1.657 1.344-3 3-3h6c1.656 0 3 1.343 3 3v6c0 1.656-1.344 3-3 3h-6c-1.656 0-3-1.344-3-3v-6zM22 10h4v-4h-4v4zM24 28h2v2h-2v-2zM30 30h-2v-2h2v2zM28 18h2v8h-6v-2h-2v6h-4v-12h6v2h4v-2z"></path>
</symbol>
<symbol id="common-circle-arrow-right" viewBox="0 0 32 32">
<path d="M0.069 15.931c0-8.828 7.172-16 16-16s16 7.172 16 16-7.172 16-16 16-16-7.172-16-16zM0.759 15.931c0 8.414 6.897 15.31 15.31 15.31s15.31-6.897 15.31-15.31-6.897-15.31-15.31-15.31c-8.414 0-15.31 6.897-15.31 15.31z"></path>
<path d="M11.379 15.655h8.966v0.69h-8.966v-0.69z"></path>
<path d="M20.069 16.207l0.69-0.276-3.586-3.862-0.414 0.414z"></path>
<path d="M17.172 19.793l3.586-3.862-0.69-0.276-3.31 3.724z"></path>
</symbol>
</svg>
