<?xml version="1.0" encoding="UTF-8"?>
<svg baseProfile="basic" version="1.1" viewBox="0 0 250 38" xml:space="preserve" xmlns="http://www.w3.org/2000/svg">
	<path d="M8.7,6.3c4.7-0.6,18.1-1,14.5,18.3l4.2-0.3c-1.8-11.9,2-18,13.9-18.6C21.5-5.2,10.2,6.2,8.7,6.3z" fill="#FAC415"/>
	<path d="m27.1 21.6c2.2 5.9 8.7 8.9 14.6 6.7s8.9-8.7 6.7-14.6-8.7-8.9-14.6-6.7c-5.8 2.2-8.8 8.8-6.7 14.6z" fill="#fff"/>
	<circle cx="12.6" cy="17.7" r="11.3" fill="#fff"/>
	<circle cx="12.5" cy="17.5" r="2.1" fill="#EE6946"/>
	<circle cx="37.7" cy="17.5" r="2.1" fill="#00AF87"/>
	<path d="m47.9 10.2c0.5-1.8 1.4-3.5 2.5-5h-8.4c-5-3.2-10.9-4.8-16.8-4.7-6.1-0.2-12.1 1.5-17.3 4.7h-7.9c1.1 1.5 1.9 3.2 2.5 5-4.1 5.6-2.9 13.5 2.7 17.6 5.4 4 13.1 3 17.3-2.3l2.7 4 2.7-4.1c4.3 5.5 12.2 6.4 17.7 2.1 5.4-4.1 6.4-11.8 2.3-17.3zm-10.5-5.1c-6.4 0.2-11.7 5.2-12.2 11.6-0.5-6.5-5.8-11.5-12.3-11.7 3.9-1.6 8.1-2.4 12.3-2.4 4.1 0 8.3 0.8 12.2 2.5zm-24.8 22.6c-5.6 0-10.1-4.5-10.1-10.1s4.5-10.1 10.1-10.1 10.1 4.5 10.1 10.1-4.5 10.1-10.1 10.1zm28.7-0.6c-5.2 1.9-11-0.7-12.9-6-1.9-5.2 0.7-11 6-12.9s11 0.7 12.9 6c1.8 5.2-0.8 11-6 12.9z"/>
	<path d="m12.5 11.3c-3.4 0-6.2 2.8-6.2 6.2s2.8 6.2 6.2 6.2 6.2-2.8 6.2-6.2-2.8-6.2-6.2-6.2zm0 10.3c-2.3 0-4.1-1.8-4.1-4.1s1.8-4.1 4.1-4.1 4.1 1.8 4.1 4.1c-0.1 2.3-1.9 4.1-4.1 4.1z"/>
	<path d="m37.7 11.3c-3.4 0-6.2 2.8-6.2 6.2s2.8 6.2 6.2 6.2 6.2-2.8 6.2-6.2c0.1-3.4-2.7-6.2-6.2-6.2zm0 10.3c-2.3 0-4.1-1.8-4.1-4.1s1.8-4.1 4.1-4.1 4.1 1.8 4.1 4.1-1.8 4.1-4.1 4.1z"/>
	<path d="m178.9 3.7c0 1.3 1.1 2.4 2.4 2.4s2.4-1.1 2.4-2.4-1.1-2.4-2.4-2.4-2.4 1.1-2.4 2.4z" fill="#00AF87"/>
	<path d="m63.6 3.5l-3.7 1.3v4.8h-4.1v3.2h4v10.3c0 4.9 1.7 6.9 5.8 6.9 1 0 2.1-0.1 3-0.4h0.2v-3.3l-0.3 0.1c-0.6 0.2-1.3 0.4-1.9 0.4-1.9 0-2.6-1.1-2.6-4v-10h4.7v-3.2h-4.7v-6.2l-0.4 0.1z"/>
	<path d="m76.3 12.9v-3.3h-3.7v20.1h4.1v-10.1c0-4.2 1.8-6.6 5-6.6 0.5 0 1 0.1 1.5 0.2l0.3 0.1 0.1-4-1.8-0.1c-2.4 0.1-4.6 1.5-5.5 3.7z"/>
	<path d="m105.4 9.1c-2.7 0-5.3 1.4-6.7 3.7v-3.2h-3.7v28.4h4.1v-11c1.4 2 3.8 3.2 6.2 3.1 5.2 0 8.5-4.2 8.5-10.8 0-6.1-3.4-10.2-8.4-10.2zm-1.1 17.7c-3.2 0-5.2-2.8-5.2-7.2 0-4.3 2.1-7 5.4-7 3.2 0 5 2.6 5 7s-2 7.2-5.2 7.2z"/>
	<path d="m125.7 9.1c-2.3 0-4.6 0.5-6.7 1.4l-0.1 0.1v3.5l0.3-0.2c1.6-1 3.5-1.5 5.4-1.6 3 0 4.7 1.7 4.7 4.7v0.2h-2.3c-6.7 0-10.4 2.4-10.4 6.9 0 3.5 2.7 6 6.5 6 2.6 0.1 5-1.1 6.5-3.2v2.9h3.7v-12.2c0-5.6-2.6-8.5-7.6-8.5zm3.6 12.2c0 3.5-2.1 5.7-5.3 5.7-1.7 0.1-3.2-1.2-3.3-2.9v-0.3c0-2.4 2.3-3.8 6.6-3.8h2.1l-0.1 1.3z" fill="#00AF87"/>
	<path d="m150.6 0v12.4c-1.4-2.1-3.8-3.3-6.3-3.2-5 0-8.3 4.1-8.3 10.2 0 6.3 3.4 10.7 8.3 10.7 2.8 0.1 5.3-1.4 6.7-3.8v3.4h3.8v-29.7h-4.2zm-5.3 26.7c-3.1 0-5-2.7-5-7.1s2-7.2 5-7.2c3.4 0 5.4 2.7 5.4 7.2-0.1 4.3-2.2 7.1-5.4 7.1z" fill="#00AF87"/>
	<path d="m173 9.6l-5.8 11.6-5.4-11.6h-4.6l9.9 20.1 10.1-20.1h-4.2z" fill="#00AF87"/>
	<path d="M183.2,9.6h-3.9v20.1h4.1V9.6H183.2z" fill="#00AF87"/>
	<path d="m188.2 14.8c0 2.8 1.9 4.3 5.5 6.1 2.3 1.1 3.5 1.8 3.5 3.3 0 1.6-1.5 2.7-3.7 2.7-1.8 0-3.5-0.5-5.1-1.3l-0.3-0.1-0.1 3.5 0.1 0.1c1.7 0.7 3.5 1 5.3 1 5 0 8.2-2.4 8.2-6.1 0-3.1-2-4.6-5.6-6.3-2.6-1.2-3.7-1.9-3.7-3.2 0-1.2 1.2-2 3.1-2 1.7 0 3.4 0.4 4.9 1.1l0.3 0.1 0.2-3.5-0.2-0.1c-1.6-0.5-3.3-0.7-5-0.8-4.4 0.1-7.4 2.3-7.4 5.5z" fill="#00AF87"/>
	<path d="m214.3 9.1c-6.1 0-10 4-10 10.5s3.8 10.5 10 10.5 10-4 10-10.5-3.9-10.5-10-10.5zm0 17.8c-3.4 0-5.7-2.9-5.7-7.2 0-4.4 2.3-7.3 5.7-7.3s5.7 2.9 5.7 7.3c0 4.3-2.2 7.2-5.7 7.2z" fill="#00AF87"/>
	<path d="m231.8 12.9v-3.3h-3.7v20.1h4.1v-10.1c0-4.2 1.8-6.6 5-6.6 0.5 0 1 0.1 1.5 0.2l0.3 0.1 0.1-4-1.8-0.1c-2.4 0.1-4.5 1.5-5.5 3.7z" fill="#00AF87"/>
	<path d="m90.8 9.6h-3.9v20.1h4.1v-20.1h-0.2z"/>
	<path d="m86.5 3.7c0 1.3 1.1 2.4 2.4 2.4s2.4-1.1 2.4-2.4-1.1-2.4-2.4-2.4-2.4 1.1-2.4 2.4z"/>
	<g opacity=".5">
		<path d="m249 6.8c0.7 0.7 1 1.6 1 2.6s-0.4 1.9-1.1 2.6-1.6 1.1-2.6 1.1-1.9-0.4-2.6-1.1-1-1.6-1-2.5c0-1 0.4-1.9 1.1-2.6s1.6-1 2.5-1c1-0.2 2 0.2 2.7 0.9zm-4.7 0.4c-0.6 0.6-0.9 1.3-0.9 2.2 0 1.6 1.3 3 3 3 0.8 0 1.5-0.3 2.1-0.9 1.2-1.2 1.2-3 0-4.2-0.6-0.6-1.3-0.9-2.1-0.9-0.8-0.1-1.6 0.2-2.1 0.8zm2.1 0c1.2 0 1.7 0.4 1.7 1.2 0 0.5-0.3 1-0.9 1.1l0.9 1.8h-1.1l-0.8-1.6h-0.3v1.6h-1.1v-4l1.6-0.1zm-0.5 1.8h0.4c0.5 0 0.7-0.2 0.7-0.5 0-0.4-0.2-0.5-0.8-0.5h-0.3v1z" fill="#00AF87"/>
	</g>
</svg>
